<?xml version='1.0' encoding='UTF-8'?>
<svg xmlns:xlink="http://www.w3.org/1999/xlink" xmlns="http://www.w3.org/2000/svg" version="1.1" width="30px" height="30px" viewBox="0.0 0.0 30.0 30.0"><defs><g id="c1"><path fill="#000000" stroke="none" d="M5.0 -5.0 L5.0 5.0 -5.0 5.0 -5.0 -5.0 5.0 -5.0"/></g><g id="c2"><g><use transform="matrix(1.0,0.0,0.0,1.0,0.0,0.0)" xlink:href="#c1"/></g></g><g id="c3"><path fill="#faffff" stroke="none" d="M8.5 -1.65 Q7.6 -1.65 7.6 -2.5 7.6 -3.4 8.5 -3.4 9.35 -3.4 9.4 -2.5 9.35 -1.65 8.5 -1.65 M2.75 -0.2 Q1.75 -0.9 0.65 -0.9 L-0.05 -0.8 Q-1.3 -0.55 -2.05 0.4 -2.85 1.35 -2.85 2.65 -2.85 3.75 -2.2 4.75 -3.65 3.55 -3.65 1.85 -3.65 0.4 -2.6 -0.65 -1.55 -1.7 -0.1 -1.65 L-0.05 -1.65 Q1.7 -1.7 2.75 -0.2 M-6.3 -3.6 L-6.3 -1.4 -9.9 -1.4 -9.9 -3.6 -6.3 -3.6 M-4.3 -2.7 Q-2.55 -4.5 -0.05 -4.45 2.45 -4.5 4.25 -2.7 6.0 -0.95 6.0 1.55 6.0 4.05 4.25 5.85 2.45 7.6 -0.05 7.6 -2.55 7.6 -4.3 5.85 -6.1 4.05 -6.05 1.55 -6.1 -0.95 -4.3 -2.7 M-0.05 -3.25 Q-2.05 -3.25 -3.45 -1.85 -4.85 -0.45 -4.85 1.55 -4.85 3.55 -3.45 4.95 -2.05 6.35 -0.05 6.4 1.95 6.35 3.35 4.95 4.75 3.55 4.8 1.55 4.75 -0.45 3.35 -1.85 1.95 -3.25 -0.05 -3.25"/></g><g id="c4"><g><use transform="matrix(1.0,0.0,0.0,1.0,0.0,0.0)" xlink:href="#c3"/></g></g><g id="c5"><path fill="#000000" stroke="none" d="M3.1 -7.95 L4.0 -5.8 -4.1 -5.8 -3.35 -7.95 -3.0 -8.2 2.75 -8.2 3.1 -7.95 M-0.05 -4.45 Q-2.55 -4.5 -4.3 -2.7 -6.1 -0.95 -6.05 1.55 -6.1 4.05 -4.3 5.85 -2.55 7.6 -0.05 7.6 2.45 7.6 4.25 5.85 6.0 4.05 6.0 1.55 6.0 -0.95 4.25 -2.7 2.45 -4.5 -0.05 -4.45 M3.35 -1.85 Q4.75 -0.45 4.8 1.55 4.75 3.55 3.35 4.95 1.95 6.35 -0.05 6.4 -2.05 6.35 -3.45 4.95 -4.85 3.55 -4.85 1.55 -4.85 -0.45 -3.45 -1.85 -2.05 -3.25 -0.05 -3.25 1.95 -3.25 3.35 -1.85 M8.5 -1.65 Q9.35 -1.65 9.4 -2.5 9.35 -3.4 8.5 -3.4 7.6 -3.4 7.6 -2.5 7.6 -1.65 8.5 -1.65 M5.5 -6.65 L8.15 -6.65 8.15 -5.6 5.5 -5.6 5.5 -6.65 M10.95 -3.95 L10.95 7.05 Q10.9 8.2 9.75 8.2 L-9.75 8.2 Q-10.9 8.2 -10.9 7.05 L-10.9 -3.95 Q-10.9 -5.15 -9.75 -5.1 L9.75 -5.1 Q10.9 -5.15 10.95 -3.95 M2.75 -0.2 Q1.7 -1.7 -0.05 -1.65 L-0.1 -1.65 Q-1.55 -1.7 -2.6 -0.65 -3.65 0.4 -3.65 1.85 -3.65 3.55 -2.2 4.75 -2.85 3.75 -2.85 2.65 -2.85 1.35 -2.05 0.4 -1.3 -0.55 -0.05 -0.8 L0.65 -0.9 Q1.75 -0.9 2.75 -0.2 M-6.3 -3.6 L-9.9 -3.6 -9.9 -1.4 -6.3 -1.4 -6.3 -3.6"/></g><g id="c6"><g><use transform="matrix(1.0,0.0,0.0,1.0,0.0,0.0)" xlink:href="#c5"/></g></g><filter id="filter4"><feColorMatrix in="SourceGraphic" type="matrix" values="1.0 0.0 0.0 0.0 0.0 0.0 1.0 0.0 0.0 0.0 0.0 0.0 1.0 0.0 0.0 0.0 0.0 0.0 0.0 0.0" result="cxform"/><feComposite operator="in" in2="SourceGraphic" result="color-xform"/></filter></defs><g><g><use transform="matrix(3.0,0.0,0.0,3.0,15.0,15.0)" filter="url(#filter4)" xlink:href="#c2"/></g><g><use transform="matrix(0.849990844727,0.0,0.0,0.849990844727,14.95,15.0)" xlink:href="#c4"/></g><g><use transform="matrix(0.849990844727,0.0,0.0,0.849990844727,14.95,15.0)" xlink:href="#c6"/></g></g></svg>