<?xml version='1.0' encoding='UTF-8'?>
<svg xmlns:xlink="http://www.w3.org/1999/xlink" xmlns="http://www.w3.org/2000/svg" version="1.1" width="30px" height="30px" viewBox="0.0 0.0 30.0 30.0"><defs><g id="c1"><path fill="#000000" stroke="none" d="M5.0 -5.0 L5.0 5.0 -5.0 5.0 -5.0 -5.0 5.0 -5.0"/></g><g id="c2"><g><use transform="matrix(1.0,0.0,0.0,1.0,0.0,0.0)" xlink:href="#c1"/></g></g><g id="c3"><path fill="#ffffff" stroke="none" d="M1.8 -2.0 L-0.6 0.5 -0.75 0.85 -0.6 1.15 -0.3 1.3 0.05 1.15 2.45 -1.35 3.65 -0.15 1.95 1.45 1.8 1.8 1.9 2.1 2.25 2.25 2.6 2.15 4.3 0.5 5.45 1.65 3.05 4.15 Q2.9 4.25 2.9 4.45 L3.05 4.8 3.4 4.9 3.7 4.8 6.1 2.3 7.5 3.75 3.55 7.6 -7.45 -3.7 -3.55 -7.5 -1.7 -5.6 -4.15 -3.05 -4.3 -2.75 -4.15 -2.4 -3.8 -2.3 Q-3.65 -2.3 -3.5 -2.45 L-1.05 -4.95 -0.05 -3.9 -1.75 -2.25 -1.9 -1.95 -1.75 -1.6 -1.4 -1.45 -1.1 -1.6 0.6 -3.25 1.8 -2.0"/></g><g id="c4"><path fill="#000000" stroke="none" d="M1.8 -2.05 L0.6 -3.3 -1.1 -1.65 -1.4 -1.5 -1.75 -1.65 -1.9 -2.0 -1.75 -2.3 -0.05 -3.95 -1.05 -5.0 -3.5 -2.5 Q-3.65 -2.35 -3.8 -2.35 L-4.15 -2.45 -4.3 -2.8 -4.15 -3.1 -1.7 -5.65 -3.55 -7.55 -7.45 -3.75 3.55 7.55 7.5 3.7 6.1 2.25 3.7 4.75 3.4 4.85 3.05 4.75 2.9 4.4 Q2.9 4.2 3.05 4.1 L5.45 1.6 4.3 0.45 2.6 2.1 2.25 2.2 1.9 2.05 1.8 1.75 1.95 1.4 3.65 -0.2 2.45 -1.4 0.05 1.1 -0.3 1.25 -0.6 1.1 -0.75 0.8 -0.6 0.45 1.8 -2.05 M4.95 -0.85 L8.95 3.25 9.15 3.7 8.95 4.2 4.05 9.0 3.55 9.2 Q3.25 9.2 3.05 9.0 L-8.95 -3.25 -9.15 -3.75 -8.95 -4.25 -4.05 -9.05 -3.55 -9.2 -3.05 -9.0 4.95 -0.85"/></g><g id="c5"><g><use transform="matrix(1.0,0.0,0.0,1.0,0.0,0.0)" xlink:href="#c4"/></g></g><filter id="filter3"><feColorMatrix in="SourceGraphic" type="matrix" values="1.0 0.0 0.0 0.0 0.0 0.0 1.0 0.0 0.0 0.0 0.0 0.0 1.0 0.0 0.0 0.0 0.0 0.0 0.0 0.0" result="cxform"/><feComposite operator="in" in2="SourceGraphic" result="color-xform"/></filter></defs><g><g><use transform="matrix(3.0,0.0,0.0,3.0,15.0,15.0)" filter="url(#filter3)" xlink:href="#c2"/></g><g><use transform="matrix(1.0,0.0,0.0,1.0,15.0,15.0)" xlink:href="#c3"/></g><g><use transform="matrix(1.0,0.0,0.0,1.0,15.0,15.05)" xlink:href="#c5"/></g></g></svg>