<?xml version='1.0' encoding='UTF-8'?>
<svg xmlns:xlink="http://www.w3.org/1999/xlink" xmlns="http://www.w3.org/2000/svg" version="1.1" width="30px" height="30px" viewBox="0.0 0.0 30.0 30.0"><defs><g id="c1"><path fill="#000000" stroke="none" d="M5.0 -5.0 L5.0 5.0 -5.0 5.0 -5.0 -5.0 5.0 -5.0"/></g><g id="c2"><g><use transform="matrix(1.0,0.0,0.0,1.0,0.0,0.0)" xlink:href="#c1"/></g></g><g id="c3"><path fill="#ffffff" stroke="none" d="M8.0 -5.0 L8.0 5.0 -8.0 5.0 -8.0 -5.0 8.0 -5.0"/></g><g id="c4"><path fill="none" stroke="#000000" stroke-width="1.0" d="M8.0 -5.0 L8.0 5.0 -8.0 5.0 -8.0 -5.0 8.0 -5.0"/></g><g id="c5"><g><use transform="matrix(1.0,0.0,0.0,1.0,0.0,0.0)" xlink:href="#c4"/></g></g><filter id="filter3"><feColorMatrix in="SourceGraphic" type="matrix" values="1.0 0.0 0.0 0.0 0.0 0.0 1.0 0.0 0.0 0.0 0.0 0.0 1.0 0.0 0.0 0.0 0.0 0.0 0.0 0.0" result="cxform"/><feComposite operator="in" in2="SourceGraphic" result="color-xform"/></filter></defs><g><g><use transform="matrix(3.0,0.0,0.0,3.0,15.0,15.0)" filter="url(#filter3)" xlink:href="#c2"/></g><g><use transform="matrix(1.0,0.0,0.0,1.0,15.0,15.0)" xlink:href="#c3"/></g><g><use transform="matrix(1.00177001953,0.0,0.0,1.0,15.0,15.0)" xlink:href="#c5"/></g></g></svg>