<?xml version='1.0' encoding='UTF-8'?>
<svg xmlns:xlink="http://www.w3.org/1999/xlink" xmlns="http://www.w3.org/2000/svg" version="1.1" width="30px" height="30px" viewBox="0.0 0.0 30.0 30.0"><defs><g id="c1"><path fill="#000000" stroke="none" d="M5.0 -5.0 L5.0 5.0 -5.0 5.0 -5.0 -5.0 5.0 -5.0"/></g><g id="c2"><g><use transform="matrix(1.0,0.0,0.0,1.0,0.0,0.0)" xlink:href="#c1"/></g></g><g id="c3"><path fill="#000000" stroke="none" d="M2.9 8.0 L2.9 8.7 2.4 9.25 1.65 9.25 Q1.25 9.1 1.15 8.75 L-1.5 2.55 -5.45 5.75 -5.45 -9.3 5.5 1.8 0.25 1.8 2.9 8.0"/></g><g id="c4"><g><use transform="matrix(1.0,0.0,0.0,1.0,0.0,0.0)" xlink:href="#c3"/></g></g><filter id="filter3"><feColorMatrix in="SourceGraphic" type="matrix" values="1.0 0.0 0.0 0.0 0.0 0.0 1.0 0.0 0.0 0.0 0.0 0.0 1.0 0.0 0.0 0.0 0.0 0.0 0.0 0.0" result="cxform"/><feComposite operator="in" in2="SourceGraphic" result="color-xform"/></filter></defs><g><g><use transform="matrix(3.0,0.0,0.0,3.0,15.0,15.0)" filter="url(#filter3)" xlink:href="#c2"/></g><g><use transform="matrix(1.0,0.0,0.0,1.0,15.0,14.45)" xlink:href="#c4"/></g></g></svg>