<?xml version='1.0' encoding='UTF-8'?>
<svg xmlns:xlink="http://www.w3.org/1999/xlink" xmlns="http://www.w3.org/2000/svg" version="1.1" width="30px" height="30px" viewBox="0.0 0.0 30.0 30.0"><defs><g id="c1"><path fill="#000000" stroke="none" d="M5.0 -5.0 L5.0 5.0 -5.0 5.0 -5.0 -5.0 5.0 -5.0"/></g><g id="c2"><g><use transform="matrix(1.0,0.0,0.0,1.0,0.0,0.0)" xlink:href="#c1"/></g></g><g id="c3"><path fill="#000000" stroke="none" d="M0.5 0.9 L0.65 2.05 Q0.65 3.55 -0.05 4.35 -0.8 5.15 -1.8 5.15 -2.8 5.15 -3.4 4.3 L-3.4 5.0 -4.3 5.0 -4.3 -2.85 -3.3 -2.85 -3.3 -0.05 Q-2.7 -0.85 -1.75 -0.85 L-0.75 -0.6 Q-0.3 -0.4 0.0 0.0 L0.5 0.9 M4.05 -0.85 Q4.95 -0.85 5.55 -0.35 6.15 0.1 6.3 0.95 L5.35 1.1 4.9 0.25 Q4.55 -0.05 4.05 -0.05 3.35 -0.05 2.9 0.5 2.4 1.0 2.4 2.15 2.4 3.3 2.85 3.8 3.3 4.35 4.0 4.35 4.6 4.35 4.95 4.0 L5.45 2.9 6.4 3.05 Q6.25 4.0 5.6 4.6 4.95 5.15 4.0 5.15 2.85 5.15 2.15 4.35 1.45 3.6 1.45 2.15 1.45 1.25 1.75 0.55 2.05 -0.15 2.65 -0.5 L4.05 -0.85 M-5.7 0.45 L-5.65 1.3 -5.65 2.6 -5.6 4.3 -5.35 5.0 -6.35 5.0 -6.55 4.3 -7.6 4.95 -8.65 5.15 Q-9.6 5.15 -10.1 4.65 -10.6 4.2 -10.6 3.5 L-10.4 2.75 -9.9 2.15 -9.2 1.85 -8.35 1.7 -6.65 1.4 -6.65 1.15 Q-6.65 0.55 -6.9 0.3 -7.25 -0.05 -8.0 -0.05 L-9.0 0.2 Q-9.35 0.45 -9.5 1.05 L-10.45 0.9 -10.0 -0.05 -9.15 -0.65 -7.85 -0.85 -6.7 -0.65 Q-6.2 -0.5 -6.0 -0.25 L-5.7 0.45 M-2.95 0.5 Q-3.4 1.05 -3.4 2.1 -3.4 3.15 -3.1 3.6 -2.65 4.35 -1.9 4.35 -1.25 4.35 -0.8 3.8 -0.3 3.25 -0.3 2.15 -0.3 1.05 -0.75 0.5 -1.2 -0.05 -1.85 -0.05 -2.45 -0.05 -2.95 0.5 M-6.65 2.5 L-6.65 2.15 -8.2 2.5 -9.05 2.7 -9.45 3.0 -9.55 3.45 -9.3 4.1 -8.4 4.35 -7.45 4.15 -6.8 3.45 Q-6.65 3.15 -6.65 2.5"/></g><g id="c4"><g><use transform="matrix(0.200012207031,0.0,0.0,0.110366821289,18.2,0.55)" xlink:href="#c2"/></g><g><use transform="matrix(0.100006103516,0.0,0.0,0.100326538086,19.7,1.5)" xlink:href="#c2"/></g><g><use transform="matrix(0.100006103516,0.0,0.0,1.00326538086,20.7,7.0)" xlink:href="#c2"/></g><g><use transform="matrix(0.100006103516,0.0,0.0,0.100326538086,21.7,1.5)" xlink:href="#c2"/></g><g><use transform="matrix(0.200012207031,0.0,0.0,0.110366821289,23.2,0.55)" xlink:href="#c2"/></g><g><use transform="matrix(0.200012207031,0.0,0.0,0.110366821289,18.2,13.55)" xlink:href="#c2"/></g><g><use transform="matrix(0.100006103516,0.0,0.0,0.100326538086,19.7,12.5)" xlink:href="#c2"/></g><g><use transform="matrix(0.100006103516,0.0,0.0,0.100326538086,21.7,12.5)" xlink:href="#c2"/></g><g><use transform="matrix(0.200012207031,0.0,0.0,0.110366821289,23.2,13.55)" xlink:href="#c2"/></g><g><use transform="matrix(1.0,0.0,0.0,1.0,10.6,6.05)" xlink:href="#c3"/></g></g><filter id="filter12"><feColorMatrix in="SourceGraphic" type="matrix" values="1.0 0.0 0.0 0.0 0.0 0.0 1.0 0.0 0.0 0.0 0.0 0.0 1.0 0.0 0.0 0.0 0.0 0.0 0.0 0.0" result="cxform"/><feComposite operator="in" in2="SourceGraphic" result="color-xform"/></filter><filter id="filter13"><feColorMatrix in="SourceGraphic" type="matrix" values="0.0 0.0 0.0 0.0 0.875 0.0 0.0 0.0 0.0 0.875 0.0 0.0 0.0 0.0 0.875 0.0 0.0 0.0 1.0 0.0" result="cxform"/><feComposite operator="in" in2="SourceGraphic" result="color-xform"/></filter></defs><g><g><use transform="matrix(3.0,0.0,0.0,3.0,15.0,15.0)" filter="url(#filter12)" xlink:href="#c2"/></g><g><use transform="matrix(2.19999694824,0.0,0.0,1.20399475098,12.5,16.0)" filter="url(#filter13)" xlink:href="#c2"/></g><g><use transform="matrix(1.0,0.0,0.0,1.0,4.4,8.95)" xlink:href="#c4"/></g></g></svg>