<?xml version='1.0' encoding='UTF-8'?>
<svg xmlns:xlink="http://www.w3.org/1999/xlink" xmlns="http://www.w3.org/2000/svg" version="1.1" width="30px" height="30px" viewBox="0.0 0.0 30.0 30.0"><defs><g id="c1"><path fill="#000000" stroke="none" d="M5.0 -5.0 L5.0 5.0 -5.0 5.0 -5.0 -5.0 5.0 -5.0"/></g><g id="c2"><g><use transform="matrix(1.0,0.0,0.0,1.0,0.0,0.0)" xlink:href="#c1"/></g></g><g id="c3"><g><use transform="matrix(1.19999694824,0.0,0.0,0.300003051758,0.0,4.0)" xlink:href="#c2"/></g><g><use transform="matrix(0.300018310547,0.0,0.0,0.399993896484,8.0,0.0)" xlink:href="#c2"/></g><g><use transform="matrix(0.500030517578,0.0,0.0,0.499984741211,8.0,4.0)" xlink:href="#c2"/></g><g><use transform="matrix(0.500030517578,0.0,0.0,0.499984741211,-8.0,4.0)" xlink:href="#c2"/></g><g><use transform="matrix(0.500030517578,0.0,0.0,0.499984741211,8.0,-4.0)" xlink:href="#c2"/></g></g><filter id="filter7"><feColorMatrix in="SourceGraphic" type="matrix" values="1.0 0.0 0.0 0.0 0.0 0.0 1.0 0.0 0.0 0.0 0.0 0.0 1.0 0.0 0.0 0.0 0.0 0.0 0.0 0.0" result="cxform"/><feComposite operator="in" in2="SourceGraphic" result="color-xform"/></filter><filter id="filter9"><feColorMatrix in="SourceGraphic" type="matrix" values="0.0 0.0 0.0 0.0 0.99609375 0.0 0.0 0.0 0.0 0.99609375 0.0 0.0 0.0 0.0 0.99609375 0.0 0.0 0.0 1.0 0.0" result="cxform"/><feComposite operator="in" in2="SourceGraphic" result="color-xform"/></filter><filter id="filter10"><feColorMatrix in="SourceGraphic" type="matrix" values="0.0 0.0 0.0 0.0 0.99609375 0.0 0.0 0.0 0.0 0.99609375 0.0 0.0 0.0 0.0 0.99609375 0.0 0.0 0.0 1.0 0.0" result="cxform"/><feComposite operator="in" in2="SourceGraphic" result="color-xform"/></filter><filter id="filter11"><feColorMatrix in="SourceGraphic" type="matrix" values="0.0 0.0 0.0 0.0 0.99609375 0.0 0.0 0.0 0.0 0.99609375 0.0 0.0 0.0 0.0 0.99609375 0.0 0.0 0.0 1.0 0.0" result="cxform"/><feComposite operator="in" in2="SourceGraphic" result="color-xform"/></filter></defs><g><g><use transform="matrix(3.0,0.0,0.0,3.0,15.0,15.0)" filter="url(#filter7)" xlink:href="#c2"/></g><g><use transform="matrix(1.0,0.0,0.0,1.0,15.0,15.0)" xlink:href="#c3"/></g><g><use transform="matrix(0.300018310547,0.0,0.0,0.299987792969,23.0,19.0)" filter="url(#filter9)" xlink:href="#c2"/></g><g><use transform="matrix(0.300018310547,0.0,0.0,0.299987792969,7.0,19.0)" filter="url(#filter10)" xlink:href="#c2"/></g><g><use transform="matrix(0.300018310547,0.0,0.0,0.299987792969,23.0,11.0)" filter="url(#filter11)" xlink:href="#c2"/></g></g></svg>