<?xml version='1.0' encoding='UTF-8'?>
<svg xmlns:xlink="http://www.w3.org/1999/xlink" xmlns="http://www.w3.org/2000/svg" version="1.1" width="30px" height="30px" viewBox="0.0 0.0 30.0 30.0"><defs><g id="c1"><path fill="#000000" stroke="none" d="M5.0 -5.0 L5.0 5.0 -5.0 5.0 -5.0 -5.0 5.0 -5.0"/></g><g id="c2"><g><use transform="matrix(1.0,0.0,0.0,1.0,0.0,0.0)" xlink:href="#c1"/></g></g><g id="c3"><path fill="#ffffff" stroke="none" d="M14.45 8.65 Q16.25 8.45 17.65 9.55 19.1 10.65 19.3 12.45 19.5 14.25 18.4 15.65 L18.4 15.7 17.85 16.3 17.6 16.55 17.15 16.85 15.55 17.3 Q13.75 17.5 12.35 16.45 10.9 15.3 10.65 13.55 10.4 11.75 11.55 10.3 12.65 8.9 14.45 8.65"/></g><g id="c4"><path fill="#000000" stroke="none" d="M2.2 -2.45 L2.35 -2.15 2.2 -1.8 1.9 -1.7 -0.1 -1.7 -0.1 0.3 -0.25 0.6 -0.55 0.75 -0.85 0.6 -1.0 0.3 -1.0 -1.7 -3.0 -1.7 -3.35 -1.8 -3.45 -2.15 -3.35 -2.45 -3.0 -2.6 -1.0 -2.6 -1.0 -4.55 -0.85 -4.9 -0.55 -5.0 -0.25 -4.9 -0.1 -4.55 -0.1 -2.6 1.9 -2.6 2.2 -2.45"/><path fill="#000000" stroke="none" d="M3.75 -2.7 Q3.55 -4.5 2.1 -5.6 0.7 -6.7 -1.1 -6.5 -2.9 -6.25 -4.0 -4.85 -5.15 -3.4 -4.9 -1.6 -4.65 0.15 -3.2 1.3 -1.8 2.35 0.0 2.15 L1.6 1.7 2.05 1.4 2.3 1.15 2.85 0.55 2.85 0.5 Q3.95 -0.9 3.75 -2.7 M3.05 -6.8 Q4.95 -5.3 5.25 -2.85 5.55 -0.45 4.05 1.45 L3.5 2.1 6.35 6.65 6.45 7.35 6.05 7.9 5.35 8.0 4.75 7.6 2.0 3.15 0.2 3.65 0.15 3.65 Q-2.25 3.95 -4.15 2.45 -6.1 0.95 -6.4 -1.4 -6.7 -3.85 -5.2 -5.75 -3.75 -7.65 -1.3 -8.0 1.15 -8.3 3.05 -6.8"/></g><g id="c5"><g><use transform="matrix(1.0,0.0,0.0,1.0,0.0,0.0)" xlink:href="#c4"/></g></g><filter id="filter3"><feColorMatrix in="SourceGraphic" type="matrix" values="1.0 0.0 0.0 0.0 0.0 0.0 1.0 0.0 0.0 0.0 0.0 0.0 1.0 0.0 0.0 0.0 0.0 0.0 0.0 0.0" result="cxform"/><feComposite operator="in" in2="SourceGraphic" result="color-xform"/></filter></defs><g><g><use transform="matrix(3.0,0.0,0.0,3.0,15.0,15.0)" filter="url(#filter3)" xlink:href="#c2"/></g><g><use transform="matrix(1.0,0.0,0.0,1.0,0.0,0.0)" xlink:href="#c3"/></g><g><use transform="matrix(1.0,0.0,0.0,1.0,15.55,15.15)" xlink:href="#c5"/></g></g></svg>