<?xml version='1.0' encoding='UTF-8'?>
<svg xmlns:xlink="http://www.w3.org/1999/xlink" xmlns="http://www.w3.org/2000/svg" version="1.1" width="30px" height="30px" viewBox="0.0 0.0 30.0 30.0"><defs><g id="c1"><path fill="#000000" stroke="none" d="M5.0 -5.0 L5.0 5.0 -5.0 5.0 -5.0 -5.0 5.0 -5.0"/></g><g id="c2"><g><use transform="matrix(1.0,0.0,0.0,1.0,0.0,0.0)" xlink:href="#c1"/></g></g><g id="c3"><path fill="#ffffff" stroke="none" d="M14.45 8.65 Q16.25 8.45 17.65 9.55 19.1 10.65 19.3 12.45 19.5 14.25 18.4 15.65 L18.4 15.7 17.85 16.3 17.6 16.55 17.15 16.85 15.55 17.3 Q13.75 17.5 12.35 16.45 10.9 15.3 10.65 13.55 10.4 11.75 11.55 10.3 12.65 8.9 14.45 8.65"/></g><g id="c4"><path fill="#000000" stroke="none" d="M2.2 -2.4 L2.35 -2.1 2.2 -1.8 Q2.05 -1.65 1.9 -1.65 L-3.0 -1.65 -3.35 -1.8 -3.45 -2.1 -3.35 -2.4 -3.0 -2.55 1.9 -2.55 2.2 -2.4 M3.05 -6.75 Q4.95 -5.25 5.25 -2.8 5.55 -0.4 4.05 1.5 L3.5 2.15 6.35 6.7 6.45 7.4 6.05 7.95 5.35 8.05 4.75 7.65 2.0 3.2 0.2 3.7 0.15 3.7 Q-2.25 4.0 -4.15 2.5 -6.1 1.0 -6.4 -1.35 -6.7 -3.8 -5.2 -5.7 -3.75 -7.6 -1.3 -7.95 1.15 -8.25 3.05 -6.75 M3.75 -2.65 Q3.55 -4.45 2.1 -5.55 0.7 -6.65 -1.1 -6.45 -2.9 -6.2 -4.0 -4.8 -5.15 -3.35 -4.9 -1.55 -4.65 0.2 -3.2 1.35 -1.8 2.4 0.0 2.2 L1.6 1.75 2.05 1.45 2.3 1.2 2.85 0.6 2.85 0.55 Q3.95 -0.85 3.75 -2.65"/></g><g id="c5"><g><use transform="matrix(1.0,0.0,0.0,1.0,0.0,0.0)" xlink:href="#c4"/></g></g><filter id="filter3"><feColorMatrix in="SourceGraphic" type="matrix" values="1.0 0.0 0.0 0.0 0.0 0.0 1.0 0.0 0.0 0.0 0.0 0.0 1.0 0.0 0.0 0.0 0.0 0.0 0.0 0.0" result="cxform"/><feComposite operator="in" in2="SourceGraphic" result="color-xform"/></filter></defs><g><g><use transform="matrix(3.0,0.0,0.0,3.0,15.0,15.0)" filter="url(#filter3)" xlink:href="#c2"/></g><g><use transform="matrix(1.0,0.0,0.0,1.0,0.0,0.0)" xlink:href="#c3"/></g><g><use transform="matrix(1.0,0.0,0.0,1.0,15.55,15.1)" xlink:href="#c5"/></g></g></svg>