<?xml version="1.0" encoding="UTF-8" standalone="no"?>
<svg xmlns:xlink="http://www.w3.org/1999/xlink" height="100%" width="100%" xmlns="http://www.w3.org/2000/svg" preserveAspectRatio="none" viewBox="0 0 100 100">
  <defs>
    <g id="sprite0" transform="matrix(1.0, 0.0, 0.0, 1.0, 395.55, 263.65)">
      <use height="528.25" transform="matrix(1.0, 0.0, 0.0, 1.0, -395.55, -263.65)" width="792.1" xlink:href="#shape0" />
    </g>
    <g id="shape0" transform="matrix(1.0, 0.0, 0.0, 1.0, 395.55, 263.65)">
      <path d="M-395.55 264.6 L-395.55 -263.65 396.55 -263.65 396.55 264.6 -395.55 264.6" fill="#ffffff" fill-rule="evenodd" stroke="none" class="fill fill" />
    </g>
    <g id="sprite1" transform="matrix(1.0, 0.0, 0.0, 1.0, 396.55, 264.65)">
      <use height="530.25" transform="matrix(1.0, 0.0, 0.0, 1.0, -396.55, -264.65)" width="794.1" xlink:href="#shape1" />
    </g>
    <g id="shape1" transform="matrix(1.0, 0.0, 0.0, 1.0, 396.55, 264.65)">
      <path d="M97.35 263.6 L109.6 251.35 72.1 251.35 59.85 263.6 97.35 263.6 M111.0 251.35 L98.75 263.6 136.25 263.6 148.5 251.35 111.0 251.35 M371.05 263.6 L395.55 263.6 395.55 239.1 371.05 263.6 M344.4 251.35 L332.15 263.6 369.65 263.6 381.9 251.35 344.4 251.35 M330.75 263.6 L343.0 251.35 305.5 251.35 293.25 263.6 330.75 263.6 M395.55 200.2 L383.3 212.45 383.3 249.95 395.55 237.7 395.55 200.2 M395.55 161.3 L383.3 173.55 383.3 211.05 395.55 198.8 395.55 161.3 M395.55 122.4 L383.3 134.65 383.3 172.15 395.55 159.9 395.55 122.4 M383.3 56.85 L383.3 94.35 395.55 82.1 395.55 44.6 383.3 56.85 M395.55 83.5 L383.3 95.75 383.3 133.25 395.55 121.0 395.55 83.5 M395.55 5.7 L383.3 17.95 383.3 55.45 395.55 43.2 395.55 5.7 M395.55 -33.2 L383.3 -20.95 383.3 16.55 395.55 4.3 395.55 -33.2 M383.3 -98.75 L383.3 -61.25 395.55 -73.5 395.55 -111.0 383.3 -98.75 M395.55 -72.1 L383.3 -59.85 383.3 -22.35 395.55 -34.6 395.55 -72.1 M383.3 -137.65 L383.3 -100.15 395.55 -112.4 395.55 -149.9 383.3 -137.65 M395.55 -188.8 L383.3 -176.55 383.3 -139.05 395.55 -151.3 395.55 -188.8 M395.55 -227.7 L383.3 -215.45 383.3 -177.95 395.55 -190.2 395.55 -227.7 M377.95 -250.4 L390.2 -262.65 352.7 -262.65 340.45 -250.4 377.95 -250.4 M391.6 -262.65 L379.35 -250.4 382.8 -250.4 383.15 -250.25 383.3 -249.9 383.3 -216.85 395.55 -229.1 395.55 -262.65 391.6 -262.65 M397.25 -264.35 L397.55 -263.65 397.55 264.6 397.25 265.3 396.55 265.6 -395.55 265.6 Q-395.95 265.6 -396.25 265.3 L-396.55 264.6 -396.55 -263.65 -396.25 -264.35 Q-395.95 -264.65 -395.55 -264.65 L396.55 -264.65 397.25 -264.35 M144.55 -250.4 L156.8 -262.65 119.3 -262.65 107.05 -250.4 144.55 -250.4 M40.1 -262.65 L2.6 -262.65 -9.7 -250.4 27.85 -250.4 40.1 -262.65 M79.0 -262.65 L41.5 -262.65 29.25 -250.4 66.75 -250.4 79.0 -262.65 M80.4 -262.65 L68.15 -250.4 105.65 -250.4 117.9 -262.65 80.4 -262.65 M313.8 -262.65 L301.55 -250.4 339.05 -250.4 351.3 -262.65 313.8 -262.65 M300.15 -250.4 L312.4 -262.65 274.9 -262.65 262.65 -250.4 300.15 -250.4 M183.45 -250.4 L195.7 -262.65 158.2 -262.65 145.95 -250.4 183.45 -250.4 M222.35 -250.4 L234.6 -262.65 197.1 -262.65 184.85 -250.4 222.35 -250.4 M236.0 -262.65 L223.75 -250.4 261.25 -250.4 273.5 -262.65 236.0 -262.65 M137.65 263.6 L175.15 263.6 187.4 251.35 149.9 251.35 137.65 263.6 M33.2 251.35 L20.95 263.6 58.45 263.6 70.7 251.35 33.2 251.35 M31.8 251.35 L-5.7 251.35 -17.95 263.6 19.55 263.6 31.8 251.35 M188.8 251.35 L176.55 263.6 214.05 263.6 226.3 251.35 188.8 251.35 M252.95 263.6 L265.2 251.35 227.7 251.35 215.45 263.6 252.95 263.6 M266.6 251.35 L254.35 263.6 291.85 263.6 304.1 251.35 266.6 251.35 M382.3 -249.4 L-381.35 -249.4 -381.35 250.35 382.3 250.35 382.3 -249.4 M-394.55 -262.65 L-394.55 -255.9 -387.85 -262.65 -394.55 -262.65 M-347.55 -262.65 L-359.8 -250.4 -322.3 -250.4 -310.05 -262.65 -347.55 -262.65 M-361.2 -250.4 L-348.95 -262.65 -386.45 -262.65 -394.55 -254.5 -394.55 -217.0 -382.35 -229.25 -382.35 -249.9 -382.2 -250.25 -381.85 -250.4 -361.2 -250.4 M-394.55 -215.6 L-394.55 -178.1 -382.35 -190.35 -382.35 -227.85 -394.55 -215.6 M-394.55 -61.35 L-382.35 -73.65 -382.35 -111.15 -394.55 -98.85 -394.55 -61.35 M-382.35 -72.25 L-394.55 -59.95 -394.55 -22.45 -382.35 -34.75 -382.35 -72.25 M-394.55 -100.25 L-382.35 -112.55 -382.35 -150.05 -394.55 -137.75 -394.55 -100.25 M-382.35 -151.45 L-382.35 -188.95 -394.55 -176.7 -394.55 -139.15 -382.35 -151.45 M-394.55 -21.05 L-394.55 16.45 -382.35 4.2 -382.35 -33.35 -394.55 -21.05 M-204.2 -250.4 L-166.7 -250.4 -154.45 -262.65 -191.95 -262.65 -204.2 -250.4 M-205.6 -250.4 L-193.35 -262.65 -230.85 -262.65 -243.1 -250.4 -205.6 -250.4 M-282.0 -250.4 L-244.5 -250.4 -232.25 -262.65 -269.75 -262.65 -282.0 -250.4 M-283.4 -250.4 L-271.15 -262.65 -308.65 -262.65 -320.9 -250.4 -283.4 -250.4 M-48.6 -250.4 L-11.1 -250.4 1.2 -262.65 -36.3 -262.65 -48.6 -250.4 M-50.0 -250.4 L-37.7 -262.65 -75.2 -262.65 -87.5 -250.4 -50.0 -250.4 M-126.4 -250.4 L-88.9 -250.4 -76.6 -262.65 -114.1 -262.65 -126.4 -250.4 M-127.8 -250.4 L-115.5 -262.65 -153.05 -262.65 -165.3 -250.4 -127.8 -250.4 M-200.2 251.35 L-212.45 263.6 -174.95 263.6 -162.7 251.35 -200.2 251.35 M-239.1 251.35 L-251.35 263.6 -213.85 263.6 -201.6 251.35 -239.1 251.35 M-290.25 263.6 L-252.75 263.6 -240.5 251.35 -278.0 251.35 -290.25 263.6 M-316.9 251.35 L-329.15 263.6 -291.65 263.6 -279.4 251.35 -316.9 251.35 M-58.25 263.6 L-46.0 251.35 -83.5 251.35 -95.75 263.6 -58.25 263.6 M-44.6 251.35 L-56.85 263.6 -19.35 263.6 -7.1 251.35 -44.6 251.35 M-134.65 263.6 L-97.15 263.6 -84.9 251.35 -122.4 251.35 -134.65 263.6 M-161.3 251.35 L-173.55 263.6 -136.05 263.6 -123.8 251.35 -161.3 251.35 M-394.55 94.25 L-382.35 82.0 -382.35 44.5 -394.55 56.75 -394.55 94.25 M-382.35 43.1 L-382.35 5.6 -394.55 17.85 -394.55 55.35 -382.35 43.1 M-394.55 95.65 L-394.55 133.15 -382.35 120.9 -382.35 83.4 -394.55 95.65 M-382.35 122.3 L-394.55 134.55 -394.55 172.05 -382.35 159.8 -382.35 122.3 M-394.55 173.45 L-394.55 210.95 -382.35 198.7 -382.35 161.2 -394.55 173.45 M-394.55 263.6 L-369.45 263.6 -357.2 251.35 -381.85 251.35 -382.2 251.2 -382.35 250.85 -382.35 239.0 -394.55 251.25 -394.55 263.6 M-382.35 237.6 L-382.35 200.1 -394.55 212.35 -394.55 249.85 -382.35 237.6 M-368.05 263.6 L-330.55 263.6 -318.3 251.35 -355.8 251.35 -368.05 263.6" fill="#000000" fill-rule="evenodd" stroke="none" class="line" />
    </g>
  </defs>
  <g transform="matrix(1.0, 0.0, 0.0, 1.0, 0.0, 0.0)">
    <use height="528.25" id="fill" transform="matrix(0.1259, 0.0, 0.0, 0.1887, 0.1381, 0.2018)" width="792.1" xlink:href="#sprite0" />
    <use height="528.25" id="fill" transform="matrix(0.1259, 0.0, 0.0, 0.1887, 0.1381, 0.2018)" width="792.1" xlink:href="#sprite0" />
    <use height="530.25" id="line" transform="matrix(0.1259, 0.0, 0.0, 0.1887, 0.0121, 0.0131)" width="794.1" xlink:href="#sprite1" />
  </g>
</svg>