<?xml version="1.0" encoding="UTF-8" standalone="no"?>
<svg xmlns:xlink="http://www.w3.org/1999/xlink" height="100%" width="100%" xmlns="http://www.w3.org/2000/svg" preserveAspectRatio="none" viewBox="0 0 100 100">
  <defs>
    <g id="sprite0" transform="matrix(1.0, 0.0, 0.0, 1.0, 382.15, 305.4)">
      <use height="611.75" transform="matrix(1.0, 0.0, 0.0, 1.0, -382.15, -305.4)" width="765.35" xlink:href="#shape0" />
    </g>
    <g id="shape0" transform="matrix(1.0, 0.0, 0.0, 1.0, 382.15, 305.4)">
      <path d="M383.2 302.45 L379.3 306.35 -382.15 306.35 -382.15 -305.4 383.2 -305.4 383.2 302.45" fill="#ffffff" fill-rule="evenodd" stroke="none" class="fill" />
    </g>
    <g id="sprite1" transform="matrix(1.0, 0.0, 0.0, 1.0, 383.15, 306.4)">
      <use height="613.75" transform="matrix(1.0, 0.0, 0.0, 1.0, -383.15, -306.4)" width="767.35" xlink:href="#shape1" />
    </g>
    <g id="shape1" transform="matrix(1.0, 0.0, 0.0, 1.0, 383.15, 306.4)">
      <path d="M334.75 305.35 L349.1 291.0 305.65 291.0 291.3 305.35 334.75 305.35 M382.7 305.85 L382.7 304.35 381.2 305.85 382.7 305.85 M382.2 259.3 L367.85 273.65 367.85 290.5 367.7 290.85 367.35 291.0 350.5 291.0 336.15 305.35 378.9 305.35 382.2 302.05 382.2 259.3 M382.2 214.45 L367.85 228.8 367.85 272.25 382.2 257.9 382.2 214.45 M382.2 169.65 L367.85 184.0 367.85 227.4 382.2 213.05 382.2 169.65 M382.2 124.8 L367.85 139.15 367.85 182.6 382.2 168.25 382.2 124.8 M367.85 49.5 L367.85 92.95 382.2 78.6 382.2 35.15 367.85 49.5 M382.2 80.0 L367.85 94.35 367.85 137.75 382.2 123.4 382.2 80.0 M367.85 4.65 L367.85 48.1 382.2 33.75 382.2 -9.7 367.85 4.65 M367.85 -85.0 L367.85 -41.55 382.2 -55.9 382.2 -99.35 367.85 -85.0 M382.2 -54.5 L367.85 -40.15 367.85 3.25 382.2 -11.1 382.2 -54.5 M382.2 -100.75 L382.2 -144.15 367.85 -129.8 367.85 -86.4 382.2 -100.75 M382.2 -189.0 L367.85 -174.65 367.85 -131.2 382.2 -145.55 382.2 -189.0 M382.2 -233.85 L367.85 -219.5 367.85 -176.05 382.2 -190.4 382.2 -233.85 M382.2 -278.65 L367.85 -264.3 367.85 -220.9 382.2 -235.25 382.2 -278.65 M382.2 -304.4 L363.15 -304.4 348.8 -290.05 367.35 -290.05 367.7 -289.9 367.85 -289.55 367.85 -265.7 382.2 -280.05 382.2 -304.4 M383.2 -306.4 L383.9 -306.1 384.2 -305.4 384.2 302.45 383.9 303.15 383.7 303.35 383.7 306.35 383.55 306.7 383.2 306.85 380.2 306.85 380.0 307.05 379.3 307.35 -382.15 307.35 -382.85 307.05 -383.15 306.35 -383.15 -305.4 -382.85 -306.1 -382.15 -306.4 383.2 -306.4 M35.0 -290.05 L78.4 -290.05 92.75 -304.4 49.35 -304.4 35.0 -290.05 M47.95 -304.4 L4.5 -304.4 -9.85 -290.05 33.6 -290.05 47.95 -304.4 M137.6 -304.4 L94.15 -304.4 79.8 -290.05 123.25 -290.05 137.6 -304.4 M214.3 -290.05 L257.75 -290.05 272.1 -304.4 228.65 -304.4 214.3 -290.05 M318.3 -304.4 L303.95 -290.05 347.4 -290.05 361.75 -304.4 318.3 -304.4 M168.05 -290.05 L182.4 -304.4 139.0 -304.4 124.65 -290.05 168.05 -290.05 M227.25 -304.4 L183.8 -304.4 169.45 -290.05 212.9 -290.05 227.25 -304.4 M316.9 -304.4 L273.5 -304.4 259.15 -290.05 302.55 -290.05 316.9 -304.4 M81.55 291.0 L67.2 305.35 110.6 305.35 124.95 291.0 81.55 291.0 M36.7 291.0 L22.35 305.35 65.8 305.35 80.15 291.0 36.7 291.0 M20.95 305.35 L35.3 291.0 -8.15 291.0 -22.5 305.35 20.95 305.35 M112.0 305.35 L155.45 305.35 169.8 291.0 126.35 291.0 112.0 305.35 M260.85 291.0 L246.5 305.35 289.9 305.35 304.25 291.0 260.85 291.0 M171.2 291.0 L156.85 305.35 200.25 305.35 214.6 291.0 171.2 291.0 M216.0 291.0 L201.65 305.35 245.1 305.35 259.45 291.0 216.0 291.0 M-381.15 -98.05 L-381.15 -54.65 -366.8 -69.0 -366.8 -112.4 -381.15 -98.05 M-366.8 -67.6 L-381.15 -53.25 -381.15 -9.8 -366.8 -24.15 -366.8 -67.6 M-381.15 -144.3 L-366.8 -158.65 -366.8 -202.05 -381.15 -187.7 -381.15 -144.3 M-381.15 -142.9 L-381.15 -99.45 -366.8 -113.8 -366.8 -157.25 -381.15 -142.9 M-366.8 -203.45 L-366.8 -246.9 -381.15 -232.55 -381.15 -189.1 -366.8 -203.45 M-366.8 -248.3 L-366.8 -289.55 -366.65 -289.9 -366.3 -290.05 -325.05 -290.05 -310.7 -304.4 -354.15 -304.4 -381.15 -277.4 -381.15 -233.95 -366.8 -248.3 M-355.55 -304.4 L-381.15 -304.4 -381.15 -278.8 -355.55 -304.4 M366.85 290.0 L366.85 -289.05 -365.8 -289.05 -365.8 290.0 366.85 290.0 M-381.15 -8.4 L-381.15 35.0 -366.8 20.65 -366.8 -22.75 -381.15 -8.4 M-278.85 -290.05 L-235.4 -290.05 -221.05 -304.4 -264.5 -304.4 -278.85 -290.05 M-265.9 -304.4 L-309.3 -304.4 -323.65 -290.05 -280.25 -290.05 -265.9 -304.4 M-176.2 -304.4 L-219.65 -304.4 -234.0 -290.05 -190.55 -290.05 -176.2 -304.4 M-99.5 -290.05 L-56.1 -290.05 -41.75 -304.4 -85.15 -304.4 -99.5 -290.05 M-145.75 -290.05 L-131.4 -304.4 -174.8 -304.4 -189.15 -290.05 -145.75 -290.05 M-54.7 -290.05 L-11.25 -290.05 3.1 -304.4 -40.35 -304.4 -54.7 -290.05 M-86.55 -304.4 L-130.0 -304.4 -144.35 -290.05 -100.9 -290.05 -86.55 -304.4 M-232.3 291.0 L-246.65 305.35 -203.2 305.35 -188.85 291.0 -232.3 291.0 M-321.95 291.0 L-336.3 305.35 -292.85 305.35 -278.5 291.0 -321.95 291.0 M-291.45 305.35 L-248.05 305.35 -233.7 291.0 -277.1 291.0 -291.45 305.35 M-201.8 305.35 L-158.35 305.35 -144.0 291.0 -187.45 291.0 -201.8 305.35 M-52.95 291.0 L-67.3 305.35 -23.9 305.35 -9.55 291.0 -52.95 291.0 M-142.6 291.0 L-156.95 305.35 -113.55 305.35 -99.2 291.0 -142.6 291.0 M-97.8 291.0 L-112.15 305.35 -68.7 305.35 -54.35 291.0 -97.8 291.0 M-366.8 22.05 L-381.15 36.4 -381.15 79.85 -366.8 65.5 -366.8 22.05 M-381.15 81.25 L-381.15 124.7 -366.8 110.35 -366.8 66.9 -381.15 81.25 M-366.8 111.75 L-381.15 126.1 -381.15 169.5 -366.8 155.15 -366.8 111.75 M-381.15 170.9 L-381.15 214.35 -366.8 200.0 -366.8 156.55 -381.15 170.9 M-366.8 289.65 L-366.8 246.2 -381.15 260.55 -381.15 304.0 -366.8 289.65 M-366.3 291.0 L-366.6 290.9 -381.1 305.35 -337.7 305.35 -323.35 291.0 -366.3 291.0 M-366.8 244.8 L-366.8 201.4 -381.15 215.75 -381.15 259.15 -366.8 244.8" fill="#000000" fill-rule="evenodd" stroke="none" class="line" />
    </g>
  </defs>
  <g transform="matrix(1.0, 0.0, 0.0, 1.0, 0.0, 0.0)">
    <use height="611.75" id="fill" transform="matrix(0.1304, 0.0, 0.0, 0.163, 0.1229, 0.1669)" width="765.35" xlink:href="#sprite0" />
    <use height="613.75" id="line" transform="matrix(0.1304, 0.0, 0.0, 0.163, -0.0075, 0.0038)" width="767.35" xlink:href="#sprite1" />
  </g>
</svg>