<?xml version="1.0" encoding="UTF-8" standalone="no"?>
<svg xmlns:xlink="http://www.w3.org/1999/xlink" height="100%" width="100%" xmlns="http://www.w3.org/2000/svg" preserveAspectRatio="none" viewBox="0 0 100 100">
  <defs>
    <g id="sprite0" transform="matrix(1.0, 0.0, 0.0, 1.0, 308.0, 305.4)">
      <use height="611.75" transform="matrix(1.0, 0.0, 0.0, 1.0, -308.0, -305.4)" width="617.05" xlink:href="#shape0" />
    </g>
    <g id="shape0" transform="matrix(1.0, 0.0, 0.0, 1.0, 308.0, 305.4)">
      <path d="M-308.0 306.35 L-308.0 -305.4 309.05 -305.4 309.05 306.35 -308.0 306.35" fill="#ffffff" fill-rule="evenodd" stroke="none" class="fill" />
    </g>
    <g id="sprite1" transform="matrix(1.0, 0.0, 0.0, 1.0, 309.0, 306.4)">
      <use height="613.75" transform="matrix(1.0, 0.0, 0.0, 1.0, -309.0, -306.4)" width="619.05" xlink:href="#shape1" />
    </g>
    <g id="shape1" transform="matrix(1.0, 0.0, 0.0, 1.0, 309.0, 306.4)">
      <path d="M308.05 -260.35 L296.75 -249.1 296.75 -214.35 308.05 -225.6 308.05 -260.35 M206.1 -304.4 L171.4 -304.4 160.1 -293.15 194.85 -293.15 206.1 -304.4 M242.25 -304.4 L207.5 -304.4 196.25 -293.15 231.0 -293.15 242.25 -304.4 M309.05 -306.4 L309.75 -306.1 310.05 -305.4 310.05 306.35 309.75 307.05 309.05 307.35 -308.0 307.35 -308.7 307.05 -309.0 306.35 -309.0 -305.4 -308.7 -306.1 -308.0 -306.4 309.05 -306.4 M308.05 -297.9 L308.05 -304.4 279.8 -304.4 268.5 -293.15 296.25 -293.15 296.6 -293.0 296.75 -292.65 296.75 -286.6 308.05 -297.9 M278.4 -304.4 L243.65 -304.4 232.4 -293.15 267.1 -293.15 278.4 -304.4 M296.75 -250.5 L308.05 -261.75 308.05 -296.5 296.75 -285.2 296.75 -250.5 M149.75 294.1 L115.0 294.1 103.7 305.35 138.45 305.35 149.75 294.1 M308.05 173.3 L296.75 184.6 296.75 219.35 308.05 208.05 308.05 173.3 M296.75 112.3 L296.75 147.05 308.05 135.8 308.05 101.05 296.75 112.3 M308.05 137.2 L296.75 148.45 296.75 183.2 308.05 171.9 308.05 137.2 M308.05 64.9 L296.75 76.2 296.75 110.9 308.05 99.65 308.05 64.9 M296.75 3.9 L296.75 38.65 308.05 27.35 308.05 -7.4 296.75 3.9 M308.05 28.75 L296.75 40.05 296.75 74.8 308.05 63.5 308.05 28.75 M308.05 -43.5 L296.75 -32.25 296.75 2.5 308.05 -8.8 308.05 -43.5 M308.05 -79.65 L296.75 -68.4 296.75 -33.65 308.05 -44.9 308.05 -79.65 M296.75 -140.65 L296.75 -105.9 308.05 -117.2 308.05 -151.95 296.75 -140.65 M308.05 -115.8 L296.75 -104.5 296.75 -69.8 308.05 -81.05 308.05 -115.8 M308.05 -188.1 L296.75 -176.8 296.75 -142.05 308.05 -153.35 308.05 -188.1 M51.7 -293.15 L86.4 -293.15 97.7 -304.4 62.95 -304.4 51.7 -293.15 M14.15 -293.15 L25.4 -304.4 -9.3 -304.4 -20.6 -293.15 14.15 -293.15 M123.95 -293.15 L158.7 -293.15 170.0 -304.4 135.25 -304.4 123.95 -293.15 M61.55 -304.4 L26.8 -304.4 15.55 -293.15 50.3 -293.15 61.55 -304.4 M133.85 -304.4 L99.1 -304.4 87.8 -293.15 122.55 -293.15 133.85 -304.4 M308.05 -224.2 L296.75 -212.95 296.75 -178.2 308.05 -189.5 308.05 -224.2 M42.7 294.1 L31.45 305.35 66.15 305.35 77.45 294.1 42.7 294.1 M6.55 294.1 L-4.7 305.35 30.05 305.35 41.3 294.1 6.55 294.1 M139.85 305.35 L174.6 305.35 185.85 294.1 151.15 294.1 139.85 305.35 M-263.7 -304.4 L-298.45 -304.4 -307.0 -295.85 -307.0 -261.1 -295.7 -272.4 -295.7 -292.65 -295.55 -293.0 -295.2 -293.15 -274.95 -293.15 -263.7 -304.4 M-307.0 -297.25 L-299.85 -304.4 -307.0 -304.4 -307.0 -297.25 M-191.4 -304.4 L-226.15 -304.4 -237.45 -293.15 -202.7 -293.15 -191.4 -304.4 M-92.85 -293.15 L-58.15 -293.15 -46.85 -304.4 -81.6 -304.4 -92.85 -293.15 M-119.15 -304.4 L-153.9 -304.4 -165.15 -293.15 -130.4 -293.15 -119.15 -304.4 M-83.0 -304.4 L-117.75 -304.4 -129.0 -293.15 -94.25 -293.15 -83.0 -304.4 M-10.7 -304.4 L-45.45 -304.4 -56.75 -293.15 -22.0 -293.15 -10.7 -304.4 M295.75 293.1 L295.75 -292.15 -294.7 -292.15 -294.7 293.1 295.75 293.1 M258.15 294.1 L223.4 294.1 212.15 305.35 246.85 305.35 258.15 294.1 M222.0 294.1 L187.25 294.1 176.0 305.35 210.75 305.35 222.0 294.1 M294.3 294.1 L259.55 294.1 248.25 305.35 283.0 305.35 294.3 294.1 M296.75 256.85 L296.75 291.6 308.05 280.35 308.05 245.6 296.75 256.85 M308.05 281.75 L296.75 293.0 296.75 293.6 296.6 293.95 296.25 294.1 295.7 294.1 284.4 305.35 308.05 305.35 308.05 281.75 M308.05 209.45 L296.75 220.75 296.75 255.45 308.05 244.2 308.05 209.45 M113.6 294.1 L78.85 294.1 67.55 305.35 102.3 305.35 113.6 294.1 M-307.0 -259.7 L-307.0 -225.0 -295.7 -236.25 -295.7 -271.0 -307.0 -259.7 M-307.0 -152.7 L-295.7 -164.0 -295.7 -198.7 -307.0 -187.45 -307.0 -152.7 M-295.7 -162.6 L-307.0 -151.3 -307.0 -116.55 -295.7 -127.85 -295.7 -162.6 M-273.55 -293.15 L-238.85 -293.15 -227.55 -304.4 -262.3 -304.4 -273.55 -293.15 M-201.3 -293.15 L-166.55 -293.15 -155.3 -304.4 -190.0 -304.4 -201.3 -293.15 M-295.7 -200.1 L-295.7 -234.85 -307.0 -223.6 -307.0 -188.85 -295.7 -200.1 M-307.0 -115.15 L-307.0 -80.4 -295.7 -91.7 -295.7 -126.45 -307.0 -115.15 M-307.0 -8.15 L-295.7 -19.4 -295.7 -54.15 -307.0 -42.9 -307.0 -8.15 M-295.7 -55.55 L-295.7 -90.3 -307.0 -79.0 -307.0 -44.3 -295.7 -55.55 M-307.0 -6.75 L-307.0 28.0 -295.7 16.7 -295.7 -18.0 -307.0 -6.75 M-247.8 294.1 L-282.55 294.1 -293.8 305.35 -259.1 305.35 -247.8 294.1 M-295.7 293.6 L-295.7 271.1 -307.0 282.35 -307.0 305.35 -295.2 305.35 -283.95 294.1 -295.2 294.1 -295.55 293.95 -295.7 293.6 M-295.7 233.55 L-295.7 198.8 -307.0 210.1 -307.0 244.85 -295.7 233.55 M-295.7 234.95 L-307.0 246.25 -307.0 280.95 -295.7 269.7 -295.7 234.95 M-175.55 294.1 L-210.25 294.1 -221.55 305.35 -186.8 305.35 -175.55 294.1 M-295.7 197.4 L-295.7 162.7 -307.0 173.95 -307.0 208.7 -295.7 197.4 M-307.0 136.4 L-295.7 125.15 -295.7 90.4 -307.0 101.7 -307.0 136.4 M-295.7 126.55 L-307.0 137.8 -307.0 172.55 -295.7 161.3 -295.7 126.55 M-295.7 89.0 L-295.7 54.25 -307.0 65.55 -307.0 100.3 -295.7 89.0 M-295.7 18.1 L-307.0 29.4 -307.0 64.15 -295.7 52.85 -295.7 18.1 M-185.4 305.35 L-150.65 305.35 -139.4 294.1 -174.15 294.1 -185.4 305.35 M-67.1 294.1 L-101.85 294.1 -113.15 305.35 -78.4 305.35 -67.1 294.1 M-40.85 305.35 L-6.1 305.35 5.15 294.1 -29.55 294.1 -40.85 305.35 M-103.25 294.1 L-138.0 294.1 -149.25 305.35 -114.55 305.35 -103.25 294.1 M-30.95 294.1 L-65.7 294.1 -77.0 305.35 -42.25 305.35 -30.95 294.1 M-211.65 294.1 L-246.4 294.1 -257.7 305.35 -222.95 305.35 -211.65 294.1" fill="#000000" fill-rule="evenodd" stroke="none" class="line" />
    </g>
  </defs>
  <g transform="matrix(1.0, 0.0, 0.0, 1.0, 0.0, 0.0)">
    <use height="611.75" id="fill" transform="matrix(0.1616, 0.0, 0.0, 0.163, 0.1707, 0.1669)" width="617.05" xlink:href="#sprite0" />
    <use height="613.75" id="line" transform="matrix(0.1616, 0.0, 0.0, 0.163, 0.0091, 0.0038)" width="619.05" xlink:href="#sprite1" />
  </g>
</svg>