<?xml version="1.0" encoding="UTF-8" standalone="no"?>
<svg xmlns:xlink="http://www.w3.org/1999/xlink" height="100%" width="100%" xmlns="http://www.w3.org/2000/svg" preserveAspectRatio="none" viewBox="0 0 100 100">
  <defs>
    <g id="sprite0" transform="matrix(1.0, 0.0, 0.0, 1.0, 287.95, 295.0)">
      <use height="588.95" transform="matrix(1.0, 0.0, 0.0, 1.0, -287.95, -295.0)" width="588.95" xlink:href="#shape0" />
    </g>
    <g id="shape0" transform="matrix(1.0, 0.0, 0.0, 1.0, 287.95, 295.0)">
      <path d="M301.0 -295.0 L301.0 293.95 -287.95 293.95 -287.95 -295.0 301.0 -295.0" fill="#ffffff" fill-rule="evenodd" stroke="none" class="fill" />
    </g>
    <g id="sprite1" transform="matrix(1.0, 0.0, 0.0, 1.0, 299.95, 307.0)">
      <use height="612.95" transform="matrix(1.0, 0.0, 0.0, 1.0, -299.95, -307.0)" width="612.95" xlink:href="#shape1" />
    </g>
    <g id="shape1" transform="matrix(1.0, 0.0, 0.0, 1.0, 299.95, 307.0)">
      <path d="M-299.95 -307.0 L313.0 -307.0 313.0 305.95 -299.95 305.95 -299.95 -307.0 M301.0 -295.0 L-287.95 -295.0 -287.95 293.95 301.0 293.95 301.0 -295.0" fill="#000000" fill-rule="evenodd" stroke="none" class="line" />
    </g>
  </defs>
  <g transform="matrix(1.0, 0.0, 0.0, 1.0, 0.0, 0.0)">
    <use height="588.95" id="fill" transform="matrix(0.1632, 0.0, 0.0, 0.1632, 1.9499, 1.9491)" width="588.95" xlink:href="#sprite0" />
    <use height="612.95" id="line" transform="matrix(0.1632, 0.0, 0.0, 0.1632, -0.0088, -0.0095)" width="612.95" xlink:href="#sprite1" />
  </g>
</svg>