<?xml version="1.0" encoding="UTF-8" standalone="no"?>
<svg xmlns:xlink="http://www.w3.org/1999/xlink" height="100%" width="100%" xmlns="http://www.w3.org/2000/svg" preserveAspectRatio="none" viewBox="0 0 100 100">
  <defs>
    <g id="sprite0" transform="matrix(1.0, 0.0, 0.0, 1.0, -0.5, -0.5)">
      <use height="611.75" transform="matrix(1.0, 0.0, 0.0, 1.0, 0.5, 0.5)" width="611.35" xlink:href="#shape0" />
    </g>
    <g id="shape0" transform="matrix(1.0, 0.0, 0.0, 1.0, -0.5, -0.5)">
      <path d="M0.5 612.25 L0.5 0.5 611.85 0.5 611.85 612.25 0.5 612.25" fill="#ffffff" fill-rule="evenodd" stroke="none" class="fill" />
    </g>
    <g id="sprite1" transform="matrix(1.0, 0.0, 0.0, 1.0, 0.5, 0.5)">
      <use height="613.75" transform="matrix(1.0, 0.0, 0.0, 1.0, -0.5, -0.5)" width="613.35" xlink:href="#shape1" />
    </g>
    <g id="shape1" transform="matrix(1.0, 0.0, 0.0, 1.0, 0.5, 0.5)">
      <path d="M20.9 15.95 L35.35 1.5 1.5 1.5 1.5 35.35 15.95 20.9 15.95 16.45 16.1 16.1 Q16.25 15.95 16.45 15.95 L20.9 15.95 M66.05 15.95 L80.55 1.5 36.75 1.5 22.3 15.95 66.05 15.95 M112.65 15.95 L156.4 15.95 170.9 1.5 127.1 1.5 112.65 15.95 M111.25 15.95 L125.7 1.5 81.95 1.5 67.45 15.95 111.25 15.95 M201.6 15.95 L216.05 1.5 172.3 1.5 157.8 15.95 201.6 15.95 M246.75 15.95 L261.25 1.5 217.45 1.5 203.0 15.95 246.75 15.95 M291.95 15.95 L306.4 1.5 262.65 1.5 248.15 15.95 291.95 15.95 M596.4 345.4 L596.4 389.15 610.85 374.7 610.85 330.9 596.4 345.4 M610.85 376.1 L596.4 390.55 596.4 434.35 610.85 419.9 610.85 376.1 M596.4 300.2 L596.4 344.0 610.85 329.5 610.85 285.75 596.4 300.2 M596.4 209.85 L596.4 253.65 610.85 239.15 610.85 195.4 596.4 209.85 M610.85 240.55 L596.4 255.05 596.4 298.8 610.85 284.35 610.85 240.55 M337.1 15.95 L351.6 1.5 307.8 1.5 293.35 15.95 337.1 15.95 M382.3 15.95 L396.75 1.5 353.0 1.5 338.5 15.95 382.3 15.95 M427.45 15.95 L441.95 1.5 398.15 1.5 383.7 15.95 427.45 15.95 M443.35 1.5 L428.85 15.95 472.65 15.95 487.1 1.5 443.35 1.5 M596.4 119.5 L596.4 163.3 610.85 148.8 610.85 105.05 596.4 119.5 M610.85 194.0 L610.85 150.2 596.4 164.7 596.4 208.45 610.85 194.0 M519.2 15.95 L563.0 15.95 577.45 1.5 533.7 1.5 519.2 15.95 M517.8 15.95 L532.3 1.5 488.5 1.5 474.05 15.95 517.8 15.95 M596.4 29.15 L596.4 72.95 610.85 58.45 610.85 14.7 596.4 29.15 M610.85 59.85 L596.4 74.35 596.4 118.1 610.85 103.65 610.85 59.85 M610.85 13.3 L610.85 1.5 578.85 1.5 564.4 15.95 595.9 15.95 596.25 16.1 596.4 16.45 596.4 27.75 610.85 13.3 M611.85 -0.5 Q612.25 -0.5 612.55 -0.2 L612.85 0.5 612.85 612.25 612.55 612.95 Q612.25 613.25 611.85 613.25 L0.5 613.25 Q0.1 613.25 -0.2 612.95 L-0.5 612.25 -0.5 0.5 -0.2 -0.2 Q0.1 -0.5 0.5 -0.5 L611.85 -0.5 M1.5 36.75 L1.5 80.55 15.95 66.05 15.95 22.3 1.5 36.75 M1.5 81.95 L1.5 125.7 15.95 111.25 15.95 67.45 1.5 81.95 M15.95 112.65 L1.5 127.1 1.5 170.9 15.95 156.4 15.95 112.65 M1.5 172.3 L1.5 216.05 15.95 201.6 15.95 157.8 1.5 172.3 M1.5 398.15 L1.5 441.95 15.95 427.45 15.95 383.7 1.5 398.15 M15.95 428.85 L1.5 443.35 1.5 487.1 15.95 472.65 15.95 428.85 M15.95 382.3 L15.95 338.5 1.5 353.0 1.5 396.75 15.95 382.3 M1.5 351.6 L15.95 337.1 15.95 293.35 1.5 307.8 1.5 351.6 M15.95 291.95 L15.95 248.15 1.5 262.65 1.5 306.4 15.95 291.95 M15.95 246.75 L15.95 203.0 1.5 217.45 1.5 261.25 15.95 246.75 M1.5 488.5 L1.5 532.3 15.95 517.8 15.95 474.05 1.5 488.5 M15.95 519.2 L1.5 533.7 1.5 577.45 15.95 563.0 15.95 519.2 M1.5 578.85 L1.5 611.25 12.9 611.25 27.35 596.8 16.45 596.8 16.1 596.65 15.95 596.3 15.95 564.4 1.5 578.85 M103.25 611.25 L117.7 596.8 73.95 596.8 59.45 611.25 103.25 611.25 M104.65 611.25 L148.4 611.25 162.9 596.8 119.1 596.8 104.65 611.25 M283.95 611.25 L298.4 596.8 254.65 596.8 240.15 611.25 283.95 611.25 M58.05 611.25 L72.55 596.8 28.75 596.8 14.3 611.25 58.05 611.25 M285.35 611.25 L329.1 611.25 343.6 596.8 299.8 596.8 285.35 611.25 M195.0 611.25 L238.75 611.25 253.25 596.8 209.45 596.8 195.0 611.25 M596.4 526.1 L596.4 569.9 610.85 555.4 610.85 511.65 596.4 526.1 M610.85 556.8 L596.4 571.3 596.4 596.3 596.25 596.65 595.9 596.8 570.9 596.8 556.4 611.25 600.2 611.25 610.85 600.6 610.85 556.8 M596.4 435.75 L596.4 479.55 610.85 465.05 610.85 421.3 596.4 435.75 M610.85 466.45 L596.4 480.95 596.4 524.7 610.85 510.25 610.85 466.45 M208.05 596.8 L164.3 596.8 149.8 611.25 193.6 611.25 208.05 596.8 M466.05 611.25 L509.85 611.25 524.3 596.8 480.5 596.8 466.05 611.25 M595.4 595.8 L595.4 16.95 16.95 16.95 16.95 595.8 595.4 595.8 M525.7 596.8 L511.25 611.25 555.0 611.25 569.5 596.8 525.7 596.8 M610.85 611.25 L610.85 602.0 601.6 611.25 610.85 611.25 M374.3 611.25 L388.75 596.8 345.0 596.8 330.5 611.25 374.3 611.25 M419.5 611.25 L433.95 596.8 390.15 596.8 375.7 611.25 419.5 611.25 M464.65 611.25 L479.1 596.8 435.35 596.8 420.9 611.25 464.65 611.25" fill="#000000" fill-rule="evenodd" stroke="none" class="line" />
    </g>
  </defs>
  <g transform="matrix(1.0, 0.0, 0.0, 1.0, 0.0, 0.0)">
    <use height="611.75" id="fill" transform="matrix(0.1631, 0.0, 0.0, 0.163, 0.1816, 0.1815)" width="611.35" xlink:href="#sprite0" />
    <use height="613.75" id="line" transform="matrix(0.1631, 0.0, 0.0, 0.163, 0.0184, 0.0185)" width="613.35" xlink:href="#sprite1" />
  </g>
</svg>