<?xml version="1.0" encoding="UTF-8" standalone="no"?>
<svg xmlns:xlink="http://www.w3.org/1999/xlink" height="100%" width="100%" xmlns="http://www.w3.org/2000/svg" preserveAspectRatio="none" viewBox="0 0 100 100">
  <defs>
    <g id="sprite0" transform="matrix(1.0, 0.0, 0.0, 1.0, 353.05, 305.4)">
      <use height="611.75" transform="matrix(1.0, 0.0, 0.0, 1.0, -353.05, -305.4)" width="707.15" xlink:href="#shape0" />
    </g>
    <g id="shape0" transform="matrix(1.0, 0.0, 0.0, 1.0, 353.05, 305.4)">
      <path d="M-353.05 306.35 L-353.05 -305.4 354.1 -305.4 354.1 306.35 -353.05 306.35" fill="#ffffff" fill-rule="evenodd" stroke="none" class="fill" />
    </g>
    <g id="sprite1" transform="matrix(1.0, 0.0, 0.0, 1.0, 354.05, 306.4)">
      <use height="613.75" transform="matrix(1.0, 0.0, 0.0, 1.0, -354.05, -306.4)" width="709.15" xlink:href="#shape1" />
    </g>
    <g id="shape1" transform="matrix(1.0, 0.0, 0.0, 1.0, 354.05, 306.4)">
      <path d="M130.95 294.6 L97.7 294.6 86.95 305.35 120.2 305.35 130.95 294.6 M328.1 305.35 L338.85 294.6 305.6 294.6 294.85 305.35 328.1 305.35 M342.35 257.85 L342.35 291.1 353.1 280.35 353.1 247.1 342.35 257.85 M353.1 281.75 L342.35 292.5 342.35 294.1 342.2 294.45 341.85 294.6 340.25 294.6 329.5 305.35 353.1 305.35 353.1 281.75 M353.1 212.45 L342.35 223.2 342.35 256.45 353.1 245.7 353.1 212.45 M342.35 153.9 L342.35 187.15 353.1 176.4 353.1 143.15 342.35 153.9 M353.1 177.8 L342.35 188.55 342.35 221.8 353.1 211.05 353.1 177.8 M353.1 108.5 L342.35 119.25 342.35 152.5 353.1 141.75 353.1 108.5 M342.35 49.95 L342.35 83.2 353.1 72.45 353.1 39.2 342.35 49.95 M353.1 73.85 L342.35 84.6 342.35 117.85 353.1 107.1 353.1 73.85 M342.35 15.3 L342.35 48.55 353.1 37.8 353.1 4.55 342.35 15.3 M353.1 -30.1 L342.35 -19.35 342.35 13.9 353.1 3.15 353.1 -30.1 M342.35 -88.65 L342.35 -55.4 353.1 -66.15 353.1 -99.4 342.35 -88.65 M353.1 -64.75 L342.35 -54.0 342.35 -20.75 353.1 -31.5 353.1 -64.75 M353.1 -134.05 L342.35 -123.3 342.35 -90.05 353.1 -100.8 353.1 -134.05 M342.35 -192.6 L342.35 -159.35 353.1 -170.1 353.1 -203.35 342.35 -192.6 M353.1 -168.7 L342.35 -157.95 342.35 -124.7 353.1 -135.45 353.1 -168.7 M353.1 -238.0 L342.35 -227.25 342.35 -194.0 353.1 -204.75 353.1 -238.0 M353.1 -272.65 L342.35 -261.9 342.35 -228.65 353.1 -239.4 353.1 -272.65 M354.1 -306.4 L354.8 -306.1 355.1 -305.4 355.1 306.35 354.8 307.05 354.1 307.35 -353.05 307.35 -353.75 307.05 -354.05 306.35 -354.05 -305.4 -353.75 -306.1 -353.05 -306.4 354.1 -306.4 M353.1 -304.4 L350.2 -304.4 339.45 -293.65 341.85 -293.65 342.2 -293.5 342.35 -293.15 342.35 -263.3 353.1 -274.05 353.1 -304.4 M62.25 -293.65 L95.5 -293.65 106.25 -304.4 73.0 -304.4 62.25 -293.65 M71.6 -304.4 L38.3 -304.4 27.55 -293.65 60.85 -293.65 71.6 -304.4 M36.9 -304.4 L3.65 -304.4 -7.1 -293.65 26.15 -293.65 36.9 -304.4 M140.9 -304.4 L107.65 -304.4 96.9 -293.65 130.15 -293.65 140.9 -304.4 M315.55 -304.4 L304.8 -293.65 338.05 -293.65 348.8 -304.4 315.55 -304.4 M164.8 -293.65 L175.55 -304.4 142.3 -304.4 131.55 -293.65 164.8 -293.65 M200.85 -293.65 L234.1 -293.65 244.85 -304.4 211.6 -304.4 200.85 -293.65 M210.2 -304.4 L176.95 -304.4 166.2 -293.65 199.45 -293.65 210.2 -304.4 M314.15 -304.4 L280.9 -304.4 270.15 -293.65 303.4 -293.65 314.15 -304.4 M279.5 -304.4 L246.25 -304.4 235.5 -293.65 268.75 -293.65 279.5 -304.4 M28.4 294.6 L17.65 305.35 50.9 305.35 61.65 294.6 28.4 294.6 M121.6 305.35 L154.85 305.35 165.6 294.6 132.35 294.6 121.6 305.35 M63.05 294.6 L52.3 305.35 85.55 305.35 96.3 294.6 63.05 294.6 M304.2 294.6 L270.95 294.6 260.2 305.35 293.45 305.35 304.2 294.6 M16.25 305.35 L27.0 294.6 -6.25 294.6 -17.0 305.35 16.25 305.35 M167.0 294.6 L156.25 305.35 189.5 305.35 200.25 294.6 167.0 294.6 M201.65 294.6 L190.9 305.35 224.15 305.35 234.9 294.6 201.65 294.6 M236.3 294.6 L225.55 305.35 258.8 305.35 269.55 294.6 236.3 294.6 M-352.05 -261.95 L-341.3 -272.7 -341.3 -293.15 -341.15 -293.5 -340.8 -293.65 -320.35 -293.65 -309.6 -304.4 -342.85 -304.4 -352.05 -295.2 -352.05 -261.95 M-344.25 -304.4 L-352.05 -304.4 -352.05 -296.6 -344.25 -304.4 M341.35 293.6 L341.35 -292.65 -340.3 -292.65 -340.3 293.6 341.35 293.6 M-352.05 -260.55 L-352.05 -227.3 -341.3 -238.05 -341.3 -271.3 -352.05 -260.55 M-341.3 -64.8 L-341.3 -98.05 -352.05 -87.3 -352.05 -54.05 -341.3 -64.8 M-341.3 -63.4 L-352.05 -52.65 -352.05 -19.4 -341.3 -30.15 -341.3 -63.4 M-341.3 -99.45 L-341.3 -132.7 -352.05 -121.95 -352.05 -88.7 -341.3 -99.45 M-352.05 -158.0 L-341.3 -168.75 -341.3 -202.0 -352.05 -191.25 -352.05 -158.0 M-341.3 -167.35 L-352.05 -156.6 -352.05 -123.35 -341.3 -134.1 -341.3 -167.35 M-341.3 -203.4 L-341.3 -236.65 -352.05 -225.9 -352.05 -192.65 -341.3 -203.4 M-352.05 -18.0 L-352.05 15.25 -341.3 4.5 -341.3 -28.75 -352.05 -18.0 M-180.9 294.6 L-214.2 294.6 -224.95 305.35 -191.7 305.35 -180.9 294.6 M-284.3 -293.65 L-251.05 -293.65 -240.3 -304.4 -273.55 -304.4 -284.3 -293.65 M-274.95 -304.4 L-308.2 -304.4 -318.95 -293.65 -285.7 -293.65 -274.95 -304.4 M-171.0 -304.4 L-204.25 -304.4 -215.0 -293.65 -181.75 -293.65 -171.0 -304.4 M-205.65 -304.4 L-238.9 -304.4 -249.65 -293.65 -216.4 -293.65 -205.65 -304.4 M-111.05 -293.65 L-77.8 -293.65 -67.05 -304.4 -100.3 -304.4 -111.05 -293.65 M-147.1 -293.65 L-136.35 -304.4 -169.6 -304.4 -180.35 -293.65 -147.1 -293.65 M-41.75 -293.65 L-8.5 -293.65 2.25 -304.4 -31.0 -304.4 -41.75 -293.65 M-101.7 -304.4 L-134.95 -304.4 -145.7 -293.65 -112.45 -293.65 -101.7 -304.4 M-32.4 -304.4 L-65.65 -304.4 -76.4 -293.65 -43.15 -293.65 -32.4 -304.4 M-318.15 294.6 L-328.9 305.35 -295.65 305.35 -284.9 294.6 -318.15 294.6 M-250.25 294.6 L-283.5 294.6 -294.25 305.35 -261.0 305.35 -250.25 294.6 M-190.3 305.35 L-157.0 305.35 -146.25 294.6 -179.5 294.6 -190.3 305.35 M-215.6 294.6 L-248.85 294.6 -259.6 305.35 -226.35 305.35 -215.6 294.6 M-75.55 294.6 L-86.3 305.35 -53.05 305.35 -42.3 294.6 -75.55 294.6 M-40.9 294.6 L-51.65 305.35 -18.4 305.35 -7.65 294.6 -40.9 294.6 M-352.05 84.55 L-341.3 73.8 -341.3 40.55 -352.05 51.3 -352.05 84.55 M-341.3 39.15 L-341.3 5.9 -352.05 16.65 -352.05 49.9 -341.3 39.15 M-120.95 305.35 L-87.7 305.35 -76.95 294.6 -110.2 294.6 -120.95 305.35 M-111.6 294.6 L-144.85 294.6 -155.6 305.35 -122.35 305.35 -111.6 294.6 M-352.05 85.95 L-352.05 119.2 -341.3 108.45 -341.3 75.2 -352.05 85.95 M-352.05 188.5 L-341.3 177.75 -341.3 144.5 -352.05 155.25 -352.05 188.5 M-341.3 143.1 L-341.3 109.85 -352.05 120.6 -352.05 153.85 -341.3 143.1 M-352.05 189.9 L-352.05 223.15 -341.3 212.4 -341.3 179.15 -352.05 189.9 M-341.3 281.7 L-341.3 248.45 -352.05 259.2 -352.05 292.45 -341.3 281.7 M-341.3 283.1 L-352.05 293.85 -352.05 305.35 -330.3 305.35 -319.55 294.6 -340.8 294.6 -341.15 294.45 -341.3 294.1 -341.3 283.1 M-341.3 247.05 L-341.3 213.8 -352.05 224.55 -352.05 257.8 -341.3 247.05" fill="#000000" fill-rule="evenodd" stroke="none" class="line" />
    </g>
  </defs>
  <g transform="matrix(1.0, 0.0, 0.0, 1.0, 0.0, 0.0)">
    <use height="611.75" id="fill" transform="matrix(0.1411, 0.0, 0.0, 0.163, 0.1407, 0.1669)" width="707.15" xlink:href="#sprite0" />
    <use height="613.75" id="line" transform="matrix(0.1411, 0.0, 0.0, 0.163, -0.0004, 0.0038)" width="709.15" xlink:href="#sprite1" />
  </g>
</svg>