<?xml version="1.0" encoding="UTF-8" standalone="no"?>
<svg xmlns:xlink="http://www.w3.org/1999/xlink" height="100%" width="100%" xmlns="http://www.w3.org/2000/svg" preserveAspectRatio="none" viewBox="0 0 100 100">
  <defs>
    <g id="sprite0" transform="matrix(1.0, 0.0, 0.0, 1.0, 384.95, 147.95)">
      <use height="295.95" transform="matrix(1.0, 0.0, 0.0, 1.0, -384.95, -147.95)" width="769.95" xlink:href="#shape0" />
    </g>
    <g id="shape0" transform="matrix(1.0, 0.0, 0.0, 1.0, 384.95, 147.95)">
      <path d="M385.0 148.0 L-384.95 148.0 -384.95 -147.95 385.0 -147.95 385.0 148.0" fill="#ffffff" fill-rule="evenodd" stroke="none" class="fill" />
    </g>
    <g id="sprite1" transform="matrix(1.0, 0.0, 0.0, 1.0, 396.95, 159.95)">
      <use height="319.95" transform="matrix(1.0, 0.0, 0.0, 1.0, -396.95, -159.95)" width="793.95" xlink:href="#shape1" />
    </g>
    <g id="shape1" transform="matrix(1.0, 0.0, 0.0, 1.0, 396.95, 159.95)">
      <path d="M-396.95 -159.95 L397.0 -159.95 397.0 160.0 -396.95 160.0 -396.95 -159.95 M385.0 -147.95 L-384.95 -147.95 -384.95 148.0 385.0 148.0 385.0 -147.95" fill="#000000" fill-rule="evenodd" stroke="none" class="line" />
    </g>
  </defs>
  <g transform="matrix(1.0, 0.0, 0.0, 1.0, 0.0, 0.0)">
    <use height="295.95" id="fill" transform="matrix(0.126, 0.0, 0.0, 0.3127, 1.4877, 3.7363)" width="769.95" xlink:href="#sprite0" />
    <use height="319.95" id="line" transform="matrix(0.126, 0.0, 0.0, 0.3127, -0.0246, -0.0161)" width="793.95" xlink:href="#sprite1" />
  </g>
</svg>