<?xml version="1.0" encoding="UTF-8" standalone="no"?>
<svg xmlns:xlink="http://www.w3.org/1999/xlink" height="100%" width="100%" xmlns="http://www.w3.org/2000/svg" preserveAspectRatio="none" viewBox="0 0 100 100">
  <defs>
    <g id="sprite0" transform="matrix(1.0, 0.0, 0.0, 1.0, 384.05, 188.55)">
      <use height="377.1" transform="matrix(1.0, 0.0, 0.0, 1.0, -384.05, -188.55)" width="768.1" xlink:href="#shape0" />
    </g>
    <g id="shape0" transform="matrix(1.0, 0.0, 0.0, 1.0, 384.05, 188.55)">
      <path d="M384.05 -188.55 L384.05 188.55 -384.05 188.55 -384.05 -188.55 384.05 -188.55" fill="#ffffff" fill-rule="evenodd" stroke="none" class="fill" />
    </g>
    <g id="sprite1" transform="matrix(1.0, 0.0, 0.0, 1.0, 396.05, 200.55)">
      <use height="401.1" transform="matrix(1.0, 0.0, 0.0, 1.0, -396.05, -200.55)" width="792.1" xlink:href="#shape1" />
    </g>
    <g id="shape1" transform="matrix(1.0, 0.0, 0.0, 1.0, 396.05, 200.55)">
      <path d="M-396.05 -200.55 L396.05 -200.55 396.05 200.55 -396.05 200.55 -396.05 -200.55 M384.05 -188.55 L-384.05 -188.55 -384.05 188.55 384.05 188.55 384.05 -188.55" fill="#000000" fill-rule="evenodd" stroke="none" class="line" />
    </g>
  </defs>
  <g transform="matrix(1.0, 0.0, 0.0, 1.0, 0.0, 0.0)">
    <use height="377.1" id="fill" transform="matrix(0.1263, 0.0, 0.0, 0.2493, 1.5132, 2.992)" width="768.1" xlink:href="#sprite0" />
    <use height="401.1" id="line" transform="matrix(0.1263, 0.0, 0.0, 0.2493, -0.0018, 0.0002)" width="792.1" xlink:href="#sprite1" />
  </g>
</svg>