<?xml version="1.0" encoding="UTF-8" standalone="no"?>
<svg xmlns:xlink="http://www.w3.org/1999/xlink" height="100%" width="100%" xmlns="http://www.w3.org/2000/svg" preserveAspectRatio="none" viewBox="0 0 100 100">
  <defs>
    <g id="sprite0" transform="matrix(1.0, 0.0, 0.0, 1.0, 305.4, 305.4)">
      <use height="611.75" transform="matrix(1.0, 0.0, 0.0, 1.0, -305.4, -305.4)" width="611.85" xlink:href="#shape0" />
    </g>
    <g id="shape0" transform="matrix(1.0, 0.0, 0.0, 1.0, 305.4, 305.4)">
      <path d="M-305.4 306.35 L-305.4 -305.4 306.45 -305.4 306.45 306.35 -305.4 306.35" fill="#ffffff" fill-rule="evenodd" stroke="none" class="fill" />
    </g>
    <g id="sprite1" transform="matrix(1.0, 0.0, 0.0, 1.0, 306.4, 306.4)">
      <use height="613.75" transform="matrix(1.0, 0.0, 0.0, 1.0, -306.4, -306.4)" width="613.85" xlink:href="#shape1" />
    </g>
    <g id="shape1" transform="matrix(1.0, 0.0, 0.0, 1.0, 306.4, 306.4)">
      <path d="M298.95 159.55 L298.95 180.7 305.45 174.25 305.45 153.1 298.95 159.55 M305.45 175.65 L298.95 182.1 298.95 203.25 305.45 196.75 305.45 175.65 M298.95 114.5 L298.95 135.65 305.45 129.15 305.45 108.05 298.95 114.5 M305.45 130.55 L298.95 137.05 298.95 158.15 305.45 151.7 305.45 130.55 M298.95 69.4 L298.95 90.55 305.45 84.1 305.45 62.95 298.95 69.4 M305.45 85.5 L298.95 91.95 298.95 113.1 305.45 106.65 305.45 85.5 M298.95 24.35 L298.95 45.5 305.45 39.0 305.45 17.9 298.95 24.35 M305.45 40.4 L298.95 46.9 298.95 68.0 305.45 61.55 305.45 40.4 M298.95 22.95 L305.45 16.5 305.45 -4.65 298.95 1.8 298.95 22.95 M298.95 -43.25 L298.95 -22.1 305.45 -28.6 305.45 -49.7 298.95 -43.25 M305.45 -27.2 L298.95 -20.7 298.95 0.4 305.45 -6.05 305.45 -27.2 M298.95 -88.3 L298.95 -67.2 305.45 -73.65 305.45 -94.8 298.95 -88.3 M305.45 -72.25 L298.95 -65.8 298.95 -44.65 305.45 -51.1 305.45 -72.25 M298.95 -133.4 L298.95 -112.25 305.45 -118.75 305.45 -139.85 298.95 -133.4 M305.45 -117.35 L298.95 -110.85 298.95 -89.7 305.45 -96.2 305.45 -117.35 M298.95 -178.45 L298.95 -157.35 305.45 -163.8 305.45 -184.95 298.95 -178.45 M305.45 -162.4 L298.95 -155.95 298.95 -134.8 305.45 -141.25 305.45 -162.4 M57.9 -297.95 L79.0 -297.95 85.5 -304.4 64.35 -304.4 57.9 -297.95 M56.5 -297.95 L62.95 -304.4 41.8 -304.4 35.35 -297.95 56.5 -297.95 M12.8 -297.95 L33.95 -297.95 40.4 -304.4 19.3 -304.4 12.8 -297.95 M11.4 -297.95 L17.9 -304.4 -3.25 -304.4 -9.7 -297.95 11.4 -297.95 M125.5 -297.95 L146.6 -297.95 153.1 -304.4 131.95 -304.4 125.5 -297.95 M108.0 -304.4 L86.9 -304.4 80.4 -297.95 101.55 -297.95 108.0 -304.4 M109.4 -304.4 L102.95 -297.95 124.1 -297.95 130.55 -304.4 109.4 -304.4 M298.95 -223.55 L298.95 -202.4 305.45 -208.85 305.45 -230.0 298.95 -223.55 M305.45 -207.45 L298.95 -201.0 298.95 -179.85 305.45 -186.35 305.45 -207.45 M298.95 -224.95 L305.45 -231.4 305.45 -252.55 298.95 -246.05 298.95 -224.95 M298.95 -291.15 L298.95 -270.0 305.45 -276.5 305.45 -297.6 298.95 -291.15 M305.45 -275.1 L298.95 -268.6 298.95 -247.45 305.45 -253.95 305.45 -275.1 M215.65 -297.95 L236.75 -297.95 243.25 -304.4 222.1 -304.4 215.65 -297.95 M170.55 -297.95 L191.7 -297.95 198.15 -304.4 177.05 -304.4 170.55 -297.95 M199.55 -304.4 L193.1 -297.95 214.25 -297.95 220.7 -304.4 199.55 -304.4 M169.15 -297.95 L175.65 -304.4 154.5 -304.4 148.0 -297.95 169.15 -297.95 M305.45 -304.4 L289.7 -304.4 283.25 -297.95 298.45 -297.95 298.8 -297.8 298.95 -297.45 298.95 -292.55 305.45 -299.0 305.45 -304.4 M307.15 -306.1 L307.45 -305.4 307.45 306.35 307.15 307.05 306.45 307.35 -305.4 307.35 -306.1 307.05 -306.4 306.35 -306.4 -305.4 -306.1 -306.1 -305.4 -306.4 306.45 -306.4 307.15 -306.1 M260.7 -297.95 L281.85 -297.95 288.3 -304.4 267.15 -304.4 260.7 -297.95 M259.3 -297.95 L265.75 -304.4 244.65 -304.4 238.15 -297.95 259.3 -297.95 M63.05 305.35 L84.2 305.35 90.65 298.9 69.5 298.9 63.05 305.35 M68.1 298.9 L46.95 298.9 40.5 305.35 61.65 305.35 68.1 298.9 M17.95 305.35 L39.1 305.35 45.55 298.9 24.45 298.9 17.95 305.35 M1.9 298.9 L-4.55 305.35 16.55 305.35 23.05 298.9 1.9 298.9 M153.2 305.35 L174.3 305.35 180.8 298.9 159.65 298.9 153.2 305.35 M305.45 288.3 L298.95 294.8 298.95 298.4 298.8 298.75 298.45 298.9 294.85 298.9 288.4 305.35 305.45 305.35 305.45 288.3 M298.95 270.85 L305.45 264.35 305.45 243.25 298.95 249.7 298.95 270.85 M305.45 265.75 L298.95 272.25 298.95 293.4 305.45 286.9 305.45 265.75 M298.95 204.65 L298.95 225.75 305.45 219.3 305.45 198.15 298.95 204.65 M305.45 220.7 L298.95 227.15 298.95 248.3 305.45 241.85 305.45 220.7 M113.2 298.9 L92.05 298.9 85.6 305.35 106.7 305.35 113.2 298.9 M158.25 298.9 L137.1 298.9 130.65 305.35 151.8 305.35 158.25 298.9 M129.25 305.35 L135.7 298.9 114.6 298.9 108.1 305.35 129.25 305.35 M220.8 305.35 L241.9 305.35 248.4 298.9 227.25 298.9 220.8 305.35 M204.7 298.9 L198.25 305.35 219.4 305.35 225.85 298.9 204.7 298.9 M-280.15 -297.95 L-259.0 -297.95 -252.55 -304.4 -273.7 -304.4 -280.15 -297.95 M-304.4 -297.65 L-297.6 -304.4 -304.4 -304.4 -304.4 -297.65 M-297.75 -297.8 L-297.4 -297.95 -281.55 -297.95 -275.1 -304.4 -296.2 -304.4 -304.4 -296.25 -304.4 -275.1 -297.9 -281.55 -297.9 -297.45 -297.75 -297.8 M-190.0 -297.95 L-168.85 -297.95 -162.4 -304.4 -183.55 -304.4 -190.0 -297.95 M-235.1 -297.95 L-213.95 -297.95 -207.5 -304.4 -228.6 -304.4 -235.1 -297.95 M-206.1 -304.4 L-212.55 -297.95 -191.4 -297.95 -184.95 -304.4 -206.1 -304.4 M-236.5 -297.95 L-230.0 -304.4 -251.15 -304.4 -257.6 -297.95 -236.5 -297.95 M-94.8 -304.4 L-115.95 -304.4 -122.4 -297.95 -101.25 -297.95 -94.8 -304.4 M-144.95 -297.95 L-123.8 -297.95 -117.35 -304.4 -138.45 -304.4 -144.95 -297.95 M-146.35 -297.95 L-139.85 -304.4 -161.0 -304.4 -167.45 -297.95 -146.35 -297.95 M-32.25 -297.95 L-11.1 -297.95 -4.65 -304.4 -25.8 -304.4 -32.25 -297.95 M-77.35 -297.95 L-56.2 -297.95 -49.75 -304.4 -70.85 -304.4 -77.35 -297.95 M-48.35 -304.4 L-54.8 -297.95 -33.65 -297.95 -27.2 -304.4 -48.35 -304.4 M-78.75 -297.95 L-72.25 -304.4 -93.4 -304.4 -99.85 -297.95 -78.75 -297.95 M297.95 297.9 L297.95 -296.95 -296.9 -296.95 -296.9 297.9 297.95 297.9 M270.95 298.9 L249.8 298.9 243.3 305.35 264.45 305.35 270.95 298.9 M287.0 305.35 L293.45 298.9 272.35 298.9 265.85 305.35 287.0 305.35 M175.7 305.35 L196.85 305.35 203.3 298.9 182.2 298.9 175.7 305.35 M-304.4 -251.15 L-304.4 -230.05 -297.9 -236.5 -297.9 -257.65 -304.4 -251.15 M-297.9 -259.05 L-297.9 -280.15 -304.4 -273.7 -304.4 -252.55 -297.9 -259.05 M-304.4 -206.1 L-304.4 -184.95 -297.9 -191.4 -297.9 -212.55 -304.4 -206.1 M-297.9 -213.95 L-297.9 -235.1 -304.4 -228.65 -304.4 -207.5 -297.9 -213.95 M-304.4 -161.0 L-304.4 -139.9 -297.9 -146.35 -297.9 -167.5 -304.4 -161.0 M-304.4 -117.35 L-297.9 -123.8 -297.9 -144.95 -304.4 -138.5 -304.4 -117.35 M-297.9 -168.9 L-297.9 -190.0 -304.4 -183.55 -304.4 -162.4 -297.9 -168.9 M-304.4 -115.95 L-304.4 -94.8 -297.9 -101.3 -297.9 -122.4 -304.4 -115.95 M-304.4 -27.2 L-297.9 -33.7 -297.9 -54.8 -304.4 -48.35 -304.4 -27.2 M-297.9 -56.2 L-297.9 -77.35 -304.4 -70.9 -304.4 -49.75 -297.9 -56.2 M-304.4 -72.3 L-297.9 -78.75 -297.9 -99.9 -304.4 -93.4 -304.4 -72.3 M-304.4 -3.25 L-304.4 17.85 -297.9 11.4 -297.9 -9.75 -304.4 -3.25 M-297.9 -11.15 L-297.9 -32.3 -304.4 -25.8 -304.4 -4.65 -297.9 -11.15 M-304.4 41.8 L-304.4 62.95 -297.9 56.45 -297.9 35.35 -304.4 41.8 M-297.9 33.95 L-297.9 12.8 -304.4 19.25 -304.4 40.4 -297.9 33.95 M-304.4 86.85 L-304.4 108.0 -297.9 101.55 -297.9 80.4 -304.4 86.85 M-297.9 79.0 L-297.9 57.85 -304.4 64.35 -304.4 85.45 -297.9 79.0 M-304.4 131.95 L-304.4 153.1 -297.9 146.6 -297.9 125.45 -304.4 131.95 M-297.9 191.7 L-297.9 170.55 -304.4 177.0 -304.4 198.15 -297.9 191.7 M-304.4 175.6 L-297.9 169.15 -297.9 148.0 -304.4 154.5 -304.4 175.6 M-297.9 124.05 L-297.9 102.95 -304.4 109.4 -304.4 130.55 -297.9 124.05 M-304.4 244.6 L-304.4 265.75 -297.9 259.3 -297.9 238.15 -304.4 244.6 M-297.9 236.75 L-297.9 215.6 -304.4 222.1 -304.4 243.2 -297.9 236.75 M-304.4 220.7 L-297.9 214.2 -297.9 193.1 -304.4 199.55 -304.4 220.7 M-304.4 289.7 L-304.4 305.35 -298.95 305.35 -292.45 298.9 -297.4 298.9 -297.75 298.75 -297.9 298.4 -297.9 283.2 -304.4 289.7 M-297.9 281.8 L-297.9 260.7 -304.4 267.15 -304.4 288.3 -297.9 281.8 M-252.45 305.35 L-231.3 305.35 -224.85 298.9 -246.0 298.9 -252.45 305.35 M-247.4 298.9 L-268.5 298.9 -275.0 305.35 -253.85 305.35 -247.4 298.9 M-276.4 305.35 L-269.9 298.9 -291.05 298.9 -297.55 305.35 -276.4 305.35 M-184.85 305.35 L-163.7 305.35 -157.25 298.9 -178.4 298.9 -184.85 305.35 M-200.9 298.9 L-207.4 305.35 -186.25 305.35 -179.8 298.9 -200.9 298.9 M-229.9 305.35 L-208.8 305.35 -202.3 298.9 -223.45 298.9 -229.9 305.35 M-94.7 305.35 L-73.55 305.35 -67.1 298.9 -88.25 298.9 -94.7 305.35 M-89.65 298.9 L-110.75 298.9 -117.25 305.35 -96.1 305.35 -89.65 298.9 M-118.65 305.35 L-112.15 298.9 -133.3 298.9 -139.8 305.35 -118.65 305.35 M-155.85 298.9 L-162.3 305.35 -141.2 305.35 -134.7 298.9 -155.85 298.9 M-44.55 298.9 L-65.7 298.9 -72.15 305.35 -51.05 305.35 -44.55 298.9 M-27.1 305.35 L-5.95 305.35 0.5 298.9 -20.65 298.9 -27.1 305.35 M-28.5 305.35 L-22.05 298.9 -43.15 298.9 -49.65 305.35 -28.5 305.35" fill="#000000" fill-rule="evenodd" stroke="none" class="line" />
    </g>
  </defs>
  <g transform="matrix(1.0, 0.0, 0.0, 1.0, 0.0, 0.0)">
    <use height="611.75" id="fill" transform="matrix(0.163, 0.0, 0.0, 0.163, 0.1715, 0.1669)" width="611.85" xlink:href="#sprite0" />
    <use height="613.75" id="line" transform="matrix(0.163, 0.0, 0.0, 0.163, 0.0085, 0.0038)" width="613.85" xlink:href="#sprite1" />
  </g>
</svg>