<?xml version="1.0" encoding="UTF-8" standalone="no"?>
<svg xmlns:xlink="http://www.w3.org/1999/xlink" height="100%" width="100%" xmlns="http://www.w3.org/2000/svg" preserveAspectRatio="none" viewBox="0 0 100 100">
  <defs>
    <g id="sprite0" transform="matrix(1.0, 0.0, 0.0, 1.0, 376.45, 296.45)">
      <use height="592.95" transform="matrix(1.0, 0.0, 0.0, 1.0, -376.45, -296.45)" width="752.95" xlink:href="#shape0" />
    </g>
    <g id="shape0" transform="matrix(1.0, 0.0, 0.0, 1.0, 376.45, 296.45)">
      <path d="M376.5 296.5 L-376.45 296.5 -376.45 -296.45 376.5 -296.45 376.5 296.5" fill="#ffffff" fill-rule="evenodd" stroke="none" class="fill" />
    </g>
    <g id="sprite1" transform="matrix(1.0, 0.0, 0.0, 1.0, 388.45, 308.45)">
      <use height="616.95" transform="matrix(1.0, 0.0, 0.0, 1.0, -388.45, -308.45)" width="776.95" xlink:href="#shape1" />
    </g>
    <g id="shape1" transform="matrix(1.0, 0.0, 0.0, 1.0, 388.45, 308.45)">
      <path d="M-388.45 -308.45 L388.5 -308.45 388.5 308.5 -388.45 308.5 -388.45 -308.45 M376.5 -296.45 L-376.45 -296.45 -376.45 296.5 376.5 296.5 376.5 -296.45" fill="#000000" fill-rule="evenodd" stroke="none" class="line" />
    </g>
  </defs>
  <g transform="matrix(1.0, 0.0, 0.0, 1.0, 0.0, 0.0)">
    <use height="592.95" id="fill" transform="matrix(0.1288, 0.0, 0.0, 0.1622, 1.5249, 1.9246)" width="752.95" xlink:href="#sprite0" />
    <use height="616.95" id="line" transform="matrix(0.1288, 0.0, 0.0, 0.1622, -0.0203, -0.0215)" width="776.95" xlink:href="#sprite1" />
  </g>
</svg>