<?xml version="1.0" encoding="UTF-8" standalone="no"?>
<svg xmlns:xlink="http://www.w3.org/1999/xlink" height="180.0px" width="230.0px" xmlns="http://www.w3.org/2000/svg" preserveAspectRatio="xMinYMin meet">
  <g transform="matrix(1.0, 0.0, 0.0, 1.0, 0.0, 0.0)">
    <use height="10.0" id="BTN_logo" transform="matrix(22.9998, 0.0, 0.0, 18.0, 0.0011, -2.0E-4)" width="10.0" xlink:href="#sprite0" />
    <use height="174.3" transform="matrix(1.0, 0.0, 0.0, 1.0, 2.6483, 2.8487)" width="224.7" xlink:href="#sprite1" />
  </g>
  <defs>
    <g id="sprite0" transform="matrix(1.0, 0.0, 0.0, 1.0, 5.0, 5.0)">
      <use height="10.0" transform="matrix(1.0, 0.0, 0.0, 1.0, -5.0, -5.0)" width="10.0" xlink:href="#shape0" />
    </g>
    <g id="shape0" transform="matrix(1.0, 0.0, 0.0, 1.0, 5.0, 5.0)">
      <path d="M5.0 5.0 L-5.0 5.0 -5.0 -5.0 5.0 -5.0 5.0 5.0" fill="#000000" fill-opacity="0.0" fill-rule="evenodd" stroke="none" />
    </g>
    <g id="sprite1" transform="matrix(1.0, 0.0, 0.0, 1.0, 111.35, 87.15)">
      <use height="174.3" transform="matrix(1.0, 0.0, 0.0, 1.0, -111.35, -87.15)" width="224.7" xlink:href="#shape1" />
    </g>
    <g id="shape1" transform="matrix(1.0, 0.0, 0.0, 1.0, 111.35, 87.15)">
      <path d="M105.65 -52.2 Q102.55 -51.4 98.3 -51.2 89.05 -50.8 79.55 -55.4 76.55 -56.85 68.55 -61.05 57.35 -66.9 50.1 -69.05 36.1 -73.3 22.15 -71.3 L20.95 -70.95 Q22.75 -73.15 23.5 -76.25 25.05 -82.55 19.9 -87.15 L21.85 -86.95 24.0 -87.05 31.3 -86.6 Q39.05 -85.65 46.25 -82.55 53.7 -79.4 61.7 -74.3 68.05 -70.15 75.85 -64.1 80.9 -60.2 84.8 -57.95 89.95 -54.95 94.8 -53.9 L99.1 -52.9 107.6 -52.4 105.65 -52.2" fill="#0b5081" fill-rule="evenodd" stroke="none" />
      <path d="M14.3 -39.35 Q9.05 -25.4 0.8 -13.1 -25.85 26.25 -73.2 34.5 -73.9 29.55 -79.0 23.8 -89.25 12.4 -111.35 8.65 -98.95 7.95 -83.25 5.65 -51.9 1.15 -35.45 -6.95 -27.45 -10.75 -16.75 -18.15 4.55 -32.9 17.9 -50.85 16.95 -46.35 14.3 -39.35" fill="#0b5081" fill-rule="evenodd" stroke="none" />
      <path d="M29.65 -52.8 Q32.45 -46.7 38.9 -35.05 49.85 -15.6 62.15 -1.4 67.05 4.25 74.2 10.4 79.4 14.8 87.5 20.85 L101.3 30.7 103.55 32.2 Q104.75 33.0 105.65 33.3 100.55 31.75 92.9 28.45 77.3 21.75 64.2 12.7 22.35 -16.4 21.35 -58.35 L29.65 -52.8" fill="#0b5081" fill-rule="evenodd" stroke="none" />
      <path d="M63.35 24.85 Q90.25 27.8 107.2 38.3 L113.35 51.25 Q110.55 49.55 104.35 47.25 91.95 42.7 74.9 39.9 20.45 30.9 -59.75 42.45 -47.45 38.0 -28.9 33.45 8.3 24.4 39.9 23.95 L46.6 23.85 63.35 24.85" fill="#0b5081" fill-rule="evenodd" stroke="none" />
      <path d="M-91.6 77.6 Q-88.95 78.7 -88.05 79.55 -86.8 80.8 -86.8 82.55 -86.8 84.95 -88.9 86.15 L-91.05 86.85 -92.95 87.05 -95.8 86.7 -96.25 86.7 -96.65 87.0 -97.1 87.15 -97.4 87.05 -97.55 86.2 -97.9 82.55 -97.8 82.35 -97.35 82.25 -97.05 82.5 -96.4 83.9 -94.65 85.45 Q-93.55 86.1 -92.55 86.1 -91.2 86.1 -90.35 85.3 -89.45 84.45 -89.45 83.15 -89.45 81.9 -90.55 81.15 -91.45 80.6 -93.0 79.95 -95.55 78.85 -96.55 77.7 -97.4 76.7 -97.4 75.2 -97.4 73.05 -95.4 71.95 -94.15 71.2 -91.85 71.2 L-89.75 71.3 -89.05 71.4 Q-88.7 71.45 -88.45 70.95 L-87.75 70.95 Q-87.85 72.75 -87.55 74.7 -87.5 74.95 -87.6 75.05 L-88.15 75.4 -88.35 75.2 Q-88.9 73.6 -89.7 72.95 -90.7 72.1 -92.35 72.1 -93.4 72.1 -94.1 72.8 -94.75 73.5 -94.75 74.45 -94.75 75.45 -94.15 76.1 -93.3 76.95 -91.6 77.6" fill="#0b5081" fill-rule="evenodd" stroke="none" />
      <path d="M-77.0 80.25 L-75.8 80.45 -74.2 80.1 Q-73.15 79.75 -72.6 78.65 -72.05 77.65 -72.05 76.25 L-72.05 76.2 Q-72.05 75.0 -72.55 74.0 -73.5 72.35 -75.7 72.35 L-76.9 72.6 -77.15 73.2 -77.25 79.75 -77.0 80.25 M-80.0 72.7 L-80.3 72.4 -81.55 72.3 -81.75 72.05 -81.55 71.45 -75.25 71.5 Q-72.6 71.5 -70.75 72.85 -69.9 73.5 -69.4 74.6 -69.1 75.4 -69.1 76.1 -69.1 77.85 -70.65 79.5 -71.6 80.4 -73.2 80.9 L-76.1 81.3 -77.1 81.3 -77.3 81.75 -77.2 84.3 -77.0 85.1 -76.35 85.55 -74.85 85.85 -74.65 86.0 -74.75 86.7 -78.3 86.6 -81.4 86.7 -81.6 86.55 -81.65 85.9 -80.35 85.6 Q-80.0 85.4 -79.9 84.75 -79.75 83.4 -79.75 81.25 L-79.75 77.35 Q-79.75 73.4 -80.0 72.7" fill="#0b5081" fill-rule="evenodd" stroke="none" />
      <path d="M-59.6 73.35 L-59.55 78.1 -59.35 78.55 -55.9 78.5 -54.6 78.15 -54.0 76.95 -53.65 76.8 -53.15 76.8 -53.35 79.4 -53.2 81.5 -53.7 81.6 -54.05 81.45 -54.4 80.45 Q-54.6 79.65 -55.75 79.6 L-59.2 79.6 -59.45 79.8 -59.6 82.9 Q-59.6 84.9 -59.4 85.15 -59.05 85.65 -56.65 85.65 L-53.8 85.2 Q-52.65 84.55 -52.1 82.75 L-51.4 82.75 -51.4 82.95 -51.65 84.95 Q-51.85 86.0 -52.15 86.5 L-52.4 86.7 -57.7 86.6 -63.75 86.75 -63.85 86.5 -63.85 86.1 -63.7 85.95 -62.65 85.65 -62.4 85.2 -62.2 81.1 -62.2 76.2 Q-62.2 73.3 -62.4 73.0 -62.4 72.6 -62.65 72.6 L-64.0 72.25 -64.05 72.15 -64.0 71.6 Q-64.0 71.5 -63.85 71.5 L-57.65 71.55 -53.05 71.4 -52.45 71.55 -52.35 72.15 -52.6 75.2 -53.4 75.0 Q-53.85 73.5 -54.25 73.05 -54.7 72.45 -55.7 72.45 L-56.85 72.45 -59.2 72.55 Q-59.6 72.6 -59.6 73.35" fill="#0b5081" fill-rule="evenodd" stroke="none" />
      <path d="M-34.2 75.35 Q-34.2 77.4 -36.6 78.75 -36.85 78.9 -36.75 79.2 -36.4 80.7 -35.2 82.55 -33.5 85.25 -31.25 86.25 -31.0 86.4 -31.05 86.8 L-31.3 87.15 Q-34.6 86.9 -36.55 84.95 -37.65 83.85 -38.8 81.3 L-39.5 80.35 Q-39.9 80.05 -40.75 80.05 L-41.75 80.1 Q-41.95 80.1 -41.95 80.5 L-41.85 84.75 -41.65 85.35 -39.85 85.8 -39.85 86.2 -39.95 86.55 -40.3 86.6 -43.95 86.6 -45.7 86.7 -46.05 86.6 -46.15 85.85 Q-45.05 85.6 -44.85 85.35 -44.5 84.9 -44.5 80.45 L-44.6 73.65 Q-44.65 73.05 -44.85 72.9 -45.05 72.7 -46.15 72.4 L-46.3 71.75 -46.1 71.55 -42.9 71.5 -40.15 71.4 Q-37.45 71.4 -35.85 72.45 -35.1 72.95 -34.65 73.8 -34.2 74.55 -34.2 75.35 M-38.1 73.2 Q-38.95 72.25 -40.15 72.25 L-41.4 72.45 -41.8 72.9 -41.95 76.7 -41.95 78.75 -41.8 79.1 -40.85 79.15 Q-38.85 79.15 -38.0 78.1 -37.2 77.05 -37.2 75.6 -37.2 74.15 -38.1 73.2" fill="#0b5081" fill-rule="evenodd" stroke="none" />
      <path d="M-15.4 73.8 Q-14.95 74.55 -14.95 75.35 -14.95 77.4 -17.35 78.75 L-17.5 79.2 Q-17.25 80.45 -15.95 82.55 -14.25 85.25 -12.0 86.25 -11.7 86.4 -11.8 86.8 -11.8 87.15 -12.1 87.15 -15.35 86.9 -17.3 84.95 -18.3 83.95 -19.6 81.3 L-20.25 80.35 -21.55 80.05 -22.5 80.1 -22.7 80.5 -22.6 84.75 -22.45 85.35 -20.6 85.8 -20.6 86.2 -20.7 86.55 -21.1 86.6 -24.7 86.6 -26.45 86.7 -26.8 86.6 -26.95 85.85 Q-25.75 85.6 -25.6 85.35 -25.3 84.9 -25.3 80.45 L-25.35 73.65 Q-25.4 73.05 -25.6 72.9 -25.8 72.7 -26.95 72.4 L-27.05 71.75 -26.85 71.55 -23.65 71.5 -20.95 71.4 Q-18.25 71.4 -16.6 72.45 -15.85 72.95 -15.4 73.8 M-17.95 75.6 Q-17.95 74.15 -18.85 73.2 -19.75 72.25 -20.95 72.25 L-22.15 72.45 Q-22.45 72.6 -22.55 72.9 L-22.7 76.7 -22.7 78.75 -22.55 79.1 -21.6 79.15 Q-19.6 79.15 -18.75 78.1 -17.95 77.05 -17.95 75.6" fill="#0b5081" fill-rule="evenodd" stroke="none" />
      <path d="M-0.05 71.55 L4.65 71.5 5.0 71.6 5.0 72.35 Q4.1 72.45 3.65 72.7 L2.7 73.65 Q0.75 76.05 -0.9 78.65 L-1.3 79.35 -1.4 80.2 -1.4 82.0 -1.3 84.6 -0.85 85.55 1.1 85.95 0.95 86.65 0.55 86.7 -3.2 86.6 -5.9 86.7 -6.15 86.6 -6.25 86.0 -6.15 85.9 Q-4.6 85.75 -4.35 85.35 -4.05 85.0 -4.05 82.7 L-4.05 80.1 Q-4.05 79.4 -4.45 78.75 -8.05 73.0 -8.5 72.6 L-9.6 72.45 -9.8 72.3 -9.8 71.7 -9.65 71.5 -6.75 71.55 -4.95 71.5 -4.1 71.4 -3.95 71.6 -3.95 71.65 Q-3.95 72.25 -4.1 72.3 L-4.95 72.45 Q-5.35 72.6 -5.1 73.0 L-2.35 77.35 -1.95 77.85 -1.5 77.8 0.9 74.0 1.4 72.85 Q1.4 72.6 -0.1 72.4 L-0.15 71.85 -0.05 71.55" fill="#0b5081" fill-rule="evenodd" stroke="none" />
      <path d="M29.5 70.55 L30.05 70.7 30.1 71.05 Q29.65 72.3 29.5 74.5 L29.25 74.7 28.8 74.65 28.65 74.45 28.7 73.2 28.35 72.75 25.25 72.55 24.2 72.55 Q23.8 72.55 23.75 73.05 L23.75 80.0 Q23.75 83.1 23.9 84.6 24.1 85.35 24.5 85.5 L26.45 85.9 26.55 86.05 26.45 86.55 Q26.45 86.7 26.15 86.7 L22.6 86.6 18.85 86.7 18.6 86.55 18.5 85.95 19.85 85.7 Q20.7 85.6 20.8 84.85 L21.05 79.8 21.05 77.4 20.95 72.55 19.65 72.55 Q16.8 72.55 15.95 73.05 15.65 73.25 15.15 74.75 L14.9 74.75 14.3 74.25 15.7 70.5 16.2 70.5 16.4 70.7 16.7 71.4 17.75 71.55 22.2 71.55 27.65 71.4 28.75 71.3 29.3 70.65 29.5 70.55" fill="#0b5081" fill-rule="evenodd" stroke="none" />
      <path d="M44.8 73.05 Q44.3 72.45 43.35 72.45 L42.2 72.45 39.9 72.55 Q39.45 72.6 39.45 73.35 L39.5 78.1 Q39.5 78.55 39.75 78.55 L43.15 78.5 44.45 78.15 45.05 76.95 45.4 76.8 45.95 76.8 45.75 79.4 45.85 81.5 45.35 81.6 45.0 81.45 44.7 80.45 Q44.45 79.65 43.3 79.6 L39.9 79.6 Q39.65 79.65 39.65 79.8 39.45 80.1 39.45 82.9 39.45 84.9 39.65 85.15 40.0 85.65 42.35 85.65 L45.25 85.2 Q46.4 84.55 47.0 82.75 L47.6 82.75 47.7 82.95 47.45 84.95 46.9 86.5 46.65 86.7 41.3 86.6 35.3 86.75 35.2 86.5 Q35.15 86.25 35.25 86.1 L35.3 85.95 36.4 85.65 36.65 85.2 36.8 81.1 36.8 76.2 36.65 73.0 Q36.6 72.6 36.35 72.6 L35.05 72.25 35.0 72.15 35.05 71.6 35.15 71.5 41.4 71.55 46.05 71.4 46.6 71.55 46.7 72.15 Q46.45 73.35 46.45 75.2 L45.65 75.0 44.8 73.05" fill="#0b5081" fill-rule="evenodd" stroke="none" />
      <path d="M55.9 78.95 Q55.9 84.0 56.15 84.95 56.35 85.6 58.05 85.9 L58.2 86.55 58.15 86.65 58.0 86.7 55.05 86.6 53.15 86.7 52.9 85.95 Q53.95 85.7 54.25 85.45 54.5 85.2 54.55 84.6 L54.8 79.4 54.8 76.8 54.75 74.0 54.45 73.1 Q53.9 72.45 52.85 72.3 52.55 72.25 52.55 72.05 L52.55 71.45 56.3 71.55 56.75 71.65 56.95 72.0 57.55 72.95 58.4 73.9 66.95 82.2 67.05 78.5 66.9 73.7 Q66.8 72.75 66.35 72.6 L65.0 72.4 64.85 72.15 64.8 71.55 67.45 71.55 69.95 71.4 Q70.25 71.4 70.25 71.55 L70.4 72.1 69.0 72.6 Q68.6 72.85 68.45 73.65 L68.2 76.6 68.1 82.7 68.15 86.4 Q68.15 86.75 67.45 87.15 L67.1 87.0 Q65.65 84.8 61.6 80.7 L56.05 75.15 55.9 78.95" fill="#0b5081" fill-rule="evenodd" stroke="none" />
      <path d="M89.55 70.55 L90.15 70.7 90.15 71.05 Q89.75 72.3 89.6 74.5 L89.3 74.7 88.85 74.65 88.7 74.45 88.7 73.2 Q88.7 72.9 88.4 72.75 L85.35 72.55 84.25 72.55 Q83.85 72.55 83.85 73.05 L83.8 80.0 Q83.8 83.85 83.95 84.6 84.1 85.35 84.55 85.5 L86.45 85.9 86.6 86.05 86.5 86.55 86.2 86.7 82.7 86.6 78.95 86.7 Q78.7 86.7 78.65 86.55 L78.5 85.95 79.9 85.7 Q80.75 85.6 80.9 84.85 L81.1 79.8 81.1 77.4 81.05 72.55 79.7 72.55 Q76.95 72.55 75.95 73.05 L75.2 74.75 74.9 74.75 74.4 74.25 75.8 70.5 76.25 70.5 76.45 70.7 Q76.55 71.35 76.75 71.4 L77.8 71.55 82.25 71.55 87.7 71.4 88.85 71.3 89.4 70.65 89.55 70.55" fill="#0b5081" fill-rule="evenodd" stroke="none" />
      <path d="M103.05 72.95 Q102.05 72.1 100.4 72.1 99.35 72.1 98.65 72.8 98.0 73.5 98.0 74.45 98.0 75.45 98.6 76.1 99.45 76.95 101.15 77.6 103.85 78.75 104.65 79.55 105.95 80.75 105.95 82.55 105.95 84.95 103.85 86.15 L101.7 86.85 99.8 87.05 96.95 86.7 96.5 86.7 96.05 87.0 95.65 87.15 95.35 87.05 Q95.2 86.9 95.2 86.2 L94.85 82.55 Q94.8 82.35 94.9 82.35 L95.4 82.25 95.7 82.5 96.35 83.9 98.05 85.45 Q99.2 86.1 100.2 86.1 101.55 86.1 102.4 85.3 103.3 84.45 103.3 83.15 103.3 81.9 102.2 81.15 101.3 80.6 99.75 79.95 97.1 78.85 96.2 77.7 95.3 76.65 95.3 75.2 95.3 73.05 97.35 71.95 98.6 71.2 100.9 71.2 L102.95 71.3 103.7 71.4 Q104.0 71.45 104.3 70.95 L105.0 70.95 Q104.9 72.95 105.2 74.7 L105.15 75.05 104.6 75.4 104.4 75.2 Q103.8 73.5 103.05 72.95" fill="#0b5081" fill-rule="evenodd" stroke="none" />
    </g>
  </defs>
</svg>