<?xml version="1.0" encoding="UTF-8" standalone="no"?>
<svg xmlns:xlink="http://www.w3.org/1999/xlink" height="20.0px" width="20.0px" xmlns="http://www.w3.org/2000/svg">
  <defs>
    <g id="shape0" transform="matrix(1.0, 0.0, 0.0, 1.0, -0.15, -0.15)">
      <path d="M11.3 15.75 L9.05 15.75 9.05 7.4 Q7.85 8.5 6.15 9.05 L6.15 7.0 8.05 6.0 Q9.1 5.15 9.5 4.1 L11.3 4.1 11.3 15.75" fill="#000000" fill-rule="evenodd" stroke="none"/>
      <path d="M16.25 3.75 Q18.85 6.35 18.85 10.0 18.85 13.65 16.25 16.25 13.65 18.85 10.0 18.85 6.35 18.85 3.75 16.25 1.15 13.65 1.15 10.0 1.15 6.35 3.75 3.75 6.35 1.15 10.0 1.15 13.65 1.15 16.25 3.75 Z" fill="none" stroke="#000000" stroke-linecap="round" stroke-linejoin="round" stroke-width="2.0"/>
    </g>
  </defs>
  <g transform="matrix(1.0, 0.0, 0.0, 1.0, 0.0, 0.0)">
    <use height="19.7" transform="matrix(1.0, 0.0, 0.0, 1.0, 0.15, 0.15)" width="19.7" xlink:href="#shape0"/>
  </g>
</svg>
