<?xml version="1.0" encoding="UTF-8" standalone="no"?>
<svg xmlns:xlink="http://www.w3.org/1999/xlink" height="20.0px" width="20.0px" xmlns="http://www.w3.org/2000/svg">
  <defs>
    <g id="shape0" transform="matrix(1.0, 0.0, 0.0, 1.0, -0.15, -0.15)">
      <path d="M11.3 6.1 Q10.9 5.7 10.15 5.7 9.5 5.7 9.1 6.15 8.65 6.55 8.6 7.5 L6.4 7.35 Q6.55 5.5 7.6 4.65 8.7 3.85 10.2 3.85 11.95 3.85 12.9 4.8 13.9 5.7 13.9 7.1 L13.65 8.6 12.75 10.05 11.3 11.55 9.95 12.8 9.5 13.45 13.9 13.45 13.9 15.5 6.1 15.5 Q6.25 14.35 6.9 13.3 7.5 12.25 9.35 10.5 L11.2 8.65 11.7 7.25 Q11.7 6.5 11.3 6.1" fill="#000000" fill-rule="evenodd" stroke="none"/>
      <path d="M16.25 3.75 Q18.85 6.35 18.85 10.0 18.85 13.65 16.25 16.25 13.65 18.85 10.0 18.85 6.35 18.85 3.75 16.25 1.15 13.65 1.15 10.0 1.15 6.35 3.75 3.75 6.35 1.15 10.0 1.15 13.65 1.15 16.25 3.75 Z" fill="none" stroke="#000000" stroke-linecap="round" stroke-linejoin="round" stroke-width="2.0"/>
    </g>
  </defs>
  <g transform="matrix(1.0, 0.0, 0.0, 1.0, 0.0, 0.0)">
    <use height="19.7" transform="matrix(1.0, 0.0, 0.0, 1.0, 0.15, 0.15)" width="19.7" xlink:href="#shape0"/>
  </g>
</svg>
