<?xml version="1.0" encoding="UTF-8" standalone="no"?>
<svg xmlns:xlink="http://www.w3.org/1999/xlink" height="100%" width="100%" xmlns="http://www.w3.org/2000/svg" preserveAspectRatio="none" viewBox="0 0 100 100">
  <defs>
    <g id="sprite0" transform="matrix(1.0, 0.0, 0.0, 1.0, 97.2, 48.6)">
      <use height="97.2" transform="matrix(1.0, 0.0, 0.0, 1.0, -97.2, -48.6)" width="194.4" xlink:href="#shape0" />
    </g>
    <g id="shape0" transform="matrix(1.0, 0.0, 0.0, 1.0, 97.2, 48.6)">
      <path d="M89.55 -10.8 Q82.2 6.65 68.75 20.1 55.3 33.6 37.85 40.95 19.8 48.6 0.0 48.6 -19.75 48.6 -37.8 40.95 -55.25 33.6 -68.7 20.1 -82.2 6.65 -89.55 -10.8 -97.2 -28.85 -97.2 -48.6 L97.2 -48.6 Q97.2 -28.85 89.55 -10.8" fill="#ffffff" fill-rule="evenodd" stroke="none" class="fill" />
    </g>
    <g id="sprite1" transform="matrix(1.0, 0.0, 0.0, 1.0, 98.7, 50.1)">
      <use height="100.2" transform="matrix(1.0, 0.0, 0.0, 1.0, -98.7, -50.1)" width="197.4" xlink:href="#shape1" />
    </g>
    <g id="shape1" transform="matrix(1.0, 0.0, 0.0, 1.0, 98.7, 50.1)">
      <path d="M-44.8 17.25 L-45.2 17.9 -45.95 18.05 -47.2 17.7 -47.75 17.15 Q-47.95 16.75 -47.75 16.4 L-47.25 15.85 Q-46.85 15.65 -46.45 15.85 L-45.6 16.1 Q-45.2 16.15 -44.95 16.5 -44.75 16.8 -44.8 17.25 M-50.2 12.0 Q-49.8 11.9 -49.45 12.15 -49.15 12.35 -49.05 12.8 L-48.8 13.65 Q-48.65 14.0 -48.8 14.4 L-49.35 14.95 -50.15 14.95 -50.65 14.4 -51.0 13.15 Q-51.1 12.7 -50.85 12.4 -50.65 12.05 -50.2 12.0 M-46.3 7.6 L-46.85 8.2 -47.45 8.55 -47.8 8.75 -47.95 8.95 -48.4 9.55 -49.0 10.0 -49.75 9.85 -50.2 9.25 -50.1 8.5 -49.35 7.55 -48.95 7.3 -48.75 7.05 Q-48.25 6.6 -47.65 6.35 -47.3 6.15 -46.9 6.35 L-46.3 6.85 Q-46.15 7.2 -46.3 7.6 M-43.6 6.1 L-42.8 6.05 Q-42.25 6.25 -41.75 6.55 -41.4 6.75 -41.3 7.2 L-41.45 7.95 -42.05 8.4 -42.8 8.25 Q-43.15 8.05 -43.45 7.95 L-44.05 7.45 -44.1 6.7 -43.6 6.1 M-40.1 9.9 L-39.35 10.0 Q-39.0 10.2 -38.9 10.65 L-38.8 11.8 Q-38.8 12.2 -39.1 12.5 -39.4 12.8 -39.8 12.8 L-40.5 12.5 -40.8 11.8 -40.85 11.1 -40.75 10.35 Q-40.55 9.95 -40.1 9.9 M-40.5 14.75 Q-40.2 15.05 -40.2 15.45 -40.2 15.85 -40.5 16.15 L-40.55 16.2 -40.6 16.25 -41.35 17.0 -42.1 17.15 -42.75 16.75 -42.9 16.0 Q-42.85 15.55 -42.5 15.35 L-42.05 14.9 -42.0 14.85 -41.9 14.75 Q-41.6 14.45 -41.2 14.45 -40.8 14.45 -40.5 14.75 M-42.35 -24.85 Q-42.75 -24.95 -42.95 -25.3 -43.2 -25.65 -43.1 -26.05 L-42.7 -26.65 -42.0 -27.25 -41.3 -27.55 Q-40.9 -27.55 -40.6 -27.25 -40.3 -26.95 -40.3 -26.55 -40.3 -26.15 -40.6 -25.85 L-41.6 -25.0 -42.35 -24.85 M-46.65 -26.4 L-45.85 -26.1 Q-45.45 -26.05 -45.2 -25.7 -45.0 -25.4 -45.05 -24.95 L-45.45 -24.3 -46.2 -24.15 -47.55 -24.6 -48.05 -25.15 Q-48.2 -25.55 -48.0 -25.95 L-47.4 -26.45 -46.65 -26.4 M-46.4 -35.25 Q-46.25 -34.9 -46.4 -34.5 L-46.95 -33.9 -47.45 -33.6 -47.8 -33.35 -47.95 -33.2 -48.4 -32.6 Q-48.6 -32.25 -49.0 -32.15 L-49.75 -32.3 -50.2 -32.9 -50.1 -33.65 -49.35 -34.6 -48.95 -34.85 -48.85 -35.0 -47.75 -35.75 Q-47.4 -35.95 -47.0 -35.75 L-46.4 -35.25 M-40.85 -31.05 L-40.75 -31.8 Q-40.55 -32.2 -40.1 -32.25 L-39.35 -32.15 -38.9 -31.5 -38.8 -30.35 Q-38.8 -29.95 -39.1 -29.65 -39.4 -29.35 -39.8 -29.35 -40.2 -29.35 -40.5 -29.65 L-40.8 -30.35 -40.85 -31.05 M-42.8 -36.05 L-41.75 -35.55 -41.3 -34.9 Q-41.25 -34.5 -41.45 -34.15 L-42.05 -33.7 -42.8 -33.85 -43.45 -34.15 -44.05 -34.65 Q-44.25 -35.05 -44.1 -35.4 L-43.6 -36.0 -42.8 -36.05 M-51.0 -29.05 Q-51.1 -29.5 -50.85 -29.8 L-50.2 -30.2 -49.45 -30.05 -49.05 -29.4 -48.8 -28.55 Q-48.65 -28.2 -48.8 -27.8 -49.0 -27.4 -49.35 -27.25 -49.75 -27.1 -50.15 -27.25 -50.55 -27.45 -50.65 -27.8 L-51.0 -29.05 M37.65 12.1 Q37.65 11.7 37.95 11.4 38.25 11.1 38.65 11.1 39.05 11.1 39.35 11.4 L39.65 12.1 39.75 12.9 39.6 13.65 38.95 14.1 38.2 13.95 Q37.85 13.7 37.8 13.3 L37.65 12.1 M42.5 15.85 L43.05 16.35 43.1 17.15 42.6 17.7 41.85 17.75 40.8 17.3 40.3 16.7 Q40.2 16.3 40.4 15.95 L41.0 15.45 41.75 15.55 42.5 15.85 M48.75 14.0 Q49.1 14.25 49.15 14.65 L48.95 15.4 48.2 16.25 48.0 16.45 47.65 16.8 46.7 17.45 45.95 17.5 45.35 17.05 Q45.15 16.65 45.25 16.3 45.35 15.9 45.75 15.7 L46.45 15.2 46.6 15.1 46.8 14.85 47.35 14.2 Q47.6 13.85 48.0 13.8 48.4 13.75 48.75 14.0 M48.3 9.05 Q48.65 8.85 49.05 9.05 L49.6 9.6 49.95 10.75 49.8 11.5 49.15 11.95 48.4 11.8 Q48.05 11.55 48.0 11.15 L47.75 10.35 Q47.55 9.95 47.75 9.55 47.9 9.15 48.3 9.05 M41.45 8.55 L40.95 8.9 40.4 9.4 39.6 9.35 39.1 8.8 Q38.95 8.4 39.15 8.0 39.25 7.75 39.5 7.55 L40.3 6.9 Q40.6 6.65 41.05 6.75 41.4 6.8 41.65 7.15 L41.85 7.9 41.45 8.55 M44.25 5.95 Q44.6 5.7 45.0 5.8 L46.2 6.15 46.75 6.65 46.75 7.45 46.2 8.0 45.45 8.0 44.6 7.75 44.0 7.3 Q43.75 6.95 43.85 6.55 43.9 6.15 44.25 5.95 M88.2 -11.35 Q95.4 -28.45 95.7 -47.1 L-95.7 -47.1 Q-95.4 -28.45 -88.15 -11.35 -80.95 5.8 -67.65 19.05 L-67.6 19.05 Q-54.4 32.35 -37.2 39.6 -19.45 47.1 0.0 47.1 19.5 47.1 37.3 39.6 54.45 32.35 67.7 19.05 80.95 5.8 88.2 -11.35 M97.2 -50.1 Q97.8 -50.1 98.25 -49.65 L98.7 -48.6 Q98.7 -28.55 90.95 -10.2 83.45 7.5 69.8 21.15 L69.85 21.15 Q56.15 34.85 38.45 42.35 20.1 50.1 0.0 50.1 -20.05 50.1 -38.35 42.35 -56.1 34.85 -69.75 21.2 L-69.75 21.15 Q-83.45 7.5 -90.9 -10.2 -98.7 -28.55 -98.7 -48.6 L-98.25 -49.65 Q-97.8 -50.1 -97.2 -50.1 L97.2 -50.1 M44.9 -25.75 L45.4 -26.3 46.15 -26.7 46.9 -26.8 47.5 -26.35 47.65 -25.6 47.2 -25.0 46.2 -24.45 Q45.85 -24.3 45.45 -24.45 45.05 -24.6 44.9 -25.0 44.7 -25.35 44.9 -25.75 M43.4 -35.55 Q43.55 -35.2 43.35 -34.8 L42.8 -34.3 42.05 -33.95 41.3 -33.9 40.7 -34.35 Q40.5 -34.75 40.6 -35.1 L41.1 -35.7 42.15 -36.2 42.9 -36.15 43.4 -35.55 M49.05 -31.45 Q49.45 -31.45 49.75 -31.15 L50.05 -30.45 50.05 -30.25 50.0 -29.25 49.65 -28.55 48.9 -28.35 Q48.5 -28.4 48.25 -28.7 47.95 -29.05 48.0 -29.45 L48.05 -30.25 48.05 -30.45 48.35 -31.15 49.05 -31.45 M47.05 -35.5 L47.9 -34.85 48.25 -34.15 Q48.3 -33.75 48.0 -33.45 47.75 -33.15 47.35 -33.1 46.9 -33.05 46.6 -33.35 L46.0 -33.8 Q45.6 -34.0 45.55 -34.4 45.45 -34.85 45.65 -35.15 L46.3 -35.6 47.05 -35.5 M39.9 -25.8 Q39.85 -26.2 40.1 -26.55 40.35 -26.9 40.75 -26.95 L41.5 -26.75 42.15 -26.35 42.7 -25.8 42.7 -25.05 42.1 -24.5 Q41.7 -24.35 41.35 -24.5 L40.3 -25.15 Q39.95 -25.4 39.9 -25.8 M37.9 -32.0 Q38.0 -32.4 38.4 -32.6 L39.15 -32.7 39.75 -32.2 39.8 -31.45 39.65 -30.55 39.65 -30.45 39.65 -30.25 39.75 -29.45 39.6 -28.7 38.95 -28.25 38.2 -28.4 Q37.85 -28.65 37.8 -29.05 L37.65 -30.25 37.7 -30.4 37.65 -30.7 Q37.7 -31.45 37.9 -32.0" fill="#000000" fill-rule="evenodd" stroke="none" />
    </g>
  </defs>
  <g transform="matrix(1.0, 0.0, 0.0, 1.0, 0.0, 0.0)">
    <use height="97.2" id="fill" transform="matrix(0.5066, 0.0, 0.0, 0.998, 0.7593, 1.4971)" width="194.4" xlink:href="#sprite0" />
    <use height="100.2" transform="matrix(0.5066, 0.0, 0.0, 0.998, -0.0006, 0.0001)" width="197.4" xlink:href="#sprite1" />
  </g>
</svg>