<?xml version="1.0" encoding="UTF-8" standalone="no"?>
<svg xmlns:xlink="http://www.w3.org/1999/xlink" height="100%" width="100%" xmlns="http://www.w3.org/2000/svg" preserveAspectRatio="none" viewBox="0 0 100 100">
  <defs>
    <g id="sprite0" transform="matrix(1.0, 0.0, 0.0, 1.0, 75.55, 75.55)">
      <use height="151.15" transform="matrix(1.0, 0.0, 0.0, 1.0, -75.55, -75.55)" width="151.15" xlink:href="#shape0" />
    </g>
    <g id="shape0" transform="matrix(1.0, 0.0, 0.0, 1.0, 75.55, 75.55)">
      <path d="M28.45 -70.05 Q42.6 -64.3 53.45 -53.45 64.35 -42.55 70.05 -28.45 75.6 -14.8 75.6 0.0 75.6 14.8 70.05 28.45 64.35 42.6 53.45 53.45 42.6 64.35 28.45 70.05 14.8 75.6 0.0 75.6 -14.75 75.6 -28.45 70.05 -42.55 64.35 -53.45 53.45 -64.3 42.6 -70.05 28.45 -75.55 14.8 -75.55 0.0 -75.55 -14.8 -70.05 -28.45 -64.3 -42.55 -53.45 -53.45 -42.55 -64.3 -28.45 -70.05 -14.75 -75.55 0.0 -75.55 14.8 -75.55 28.45 -70.05" fill="#ffffff" fill-rule="evenodd" stroke="none" class="fill" />
    </g>
    <g id="sprite1" transform="matrix(1.0, 0.0, 0.0, 1.0, 77.1, 77.1)">
      <use height="154.2" transform="matrix(1.0, 0.0, 0.0, 1.0, -77.1, -77.1)" width="154.2" xlink:href="#shape1" />
    </g>
    <g id="shape1" transform="matrix(1.0, 0.0, 0.0, 1.0, 77.1, 77.1)">
      <path d="M0.0 -77.1 Q31.85 -77.1 54.55 -54.5 65.45 -43.6 71.3 -29.5 77.1 -15.45 77.1 0.0 77.1 31.95 54.55 54.55 31.9 77.1 0.0 77.1 -15.45 77.1 -29.5 71.3 -43.6 65.45 -54.5 54.55 -77.1 31.85 -77.1 0.0 -77.1 -15.45 -71.25 -29.5 -65.4 -43.6 -54.5 -54.5 -31.9 -77.1 0.0 -77.1 M52.4 -52.4 Q30.7 -74.1 0.0 -74.1 -30.7 -74.1 -52.4 -52.4 -74.1 -30.7 -74.1 0.0 -74.1 30.7 -52.4 52.4 -30.7 74.1 0.0 74.1 30.7 74.1 52.4 52.4 74.1 30.7 74.1 0.0 74.1 -30.7 52.4 -52.4" fill="#000000" fill-rule="evenodd" stroke="none" class="lines" />
      <path d="M2.65 -54.5 Q2.65 -53.5 1.65 -53.5 0.65 -53.5 0.65 -54.5 0.65 -55.5 1.65 -55.5 2.65 -55.5 2.65 -54.5" fill="#000000" fill-rule="evenodd" stroke="none" class="lines" />
      <path d="M6.35 -52.9 Q6.35 -51.9 5.35 -51.9 4.35 -51.9 4.35 -52.9 4.35 -53.9 5.35 -53.9 6.35 -53.9 6.35 -52.9" fill="#000000" fill-rule="evenodd" stroke="none" class="lines" />
      <path d="M5.7 -49.35 Q5.7 -50.35 6.7 -50.35 7.7 -50.35 7.7 -49.35 7.7 -48.35 6.7 -48.35 5.7 -48.35 5.7 -49.35" fill="#000000" fill-rule="evenodd" stroke="none" class="lines" />
      <path d="M6.15 -45.6 Q6.15 -44.6 5.15 -44.6 4.15 -44.6 4.15 -45.6 4.15 -46.6 5.15 -46.6 6.15 -46.6 6.15 -45.6" fill="#000000" fill-rule="evenodd" stroke="none" class="lines" />
      <path d="M2.45 -44.1 Q2.45 -43.1 1.45 -43.1 0.45 -43.1 0.45 -44.1 0.45 -45.15 1.45 -45.15 2.45 -45.15 2.45 -44.1" fill="#000000" fill-rule="evenodd" stroke="none" class="lines" />
      <path d="M-1.25 -45.75 Q-1.25 -44.7 -2.25 -44.7 -3.25 -44.7 -3.25 -45.75 -3.25 -46.75 -2.25 -46.75 -1.25 -46.75 -1.25 -45.75" fill="#000000" fill-rule="evenodd" stroke="none" class="lines" />
      <path d="M-4.65 -49.45 Q-4.65 -50.45 -3.65 -50.45 -2.65 -50.45 -2.65 -49.45 -2.65 -48.45 -3.65 -48.45 -4.65 -48.45 -4.65 -49.45" fill="#000000" fill-rule="evenodd" stroke="none" class="lines" />
      <path d="M-1.05 -53.15 Q-1.05 -52.1 -2.05 -52.1 -3.05 -52.1 -3.05 -53.15 -3.05 -54.15 -2.05 -54.15 -1.05 -54.15 -1.05 -53.15" fill="#000000" fill-rule="evenodd" stroke="none" class="lines" />
      <path d="M48.65 -6.0 Q48.65 -5.0 47.65 -5.0 46.65 -5.0 46.65 -6.0 46.65 -7.0 47.65 -7.0 48.65 -7.0 48.65 -6.0" fill="#000000" fill-rule="evenodd" stroke="none" class="lines" />
      <path d="M52.35 -4.4 Q52.35 -3.4 51.35 -3.4 50.35 -3.4 50.35 -4.4 50.35 -5.4 51.35 -5.4 52.35 -5.4 52.35 -4.4" fill="#000000" fill-rule="evenodd" stroke="none" class="lines" />
      <path d="M53.7 -0.85 Q53.7 0.15 52.7 0.15 51.7 0.15 51.7 -0.85 51.7 -1.85 52.7 -1.85 53.7 -1.85 53.7 -0.85" fill="#000000" fill-rule="evenodd" stroke="none" class="lines" />
      <path d="M52.15 2.9 Q52.15 3.9 51.15 3.9 50.15 3.9 50.15 2.9 50.15 1.9 51.15 1.9 52.15 1.9 52.15 2.9" fill="#000000" fill-rule="evenodd" stroke="none" class="lines" />
      <path d="M48.45 4.4 Q48.45 5.4 47.45 5.4 46.45 5.4 46.45 4.4 46.45 3.35 47.45 3.35 48.45 3.35 48.45 4.4" fill="#000000" fill-rule="evenodd" stroke="none" class="lines" />
      <path d="M44.75 2.75 Q44.75 3.8 43.75 3.8 42.75 3.8 42.75 2.75 42.75 1.75 43.75 1.75 44.75 1.75 44.75 2.75" fill="#000000" fill-rule="evenodd" stroke="none" class="lines" />
      <path d="M43.35 -0.95 Q43.35 0.05 42.35 0.05 41.35 0.05 41.35 -0.95 41.35 -1.95 42.35 -1.95 43.35 -1.95 43.35 -0.95" fill="#000000" fill-rule="evenodd" stroke="none" class="lines" />
      <path d="M44.95 -4.65 Q44.95 -3.6 43.95 -3.6 42.95 -3.6 42.95 -4.65 42.95 -5.65 43.95 -5.65 44.95 -5.65 44.95 -4.65" fill="#000000" fill-rule="evenodd" stroke="none" class="lines" />
      <path d="M2.15 43.0 Q2.15 44.0 1.15 44.0 0.15 44.0 0.15 43.0 0.15 42.0 1.15 42.0 2.15 42.0 2.15 43.0" fill="#000000" fill-rule="evenodd" stroke="none" class="lines" />
      <path d="M5.85 44.6 Q5.85 45.6 4.85 45.6 3.85 45.6 3.85 44.6 3.85 43.6 4.85 43.6 5.85 43.6 5.85 44.6" fill="#000000" fill-rule="evenodd" stroke="none" class="lines" />
      <path d="M7.2 48.15 Q7.2 49.15 6.2 49.15 5.2 49.15 5.2 48.15 5.2 47.15 6.2 47.15 7.2 47.15 7.2 48.15" fill="#000000" fill-rule="evenodd" stroke="none" class="lines" />
      <path d="M5.65 51.9 Q5.65 52.9 4.65 52.9 3.65 52.9 3.65 51.9 3.65 50.9 4.65 50.9 5.65 50.9 5.65 51.9" fill="#000000" fill-rule="evenodd" stroke="none" class="lines" />
      <path d="M1.95 53.4 Q1.95 54.4 0.95 54.4 -0.05 54.4 -0.05 53.4 -0.05 52.35 0.95 52.35 1.95 52.35 1.95 53.4" fill="#000000" fill-rule="evenodd" stroke="none" class="lines" />
      <path d="M-1.75 51.75 Q-1.75 52.8 -2.75 52.8 -3.75 52.8 -3.75 51.75 -3.75 50.75 -2.75 50.75 -1.75 50.75 -1.75 51.75" fill="#000000" fill-rule="evenodd" stroke="none" class="lines" />
      <path d="M-3.15 48.05 Q-3.15 49.05 -4.15 49.05 -5.15 49.05 -5.15 48.05 -5.15 47.05 -4.15 47.05 -3.15 47.05 -3.15 48.05" fill="#000000" fill-rule="evenodd" stroke="none" class="lines" />
      <path d="M-1.55 44.35 Q-1.55 45.4 -2.55 45.4 -3.55 45.4 -3.55 44.35 -3.55 43.35 -2.55 43.35 -1.55 43.35 -1.55 44.35" fill="#000000" fill-rule="evenodd" stroke="none" class="lines" />
      <path d="M-45.35 -6.5 Q-45.35 -5.5 -46.35 -5.5 -47.35 -5.5 -47.35 -6.5 -47.35 -7.5 -46.35 -7.5 -45.35 -7.5 -45.35 -6.5" fill="#000000" fill-rule="evenodd" stroke="none" class="lines" />
      <path d="M-41.65 -4.9 Q-41.65 -3.9 -42.65 -3.9 -43.65 -3.9 -43.65 -4.9 -43.65 -5.9 -42.65 -5.9 -41.65 -5.9 -41.65 -4.9" fill="#000000" fill-rule="evenodd" stroke="none" class="lines" />
      <path d="M-41.3 -2.35 Q-40.3 -2.35 -40.3 -1.35 -40.3 -0.35 -41.3 -0.35 -42.3 -0.35 -42.3 -1.35 -42.3 -2.35 -41.3 -2.35" fill="#000000" fill-rule="evenodd" stroke="none" class="lines" />
      <path d="M-41.85 2.4 Q-41.85 3.4 -42.85 3.4 -43.85 3.4 -43.85 2.4 -43.85 1.4 -42.85 1.4 -41.85 1.4 -41.85 2.4" fill="#000000" fill-rule="evenodd" stroke="none" class="lines" />
      <path d="M-45.55 3.9 Q-45.55 4.9 -46.55 4.9 -47.55 4.9 -47.55 3.9 -47.55 2.85 -46.55 2.85 -45.55 2.85 -45.55 3.9" fill="#000000" fill-rule="evenodd" stroke="none" class="lines" />
      <path d="M-50.25 1.25 Q-49.25 1.25 -49.25 2.25 -49.25 3.3 -50.25 3.3 -51.25 3.3 -51.25 2.25 -51.25 1.25 -50.25 1.25" fill="#000000" fill-rule="evenodd" stroke="none" class="lines" />
      <path d="M-50.65 -1.45 Q-50.65 -0.45 -51.65 -0.45 -52.65 -0.45 -52.65 -1.45 -52.65 -2.45 -51.65 -2.45 -50.65 -2.45 -50.65 -1.45" fill="#000000" fill-rule="evenodd" stroke="none" class="lines" />
      <path d="M-49.05 -5.15 Q-49.05 -4.1 -50.05 -4.1 -51.05 -4.1 -51.05 -5.15 -51.05 -6.15 -50.05 -6.15 -49.05 -6.15 -49.05 -5.15" fill="#000000" fill-rule="evenodd" stroke="none" class="lines" />
    </g>
  </defs>
  <g transform="matrix(1.0, 0.0, 0.0, 1.0, 0.0, 0.0)">
    <use height="151.15" id="fill" transform="matrix(0.6485, 0.0, 0.0, 0.6485, 1.0048, 1.0048)" width="151.15" xlink:href="#sprite0" />
    <use height="154.2" id="lines" transform="matrix(0.6485, 0.0, 0.0, 0.6485, -0.0004, -0.0004)" width="154.2" xlink:href="#sprite1" />
  </g>
</svg>