<?xml version="1.0" encoding="UTF-8" standalone="no"?>
<svg xmlns:xlink="http://www.w3.org/1999/xlink" height="100%" width="100%" xmlns="http://www.w3.org/2000/svg" preserveAspectRatio="none" viewBox="0 0 100 100">
  <defs>
    <g id="sprite0" transform="matrix(1.0, 0.0, 0.0, 1.0, 87.35, 90.1)">
      <use height="180.2" transform="matrix(1.0, 0.0, 0.0, 1.0, -87.35, -90.1)" width="174.75" xlink:href="#shape0" />
    </g>
    <g id="shape0" transform="matrix(1.0, 0.0, 0.0, 1.0, 87.35, 90.1)">
      <path d="M65.4 -59.5 L65.55 -60.05 65.7 -60.15 65.95 -60.35 67.5 -61.25 Q68.35 -61.75 68.85 -60.9 L87.2 -29.15 Q87.7 -28.3 86.85 -27.8 L85.3 -26.9 84.95 -26.8 84.8 -26.75 84.25 -26.85 Q78.55 -27.95 72.6 -23.6 66.1 -16.85 58.95 -11.8 60.0 -6.1 60.0 0.0 60.0 6.15 58.95 11.85 66.05 16.9 72.6 23.6 78.5 28.0 84.25 26.9 L84.75 26.75 84.95 26.85 85.25 26.95 86.8 27.85 Q87.65 28.35 87.15 29.2 L68.85 60.95 Q68.35 61.8 67.5 61.3 L65.95 60.4 65.65 60.2 65.55 60.05 65.35 59.55 Q63.5 54.05 56.7 51.1 47.55 48.8 39.6 45.1 30.3 53.35 19.2 57.05 18.4 65.7 15.85 74.7 15.0 82.0 18.85 86.4 L19.2 86.8 19.25 87.0 19.3 87.3 19.3 89.1 Q19.3 90.1 18.3 90.1 L-18.35 90.1 Q-19.35 90.1 -19.35 89.1 L-19.35 87.3 -19.3 87.0 -19.25 86.8 -18.9 86.4 Q-15.05 82.0 -15.9 74.7 -18.45 65.7 -19.2 57.05 -30.35 53.35 -39.6 45.1 -47.6 48.75 -56.7 51.1 -63.5 54.0 -65.35 59.5 L-65.55 60.05 -65.65 60.15 -65.95 60.35 -67.5 61.25 Q-68.35 61.75 -68.85 60.9 L-87.15 29.15 Q-87.65 28.3 -86.8 27.8 L-85.25 26.9 -84.95 26.8 -84.75 26.75 -84.25 26.85 Q-78.5 27.95 -72.6 23.6 -66.05 16.85 -58.9 11.8 -60.0 6.1 -60.0 0.0 -60.0 -6.15 -58.9 -11.85 -66.05 -16.9 -72.55 -23.6 -78.5 -28.0 -84.2 -26.9 L-84.75 -26.75 -84.9 -26.85 -85.25 -26.95 -86.8 -27.85 Q-87.65 -28.35 -87.15 -29.2 L-68.8 -60.95 Q-68.3 -61.8 -67.45 -61.3 L-65.9 -60.4 -65.65 -60.2 -65.5 -60.05 -65.35 -59.55 Q-63.45 -54.05 -56.7 -51.1 -47.55 -48.8 -39.6 -45.1 -30.35 -53.35 -19.15 -57.05 -18.4 -65.7 -15.85 -74.7 -15.0 -82.0 -18.85 -86.4 L-19.2 -86.8 -19.25 -87.0 -19.3 -87.3 -19.3 -89.1 Q-19.3 -90.1 -18.3 -90.1 L18.35 -90.1 Q19.35 -90.1 19.35 -89.1 L19.35 -87.3 19.3 -87.0 19.25 -86.8 18.9 -86.4 Q15.05 -82.0 15.9 -74.7 18.45 -65.7 19.25 -57.0 30.4 -53.35 39.65 -45.05 47.6 -48.75 56.75 -51.1 63.5 -54.0 65.4 -59.5" fill="#ffffff" fill-rule="evenodd" stroke="none" class="fill" />
    </g>
    <g id="sprite1" transform="matrix(1.0, 0.0, 0.0, 1.0, 87.85, 90.6)">
      <use height="181.2" transform="matrix(1.0, 0.0, 0.0, 1.0, -87.85, -90.6)" width="175.75" xlink:href="#shape1" />
    </g>
    <g id="shape1" transform="matrix(1.0, 0.0, 0.0, 1.0, 87.85, 90.6)">
      <path d="M-66.0 59.8 L-65.95 59.75 -65.9 59.6 -66.0 59.25 -84.3 27.5 -84.6 27.25 -84.7 27.25 -84.8 27.25 -84.85 27.3 -85.0 27.35 -86.55 28.25 Q-87.0 28.5 -86.75 28.9 L-68.45 60.65 Q-68.2 61.1 -67.75 60.85 L-66.2 59.95 -66.05 59.9 -66.0 59.8 M-73.65 26.8 Q-74.15 25.95 -74.1 25.2 -78.7 28.0 -83.15 27.55 L-65.4 58.25 Q-63.6 54.15 -58.9 51.55 -59.55 51.2 -60.05 50.35 L-73.65 26.8 M-72.2 23.85 L-72.35 24.0 Q-73.55 25.0 -72.8 26.3 L-59.2 49.85 Q-58.45 51.2 -56.95 50.65 L-56.8 50.6 Q-47.75 48.25 -39.8 44.6 L-42.4 42.15 Q-55.35 29.15 -58.7 12.3 -65.7 17.25 -72.2 23.85 M-60.05 -50.4 L-58.85 -51.6 Q-63.55 -54.15 -65.4 -58.3 L-83.15 -27.55 Q-78.7 -27.95 -74.1 -25.25 -74.1 -26.0 -73.6 -26.85 L-60.05 -50.4 M-56.9 -50.65 L-56.95 -50.65 Q-58.4 -51.2 -59.2 -49.9 L-72.75 -26.35 Q-73.55 -25.0 -72.3 -24.0 L-72.25 -24.0 -72.2 -23.85 Q-65.75 -17.25 -58.65 -12.3 -55.3 -29.15 -42.4 -42.05 L-39.7 -44.55 Q-47.65 -48.25 -56.75 -50.6 L-56.9 -50.65 M-86.75 -28.95 Q-87.0 -28.5 -86.55 -28.25 L-85.0 -27.35 -84.8 -27.3 -84.7 -27.25 -84.65 -27.25 -84.5 -27.25 -84.3 -27.55 -65.95 -59.3 -65.85 -59.6 -65.9 -59.75 -66.0 -59.85 -66.15 -59.95 -67.7 -60.85 Q-68.15 -61.1 -68.4 -60.7 L-86.75 -28.95 M18.65 86.9 L18.3 86.8 -18.35 86.8 -18.7 86.9 -18.75 87.0 -18.8 87.05 -18.8 87.15 -18.85 87.3 -18.85 89.1 Q-18.85 89.6 -18.35 89.6 L18.3 89.6 Q18.8 89.6 18.8 89.1 L18.8 87.3 18.8 87.15 18.75 87.05 18.75 87.0 18.65 86.9 M17.75 85.8 Q15.05 82.15 15.2 76.8 14.55 77.2 13.55 77.2 L-13.6 77.2 Q-14.6 77.2 -15.25 76.8 -15.15 82.15 -17.75 85.8 L17.75 85.8 M18.7 56.9 Q9.9 59.7 0.0 59.7 -9.95 59.7 -18.75 56.9 -18.0 65.5 -15.45 74.45 L-15.4 74.65 Q-15.15 76.2 -13.6 76.2 L13.55 76.2 Q15.1 76.2 15.35 74.65 L15.4 74.5 Q17.95 65.5 18.7 56.9 M74.1 25.25 Q74.15 26.0 73.65 26.85 L60.05 50.4 Q59.55 51.25 58.9 51.6 63.6 54.2 65.45 58.25 L83.2 27.55 Q78.7 28.05 74.1 25.25 M72.35 24.05 L72.2 23.9 Q65.75 17.25 58.7 12.3 55.35 29.15 42.35 42.15 L39.75 44.6 Q47.65 48.3 56.8 50.65 L56.95 50.7 Q58.45 51.2 59.2 49.9 L72.8 26.35 Q73.55 25.0 72.35 24.05 M86.75 28.95 Q87.0 28.5 86.55 28.25 L85.0 27.35 84.85 27.3 84.8 27.3 84.75 27.25 84.6 27.3 84.3 27.55 66.0 59.3 65.9 59.65 66.0 59.75 66.0 59.85 66.05 59.9 66.2 59.95 67.75 60.85 Q68.2 61.1 68.45 60.7 L86.75 28.95 M19.85 -55.35 L18.85 -55.7 Q10.0 -58.65 0.0 -58.65 -10.0 -58.65 -18.8 -55.75 L-19.8 -55.4 Q-29.6 -51.95 -37.9 -44.8 L-38.75 -44.1 -41.7 -41.35 Q-54.55 -28.5 -57.75 -11.65 L-57.95 -10.55 Q-58.85 -5.45 -58.85 0.05 -58.85 5.5 -57.95 10.6 L-57.75 11.65 Q-54.6 28.5 -41.7 41.45 L-38.85 44.15 -37.95 44.9 Q-29.65 52.0 -19.85 55.45 L-18.8 55.8 Q-10.0 58.7 0.0 58.7 10.0 58.7 18.8 55.8 L19.8 55.45 Q29.65 52.0 37.95 44.9 L38.8 44.15 41.65 41.45 Q54.55 28.55 57.8 11.7 L58.0 10.6 Q58.85 5.5 58.85 0.05 58.85 -5.45 58.0 -10.55 L57.8 -11.6 Q54.55 -28.45 41.65 -41.35 L38.8 -44.05 37.95 -44.8 Q29.65 -51.9 19.85 -55.35 M15.25 -76.8 Q15.15 -82.15 17.8 -85.8 L-17.7 -85.8 Q-15.1 -82.15 -15.2 -76.8 -14.55 -77.2 -13.55 -77.2 L13.6 -77.2 Q14.6 -77.2 15.25 -76.8 M15.4 -74.6 L15.4 -74.65 Q15.15 -76.2 13.6 -76.2 L-13.55 -76.2 Q-15.1 -76.2 -15.35 -74.65 L-15.35 -74.6 -15.4 -74.45 Q-17.95 -65.45 -18.7 -56.8 -9.9 -59.65 0.0 -59.65 9.95 -59.65 18.75 -56.8 18.0 -65.45 15.45 -74.45 L15.4 -74.6 M18.85 -89.1 Q18.85 -89.6 18.35 -89.6 L-18.3 -89.6 Q-18.8 -89.6 -18.8 -89.1 L-18.8 -87.3 -18.75 -87.15 -18.75 -87.0 -18.7 -86.95 -18.65 -86.85 -18.3 -86.8 18.35 -86.8 18.7 -86.85 18.8 -86.95 18.8 -87.0 18.85 -87.15 18.85 -87.3 18.85 -89.1 M68.45 -60.65 Q68.2 -61.1 67.75 -60.85 L66.2 -59.95 66.1 -59.8 66.0 -59.75 65.95 -59.65 65.9 -59.55 66.0 -59.25 84.35 -27.5 84.55 -27.2 84.7 -27.15 84.75 -27.2 84.9 -27.25 85.05 -27.35 86.6 -28.25 Q87.05 -28.5 86.8 -28.9 L68.45 -60.65 M58.9 -51.55 L60.1 -50.35 73.65 -26.8 74.15 -25.2 Q78.75 -27.95 83.2 -27.5 L65.45 -58.25 Q63.6 -54.15 58.9 -51.55 M56.95 -50.6 L56.8 -50.55 Q47.65 -48.2 39.75 -44.5 L42.35 -42.05 Q55.3 -29.1 58.7 -12.2 65.75 -17.2 72.25 -23.8 L72.3 -23.95 72.35 -23.95 Q73.6 -25.0 72.8 -26.3 L59.25 -49.85 Q58.45 -51.2 57.0 -50.6 L56.95 -50.6 M56.55 -51.5 L56.6 -51.5 Q63.05 -54.3 64.95 -59.6 L65.15 -60.25 65.2 -60.3 65.4 -60.55 65.7 -60.8 67.25 -61.7 Q68.55 -62.45 69.3 -61.15 L87.65 -29.4 Q88.4 -28.1 87.1 -27.35 L85.55 -26.45 85.15 -26.3 84.9 -26.2 84.8 -26.2 84.15 -26.35 Q78.6 -27.35 72.95 -23.15 L72.9 -23.15 Q66.25 -16.25 58.9 -11.15 59.85 -5.75 59.85 0.05 59.85 5.85 58.9 11.25 66.2 16.35 72.95 23.25 L73.0 23.25 Q78.65 27.45 84.1 26.4 L84.85 26.3 84.9 26.3 85.2 26.4 85.5 26.5 87.05 27.4 Q88.35 28.15 87.6 29.45 L69.3 61.2 Q68.55 62.5 67.25 61.75 L65.7 60.85 65.4 60.65 65.2 60.4 65.15 60.35 Q64.95 60.1 64.9 59.7 63.0 54.4 56.6 51.6 L56.55 51.6 Q47.1 49.2 38.95 45.35 30.15 52.95 19.75 56.55 19.0 65.45 16.35 74.75 L16.35 74.8 Q15.55 81.8 19.2 86.05 L19.65 86.6 19.7 86.65 19.75 86.95 19.8 87.3 19.8 89.1 Q19.8 90.6 18.3 90.6 L-18.35 90.6 Q-19.85 90.6 -19.85 89.1 L-19.85 87.3 -19.8 86.95 -19.7 86.65 -19.7 86.6 -19.2 86.05 Q-15.6 81.75 -16.4 74.8 L-16.4 74.75 Q-19.05 65.45 -19.75 56.55 -30.2 52.95 -38.95 45.35 -47.1 49.2 -56.55 51.55 L-56.6 51.55 Q-63.05 54.35 -64.9 59.7 L-65.15 60.3 -65.2 60.4 -65.4 60.6 -65.7 60.8 -67.25 61.7 Q-68.55 62.45 -69.3 61.15 L-87.6 29.4 Q-88.35 28.1 -87.05 27.35 L-85.5 26.45 -85.2 26.35 -84.9 26.3 -84.85 26.25 -84.1 26.4 Q-78.6 27.4 -73.0 23.2 L-72.95 23.2 Q-66.2 16.25 -58.9 11.2 -59.85 5.8 -59.85 0.05 -59.85 -5.8 -58.85 -11.2 -66.2 -16.3 -72.85 -23.2 L-72.9 -23.2 Q-78.55 -27.4 -84.05 -26.4 L-84.75 -26.25 -84.8 -26.3 -85.1 -26.35 -85.5 -26.5 -87.05 -27.4 Q-88.35 -28.15 -87.6 -29.45 L-69.25 -61.2 Q-68.5 -62.5 -67.2 -61.75 L-65.65 -60.85 -65.35 -60.6 -65.1 -60.4 -65.1 -60.3 -64.85 -59.65 Q-63.0 -54.35 -56.55 -51.55 L-56.5 -51.55 Q-47.05 -49.2 -38.9 -45.3 -30.15 -52.9 -19.7 -56.45 -19.0 -65.45 -16.35 -74.7 L-16.35 -74.75 Q-15.55 -81.75 -19.15 -86.0 L-19.65 -86.55 -19.65 -86.6 -19.75 -86.9 -19.8 -87.3 -19.8 -89.1 Q-19.8 -90.6 -18.3 -90.6 L18.35 -90.6 Q19.85 -90.6 19.85 -89.1 L19.85 -87.3 19.8 -86.9 19.75 -86.6 19.7 -86.55 19.25 -86.0 Q15.6 -81.75 16.4 -74.75 L16.4 -74.7 Q19.05 -65.4 19.8 -56.45 30.15 -52.85 38.9 -45.25 47.1 -49.15 56.55 -51.5" fill="#000000" fill-rule="evenodd" stroke="none" class="line" />
    </g>
  </defs>
  <g transform="matrix(1.0, 0.0, 0.0, 1.0, 0.0, 0.0)">
    <use height="180.2" id="fill" transform="matrix(0.5693, 0.0, 0.0, 0.5519, 0.2738, 0.2756)" width="174.75" xlink:href="#sprite0" />
    <use height="181.2" id="line" transform="matrix(0.5693, 0.0, 0.0, 0.5519, -0.0108, -0.0003)" width="175.75" xlink:href="#sprite1" />
  </g>
</svg>