<?xml version="1.0" encoding="UTF-8" standalone="no"?>
<svg xmlns:xlink="http://www.w3.org/1999/xlink" height="100%" width="100%" xmlns="http://www.w3.org/2000/svg" preserveAspectRatio="none" viewBox="0 0 100 100">
  <defs>
    <g id="sprite0" transform="matrix(1.0, 0.0, 0.0, 1.0, 30.1, 17.0)">
      <use height="34.0" transform="matrix(1.0, 0.0, 0.0, 1.0, -30.1, -17.0)" width="60.2" xlink:href="#shape0" />
    </g>
    <g id="shape0" transform="matrix(1.0, 0.0, 0.0, 1.0, 30.1, 17.0)">
      <path d="M30.1 -9.1 L15.0 17.0 Q8.3 13.0 0.0 13.0 -8.4 13.0 -15.1 17.0 L-30.1 -9.1 Q-16.7 -17.0 0.0 -17.0 16.7 -17.0 30.1 -9.1" fill="#ffffff" fill-rule="evenodd" stroke="none" class="fill" />
    </g>
    <g id="sprite1" transform="matrix(1.0, 0.0, 0.0, 1.0, 30.6, 17.5)">
      <use height="35.0" transform="matrix(1.0, 0.0, 0.0, 1.0, -30.6, -17.5)" width="61.2" xlink:href="#shape1" />
    </g>
    <g id="shape1" transform="matrix(1.0, 0.0, 0.0, 1.0, 30.6, 17.5)">
      <path d="M29.45 -8.9 Q16.3 -16.5 0.0 -16.5 -16.3 -16.5 -29.4 -8.9 L-14.9 16.35 Q-8.25 12.5 0.0 12.5 8.15 12.5 14.85 16.35 L29.45 -8.9 M30.35 -9.5 L30.6 -9.2 30.55 -8.85 15.45 17.25 15.15 17.5 14.75 17.45 Q8.15 13.5 0.0 13.5 -8.25 13.5 -14.85 17.45 L-15.2 17.5 -15.5 17.25 -30.5 -8.85 -30.55 -9.2 -30.35 -9.5 Q-16.85 -17.5 0.0 -17.5 16.85 -17.5 30.35 -9.5" fill="#000000" fill-rule="evenodd" stroke="none" class="line" />
    </g>
  </defs>
  <g transform="matrix(1.0, 0.0, 0.0, 1.0, 0.0, 0.0)">
    <use height="34.0" id="fill" transform="matrix(1.634, 0.0, 0.0, 2.8571, 0.817, 1.4285)" width="60.2" xlink:href="#sprite0" />
    <use height="35.0" id="line" transform="matrix(1.634, 0.0, 0.0, 2.8571, 0.0, -0.0001)" width="61.2" xlink:href="#sprite1" />
  </g>
</svg>