<?xml version="1.0" encoding="UTF-8" standalone="no"?>
<svg xmlns:xlink="http://www.w3.org/1999/xlink" height="100%" width="100%" xmlns="http://www.w3.org/2000/svg" preserveAspectRatio="none" viewBox="0 0 100 100">
  <defs>
    <g id="sprite0" transform="matrix(1.0, 0.0, 0.0, 1.0, 100.1, 100.1)">
      <use height="200.2" transform="matrix(1.0, 0.0, 0.0, 1.0, -100.1, -100.1)" width="200.2" xlink:href="#shape0" />
    </g>
    <g id="shape0" transform="matrix(1.0, 0.0, 0.0, 1.0, 100.1, 100.1)">
      <path d="M19.35 -99.1 L19.35 -97.3 19.3 -97.0 19.25 -96.8 18.9 -96.4 Q15.05 -92.0 15.9 -84.7 18.05 -77.05 18.95 -69.6 27.9 -67.3 35.9 -62.6 41.7 -67.2 48.65 -71.05 54.45 -75.65 54.8 -81.5 L54.85 -82.05 54.95 -82.15 55.15 -82.45 56.4 -83.7 Q57.1 -84.4 57.8 -83.7 L83.75 -57.75 Q84.45 -57.05 83.75 -56.35 L82.5 -55.1 82.2 -54.9 82.05 -54.85 81.5 -54.8 Q75.7 -54.4 71.1 -48.6 67.2 -41.7 62.65 -35.8 67.3 -27.85 69.65 -18.9 77.05 -18.0 84.7 -15.85 92.0 -15.0 96.4 -18.85 L96.8 -19.2 97.0 -19.25 97.3 -19.3 99.1 -19.3 Q100.1 -19.3 100.1 -18.3 L100.1 18.35 Q100.1 19.35 99.1 19.35 L97.3 19.35 97.0 19.3 96.8 19.25 96.4 18.9 Q92.0 15.05 84.7 15.9 77.05 18.05 69.65 18.95 67.3 27.9 62.6 35.85 67.2 41.7 71.05 48.65 75.65 54.45 81.5 54.8 L82.05 54.85 82.15 54.95 82.45 55.15 83.7 56.4 Q84.4 57.1 83.7 57.8 L57.75 83.75 Q57.05 84.45 56.35 83.75 L55.1 82.5 54.9 82.2 54.85 82.05 54.8 81.5 Q54.4 75.7 48.6 71.1 41.7 67.2 35.85 62.65 27.85 67.3 18.9 69.65 18.0 77.05 15.85 84.7 15.0 92.0 18.85 96.4 L19.2 96.8 19.25 97.0 19.3 97.3 19.3 99.1 Q19.3 100.1 18.3 100.1 L-18.35 100.1 Q-19.35 100.1 -19.35 99.1 L-19.35 97.3 -19.3 97.0 -19.25 96.8 -18.9 96.4 Q-15.05 92.0 -15.9 84.7 -18.05 77.05 -18.95 69.65 -27.9 67.3 -35.85 62.65 -41.7 67.2 -48.65 71.05 -54.45 75.65 -54.8 81.5 L-54.85 82.05 -54.95 82.15 -55.15 82.45 -56.4 83.7 Q-57.1 84.4 -57.8 83.7 L-83.75 57.75 Q-84.45 57.05 -83.75 56.35 L-82.5 55.1 -82.2 54.9 -82.05 54.85 -81.5 54.8 Q-75.7 54.4 -71.1 48.6 -67.2 41.7 -62.65 35.85 -67.3 27.85 -69.65 18.9 -77.05 18.0 -84.7 15.85 -92.0 15.0 -96.4 18.85 L-96.8 19.2 -97.0 19.25 -97.3 19.3 -99.1 19.3 Q-100.1 19.3 -100.1 18.3 L-100.1 -18.35 Q-100.1 -19.35 -99.1 -19.35 L-97.3 -19.35 -97.0 -19.3 -96.8 -19.25 -96.4 -18.9 Q-92.0 -15.05 -84.7 -15.9 -77.05 -18.05 -69.65 -18.95 -67.3 -27.9 -62.6 -35.9 -67.2 -41.7 -71.05 -48.65 -75.65 -54.45 -81.5 -54.8 L-82.05 -54.85 -82.15 -54.95 -82.45 -55.15 -83.7 -56.4 Q-84.4 -57.1 -83.7 -57.8 L-57.75 -83.75 Q-57.05 -84.45 -56.35 -83.75 L-55.1 -82.5 -54.9 -82.2 -54.85 -82.05 -54.8 -81.5 Q-54.4 -75.7 -48.6 -71.1 -41.7 -67.2 -35.85 -62.65 -27.85 -67.3 -18.9 -69.65 -18.0 -77.05 -15.85 -84.7 -15.0 -92.0 -18.85 -96.4 L-19.2 -96.8 -19.25 -97.0 -19.3 -97.3 -19.3 -99.1 Q-19.3 -100.1 -18.3 -100.1 L18.35 -100.1 Q19.35 -100.1 19.35 -99.1" fill="#ffffff" fill-rule="evenodd" stroke="none" class="fill" />
    </g>
    <g id="sprite1" transform="matrix(1.0, 0.0, 0.0, 1.0, 100.6, 100.6)">
      <use height="201.2" transform="matrix(1.0, 0.0, 0.0, 1.0, -100.6, -100.6)" width="201.2" xlink:href="#shape1" />
    </g>
    <g id="shape1" transform="matrix(1.0, 0.0, 0.0, 1.0, 100.6, 100.6)">
      <path d="M-57.5 83.4 L-56.75 83.35 -55.5 82.1 -55.4 82.0 -55.35 81.85 -55.3 81.7 -55.5 81.4 -81.45 55.45 -81.7 55.3 -81.85 55.35 -81.9 55.3 -82.0 55.4 -82.15 55.45 -83.4 56.7 Q-83.8 57.1 -83.45 57.45 L-57.5 83.4 M-50.65 72.15 Q-51.35 71.95 -52.05 71.25 L-71.25 52.05 -72.2 50.6 Q-75.85 54.45 -80.3 55.2 L-55.2 80.3 Q-54.45 75.85 -50.65 72.15 M-70.6 48.8 L-70.75 48.95 Q-71.65 50.25 -70.55 51.35 L-51.35 70.55 Q-50.25 71.65 -49.0 70.7 L-48.8 70.6 Q-42.3 67.0 -36.75 62.7 -44.5 58.05 -51.3 51.25 -58.1 44.45 -62.7 36.75 -66.95 42.3 -70.6 48.8 M-48.9 -70.7 Q-50.2 -71.7 -51.35 -70.55 L-70.55 -51.35 Q-71.6 -50.25 -70.65 -48.95 L-70.55 -48.75 Q-66.95 -42.3 -62.65 -36.75 -58.05 -44.45 -51.3 -51.25 -44.45 -58.05 -36.7 -62.7 -42.25 -66.95 -48.7 -70.6 L-48.9 -70.7 M-72.1 -50.6 Q-71.95 -51.35 -71.25 -52.05 L-52.05 -71.25 Q-51.35 -72.0 -50.55 -72.15 -54.45 -75.9 -55.15 -80.3 L-80.3 -55.15 Q-75.85 -54.5 -72.1 -50.6 M-97.15 -18.8 L-97.3 -18.85 -99.1 -18.85 Q-99.6 -18.85 -99.6 -18.35 L-99.6 18.3 Q-99.6 18.8 -99.1 18.8 L-97.3 18.8 -97.15 18.8 -97.0 18.75 -96.95 18.75 -96.85 18.65 -96.8 18.3 -96.8 -18.35 -96.85 -18.65 -96.85 -18.7 -96.95 -18.75 -97.0 -18.8 -97.15 -18.8 M-84.45 -15.45 L-84.6 -15.4 -84.65 -15.4 Q-86.2 -15.15 -86.2 -13.6 L-86.2 13.55 Q-86.2 15.1 -84.65 15.35 L-84.6 15.35 -84.45 15.4 Q-77.3 17.45 -70.3 18.35 -72.5 9.6 -72.5 0.0 -72.5 -9.65 -70.3 -18.35 -77.3 -17.5 -84.45 -15.45 M-87.2 -13.6 Q-87.2 -14.6 -86.8 -15.25 -92.15 -15.15 -95.8 -17.75 L-95.8 17.75 Q-92.15 15.1 -86.8 15.2 -87.2 14.55 -87.2 13.55 L-87.2 -13.6 M-83.35 -57.45 Q-83.7 -57.1 -83.35 -56.75 L-82.1 -55.5 -81.9 -55.4 -81.8 -55.3 -81.65 -55.3 -81.4 -55.5 -55.45 -81.45 -55.25 -81.7 -55.25 -81.8 -55.35 -81.95 -55.45 -82.15 -56.7 -83.4 Q-57.05 -83.75 -57.4 -83.4 L-83.35 -57.45 M80.35 55.2 Q75.85 54.5 72.1 50.65 71.95 51.35 71.25 52.05 L52.05 71.25 Q51.35 72.0 50.6 72.15 54.45 75.9 55.2 80.35 L80.35 55.2 M15.2 86.8 Q14.55 87.2 13.55 87.2 L-13.6 87.2 Q-14.6 87.2 -15.25 86.8 -15.15 92.15 -17.75 95.8 L17.75 95.8 Q15.1 92.15 15.2 86.8 M18.8 97.15 L18.75 97.05 18.75 97.0 18.65 96.9 18.3 96.8 -18.35 96.8 -18.7 96.9 -18.75 97.0 -18.8 97.05 -18.8 97.15 -18.85 97.3 -18.85 99.1 Q-18.85 99.6 -18.35 99.6 L18.3 99.6 Q18.8 99.6 18.8 99.1 L18.8 97.3 18.8 97.15 M18.35 70.35 Q9.6 72.5 0.0 72.5 -9.65 72.5 -18.35 70.3 -17.5 77.3 -15.45 84.45 L-15.4 84.65 Q-15.15 86.2 -13.6 86.2 L13.55 86.2 Q15.1 86.2 15.35 84.65 L15.4 84.45 Q17.45 77.3 18.35 70.35 M70.55 48.8 Q66.95 42.25 62.65 36.75 58.0 44.45 51.2 51.25 44.4 58.05 36.75 62.7 42.25 66.95 48.75 70.6 L48.9 70.7 Q50.2 71.7 51.35 70.55 L70.55 51.35 Q71.6 50.25 70.7 49.0 L70.65 48.95 70.55 48.8 M81.65 55.3 L81.4 55.5 55.45 81.45 55.3 81.7 55.3 81.8 55.35 81.95 55.35 82.0 55.45 82.15 56.7 83.4 Q57.05 83.75 57.4 83.4 L83.35 57.45 Q83.7 57.1 83.35 56.75 L82.1 55.5 81.95 55.4 81.8 55.3 81.65 55.3 M84.65 -15.35 L84.45 -15.4 Q77.3 -17.45 70.35 -18.3 72.5 -9.6 72.5 0.0 72.5 9.65 70.3 18.4 77.25 17.5 84.45 15.45 L84.65 15.4 Q86.2 15.15 86.2 13.6 L86.2 -13.55 Q86.2 -15.1 84.65 -15.35 M86.8 -15.2 Q87.2 -14.55 87.2 -13.55 L87.2 13.6 Q87.2 14.6 86.8 15.25 92.15 15.15 95.8 17.8 L95.8 -17.7 Q92.15 -15.1 86.8 -15.2 M97.0 -18.7 L96.9 -18.65 96.8 -18.3 96.8 18.35 96.9 18.7 97.0 18.8 97.05 18.8 97.15 18.85 97.3 18.85 99.1 18.85 Q99.6 18.85 99.6 18.35 L99.6 -18.3 Q99.6 -18.8 99.1 -18.8 L97.3 -18.8 97.15 -18.75 97.05 -18.75 97.0 -18.7 M19.55 -68.95 L18.5 -69.25 Q9.7 -71.5 0.0 -71.5 -9.7 -71.5 -18.45 -69.25 L-19.5 -68.95 Q-27.65 -66.75 -34.95 -62.55 L-35.85 -62.05 Q-43.7 -57.45 -50.6 -50.55 -57.45 -43.7 -62.0 -35.95 L-62.55 -35.0 Q-66.75 -27.65 -68.95 -19.55 L-69.25 -18.5 Q-71.5 -9.7 -71.5 0.0 -71.5 9.7 -69.25 18.45 L-69.0 19.5 Q-66.75 27.65 -62.6 35.0 L-62.05 35.9 Q-57.45 43.7 -50.6 50.55 -43.7 57.4 -35.9 62.05 L-35.0 62.6 Q-27.65 66.75 -19.55 69.0 L-18.5 69.25 Q-9.7 71.5 0.0 71.5 9.7 71.5 18.45 69.25 L19.5 69.0 Q27.65 66.75 34.95 62.6 35.4 62.3 35.9 62.05 43.65 57.4 50.5 50.55 57.35 43.7 62.0 35.95 L62.55 35.0 Q66.75 27.65 69.0 19.55 L69.25 18.5 Q71.5 9.7 71.5 0.0 71.5 -9.7 69.25 -18.45 L69.0 -19.5 Q66.75 -27.6 62.6 -34.95 L62.05 -35.85 Q57.4 -43.65 50.5 -50.55 43.65 -57.4 35.9 -62.0 L35.0 -62.55 Q27.65 -66.75 19.55 -68.95 M15.45 -84.45 L15.4 -84.6 15.4 -84.65 Q15.15 -86.2 13.6 -86.2 L-13.55 -86.2 Q-15.1 -86.2 -15.35 -84.65 L-15.35 -84.6 -15.4 -84.45 Q-17.45 -77.3 -18.3 -70.3 -9.6 -72.5 0.0 -72.5 9.65 -72.5 18.4 -70.3 17.5 -77.3 15.45 -84.45 M15.25 -86.8 Q15.1 -92.15 17.8 -95.8 L-17.7 -95.8 Q-15.1 -92.15 -15.2 -86.8 -14.55 -87.2 -13.55 -87.2 L13.6 -87.2 Q14.6 -87.2 15.25 -86.8 M49.0 -70.7 L48.95 -70.65 48.8 -70.6 Q42.3 -66.95 36.75 -62.65 44.4 -58.05 51.2 -51.25 58.05 -44.45 62.7 -36.7 66.95 -42.3 70.6 -48.8 L70.75 -48.95 Q71.65 -50.25 70.55 -51.35 L51.35 -70.55 Q50.25 -71.65 49.0 -70.7 M50.65 -72.15 Q51.35 -71.95 52.05 -71.25 L71.25 -52.05 72.2 -50.6 Q75.85 -54.45 80.35 -55.15 L55.25 -80.25 Q54.45 -75.85 50.65 -72.15 M57.5 -83.4 L56.75 -83.35 55.5 -82.1 55.45 -81.95 55.35 -81.85 55.35 -81.75 55.3 -81.7 55.5 -81.4 81.45 -55.45 81.7 -55.3 81.85 -55.25 81.9 -55.3 82.05 -55.35 82.15 -55.45 83.4 -56.7 Q83.8 -57.1 83.45 -57.45 L57.5 -83.4 M18.85 -99.1 Q18.85 -99.6 18.35 -99.6 L-18.3 -99.6 Q-18.8 -99.6 -18.8 -99.1 L-18.8 -97.3 -18.75 -97.15 -18.75 -97.0 -18.7 -96.95 -18.65 -96.85 -18.3 -96.8 18.35 -96.8 18.7 -96.85 18.8 -96.95 18.8 -97.0 18.85 -97.15 18.85 -97.3 18.85 -99.1 M18.35 -100.6 Q19.85 -100.6 19.85 -99.1 L19.85 -97.3 19.8 -96.9 19.75 -96.6 19.7 -96.55 19.25 -96.0 Q15.6 -91.75 16.4 -84.75 18.5 -77.25 19.45 -70.0 28.1 -67.7 35.85 -63.2 41.55 -67.7 48.35 -71.45 L48.4 -71.5 Q53.9 -75.9 54.35 -81.45 L54.35 -82.15 54.4 -82.2 54.55 -82.45 54.8 -82.8 56.05 -84.05 58.2 -84.1 84.15 -58.15 Q85.2 -57.1 84.1 -56.0 L82.85 -54.75 82.5 -54.5 82.25 -54.35 82.2 -54.3 81.5 -54.3 Q75.95 -53.85 71.55 -48.35 67.75 -41.55 63.25 -35.75 67.7 -28.0 70.05 -19.35 77.25 -18.45 84.75 -16.35 L84.8 -16.35 Q91.75 -15.55 96.05 -19.15 L96.6 -19.65 96.65 -19.65 96.95 -19.75 97.3 -19.8 99.1 -19.8 Q100.6 -19.8 100.6 -18.3 L100.6 18.35 Q100.6 19.85 99.1 19.85 L97.3 19.85 96.95 19.8 96.65 19.75 96.6 19.7 96.05 19.25 Q91.8 15.6 84.8 16.4 L84.75 16.4 Q77.25 18.5 70.05 19.45 67.7 28.05 63.2 35.8 67.7 41.55 71.45 48.35 75.85 53.9 81.4 54.3 L81.45 54.3 82.2 54.4 82.4 54.5 82.45 54.55 82.8 54.8 84.05 56.05 Q85.1 57.1 84.05 58.15 L58.1 84.1 Q57.05 85.15 56.0 84.1 L54.75 82.85 54.5 82.5 54.35 82.2 54.3 81.45 54.3 81.4 Q53.85 75.9 48.3 71.5 41.5 67.7 35.8 63.25 28.05 67.75 19.4 70.05 18.45 77.25 16.35 84.75 L16.35 84.8 Q15.55 91.75 19.2 96.05 L19.65 96.6 19.7 96.65 19.75 96.95 19.8 97.3 19.8 99.1 Q19.8 100.6 18.3 100.6 L-18.35 100.6 Q-19.85 100.6 -19.85 99.1 L-19.85 97.3 -19.8 96.95 -19.7 96.65 -19.7 96.6 -19.2 96.05 Q-15.6 91.75 -16.4 84.8 L-16.4 84.75 Q-18.5 77.25 -19.4 70.05 -28.05 67.7 -35.8 63.25 -41.55 67.7 -48.4 71.5 -53.9 75.9 -54.3 81.5 L-54.4 82.2 -54.4 82.3 -54.6 82.5 -54.8 82.8 -56.05 84.05 -58.2 84.1 -84.15 58.15 Q-85.2 57.1 -84.1 56.0 L-82.85 54.75 -82.55 54.55 -82.3 54.4 -82.25 54.35 -81.5 54.3 Q-75.95 53.85 -71.55 48.35 -67.7 41.55 -63.25 35.8 -67.75 28.05 -70.05 19.35 -77.3 18.45 -84.7 16.35 L-84.75 16.35 Q-91.75 15.55 -96.0 19.2 L-96.55 19.65 -96.6 19.7 -96.9 19.75 -97.3 19.8 -99.1 19.8 Q-100.6 19.8 -100.6 18.3 L-100.6 -18.35 Q-100.6 -19.85 -99.1 -19.85 L-97.3 -19.85 -96.9 -19.8 -96.6 -19.7 -96.55 -19.7 -96.0 -19.2 Q-91.8 -15.6 -84.75 -16.4 L-84.7 -16.4 Q-77.25 -18.5 -70.0 -19.4 -67.7 -28.05 -63.2 -35.8 -67.7 -41.55 -71.45 -48.35 -75.85 -53.9 -81.4 -54.3 L-82.2 -54.35 -82.4 -54.5 -82.8 -54.8 -84.05 -56.05 Q-85.1 -57.1 -84.05 -58.15 L-58.1 -84.1 Q-57.05 -85.15 -56.0 -84.1 L-54.75 -82.85 -54.45 -82.45 -54.35 -82.15 -54.3 -81.45 Q-53.85 -75.9 -48.3 -71.5 L-48.25 -71.5 Q-41.55 -67.7 -35.8 -63.25 -28.05 -67.75 -19.35 -70.05 -18.45 -77.25 -16.35 -84.7 L-16.35 -84.75 Q-15.55 -91.75 -19.15 -96.0 L-19.65 -96.55 -19.65 -96.6 -19.75 -96.9 -19.8 -97.3 -19.8 -99.1 Q-19.8 -100.6 -18.3 -100.6 L18.35 -100.6" fill="#000000" fill-rule="evenodd" stroke="none" class="line" />
    </g>
  </defs>
  <g transform="matrix(1.0, 0.0, 0.0, 1.0, 0.0, 0.0)">
    <use height="200.2" id="fill" transform="matrix(0.497, 0.0, 0.0, 0.497, 0.2478, 0.2478)" width="200.2" xlink:href="#sprite0" />
    <use height="201.2" id="line" transform="matrix(0.497, 0.0, 0.0, 0.497, -0.0007, -0.0007)" width="201.2" xlink:href="#sprite1" />
  </g>
</svg>