<?xml version="1.0" encoding="UTF-8" standalone="no"?>
<svg xmlns:xlink="http://www.w3.org/1999/xlink" height="100%" width="100%" xmlns="http://www.w3.org/2000/svg" preserveAspectRatio="none" viewBox="0 0 100 100">
  <defs>
    <g id="sprite0" transform="matrix(1.0, 0.0, 0.0, 1.0, 100.9, 100.1)">
      <use height="200.2" transform="matrix(1.0, 0.0, 0.0, 1.0, -100.9, -100.1)" width="201.8" xlink:href="#shape0" />
    </g>
    <g id="shape0" transform="matrix(1.0, 0.0, 0.0, 1.0, 100.9, 100.1)">
      <path d="M19.35 -99.1 L19.35 -97.3 19.3 -97.0 19.25 -96.8 18.9 -96.4 Q15.05 -92.0 15.9 -84.7 18.05 -77.05 18.95 -69.65 22.4 -68.75 25.7 -67.5 30.75 -72.9 36.95 -77.8 41.9 -83.2 41.4 -89.05 L41.3 -89.6 41.45 -89.75 41.55 -90.05 42.65 -91.5 Q43.2 -92.3 44.0 -91.7 L73.65 -70.15 Q74.45 -69.6 73.9 -68.8 L72.8 -67.35 72.6 -67.1 72.4 -67.0 71.95 -66.85 Q66.25 -65.55 62.6 -59.15 59.85 -51.6 56.2 -45.05 L60.35 -39.45 Q67.65 -40.9 75.6 -41.2 82.8 -42.65 85.8 -47.7 L86.1 -48.15 86.25 -48.25 86.55 -48.4 88.25 -48.95 Q89.2 -49.25 89.5 -48.3 L100.8 -13.45 Q101.15 -12.5 100.2 -12.2 L98.5 -11.65 98.15 -11.6 98.0 -11.6 97.5 -11.8 Q92.1 -14.1 85.45 -11.05 L85.4 -11.05 Q78.75 -6.55 71.95 -3.4 L72.0 0.0 71.95 3.5 Q78.75 6.6 85.4 11.1 L85.45 11.15 Q92.1 14.15 97.5 11.8 L98.0 11.65 98.15 11.65 98.45 11.7 100.15 12.25 Q101.1 12.55 100.8 13.5 L89.5 48.35 Q89.15 49.3 88.2 49.0 L86.5 48.45 86.25 48.3 86.1 48.2 85.8 47.7 Q82.8 42.7 75.6 41.25 67.65 40.95 60.3 39.5 L56.15 45.1 Q59.8 51.65 62.55 59.2 L62.6 59.3 Q66.25 65.6 71.9 66.85 72.2 66.85 72.4 67.0 L72.55 67.15 72.75 67.35 73.85 68.8 Q74.4 69.6 73.6 70.2 L43.95 91.75 Q43.15 92.3 42.6 91.5 L41.5 90.05 41.4 89.8 41.3 89.6 Q41.25 89.35 41.35 89.05 41.85 83.25 36.9 77.85 30.7 72.95 25.65 67.5 22.35 68.75 18.9 69.65 18.0 77.05 15.85 84.7 15.0 92.0 18.85 96.4 L19.2 96.8 19.25 97.0 19.3 97.3 19.3 99.1 Q19.3 100.1 18.3 100.1 L-18.35 100.1 Q-19.35 100.1 -19.35 99.1 L-19.35 97.3 -19.3 97.0 -19.25 96.8 -18.9 96.4 Q-15.05 92.0 -15.9 84.7 -18.05 77.05 -18.95 69.65 L-25.65 67.5 Q-30.75 72.9 -36.95 77.8 -41.9 83.2 -41.4 89.05 L-41.3 89.6 -41.45 89.75 -41.55 90.05 -42.65 91.5 Q-43.2 92.3 -44.0 91.7 L-73.65 70.15 Q-74.45 69.6 -73.9 68.8 L-72.8 67.35 -72.6 67.1 -72.4 67.0 -71.95 66.85 Q-66.25 65.55 -62.6 59.15 -59.85 51.65 -56.2 45.1 L-60.4 39.5 Q-67.7 40.9 -75.6 41.2 -82.8 42.65 -85.8 47.7 L-86.1 48.15 -86.25 48.25 -86.55 48.4 -88.25 48.95 Q-89.2 49.25 -89.5 48.3 L-100.8 13.45 Q-101.15 12.5 -100.2 12.2 L-98.5 11.65 -98.15 11.6 -98.0 11.6 -97.5 11.8 Q-92.1 14.1 -85.45 11.1 L-85.4 11.05 Q-78.75 6.55 -71.9 3.4 L-72.0 0.0 -71.9 -3.45 Q-78.75 -6.6 -85.4 -11.1 L-85.45 -11.1 Q-92.1 -14.15 -97.5 -11.8 L-98.0 -11.65 -98.15 -11.65 -98.45 -11.7 -100.15 -12.25 Q-101.1 -12.55 -100.8 -13.5 L-89.5 -48.35 Q-89.15 -49.3 -88.2 -49.0 L-86.5 -48.45 -86.25 -48.3 -86.1 -48.2 -85.8 -47.7 Q-82.8 -42.7 -75.6 -41.25 -67.65 -40.95 -60.35 -39.5 L-56.15 -45.15 Q-59.8 -51.7 -62.55 -59.2 L-62.6 -59.25 Q-66.25 -65.6 -71.9 -66.85 -72.2 -66.85 -72.4 -67.0 L-72.55 -67.15 -72.75 -67.35 -73.85 -68.8 Q-74.4 -69.6 -73.6 -70.2 L-43.95 -91.75 Q-43.15 -92.3 -42.6 -91.5 L-41.5 -90.05 -41.4 -89.8 -41.3 -89.6 Q-41.25 -89.35 -41.35 -89.05 -41.85 -83.25 -36.9 -77.85 -30.7 -72.95 -25.6 -67.5 -22.35 -68.75 -18.9 -69.65 -18.0 -77.05 -15.85 -84.7 -15.0 -92.0 -18.85 -96.4 L-19.2 -96.8 -19.25 -97.0 -19.3 -97.3 -19.3 -99.1 Q-19.3 -100.1 -18.3 -100.1 L18.35 -100.1 Q19.35 -100.1 19.35 -99.1" fill="#ffffff" fill-rule="evenodd" stroke="none" class="fill" />
    </g>
    <g id="sprite1" transform="matrix(1.0, 0.0, 0.0, 1.0, 101.5, 100.6)">
      <use height="201.2" transform="matrix(1.0, 0.0, 0.0, 1.0, -101.5, -100.6)" width="203.0" xlink:href="#shape1" />
    </g>
    <g id="shape1" transform="matrix(1.0, 0.0, 0.0, 1.0, 101.5, 100.6)">
      <path d="M72.05 67.45 L71.7 67.55 42.05 89.1 41.8 89.4 41.85 89.5 41.85 89.55 41.9 89.65 41.95 89.8 43.0 91.25 Q43.3 91.7 43.7 91.4 L73.35 69.85 Q73.75 69.55 73.45 69.1 L72.4 67.65 72.3 67.55 72.2 67.5 72.15 67.5 72.05 67.45 M37.15 77.4 L37.3 77.55 Q38.4 78.65 39.65 77.75 L61.6 61.8 Q62.85 60.85 62.15 59.5 L62.1 59.3 Q59.5 52.2 56.1 45.95 L51.2 51.25 Q40.1 62.4 26.55 67.7 31.3 72.8 37.15 77.4 M40.25 78.55 Q39.45 79.15 38.65 79.15 41.9 83.45 41.95 87.95 L70.65 67.05 Q66.35 65.7 63.3 61.25 L62.2 62.6 40.25 78.55 M96.6 12.7 Q92.3 14.2 87.25 12.35 87.45 13.1 87.15 14.05 L78.75 39.9 Q78.45 40.85 77.85 41.3 82.95 42.9 85.6 46.5 L96.6 12.7 M85.25 11.55 L85.1 11.45 Q78.85 7.25 72.4 4.25 71.4 23.6 61.15 39.2 68.05 40.5 75.55 40.8 L75.75 40.8 Q77.3 41.05 77.8 39.6 L86.2 13.75 Q86.65 12.3 85.25 11.55 M98.35 12.15 L98.2 12.1 98.1 12.15 98.05 12.15 97.9 12.2 97.7 12.5 86.4 47.35 Q86.3 47.55 86.35 47.75 L86.45 47.85 86.5 47.9 86.6 47.9 86.7 48.0 88.4 48.55 Q88.85 48.75 89.05 48.25 L100.35 13.4 Q100.5 12.9 100.05 12.7 L98.35 12.15 M-98.05 12.15 L-98.1 12.1 -98.2 12.1 -98.4 12.1 -100.1 12.65 Q-100.55 12.85 -100.35 13.35 L-89.05 48.2 Q-88.9 48.7 -88.45 48.5 L-86.75 47.95 -86.6 47.9 -86.5 47.85 -86.45 47.85 -86.4 47.7 -86.4 47.3 -97.7 12.45 -97.95 12.15 -98.05 12.15 M-13.6 87.2 Q-14.6 87.2 -15.25 86.8 -15.15 92.15 -17.75 95.8 L17.75 95.8 Q15.05 92.15 15.2 86.8 14.55 87.2 13.55 87.2 L-13.6 87.2 M-18.7 96.9 L-18.75 97.0 -18.8 97.05 -18.8 97.15 -18.85 97.3 -18.85 99.1 Q-18.85 99.6 -18.35 99.6 L18.3 99.6 Q18.8 99.6 18.8 99.1 L18.8 97.3 18.8 97.15 18.75 97.05 18.75 97.0 18.65 96.9 18.3 96.8 -18.35 96.8 -18.7 96.9 M-15.45 84.45 L-15.4 84.65 Q-15.15 86.2 -13.6 86.2 L13.55 86.2 Q15.1 86.2 15.35 84.65 L15.4 84.5 Q17.45 77.3 18.35 70.35 9.6 72.5 0.0 72.5 -9.65 72.5 -18.35 70.35 -17.5 77.3 -15.45 84.45 M-62.25 62.55 Q-63.05 61.95 -63.35 61.25 -66.4 65.65 -70.65 67.05 L-41.95 87.95 Q-41.95 83.4 -38.7 79.15 -39.5 79.1 -40.3 78.5 L-62.25 62.55 M-72.15 67.5 L-72.25 67.45 -72.3 67.55 -72.45 67.6 -73.5 69.05 Q-73.8 69.5 -73.4 69.8 L-43.75 91.35 Q-43.35 91.65 -43.05 91.2 L-42.0 89.75 -41.9 89.65 -41.9 89.5 -41.85 89.5 -41.85 89.35 -42.1 89.05 -71.75 67.5 -72.1 67.4 -72.15 67.5 M-62.2 59.45 Q-62.9 60.85 -61.65 61.75 L-39.7 77.7 Q-38.45 78.65 -37.35 77.5 L-37.2 77.4 Q-31.4 72.8 -26.55 67.7 -40.15 62.4 -51.3 51.25 L-56.1 46.0 Q-59.5 52.15 -62.15 59.2 L-62.2 59.45 M-77.85 41.25 Q-78.45 40.8 -78.75 39.85 L-87.15 14.0 Q-87.45 13.05 -87.25 12.3 -92.35 14.1 -96.6 12.7 L-85.6 46.5 Q-83.0 42.8 -77.85 41.25 M-75.6 40.75 Q-68.15 40.45 -61.2 39.15 -71.4 23.55 -72.4 4.2 -78.8 7.2 -85.05 11.4 L-85.25 11.5 Q-86.7 12.25 -86.2 13.7 L-77.8 39.55 Q-77.35 41.0 -75.75 40.75 L-75.6 40.75 M-41.95 -89.8 L-43.0 -91.25 Q-43.3 -91.7 -43.7 -91.4 L-73.35 -69.85 Q-73.75 -69.55 -73.45 -69.1 L-72.4 -67.65 -72.25 -67.6 -72.15 -67.5 -72.15 -67.45 -72.05 -67.4 -71.7 -67.55 -42.05 -89.1 -41.8 -89.35 -41.8 -89.5 -41.8 -89.55 -41.85 -89.7 -41.95 -89.8 M-40.25 -78.55 Q-39.45 -79.15 -38.65 -79.15 -41.9 -83.45 -41.9 -87.95 L-70.6 -67.1 Q-66.35 -65.65 -63.3 -61.25 L-62.2 -62.6 -40.25 -78.55 M-37.3 -77.55 Q-38.4 -78.65 -39.65 -77.75 L-61.6 -61.8 Q-62.85 -60.85 -62.15 -59.5 L-62.15 -59.45 -62.1 -59.25 Q-59.45 -52.2 -56.05 -46.0 L-51.3 -51.25 Q-40.1 -62.4 -26.5 -67.7 -31.3 -72.8 -37.15 -77.4 L-37.3 -77.5 -37.3 -77.55 M-96.55 -12.75 Q-92.3 -14.15 -87.25 -12.35 -87.45 -13.1 -87.15 -14.05 L-78.75 -39.9 Q-78.45 -40.85 -77.85 -41.3 -82.95 -42.9 -85.6 -46.55 L-96.55 -12.75 M-85.2 -11.55 L-85.05 -11.45 Q-78.8 -7.25 -72.4 -4.25 -71.4 -23.6 -61.15 -39.15 -68.05 -40.5 -75.55 -40.8 L-75.7 -40.8 -75.75 -40.8 Q-77.3 -41.05 -77.8 -39.6 L-86.2 -13.75 Q-86.65 -12.3 -85.25 -11.55 L-85.2 -11.55 M-88.4 -48.55 Q-88.85 -48.75 -89.05 -48.25 L-100.35 -13.4 Q-100.5 -12.9 -100.05 -12.7 L-98.35 -12.15 -98.2 -12.15 -98.05 -12.15 -98.0 -12.15 -97.85 -12.2 -97.7 -12.5 -86.4 -47.35 -86.3 -47.75 -86.4 -47.85 -86.45 -47.9 -86.55 -47.95 -86.7 -48.0 -88.4 -48.55 M88.45 -48.5 L86.75 -47.95 86.6 -47.85 86.45 -47.85 86.4 -47.75 86.35 -47.7 86.4 -47.3 97.7 -12.45 97.9 -12.15 98.0 -12.05 98.05 -12.1 98.25 -12.05 98.4 -12.1 100.1 -12.65 Q100.55 -12.85 100.35 -13.35 L89.05 -48.2 Q88.9 -48.7 88.45 -48.5 M77.85 -41.25 Q78.45 -40.8 78.75 -39.85 L87.15 -14.0 Q87.45 -13.05 87.25 -12.3 92.35 -14.1 96.6 -12.65 L85.65 -46.45 Q83.0 -42.85 77.85 -41.25 M75.55 -40.75 Q68.1 -40.45 61.15 -39.1 71.4 -23.6 72.4 -4.2 78.8 -7.2 85.05 -11.4 L85.2 -11.5 85.25 -11.5 Q86.7 -12.25 86.2 -13.7 L77.8 -39.55 Q77.35 -41.0 75.75 -40.75 L75.7 -40.75 75.55 -40.75 M19.55 -68.95 L18.5 -69.2 Q9.7 -71.5 0.0 -71.5 -9.7 -71.5 -18.45 -69.25 L-19.5 -68.95 -24.75 -67.3 -25.75 -66.9 Q-39.4 -61.7 -50.6 -50.55 L-55.55 -45.1 -56.25 -44.2 -59.5 -39.85 -60.1 -38.95 Q-70.5 -23.35 -71.4 -3.8 L-71.45 -2.7 -71.5 0.0 -71.45 2.65 -71.4 3.75 Q-70.5 23.3 -60.15 38.95 L-59.5 39.85 -56.3 44.2 -55.6 45.05 -50.6 50.55 Q-39.45 61.7 -25.8 66.9 L-24.75 67.3 -19.55 69.0 -18.5 69.25 Q-9.7 71.5 0.0 71.5 9.7 71.5 18.45 69.25 L19.5 69.0 24.75 67.3 25.8 66.9 Q39.35 61.7 50.5 50.55 L55.55 45.0 56.25 44.2 59.45 39.9 60.1 39.0 Q70.5 23.35 71.4 3.8 L71.45 2.75 71.5 0.0 71.45 -2.65 71.4 -3.75 Q70.5 -23.3 60.1 -38.9 L59.5 -39.8 56.3 -44.15 55.6 -45.0 50.5 -50.55 Q39.4 -61.7 25.8 -66.9 L24.8 -67.25 19.55 -68.95 M15.45 -84.45 L15.4 -84.6 15.4 -84.65 Q15.15 -86.2 13.6 -86.2 L-13.55 -86.2 Q-15.1 -86.2 -15.35 -84.65 L-15.35 -84.6 -15.4 -84.45 Q-17.45 -77.3 -18.3 -70.3 -9.6 -72.5 0.0 -72.5 9.65 -72.5 18.4 -70.3 17.5 -77.3 15.45 -84.45 M15.25 -86.8 Q15.15 -92.15 17.8 -95.8 L-17.7 -95.8 Q-15.1 -92.15 -15.2 -86.8 -14.55 -87.2 -13.55 -87.2 L13.6 -87.2 Q14.6 -87.2 15.25 -86.8 M62.25 -62.55 Q63.05 -61.95 63.35 -61.25 66.4 -65.65 70.7 -67.05 L42.0 -87.9 Q41.95 -83.45 38.7 -79.15 39.5 -79.1 40.3 -78.5 L62.25 -62.55 M62.2 -59.4 L62.2 -59.45 Q62.9 -60.85 61.65 -61.75 L39.7 -77.7 Q38.45 -78.65 37.35 -77.5 L37.35 -77.45 37.2 -77.35 Q31.35 -72.75 26.55 -67.7 40.1 -62.4 51.2 -51.25 L56.1 -45.9 Q59.5 -52.1 62.15 -59.2 L62.2 -59.4 M43.75 -91.35 Q43.35 -91.65 43.05 -91.2 L42.0 -89.75 41.95 -89.6 41.85 -89.5 41.85 -89.45 41.85 -89.3 42.1 -89.05 71.75 -67.5 72.1 -67.35 72.2 -67.4 72.2 -67.45 72.35 -67.5 72.45 -67.6 73.5 -69.05 Q73.8 -69.5 73.4 -69.8 L43.75 -91.35 M18.85 -99.1 Q18.85 -99.6 18.35 -99.6 L-18.3 -99.6 Q-18.8 -99.6 -18.8 -99.1 L-18.8 -97.3 -18.75 -97.15 -18.75 -97.0 -18.7 -96.95 -18.65 -96.85 -18.3 -96.8 18.35 -96.8 18.7 -96.85 18.8 -96.95 18.8 -97.0 18.85 -97.15 18.85 -97.3 18.85 -99.1 M18.35 -100.6 Q19.85 -100.6 19.85 -99.1 L19.85 -97.3 19.8 -96.9 19.75 -96.6 19.7 -96.55 19.25 -96.0 Q15.6 -91.75 16.4 -84.75 18.5 -77.3 19.45 -70.0 L25.55 -68.05 Q30.5 -73.35 36.55 -78.1 L36.55 -78.15 Q41.35 -83.4 40.95 -88.9 40.75 -89.3 40.85 -89.65 L40.9 -89.7 40.95 -90.0 41.2 -90.35 42.25 -91.8 Q43.15 -93.05 44.35 -92.15 L74.0 -70.6 Q75.2 -69.75 74.3 -68.5 L73.25 -67.05 72.95 -66.75 72.8 -66.55 72.7 -66.5 72.0 -66.35 Q66.55 -65.1 63.05 -58.9 60.35 -51.55 56.8 -45.05 L60.55 -40.0 Q67.7 -41.45 75.5 -41.7 L75.55 -41.75 Q82.45 -43.15 85.4 -47.85 85.5 -48.3 85.75 -48.55 L85.8 -48.55 86.05 -48.75 86.45 -48.9 88.15 -49.45 Q89.6 -49.95 90.05 -48.5 L101.35 -13.65 Q101.85 -12.2 100.4 -11.7 L98.7 -11.15 98.25 -11.1 97.95 -11.05 97.9 -11.1 Q97.6 -11.15 97.25 -11.35 92.05 -13.5 85.65 -10.6 79.15 -6.2 72.45 -3.1 L72.5 0.0 72.45 3.2 Q79.15 6.25 85.65 10.65 L85.7 10.65 Q92.1 13.55 97.3 11.45 L97.9 11.15 98.0 11.1 98.3 11.15 98.65 11.2 100.35 11.75 Q101.8 12.25 101.35 13.7 L90.05 48.55 Q89.55 50.0 88.1 49.5 L86.4 48.95 86.1 48.8 85.8 48.6 85.75 48.6 85.4 47.95 Q82.45 43.2 75.6 41.8 L75.55 41.8 Q67.75 41.5 60.5 40.1 L56.75 45.15 Q60.35 51.6 63.05 58.95 L63.1 59.0 Q66.55 65.1 72.0 66.4 L72.7 66.6 72.75 66.6 73.0 66.85 73.2 67.05 74.25 68.5 Q75.15 69.75 73.95 70.65 L44.3 92.2 Q43.1 93.05 42.2 91.8 L41.15 90.35 41.0 90.1 40.85 89.8 40.85 89.75 Q40.75 89.35 40.9 89.0 41.35 83.4 36.6 78.25 L36.55 78.2 Q30.5 73.45 25.5 68.1 L19.4 70.05 Q18.45 77.3 16.35 84.75 L16.35 84.8 Q15.55 91.8 19.2 96.05 L19.65 96.6 19.7 96.65 19.75 96.95 19.8 97.3 19.8 99.1 Q19.8 100.6 18.3 100.6 L-18.35 100.6 Q-19.85 100.6 -19.85 99.1 L-19.85 97.3 -19.8 96.95 -19.7 96.65 -19.7 96.6 -19.2 96.05 Q-15.6 91.75 -16.4 84.8 L-16.4 84.75 Q-18.5 77.25 -19.4 70.05 L-25.5 68.1 Q-30.5 73.4 -36.55 78.15 L-36.6 78.2 Q-41.35 83.4 -40.9 89.0 -40.75 89.3 -40.9 89.7 L-40.85 89.8 -41.0 90.05 -41.2 90.35 -42.25 91.8 Q-43.15 93.05 -44.35 92.15 L-74.0 70.6 Q-75.2 69.75 -74.3 68.5 L-73.25 67.05 -73.0 66.8 -72.75 66.6 -72.75 66.55 -72.0 66.4 Q-66.55 65.1 -63.1 58.95 L-63.05 58.9 Q-60.35 51.55 -56.8 45.15 L-60.55 40.05 Q-67.75 41.45 -75.55 41.75 L-75.6 41.75 Q-82.5 43.15 -85.4 47.95 L-85.8 48.55 -85.8 48.6 -86.1 48.75 -86.45 48.9 -88.15 49.45 Q-89.6 49.95 -90.05 48.5 L-101.35 13.65 Q-101.85 12.2 -100.4 11.7 L-98.7 11.15 -98.3 11.1 -98.0 11.1 -97.95 11.1 Q-97.6 11.15 -97.3 11.45 -92.05 13.5 -85.7 10.6 L-85.65 10.6 Q-79.15 6.2 -72.45 3.1 L-72.5 0.0 -72.45 -3.15 Q-79.15 -6.25 -85.6 -10.6 L-85.65 -10.65 Q-92.05 -13.55 -97.2 -11.45 L-97.85 -11.15 -97.9 -11.15 -98.25 -11.15 -98.65 -11.2 -100.35 -11.75 Q-101.8 -12.25 -101.35 -13.7 L-90.05 -48.55 Q-89.55 -50.0 -88.1 -49.5 L-86.4 -48.95 -86.05 -48.8 -85.75 -48.65 -85.7 -48.6 -85.35 -47.95 Q-82.45 -43.2 -75.55 -41.8 -67.75 -41.5 -60.55 -40.05 L-56.8 -45.15 Q-60.35 -51.6 -63.05 -58.9 L-63.05 -58.95 Q-66.55 -65.1 -71.95 -66.4 L-72.65 -66.55 -72.7 -66.6 -72.95 -66.8 -73.2 -67.05 -74.25 -68.5 Q-75.15 -69.75 -73.95 -70.65 L-44.3 -92.2 Q-43.1 -93.05 -42.2 -91.8 L-41.15 -90.35 -40.95 -90.05 -40.8 -89.75 -40.8 -89.7 -40.9 -88.95 Q-41.35 -83.4 -36.55 -78.2 -30.5 -73.45 -25.5 -68.1 L-19.35 -70.05 Q-18.45 -77.3 -16.35 -84.7 L-16.35 -84.75 Q-15.55 -91.75 -19.15 -96.0 L-19.65 -96.55 -19.65 -96.6 -19.75 -96.9 -19.8 -97.3 -19.8 -99.1 Q-19.8 -100.6 -18.3 -100.6 L18.35 -100.6" fill="#000000" fill-rule="evenodd" stroke="none" class="line" />
    </g>
  </defs>
  <g transform="matrix(1.0, 0.0, 0.0, 1.0, 0.0, 0.0)">
    <use height="200.2" id="fill" transform="matrix(0.4926, 0.0, 0.0, 0.497, 0.2952, 0.2478)" width="201.8" xlink:href="#sprite0" />
    <use height="201.2" id="line" transform="matrix(0.4926, 0.0, 0.0, 0.497, -0.0004, -0.0007)" width="203.0" xlink:href="#sprite1" />
  </g>
</svg>