<?xml version="1.0" encoding="UTF-8" standalone="no"?>
<svg xmlns:xlink="http://www.w3.org/1999/xlink" height="100%" width="100%" xmlns="http://www.w3.org/2000/svg" preserveAspectRatio="none" viewBox="0 0 100 100">
  <defs>
    <g id="sprite0" transform="matrix(1.0, 0.0, 0.0, 1.0, 42.4, 19.5)">
      <use height="39.0" transform="matrix(1.0, 0.0, 0.0, 1.0, -42.4, -19.5)" width="84.8" xlink:href="#shape0" />
    </g>
    <g id="shape0" transform="matrix(1.0, 0.0, 0.0, 1.0, 42.4, 19.5)">
      <path d="M42.4 -1.7 L21.2 19.5 Q12.4 10.7 0.0 10.7 -12.4 10.7 -21.2 19.5 L-42.4 -1.7 Q-24.8 -19.3 0.0 -19.5 24.8 -19.3 42.4 -1.7" fill="#ffffff" fill-rule="evenodd" stroke="none" class="fill" />
    </g>
    <g id="sprite1" transform="matrix(1.0, 0.0, 0.0, 1.0, 42.9, 20.0)">
      <use height="40.0" transform="matrix(1.0, 0.0, 0.0, 1.0, -42.9, -20.0)" width="85.8" xlink:href="#shape1" />
    </g>
    <g id="shape1" transform="matrix(1.0, 0.0, 0.0, 1.0, 42.9, 20.0)">
      <path d="M41.7 -1.7 Q24.35 -18.8 0.0 -19.0 -24.35 -18.8 -41.7 -1.7 L-21.2 18.8 Q-12.35 10.2 0.0 10.2 12.35 10.2 21.2 18.8 L41.7 -1.7 M42.75 -2.05 L42.9 -1.7 42.75 -1.35 21.55 19.85 21.2 20.0 20.85 19.85 Q12.2 11.2 0.0 11.2 -12.2 11.2 -20.85 19.85 L-21.2 20.0 -21.55 19.85 -42.75 -1.35 -42.9 -1.7 -42.75 -2.05 Q-25.0 -19.8 0.0 -20.0 25.0 -19.8 42.75 -2.05" fill="#000000" fill-rule="evenodd" stroke="none" class="line" />
    </g>
  </defs>
  <g transform="matrix(1.0, 0.0, 0.0, 1.0, 0.0, 0.0)">
    <use height="39.0" id="fill" transform="matrix(1.1655, 0.0, 0.0, 2.5, 0.5829, 1.25)" width="84.8" xlink:href="#sprite0" />
    <use height="40.0" id="line" transform="matrix(1.1655, 0.0, 0.0, 2.5, 0.0002, 0.0)" width="85.8" xlink:href="#sprite1" />
  </g>
</svg>