<?xml version="1.0" encoding="UTF-8" standalone="no"?>
<svg xmlns:xlink="http://www.w3.org/1999/xlink" height="100%" width="100%" xmlns="http://www.w3.org/2000/svg" preserveAspectRatio="none" viewBox="0 0 100 100">
  <defs>
    <g id="sprite0" transform="matrix(1.0, 0.0, 0.0, 1.0, 72.0, 30.0)">
      <use height="60.0" transform="matrix(1.0, 0.0, 0.0, 1.0, -72.0, -30.0)" width="144.0" xlink:href="#shape0" />
    </g>
    <g id="shape0" transform="matrix(1.0, 0.0, 0.0, 1.0, 72.0, 30.0)">
      <path d="M-72.0 30.0 L-37.4 -30.0 37.3 -30.0 72.0 30.0 -72.0 30.0" fill="#ffffff" fill-rule="evenodd" stroke="none" class="fill" />
    </g>
    <g id="sprite1" transform="matrix(1.0, 0.0, 0.0, 1.0, 73.0, 31.0)">
      <use height="62.0" transform="matrix(1.0, 0.0, 0.0, 1.0, -73.0, -31.0)" width="146.0" xlink:href="#shape1" />
    </g>
    <g id="shape1" transform="matrix(1.0, 0.0, 0.0, 1.0, 73.0, 31.0)">
      <path d="M36.75 -29.0 L-36.8 -29.0 -70.25 29.0 70.25 29.0 36.75 -29.0 M-38.25 -30.5 L-37.9 -30.85 -37.4 -31.0 37.3 -31.0 37.8 -30.85 38.2 -30.5 72.9 29.5 73.0 30.2 72.65 30.8 72.0 31.0 -72.0 31.0 -72.65 30.8 -72.95 30.2 -72.85 29.5 -38.25 -30.5" fill="#000000" fill-rule="evenodd" stroke="none" class="line" />
    </g>
  </defs>
  <g transform="matrix(1.0, 0.0, 0.0, 1.0, 0.0, 0.0)">
    <use height="60.0" id="fill" transform="matrix(0.6849, 0.0, 0.0, 1.6129, 0.6846, 1.613)" width="144.0" xlink:href="#sprite0" />
    <use height="62.0" id="line" transform="matrix(0.6849, 0.0, 0.0, 1.6129, -0.0004, 0.0001)" width="146.0" xlink:href="#sprite1" />
  </g>
</svg>