<?xml version="1.0" encoding="UTF-8" standalone="no"?>
<svg xmlns:xlink="http://www.w3.org/1999/xlink" height="100%" width="100%" xmlns="http://www.w3.org/2000/svg" preserveAspectRatio="none" viewBox="0 0 100 100">
  <defs>
    <g id="sprite0" transform="matrix(1.0, 0.0, 0.0, 1.0, 3.1, 3.15)">
      <use height="7.4" transform="matrix(1.0, 0.0, 0.0, 1.0, -3.1, -3.15)" width="7.4" xlink:href="#shape0" />
    </g>
    <g id="shape0" transform="matrix(1.0, 0.0, 0.0, 1.0, 3.1, 3.15)">
      <path d="M3.25 -2.05 Q4.3 -1.0 4.3 0.55 4.3 2.1 3.25 3.2 2.15 4.25 0.6 4.25 -0.95 4.25 -2.0 3.2 -3.1 2.1 -3.1 0.55 -3.1 -1.0 -2.0 -2.05 -0.95 -3.15 0.6 -3.15 2.15 -3.15 3.25 -2.05" fill="#ffffff" fill-rule="evenodd" stroke="none" class="fill" />
    </g>
    <g id="sprite1" transform="matrix(1.0, 0.0, 0.0, 1.0, 142.9, 150.15)">
      <use height="301.4" transform="matrix(1.0, 0.0, 0.0, 1.0, -142.9, -150.15)" width="286.8" xlink:href="#shape1" />
    </g>
    <g id="shape1" transform="matrix(1.0, 0.0, 0.0, 1.0, 142.9, 150.15)">
      <path d="M86.55 -119.3 Q86.65 -119.9 87.35 -119.95 86.95 -119.9 86.7 -119.55 L86.55 -119.3 M141.1 47.25 Q140.55 47.25 140.4 46.9 L141.4 47.2 141.45 47.2 141.1 47.25 M86.75 120.9 L86.55 120.65 86.7 120.85 86.75 120.9 M-85.65 -119.5 L-86.3 -119.9 -86.5 -119.95 -86.35 -119.95 Q-85.65 -119.9 -85.5 -119.3 L-85.65 -119.5 M-140.5 47.15 L-140.25 47.25 Q-140.6 47.2 -140.75 47.0 L-140.5 47.15 M-139.75 47.2 L-139.7 47.2 -139.8 47.25 -139.75 47.2 M-85.75 120.9 L-85.65 120.85 -85.5 120.6 -85.55 120.7 -85.6 120.8 -85.65 120.9 -85.7 120.9 -85.75 120.9" fill="#ffffff" fill-rule="evenodd" stroke="none" class="line" />
      <path d="M87.25 -121.95 L87.5 -121.95 Q89.85 -121.95 90.25 -119.7 L90.3 -119.0 90.3 -118.85 90.3 -118.5 90.3 -118.3 Q89.95 -116.5 88.15 -116.15 L87.95 -116.15 87.6 -116.15 87.4 -116.15 86.75 -116.2 71.35 -95.15 113.5 -37.1 138.3 -45.25 138.35 -45.7 Q138.6 -47.65 140.6 -47.9 L141.05 -47.95 141.2 -47.95 141.9 -47.85 141.95 -47.85 142.55 -47.65 143.6 -46.6 143.65 -46.45 143.75 -46.25 143.85 -46.0 143.9 -45.2 143.9 -45.05 143.8 -43.95 143.65 -43.65 143.55 -43.45 Q142.9 -42.3 141.4 -42.15 L141.3 -42.15 141.1 -42.15 140.9 -42.15 140.85 -42.15 Q139.35 -42.25 138.75 -43.3 L114.1 -35.2 114.1 36.55 138.9 44.35 139.65 43.75 Q140.05 43.55 140.55 43.5 L141.0 43.45 141.2 43.45 141.9 43.55 Q143.1 43.8 143.6 44.8 L143.65 44.95 143.75 45.15 143.85 45.4 143.9 46.2 143.9 46.35 143.75 47.4 143.7 47.55 143.55 47.9 143.55 47.95 Q142.9 49.25 141.1 49.25 138.75 49.25 138.4 47.05 L138.3 46.35 138.3 46.25 113.5 38.45 71.35 96.25 86.75 117.5 87.4 117.45 87.6 117.45 88.3 117.55 88.35 117.55 88.95 117.75 Q89.65 118.1 90.0 118.8 L90.05 118.9 90.25 119.6 90.3 119.85 90.3 120.15 90.3 120.35 90.3 120.7 90.25 121.05 90.05 121.65 90.0 121.7 88.95 122.75 88.35 123.0 88.3 123.0 87.6 123.05 87.4 123.05 86.4 122.9 86.25 122.85 85.8 122.65 Q84.6 122.1 84.5 120.5 L84.5 120.25 84.5 120.05 84.5 120.0 Q84.55 119.05 85.0 118.5 L69.75 97.45 1.5 119.6 1.5 145.8 1.95 145.95 2.2 146.15 2.8 146.75 3.0 147.0 3.1 147.2 3.15 147.35 3.3 148.4 3.3 148.55 3.15 149.6 3.1 149.7 3.0 149.9 2.9 150.1 2.7 150.35 2.6 150.45 2.5 150.55 2.4 150.65 2.15 150.85 1.95 150.95 1.75 151.05 1.65 151.1 0.6 151.25 0.45 151.25 -0.6 151.1 -0.75 151.05 -0.95 150.95 -1.2 150.75 -1.8 150.15 -2.0 149.9 -2.1 149.55 -2.3 148.55 -2.3 148.4 -2.15 147.55 -2.05 147.15 -2.0 147.0 Q-1.65 146.3 -0.95 145.95 L-1.05 146.05 -0.5 145.8 -0.5 119.6 -68.7 97.45 -84.0 118.55 -83.85 118.7 -83.7 119.05 -83.5 119.7 -83.5 119.85 -83.5 120.2 -83.5 120.35 -83.5 120.65 -83.5 120.85 -83.7 121.5 -83.8 121.75 -84.85 122.7 -85.2 122.85 -85.35 122.9 -86.4 123.05 -86.55 123.05 -87.3 123.0 -87.35 123.0 -87.95 122.75 Q-89.1 122.15 -89.25 120.8 L-89.3 120.35 -89.3 120.2 -89.25 119.7 Q-89.05 118.3 -87.95 117.8 L-87.35 117.6 -86.55 117.45 -86.4 117.45 -85.7 117.55 -70.3 96.25 -112.25 38.45 -137.3 46.45 -137.4 47.3 Q-137.85 49.25 -140.1 49.25 -141.9 49.25 -142.5 47.95 L-142.55 47.9 -142.7 47.55 -142.75 47.4 -142.9 46.35 -142.9 46.2 -142.75 45.35 -142.65 44.95 -142.6 44.8 Q-142.1 43.8 -140.9 43.55 L-140.15 43.45 -140.0 43.45 -139.4 43.55 -139.45 43.55 -138.7 43.75 -138.65 43.75 Q-138.1 44.0 -137.8 44.5 L-112.9 36.55 -112.9 -35.2 -137.75 -43.3 Q-138.35 -42.25 -139.8 -42.15 L-139.9 -42.15 -140.1 -42.15 -140.3 -42.15 -140.4 -42.15 Q-141.9 -42.3 -142.5 -43.45 L-142.7 -43.85 -142.75 -44.0 -142.9 -45.05 -142.9 -45.2 -142.75 -46.05 -142.65 -46.45 -142.6 -46.6 -141.55 -47.65 -141.45 -47.65 -140.65 -47.9 -140.2 -47.95 -140.0 -47.95 -139.4 -47.85 -139.45 -47.85 -138.7 -47.65 -138.65 -47.65 Q-137.95 -47.3 -137.6 -46.6 L-137.35 -46.0 -137.35 -45.95 -137.3 -45.25 -112.25 -37.1 -70.3 -95.1 -85.75 -116.2 -86.4 -116.15 -86.6 -116.15 -86.9 -116.15 -87.05 -116.15 Q-89.15 -116.45 -89.3 -118.65 L-89.3 -118.75 -89.3 -119.0 -89.25 -119.5 Q-88.95 -121.95 -86.5 -121.95 L-86.25 -121.95 Q-83.8 -121.8 -83.5 -119.45 L-83.5 -119.35 -83.5 -119.05 -83.5 -118.85 -83.5 -118.55 -83.5 -118.35 -84.0 -117.2 -68.7 -96.3 -0.5 -118.45 -0.5 -144.45 Q-1.4 -144.8 -1.85 -145.6 L-1.9 -145.65 -2.1 -146.05 -2.15 -146.2 -2.3 -147.25 -2.3 -147.4 -2.2 -148.15 -2.2 -148.2 -2.0 -148.8 -1.95 -148.8 Q-1.4 -149.95 0.0 -150.1 L0.45 -150.15 0.6 -150.15 1.1 -150.1 Q2.5 -149.95 3.0 -148.75 L3.05 -148.65 3.15 -148.45 3.25 -148.2 3.3 -147.4 3.3 -147.25 3.15 -146.1 3.05 -145.9 2.9 -145.6 Q2.4 -144.75 1.5 -144.45 L1.5 -118.45 1.75 -118.4 69.45 -96.4 69.7 -96.3 85.0 -117.2 Q84.6 -117.8 84.5 -118.65 L84.5 -118.75 84.5 -118.95 84.5 -119.2 Q84.65 -121.8 87.25 -121.95 M86.55 -119.3 L86.7 -119.55 Q86.95 -119.9 87.35 -119.95 86.65 -119.9 86.55 -119.3 M3.1 -0.3 L3.1 -0.35 3.1 -0.3 3.1 -0.35 2.95 -0.5 2.85 -0.7 2.8 -0.75 2.5 -1.15 2.4 -1.25 2.15 -1.55 2.1 -1.55 2.0 -1.65 1.85 -1.75 1.7 -1.85 1.35 -2.0 1.3 -2.0 0.95 -2.1 0.7 -2.1 0.6 -2.15 0.45 -2.15 0.25 -2.1 -0.15 -2.0 -0.4 -1.9 -0.55 -1.85 -0.7 -1.75 -0.9 -1.65 -1.05 -1.55 -1.25 -1.4 -1.45 -1.15 -1.9 -0.4 -2.0 -0.15 -2.0 -0.1 -2.1 0.55 -2.1 0.8 -2.0 1.55 -1.95 1.65 -1.8 2.0 -1.65 2.25 -1.55 2.35 -1.35 2.55 -1.15 2.75 -1.1 2.8 -1.05 2.8 -0.7 2.95 -0.55 3.05 -0.35 3.1 -0.15 3.2 0.4 3.25 0.65 3.25 1.4 3.15 1.5 3.1 1.95 2.95 2.1 2.85 2.05 2.85 2.35 2.6 2.45 2.55 2.55 2.4 2.75 2.15 2.8 2.1 3.0 1.8 3.05 1.75 3.1 1.65 3.3 0.8 3.3 0.55 3.2 -0.1 3.15 -0.15 3.1 -0.3 M2.95 -3.45 L3.0 -3.4 3.3 -3.15 3.65 -2.85 3.85 -2.6 3.9 -2.55 4.6 -1.7 4.6 -1.65 4.8 -1.35 4.85 -1.25 4.95 -1.1 5.1 -0.6 5.3 0.35 5.3 0.45 5.3 0.85 5.3 0.95 4.85 2.6 4.8 2.7 4.7 2.85 4.65 2.9 4.55 3.1 4.3 3.4 4.05 3.7 3.7 4.1 3.65 4.15 3.25 4.45 3.2 4.5 2.9 4.7 2.75 4.8 2.3 4.95 1.8 5.1 0.65 5.25 0.4 5.25 -0.65 5.15 -0.7 5.1 -1.0 5.0 -1.3 4.9 -1.45 4.85 -1.65 4.75 -1.8 4.65 -1.95 4.6 -2.55 4.15 -2.65 4.1 -2.8 3.95 -3.05 3.65 -3.2 3.5 -3.4 3.25 -3.5 3.0 -3.6 2.9 -3.8 2.45 -3.95 1.9 -4.1 0.8 -4.1 0.55 -3.9 -0.8 -3.85 -0.9 -3.85 -0.95 -2.9 -2.5 -2.7 -2.75 -2.25 -3.15 -2.05 -3.3 -1.8 -3.45 -1.7 -3.5 -1.35 -3.7 -1.2 -3.75 -1.05 -3.85 -0.85 -3.9 -0.05 -4.1 0.45 -4.15 0.6 -4.15 1.1 -4.1 2.1 -3.85 2.6 -3.65 2.85 -3.5 2.95 -3.45 M1.15 -116.5 L0.7 -116.75 -68.5 -94.3 -110.9 -35.65 -110.9 37.0 -68.5 95.4 0.5 117.8 69.5 95.4 112.1 36.95 112.1 -35.65 69.35 -94.45 68.85 -94.5 1.15 -116.5 M3.0 -145.8 L2.95 -145.7 3.0 -145.8 M141.1 47.25 L141.45 47.2 141.4 47.2 140.4 46.9 Q140.55 47.25 141.1 47.25 M3.15 4.25 L3.05 4.3 3.2 4.25 3.15 4.25 M-85.75 120.9 L-85.7 120.9 -85.65 120.9 -85.6 120.8 -85.55 120.7 -85.5 120.6 -85.65 120.85 -85.75 120.9 M-139.75 47.2 L-139.8 47.25 -139.7 47.2 -139.75 47.2 M-140.5 47.15 L-140.75 47.0 Q-140.6 47.2 -140.25 47.25 L-140.5 47.15 M-85.65 -119.5 L-85.5 -119.3 Q-85.65 -119.9 -86.35 -119.95 L-86.5 -119.95 -86.3 -119.9 -85.65 -119.5 M86.75 120.9 L86.7 120.85 86.55 120.65 86.75 120.9" fill="#000000" fill-rule="evenodd" stroke="none" class="line" />
    </g>
  </defs>
  <g transform="matrix(1.0, 0.0, 0.0, 1.0, 0.0, 0.0)">
    <use height="7.4" id="fill" transform="matrix(0.3487, 0.0, 0.0, 0.3318, 48.7191, 48.7549)" width="7.4" xlink:href="#sprite0" />
    <use height="301.4" id="line" transform="matrix(0.3487, 0.0, 0.0, 0.3318, 0.0238, -0.0178)" width="286.8" xlink:href="#sprite1" />
  </g>
</svg>