<?xml version="1.0" encoding="UTF-8" standalone="no"?>
<svg xmlns:xlink="http://www.w3.org/1999/xlink" height="100%" width="100%" xmlns="http://www.w3.org/2000/svg" preserveAspectRatio="none" viewBox="0 0 100 100">
  <defs>
    <g id="sprite0" transform="matrix(1.0, 0.0, 0.0, 1.0, 81.0, 48.6)">
      <use height="97.2" transform="matrix(1.0, 0.0, 0.0, 1.0, -81.0, -48.6)" width="162.0" xlink:href="#shape0" />
    </g>
    <g id="shape0" transform="matrix(1.0, 0.0, 0.0, 1.0, 81.0, 48.6)">
      <path d="M79.95 -47.55 Q81.0 -46.5 81.0 -45.0 L81.0 45.0 Q81.0 46.45 79.95 47.55 78.9 48.6 77.4 48.6 L-77.4 48.6 Q-78.9 48.6 -79.95 47.55 -81.0 46.45 -81.0 45.0 L-81.0 -45.0 Q-81.0 -46.5 -79.95 -47.55 -78.9 -48.6 -77.4 -48.6 L77.4 -48.6 Q78.9 -48.6 79.95 -47.55" fill="#ffffff" fill-rule="evenodd" stroke="none" class="fill" />
    </g>
    <g id="sprite1" transform="matrix(1.0, 0.0, 0.0, 1.0, 82.5, 50.1)">
      <use height="100.2" transform="matrix(1.0, 0.0, 0.0, 1.0, -82.5, -50.1)" width="165.0" xlink:href="#shape1" />
    </g>
    <g id="shape1" transform="matrix(1.0, 0.0, 0.0, 1.0, 82.5, 50.1)">
      <path d="M79.5 -47.1 L-79.5 -47.1 -79.5 47.1 79.5 47.1 79.5 -47.1 M-82.5 -50.1 L82.5 -50.1 82.5 50.1 -82.5 50.1 -82.5 -50.1" fill="#000000" fill-rule="evenodd" stroke="none" class="lines" />
      <path d="M-59.5 -36.45 Q-59.5 -35.45 -60.5 -35.45 -61.5 -35.45 -61.5 -36.45 -61.5 -37.45 -60.5 -37.45 -59.5 -37.45 -59.5 -36.45" fill="#000000" fill-rule="evenodd" stroke="none" class="lines" />
      <path d="M-55.8 -34.8 Q-55.8 -33.8 -56.85 -33.8 -57.85 -33.8 -57.85 -34.8 -57.85 -35.85 -56.85 -35.85 -55.8 -35.85 -55.8 -34.8" fill="#000000" fill-rule="evenodd" stroke="none" class="lines" />
      <path d="M-54.45 -31.25 Q-54.45 -30.25 -55.45 -30.25 -56.45 -30.25 -56.45 -31.25 -56.45 -32.25 -55.45 -32.25 -54.45 -32.25 -54.45 -31.25" fill="#000000" fill-rule="evenodd" stroke="none" class="lines" />
      <path d="M-56.0 -27.55 Q-56.0 -26.55 -57.0 -26.55 -58.0 -26.55 -58.0 -27.55 -58.0 -28.55 -57.0 -28.55 -56.0 -28.55 -56.0 -27.55" fill="#000000" fill-rule="evenodd" stroke="none" class="lines" />
      <path d="M-59.7 -26.05 Q-59.7 -25.05 -60.75 -25.05 -61.75 -25.05 -61.75 -26.05 -61.75 -27.05 -60.75 -27.05 -59.7 -27.05 -59.7 -26.05" fill="#000000" fill-rule="evenodd" stroke="none" class="lines" />
      <path d="M-63.4 -27.65 Q-63.4 -26.65 -64.4 -26.65 -65.4 -26.65 -65.4 -27.65 -65.4 -28.65 -64.4 -28.65 -63.4 -28.65 -63.4 -27.65" fill="#000000" fill-rule="evenodd" stroke="none" class="lines" />
      <path d="M-64.85 -31.4 Q-64.85 -30.4 -65.85 -30.4 -66.85 -30.4 -66.85 -31.4 -66.85 -32.4 -65.85 -32.4 -64.85 -32.4 -64.85 -31.4" fill="#000000" fill-rule="evenodd" stroke="none" class="lines" />
      <path d="M-63.2 -35.05 Q-63.2 -34.05 -64.25 -34.05 -65.25 -34.05 -65.25 -35.05 -65.25 -36.05 -64.25 -36.05 -63.2 -36.05 -63.2 -35.05" fill="#000000" fill-rule="evenodd" stroke="none" class="lines" />
      <path d="M64.5 -36.45 Q64.5 -35.45 63.5 -35.45 62.5 -35.45 62.5 -36.45 62.5 -37.45 63.5 -37.45 64.5 -37.45 64.5 -36.45" fill="#000000" fill-rule="evenodd" stroke="none" class="lines" />
      <path d="M68.2 -34.8 Q68.2 -33.8 67.15 -33.8 66.15 -33.8 66.15 -34.8 66.15 -35.85 67.15 -35.85 68.2 -35.85 68.2 -34.8" fill="#000000" fill-rule="evenodd" stroke="none" class="lines" />
      <path d="M69.55 -31.25 Q69.55 -30.25 68.55 -30.25 67.55 -30.25 67.55 -31.25 67.55 -32.25 68.55 -32.25 69.55 -32.25 69.55 -31.25" fill="#000000" fill-rule="evenodd" stroke="none" class="lines" />
      <path d="M68.0 -27.55 Q68.0 -26.55 67.0 -26.55 66.0 -26.55 66.0 -27.55 66.0 -28.55 67.0 -28.55 68.0 -28.55 68.0 -27.55" fill="#000000" fill-rule="evenodd" stroke="none" class="lines" />
      <path d="M64.3 -26.05 Q64.3 -25.05 63.25 -25.05 62.25 -25.05 62.25 -26.05 62.25 -27.05 63.25 -27.05 64.3 -27.05 64.3 -26.05" fill="#000000" fill-rule="evenodd" stroke="none" class="lines" />
      <path d="M60.6 -27.65 Q60.6 -26.65 59.6 -26.65 58.6 -26.65 58.6 -27.65 58.6 -28.65 59.6 -28.65 60.6 -28.65 60.6 -27.65" fill="#000000" fill-rule="evenodd" stroke="none" class="lines" />
      <path d="M59.15 -31.4 Q59.15 -30.4 58.15 -30.4 57.15 -30.4 57.15 -31.4 57.15 -32.4 58.15 -32.4 59.15 -32.4 59.15 -31.4" fill="#000000" fill-rule="evenodd" stroke="none" class="lines" />
      <path d="M60.8 -35.05 Q60.8 -34.05 59.75 -34.05 58.75 -34.05 58.75 -35.05 58.75 -36.05 59.75 -36.05 60.8 -36.05 60.8 -35.05" fill="#000000" fill-rule="evenodd" stroke="none" class="lines" />
      <path d="M64.5 25.55 Q64.5 26.55 63.5 26.55 62.5 26.55 62.5 25.55 62.5 24.55 63.5 24.55 64.5 24.55 64.5 25.55" fill="#000000" fill-rule="evenodd" stroke="none" class="lines" />
      <path d="M68.2 27.2 Q68.2 28.2 67.15 28.2 66.15 28.2 66.15 27.2 66.15 26.15 67.15 26.15 68.2 26.15 68.2 27.2" fill="#000000" fill-rule="evenodd" stroke="none" class="lines" />
      <path d="M69.55 30.75 Q69.55 31.75 68.55 31.75 67.55 31.75 67.55 30.75 67.55 29.75 68.55 29.75 69.55 29.75 69.55 30.75" fill="#000000" fill-rule="evenodd" stroke="none" class="lines" />
      <path d="M68.0 34.45 Q68.0 35.45 67.0 35.45 66.0 35.45 66.0 34.45 66.0 33.45 67.0 33.45 68.0 33.45 68.0 34.45" fill="#000000" fill-rule="evenodd" stroke="none" class="lines" />
      <path d="M64.3 35.95 Q64.3 36.95 63.25 36.95 62.25 36.95 62.25 35.95 62.25 34.95 63.25 34.95 64.3 34.95 64.3 35.95" fill="#000000" fill-rule="evenodd" stroke="none" class="lines" />
      <path d="M60.6 34.35 Q60.6 35.35 59.6 35.35 58.6 35.35 58.6 34.35 58.6 33.35 59.6 33.35 60.6 33.35 60.6 34.35" fill="#000000" fill-rule="evenodd" stroke="none" class="lines" />
      <path d="M59.15 30.6 Q59.15 31.6 58.15 31.6 57.15 31.6 57.15 30.6 57.15 29.6 58.15 29.6 59.15 29.6 59.15 30.6" fill="#000000" fill-rule="evenodd" stroke="none" class="lines" />
      <path d="M60.8 26.95 Q60.8 27.95 59.75 27.95 58.75 27.95 58.75 26.95 58.75 25.95 59.75 25.95 60.8 25.95 60.8 26.95" fill="#000000" fill-rule="evenodd" stroke="none" class="lines" />
      <path d="M-59.5 25.55 Q-59.5 26.55 -60.5 26.55 -61.5 26.55 -61.5 25.55 -61.5 24.55 -60.5 24.55 -59.5 24.55 -59.5 25.55" fill="#000000" fill-rule="evenodd" stroke="none" class="lines" />
      <path d="M-55.8 27.2 Q-55.8 28.2 -56.85 28.2 -57.85 28.2 -57.85 27.2 -57.85 26.15 -56.85 26.15 -55.8 26.15 -55.8 27.2" fill="#000000" fill-rule="evenodd" stroke="none" class="lines" />
      <path d="M-54.45 30.75 Q-54.45 31.75 -55.45 31.75 -56.45 31.75 -56.45 30.75 -56.45 29.75 -55.45 29.75 -54.45 29.75 -54.45 30.75" fill="#000000" fill-rule="evenodd" stroke="none" class="lines" />
      <path d="M-56.0 34.45 Q-56.0 35.45 -57.0 35.45 -58.0 35.45 -58.0 34.45 -58.0 33.45 -57.0 33.45 -56.0 33.45 -56.0 34.45" fill="#000000" fill-rule="evenodd" stroke="none" class="lines" />
      <path d="M-59.7 35.95 Q-59.7 36.95 -60.75 36.95 -61.75 36.95 -61.75 35.95 -61.75 34.95 -60.75 34.95 -59.7 34.95 -59.7 35.95" fill="#000000" fill-rule="evenodd" stroke="none" class="lines" />
      <path d="M-63.4 34.35 Q-63.4 35.35 -64.4 35.35 -65.4 35.35 -65.4 34.35 -65.4 33.35 -64.4 33.35 -63.4 33.35 -63.4 34.35" fill="#000000" fill-rule="evenodd" stroke="none" class="lines" />
      <path d="M-64.85 30.6 Q-64.85 31.6 -65.85 31.6 -66.85 31.6 -66.85 30.6 -66.85 29.6 -65.85 29.6 -64.85 29.6 -64.85 30.6" fill="#000000" fill-rule="evenodd" stroke="none" class="lines" />
      <path d="M-63.2 26.95 Q-63.2 27.95 -64.25 27.95 -65.25 27.95 -65.25 26.95 -65.25 25.95 -64.25 25.95 -63.2 25.95 -63.2 26.95" fill="#000000" fill-rule="evenodd" stroke="none" class="lines" />
    </g>
  </defs>
  <g transform="matrix(1.0, 0.0, 0.0, 1.0, 0.0, 0.0)">
    <use height="97.2" id="fill" transform="matrix(0.6061, 0.0, 0.0, 0.998, 0.9088, 1.4971)" width="162.0" xlink:href="#sprite0" />
    <use height="100.2" id="lines" transform="matrix(0.6061, 0.0, 0.0, 0.998, -0.0003, 0.0001)" width="165.0" xlink:href="#sprite1" />
  </g>
</svg>