<?xml version="1.0" encoding="UTF-8" standalone="no"?>
<svg xmlns:xlink="http://www.w3.org/1999/xlink" height="100%" width="100%" xmlns="http://www.w3.org/2000/svg" preserveAspectRatio="none" viewBox="0 0 100 100">
  <defs>
    <g id="sprite0" transform="matrix(1.0, 0.0, 0.0, 1.0, 30.0, 48.0)">
      <use height="96.0" transform="matrix(1.0, 0.0, 0.0, 1.0, -30.0, -48.0)" width="60.0" xlink:href="#shape0" />
    </g>
    <g id="shape0" transform="matrix(1.0, 0.0, 0.0, 1.0, 30.0, 48.0)">
      <path d="M-21.2 -39.2 Q-12.4 -48.0 0.0 -48.0 12.4 -48.0 21.2 -39.2 30.0 -30.4 30.0 -18.0 L30.0 48.0 -30.0 48.0 -30.0 -18.0 Q-30.0 -30.4 -21.2 -39.2" fill="#ffffff" fill-rule="evenodd" stroke="none" class="fill" />
    </g>
    <g id="sprite1" transform="matrix(1.0, 0.0, 0.0, 1.0, 31.0, 49.0)">
      <use height="98.0" transform="matrix(1.0, 0.0, 0.0, 1.0, -31.0, -49.0)" width="62.0" xlink:href="#shape1" />
    </g>
    <g id="shape1" transform="matrix(1.0, 0.0, 0.0, 1.0, 31.0, 49.0)">
      <path d="M20.5 -38.5 Q12.0 -47.0 0.0 -47.0 -12.0 -47.0 -20.5 -38.5 -29.0 -30.0 -29.0 -18.0 L-29.0 47.0 29.0 47.0 29.0 -18.0 Q29.0 -30.0 20.5 -38.5 M0.0 -49.0 Q12.8 -49.0 21.9 -39.9 31.0 -30.8 31.0 -18.0 L31.0 48.0 30.7 48.7 Q30.4 49.0 30.0 49.0 L-30.0 49.0 Q-30.4 49.0 -30.7 48.7 L-31.0 48.0 -31.0 -18.0 Q-31.0 -30.8 -21.9 -39.9 -12.8 -49.0 0.0 -49.0" fill="#000000" fill-rule="evenodd" stroke="none" class="line" />
    </g>
  </defs>
  <g transform="matrix(1.0, 0.0, 0.0, 1.0, 0.0, 0.0)">
    <use height="96.0" id="fill" transform="matrix(1.6129, 0.0, 0.0, 1.0204, 1.613, 1.0208)" width="60.0" xlink:href="#sprite0" />
    <use height="98.0" id="line" transform="matrix(1.6129, 0.0, 0.0, 1.0204, 0.0001, 0.0004)" width="62.0" xlink:href="#sprite1" />
  </g>
</svg>