<?xml version="1.0" encoding="UTF-8" standalone="no"?>
<svg xmlns:xlink="http://www.w3.org/1999/xlink" height="100%" width="100%" xmlns="http://www.w3.org/2000/svg" preserveAspectRatio="none" viewBox="0 0 100 100">
  <defs>
    <g id="sprite0" transform="matrix(1.0, 0.0, 0.0, 1.0, 66.15, 66.2)">
      <use height="102.2" transform="matrix(1.0, 0.0, 0.0, 1.0, -66.15, -66.2)" width="132.3" xlink:href="#shape0" />
    </g>
    <g id="shape0" transform="matrix(1.0, 0.0, 0.0, 1.0, 66.15, 66.2)">
      <path d="M19.35 -65.2 L19.35 -63.4 19.3 -63.1 19.25 -62.9 18.9 -62.5 Q15.05 -58.1 15.9 -50.8 18.85 -40.35 19.45 -30.35 22.6 -28.3 25.45 -25.45 28.3 -22.6 30.4 -19.4 40.35 -18.85 50.75 -15.9 58.05 -15.05 62.45 -18.9 L62.85 -19.25 63.05 -19.3 63.35 -19.35 65.15 -19.35 Q66.15 -19.35 66.15 -18.35 L66.15 18.3 Q66.15 19.3 65.15 19.3 L63.35 19.3 63.05 19.25 62.85 19.2 62.45 18.85 Q58.05 15.0 50.75 15.85 40.35 18.8 30.4 19.4 28.3 22.55 25.45 25.45 14.9 36.0 0.0 36.0 -14.9 36.0 -25.45 25.45 -28.35 22.55 -30.4 19.35 -40.35 18.75 -50.75 15.8 -58.05 14.95 -62.45 18.8 L-62.85 19.15 -63.05 19.2 -63.35 19.25 -65.15 19.25 Q-66.15 19.25 -66.15 18.25 L-66.15 -18.4 Q-66.15 -19.4 -65.15 -19.4 L-63.35 -19.4 -63.05 -19.35 -62.85 -19.3 -62.45 -18.95 Q-58.05 -15.1 -50.75 -15.95 -40.35 -18.9 -30.35 -19.45 -28.3 -22.6 -25.45 -25.45 -22.6 -28.3 -19.35 -30.4 -18.8 -40.4 -15.85 -50.8 -15.0 -58.1 -18.85 -62.5 L-19.2 -62.9 -19.25 -63.1 -19.3 -63.4 -19.3 -65.2 Q-19.3 -66.2 -18.3 -66.2 L18.35 -66.2 Q19.35 -66.2 19.35 -65.2" fill="#ffffff" fill-rule="evenodd" stroke="none" class="fill" />
    </g>
    <g id="sprite1" transform="matrix(1.0, 0.0, 0.0, 1.0, 66.65, 66.7)">
      <use height="103.2" transform="matrix(1.0, 0.0, 0.0, 1.0, -66.65, -66.7)" width="133.3" xlink:href="#shape1" />
    </g>
    <g id="shape1" transform="matrix(1.0, 0.0, 0.0, 1.0, 66.65, 66.7)">
      <path d="M-53.25 -13.65 Q-53.25 -14.65 -52.85 -15.3 -58.2 -15.2 -61.85 -17.8 L-61.85 17.7 Q-58.2 15.05 -52.85 15.15 -53.25 14.5 -53.25 13.5 L-53.25 -13.65 M-50.65 -15.45 L-50.7 -15.45 Q-52.25 -15.2 -52.25 -13.65 L-52.25 13.5 Q-52.25 15.05 -50.7 15.3 L-50.65 15.3 -50.5 15.35 Q-40.75 18.1 -31.35 18.8 -36.5 10.4 -36.5 0.0 -36.5 -10.55 -31.3 -18.9 -40.7 -18.25 -50.5 -15.5 L-50.65 -15.45 M-63.35 -18.9 L-65.15 -18.9 Q-65.65 -18.9 -65.65 -18.4 L-65.65 18.25 Q-65.65 18.75 -65.15 18.75 L-63.35 18.75 -63.2 18.75 -63.05 18.7 -63.0 18.7 -62.9 18.6 -62.85 18.25 -62.85 -18.4 -62.9 -18.75 -63.0 -18.8 -63.05 -18.85 -63.2 -18.85 -63.35 -18.9 M63.1 -18.8 L63.05 -18.75 62.95 -18.7 62.85 -18.35 62.85 18.3 62.95 18.65 63.05 18.75 63.1 18.75 63.2 18.8 63.35 18.8 65.15 18.8 Q65.65 18.8 65.65 18.3 L65.65 -18.35 Q65.65 -18.85 65.15 -18.85 L63.35 -18.85 63.2 -18.8 63.1 -18.8 M52.85 -15.25 Q53.25 -14.6 53.25 -13.6 L53.25 13.55 Q53.25 14.55 52.85 15.2 58.2 15.1 61.85 17.75 L61.85 -17.75 Q58.2 -15.1 52.85 -15.25 M52.25 -13.6 Q52.25 -15.15 50.7 -15.4 L50.55 -15.45 Q40.75 -18.2 31.35 -18.85 36.5 -10.5 36.5 0.0 36.5 10.45 31.35 18.85 40.7 18.15 50.5 15.4 L50.7 15.35 Q52.25 15.1 52.25 13.55 L52.25 -13.6 M25.1 -25.1 Q22.65 -27.55 20.0 -29.4 L18.95 -30.1 Q10.6 -35.5 0.0 -35.5 -10.55 -35.5 -18.9 -30.1 L-19.9 -29.4 Q-22.65 -27.55 -25.1 -25.1 -27.5 -22.7 -29.35 -20.0 L-30.05 -19.0 Q-35.5 -10.65 -35.5 0.0 -35.5 10.5 -30.15 18.85 L-29.45 19.9 Q-27.6 22.6 -25.1 25.1 -14.7 35.5 0.0 35.5 14.7 35.5 25.1 25.1 27.55 22.65 29.45 19.95 L30.15 18.9 Q35.5 10.55 35.5 0.0 35.5 -10.6 30.1 -18.95 L29.4 -19.95 Q27.55 -22.65 25.1 -25.1 M15.45 -50.55 L15.4 -50.7 15.4 -50.75 Q15.15 -52.3 13.6 -52.3 L-13.55 -52.3 Q-15.1 -52.3 -15.35 -50.75 L-15.35 -50.7 -15.4 -50.55 Q-18.15 -40.75 -18.8 -31.35 -10.5 -36.5 0.0 -36.5 10.5 -36.5 18.9 -31.3 18.2 -40.75 15.45 -50.55 M13.6 -53.3 Q14.6 -53.3 15.25 -52.9 15.15 -58.25 17.8 -61.9 L-17.7 -61.9 Q-15.1 -58.25 -15.2 -52.9 -14.55 -53.3 -13.55 -53.3 L13.6 -53.3 M18.85 -65.2 Q18.85 -65.7 18.35 -65.7 L-18.3 -65.7 Q-18.8 -65.7 -18.8 -65.2 L-18.8 -63.4 -18.75 -63.25 -18.75 -63.1 -18.7 -63.05 -18.65 -62.95 -18.3 -62.9 18.35 -62.9 18.7 -62.95 18.8 -63.05 18.8 -63.1 18.85 -63.25 18.85 -63.4 18.85 -65.2 M18.35 -66.7 Q19.85 -66.7 19.85 -65.2 L19.85 -63.4 19.8 -63.0 19.75 -62.7 19.7 -62.65 19.25 -62.1 Q15.6 -57.85 16.4 -50.85 L16.4 -50.8 Q19.3 -40.5 19.95 -30.65 23.0 -28.6 25.8 -25.8 28.6 -23.0 30.65 -19.9 40.5 -19.3 50.8 -16.4 L50.85 -16.4 Q57.8 -15.6 62.1 -19.2 L62.65 -19.7 62.7 -19.7 63.0 -19.8 63.35 -19.85 65.15 -19.85 Q66.65 -19.85 66.65 -18.35 L66.65 18.3 Q66.65 19.8 65.15 19.8 L63.35 19.8 63.0 19.75 62.7 19.7 62.65 19.65 62.1 19.2 Q57.8 15.55 50.85 16.35 L50.8 16.35 Q40.5 19.25 30.7 19.85 28.6 23.0 25.8 25.8 15.1 36.5 0.0 36.5 -15.1 36.5 -25.8 25.8 -28.65 22.95 -30.7 19.8 -40.55 19.2 -50.75 16.3 L-50.8 16.3 Q-57.8 15.5 -62.05 19.15 L-62.6 19.6 -62.65 19.65 -62.95 19.7 -63.35 19.75 -65.15 19.75 Q-66.65 19.75 -66.65 18.25 L-66.65 -18.4 Q-66.65 -19.9 -65.15 -19.9 L-63.35 -19.9 -62.95 -19.85 -62.65 -19.75 -62.6 -19.75 -62.05 -19.25 Q-57.8 -15.65 -50.8 -16.45 L-50.75 -16.45 Q-40.5 -19.35 -30.6 -19.95 -28.55 -23.05 -25.8 -25.8 -23.0 -28.6 -19.85 -30.7 -19.25 -40.55 -16.35 -50.8 L-16.35 -50.85 Q-15.55 -57.85 -19.15 -62.1 L-19.65 -62.65 -19.65 -62.7 -19.75 -63.0 -19.8 -63.4 -19.8 -65.2 Q-19.8 -66.7 -18.3 -66.7 L18.35 -66.7" fill="#000000" fill-rule="evenodd" stroke="none" class="line" />
    </g>
  </defs>
  <g transform="matrix(1.0, 0.0, 0.0, 1.0, 0.0, 0.0)">
    <use height="102.2" id="fill" transform="matrix(0.7502, 0.0, 0.0, 0.969, 0.3754, 0.5026)" width="132.3" xlink:href="#sprite0" />
    <use height="103.2" id="line" transform="matrix(0.7502, 0.0, 0.0, 0.969, 0.0003, 0.0181)" width="133.3" xlink:href="#sprite1" />
  </g>
</svg>