<?xml version="1.0" encoding="UTF-8" standalone="no"?>
<svg xmlns:xlink="http://www.w3.org/1999/xlink" height="100%" width="100%" xmlns="http://www.w3.org/2000/svg" preserveAspectRatio="none" viewBox="0 0 100 100">
  <defs>
    <g id="sprite0" transform="matrix(1.0, 0.0, 0.0, 1.0, 48.1, 21.9)">
      <use height="43.9" transform="matrix(1.0, 0.0, 0.0, 1.0, -48.1, -21.9)" width="96.3" xlink:href="#shape0" />
    </g>
    <g id="shape0" transform="matrix(1.0, 0.0, 0.0, 1.0, 48.1, 21.9)">
      <path d="M0.1 -21.9 Q26.8 -21.9 48.2 -9.3 L30.2 22.0 Q16.8 14.1 0.1 14.1 -16.6 14.1 -30.0 22.0 L-48.1 -9.2 Q-26.6 -21.9 0.1 -21.9" fill="#ffffff" fill-rule="evenodd" stroke="none" class="fill" />
    </g>
    <g id="sprite1" transform="matrix(1.0, 0.0, 0.0, 1.0, 48.6, 22.4)">
      <use height="44.9" transform="matrix(1.0, 0.0, 0.0, 1.0, -48.6, -22.4)" width="97.3" xlink:href="#shape1" />
    </g>
    <g id="shape1" transform="matrix(1.0, 0.0, 0.0, 1.0, 48.6, 22.4)">
      <path d="M47.55 -9.1 Q26.4 -21.4 0.1 -21.4 -26.2 -21.4 -47.4 -9.0 L-29.8 21.35 Q-16.45 13.6 0.1 13.6 16.65 13.6 30.05 21.35 L47.55 -9.1 M48.45 -9.7 L48.7 -9.4 48.65 -9.05 30.65 22.25 30.35 22.5 29.95 22.45 Q16.65 14.6 0.1 14.6 -16.45 14.6 -29.75 22.45 L-30.1 22.5 -30.4 22.25 -48.5 -8.95 -48.55 -9.3 -48.35 -9.6 Q-26.75 -22.4 0.1 -22.4 26.95 -22.4 48.45 -9.7" fill="#000000" fill-rule="evenodd" stroke="none" class="line" />
    </g>
  </defs>
  <g transform="matrix(1.0, 0.0, 0.0, 1.0, 0.0, 0.0)">
    <use height="43.9" id="fill" transform="matrix(1.0278, 0.0, 0.0, 2.2272, 0.5149, 1.1249)" width="96.3" xlink:href="#sprite0" />
    <use height="44.9" id="line" transform="matrix(1.0278, 0.0, 0.0, 2.2272, 0.0011, 0.0113)" width="97.3" xlink:href="#sprite1" />
  </g>
</svg>