<?xml version="1.0" encoding="UTF-8" standalone="no"?>
<svg xmlns:xlink="http://www.w3.org/1999/xlink" height="100%" width="100%" xmlns="http://www.w3.org/2000/svg" preserveAspectRatio="none" viewBox="0 0 100 100">
  <defs>
    <g id="sprite0" transform="matrix(1.0, 0.0, 0.0, 1.0, 92.0, 92.0)">
      <use height="184.0" transform="matrix(1.0, 0.0, 0.0, 1.0, -92.0, -92.0)" width="184.0" xlink:href="#shape0" />
    </g>
    <g id="shape0" transform="matrix(1.0, 0.0, 0.0, 1.0, 92.0, 92.0)">
      <path d="M-13.15 -79.25 L-13.1 -79.45 Q-12.45 -83.3 -13.85 -86.55 L-15.35 -89.0 -15.75 -89.2 -15.95 -89.65 -15.95 -91.3 Q-15.95 -92.0 -15.3 -92.0 L15.15 -92.0 Q15.85 -92.0 15.85 -91.3 L15.85 -89.65 15.9 -89.65 Q15.9 -89.1 15.3 -89.0 L15.25 -89.0 13.8 -86.55 Q12.5 -83.3 13.1 -79.45 L13.1 -79.25 14.2 -74.85 15.4 -68.9 15.95 -62.6 Q15.95 -60.9 14.6 -60.8 L0.0 -60.0 -14.6 -60.8 Q-15.95 -60.9 -15.95 -62.6 L-15.4 -68.9 Q-14.95 -72.0 -13.15 -79.25" fill="#ffffff" fill-rule="evenodd" stroke="none" class="fill" />
      <path d="M-65.45 -63.15 L-66.45 -64.45 Q-66.8 -65.0 -66.3 -65.45 L-41.65 -83.35 -41.15 -83.5 Q-40.85 -83.45 -40.7 -83.2 L-39.75 -81.9 -39.7 -81.9 Q-39.3 -81.45 -39.8 -81.05 L-39.8 -81.0 -39.55 -78.15 Q-38.75 -74.75 -36.0 -72.0 L-35.85 -71.85 Q-29.55 -66.5 -27.95 -64.8 L-23.8 -60.05 Q-22.85 -58.7 -23.85 -57.8 L-37.05 -47.2 -47.45 -40.6 Q-48.65 -39.9 -49.6 -41.25 L-52.85 -46.65 Q-54.15 -49.1 -57.05 -56.35 L-57.15 -56.55 Q-58.9 -60.05 -61.9 -61.85 L-64.55 -62.95 -64.7 -62.95 -65.0 -62.9 Q-65.3 -62.9 -65.45 -63.15" fill="#ffffff" fill-rule="evenodd" stroke="none" class="fill" />
      <path d="M91.5 13.0 L91.95 13.35 91.95 13.85 82.55 42.9 Q82.35 43.55 81.7 43.35 L80.15 42.85 80.1 42.9 Q79.55 42.7 79.65 42.1 L79.65 42.05 Q79.1 41.05 77.8 39.9 75.15 37.65 71.3 37.05 L71.1 37.0 60.55 35.95 54.45 34.55 Q52.8 34.05 53.15 32.7 L56.75 19.0 Q53.85 27.75 48.45 35.25 43.35 42.35 36.4 47.7 L47.45 40.6 Q48.65 39.9 49.6 41.25 L52.8 46.65 Q54.15 49.15 57.05 56.35 L57.15 56.55 Q58.9 60.05 61.9 61.85 63.4 62.75 64.55 62.95 L64.65 62.95 65.0 62.9 Q65.3 62.9 65.45 63.15 L66.4 64.45 Q66.85 64.95 66.25 65.45 L41.65 83.35 41.15 83.5 40.7 83.2 39.7 81.9 39.7 81.95 Q39.35 81.45 39.75 81.05 L39.8 81.0 Q39.95 79.85 39.55 78.15 38.75 74.75 36.0 72.0 L35.8 71.85 Q29.9 66.9 27.95 64.8 24.9 61.6 23.8 60.05 22.8 58.75 23.85 57.8 L35.1 48.55 Q27.65 54.0 18.95 56.95 9.95 59.95 0.35 60.0 L14.55 60.8 Q15.95 60.9 15.95 62.6 15.95 64.55 15.35 68.9 15.05 71.55 13.1 79.25 L13.1 79.45 Q12.5 83.3 13.85 86.55 14.5 88.15 15.3 89.0 L15.45 89.05 15.7 89.2 15.95 89.65 15.95 91.3 Q15.95 92.0 15.25 92.0 L-15.2 92.0 Q-15.85 92.0 -15.85 91.3 L-15.85 89.65 -15.9 89.65 Q-15.9 89.1 -15.3 89.0 L-15.25 89.0 Q-14.45 88.15 -13.8 86.55 -12.45 83.3 -13.1 79.45 L-13.15 79.25 Q-15.05 71.55 -15.4 68.9 L-15.95 62.6 Q-15.95 60.9 -14.6 60.8 L-0.35 60.0 Q-10.0 59.95 -19.0 56.9 -27.45 54.05 -34.75 48.85 L-23.85 57.8 Q-22.85 58.7 -23.8 60.05 L-27.95 64.8 Q-29.55 66.5 -35.85 71.85 L-36.0 72.0 Q-38.75 74.75 -39.5 78.2 -39.9 79.9 -39.75 81.05 L-39.7 81.15 -39.6 81.45 -39.65 81.95 -40.6 83.3 -41.55 83.45 -66.2 65.5 Q-66.75 65.05 -66.35 64.5 L-65.4 63.2 -65.45 63.15 Q-65.05 62.65 -64.55 63.0 L-64.5 63.0 -61.85 61.9 Q-58.9 60.05 -57.15 56.55 L-57.05 56.35 Q-54.15 49.1 -52.85 46.65 L-49.6 41.25 Q-48.65 39.95 -47.45 40.6 L-35.55 48.25 Q-42.95 42.75 -48.4 35.3 -53.85 27.75 -56.8 18.9 L-56.25 20.75 -53.2 32.7 Q-52.85 34.05 -54.45 34.55 L-60.6 35.95 -71.1 37.0 -71.3 37.05 Q-75.15 37.65 -77.8 39.95 L-79.65 42.1 -79.65 42.25 -79.75 42.55 -80.1 42.95 -81.65 43.45 Q-82.3 43.6 -82.55 43.0 L-91.95 13.95 -91.9 13.45 -91.5 13.1 -89.95 12.6 -89.95 12.55 Q-89.4 12.35 -89.15 12.9 L-89.1 12.95 -86.35 13.6 Q-82.85 13.85 -79.4 12.05 L-79.2 11.95 Q-73.2 8.1 -70.1 6.6 -66.2 4.75 -64.3 4.15 -62.75 3.65 -62.2 4.9 L-57.2 17.7 Q-59.85 8.95 -59.85 0.0 -59.85 -9.1 -57.15 -17.8 L-62.2 -4.9 Q-62.75 -3.65 -64.3 -4.15 -66.2 -4.75 -70.1 -6.6 -73.2 -8.1 -79.2 -11.95 L-79.4 -12.05 Q-82.85 -13.85 -86.35 -13.55 L-89.15 -12.9 -89.2 -12.8 Q-89.4 -12.55 -89.5 -12.55 L-90.0 -12.5 -91.55 -13.0 -91.95 -13.35 -91.95 -13.85 -82.55 -42.9 Q-82.35 -43.55 -81.7 -43.35 L-80.15 -42.85 -80.15 -42.9 Q-79.6 -42.75 -79.7 -42.1 L-79.7 -42.05 -77.8 -39.9 Q-75.15 -37.65 -71.3 -37.05 L-71.1 -37.0 -60.6 -35.95 -54.45 -34.55 Q-52.85 -34.05 -53.2 -32.7 L-56.85 -18.7 Q-50.9 -36.95 -35.45 -48.35 -19.65 -60.0 0.0 -60.0 19.65 -60.0 35.4 -48.4 50.85 -37.0 56.8 -18.8 L53.15 -32.7 Q52.8 -34.0 54.45 -34.55 L60.55 -35.95 71.1 -37.0 71.3 -37.05 Q75.15 -37.65 77.8 -39.95 79.1 -41.05 79.65 -42.1 L79.65 -42.25 79.75 -42.55 80.1 -42.95 81.65 -43.45 Q82.3 -43.65 82.5 -43.0 L91.95 -13.95 Q92.15 -13.3 91.5 -13.1 L89.95 -12.6 89.95 -12.55 Q89.4 -12.35 89.15 -12.9 L89.1 -12.95 Q88.05 -13.45 86.35 -13.6 82.85 -13.85 79.4 -12.05 L79.2 -11.95 Q73.4 -8.2 70.1 -6.6 66.2 -4.75 64.3 -4.15 62.65 -3.6 62.2 -4.9 L57.15 -17.75 Q59.85 -9.1 59.85 0.0 59.85 8.95 57.2 17.7 L62.2 4.9 Q62.65 3.6 64.3 4.15 66.2 4.75 70.1 6.6 73.4 8.2 79.2 11.95 L79.4 12.05 Q82.85 13.85 86.3 13.55 L89.1 12.9 89.45 12.55 89.95 12.5 91.5 13.0" fill="#ffffff" fill-rule="evenodd" stroke="none" class="fill" />
      <path d="M23.85 -57.8 Q22.85 -58.7 23.8 -60.05 24.9 -61.6 27.95 -64.8 29.9 -66.9 35.8 -71.85 L36.0 -72.0 Q38.75 -74.75 39.55 -78.15 L39.75 -81.05 39.55 -81.45 39.65 -81.95 40.6 -83.3 41.55 -83.45 66.2 -65.5 Q66.7 -65.1 66.35 -64.5 L65.4 -63.2 65.4 -63.15 Q65.05 -62.7 64.55 -63.0 L64.5 -63.0 Q63.35 -62.8 61.9 -61.85 58.9 -60.05 57.15 -56.55 L57.05 -56.35 Q54.15 -49.15 52.8 -46.65 L49.6 -41.25 Q48.65 -39.9 47.45 -40.6 L37.05 -47.2 23.85 -57.8" fill="#ffffff" fill-rule="evenodd" stroke="none" class="fill" />
    </g>
    <g id="sprite1" transform="matrix(1.0, 0.0, 0.0, 1.0, 92.35, 92.35)">
      <use height="184.7" transform="matrix(1.0, 0.0, 0.0, 1.0, -92.35, -92.35)" width="184.7" xlink:href="#shape1" />
    </g>
    <g id="shape1" transform="matrix(1.0, 0.0, 0.0, 1.0, 92.35, 92.35)">
      <path d="M66.05 65.15 Q66.35 64.95 66.15 64.65 L65.25 63.45 65.15 63.4 64.95 63.25 64.9 63.25 64.65 63.3 40.05 81.25 Q39.85 81.45 40.0 81.7 L40.95 83.0 41.2 83.15 41.45 83.1 66.05 65.15 M63.75 63.1 Q60.15 61.95 57.75 58.25 57.55 59.05 56.6 59.7 L39.1 72.45 Q38.3 73.1 37.5 73.1 L37.4 73.05 Q40.05 76.45 40.2 80.3 L63.75 63.1 M47.6 40.9 L35.35 48.8 24.05 58.05 Q23.25 58.75 24.05 59.85 25.25 61.45 28.2 64.55 29.45 65.9 32.6 68.65 L36.05 71.55 36.05 71.6 36.1 71.65 36.2 71.7 Q36.5 72.1 37.2 72.35 37.9 72.5 38.7 71.9 L56.2 59.15 Q57.1 58.5 57.1 57.85 L56.85 56.75 56.75 56.6 56.75 56.5 56.7 56.45 Q53.75 49.05 52.5 46.85 50.3 42.8 49.3 41.45 48.5 40.4 47.6 40.9 M54.55 34.25 L60.65 35.6 71.05 36.65 71.2 36.65 71.35 36.7 72.5 36.6 Q73.05 36.4 73.45 35.35 L80.15 14.7 Q80.45 13.65 80.1 13.1 79.8 12.7 79.25 12.4 L79.1 12.3 79.05 12.3 79.0 12.25 78.95 12.25 Q77.65 11.35 75.05 9.8 71.55 7.7 69.95 6.95 65.85 5.0 64.2 4.45 62.9 4.05 62.5 5.0 L57.4 18.2 57.3 18.4 53.5 32.8 Q53.3 33.8 54.55 34.25 M73.1 37.05 Q77.45 38.3 79.55 41.25 L88.55 13.45 Q85.1 14.7 80.85 13.1 81.15 13.85 80.8 14.95 L74.1 35.55 Q73.85 36.55 73.1 37.05 M91.65 13.75 L91.4 13.35 89.85 12.85 89.6 12.9 89.55 12.9 89.45 13.1 80.0 42.1 Q80.0 42.45 80.25 42.5 L81.8 43.0 Q82.1 43.1 82.2 42.8 L91.65 13.75 M79.55 -41.3 Q77.2 -38.2 73.1 -37.05 73.85 -36.55 74.1 -35.55 L80.8 -14.95 Q81.15 -13.85 80.85 -13.1 84.95 -14.65 88.55 -13.5 L79.55 -41.3 M81.75 -43.1 L80.35 -42.65 80.25 -42.55 80.05 -42.4 80.0 -42.2 80.0 -42.15 89.4 -13.1 Q89.65 -12.85 89.85 -12.9 L91.4 -13.4 91.6 -13.85 82.2 -42.9 82.0 -43.1 81.75 -43.1 M54.55 -34.25 Q53.3 -33.8 53.5 -32.8 L56.55 -20.85 62.5 -5.0 Q62.9 -4.05 64.2 -4.45 65.85 -5.0 69.95 -6.95 72.4 -8.15 79.0 -12.25 L79.05 -12.25 79.1 -12.3 79.2 -12.35 80.1 -13.1 Q80.45 -13.65 80.15 -14.7 L73.45 -35.35 Q73.15 -36.4 72.5 -36.6 L71.35 -36.7 71.2 -36.65 71.05 -36.65 60.65 -35.6 54.55 -34.25 M24.05 -59.85 Q23.25 -58.75 24.05 -58.05 L37.25 -47.5 47.6 -40.9 Q48.5 -40.4 49.3 -41.45 50.3 -42.8 52.5 -46.85 54.1 -49.75 56.7 -56.45 L56.75 -56.5 56.75 -56.55 56.85 -56.7 57.1 -57.85 Q57.1 -58.45 56.2 -59.15 L38.7 -71.9 Q37.9 -72.5 37.2 -72.35 36.75 -72.25 36.25 -71.75 L36.15 -71.65 36.05 -71.6 36.05 -71.55 32.55 -68.6 28.2 -64.55 Q25.25 -61.45 24.05 -59.85 M40.15 -80.3 Q40.15 -76.55 37.4 -73.05 38.2 -73.1 39.15 -72.45 L56.6 -59.7 Q57.55 -59.05 57.75 -58.25 60.05 -61.85 63.7 -63.15 L40.15 -80.3 M40.9 -83.05 L40.0 -81.85 39.9 -81.5 39.95 -81.45 40.05 -81.25 64.65 -63.3 65.1 -63.4 66.05 -64.75 Q66.25 -65.05 66.0 -65.2 L41.35 -83.15 41.1 -83.2 40.9 -83.05 M15.25 91.65 L15.6 91.3 15.6 89.85 15.55 89.65 15.45 89.45 15.4 89.4 15.2 89.35 -15.2 89.35 -15.5 89.65 -15.5 91.3 -15.2 91.65 15.25 91.65 M14.6 88.65 Q12.4 85.6 12.55 81.15 11.9 81.7 10.8 81.7 L-10.8 81.7 Q-11.9 81.7 -12.55 81.15 -12.4 85.45 -14.55 88.65 L14.6 88.65 M0.35 60.35 L-14.55 61.15 Q-15.6 61.25 -15.6 62.6 L-15.05 68.85 Q-14.7 71.4 -12.8 79.1 L-12.8 79.25 -12.75 79.35 -12.3 80.45 Q-11.85 81.0 -10.8 81.0 L10.8 81.0 Q11.85 81.0 12.3 80.45 L12.75 79.4 12.75 79.2 12.8 79.15 12.8 79.1 13.9 74.6 15.05 68.85 15.6 62.6 Q15.6 61.25 14.55 61.15 L0.35 60.35 M-40.15 80.3 Q-40.15 76.55 -37.4 73.05 L-37.55 73.1 Q-38.3 73.1 -39.15 72.45 L-56.65 59.7 Q-57.55 59.05 -57.75 58.25 -60.05 61.8 -63.75 63.15 L-40.15 80.3 M-24.1 59.85 Q-23.3 58.75 -24.1 58.05 L-35.4 48.8 -47.65 40.9 Q-48.55 40.4 -49.35 41.45 L-52.5 46.85 -56.75 56.45 -56.75 56.5 -56.8 56.55 -56.85 56.7 -57.1 57.85 Q-57.1 58.5 -56.2 59.15 L-38.75 71.9 Q-37.9 72.5 -37.2 72.35 L-36.2 71.75 -36.15 71.65 -36.05 71.55 -32.55 68.6 -28.2 64.55 Q-25.2 61.4 -24.1 59.85 M-40.9 83.05 L-40.0 81.85 -40.0 81.7 Q-39.85 81.6 -39.95 81.5 L-39.95 81.45 -40.05 81.25 -64.65 63.3 -64.85 63.3 -65.1 63.4 -66.1 64.75 Q-66.3 65.0 -66.0 65.2 L-41.35 83.15 -41.1 83.2 -40.9 83.05 M-81.8 43.1 L-80.4 42.65 -80.25 42.55 -80.1 42.4 -80.0 42.2 -80.05 42.15 -89.45 13.1 Q-89.65 12.9 -89.75 12.9 L-89.85 12.9 -91.4 13.4 -91.6 13.85 -82.2 42.9 -82.05 43.1 -81.8 43.1 M-79.55 41.3 Q-77.4 38.25 -73.1 37.05 -73.8 36.6 -74.15 35.55 L-80.8 14.95 Q-81.15 13.85 -80.85 13.1 -85.0 14.65 -88.55 13.5 L-79.55 41.3 M-54.55 34.25 Q-53.3 33.8 -53.5 32.8 L-57.25 18.65 -62.5 5.0 Q-62.9 4.05 -64.2 4.45 -66.1 5.05 -69.95 6.95 -73.3 8.55 -79.0 12.25 L-79.05 12.25 -79.1 12.3 -79.2 12.35 -80.1 13.1 Q-80.5 13.75 -80.15 14.7 L-73.45 35.35 Q-73.15 36.4 -72.5 36.6 L-71.4 36.7 -71.25 36.65 -71.05 36.65 -60.65 35.6 -54.55 34.25 M-85.35 -13.95 Q-83.05 -13.95 -80.85 -13.1 -81.15 -13.85 -80.8 -14.95 L-74.15 -35.55 Q-73.8 -36.6 -73.1 -37.05 -77.45 -38.3 -79.55 -41.25 L-88.6 -13.45 -85.35 -13.95 M-91.65 -13.75 Q-91.75 -13.45 -91.45 -13.35 L-89.85 -12.85 -89.65 -12.9 -89.55 -12.95 -89.45 -13.1 -80.05 -42.1 -80.25 -42.5 -81.8 -43.0 -82.05 -43.0 -82.25 -42.8 -91.65 -13.75 M0.35 59.65 Q19.8 59.55 35.45 47.85 50.75 36.4 56.6 18.3 L56.8 17.75 Q59.5 9.1 59.5 0.0 59.5 -24.65 42.05 -42.15 24.6 -59.65 0.0 -59.65 -24.6 -59.65 -42.05 -42.15 -59.5 -24.65 -59.5 0.0 -59.5 24.6 -42.15 42.05 -24.85 59.5 -0.35 59.65 L0.35 59.65 M-62.5 -5.0 L-57.25 -18.65 -53.5 -32.8 Q-53.3 -33.8 -54.55 -34.25 L-60.65 -35.6 -71.1 -36.65 -71.2 -36.65 -71.35 -36.7 -72.5 -36.6 Q-73.15 -36.4 -73.45 -35.35 L-80.15 -14.7 Q-80.5 -13.75 -80.1 -13.1 L-79.25 -12.4 -79.1 -12.3 -79.05 -12.3 -79.05 -12.25 -79.0 -12.25 -69.95 -6.95 Q-66.1 -5.05 -64.2 -4.45 -62.9 -4.05 -62.5 -5.0 M-47.65 -40.9 L-37.25 -47.5 -24.1 -58.05 Q-23.3 -58.75 -24.1 -59.85 -25.2 -61.4 -28.2 -64.55 -29.45 -65.9 -32.6 -68.65 L-36.05 -71.55 -36.05 -71.6 -36.1 -71.65 -36.2 -71.7 -37.2 -72.35 Q-37.9 -72.5 -38.75 -71.9 L-56.2 -59.15 Q-57.1 -58.45 -57.1 -57.85 L-56.85 -56.75 -56.8 -56.6 -56.75 -56.5 -56.75 -56.45 Q-53.9 -49.35 -52.5 -46.85 L-49.35 -41.45 Q-48.55 -40.4 -47.65 -40.9 M-66.1 -65.15 Q-66.35 -64.95 -66.15 -64.65 L-65.25 -63.45 -65.15 -63.4 -64.95 -63.25 -64.9 -63.25 -64.7 -63.3 -40.05 -81.25 Q-39.85 -81.45 -40.0 -81.7 L-41.0 -83.0 -41.2 -83.15 -41.45 -83.1 -66.1 -65.15 M-63.75 -63.1 Q-60.15 -61.95 -57.75 -58.25 -57.55 -59.05 -56.65 -59.7 L-39.15 -72.45 Q-38.2 -73.1 -37.4 -73.05 -40.2 -76.55 -40.2 -80.3 L-63.75 -63.1 M-15.6 -62.6 Q-15.6 -61.25 -14.55 -61.15 L0.0 -60.35 14.55 -61.15 Q15.6 -61.25 15.6 -62.6 L15.05 -68.85 13.85 -74.7 12.8 -79.1 12.8 -79.15 12.75 -79.25 12.75 -79.35 12.3 -80.45 Q11.85 -81.0 10.8 -81.0 L-10.8 -81.0 Q-11.85 -81.0 -12.3 -80.45 L-12.75 -79.4 -12.75 -79.25 -12.8 -79.2 -12.8 -79.15 Q-14.6 -72.25 -15.05 -68.85 L-15.6 -62.6 M-14.6 -88.65 Q-12.4 -85.6 -12.55 -81.15 -11.9 -81.7 -10.8 -81.7 L10.8 -81.7 Q11.9 -81.7 12.55 -81.15 12.4 -85.65 14.55 -88.65 L-14.6 -88.65 M91.65 12.65 L92.2 13.2 92.3 13.95 82.9 43.0 Q82.65 43.75 81.9 43.75 L81.6 43.7 80.15 43.2 80.1 43.25 80.0 43.2 Q79.3 42.95 79.3 42.15 78.7 41.05 77.2 39.85 74.7 37.9 71.25 37.4 L71.05 37.35 60.5 36.3 54.35 34.9 Q52.4 34.3 52.85 32.6 L54.8 24.9 Q49.7 36.2 40.5 44.6 L47.25 40.3 Q48.7 39.45 49.9 41.05 L53.1 46.5 55.65 52.0 57.35 56.2 57.5 56.45 Q59.05 59.6 61.7 61.35 63.15 62.25 64.55 62.6 L64.6 62.6 64.75 62.55 65.1 62.55 Q65.5 62.65 65.75 62.95 L66.7 64.25 66.9 65.0 66.5 65.7 41.85 83.65 41.25 83.85 41.05 83.85 Q40.65 83.75 40.4 83.45 L39.55 82.25 39.4 82.15 Q38.9 81.5 39.45 80.85 39.55 79.5 39.1 77.8 38.25 74.75 35.75 72.25 L35.55 72.1 Q29.7 67.15 27.65 65.05 L23.5 60.25 Q22.3 58.6 23.6 57.55 L29.8 52.4 Q19.0 58.65 6.7 59.95 L14.6 60.45 Q16.3 60.6 16.3 62.6 16.3 64.7 15.7 68.95 15.4 71.6 13.45 79.3 L13.4 79.55 Q12.85 83.0 14.0 86.0 14.65 87.7 15.5 88.7 L15.55 88.7 15.75 88.8 15.95 89.0 Q16.3 89.25 16.3 89.65 L16.3 91.3 16.0 92.05 Q15.7 92.35 15.25 92.35 L-15.2 92.35 -15.9 92.05 -16.2 91.3 -16.2 89.85 -16.25 89.65 Q-16.25 88.85 -15.5 88.7 L-15.45 88.7 Q-14.55 87.55 -13.95 85.95 -12.9 82.95 -13.45 79.5 L-13.5 79.3 -15.75 68.95 -16.3 62.6 Q-16.3 60.6 -14.6 60.45 L-6.75 59.95 Q-19.0 58.6 -29.8 52.4 L-23.65 57.55 Q-22.35 58.65 -23.5 60.25 -24.65 61.85 -27.7 65.05 L-35.6 72.1 -35.8 72.3 Q-38.25 74.75 -39.1 77.8 -39.55 79.5 -39.45 80.9 L-39.4 80.95 -39.3 81.1 -39.3 81.2 -39.25 81.4 Q-39.15 81.85 -39.4 82.15 L-40.35 83.5 -41.0 83.9 -41.2 83.9 -41.8 83.7 -66.4 65.75 -66.85 65.1 -66.65 64.3 -65.75 63.1 -65.7 62.95 -65.05 62.55 -64.5 62.65 Q-63.15 62.3 -61.7 61.35 -59.05 59.55 -57.5 56.4 L-57.4 56.2 -55.7 52.05 -53.15 46.5 -49.9 41.05 Q-48.7 39.4 -47.25 40.3 L-40.5 44.6 Q-49.7 36.15 -54.8 24.85 L-52.85 32.6 Q-52.45 34.3 -54.35 34.9 L-60.5 36.3 -71.05 37.35 -71.3 37.4 Q-74.75 37.95 -77.25 39.95 L-79.3 42.2 -79.35 42.25 -79.35 42.45 -79.4 42.55 -79.45 42.75 -80.0 43.25 -81.55 43.75 -81.9 43.8 -82.35 43.7 Q-82.75 43.55 -82.85 43.1 L-92.3 14.05 Q-92.55 13.1 -91.6 12.75 L-90.2 12.3 -90.1 12.2 Q-89.3 11.95 -88.9 12.65 L-85.85 13.25 Q-82.7 13.35 -79.6 11.75 L-79.4 11.65 -75.55 9.3 Q-71.9 7.1 -70.25 6.3 -66.25 4.4 -64.45 3.8 -62.5 3.2 -61.85 4.75 L-59.0 12.05 Q-60.2 5.8 -60.2 0.0 -60.2 -6.0 -58.95 -12.1 L-61.85 -4.75 Q-62.3 -3.65 -63.45 -3.65 L-64.45 -3.8 Q-66.25 -4.4 -70.25 -6.3 -71.85 -7.1 -75.5 -9.25 L-79.4 -11.65 -79.6 -11.8 Q-82.7 -13.4 -85.9 -13.25 L-88.9 -12.6 -88.95 -12.55 -89.1 -12.45 -89.3 -12.25 -89.35 -12.25 -90.1 -12.15 -91.65 -12.65 -92.25 -13.2 Q-92.45 -13.55 -92.3 -13.95 L-82.9 -43.0 -82.4 -43.6 -81.6 -43.7 -80.2 -43.2 -80.05 -43.2 Q-79.25 -42.95 -79.35 -42.15 -78.6 -40.95 -77.2 -39.85 -74.75 -37.9 -71.3 -37.4 L-71.05 -37.35 -60.5 -36.3 -54.35 -34.9 Q-52.45 -34.3 -52.85 -32.6 L-54.85 -24.85 Q-49.6 -36.35 -40.45 -44.65 L-47.25 -40.3 Q-47.75 -40.0 -48.25 -40.0 -49.15 -40.0 -49.9 -41.05 L-53.15 -46.5 Q-54.15 -48.35 -57.4 -56.2 L-57.5 -56.45 Q-59.1 -59.6 -61.75 -61.3 -63.15 -62.25 -64.55 -62.6 L-64.9 -62.55 -65.1 -62.55 -65.75 -62.95 -66.7 -64.25 -66.9 -65.0 -66.5 -65.7 -41.85 -83.65 -41.1 -83.85 Q-40.65 -83.75 -40.4 -83.45 L-39.5 -82.2 -39.4 -82.15 Q-39.0 -81.5 -39.45 -80.85 L-39.5 -80.85 Q-39.5 -76.0 -35.75 -72.25 L-35.6 -72.1 -32.15 -69.15 -27.7 -65.05 Q-24.65 -61.85 -23.5 -60.25 -22.35 -58.65 -23.65 -57.55 L-29.85 -52.35 Q-19.1 -58.6 -6.65 -59.95 L-14.6 -60.45 Q-16.3 -60.6 -16.3 -62.6 L-15.75 -68.95 Q-15.3 -72.05 -13.5 -79.3 L-13.45 -79.55 Q-12.9 -83.0 -14.0 -86.0 -14.65 -87.7 -15.55 -88.7 L-15.85 -88.85 -16.0 -89.0 -16.3 -89.65 -16.3 -91.3 -16.0 -92.05 Q-15.7 -92.35 -15.3 -92.35 L15.15 -92.35 15.9 -92.05 16.2 -91.3 16.2 -89.85 16.25 -89.65 Q16.25 -88.9 15.45 -88.7 14.55 -87.55 13.95 -86.0 12.85 -83.0 13.4 -79.55 L13.45 -79.3 Q15.4 -71.55 15.7 -68.95 16.3 -64.65 16.3 -62.6 16.3 -60.6 14.6 -60.45 L6.65 -59.95 Q19.0 -58.6 29.85 -52.35 L23.6 -57.55 Q22.3 -58.6 23.5 -60.25 L27.65 -65.05 32.1 -69.15 35.6 -72.1 35.75 -72.3 Q38.25 -74.75 39.05 -77.8 39.5 -79.5 39.4 -80.9 L39.4 -80.95 39.3 -81.15 39.25 -81.2 39.2 -81.4 39.35 -82.15 40.3 -83.5 Q40.65 -83.85 41.0 -83.9 L41.75 -83.7 66.4 -65.75 66.8 -65.1 Q66.9 -64.7 66.65 -64.3 L65.75 -63.1 65.7 -62.95 65.05 -62.55 64.85 -62.55 64.45 -62.65 Q59.95 -61.25 57.5 -56.4 L57.35 -56.2 55.65 -52.0 53.1 -46.5 49.9 -41.05 Q49.15 -40.0 48.25 -40.0 47.8 -40.0 47.25 -40.3 L40.45 -44.65 Q49.65 -36.3 54.8 -24.85 L52.85 -32.6 Q52.4 -34.25 54.35 -34.9 L60.5 -36.3 71.05 -37.35 71.3 -37.4 Q74.75 -37.95 77.25 -39.95 L79.3 -42.2 79.3 -42.25 79.35 -42.45 79.35 -42.55 79.45 -42.75 80.0 -43.25 81.55 -43.75 82.35 -43.7 82.85 -43.1 92.25 -14.05 Q92.6 -13.1 91.6 -12.75 L90.2 -12.3 90.05 -12.2 89.75 -12.15 89.25 -12.25 88.9 -12.65 85.85 -13.25 Q82.65 -13.35 79.55 -11.75 L79.35 -11.65 Q72.85 -7.55 70.25 -6.3 66.25 -4.35 64.4 -3.8 L63.45 -3.65 Q62.3 -3.65 61.85 -4.75 L58.95 -12.05 Q60.2 -5.95 60.2 0.0 60.2 5.95 58.95 12.05 L61.85 4.75 Q62.5 3.2 64.4 3.8 66.25 4.35 70.25 6.3 73.35 7.8 79.35 11.65 L79.6 11.8 Q82.7 13.4 85.9 13.25 L88.9 12.6 89.25 12.25 89.3 12.25 90.1 12.15 91.65 12.65 M-15.3 -91.65 L-15.6 -91.3 -15.6 -89.85 -15.5 -89.45 -15.4 -89.4 -15.25 -89.35 15.2 -89.35 15.5 -89.65 15.5 -91.3 15.15 -91.65 -15.3 -91.65" fill="#000000" fill-rule="evenodd" stroke="none" class="line" />
    </g>
  </defs>
  <g transform="matrix(1.0, 0.0, 0.0, 1.0, 0.0, 0.0)">
    <use height="184.0" id="Fill" transform="matrix(0.5435, 0.0, 0.0, 0.5435, 0.0005, 0.0005)" width="184.0" xlink:href="#sprite0" />
    <use height="184.7" id="Line" transform="matrix(0.5414, 0.0, 0.0, 0.5414, 0.0006, 0.0006)" width="184.7" xlink:href="#sprite1" />
  </g>
</svg>