<?xml version="1.0" encoding="UTF-8" standalone="no"?>
<svg xmlns:xlink="http://www.w3.org/1999/xlink" height="100%" width="100%" xmlns="http://www.w3.org/2000/svg" preserveAspectRatio="none" viewBox="0 0 100 100">
  <defs>
    <g id="sprite0" transform="matrix(1.0, 0.0, 0.0, 1.0, 96.0, 74.0)">
      <use height="148.0" transform="matrix(1.0, 0.0, 0.0, 1.0, -96.0, -74.0)" width="192.0" xlink:href="#shape0" />
    </g>
    <g id="shape0" transform="matrix(1.0, 0.0, 0.0, 1.0, 96.0, 74.0)">
      <path d="M-96.0 42.05 L-96.0 -42.0 96.0 -42.0 96.0 42.05 -96.0 42.05" fill="#ffffff" fill-rule="evenodd" stroke="none" class="fill" />
      <path d="M-39.85 -61.25 L-39.8 -61.45 Q-39.15 -65.3 -40.55 -68.5 L-42.05 -70.95 -42.15 -71.0 -42.45 -71.2 -42.7 -71.65 -42.7 -73.3 -42.5 -73.8 -42.0 -74.0 -11.45 -74.0 Q-11.2 -74.0 -11.0 -73.8 L-10.8 -73.3 -10.8 -71.65 -10.75 -71.65 Q-10.75 -71.1 -11.35 -71.0 L-11.4 -70.95 -12.85 -68.5 Q-14.15 -65.3 -13.55 -61.45 L-13.55 -61.25 -12.45 -56.85 Q-11.5 -52.75 -11.25 -50.9 -10.7 -46.35 -10.7 -44.65 -10.7 -42.95 -12.05 -42.85 L-26.7 -42.0 -41.3 -42.85 Q-42.7 -42.95 -42.7 -44.65 -42.7 -46.55 -42.1 -50.9 -41.75 -53.55 -39.85 -61.25" fill="#ffffff" fill-rule="evenodd" stroke="none" class="fill" />
      <path d="M-93.2 -61.25 L-93.15 -61.45 Q-92.5 -65.3 -93.9 -68.5 L-95.4 -70.95 -95.5 -71.0 -95.8 -71.2 -96.0 -71.65 -96.0 -73.3 -95.8 -73.8 -95.35 -74.0 -64.8 -74.0 -64.3 -73.8 -64.1 -73.3 -64.1 -71.65 -64.05 -71.65 Q-64.05 -71.1 -64.65 -71.0 L-64.7 -70.95 -66.15 -68.5 Q-67.5 -65.3 -66.9 -61.45 L-66.85 -61.25 Q-64.9 -53.55 -64.6 -50.9 -64.0 -46.55 -64.0 -44.65 -64.0 -42.95 -65.4 -42.85 L-80.0 -42.0 -94.65 -42.85 Q-96.0 -42.95 -96.0 -44.65 L-95.45 -50.9 Q-95.1 -53.55 -93.2 -61.25" fill="#ffffff" fill-rule="evenodd" stroke="none" class="fill" />
      <path d="M13.5 -61.25 L13.5 -61.45 Q14.15 -65.3 12.75 -68.5 L11.25 -70.95 11.15 -71.0 10.85 -71.2 10.65 -71.65 10.65 -73.3 10.85 -73.8 11.35 -74.0 41.85 -74.0 Q42.55 -74.0 42.55 -73.3 L42.55 -71.65 42.6 -71.65 Q42.6 -71.1 42.0 -71.0 L41.95 -70.95 40.5 -68.5 Q39.15 -65.3 39.75 -61.45 L39.8 -61.25 40.85 -56.8 Q41.85 -52.7 42.05 -50.9 42.65 -46.55 42.65 -44.65 42.65 -42.95 41.25 -42.85 L26.65 -42.0 12.0 -42.85 Q10.65 -42.95 10.65 -44.65 10.65 -46.35 11.2 -50.9 11.45 -52.75 12.4 -56.85 L13.5 -61.25" fill="#ffffff" fill-rule="evenodd" stroke="none" class="fill" />
      <path d="M-13.55 61.3 L-13.55 61.5 Q-14.15 65.35 -12.85 68.55 -12.2 70.15 -11.4 71.0 L-11.35 71.05 Q-10.75 71.15 -10.75 71.7 L-10.8 71.7 -10.8 73.35 Q-10.8 74.0 -11.45 74.0 L-42.0 74.0 Q-42.7 74.0 -42.7 73.35 L-42.7 71.7 -42.45 71.25 -42.15 71.05 -42.05 71.0 Q-41.25 70.15 -40.55 68.55 -39.15 65.35 -39.8 61.5 L-39.85 61.3 Q-41.75 53.8 -42.1 50.95 -42.7 46.6 -42.7 44.65 -42.7 43.0 -41.3 42.9 L-26.7 42.05 -12.05 42.9 Q-10.7 43.0 -10.7 44.65 -10.7 46.4 -11.25 50.95 -11.5 52.8 -12.45 56.9 L-13.55 61.3" fill="#ffffff" fill-rule="evenodd" stroke="none" class="fill" />
      <path d="M-66.85 61.3 L-66.9 61.5 Q-67.5 65.35 -66.15 68.55 -65.5 70.15 -64.7 71.0 L-64.65 71.05 Q-64.05 71.15 -64.05 71.7 L-64.1 71.7 -64.1 73.35 -64.3 73.8 -64.8 74.0 -95.35 74.0 Q-96.0 74.0 -96.0 73.35 L-96.0 71.7 -95.8 71.25 -95.5 71.05 -95.4 71.0 Q-94.6 70.15 -93.9 68.55 -92.5 65.35 -93.15 61.5 L-93.2 61.3 Q-95.1 53.8 -95.45 50.95 L-96.0 44.65 Q-96.0 43.0 -94.65 42.9 L-80.0 42.05 -65.4 42.9 Q-64.0 43.0 -64.0 44.65 -64.0 46.6 -64.6 50.95 -64.95 53.8 -66.85 61.3" fill="#ffffff" fill-rule="evenodd" stroke="none" class="fill" />
      <path d="M39.8 61.3 L39.75 61.5 Q39.15 65.35 40.5 68.55 41.15 70.15 41.95 71.0 L42.0 71.05 Q42.6 71.15 42.6 71.7 L42.55 71.7 42.55 73.35 Q42.55 74.0 41.85 74.0 L11.35 74.0 Q10.65 74.0 10.65 73.35 L10.65 71.7 10.85 71.25 11.15 71.05 11.25 71.0 Q12.05 70.15 12.75 68.55 14.15 65.35 13.5 61.5 L13.5 61.3 12.4 56.9 Q11.45 52.8 11.2 50.95 10.65 46.4 10.65 44.65 10.65 43.0 12.0 42.9 L26.65 42.05 41.25 42.9 Q42.65 43.0 42.65 44.65 42.65 46.6 42.05 50.95 41.7 53.8 39.8 61.3" fill="#ffffff" fill-rule="evenodd" stroke="none" class="fill" />
      <path d="M66.8 -61.25 L66.85 -61.45 Q67.5 -65.3 66.1 -68.5 L64.6 -70.95 64.5 -71.0 64.2 -71.2 64.0 -71.65 64.0 -73.3 64.2 -73.8 Q64.4 -74.0 64.65 -74.0 L95.2 -74.0 95.7 -73.8 95.9 -73.3 95.9 -71.65 95.95 -71.65 Q95.95 -71.1 95.35 -71.0 L95.3 -70.95 93.85 -68.5 Q92.5 -65.3 93.1 -61.45 L93.15 -61.25 Q95.1 -53.55 95.4 -50.9 L96.0 -44.65 Q96.0 -42.95 94.6 -42.85 L80.0 -42.0 65.35 -42.85 Q64.0 -42.95 64.0 -44.65 64.0 -46.35 64.55 -50.9 64.9 -53.55 66.8 -61.25" fill="#ffffff" fill-rule="evenodd" stroke="none" class="fill" />
      <path d="M93.15 61.3 L93.1 61.5 Q92.5 65.35 93.85 68.55 94.5 70.15 95.3 71.0 L95.35 71.05 Q95.95 71.15 95.95 71.7 L95.9 71.7 95.9 73.35 95.7 73.8 95.2 74.0 64.65 74.0 Q64.0 74.0 64.0 73.35 L64.0 71.7 64.2 71.25 64.5 71.05 64.6 71.0 Q65.4 70.15 66.1 68.55 67.5 65.35 66.85 61.5 L66.8 61.3 Q64.9 53.8 64.55 50.95 64.0 46.4 64.0 44.65 64.0 43.0 65.35 42.9 L80.0 42.05 94.6 42.9 Q96.0 43.0 96.0 44.65 L95.4 50.95 Q95.05 53.8 93.15 61.3" fill="#ffffff" fill-rule="evenodd" stroke="none" class="fill" />
    </g>
    <g id="sprite1" transform="matrix(1.0, 0.0, 0.0, 1.0, 96.3, 74.35)">
      <use height="148.7" transform="matrix(1.0, 0.0, 0.0, 1.0, -96.3, -74.35)" width="192.65" xlink:href="#shape1" />
    </g>
    <g id="shape1" transform="matrix(1.0, 0.0, 0.0, 1.0, 96.3, 74.35)">
      <path d="M94.6 70.65 Q92.45 67.6 92.6 63.2 92.05 63.7 90.85 63.7 L69.2 63.7 Q68.05 63.7 67.4 63.2 67.65 67.55 65.4 70.65 L94.6 70.65 M95.6 73.35 L95.6 71.7 95.3 71.35 64.75 71.35 64.55 71.45 64.5 71.5 64.4 71.7 64.35 71.85 64.35 73.35 Q64.35 73.65 64.7 73.65 L95.25 73.65 95.6 73.35 M95.7 44.65 Q95.7 43.25 94.6 43.25 L80.05 42.4 65.45 43.25 Q64.35 43.25 64.35 44.65 L64.95 50.9 Q65.35 54.2 67.2 61.15 L67.2 61.25 67.25 61.4 Q67.4 62.15 67.7 62.5 68.1 63.05 69.2 63.05 L90.85 63.05 Q91.95 63.05 92.35 62.5 L92.8 61.45 92.8 61.3 92.85 61.25 92.85 61.1 Q94.65 54.55 95.1 50.9 L95.7 44.65 M41.3 70.65 Q39.05 67.7 39.3 63.2 38.65 63.7 37.55 63.7 L15.85 63.7 Q14.65 63.7 14.1 63.2 14.3 67.75 12.05 70.65 L41.3 70.65 M65.4 -70.6 Q67.6 -67.5 67.45 -63.15 68.1 -63.7 69.2 -63.7 L90.85 -63.7 Q91.95 -63.7 92.6 -63.15 92.45 -67.55 94.6 -70.6 L65.4 -70.6 M12.05 -70.6 Q14.3 -67.7 14.1 -63.15 14.75 -63.7 15.85 -63.7 L37.55 -63.7 Q38.6 -63.7 39.3 -63.15 39.05 -67.65 41.3 -70.6 L12.05 -70.6 M64.35 -44.65 Q64.35 -43.2 65.45 -43.2 L80.05 -42.35 94.6 -43.2 Q95.7 -43.2 95.7 -44.65 L95.1 -50.85 Q94.8 -53.4 92.85 -61.1 L92.85 -61.25 92.8 -61.35 92.35 -62.45 Q91.95 -63.0 90.85 -63.0 L69.2 -63.0 Q68.1 -63.0 67.7 -62.45 L67.25 -61.4 67.25 -61.25 67.2 -61.2 67.2 -61.15 Q65.35 -54.2 64.95 -50.85 L64.35 -44.65 M64.7 -73.65 Q64.35 -73.65 64.35 -73.3 L64.35 -71.8 64.4 -71.65 64.5 -71.45 64.55 -71.4 64.75 -71.3 95.25 -71.3 95.6 -71.65 95.6 -73.3 95.25 -73.65 64.7 -73.65 M95.7 41.7 L95.7 -41.65 -95.65 -41.65 -95.65 41.7 95.7 41.7 M42.35 44.65 Q42.35 43.25 41.3 43.25 L26.7 42.4 12.1 43.25 Q11.05 43.25 11.05 44.65 11.05 46.5 11.6 50.9 11.95 53.7 13.85 61.15 L13.85 61.2 13.9 61.25 13.9 61.4 14.35 62.5 Q14.8 63.05 15.85 63.05 L37.55 63.05 Q38.6 63.05 39.05 62.5 L39.45 61.45 39.5 61.3 39.5 61.2 39.55 61.15 Q41.5 53.05 41.75 50.9 L42.35 44.65 M42.25 73.35 L42.25 71.7 41.95 71.35 11.4 71.35 11.25 71.45 11.2 71.5 11.1 71.7 11.05 71.85 11.05 73.35 11.4 73.65 41.9 73.65 Q42.25 73.65 42.25 73.35 M-12.05 70.65 Q-14.25 67.55 -14.05 63.2 -14.6 63.7 -15.8 63.7 L-37.5 63.7 Q-38.6 63.7 -39.25 63.2 -39.0 67.65 -41.3 70.65 L-12.05 70.65 M-11.1 73.35 L-11.1 71.7 -11.4 71.35 -41.9 71.35 -42.1 71.45 -42.15 71.5 -42.25 71.7 -42.3 71.85 -42.3 73.35 -41.95 73.65 -11.4 73.65 Q-11.1 73.65 -11.1 73.35 M-11.0 44.65 Q-11.0 43.25 -12.05 43.25 L-26.65 42.4 -41.25 43.25 Q-42.3 43.25 -42.3 44.65 -42.3 46.7 -41.7 50.9 -41.3 53.85 -39.5 61.15 L-39.45 61.2 -39.45 61.4 -39.0 62.5 Q-38.55 63.05 -37.5 63.05 L-15.8 63.05 Q-14.75 63.05 -14.3 62.5 L-13.85 61.45 -13.85 61.3 -13.8 61.2 -13.8 61.15 Q-11.75 52.6 -11.55 50.9 -11.0 46.5 -11.0 44.65 M-64.4 73.35 L-64.4 71.7 -64.7 71.35 -95.25 71.35 -95.45 71.45 -95.5 71.5 -95.6 71.7 -95.6 73.35 -95.3 73.65 -64.75 73.65 Q-64.4 73.65 -64.4 73.35 M-65.4 70.65 Q-67.55 67.6 -67.4 63.2 -67.95 63.7 -69.15 63.7 L-90.8 63.7 Q-92.0 63.7 -92.55 63.2 -92.4 67.55 -94.6 70.65 L-65.4 70.65 M-64.3 44.65 Q-64.3 43.25 -65.4 43.25 L-79.95 42.4 -94.55 43.25 Q-95.6 43.25 -95.6 44.65 L-95.05 50.9 -93.9 56.75 -92.8 61.15 -92.8 61.25 -92.75 61.4 -92.3 62.5 Q-91.85 63.05 -90.8 63.05 L-69.15 63.05 Q-68.05 63.05 -67.65 62.5 L-67.2 61.45 -67.15 61.3 -67.15 61.15 Q-65.4 54.65 -64.9 50.9 L-64.3 44.65 M11.05 -44.65 Q11.05 -43.2 12.1 -43.2 L26.7 -42.35 41.3 -43.2 Q42.35 -43.2 42.35 -44.65 L41.75 -50.85 40.6 -56.7 39.55 -61.1 39.5 -61.15 39.5 -61.35 39.05 -62.45 Q38.6 -63.0 37.55 -63.0 L15.85 -63.0 Q14.8 -63.0 14.35 -62.45 L13.9 -61.4 13.9 -61.25 13.85 -61.2 13.85 -61.15 12.8 -56.7 11.6 -50.85 Q11.05 -46.45 11.05 -44.65 M11.4 -73.65 Q11.05 -73.65 11.05 -73.3 L11.05 -71.8 11.1 -71.65 11.2 -71.45 11.25 -71.4 11.4 -71.3 41.95 -71.3 42.25 -71.65 42.25 -73.3 41.9 -73.65 11.4 -73.65 M-94.6 -70.6 Q-92.4 -67.5 -92.55 -63.15 -91.9 -63.7 -90.8 -63.7 L-69.15 -63.7 Q-68.05 -63.7 -67.35 -63.15 -67.6 -67.55 -65.4 -70.6 L-94.6 -70.6 M-95.6 -44.65 Q-95.6 -43.2 -94.55 -43.2 L-79.95 -42.35 -65.4 -43.2 Q-64.3 -43.2 -64.3 -44.65 L-64.9 -50.85 Q-65.3 -54.15 -67.15 -61.1 L-67.15 -61.25 -67.2 -61.35 Q-67.35 -62.1 -67.65 -62.45 -68.05 -63.0 -69.15 -63.0 L-90.8 -63.0 Q-91.85 -63.0 -92.3 -62.45 L-92.75 -61.4 -92.75 -61.25 -92.8 -61.2 -92.8 -61.15 Q-94.65 -54.2 -95.05 -50.85 L-95.6 -44.65 M-95.3 -73.65 L-95.6 -73.3 -95.6 -71.65 -95.5 -71.45 -95.45 -71.4 -95.25 -71.3 -64.7 -71.3 -64.4 -71.65 -64.4 -73.3 Q-64.4 -73.65 -64.75 -73.65 L-95.3 -73.65 M-41.3 -70.6 Q-39.0 -67.6 -39.25 -63.15 -38.55 -63.7 -37.5 -63.7 L-15.8 -63.7 Q-14.7 -63.7 -14.05 -63.15 -14.2 -67.55 -12.05 -70.6 L-41.3 -70.6 M-42.3 -44.65 Q-42.3 -43.2 -41.25 -43.2 L-26.65 -42.35 -12.05 -43.2 Q-11.0 -43.2 -11.0 -44.65 -11.0 -46.45 -11.55 -50.85 L-12.75 -56.7 -13.8 -61.1 -13.8 -61.15 -13.85 -61.25 -13.85 -61.35 -14.3 -62.45 Q-14.75 -63.0 -15.8 -63.0 L-37.5 -63.0 Q-38.55 -63.0 -39.0 -62.45 L-39.4 -61.4 -39.45 -61.25 -39.45 -61.15 Q-41.3 -54.2 -41.7 -50.85 -42.3 -46.65 -42.3 -44.65 M-41.95 -73.65 L-42.3 -73.3 -42.3 -71.8 -42.25 -71.65 -42.15 -71.45 -42.1 -71.4 -41.9 -71.3 -11.4 -71.3 -11.1 -71.65 -11.1 -73.3 Q-11.1 -73.65 -11.4 -73.65 L-41.95 -73.65 M96.05 -42.35 L96.35 -42.0 96.35 42.05 96.05 42.4 92.4 42.4 94.65 42.55 Q96.35 42.65 96.35 44.65 L95.8 51.0 Q95.5 53.6 93.55 61.35 L93.5 61.6 Q92.95 65.05 94.0 68.05 94.7 69.85 95.55 70.7 96.35 70.95 96.35 71.7 L96.3 71.85 96.3 73.35 96.0 74.05 95.25 74.35 64.7 74.35 Q64.3 74.35 64.0 74.05 63.7 73.75 63.7 73.35 L63.7 71.7 Q63.7 71.3 64.0 71.0 L64.15 70.9 64.25 70.85 64.4 70.75 64.45 70.7 Q65.35 69.7 66.0 68.0 67.1 65.05 66.55 61.55 L66.5 61.35 Q64.65 53.9 64.25 51.0 63.7 46.5 63.7 44.65 63.7 42.65 65.4 42.55 L67.65 42.4 39.05 42.4 41.35 42.55 Q43.05 42.65 43.05 44.65 43.05 46.75 42.45 51.0 42.1 53.85 40.2 61.35 L40.15 61.6 Q39.6 65.05 40.7 68.05 41.3 69.7 42.2 70.7 43.0 70.95 43.0 71.7 L42.95 71.85 42.95 73.35 42.65 74.05 41.9 74.35 11.4 74.35 Q10.95 74.35 10.65 74.05 10.35 73.75 10.35 73.35 L10.35 71.7 Q10.35 71.4 10.65 71.0 L10.8 70.9 11.1 70.75 11.1 70.7 12.65 68.05 Q13.8 65.05 13.25 61.6 L13.2 61.35 Q11.25 53.55 10.9 51.0 10.35 46.5 10.35 44.65 10.35 42.65 12.05 42.55 L14.35 42.4 -14.3 42.4 -12.0 42.55 Q-10.3 42.65 -10.3 44.65 -10.3 46.5 -10.85 51.0 -11.1 52.85 -12.05 56.9 L-13.15 61.35 -13.2 61.6 Q-13.75 65.05 -12.65 68.05 -12.0 69.75 -11.15 70.7 -10.35 70.95 -10.35 71.7 L-10.4 71.85 -10.4 73.35 Q-10.4 73.75 -10.7 74.05 -11.0 74.35 -11.4 74.35 L-41.95 74.35 -42.7 74.05 -43.0 73.35 -43.0 71.7 -42.65 71.0 -42.5 70.9 -42.45 70.85 -42.25 70.75 -42.2 70.7 Q-41.3 69.7 -40.65 68.0 -39.55 65.05 -40.1 61.55 L-40.15 61.35 Q-42.0 54.5 -42.4 51.0 -43.0 46.75 -43.0 44.65 -43.0 42.65 -41.3 42.55 L-39.0 42.4 -67.6 42.4 -65.3 42.55 Q-63.6 42.65 -63.6 44.65 L-64.2 51.0 Q-64.5 53.6 -66.45 61.35 L-66.5 61.6 Q-67.05 65.05 -66.0 68.05 -65.3 69.85 -64.45 70.7 -63.65 70.95 -63.65 71.7 L-63.7 71.85 -63.7 73.35 Q-63.7 73.75 -64.0 74.05 -64.35 74.35 -64.75 74.35 L-95.3 74.35 -96.0 74.05 -96.3 73.35 -96.3 71.7 -96.0 71.0 -95.85 70.9 -95.75 70.85 -95.6 70.75 -95.55 70.7 Q-94.65 69.7 -94.0 68.05 -92.9 65.05 -93.45 61.6 L-93.5 61.35 Q-95.35 54.0 -95.75 51.0 L-96.3 44.65 Q-96.3 42.65 -94.6 42.55 L-92.35 42.4 -95.95 42.4 -96.3 42.05 -96.3 -42.0 -95.95 -42.35 -92.3 -42.35 -94.6 -42.5 Q-96.3 -42.55 -96.3 -44.65 L-95.75 -50.95 Q-95.55 -52.7 -94.55 -56.85 L-93.5 -61.3 -93.45 -61.55 Q-92.9 -65.0 -94.0 -67.95 -94.65 -69.65 -95.55 -70.65 L-95.6 -70.7 -95.75 -70.8 -95.85 -70.85 -96.0 -70.95 -96.3 -71.65 -96.3 -73.3 -96.0 -74.05 -95.3 -74.35 -64.75 -74.35 -64.0 -74.05 Q-63.7 -73.7 -63.7 -73.3 L-63.7 -71.8 -63.65 -71.65 Q-63.65 -70.9 -64.45 -70.65 -65.3 -69.8 -66.0 -67.95 -67.05 -64.95 -66.5 -61.5 L-66.45 -61.3 -65.4 -56.95 -64.2 -50.95 -63.6 -44.65 Q-63.6 -42.6 -65.3 -42.5 L-67.65 -42.35 -38.95 -42.35 -41.3 -42.5 Q-43.0 -42.6 -43.0 -44.65 -43.0 -46.65 -42.4 -50.95 -42.1 -53.55 -40.15 -61.3 L-40.1 -61.55 Q-39.55 -65.0 -40.65 -67.95 -41.3 -69.65 -42.2 -70.65 L-42.25 -70.7 -42.45 -70.8 -42.5 -70.85 -42.65 -70.95 -43.0 -71.65 -43.0 -73.3 -42.7 -74.05 -41.95 -74.35 -11.4 -74.35 Q-11.0 -74.35 -10.7 -74.05 -10.4 -73.7 -10.4 -73.3 L-10.4 -71.8 -10.35 -71.65 Q-10.35 -70.9 -11.15 -70.65 -12.0 -69.7 -12.65 -67.95 -13.7 -65.0 -13.15 -61.55 L-13.15 -61.3 Q-11.2 -53.5 -10.85 -50.95 -10.3 -46.45 -10.3 -44.65 -10.3 -42.6 -12.0 -42.5 L-14.3 -42.35 14.35 -42.35 12.05 -42.5 Q10.35 -42.6 10.35 -44.65 10.35 -46.45 10.9 -50.95 11.15 -52.8 12.1 -56.85 L13.2 -61.3 13.25 -61.55 Q13.8 -65.0 12.65 -67.95 L11.1 -70.65 11.1 -70.7 10.8 -70.85 10.65 -70.95 Q10.35 -71.35 10.35 -71.65 L10.35 -73.3 10.65 -74.05 11.4 -74.35 41.9 -74.35 42.65 -74.05 42.95 -73.3 42.95 -71.8 43.0 -71.65 Q43.0 -70.9 42.2 -70.65 41.35 -69.7 40.7 -67.95 39.6 -65.0 40.15 -61.55 L40.2 -61.3 Q42.15 -53.55 42.45 -50.95 43.05 -46.65 43.05 -44.65 43.05 -42.6 41.35 -42.5 L39.0 -42.35 67.7 -42.35 65.4 -42.5 Q63.7 -42.55 63.7 -44.65 63.7 -46.45 64.25 -50.95 64.55 -53.55 66.5 -61.3 L66.55 -61.55 Q67.1 -65.0 66.0 -67.95 65.35 -69.65 64.45 -70.65 L64.4 -70.7 64.25 -70.8 64.15 -70.85 64.0 -70.95 Q63.7 -71.25 63.7 -71.65 L63.7 -73.3 Q63.7 -73.7 64.0 -74.05 64.3 -74.35 64.7 -74.35 L95.25 -74.35 96.0 -74.05 96.3 -73.3 96.3 -71.8 96.35 -71.65 Q96.35 -70.9 95.55 -70.65 94.7 -69.8 94.0 -67.95 92.95 -64.95 93.5 -61.5 L93.55 -61.3 94.6 -56.95 95.8 -50.95 96.35 -44.65 Q96.35 -42.55 94.7 -42.5 L92.35 -42.35 96.05 -42.35" fill="#000000" fill-rule="evenodd" stroke="none" class="line" />
    </g>
  </defs>
  <g transform="matrix(1.0, 0.0, 0.0, 1.0, 0.0, 0.0)">
    <use height="148.0" id="Fill" transform="matrix(0.5208, 0.0, 0.0, 0.6757, 0.0005, 0.0001)" width="192.0" xlink:href="#sprite0" />
    <use height="148.7" id="Line" transform="matrix(0.5191, 0.0, 0.0, 0.6725, 0.0132, -0.0004)" width="192.65" xlink:href="#sprite1" />
  </g>
</svg>