<?xml version="1.0" encoding="UTF-8" standalone="no"?>
<svg xmlns:xlink="http://www.w3.org/1999/xlink" height="100%" width="100%" xmlns="http://www.w3.org/2000/svg" preserveAspectRatio="none" viewBox="0 0 100 100">
  <defs>
    <g id="sprite0" transform="matrix(1.0, 0.0, 0.0, 1.0, 128.0, 76.0)">
      <use height="152.0" transform="matrix(1.0, 0.0, 0.0, 1.0, -128.0, -76.0)" width="256.0" xlink:href="#shape0" />
    </g>
    <g id="shape0" transform="matrix(1.0, 0.0, 0.0, 1.0, 128.0, 76.0)">
      <path d="M-96.05 -1.7 L-96.05 -44.0 96.0 -44.0 96.0 44.05 -96.05 44.05 -96.05 1.75 -96.85 14.65 Q-96.95 16.05 -98.65 16.05 L-104.9 15.45 -115.25 13.2 -115.5 13.15 Q-119.35 12.55 -122.55 13.9 L-125.0 15.4 -125.2 15.8 -125.7 16.05 -127.3 16.05 Q-128.0 16.05 -128.0 15.35 L-128.0 -15.2 Q-128.0 -15.9 -127.3 -15.9 L-125.7 -15.9 -125.7 -15.95 Q-125.1 -15.95 -125.0 -15.35 L-125.0 -15.3 -122.55 -13.8 Q-119.35 -12.45 -115.5 -13.1 L-115.25 -13.15 -104.9 -15.4 -98.65 -16.0 Q-96.95 -16.0 -96.85 -14.6 L-96.05 -1.7" fill="#ffffff" fill-rule="evenodd" stroke="none" class="fill" />
      <path d="M-39.85 -63.25 L-39.85 -63.45 Q-39.2 -67.3 -40.6 -70.5 L-42.1 -72.95 -42.2 -73.0 -42.5 -73.2 -42.7 -73.65 -42.7 -75.3 -42.5 -75.8 -42.05 -76.0 -11.5 -76.0 Q-10.8 -76.0 -10.8 -75.3 L-10.8 -73.65 -10.75 -73.65 Q-10.75 -73.1 -11.35 -73.0 L-11.4 -72.95 -12.85 -70.5 Q-14.2 -67.3 -13.6 -63.45 L-13.55 -63.25 -12.45 -58.8 -11.25 -52.9 Q-10.7 -48.35 -10.7 -46.65 -10.7 -44.95 -12.1 -44.85 L-26.7 -44.0 -41.35 -44.85 Q-42.7 -44.95 -42.7 -46.65 L-42.15 -52.9 -40.95 -58.85 -39.85 -63.25" fill="#ffffff" fill-rule="evenodd" stroke="none" class="fill" />
      <path d="M-93.25 -63.25 L-93.2 -63.45 Q-92.55 -67.3 -93.95 -70.5 L-95.45 -72.95 -95.55 -73.0 -95.85 -73.2 -96.05 -73.65 -96.05 -75.3 -95.85 -75.8 -95.4 -76.0 -64.85 -76.0 Q-64.15 -76.0 -64.15 -75.3 L-64.15 -73.65 -64.1 -73.65 Q-64.1 -73.1 -64.7 -73.0 L-64.75 -72.95 -66.2 -70.5 Q-67.55 -67.3 -66.95 -63.45 L-66.9 -63.25 -65.85 -58.8 Q-64.85 -54.7 -64.65 -52.9 -64.05 -48.55 -64.05 -46.65 -64.05 -44.95 -65.45 -44.85 L-80.05 -44.0 -94.7 -44.85 Q-96.05 -44.95 -96.05 -46.65 L-95.5 -52.9 Q-95.05 -56.0 -93.25 -63.25" fill="#ffffff" fill-rule="evenodd" stroke="none" class="fill" />
      <path d="M13.5 -63.25 L13.5 -63.45 Q14.15 -67.3 12.75 -70.5 L11.25 -72.95 11.15 -73.0 10.85 -73.2 10.65 -73.65 10.65 -75.3 10.85 -75.8 11.35 -76.0 41.85 -76.0 Q42.55 -76.0 42.55 -75.3 L42.55 -73.65 42.6 -73.65 Q42.6 -73.1 42.0 -73.0 L41.95 -72.95 40.5 -70.5 Q39.15 -67.3 39.8 -63.45 L39.8 -63.25 40.9 -58.8 42.1 -52.9 42.65 -46.65 Q42.65 -44.95 41.25 -44.85 L26.65 -44.0 12.0 -44.85 Q10.65 -44.95 10.65 -46.65 10.65 -48.35 11.2 -52.9 11.45 -54.75 12.4 -58.85 L13.5 -63.25" fill="#ffffff" fill-rule="evenodd" stroke="none" class="fill" />
      <path d="M-13.55 63.3 L-13.6 63.5 Q-14.2 67.35 -12.85 70.55 -12.2 72.15 -11.4 73.0 L-11.35 73.05 Q-10.75 73.15 -10.75 73.7 L-10.8 73.7 -10.8 75.35 Q-10.8 76.0 -11.5 76.0 L-42.05 76.0 Q-42.7 76.0 -42.7 75.35 L-42.7 73.7 -42.5 73.25 -42.2 73.05 -42.1 73.0 Q-41.3 72.15 -40.6 70.55 -39.2 67.35 -39.85 63.5 L-39.85 63.3 -40.95 58.9 -42.15 52.95 -42.7 46.65 Q-42.7 45.0 -41.35 44.9 L-26.7 44.05 -12.1 44.9 Q-10.7 45.0 -10.7 46.65 -10.7 48.4 -11.25 52.95 -11.65 55.8 -13.55 63.3" fill="#ffffff" fill-rule="evenodd" stroke="none" class="fill" />
      <path d="M-66.9 63.3 L-66.95 63.5 Q-67.55 67.35 -66.2 70.55 -65.55 72.15 -64.75 73.0 L-64.7 73.05 Q-64.1 73.15 -64.1 73.7 L-64.15 73.7 -64.15 75.35 Q-64.15 76.0 -64.85 76.0 L-95.4 76.0 Q-96.05 76.0 -96.05 75.35 L-96.05 73.7 -95.85 73.25 -95.55 73.05 -95.45 73.0 Q-94.65 72.15 -93.95 70.55 -92.55 67.35 -93.2 63.5 L-93.25 63.3 -95.5 52.95 -96.05 46.65 Q-96.05 45.0 -94.7 44.9 L-80.05 44.05 -65.45 44.9 Q-64.05 45.0 -64.05 46.65 -64.05 48.6 -64.65 52.95 -65.0 55.8 -66.9 63.3" fill="#ffffff" fill-rule="evenodd" stroke="none" class="fill" />
      <path d="M39.8 63.3 L39.8 63.5 Q39.15 67.35 40.5 70.55 41.15 72.15 41.95 73.0 L42.0 73.05 Q42.6 73.15 42.6 73.7 L42.55 73.7 42.55 75.35 Q42.55 76.0 41.85 76.0 L11.35 76.0 Q10.65 76.0 10.65 75.35 L10.65 73.7 10.85 73.25 11.15 73.05 11.25 73.0 Q12.05 72.15 12.75 70.55 14.15 67.35 13.5 63.5 L13.5 63.3 12.4 58.9 Q11.45 54.8 11.2 52.95 10.65 48.4 10.65 46.65 10.65 45.0 12.0 44.9 L26.65 44.05 41.25 44.9 Q42.65 45.0 42.65 46.65 L42.1 52.95 Q41.7 55.8 39.8 63.3" fill="#ffffff" fill-rule="evenodd" stroke="none" class="fill" />
      <path d="M93.15 -63.25 L94.25 -58.8 95.45 -52.9 96.0 -46.65 Q96.0 -44.95 94.65 -44.85 L80.0 -44.0 65.35 -44.85 Q64.0 -44.95 64.0 -46.65 64.0 -48.35 64.55 -52.9 64.8 -54.75 65.75 -58.85 L66.85 -63.25 66.85 -63.45 Q67.5 -67.3 66.1 -70.5 L64.6 -72.95 64.5 -73.0 64.2 -73.2 64.0 -73.65 64.0 -75.3 64.2 -75.8 Q64.4 -76.0 64.7 -76.0 L95.2 -76.0 95.7 -75.8 95.9 -75.3 95.9 -73.65 95.95 -73.65 Q95.95 -73.1 95.35 -73.0 L95.3 -72.95 93.85 -70.5 Q92.5 -67.3 93.15 -63.45 L93.15 -63.25" fill="#ffffff" fill-rule="evenodd" stroke="none" class="fill" />
      <path d="M93.15 63.3 L93.15 63.5 Q92.5 67.35 93.85 70.55 94.5 72.15 95.3 73.0 L95.35 73.05 Q95.95 73.15 95.95 73.7 L95.9 73.7 95.9 75.35 Q95.9 76.0 95.2 76.0 L64.7 76.0 Q64.0 76.0 64.0 75.35 L64.0 73.7 64.2 73.25 64.5 73.05 64.6 73.0 Q65.4 72.15 66.1 70.55 67.5 67.35 66.85 63.5 L66.85 63.3 65.75 58.9 Q64.8 54.8 64.55 52.95 64.0 48.4 64.0 46.65 64.0 45.0 65.35 44.9 L80.0 44.05 94.65 44.9 Q96.0 45.0 96.0 46.65 L95.45 52.95 Q95.05 55.8 93.15 63.3" fill="#ffffff" fill-rule="evenodd" stroke="none" class="fill" />
      <path d="M127.3 -15.9 Q128.0 -15.9 128.0 -15.2 L128.0 15.35 Q128.0 16.05 127.3 16.05 L125.7 16.05 125.2 15.8 125.0 15.4 Q124.15 14.6 122.55 13.9 119.35 12.55 115.5 13.15 L115.25 13.2 104.9 15.45 98.65 16.05 Q96.95 16.05 96.85 14.65 L96.05 0.05 96.85 -14.6 Q96.95 -16.0 98.65 -16.0 L104.9 -15.4 115.25 -13.15 115.5 -13.1 Q119.35 -12.45 122.55 -13.8 124.15 -14.5 125.0 -15.3 L125.0 -15.35 Q125.1 -15.95 125.7 -15.95 L125.7 -15.9 127.3 -15.9" fill="#ffffff" fill-rule="evenodd" stroke="none" class="fill" />
    </g>
    <g id="sprite1" transform="matrix(1.0, 0.0, 0.0, 1.0, 128.35, 76.35)">
      <use height="152.7" transform="matrix(1.0, 0.0, 0.0, 1.0, -128.35, -76.35)" width="256.7" xlink:href="#shape1" />
    </g>
    <g id="shape1" transform="matrix(1.0, 0.0, 0.0, 1.0, 128.35, 76.35)">
      <path d="M95.55 75.35 L95.55 73.7 95.25 73.35 64.7 73.35 64.55 73.45 64.5 73.5 64.4 73.7 64.35 73.85 64.35 75.35 Q64.35 75.65 64.7 75.65 L95.2 75.65 95.55 75.35 M94.6 72.65 Q92.35 69.7 92.6 65.2 92.05 65.7 90.85 65.7 L69.15 65.7 Q67.95 65.7 67.4 65.2 67.6 69.75 65.35 72.65 L94.6 72.65 M-65.45 72.65 Q-67.7 69.7 -67.45 65.2 -68.0 65.7 -69.2 65.7 L-90.9 65.7 Q-92.1 65.7 -92.65 65.2 -92.45 69.75 -94.7 72.65 L-65.45 72.65 M-64.5 75.35 L-64.5 73.7 -64.8 73.35 -95.35 73.35 -95.5 73.45 -95.6 73.5 -95.7 73.85 -95.7 75.35 -95.4 75.65 -64.85 75.65 Q-64.5 75.65 -64.5 75.35 M-11.15 75.35 L-11.15 73.7 -11.45 73.35 -42.0 73.35 -42.15 73.45 -42.25 73.5 -42.35 73.85 -42.35 75.35 -42.05 75.65 -11.5 75.65 Q-11.15 75.65 -11.15 75.35 M-12.1 72.65 Q-14.35 69.7 -14.1 65.2 -14.65 65.7 -15.85 65.7 L-37.55 65.7 Q-38.75 65.7 -39.3 65.2 -39.1 69.75 -41.35 72.65 L-12.1 72.65 M42.2 75.35 L42.2 73.7 41.9 73.35 11.35 73.35 11.2 73.45 11.1 73.5 11.0 73.85 11.0 75.35 Q11.0 75.65 11.35 75.65 L41.85 75.65 Q42.2 75.65 42.2 75.35 M41.25 72.65 Q39.0 69.7 39.25 65.2 38.7 65.7 37.5 65.7 L15.8 65.7 Q14.6 65.7 14.05 65.2 14.25 69.75 12.0 72.65 L41.25 72.65 M-11.05 46.65 Q-11.05 45.25 -12.1 45.25 L-26.7 44.4 -41.3 45.25 Q-42.35 45.25 -42.35 46.65 L-41.8 52.9 Q-41.45 55.5 -39.55 63.2 L-39.5 63.25 -39.5 63.4 -39.05 64.5 Q-38.6 65.05 -37.55 65.05 L-15.85 65.05 Q-14.8 65.05 -14.35 64.5 L-13.9 63.45 -13.9 63.2 -13.85 63.15 Q-11.8 54.6 -11.6 52.9 -11.05 48.5 -11.05 46.65 M-64.4 46.65 Q-64.4 45.25 -65.45 45.25 L-77.75 44.45 -94.65 45.25 Q-95.7 45.25 -95.7 46.65 L-95.15 52.9 Q-94.8 55.5 -92.9 63.2 L-92.85 63.25 -92.85 63.4 -92.4 64.5 Q-91.95 65.05 -90.9 65.05 L-69.2 65.05 Q-68.15 65.05 -67.7 64.5 L-67.25 63.45 -67.25 63.2 -67.2 63.15 -66.1 58.65 Q-65.15 54.6 -64.95 52.9 -64.4 48.5 -64.4 46.65 M-117.8 12.6 L-117.2 12.65 Q-117.7 12.0 -117.7 10.85 L-117.7 -10.8 Q-117.7 -11.95 -117.2 -12.6 -121.45 -12.4 -124.65 -14.55 L-124.65 14.65 Q-121.7 12.6 -117.8 12.6 M-127.65 15.35 L-127.3 15.7 -125.85 15.7 -125.45 15.55 -125.45 15.5 -125.35 15.3 -125.35 -15.25 Q-125.35 -15.55 -125.7 -15.55 L-127.3 -15.55 -127.65 -15.2 -127.65 15.35 M-96.4 1.75 L-96.4 -1.7 -97.2 -14.55 Q-97.3 -15.65 -98.65 -15.65 L-104.85 -15.05 -110.7 -13.9 -115.15 -12.8 -115.25 -12.8 -115.4 -12.75 Q-116.1 -12.6 -116.45 -12.3 -117.0 -11.95 -117.0 -10.8 L-117.0 10.85 Q-117.0 12.0 -116.45 12.35 -116.1 12.7 -115.4 12.8 L-115.3 12.85 -115.15 12.85 -104.85 15.1 -98.65 15.7 Q-97.3 15.7 -97.2 14.6 L-96.4 1.75 M-95.7 -46.65 Q-95.7 -45.2 -94.65 -45.2 L-77.75 -44.4 -65.45 -45.2 Q-64.4 -45.2 -64.4 -46.65 -64.4 -48.45 -64.95 -52.85 -65.5 -56.65 -67.2 -63.1 L-67.25 -63.15 -67.25 -63.35 Q-67.4 -64.0 -67.7 -64.45 -68.15 -65.0 -69.2 -65.0 L-90.9 -65.0 Q-91.95 -65.0 -92.4 -64.45 L-92.85 -63.4 -92.85 -63.25 -92.9 -63.2 -92.9 -63.15 Q-94.75 -56.2 -95.15 -52.85 L-95.7 -46.65 M-94.7 -72.6 Q-92.45 -69.7 -92.65 -65.15 -92.0 -65.7 -90.9 -65.7 L-69.2 -65.7 Q-68.1 -65.7 -67.45 -65.15 -67.7 -69.65 -65.45 -72.6 L-94.7 -72.6 M-95.4 -75.65 L-95.7 -75.3 -95.7 -73.8 -95.6 -73.45 -95.5 -73.4 -95.35 -73.3 -64.8 -73.3 -64.5 -73.65 -64.5 -75.3 Q-64.5 -75.65 -64.85 -75.65 L-95.4 -75.65 M-42.35 -46.65 Q-42.35 -45.2 -41.3 -45.2 L-26.7 -44.35 -12.1 -45.2 Q-11.05 -45.2 -11.05 -46.65 -11.05 -48.45 -11.6 -52.85 L-12.8 -58.7 -13.85 -63.1 -13.9 -63.15 -13.9 -63.35 -14.35 -64.45 Q-14.8 -65.0 -15.85 -65.0 L-37.55 -65.0 Q-38.6 -65.0 -39.05 -64.45 L-39.5 -63.4 -39.5 -63.25 -39.55 -63.2 -39.55 -63.15 Q-41.4 -56.2 -41.8 -52.85 L-42.35 -46.65 M-41.35 -72.6 Q-39.1 -69.7 -39.3 -65.15 -38.65 -65.7 -37.55 -65.7 L-15.85 -65.7 Q-14.75 -65.7 -14.1 -65.15 -14.35 -69.65 -12.1 -72.6 L-41.35 -72.6 M-42.05 -75.65 Q-42.35 -75.65 -42.35 -75.3 L-42.35 -73.8 -42.25 -73.45 -42.15 -73.4 -42.0 -73.3 -11.45 -73.3 -11.15 -73.65 -11.15 -75.3 Q-11.15 -75.65 -11.5 -75.65 L-42.05 -75.65 M95.65 43.7 L95.65 -43.65 -95.7 -43.65 -95.7 43.7 95.65 43.7 M117.15 12.65 L117.8 12.6 Q121.6 12.6 124.65 14.65 L124.65 -14.55 Q121.45 -12.4 117.2 -12.55 117.7 -12.0 117.7 -10.8 L117.7 10.85 Q117.7 11.95 117.15 12.65 M127.65 15.35 L127.65 -15.2 127.3 -15.55 125.7 -15.55 Q125.35 -15.55 125.35 -15.25 L125.35 15.3 125.4 15.5 125.45 15.55 125.85 15.7 127.3 15.7 127.65 15.35 M95.65 46.65 Q95.65 45.25 94.6 45.25 L80.0 44.4 65.4 45.25 Q64.35 45.25 64.35 46.65 64.35 48.5 64.9 52.9 65.25 55.5 67.15 63.2 L67.2 63.25 67.2 63.4 67.65 64.5 Q68.1 65.05 69.15 65.05 L90.85 65.05 Q91.9 65.05 92.35 64.5 L92.8 63.45 92.8 63.2 92.85 63.2 92.85 63.15 93.95 58.65 95.1 52.9 95.65 46.65 M42.3 46.65 Q42.3 45.25 41.25 45.25 L26.65 44.4 12.05 45.25 Q11.0 45.25 11.0 46.65 11.0 48.5 11.55 52.9 11.9 55.7 13.8 63.2 L13.85 63.25 13.85 63.4 Q14.0 64.05 14.3 64.5 14.75 65.05 15.8 65.05 L37.5 65.05 Q38.55 65.05 39.0 64.5 L39.45 63.45 39.45 63.2 39.5 63.1 Q41.35 56.05 41.75 52.9 L42.3 46.65 M104.85 15.1 L110.7 13.95 115.15 12.85 115.25 12.85 115.4 12.8 Q116.1 12.65 116.45 12.35 117.0 12.0 117.0 10.85 L117.0 -10.8 Q117.0 -11.95 116.45 -12.3 L115.45 -12.75 115.25 -12.8 115.15 -12.8 104.85 -15.05 98.65 -15.65 Q97.3 -15.65 97.2 -14.55 L96.4 0.05 97.2 14.6 Q97.3 15.7 98.65 15.7 L104.85 15.1 M64.7 -75.65 Q64.35 -75.65 64.35 -75.3 L64.35 -73.8 64.4 -73.65 64.5 -73.45 64.55 -73.4 64.7 -73.3 95.25 -73.3 95.55 -73.65 95.55 -75.3 95.2 -75.65 64.7 -75.65 M65.35 -72.6 Q67.6 -69.7 67.4 -65.15 68.05 -65.7 69.15 -65.7 L90.85 -65.7 Q91.95 -65.7 92.6 -65.15 92.35 -69.65 94.6 -72.6 L65.35 -72.6 M64.35 -46.65 Q64.35 -45.2 65.4 -45.2 L80.0 -44.35 94.6 -45.2 Q95.65 -45.2 95.65 -46.65 L95.1 -52.85 93.9 -58.7 92.85 -63.1 92.85 -63.15 92.8 -63.15 92.8 -63.35 92.35 -64.45 Q91.9 -65.0 90.85 -65.0 L69.15 -65.0 Q68.1 -65.0 67.65 -64.45 L67.2 -63.4 67.2 -63.25 67.15 -63.2 67.15 -63.15 66.1 -58.7 64.9 -52.85 Q64.35 -48.45 64.35 -46.65 M12.0 -72.6 Q14.25 -69.7 14.05 -65.15 14.7 -65.7 15.8 -65.7 L37.5 -65.7 Q38.6 -65.7 39.25 -65.15 39.0 -69.65 41.25 -72.6 L12.0 -72.6 M11.0 -46.65 Q11.0 -45.2 12.05 -45.2 L26.65 -44.35 41.25 -45.2 Q42.3 -45.2 42.3 -46.65 L41.75 -52.85 Q41.45 -55.4 39.5 -63.1 L39.45 -63.15 39.45 -63.35 39.0 -64.45 Q38.55 -65.0 37.5 -65.0 L15.8 -65.0 Q14.75 -65.0 14.3 -64.45 L13.85 -63.4 13.85 -63.2 13.8 -63.15 Q11.95 -56.2 11.55 -52.85 11.0 -48.45 11.0 -46.65 M127.3 -16.25 Q127.75 -16.25 128.05 -15.95 L128.35 -15.2 128.35 15.35 128.05 16.1 Q127.75 16.4 127.3 16.4 L125.7 16.4 Q125.25 16.4 125.0 16.05 L124.85 15.9 124.8 15.8 124.7 15.65 124.7 15.6 Q123.7 14.7 122.0 14.05 119.0 12.95 115.55 13.5 L115.3 13.55 104.95 15.8 98.65 16.4 Q96.65 16.4 96.5 14.7 L96.35 12.35 96.35 44.05 96.0 44.4 92.35 44.4 94.65 44.55 Q96.35 44.65 96.35 46.65 96.35 48.75 95.75 53.0 L94.6 58.9 93.5 63.35 93.45 63.6 Q92.9 67.05 94.0 70.05 94.65 71.75 95.5 72.7 96.3 72.95 96.3 73.7 L96.25 73.85 96.25 75.35 95.95 76.05 95.2 76.35 64.7 76.35 Q64.25 76.35 63.95 76.05 63.65 75.75 63.65 75.35 L63.65 73.7 Q63.65 73.4 63.95 73.0 L64.1 72.9 64.4 72.75 64.4 72.7 65.95 70.05 Q67.1 67.05 66.55 63.6 L66.5 63.35 Q64.55 55.55 64.2 53.0 63.65 48.5 63.65 46.65 63.65 44.65 65.35 44.55 L67.65 44.4 39.0 44.4 41.3 44.55 Q43.0 44.65 43.0 46.65 43.0 48.75 42.4 53.0 42.1 55.6 40.15 63.35 L40.1 63.6 Q39.55 67.05 40.65 70.05 41.3 71.75 42.15 72.7 42.95 72.95 42.95 73.7 L42.9 73.85 42.9 75.35 42.6 76.05 Q42.3 76.35 41.85 76.35 L11.35 76.35 Q10.9 76.35 10.6 76.05 10.3 75.75 10.3 75.35 L10.3 73.7 Q10.3 73.4 10.6 73.0 L10.75 72.9 11.05 72.75 11.05 72.7 Q11.95 71.7 12.6 70.0 13.7 67.05 13.15 63.55 L13.15 63.35 Q11.35 56.55 10.85 53.0 10.3 48.5 10.3 46.65 10.3 44.65 12.0 44.55 L14.3 44.4 -14.35 44.4 -12.05 44.55 Q-10.35 44.65 -10.35 46.65 -10.35 48.75 -10.95 53.0 -11.15 54.85 -12.1 58.9 L-13.2 63.35 -13.25 63.6 Q-13.8 67.05 -12.7 70.05 -12.05 71.75 -11.2 72.7 -10.4 72.95 -10.4 73.7 L-10.45 73.85 -10.45 75.35 Q-10.45 75.75 -10.75 76.05 -11.05 76.35 -11.5 76.35 L-42.05 76.35 -42.75 76.05 -43.05 75.35 -43.05 73.7 -42.75 73.0 -42.6 72.9 -42.3 72.75 -42.3 72.7 Q-41.4 71.7 -40.75 70.05 -39.65 67.05 -40.2 63.6 L-40.2 63.35 Q-42.15 55.55 -42.5 53.0 L-43.05 46.65 Q-43.05 44.65 -41.35 44.55 L-39.05 44.4 -67.7 44.4 -65.4 44.55 Q-63.7 44.65 -63.7 46.65 -63.7 48.75 -64.3 53.0 -64.6 55.6 -66.55 63.35 L-66.6 63.6 Q-67.15 67.05 -66.05 70.05 -65.4 71.75 -64.55 72.7 -63.75 72.95 -63.75 73.7 L-63.8 73.85 -63.8 75.35 -64.1 76.05 Q-64.4 76.35 -64.85 76.35 L-95.4 76.35 -96.1 76.05 -96.4 75.35 -96.4 73.7 -96.1 73.0 -95.95 72.9 -95.65 72.75 -95.65 72.7 Q-94.75 71.7 -94.1 70.05 -93.0 67.05 -93.55 63.6 L-93.55 63.35 Q-95.5 55.55 -95.85 53.0 L-96.4 46.65 Q-96.4 44.65 -94.7 44.55 L-92.4 44.4 -96.05 44.4 -96.4 44.05 -96.4 13.3 -96.5 14.7 Q-96.65 16.4 -98.65 16.4 L-104.95 15.8 -110.9 14.6 -115.3 13.55 -115.6 13.5 Q-119.05 12.95 -122.0 14.05 -123.7 14.7 -124.7 15.6 L-124.7 15.65 -124.8 15.8 -124.85 15.9 -125.0 16.05 Q-125.25 16.4 -125.7 16.4 L-127.3 16.4 Q-127.75 16.4 -128.05 16.1 L-128.35 15.35 -128.35 -15.2 -128.05 -15.95 Q-127.75 -16.25 -127.3 -16.25 L-125.85 -16.25 -125.7 -16.3 Q-124.9 -16.3 -124.7 -15.5 -121.0 -12.55 -115.55 -13.45 L-115.3 -13.5 Q-108.45 -15.35 -104.95 -15.75 L-98.65 -16.35 Q-96.65 -16.35 -96.5 -14.65 L-96.4 -13.25 -96.4 -44.0 -96.05 -44.35 -92.4 -44.35 -94.7 -44.5 Q-96.4 -44.6 -96.4 -46.65 L-95.85 -52.95 -94.65 -58.85 -93.55 -63.3 -93.5 -63.55 Q-92.95 -67.0 -94.1 -69.95 -94.75 -71.65 -95.65 -72.65 L-95.65 -72.7 -95.95 -72.85 -96.1 -72.95 -96.4 -73.65 -96.4 -75.3 -96.1 -76.05 -95.4 -76.35 -64.85 -76.35 Q-64.4 -76.35 -64.1 -76.05 -63.8 -75.7 -63.8 -75.3 L-63.8 -73.8 -63.75 -73.65 Q-63.75 -72.9 -64.55 -72.65 -65.4 -71.7 -66.05 -69.95 -67.15 -66.95 -66.6 -63.5 L-66.55 -63.3 Q-64.7 -56.45 -64.3 -52.95 -63.7 -48.65 -63.7 -46.65 -63.7 -44.6 -65.4 -44.5 L-67.75 -44.35 -39.05 -44.35 -41.35 -44.5 Q-43.05 -44.6 -43.05 -46.65 L-42.5 -52.95 -41.3 -58.85 -40.2 -63.3 -40.15 -63.55 Q-39.6 -67.0 -40.75 -69.95 -41.4 -71.65 -42.3 -72.65 L-42.3 -72.7 -42.6 -72.85 -42.75 -72.95 -43.05 -73.65 -43.05 -75.3 -42.75 -76.05 -42.05 -76.35 -11.5 -76.35 -10.75 -76.05 -10.45 -75.3 -10.45 -73.8 -10.4 -73.65 Q-10.4 -72.9 -11.2 -72.65 -12.05 -71.7 -12.7 -69.95 -13.8 -67.0 -13.25 -63.55 L-13.2 -63.3 Q-11.25 -55.55 -10.95 -52.95 -10.35 -48.65 -10.35 -46.65 -10.35 -44.6 -12.05 -44.5 L-14.4 -44.35 14.3 -44.35 12.0 -44.5 Q10.3 -44.6 10.3 -46.65 10.3 -48.45 10.85 -52.95 11.1 -54.85 12.05 -58.9 L13.15 -63.3 13.2 -63.55 Q13.75 -67.0 12.6 -69.95 11.95 -71.65 11.05 -72.65 L11.05 -72.7 10.75 -72.85 10.6 -72.95 Q10.3 -73.35 10.3 -73.65 L10.3 -75.3 Q10.3 -75.7 10.6 -76.05 10.9 -76.35 11.35 -76.35 L41.85 -76.35 42.6 -76.05 42.9 -75.3 42.9 -73.8 42.95 -73.65 Q42.95 -72.9 42.15 -72.65 41.3 -71.7 40.65 -69.95 39.55 -66.95 40.1 -63.5 L40.15 -63.3 Q42.0 -56.45 42.4 -52.95 43.0 -48.65 43.0 -46.65 43.0 -44.6 41.3 -44.5 L38.95 -44.35 67.65 -44.35 65.35 -44.5 Q63.65 -44.6 63.65 -46.65 63.65 -48.45 64.2 -52.95 64.45 -54.8 65.4 -58.85 L66.5 -63.3 66.55 -63.55 Q67.1 -67.0 65.95 -69.95 L64.4 -72.65 64.4 -72.7 64.1 -72.85 63.95 -72.95 Q63.65 -73.35 63.65 -73.65 L63.65 -75.3 Q63.65 -75.7 63.95 -76.05 64.25 -76.35 64.7 -76.35 L95.2 -76.35 95.95 -76.05 96.25 -75.3 96.25 -73.8 96.3 -73.65 Q96.3 -72.9 95.5 -72.65 94.65 -71.7 94.0 -69.95 92.9 -67.0 93.45 -63.55 L93.5 -63.3 Q95.45 -55.55 95.75 -52.95 96.35 -48.65 96.35 -46.65 96.35 -44.6 94.65 -44.5 L92.3 -44.35 96.0 -44.35 96.35 -44.0 96.35 -12.3 96.5 -14.65 Q96.65 -16.35 98.65 -16.35 L104.95 -15.75 Q107.85 -15.4 115.3 -13.5 L115.6 -13.45 Q121.0 -12.55 124.7 -15.5 124.9 -16.3 125.7 -16.3 L125.85 -16.25 127.3 -16.25 M11.35 -75.65 Q11.0 -75.65 11.0 -75.3 L11.0 -73.8 11.1 -73.45 11.2 -73.4 11.35 -73.3 41.9 -73.3 42.2 -73.65 42.2 -75.3 41.85 -75.65 11.35 -75.65" fill="#000000" fill-rule="evenodd" stroke="none" class="line" />
    </g>
  </defs>
  <g transform="matrix(1.0, 0.0, 0.0, 1.0, 0.0, 0.0)">
    <use height="152.0" id="Fill" transform="matrix(0.3906, 0.0, 0.0, 0.6579, 0.0, -0.0002)" width="256.0" xlink:href="#sprite0" />
    <use height="152.7" id="Line" transform="matrix(0.3896, 0.0, 0.0, 0.6549, 0.0004, 0.0002)" width="256.7" xlink:href="#sprite1" />
  </g>
</svg>