<?xml version="1.0" encoding="UTF-8" standalone="no"?>
<svg xmlns:xlink="http://www.w3.org/1999/xlink" height="100%" width="100%" xmlns="http://www.w3.org/2000/svg" preserveAspectRatio="none" viewBox="0 0 100 100">
  <defs>
    <g id="sprite0" transform="matrix(1.0, 0.0, 0.0, 1.0, 78.8, 80.2)">
      <use height="160.3" transform="matrix(1.0, 0.0, 0.0, 1.0, -78.8, -80.2)" width="157.6" xlink:href="#shape0" />
    </g>
    <g id="shape0" transform="matrix(1.0, 0.0, 0.0, 1.0, 78.8, 80.2)">
      <path d="M58.9 -56.3 Q59.75 -56.8 60.25 -55.95 L78.6 -24.2 Q79.1 -23.35 78.25 -22.85 L76.7 -21.95 76.35 -21.8 76.2 -21.75 75.65 -21.85 Q69.95 -23.0 64.0 -18.6 56.3 -10.7 47.75 -5.1 L48.0 0.0 47.75 5.1 Q56.25 10.7 64.0 18.65 69.9 23.05 75.65 21.9 L76.15 21.8 76.35 21.85 76.65 21.95 78.2 22.85 Q79.05 23.35 78.55 24.2 L60.25 55.95 Q59.75 56.8 58.9 56.3 L57.35 55.4 57.05 55.25 56.95 55.1 56.75 54.6 Q54.9 49.05 48.1 46.15 37.4 43.4 28.35 38.8 24.1 42.0 19.4 44.05 18.85 54.15 15.85 64.7 15.0 72.0 18.85 76.4 L19.2 76.8 19.25 77.0 19.3 77.3 19.3 79.1 Q19.3 80.1 18.3 80.1 L-18.35 80.1 Q-19.35 80.1 -19.35 79.1 L-19.35 77.3 -19.3 77.0 -19.25 76.8 -18.9 76.4 Q-15.05 72.0 -15.9 64.7 -18.9 54.15 -19.45 44.05 -24.2 41.95 -28.45 38.75 -37.5 43.35 -48.15 46.0 -54.95 48.9 -56.8 54.45 L-57.0 54.95 -57.1 55.1 -57.4 55.3 -58.95 56.2 Q-59.8 56.7 -60.3 55.85 L-78.6 24.1 Q-79.1 23.25 -78.25 22.75 L-76.7 21.85 -76.4 21.7 -76.2 21.65 -75.7 21.75 Q-69.95 22.9 -64.05 18.5 -56.3 10.55 -47.75 5.0 L-48.0 0.0 -47.75 -5.15 Q-56.3 -10.75 -63.95 -18.7 -69.9 -23.1 -75.6 -21.95 L-76.15 -21.85 -76.3 -21.9 -76.65 -22.0 -78.2 -22.9 Q-79.05 -23.4 -78.55 -24.25 L-60.2 -56.0 Q-59.7 -56.85 -58.85 -56.35 L-57.3 -55.45 -57.05 -55.3 -56.9 -55.15 -56.75 -54.65 Q-54.85 -49.1 -48.1 -46.2 -37.35 -43.45 -28.25 -38.8 -24.05 -42.0 -19.4 -44.05 -18.85 -54.2 -15.85 -64.8 -15.0 -72.1 -18.85 -76.5 L-19.2 -76.9 -19.25 -77.1 -19.3 -77.4 -19.3 -79.2 Q-19.3 -80.2 -18.3 -80.2 L18.35 -80.2 Q19.35 -80.2 19.35 -79.2 L19.35 -77.4 19.3 -77.1 19.25 -76.9 18.9 -76.5 Q15.05 -72.1 15.9 -64.8 18.9 -54.2 19.45 -44.0 24.1 -41.95 28.35 -38.75 37.4 -43.4 48.15 -46.1 54.9 -49.0 56.8 -54.55 56.8 -54.85 56.95 -55.05 L57.1 -55.2 57.35 -55.4 58.9 -56.3" fill="#ffffff" fill-rule="evenodd" stroke="none" class="fill" />
    </g>
    <g id="sprite1" transform="matrix(1.0, 0.0, 0.0, 1.0, 79.25, 80.7)">
      <use height="161.3" transform="matrix(1.0, 0.0, 0.0, 1.0, -79.25, -80.7)" width="158.55" xlink:href="#shape1" />
    </g>
    <g id="shape1" transform="matrix(1.0, 0.0, 0.0, 1.0, 79.25, 80.7)">
      <path d="M76.2 22.25 L76.15 22.2 76.0 22.25 75.7 22.5 57.4 54.25 57.3 54.6 57.4 54.7 57.4 54.8 57.45 54.85 57.6 54.9 59.15 55.8 Q59.6 56.05 59.85 55.65 L78.15 23.9 Q78.4 23.45 77.95 23.2 L76.4 22.3 76.25 22.25 76.2 22.25 M64.2 21.3 Q64.95 19.95 63.75 19.0 L63.55 18.85 Q56.2 11.35 48.2 5.95 46.35 22.2 34.25 34.3 L29.3 38.7 Q38.0 43.0 48.15 45.6 L48.35 45.65 Q49.85 46.15 50.6 44.85 L64.2 21.3 M65.5 20.2 Q65.55 20.95 65.05 21.8 L51.45 45.35 50.3 46.55 Q55.0 49.15 56.85 53.2 L74.6 22.5 Q70.1 22.95 65.5 20.2 M-18.35 76.8 L-18.7 76.9 -18.75 77.0 -18.8 77.05 -18.8 77.15 -18.85 77.3 -18.85 79.1 Q-18.85 79.6 -18.35 79.6 L18.3 79.6 Q18.8 79.6 18.8 79.1 L18.8 77.3 18.8 77.15 18.75 77.05 18.75 77.0 18.65 76.9 18.3 76.8 -18.35 76.8 M-13.6 67.2 Q-14.6 67.2 -15.25 66.8 -15.15 72.15 -17.75 75.8 L17.75 75.8 Q15.1 72.15 15.2 66.8 14.55 67.2 13.55 67.2 L-13.6 67.2 M-15.4 64.65 Q-15.15 66.2 -13.6 66.2 L13.55 66.2 Q15.1 66.2 15.35 64.65 L15.4 64.45 Q18.25 54.45 18.85 44.85 10.2 48.5 0.0 48.5 -10.2 48.5 -18.9 44.85 -18.3 54.45 -15.45 64.45 L-15.4 64.65 M-65.05 21.75 Q-65.55 20.9 -65.5 20.15 -70.1 22.95 -74.55 22.5 L-56.8 53.2 Q-55.0 49.15 -50.3 46.5 L-51.45 45.3 -65.05 21.75 M-76.0 22.2 L-76.1 22.2 -76.2 22.2 -76.25 22.25 -76.4 22.3 -77.95 23.2 Q-78.4 23.45 -78.15 23.85 L-59.85 55.6 Q-59.6 56.05 -59.15 55.8 L-57.6 54.9 -57.45 54.85 -57.4 54.75 -57.35 54.7 -57.3 54.55 -57.4 54.2 -75.7 22.45 -76.0 22.2 M-29.35 38.65 L-34.3 34.3 Q-46.35 22.2 -48.15 5.9 -56.25 11.3 -63.55 18.8 L-63.75 18.95 Q-64.95 19.95 -64.2 21.25 L-50.6 44.8 Q-49.85 46.15 -48.35 45.6 L-48.15 45.55 Q-38.05 42.95 -29.35 38.65 M-48.35 -45.75 Q-49.75 -46.3 -50.55 -45.0 L-64.1 -21.45 Q-64.9 -20.1 -63.7 -19.1 L-63.65 -19.1 -63.55 -18.95 Q-56.25 -11.45 -48.15 -6.05 -46.3 -22.25 -34.3 -34.25 L-29.2 -38.75 Q-37.9 -43.05 -48.1 -45.7 L-48.3 -45.75 -48.35 -45.75 M-51.45 -45.5 L-50.25 -46.7 Q-54.9 -49.25 -56.8 -53.4 L-74.55 -22.65 Q-70.05 -23.05 -65.5 -20.35 -65.5 -21.1 -65.0 -21.95 L-51.45 -45.5 M-59.1 -55.95 Q-59.5 -56.2 -59.75 -55.8 L-78.1 -24.05 Q-78.35 -23.6 -77.95 -23.35 L-76.4 -22.45 -76.2 -22.4 -76.05 -22.35 -75.9 -22.35 -75.7 -22.65 -57.35 -54.4 -57.25 -54.7 -57.3 -54.85 -57.3 -54.9 -57.4 -54.95 -57.55 -55.05 -59.1 -55.95 M50.3 -46.65 L51.5 -45.45 65.05 -21.9 Q65.55 -21.05 65.55 -20.3 70.1 -23.05 74.6 -22.6 L56.85 -53.35 Q54.95 -49.25 50.3 -46.65 M29.25 -38.65 L34.25 -34.25 Q46.3 -22.25 48.2 -6.0 56.3 -11.4 63.6 -18.9 L63.7 -19.05 63.75 -19.05 Q64.95 -20.1 64.15 -21.4 L50.6 -44.95 Q49.8 -46.3 48.4 -45.7 L48.35 -45.7 48.15 -45.65 Q37.95 -43.0 29.25 -38.65 M33.55 -33.55 Q31.0 -36.1 28.25 -38.15 L27.35 -38.85 Q23.8 -41.4 20.0 -43.2 L19.0 -43.7 Q10.25 -47.5 0.0 -47.5 -10.25 -47.5 -18.9 -43.7 L-19.95 -43.25 Q-23.8 -41.45 -27.3 -38.9 L-28.2 -38.25 -33.6 -33.55 Q-45.5 -21.65 -47.2 -5.45 L-47.3 -4.35 -47.5 0.0 -47.3 4.2 -47.2 5.3 Q-45.6 21.55 -33.6 33.6 L-28.4 38.15 -27.45 38.85 Q-23.9 41.45 -20.0 43.25 L-18.95 43.75 Q-10.25 47.5 0.0 47.5 10.25 47.5 18.95 43.75 L19.95 43.3 Q23.85 41.45 27.45 38.85 L28.35 38.2 33.55 33.6 Q45.6 21.55 47.25 5.35 L47.35 4.2 47.5 0.0 47.35 -4.3 47.25 -5.4 Q45.55 -21.6 33.55 -33.55 M15.4 -64.75 Q15.15 -66.3 13.6 -66.3 L-13.55 -66.3 Q-15.1 -66.3 -15.35 -64.75 L-15.35 -64.7 -15.4 -64.55 Q-18.25 -54.5 -18.85 -44.8 -10.2 -48.5 0.0 -48.5 10.2 -48.5 18.95 -44.8 18.3 -54.45 15.45 -64.55 L15.4 -64.7 15.4 -64.75 M13.6 -67.3 Q14.6 -67.3 15.25 -66.9 15.15 -72.25 17.8 -75.9 L-17.7 -75.9 Q-15.1 -72.25 -15.2 -66.9 -14.55 -67.3 -13.55 -67.3 L13.6 -67.3 M18.85 -77.4 L18.85 -79.2 Q18.85 -79.7 18.35 -79.7 L-18.3 -79.7 Q-18.8 -79.7 -18.8 -79.2 L-18.8 -77.4 -18.75 -77.25 -18.75 -77.1 -18.7 -77.05 -18.65 -76.95 -18.3 -76.9 18.35 -76.9 18.7 -76.95 18.8 -77.05 18.8 -77.1 18.85 -77.25 18.85 -77.4 M58.65 -56.8 Q59.95 -57.55 60.7 -56.25 L79.05 -24.5 Q79.8 -23.2 78.5 -22.45 L76.95 -21.55 76.55 -21.4 76.25 -21.3 76.2 -21.3 75.5 -21.45 Q69.95 -22.45 64.3 -18.25 L64.25 -18.25 Q56.7 -10.4 48.3 -4.9 L48.5 0.0 48.3 4.8 Q56.7 10.35 64.35 18.2 70.0 22.4 75.5 21.35 L76.25 21.25 76.3 21.25 76.6 21.35 76.9 21.45 78.45 22.35 Q79.75 23.1 79.0 24.4 L60.7 56.15 Q59.95 57.45 58.65 56.7 L57.1 55.8 56.8 55.6 56.6 55.35 56.55 55.3 56.3 54.65 Q54.4 49.35 47.95 46.55 37.4 43.9 28.4 39.35 24.35 42.35 19.9 44.4 19.3 54.35 16.35 64.75 L16.35 64.8 Q15.55 71.75 19.2 76.05 L19.65 76.6 19.7 76.65 19.75 76.95 19.8 77.3 19.8 79.1 Q19.8 80.6 18.3 80.6 L-18.35 80.6 Q-19.85 80.6 -19.85 79.1 L-19.85 77.3 -19.8 76.95 -19.7 76.65 -19.7 76.6 -19.2 76.05 Q-15.6 71.75 -16.4 64.8 L-16.4 64.75 Q-19.35 54.35 -19.95 44.4 -24.4 42.35 -28.45 39.35 -37.4 43.85 -47.95 46.5 -54.4 49.3 -56.3 54.65 L-56.55 55.25 -56.6 55.35 -56.8 55.55 -57.1 55.75 -58.65 56.65 Q-59.95 57.4 -60.7 56.1 L-79.0 24.35 Q-79.75 23.05 -78.45 22.3 L-76.9 21.4 -76.6 21.3 -76.3 21.25 -76.25 21.2 -75.5 21.35 Q-70.0 22.35 -64.35 18.15 -56.7 10.3 -48.25 4.8 L-48.5 0.0 -48.25 -4.95 Q-56.65 -10.5 -64.2 -18.3 L-64.25 -18.3 Q-69.9 -22.5 -75.4 -21.5 L-76.15 -21.35 -76.15 -21.4 -76.5 -21.45 -76.9 -21.6 -78.45 -22.5 Q-79.75 -23.25 -79.0 -24.55 L-60.65 -56.3 Q-59.9 -57.6 -58.6 -56.85 L-57.05 -55.95 -56.75 -55.7 -56.45 -55.5 -56.5 -55.4 -56.2 -54.75 Q-54.35 -49.45 -47.9 -46.65 L-47.85 -46.65 Q-37.25 -44.0 -28.3 -39.4 -24.3 -42.4 -19.9 -44.35 -19.3 -54.4 -16.35 -64.8 L-16.35 -64.85 Q-15.55 -71.85 -19.15 -76.1 L-19.65 -76.65 -19.65 -76.7 -19.75 -77.0 -19.8 -77.4 -19.8 -79.2 Q-19.8 -80.7 -18.3 -80.7 L18.35 -80.7 Q19.85 -80.7 19.85 -79.2 L19.85 -77.4 19.8 -77.0 19.75 -76.7 19.7 -76.65 19.25 -76.1 Q15.6 -71.85 16.4 -64.85 L16.4 -64.8 Q19.35 -54.35 19.95 -44.35 24.3 -42.35 28.3 -39.4 37.25 -43.95 47.9 -46.6 L47.95 -46.6 Q54.4 -49.4 56.3 -54.7 L56.55 -55.35 56.55 -55.4 56.8 -55.65 57.1 -55.9 58.65 -56.8 M59.8 -55.75 Q59.55 -56.2 59.15 -55.95 L57.6 -55.05 57.5 -54.9 57.35 -54.85 57.35 -54.75 57.3 -54.65 57.4 -54.35 75.75 -22.6 75.95 -22.3 76.1 -22.25 76.1 -22.3 76.3 -22.35 76.45 -22.45 78.0 -23.35 Q78.4 -23.6 78.15 -24.0 L59.8 -55.75" fill="#000000" fill-rule="evenodd" stroke="none" class="line" />
    </g>
  </defs>
  <g transform="matrix(1.0, 0.0, 0.0, 1.0, 0.0, 0.0)">
    <use height="160.3" id="fill" transform="matrix(0.631, 0.0, 0.0, 0.62, 0.2751, 0.3288)" width="157.6" xlink:href="#sprite0" />
    <use height="161.3" id="line" transform="matrix(0.631, 0.0, 0.0, 0.62, -0.0089, 0.0189)" width="158.55" xlink:href="#sprite1" />
  </g>
</svg>