<?xml version="1.0" encoding="UTF-8" standalone="no"?>
<svg xmlns:xlink="http://www.w3.org/1999/xlink" height="100%" width="100%" xmlns="http://www.w3.org/2000/svg" preserveAspectRatio="none" viewBox="0 0 100 100">
  <defs>
    <g id="sprite0" transform="matrix(1.0, 0.0, 0.0, 1.0, 89.6, 20.1)">
      <use height="40.2" transform="matrix(1.0, 0.0, 0.0, 1.0, -89.6, -20.1)" width="179.2" xlink:href="#shape0" />
    </g>
    <g id="shape0" transform="matrix(1.0, 0.0, 0.0, 1.0, 89.6, 20.1)">
      <path d="M4.5 -16.4 L4.15 -16.8 4.1 -17.0 4.05 -17.3 4.05 -19.1 Q4.05 -20.1 5.05 -20.1 L41.7 -20.1 Q42.7 -20.1 42.7 -19.1 L42.7 -17.3 42.65 -17.0 42.6 -16.8 42.25 -16.4 Q38.4 -12.0 39.25 -4.7 42.4 6.4 42.85 17.0 42.95 19.0 40.95 19.0 L23.1 20.1 5.8 19.0 Q3.8 19.0 3.9 17.0 4.35 6.4 7.5 -4.7 8.35 -12.0 4.5 -16.4 M50.9 -16.8 L50.85 -17.0 50.8 -17.3 50.8 -19.1 Q50.8 -20.1 51.8 -20.1 L88.45 -20.1 Q89.45 -20.1 89.45 -19.1 L89.45 -17.3 89.4 -17.0 89.35 -16.8 89.0 -16.4 Q85.15 -12.0 86.0 -4.7 89.15 6.4 89.6 17.0 89.7 19.0 87.7 19.0 L69.85 20.1 52.55 19.0 Q50.55 19.0 50.65 17.0 51.1 6.4 54.25 -4.7 55.1 -12.0 51.25 -16.4 L50.9 -16.8 M-89.45 -19.1 Q-89.45 -20.1 -88.45 -20.1 L-51.8 -20.1 Q-50.8 -20.1 -50.8 -19.1 L-50.8 -17.3 -50.85 -17.0 -50.9 -16.8 -51.25 -16.4 Q-55.1 -12.0 -54.25 -4.7 -51.1 6.4 -50.65 17.0 -50.55 19.0 -52.55 19.0 L-70.4 20.1 -87.7 19.0 Q-89.7 19.0 -89.6 17.0 -89.15 6.4 -86.0 -4.7 -85.15 -12.0 -89.0 -16.4 L-89.35 -16.8 -89.4 -17.0 -89.45 -17.3 -89.45 -19.1 M-42.6 -16.8 L-42.65 -17.0 -42.7 -17.3 -42.7 -19.1 Q-42.7 -20.1 -41.7 -20.1 L-5.05 -20.1 Q-4.05 -20.1 -4.05 -19.1 L-4.05 -17.3 -4.1 -17.0 -4.15 -16.8 -4.5 -16.4 Q-8.35 -12.0 -7.5 -4.7 -4.35 6.4 -3.9 17.0 -3.8 19.0 -5.8 19.0 L-23.65 20.1 -40.95 19.0 Q-42.95 19.0 -42.85 17.0 -42.4 6.4 -39.25 -4.7 -38.4 -12.0 -42.25 -16.4 L-42.6 -16.8" fill="#ffffff" fill-rule="evenodd" stroke="none" class="fill" />
    </g>
    <g id="sprite1" transform="matrix(1.0, 0.0, 0.0, 1.0, 90.1, 20.6)">
      <use height="41.2" transform="matrix(1.0, 0.0, 0.0, 1.0, -90.1, -20.6)" width="180.2" xlink:href="#shape1" />
    </g>
    <g id="shape1" transform="matrix(1.0, 0.0, 0.0, 1.0, 90.1, 20.6)">
      <path d="M-38.6 -6.8 L-36.95 -7.2 -9.8 -7.2 Q-8.8 -7.2 -8.15 -6.8 -8.25 -12.15 -5.6 -15.8 L-41.1 -15.8 Q-38.5 -12.15 -38.6 -6.8 M-36.95 -6.2 Q-38.5 -6.2 -38.75 -4.65 L-38.75 -4.6 -38.8 -4.45 Q-41.9 6.55 -42.35 17.05 -42.4 17.75 -42.05 18.15 L-40.95 18.5 -40.9 18.5 -23.65 19.6 -5.85 18.5 -5.8 18.5 Q-5.05 18.5 -4.65 18.15 -4.35 17.75 -4.4 17.05 -4.85 6.55 -7.95 -4.45 L-8.0 -4.6 -8.0 -4.65 Q-8.25 -6.2 -9.8 -6.2 L-36.95 -6.2 M-43.2 -19.1 Q-43.2 -20.6 -41.7 -20.6 L-5.05 -20.6 Q-3.55 -20.6 -3.55 -19.1 L-3.55 -17.3 -3.6 -16.9 -3.65 -16.6 -3.7 -16.55 -4.15 -16.0 Q-7.8 -11.75 -7.0 -4.75 -3.85 6.35 -3.4 17.0 -3.35 18.25 -3.95 18.85 -4.55 19.5 -5.75 19.5 L-23.65 20.6 -41.0 19.5 Q-42.2 19.5 -42.75 18.85 -43.4 18.25 -43.35 17.0 -42.9 6.35 -39.75 -4.75 -38.95 -11.75 -42.55 -16.0 L-43.05 -16.55 -43.05 -16.6 -43.15 -16.9 -43.2 -17.3 -43.2 -19.1 M-41.7 -19.6 Q-42.2 -19.6 -42.2 -19.1 L-42.2 -17.3 -42.15 -17.15 -42.15 -17.0 -42.1 -16.95 -42.05 -16.85 -41.7 -16.8 -5.05 -16.8 -4.7 -16.85 -4.6 -16.95 -4.6 -17.0 -4.55 -17.15 -4.55 -17.3 -4.55 -19.1 Q-4.55 -19.6 -5.05 -19.6 L-41.7 -19.6 M-85.35 -6.8 L-83.7 -7.2 -56.55 -7.2 Q-55.55 -7.2 -54.9 -6.8 -55.0 -12.15 -52.35 -15.8 L-87.85 -15.8 Q-85.25 -12.15 -85.35 -6.8 M-85.5 -4.65 L-85.5 -4.6 -85.55 -4.45 Q-88.65 6.55 -89.1 17.05 -89.15 17.75 -88.8 18.15 -88.45 18.5 -87.7 18.5 L-87.65 18.5 -70.4 19.6 -52.6 18.5 -52.55 18.5 Q-51.8 18.5 -51.4 18.15 -51.1 17.75 -51.15 17.05 -51.6 6.55 -54.7 -4.45 L-54.75 -4.6 -54.75 -4.65 Q-55.0 -6.2 -56.55 -6.2 L-83.7 -6.2 Q-85.25 -6.2 -85.5 -4.65 M-88.45 -19.6 Q-88.95 -19.6 -88.95 -19.1 L-88.95 -17.3 -88.9 -17.15 -88.9 -17.0 -88.85 -16.95 -88.8 -16.85 -88.45 -16.8 -51.8 -16.8 -51.45 -16.85 -51.35 -16.95 -51.35 -17.0 -51.3 -17.15 -51.3 -17.3 -51.3 -19.1 Q-51.3 -19.6 -51.8 -19.6 L-88.45 -19.6 M-89.95 -19.1 Q-89.95 -20.6 -88.45 -20.6 L-51.8 -20.6 Q-50.3 -20.6 -50.3 -19.1 L-50.3 -17.3 -50.35 -16.9 -50.4 -16.6 -50.45 -16.55 -50.9 -16.0 Q-54.55 -11.75 -53.75 -4.75 L-53.75 -4.7 Q-50.6 6.35 -50.15 17.0 -50.1 18.25 -50.7 18.85 -51.3 19.5 -52.5 19.5 L-70.4 20.6 -87.75 19.5 Q-88.95 19.5 -89.5 18.85 -90.15 18.25 -90.1 17.0 -89.65 6.35 -86.5 -4.75 -85.7 -11.75 -89.3 -16.0 L-89.8 -16.55 -89.8 -16.6 -89.9 -16.9 -89.95 -17.3 -89.95 -19.1 M54.9 -6.8 Q55.55 -7.2 56.55 -7.2 L83.7 -7.2 85.35 -6.8 Q85.25 -12.15 87.9 -15.8 L52.4 -15.8 Q55.0 -12.15 54.9 -6.8 M54.75 -4.65 L54.75 -4.6 54.7 -4.45 Q51.6 6.55 51.15 17.05 51.1 17.75 51.45 18.15 L52.55 18.5 52.6 18.5 69.85 19.6 87.65 18.5 87.7 18.5 88.85 18.15 Q89.15 17.75 89.1 17.05 88.65 6.55 85.55 -4.45 L85.5 -4.6 85.5 -4.65 Q85.25 -6.2 83.7 -6.2 L56.55 -6.2 Q55.0 -6.2 54.75 -4.65 M50.35 -16.9 L50.3 -17.3 50.3 -19.1 Q50.3 -20.6 51.8 -20.6 L88.45 -20.6 Q89.95 -20.6 89.95 -19.1 L89.95 -17.3 89.9 -16.9 89.85 -16.6 89.8 -16.55 89.35 -16.0 Q85.7 -11.75 86.5 -4.75 L86.5 -4.7 Q89.65 6.35 90.1 17.0 90.15 18.25 89.55 18.85 88.95 19.5 87.75 19.5 L69.85 20.6 52.5 19.5 Q51.3 19.5 50.75 18.85 50.1 18.25 50.15 17.0 50.6 6.35 53.75 -4.75 54.55 -11.75 50.95 -16.0 L50.45 -16.55 50.45 -16.6 50.35 -16.9 M51.8 -19.6 Q51.3 -19.6 51.3 -19.1 L51.3 -17.3 51.35 -17.15 51.35 -17.0 51.4 -16.95 51.45 -16.85 51.8 -16.8 88.45 -16.8 88.8 -16.85 88.9 -16.95 88.9 -17.0 88.95 -17.15 88.95 -17.3 88.95 -19.1 Q88.95 -19.6 88.45 -19.6 L51.8 -19.6 M8.15 -6.8 Q8.8 -7.2 9.8 -7.2 L36.95 -7.2 38.6 -6.8 Q38.5 -12.15 41.15 -15.8 L5.65 -15.8 Q8.25 -12.15 8.15 -6.8 M9.8 -6.2 Q8.25 -6.2 8.0 -4.65 L8.0 -4.6 7.95 -4.45 Q4.85 6.55 4.4 17.05 4.35 17.75 4.7 18.15 5.05 18.5 5.8 18.5 L5.85 18.5 23.1 19.6 40.9 18.5 40.95 18.5 Q41.7 18.5 42.1 18.15 42.4 17.75 42.35 17.05 41.9 6.55 38.8 -4.45 L38.75 -4.6 38.75 -4.65 Q38.5 -6.2 36.95 -6.2 L9.8 -6.2 M5.05 -19.6 Q4.55 -19.6 4.55 -19.1 L4.55 -17.3 4.6 -17.15 4.6 -17.0 4.65 -16.95 4.7 -16.85 5.05 -16.8 41.7 -16.8 42.05 -16.85 42.15 -16.95 42.15 -17.0 42.2 -17.15 42.2 -17.3 42.2 -19.1 Q42.2 -19.6 41.7 -19.6 L5.05 -19.6 M3.55 -19.1 Q3.55 -20.6 5.05 -20.6 L41.7 -20.6 Q43.2 -20.6 43.2 -19.1 L43.2 -17.3 43.15 -16.9 43.1 -16.6 43.05 -16.55 42.6 -16.0 Q38.95 -11.75 39.75 -4.75 42.9 6.35 43.35 17.0 43.4 18.25 42.8 18.85 42.2 19.5 41.0 19.5 L23.1 20.6 5.75 19.5 Q4.55 19.5 4.0 18.85 3.35 18.25 3.4 17.0 3.85 6.35 7.0 -4.75 7.8 -11.75 4.2 -16.0 L3.7 -16.55 3.7 -16.6 3.6 -16.9 3.55 -17.3 3.55 -19.1" fill="#000000" fill-rule="evenodd" stroke="none" class="line" />
    </g>
  </defs>
  <g transform="matrix(1.0, 0.0, 0.0, 1.0, 0.0, 0.0)">
    <use height="40.2" id="fill" transform="matrix(0.5549, 0.0, 0.0, 2.4272, 0.2781, 1.2136)" width="179.2" xlink:href="#sprite0" />
    <use height="41.2" id="line" transform="matrix(0.5549, 0.0, 0.0, 2.4272, 0.0007, 0.0)" width="180.2" xlink:href="#sprite1" />
  </g>
</svg>