<?xml version="1.0" encoding="UTF-8" standalone="no"?>
<svg xmlns:xlink="http://www.w3.org/1999/xlink" height="100%" width="100%" xmlns="http://www.w3.org/2000/svg" preserveAspectRatio="none" viewBox="0 0 100 100">
  <defs>
    <g id="sprite0" transform="matrix(1.0, 0.0, 0.0, 1.0, 96.0, 76.0)">
      <use height="152.0" transform="matrix(1.0, 0.0, 0.0, 1.0, -96.0, -76.0)" width="192.0" xlink:href="#shape0" />
    </g>
    <g id="shape0" transform="matrix(1.0, 0.0, 0.0, 1.0, 96.0, 76.0)">
      <path d="M-96.0 44.05 L-96.0 -44.0 96.0 -44.0 96.0 44.05 -96.0 44.05" fill="#ffffff" fill-rule="evenodd" stroke="none" class="fill" />
      <path d="M-39.85 -63.25 L-39.8 -63.45 Q-39.15 -67.3 -40.55 -70.5 L-42.05 -72.95 -42.15 -73.0 -42.45 -73.2 -42.7 -73.65 -42.7 -75.3 -42.5 -75.8 -42.0 -76.0 -11.45 -76.0 Q-11.2 -76.0 -11.0 -75.8 L-10.8 -75.3 -10.8 -73.65 -10.75 -73.65 Q-10.75 -73.1 -11.35 -73.0 L-11.4 -72.95 -12.85 -70.5 Q-14.15 -67.3 -13.55 -63.45 L-13.55 -63.25 -12.45 -58.85 Q-11.5 -54.75 -11.25 -52.9 -10.7 -48.35 -10.7 -46.65 -10.7 -44.95 -12.05 -44.85 L-26.7 -44.0 -41.3 -44.85 Q-42.7 -44.95 -42.7 -46.65 -42.7 -48.55 -42.1 -52.9 -41.75 -55.55 -39.85 -63.25" fill="#ffffff" fill-rule="evenodd" stroke="none" class="fill" />
      <path d="M-93.2 -63.25 L-93.15 -63.45 Q-92.5 -67.3 -93.9 -70.5 L-95.4 -72.95 -95.5 -73.0 -95.8 -73.2 -96.0 -73.65 -96.0 -75.3 -95.8 -75.8 -95.35 -76.0 -64.8 -76.0 -64.3 -75.8 -64.1 -75.3 -64.1 -73.65 -64.05 -73.65 Q-64.05 -73.1 -64.65 -73.0 L-64.7 -72.95 -66.15 -70.5 Q-67.5 -67.3 -66.9 -63.45 L-66.85 -63.25 Q-64.9 -55.55 -64.6 -52.9 -64.0 -48.55 -64.0 -46.65 -64.0 -44.95 -65.4 -44.85 L-80.0 -44.0 -94.65 -44.85 Q-96.0 -44.95 -96.0 -46.65 L-95.45 -52.9 Q-95.1 -55.55 -93.2 -63.25" fill="#ffffff" fill-rule="evenodd" stroke="none" class="fill" />
      <path d="M13.5 -63.25 L13.5 -63.45 Q14.15 -67.3 12.75 -70.5 L11.25 -72.95 11.15 -73.0 10.85 -73.2 10.65 -73.65 10.65 -75.3 10.85 -75.8 11.35 -76.0 41.85 -76.0 Q42.55 -76.0 42.55 -75.3 L42.55 -73.65 42.6 -73.65 Q42.6 -73.1 42.0 -73.0 L41.95 -72.95 40.5 -70.5 Q39.15 -67.3 39.75 -63.45 L39.8 -63.25 40.85 -58.8 Q41.85 -54.7 42.05 -52.9 42.65 -48.55 42.65 -46.65 42.65 -44.95 41.25 -44.85 L26.65 -44.0 12.0 -44.85 Q10.65 -44.95 10.65 -46.65 10.65 -48.35 11.2 -52.9 11.45 -54.75 12.4 -58.85 L13.5 -63.25" fill="#ffffff" fill-rule="evenodd" stroke="none" class="fill" />
      <path d="M-13.55 63.3 L-13.55 63.5 Q-14.15 67.35 -12.85 70.55 -12.2 72.15 -11.4 73.0 L-11.35 73.05 Q-10.75 73.15 -10.75 73.7 L-10.8 73.7 -10.8 75.35 Q-10.8 76.0 -11.45 76.0 L-42.0 76.0 Q-42.7 76.0 -42.7 75.35 L-42.7 73.7 -42.45 73.25 -42.15 73.05 -42.05 73.0 Q-41.25 72.15 -40.55 70.55 -39.15 67.35 -39.8 63.5 L-39.85 63.3 Q-41.75 55.8 -42.1 52.95 -42.7 48.6 -42.7 46.65 -42.7 45.0 -41.3 44.9 L-26.7 44.05 -12.05 44.9 Q-10.7 45.0 -10.7 46.65 -10.7 48.4 -11.25 52.95 -11.5 54.8 -12.45 58.9 L-13.55 63.3" fill="#ffffff" fill-rule="evenodd" stroke="none" class="fill" />
      <path d="M-66.85 63.3 L-66.9 63.5 Q-67.5 67.35 -66.15 70.55 -65.5 72.15 -64.7 73.0 L-64.65 73.05 Q-64.05 73.15 -64.05 73.7 L-64.1 73.7 -64.1 75.35 -64.3 75.8 -64.8 76.0 -95.35 76.0 Q-96.0 76.0 -96.0 75.35 L-96.0 73.7 -95.8 73.25 -95.5 73.05 -95.4 73.0 Q-94.6 72.15 -93.9 70.55 -92.5 67.35 -93.15 63.5 L-93.2 63.3 Q-95.1 55.8 -95.45 52.95 L-96.0 46.65 Q-96.0 45.0 -94.65 44.9 L-80.0 44.05 -65.4 44.9 Q-64.0 45.0 -64.0 46.65 -64.0 48.6 -64.6 52.95 -64.95 55.8 -66.85 63.3" fill="#ffffff" fill-rule="evenodd" stroke="none" class="fill" />
      <path d="M39.8 63.3 L39.75 63.5 Q39.15 67.35 40.5 70.55 41.15 72.15 41.95 73.0 L42.0 73.05 Q42.6 73.15 42.6 73.7 L42.55 73.7 42.55 75.35 Q42.55 76.0 41.85 76.0 L11.35 76.0 Q10.65 76.0 10.65 75.35 L10.65 73.7 10.85 73.25 11.15 73.05 11.25 73.0 Q12.05 72.15 12.75 70.55 14.15 67.35 13.5 63.5 L13.5 63.3 12.4 58.9 Q11.45 54.8 11.2 52.95 10.65 48.4 10.65 46.65 10.65 45.0 12.0 44.9 L26.65 44.05 41.25 44.9 Q42.65 45.0 42.65 46.65 42.65 48.6 42.05 52.95 41.7 55.8 39.8 63.3" fill="#ffffff" fill-rule="evenodd" stroke="none" class="fill" />
      <path d="M66.8 -63.25 L66.85 -63.45 Q67.5 -67.3 66.1 -70.5 L64.6 -72.95 64.5 -73.0 64.2 -73.2 64.0 -73.65 64.0 -75.3 64.2 -75.8 Q64.4 -76.0 64.65 -76.0 L95.2 -76.0 95.7 -75.8 95.9 -75.3 95.9 -73.65 95.95 -73.65 Q95.95 -73.1 95.35 -73.0 L95.3 -72.95 93.85 -70.5 Q92.5 -67.3 93.1 -63.45 L93.15 -63.25 Q95.1 -55.55 95.4 -52.9 L96.0 -46.65 Q96.0 -44.95 94.6 -44.85 L80.0 -44.0 65.35 -44.85 Q64.0 -44.95 64.0 -46.65 64.0 -48.35 64.55 -52.9 64.9 -55.55 66.8 -63.25" fill="#ffffff" fill-rule="evenodd" stroke="none" class="fill" />
      <path d="M93.15 63.3 L93.1 63.5 Q92.5 67.35 93.85 70.55 94.5 72.15 95.3 73.0 L95.35 73.05 Q95.95 73.15 95.95 73.7 L95.9 73.7 95.9 75.35 95.7 75.8 95.2 76.0 64.65 76.0 Q64.0 76.0 64.0 75.35 L64.0 73.7 64.2 73.25 64.5 73.05 64.6 73.0 Q65.4 72.15 66.1 70.55 67.5 67.35 66.85 63.5 L66.8 63.3 Q64.9 55.8 64.55 52.95 64.0 48.4 64.0 46.65 64.0 45.0 65.35 44.9 L80.0 44.05 94.6 44.9 Q96.0 45.0 96.0 46.65 L95.4 52.95 Q95.05 55.8 93.15 63.3" fill="#ffffff" fill-rule="evenodd" stroke="none" class="fill" />
    </g>
    <g id="sprite1" transform="matrix(1.0, 0.0, 0.0, 1.0, 96.3, 76.35)">
      <use height="152.7" transform="matrix(1.0, 0.0, 0.0, 1.0, -96.3, -76.35)" width="192.65" xlink:href="#shape1" />
    </g>
    <g id="shape1" transform="matrix(1.0, 0.0, 0.0, 1.0, 96.3, 76.35)">
      <path d="M41.3 72.65 Q39.05 69.7 39.3 65.2 38.65 65.7 37.55 65.7 L15.85 65.7 Q14.65 65.7 14.1 65.2 14.3 69.75 12.05 72.65 L41.3 72.65 M94.6 72.65 Q92.45 69.6 92.6 65.2 92.05 65.7 90.85 65.7 L69.2 65.7 Q68.05 65.7 67.4 65.2 67.65 69.55 65.4 72.65 L94.6 72.65 M95.6 75.35 L95.6 73.7 95.3 73.35 64.75 73.35 64.55 73.45 64.5 73.5 64.4 73.7 64.35 73.85 64.35 75.35 Q64.35 75.65 64.7 75.65 L95.25 75.65 95.6 75.35 M-65.4 72.65 Q-67.55 69.6 -67.4 65.2 -67.95 65.7 -69.15 65.7 L-90.8 65.7 Q-92.0 65.7 -92.55 65.2 -92.4 69.55 -94.6 72.65 L-65.4 72.65 M-64.4 75.35 L-64.4 73.7 -64.7 73.35 -95.25 73.35 -95.45 73.45 -95.5 73.5 -95.6 73.7 -95.6 75.35 -95.3 75.65 -64.75 75.65 Q-64.4 75.65 -64.4 75.35 M-11.1 75.35 L-11.1 73.7 -11.4 73.35 -41.9 73.35 -42.1 73.45 -42.15 73.5 -42.25 73.7 -42.3 73.85 -42.3 75.35 -41.95 75.65 -11.4 75.65 Q-11.1 75.65 -11.1 75.35 M-12.05 72.65 Q-14.25 69.55 -14.05 65.2 -14.6 65.7 -15.8 65.7 L-37.5 65.7 Q-38.6 65.7 -39.25 65.2 -39.0 69.65 -41.3 72.65 L-12.05 72.65 M42.25 75.35 L42.25 73.7 41.95 73.35 11.4 73.35 11.25 73.45 11.2 73.5 11.1 73.7 11.05 73.85 11.05 75.35 11.4 75.65 41.9 75.65 Q42.25 75.65 42.25 75.35 M-11.0 46.65 Q-11.0 45.25 -12.05 45.25 L-26.65 44.4 -41.25 45.25 Q-42.3 45.25 -42.3 46.65 -42.3 48.7 -41.7 52.9 L-40.55 58.8 -39.45 63.2 -39.45 63.4 -39.0 64.5 Q-38.55 65.05 -37.5 65.05 L-15.8 65.05 Q-14.75 65.05 -14.3 64.5 L-13.85 63.45 -13.85 63.3 -13.8 63.2 -13.8 63.15 Q-11.75 54.6 -11.55 52.9 -11.0 48.5 -11.0 46.65 M-64.3 46.65 Q-64.3 45.25 -65.4 45.25 L-79.95 44.4 -94.55 45.25 Q-95.6 45.25 -95.6 46.65 L-95.05 52.9 Q-94.7 55.5 -92.8 63.2 L-92.8 63.25 -92.75 63.4 -92.3 64.5 Q-91.85 65.05 -90.8 65.05 L-69.15 65.05 Q-68.05 65.05 -67.65 64.5 L-67.2 63.45 -67.15 63.3 -67.15 63.1 Q-65.35 56.55 -64.9 52.9 L-64.3 46.65 M-95.6 -46.65 Q-95.6 -45.2 -94.55 -45.2 L-79.95 -44.35 -65.4 -45.2 Q-64.3 -45.2 -64.3 -46.65 L-64.9 -52.85 Q-65.3 -56.15 -67.15 -63.1 L-67.15 -63.25 -67.2 -63.35 Q-67.35 -64.1 -67.65 -64.45 -68.05 -65.0 -69.15 -65.0 L-90.8 -65.0 Q-91.85 -65.0 -92.3 -64.45 L-92.75 -63.4 -92.75 -63.25 -92.8 -63.2 -92.8 -63.15 Q-94.65 -56.2 -95.05 -52.85 L-95.6 -46.65 M-94.6 -72.6 Q-92.4 -69.5 -92.55 -65.15 -91.9 -65.7 -90.8 -65.7 L-69.15 -65.7 Q-68.05 -65.7 -67.35 -65.15 -67.6 -69.55 -65.4 -72.6 L-94.6 -72.6 M-95.3 -75.65 L-95.6 -75.3 -95.6 -73.65 -95.5 -73.45 -95.45 -73.4 -95.25 -73.3 -64.7 -73.3 -64.4 -73.65 -64.4 -75.3 Q-64.4 -75.65 -64.75 -75.65 L-95.3 -75.65 M-42.3 -46.65 Q-42.3 -45.2 -41.25 -45.2 L-26.65 -44.35 -12.05 -45.2 Q-11.0 -45.2 -11.0 -46.65 -11.0 -48.45 -11.55 -52.85 L-12.75 -58.7 -13.8 -63.1 -13.8 -63.15 -13.85 -63.25 -13.85 -63.35 -14.3 -64.45 Q-14.75 -65.0 -15.8 -65.0 L-37.5 -65.0 Q-38.55 -65.0 -39.0 -64.45 L-39.4 -63.4 -39.45 -63.25 -39.45 -63.15 Q-41.3 -56.2 -41.7 -52.85 -42.3 -48.65 -42.3 -46.65 M-41.3 -72.6 Q-39.0 -69.6 -39.25 -65.15 -38.55 -65.7 -37.5 -65.7 L-15.8 -65.7 Q-14.7 -65.7 -14.05 -65.15 -14.2 -69.55 -12.05 -72.6 L-41.3 -72.6 M-41.95 -75.65 L-42.3 -75.3 -42.3 -73.8 -42.25 -73.65 -42.15 -73.45 -42.1 -73.4 -41.9 -73.3 -11.4 -73.3 -11.1 -73.65 -11.1 -75.3 Q-11.1 -75.65 -11.4 -75.65 L-41.95 -75.65 M95.7 43.7 L95.7 -43.65 -95.65 -43.65 -95.65 43.7 95.7 43.7 M95.7 46.65 Q95.7 45.25 94.6 45.25 L80.05 44.4 65.45 45.25 Q64.35 45.25 64.35 46.65 L64.95 52.9 Q65.3 55.7 67.2 63.2 L67.2 63.25 67.25 63.4 Q67.4 64.15 67.7 64.5 68.1 65.05 69.2 65.05 L90.85 65.05 Q91.95 65.05 92.35 64.5 L92.8 63.45 92.8 63.3 92.85 63.25 92.85 63.15 Q94.6 56.65 95.1 52.9 L95.7 46.65 M42.35 46.65 Q42.35 45.25 41.3 45.25 L26.7 44.4 12.1 45.25 Q11.05 45.25 11.05 46.65 11.05 48.5 11.6 52.9 11.95 55.5 13.85 63.2 L13.9 63.25 13.9 63.4 14.35 64.5 Q14.8 65.05 15.85 65.05 L37.55 65.05 Q38.6 65.05 39.05 64.5 L39.45 63.45 39.5 63.3 39.5 63.2 39.55 63.15 Q41.5 55.05 41.75 52.9 L42.35 46.65 M65.4 -72.6 Q67.6 -69.5 67.45 -65.15 68.1 -65.7 69.2 -65.7 L90.85 -65.7 Q91.95 -65.7 92.6 -65.15 92.45 -69.55 94.6 -72.6 L65.4 -72.6 M12.05 -72.6 Q14.3 -69.7 14.1 -65.15 14.75 -65.7 15.85 -65.7 L37.55 -65.7 Q38.6 -65.7 39.3 -65.15 39.05 -69.65 41.3 -72.6 L12.05 -72.6 M11.05 -46.65 Q11.05 -45.2 12.1 -45.2 L26.7 -44.35 41.3 -45.2 Q42.35 -45.2 42.35 -46.65 L41.75 -52.85 40.6 -58.7 39.55 -63.1 39.5 -63.15 39.5 -63.35 39.05 -64.45 Q38.6 -65.0 37.55 -65.0 L15.85 -65.0 Q14.8 -65.0 14.35 -64.45 L13.9 -63.4 13.9 -63.25 13.85 -63.2 13.85 -63.15 12.8 -58.7 11.6 -52.85 Q11.05 -48.45 11.05 -46.65 M11.4 -75.65 Q11.05 -75.65 11.05 -75.3 L11.05 -73.8 11.1 -73.65 11.2 -73.45 11.25 -73.4 11.4 -73.3 41.95 -73.3 42.25 -73.65 42.25 -75.3 41.9 -75.65 11.4 -75.65 M64.35 -46.65 Q64.35 -45.2 65.45 -45.2 L80.05 -44.35 94.6 -45.2 Q95.7 -45.2 95.7 -46.65 L95.1 -52.85 Q94.8 -55.4 92.85 -63.1 L92.85 -63.25 92.8 -63.35 92.35 -64.45 Q91.95 -65.0 90.85 -65.0 L69.2 -65.0 Q68.1 -65.0 67.7 -64.45 L67.25 -63.4 67.25 -63.25 67.2 -63.2 67.2 -63.15 Q65.35 -56.2 64.95 -52.85 L64.35 -46.65 M96.05 -44.35 L96.35 -44.0 96.35 44.05 96.05 44.4 92.4 44.4 94.65 44.55 Q96.35 44.65 96.35 46.65 L95.8 53.0 Q95.5 55.6 93.55 63.35 L93.5 63.6 Q92.95 67.05 94.0 70.05 94.7 71.85 95.55 72.7 96.35 72.95 96.35 73.7 L96.3 73.85 96.3 75.35 96.0 76.05 95.25 76.35 64.7 76.35 Q64.3 76.35 64.0 76.05 63.7 75.75 63.7 75.35 L63.7 73.7 Q63.7 73.3 64.0 73.0 L64.15 72.9 64.25 72.85 64.4 72.75 64.45 72.7 Q65.35 71.7 66.0 70.0 67.1 67.05 66.55 63.55 L66.5 63.35 Q64.65 55.9 64.25 53.0 63.7 48.5 63.7 46.65 63.7 44.65 65.35 44.55 L67.65 44.4 39.05 44.4 41.35 44.55 Q43.05 44.65 43.05 46.65 43.05 48.75 42.45 53.0 42.1 55.85 40.2 63.35 L40.15 63.6 Q39.6 67.05 40.7 70.05 41.3 71.7 42.2 72.7 43.0 72.95 43.0 73.7 L42.95 73.85 42.95 75.35 42.65 76.05 41.9 76.35 11.4 76.35 Q10.95 76.35 10.65 76.05 10.35 75.75 10.35 75.35 L10.35 73.7 Q10.35 73.4 10.65 73.0 L10.8 72.9 11.1 72.75 11.1 72.7 12.65 70.05 Q13.8 67.05 13.25 63.6 L13.2 63.35 Q11.25 55.55 10.9 53.0 10.35 48.5 10.35 46.65 10.35 44.65 12.05 44.55 L14.35 44.4 -14.3 44.4 -12.0 44.55 Q-10.3 44.65 -10.3 46.65 -10.3 48.5 -10.85 53.0 -11.1 54.85 -12.05 58.9 L-13.15 63.35 -13.2 63.6 Q-13.75 67.05 -12.65 70.05 -12.0 71.75 -11.15 72.7 -10.35 72.95 -10.35 73.7 L-10.4 73.85 -10.4 75.35 Q-10.4 75.75 -10.7 76.05 -11.0 76.35 -11.4 76.35 L-41.95 76.35 -42.7 76.05 -43.0 75.35 -43.0 73.7 -42.65 73.0 -42.5 72.9 -42.45 72.85 -42.25 72.75 -42.2 72.7 Q-41.3 71.7 -40.65 70.0 -39.55 67.05 -40.1 63.55 L-40.15 63.35 Q-42.0 56.5 -42.4 53.0 -43.0 48.75 -43.0 46.65 -43.0 44.65 -41.3 44.55 L-39.0 44.4 -67.6 44.4 -65.3 44.55 Q-63.6 44.65 -63.6 46.65 L-64.2 53.0 Q-64.5 55.6 -66.45 63.35 L-66.5 63.6 Q-67.05 67.05 -66.0 70.05 -65.3 71.85 -64.45 72.7 -63.65 72.95 -63.65 73.7 L-63.7 73.85 -63.7 75.35 Q-63.7 75.75 -64.0 76.05 -64.35 76.35 -64.75 76.35 L-95.3 76.35 -96.0 76.05 -96.3 75.35 -96.3 73.7 -96.0 73.0 -95.85 72.9 -95.75 72.85 -95.6 72.75 -95.55 72.7 Q-94.65 71.7 -94.0 70.05 -92.9 67.05 -93.45 63.6 L-93.5 63.35 Q-95.35 56.0 -95.75 53.0 L-96.3 46.65 Q-96.3 44.65 -94.6 44.55 L-92.35 44.4 -95.95 44.4 -96.3 44.05 -96.3 -44.0 -95.95 -44.35 -92.3 -44.35 -94.6 -44.5 Q-96.3 -44.55 -96.3 -46.65 L-95.75 -52.95 Q-95.55 -54.7 -94.55 -58.85 L-93.5 -63.3 -93.45 -63.55 Q-92.9 -67.0 -94.0 -69.95 -94.65 -71.65 -95.55 -72.65 L-95.6 -72.7 -95.75 -72.8 -95.85 -72.85 -96.0 -72.95 -96.3 -73.65 -96.3 -75.3 -96.0 -76.05 -95.3 -76.35 -64.75 -76.35 -64.0 -76.05 Q-63.7 -75.7 -63.7 -75.3 L-63.7 -73.8 -63.65 -73.65 Q-63.65 -72.9 -64.45 -72.65 -65.3 -71.8 -66.0 -69.95 -67.05 -66.95 -66.5 -63.5 L-66.45 -63.3 -65.4 -58.95 -64.2 -52.95 -63.6 -46.65 Q-63.6 -44.6 -65.3 -44.5 L-67.65 -44.35 -38.95 -44.35 -41.3 -44.5 Q-43.0 -44.6 -43.0 -46.65 -43.0 -48.65 -42.4 -52.95 -42.1 -55.55 -40.15 -63.3 L-40.1 -63.55 Q-39.55 -67.0 -40.65 -69.95 -41.3 -71.65 -42.2 -72.65 L-42.25 -72.7 -42.45 -72.8 -42.5 -72.85 -42.65 -72.95 -43.0 -73.65 -43.0 -75.3 -42.7 -76.05 -41.95 -76.35 -11.4 -76.35 Q-11.0 -76.35 -10.7 -76.05 -10.4 -75.7 -10.4 -75.3 L-10.4 -73.8 -10.35 -73.65 Q-10.35 -72.9 -11.15 -72.65 -12.0 -71.7 -12.65 -69.95 -13.7 -67.0 -13.15 -63.55 L-13.15 -63.3 Q-11.2 -55.5 -10.85 -52.95 -10.3 -48.45 -10.3 -46.65 -10.3 -44.6 -12.0 -44.5 L-14.3 -44.35 14.35 -44.35 12.05 -44.5 Q10.35 -44.6 10.35 -46.65 10.35 -48.45 10.9 -52.95 11.15 -54.8 12.1 -58.85 L13.2 -63.3 13.25 -63.55 Q13.8 -67.0 12.65 -69.95 L11.1 -72.65 11.1 -72.7 10.8 -72.85 10.65 -72.95 Q10.35 -73.35 10.35 -73.65 L10.35 -75.3 10.65 -76.05 11.4 -76.35 41.9 -76.35 42.65 -76.05 42.95 -75.3 42.95 -73.8 43.0 -73.65 Q43.0 -72.9 42.2 -72.65 41.35 -71.7 40.7 -69.95 39.6 -67.0 40.15 -63.55 L40.2 -63.3 Q42.15 -55.55 42.45 -52.95 43.05 -48.65 43.05 -46.65 43.05 -44.6 41.35 -44.5 L39.0 -44.35 67.7 -44.35 65.35 -44.5 Q63.7 -44.55 63.7 -46.65 63.7 -48.45 64.25 -52.95 64.55 -55.55 66.5 -63.3 L66.55 -63.55 Q67.1 -67.0 66.0 -69.95 65.35 -71.65 64.45 -72.65 L64.4 -72.7 64.25 -72.8 64.15 -72.85 64.0 -72.95 Q63.7 -73.25 63.7 -73.65 L63.7 -75.3 Q63.7 -75.7 64.0 -76.05 64.3 -76.35 64.7 -76.35 L95.25 -76.35 96.0 -76.05 96.3 -75.3 96.3 -73.8 96.35 -73.65 Q96.35 -72.9 95.55 -72.65 94.7 -71.8 94.0 -69.95 92.95 -66.95 93.5 -63.5 L93.55 -63.3 94.6 -58.95 95.8 -52.95 96.35 -46.65 Q96.35 -44.55 94.65 -44.5 L92.35 -44.35 96.05 -44.35 M64.7 -75.65 Q64.35 -75.65 64.35 -75.3 L64.35 -73.8 64.4 -73.65 64.5 -73.45 64.55 -73.4 64.75 -73.3 95.25 -73.3 95.6 -73.65 95.6 -75.3 95.25 -75.65 64.7 -75.65" fill="#000000" fill-rule="evenodd" stroke="none" class="line" />
    </g>
  </defs>
  <g transform="matrix(1.0, 0.0, 0.0, 1.0, 0.0, 0.0)">
    <use height="152.0" id="Fill" transform="matrix(0.5208, 0.0, 0.0, 0.6579, 0.0005, -0.0002)" width="192.0" xlink:href="#sprite0" />
    <use height="152.7" id="Line" transform="matrix(0.5191, 0.0, 0.0, 0.6549, 0.0132, 0.0002)" width="192.65" xlink:href="#sprite1" />
  </g>
</svg>