<?xml version="1.0" encoding="UTF-8" standalone="no"?>
<svg xmlns:xlink="http://www.w3.org/1999/xlink" height="100%" width="100%" xmlns="http://www.w3.org/2000/svg" preserveAspectRatio="none" viewBox="0 0 100 100">
  <defs>
    <g id="sprite0" transform="matrix(1.0, 0.0, 0.0, 1.0, 48.0, 48.0)">
      <use height="96.0" transform="matrix(1.0, 0.0, 0.0, 1.0, -48.0, -48.0)" width="96.0" xlink:href="#shape0" />
    </g>
    <g id="shape0" transform="matrix(1.0, 0.0, 0.0, 1.0, 48.0, 48.0)">
      <path d="M48.0 48.0 L-48.0 48.0 Q-48.0 8.3 -19.9 -19.9 8.3 -48.0 48.0 -48.0 L48.0 48.0" fill="#ffffff" fill-rule="evenodd" stroke="none" class="fill" />
    </g>
    <g id="sprite1" transform="matrix(1.0, 0.0, 0.0, 1.0, 49.0, 49.0)">
      <use height="98.0" transform="matrix(1.0, 0.0, 0.0, 1.0, -49.0, -49.0)" width="98.0" xlink:href="#shape1" />
    </g>
    <g id="shape1" transform="matrix(1.0, 0.0, 0.0, 1.0, 49.0, 49.0)">
      <path d="M47.0 -47.0 Q8.35 -46.65 -19.2 -19.2 -46.65 8.35 -47.0 47.0 L47.0 47.0 47.0 -47.0 M48.0 -49.0 Q48.4 -49.0 48.7 -48.7 L49.0 -48.0 49.0 48.0 48.7 48.7 Q48.4 49.0 48.0 49.0 L-48.0 49.0 Q-48.4 49.0 -48.7 48.7 L-49.0 48.0 Q-49.0 7.9 -20.6 -20.6 7.9 -49.0 48.0 -49.0" fill="#000000" fill-rule="evenodd" stroke="none" class="line" />
    </g>
  </defs>
  <g transform="matrix(1.0, 0.0, 0.0, 1.0, 0.0, 0.0)">
    <use height="96.0" id="fill" transform="matrix(1.0204, 0.0, 0.0, 1.0204, 1.0208, 1.0208)" width="96.0" xlink:href="#sprite0" />
    <use height="98.0" id="line" transform="matrix(1.0204, 0.0, 0.0, 1.0204, 0.0004, 0.0004)" width="98.0" xlink:href="#sprite1" />
  </g>
</svg>