<?xml version="1.0" encoding="UTF-8" standalone="no"?>
<svg xmlns:xlink="http://www.w3.org/1999/xlink" height="100%" width="100%" xmlns="http://www.w3.org/2000/svg" preserveAspectRatio="none" viewBox="0 0 100 100">
  <defs>
    <g id="sprite0" transform="matrix(1.0, 0.0, 0.0, 1.0, 128.0, 74.0)">
      <use height="148.0" transform="matrix(1.0, 0.0, 0.0, 1.0, -128.0, -74.0)" width="256.0" xlink:href="#shape0" />
    </g>
    <g id="shape0" transform="matrix(1.0, 0.0, 0.0, 1.0, 128.0, 74.0)">
      <path d="M-96.05 -1.7 L-96.05 -42.0 96.0 -42.0 96.0 42.05 -96.05 42.05 -96.05 1.75 -96.85 14.65 Q-96.95 16.05 -98.65 16.05 L-104.9 15.45 -115.25 13.2 -115.5 13.15 Q-119.35 12.55 -122.55 13.9 L-125.0 15.4 -125.2 15.8 -125.7 16.05 -127.3 16.05 Q-128.0 16.05 -128.0 15.35 L-128.0 -15.2 Q-128.0 -15.9 -127.3 -15.9 L-125.7 -15.9 -125.7 -15.95 Q-125.1 -15.95 -125.0 -15.35 L-125.0 -15.3 -122.55 -13.8 Q-119.35 -12.45 -115.5 -13.1 L-115.25 -13.15 -104.9 -15.4 -98.65 -16.0 Q-96.95 -16.0 -96.85 -14.6 L-96.05 -1.7" fill="#ffffff" fill-rule="evenodd" stroke="none" class="fill" />
      <path d="M-39.85 -61.25 L-39.85 -61.45 Q-39.2 -65.3 -40.6 -68.5 L-42.1 -70.95 -42.2 -71.0 -42.5 -71.2 -42.7 -71.65 -42.7 -73.3 -42.5 -73.8 -42.05 -74.0 -11.5 -74.0 Q-10.8 -74.0 -10.8 -73.3 L-10.8 -71.65 -10.75 -71.65 Q-10.75 -71.1 -11.35 -71.0 L-11.4 -70.95 -12.85 -68.5 Q-14.2 -65.3 -13.6 -61.45 L-13.55 -61.25 -12.45 -56.8 -11.25 -50.9 Q-10.7 -46.35 -10.7 -44.65 -10.7 -42.95 -12.1 -42.85 L-26.7 -42.0 -41.35 -42.85 Q-42.7 -42.95 -42.7 -44.65 L-42.15 -50.9 -40.95 -56.85 -39.85 -61.25" fill="#ffffff" fill-rule="evenodd" stroke="none" class="fill" />
      <path d="M-93.25 -61.25 L-93.2 -61.45 Q-92.55 -65.3 -93.95 -68.5 L-95.45 -70.95 -95.55 -71.0 -95.85 -71.2 -96.05 -71.65 -96.05 -73.3 -95.85 -73.8 -95.4 -74.0 -64.85 -74.0 Q-64.15 -74.0 -64.15 -73.3 L-64.15 -71.65 -64.1 -71.65 Q-64.1 -71.1 -64.7 -71.0 L-64.75 -70.95 -66.2 -68.5 Q-67.55 -65.3 -66.95 -61.45 L-66.9 -61.25 -65.85 -56.8 Q-64.85 -52.7 -64.65 -50.9 -64.05 -46.55 -64.05 -44.65 -64.05 -42.95 -65.45 -42.85 L-80.05 -42.0 -94.7 -42.85 Q-96.05 -42.95 -96.05 -44.65 L-95.5 -50.9 Q-95.05 -54.0 -93.25 -61.25" fill="#ffffff" fill-rule="evenodd" stroke="none" class="fill" />
      <path d="M13.5 -61.25 L13.5 -61.45 Q14.15 -65.3 12.75 -68.5 L11.25 -70.95 11.15 -71.0 10.85 -71.2 10.65 -71.65 10.65 -73.3 10.85 -73.8 11.35 -74.0 41.85 -74.0 Q42.55 -74.0 42.55 -73.3 L42.55 -71.65 42.6 -71.65 Q42.6 -71.1 42.0 -71.0 L41.95 -70.95 40.5 -68.5 Q39.15 -65.3 39.8 -61.45 L39.8 -61.25 40.9 -56.8 42.1 -50.9 42.65 -44.65 Q42.65 -42.95 41.25 -42.85 L26.65 -42.0 12.0 -42.85 Q10.65 -42.95 10.65 -44.65 10.65 -46.35 11.2 -50.9 11.45 -52.75 12.4 -56.85 L13.5 -61.25" fill="#ffffff" fill-rule="evenodd" stroke="none" class="fill" />
      <path d="M-13.55 61.3 L-13.6 61.5 Q-14.2 65.35 -12.85 68.55 -12.2 70.15 -11.4 71.0 L-11.35 71.05 Q-10.75 71.15 -10.75 71.7 L-10.8 71.7 -10.8 73.35 Q-10.8 74.0 -11.5 74.0 L-42.05 74.0 Q-42.7 74.0 -42.7 73.35 L-42.7 71.7 -42.5 71.25 -42.2 71.05 -42.1 71.0 Q-41.3 70.15 -40.6 68.55 -39.2 65.35 -39.85 61.5 L-39.85 61.3 -40.95 56.9 -42.15 50.95 -42.7 44.65 Q-42.7 43.0 -41.35 42.9 L-26.7 42.05 -12.1 42.9 Q-10.7 43.0 -10.7 44.65 -10.7 46.4 -11.25 50.95 -11.65 53.8 -13.55 61.3" fill="#ffffff" fill-rule="evenodd" stroke="none" class="fill" />
      <path d="M-66.9 61.3 L-66.95 61.5 Q-67.55 65.35 -66.2 68.55 -65.55 70.15 -64.75 71.0 L-64.7 71.05 Q-64.1 71.15 -64.1 71.7 L-64.15 71.7 -64.15 73.35 Q-64.15 74.0 -64.85 74.0 L-95.4 74.0 Q-96.05 74.0 -96.05 73.35 L-96.05 71.7 -95.85 71.25 -95.55 71.05 -95.45 71.0 Q-94.65 70.15 -93.95 68.55 -92.55 65.35 -93.2 61.5 L-93.25 61.3 -95.5 50.95 -96.05 44.65 Q-96.05 43.0 -94.7 42.9 L-80.05 42.05 -65.45 42.9 Q-64.05 43.0 -64.05 44.65 -64.05 46.6 -64.65 50.95 -65.0 53.8 -66.9 61.3" fill="#ffffff" fill-rule="evenodd" stroke="none" class="fill" />
      <path d="M39.8 61.3 L39.8 61.5 Q39.15 65.35 40.5 68.55 41.15 70.15 41.95 71.0 L42.0 71.05 Q42.6 71.15 42.6 71.7 L42.55 71.7 42.55 73.35 Q42.55 74.0 41.85 74.0 L11.35 74.0 Q10.65 74.0 10.65 73.35 L10.65 71.7 10.85 71.25 11.15 71.05 11.25 71.0 Q12.05 70.15 12.75 68.55 14.15 65.35 13.5 61.5 L13.5 61.3 12.4 56.9 Q11.45 52.8 11.2 50.95 10.65 46.4 10.65 44.65 10.65 43.0 12.0 42.9 L26.65 42.05 41.25 42.9 Q42.65 43.0 42.65 44.65 L42.1 50.95 Q41.7 53.8 39.8 61.3" fill="#ffffff" fill-rule="evenodd" stroke="none" class="fill" />
      <path d="M93.15 -61.25 L94.25 -56.8 95.45 -50.9 96.0 -44.65 Q96.0 -42.95 94.65 -42.85 L80.0 -42.0 65.35 -42.85 Q64.0 -42.95 64.0 -44.65 64.0 -46.35 64.55 -50.9 64.8 -52.75 65.75 -56.85 L66.85 -61.25 66.85 -61.45 Q67.5 -65.3 66.1 -68.5 L64.6 -70.95 64.5 -71.0 64.2 -71.2 64.0 -71.65 64.0 -73.3 64.2 -73.8 Q64.4 -74.0 64.7 -74.0 L95.2 -74.0 95.7 -73.8 95.9 -73.3 95.9 -71.65 95.95 -71.65 Q95.95 -71.1 95.35 -71.0 L95.3 -70.95 93.85 -68.5 Q92.5 -65.3 93.15 -61.45 L93.15 -61.25" fill="#ffffff" fill-rule="evenodd" stroke="none" class="fill" />
      <path d="M93.15 61.3 L93.15 61.5 Q92.5 65.35 93.85 68.55 94.5 70.15 95.3 71.0 L95.35 71.05 Q95.95 71.15 95.95 71.7 L95.9 71.7 95.9 73.35 Q95.9 74.0 95.2 74.0 L64.7 74.0 Q64.0 74.0 64.0 73.35 L64.0 71.7 64.2 71.25 64.5 71.05 64.6 71.0 Q65.4 70.15 66.1 68.55 67.5 65.35 66.85 61.5 L66.85 61.3 65.75 56.9 Q64.8 52.8 64.55 50.95 64.0 46.4 64.0 44.65 64.0 43.0 65.35 42.9 L80.0 42.05 94.65 42.9 Q96.0 43.0 96.0 44.65 L95.45 50.95 Q95.05 53.8 93.15 61.3" fill="#ffffff" fill-rule="evenodd" stroke="none" class="fill" />
      <path d="M127.3 -15.9 Q128.0 -15.9 128.0 -15.2 L128.0 15.35 Q128.0 16.05 127.3 16.05 L125.7 16.05 125.2 15.8 125.0 15.4 Q124.15 14.6 122.55 13.9 119.35 12.55 115.5 13.15 L115.25 13.2 104.9 15.45 98.65 16.05 Q96.95 16.05 96.85 14.65 L96.05 0.05 96.85 -14.6 Q96.95 -16.0 98.65 -16.0 L104.9 -15.4 115.25 -13.15 115.5 -13.1 Q119.35 -12.45 122.55 -13.8 124.15 -14.5 125.0 -15.3 L125.0 -15.35 Q125.1 -15.95 125.7 -15.95 L125.7 -15.9 127.3 -15.9" fill="#ffffff" fill-rule="evenodd" stroke="none" class="fill" />
    </g>
    <g id="sprite1" transform="matrix(1.0, 0.0, 0.0, 1.0, 128.35, 74.35)">
      <use height="148.7" transform="matrix(1.0, 0.0, 0.0, 1.0, -128.35, -74.35)" width="256.7" xlink:href="#shape1" />
    </g>
    <g id="shape1" transform="matrix(1.0, 0.0, 0.0, 1.0, 128.35, 74.35)">
      <path d="M117.15 12.65 L117.8 12.6 Q121.7 12.6 124.65 14.65 L124.65 -14.55 Q121.45 -12.4 117.2 -12.55 117.7 -12.0 117.7 -10.8 L117.7 10.85 Q117.7 11.95 117.15 12.65 M127.65 15.35 L127.65 -15.2 127.3 -15.55 125.7 -15.55 Q125.35 -15.55 125.35 -15.25 L125.35 15.3 125.4 15.5 125.45 15.55 125.85 15.7 127.3 15.7 127.65 15.35 M94.6 70.65 Q92.35 67.7 92.6 63.2 92.05 63.7 90.85 63.7 L69.15 63.7 Q67.95 63.7 67.4 63.2 67.6 67.75 65.35 70.65 L94.6 70.65 M95.55 73.35 L95.55 71.7 95.25 71.35 64.7 71.35 64.55 71.45 64.5 71.5 64.4 71.7 64.35 71.85 64.35 73.35 Q64.35 73.65 64.7 73.65 L95.2 73.65 95.55 73.35 M95.65 44.65 Q95.65 43.25 94.6 43.25 L80.0 42.4 65.4 43.25 Q64.35 43.25 64.35 44.65 64.35 46.5 64.9 50.9 L66.05 56.7 67.15 61.15 67.15 61.2 67.2 61.25 67.2 61.4 67.65 62.5 Q68.1 63.05 69.15 63.05 L90.85 63.05 Q91.9 63.05 92.35 62.5 L92.8 61.45 92.8 61.2 92.85 61.2 92.85 61.15 93.95 56.65 95.1 50.9 95.65 44.65 M104.85 15.1 L115.15 12.85 115.25 12.85 115.35 12.8 116.45 12.35 Q117.0 12.0 117.0 10.85 L117.0 -10.8 Q117.0 -11.95 116.45 -12.3 L115.4 -12.75 115.25 -12.8 115.1 -12.8 110.6 -13.9 104.85 -15.05 98.65 -15.65 Q97.3 -15.65 97.2 -14.55 L96.4 0.05 97.2 14.6 Q97.3 15.7 98.65 15.7 L104.85 15.1 M64.35 -44.65 Q64.35 -43.2 65.4 -43.2 L80.0 -42.35 94.6 -43.2 Q95.65 -43.2 95.65 -44.65 L95.1 -50.85 93.9 -56.7 92.85 -61.1 92.85 -61.15 92.8 -61.15 92.8 -61.35 92.35 -62.45 Q91.9 -63.0 90.85 -63.0 L69.15 -63.0 Q68.1 -63.0 67.65 -62.45 L67.2 -61.4 67.2 -61.25 67.15 -61.2 67.15 -61.15 66.1 -56.7 64.9 -50.85 Q64.35 -46.45 64.35 -44.65 M65.35 -70.6 Q67.6 -67.7 67.4 -63.15 68.05 -63.7 69.15 -63.7 L90.85 -63.7 Q91.95 -63.7 92.6 -63.15 92.35 -67.65 94.6 -70.6 L65.35 -70.6 M64.7 -73.65 Q64.35 -73.65 64.35 -73.3 L64.35 -71.8 64.4 -71.65 64.5 -71.45 64.55 -71.4 64.7 -71.3 95.25 -71.3 95.55 -71.65 95.55 -73.3 95.2 -73.65 64.7 -73.65 M95.65 41.7 L95.65 -41.65 -95.7 -41.65 -95.7 41.7 95.65 41.7 M41.25 70.65 Q39.0 67.7 39.25 63.2 38.7 63.7 37.5 63.7 L15.8 63.7 Q14.6 63.7 14.05 63.2 14.25 67.75 12.0 70.65 L41.25 70.65 M42.2 73.35 L42.2 71.7 41.9 71.35 11.35 71.35 11.2 71.45 11.1 71.5 11.0 71.85 11.0 73.35 Q11.0 73.65 11.35 73.65 L41.85 73.65 Q42.2 73.65 42.2 73.35 M42.3 44.65 Q42.3 43.25 41.25 43.25 L26.65 42.4 12.05 43.25 Q11.0 43.25 11.0 44.65 11.0 46.5 11.55 50.9 11.9 53.45 13.8 61.15 L13.8 61.2 13.85 61.25 13.85 61.4 Q14.0 62.05 14.3 62.5 14.75 63.05 15.8 63.05 L37.5 63.05 Q38.55 63.05 39.0 62.5 L39.45 61.45 39.45 61.2 39.5 61.1 Q41.35 54.05 41.75 50.9 L42.3 44.65 M-12.1 70.65 Q-14.35 67.7 -14.1 63.2 -14.65 63.7 -15.85 63.7 L-37.55 63.7 Q-38.75 63.7 -39.3 63.2 -39.1 67.75 -41.35 70.65 L-12.1 70.65 M-11.15 73.35 L-11.15 71.7 -11.45 71.35 -42.0 71.35 -42.15 71.45 -42.25 71.5 -42.35 71.85 -42.35 73.35 -42.05 73.65 -11.5 73.65 Q-11.15 73.65 -11.15 73.35 M-11.05 44.65 Q-11.05 43.25 -12.1 43.25 L-26.7 42.4 -41.3 43.25 Q-42.35 43.25 -42.35 44.65 L-41.8 50.9 Q-41.45 53.7 -39.55 61.15 L-39.55 61.2 -39.5 61.25 -39.5 61.4 -39.05 62.5 Q-38.6 63.05 -37.55 63.05 L-15.85 63.05 Q-14.8 63.05 -14.35 62.5 L-13.9 61.45 -13.9 61.2 -13.85 61.15 Q-11.8 52.6 -11.6 50.9 -11.05 46.5 -11.05 44.65 M-64.5 73.35 L-64.5 71.7 -64.8 71.35 -95.35 71.35 -95.5 71.45 -95.6 71.5 -95.7 71.85 -95.7 73.35 -95.4 73.65 -64.85 73.65 Q-64.5 73.65 -64.5 73.35 M-65.45 70.65 Q-67.7 67.7 -67.45 63.2 -68.0 63.7 -69.2 63.7 L-90.9 63.7 Q-92.1 63.7 -92.65 63.2 -92.45 67.75 -94.7 70.65 L-65.45 70.65 M-64.4 44.65 Q-64.4 43.25 -65.45 43.25 L-80.05 42.4 -94.65 43.25 Q-95.7 43.25 -95.7 44.65 L-95.15 50.9 Q-94.8 53.7 -92.9 61.15 L-92.9 61.2 -92.85 61.25 -92.85 61.4 -92.4 62.5 Q-91.95 63.05 -90.9 63.05 L-69.2 63.05 Q-68.15 63.05 -67.7 62.5 L-67.25 61.45 -67.25 61.2 -67.2 61.15 -66.1 56.65 Q-65.15 52.6 -64.95 50.9 -64.4 46.5 -64.4 44.65 M-127.65 15.35 L-127.3 15.7 -125.85 15.7 -125.45 15.55 -125.45 15.5 -125.35 15.3 -125.35 -15.25 Q-125.35 -15.55 -125.7 -15.55 L-127.3 -15.55 -127.65 -15.2 -127.65 15.35 M-117.8 12.6 L-117.2 12.65 Q-117.7 12.0 -117.7 10.85 L-117.7 -10.8 Q-117.7 -11.95 -117.2 -12.6 -121.45 -12.4 -124.65 -14.55 L-124.65 14.65 Q-121.7 12.6 -117.8 12.6 M-96.4 1.75 L-97.2 -14.55 Q-97.3 -15.65 -98.65 -15.65 L-104.85 -15.05 -115.15 -12.8 -115.25 -12.8 -115.4 -12.75 Q-116.1 -12.6 -116.45 -12.3 -117.0 -11.95 -117.0 -10.8 L-117.0 10.85 Q-117.0 12.0 -116.45 12.35 -116.15 12.65 -115.4 12.8 L-115.3 12.85 -115.1 12.85 -110.6 13.95 -104.85 15.1 -98.65 15.7 Q-97.3 15.7 -97.2 14.6 L-96.4 1.75 M-94.7 -70.6 Q-92.45 -67.7 -92.65 -63.15 -92.0 -63.7 -90.9 -63.7 L-69.2 -63.7 Q-68.1 -63.7 -67.45 -63.15 -67.7 -67.65 -65.45 -70.6 L-94.7 -70.6 M-95.7 -44.65 Q-95.7 -43.2 -94.65 -43.2 L-77.75 -42.4 -65.45 -43.2 Q-64.4 -43.2 -64.4 -44.65 -64.4 -46.45 -64.95 -50.85 -65.5 -54.65 -67.2 -61.1 L-67.25 -61.15 -67.25 -61.35 Q-67.4 -62.0 -67.7 -62.45 -68.15 -63.0 -69.2 -63.0 L-90.9 -63.0 Q-91.95 -63.0 -92.4 -62.45 L-92.85 -61.4 -92.85 -61.25 -92.9 -61.2 -92.9 -61.15 Q-94.75 -54.2 -95.15 -50.85 L-95.7 -44.65 M-95.4 -73.65 L-95.7 -73.3 -95.7 -71.8 -95.6 -71.45 -95.5 -71.4 -95.35 -71.3 -64.8 -71.3 -64.5 -71.65 -64.5 -73.3 Q-64.5 -73.65 -64.85 -73.65 L-95.4 -73.65 M11.0 -44.65 Q11.0 -43.2 12.05 -43.2 L26.65 -42.35 41.25 -43.2 Q42.3 -43.2 42.3 -44.65 L41.75 -50.85 Q41.45 -53.4 39.5 -61.1 L39.45 -61.15 39.45 -61.35 39.0 -62.45 Q38.55 -63.0 37.5 -63.0 L15.8 -63.0 Q14.75 -63.0 14.3 -62.45 L13.85 -61.4 13.85 -61.2 13.8 -61.15 Q11.95 -54.2 11.55 -50.85 11.0 -46.45 11.0 -44.65 M12.0 -70.6 Q14.25 -67.7 14.05 -63.15 14.7 -63.7 15.8 -63.7 L37.5 -63.7 Q38.6 -63.7 39.25 -63.15 39.0 -67.65 41.25 -70.6 L12.0 -70.6 M11.35 -73.65 Q11.0 -73.65 11.0 -73.3 L11.0 -71.8 11.1 -71.45 11.2 -71.4 11.35 -71.3 41.9 -71.3 42.2 -71.65 42.2 -73.3 41.85 -73.65 11.35 -73.65 M-41.35 -70.6 Q-39.1 -67.7 -39.3 -63.15 -38.65 -63.7 -37.55 -63.7 L-15.85 -63.7 Q-14.75 -63.7 -14.1 -63.15 -14.35 -67.65 -12.1 -70.6 L-41.35 -70.6 M-42.35 -44.65 Q-42.35 -43.2 -41.3 -43.2 L-26.7 -42.35 -12.1 -43.2 Q-11.05 -43.2 -11.05 -44.65 -11.05 -46.45 -11.6 -50.85 L-12.8 -56.7 -13.85 -61.1 -13.9 -61.15 -13.9 -61.35 -14.35 -62.45 Q-14.8 -63.0 -15.85 -63.0 L-37.55 -63.0 Q-38.6 -63.0 -39.05 -62.45 L-39.5 -61.4 -39.5 -61.25 -39.55 -61.2 -39.55 -61.15 Q-41.4 -54.2 -41.8 -50.85 L-42.35 -44.65 M-42.05 -73.65 Q-42.35 -73.65 -42.35 -73.3 L-42.35 -71.8 -42.25 -71.45 -42.15 -71.4 -42.0 -71.3 -11.45 -71.3 -11.15 -71.65 -11.15 -73.3 Q-11.15 -73.65 -11.5 -73.65 L-42.05 -73.65 M127.3 -16.25 Q127.75 -16.25 128.05 -15.95 L128.35 -15.2 128.35 15.35 128.05 16.1 Q127.75 16.4 127.3 16.4 L125.7 16.4 Q125.25 16.4 125.0 16.05 L124.85 15.9 124.8 15.8 124.7 15.65 124.7 15.6 Q123.7 14.7 122.0 14.05 119.0 12.95 115.55 13.5 L115.3 13.55 Q107.85 15.45 104.95 15.8 L98.65 16.4 Q96.65 16.4 96.5 14.7 L96.35 12.35 96.35 42.05 96.0 42.4 92.35 42.4 94.65 42.55 Q96.35 42.65 96.35 44.65 96.35 46.75 95.75 51.0 L94.6 56.9 93.5 61.35 93.45 61.6 Q92.9 65.05 94.0 68.05 94.65 69.75 95.5 70.7 96.3 70.95 96.3 71.7 L96.25 71.85 96.25 73.35 95.95 74.05 95.2 74.35 64.7 74.35 Q64.25 74.35 63.95 74.05 63.65 73.75 63.65 73.35 L63.65 71.7 Q63.65 71.4 63.95 71.0 L64.1 70.9 64.4 70.75 64.4 70.7 65.95 68.0 Q67.1 65.05 66.55 61.55 L66.5 61.35 Q64.55 53.55 64.2 51.0 63.65 46.5 63.65 44.65 63.65 42.65 65.35 42.55 L67.65 42.4 39.0 42.4 41.3 42.55 Q43.0 42.65 43.0 44.65 43.0 46.75 42.4 51.0 42.1 53.6 40.15 61.35 L40.1 61.6 Q39.55 65.05 40.65 68.05 41.3 69.75 42.15 70.7 42.95 70.95 42.95 71.7 L42.9 71.85 42.9 73.35 42.6 74.05 Q42.3 74.35 41.85 74.35 L11.35 74.35 Q10.9 74.35 10.6 74.05 10.3 73.75 10.3 73.35 L10.3 71.7 Q10.3 71.4 10.6 71.0 L10.75 70.9 11.05 70.75 11.05 70.7 Q11.95 69.7 12.6 68.0 13.7 65.05 13.15 61.55 L13.15 61.35 Q11.35 54.55 10.85 51.0 10.3 46.5 10.3 44.65 10.3 42.65 12.0 42.55 L14.3 42.4 -14.35 42.4 -12.05 42.55 Q-10.35 42.65 -10.35 44.65 -10.35 46.75 -10.95 51.0 -11.15 52.85 -12.1 56.9 L-13.2 61.35 -13.25 61.6 Q-13.8 65.05 -12.7 68.05 -12.05 69.75 -11.2 70.7 -10.4 70.95 -10.4 71.7 L-10.45 71.85 -10.45 73.35 Q-10.45 73.75 -10.75 74.05 -11.05 74.35 -11.5 74.35 L-42.05 74.35 -42.75 74.05 -43.05 73.35 -43.05 71.7 -42.75 71.0 -42.6 70.9 -42.3 70.75 -42.3 70.7 Q-41.4 69.7 -40.75 68.05 -39.65 65.05 -40.2 61.6 L-40.2 61.35 Q-42.15 53.55 -42.5 51.0 L-43.05 44.65 Q-43.05 42.65 -41.35 42.55 L-39.05 42.4 -67.7 42.4 -65.4 42.55 Q-63.7 42.65 -63.7 44.65 -63.7 46.75 -64.3 51.0 -64.6 53.6 -66.55 61.35 L-66.6 61.6 Q-67.15 65.05 -66.05 68.05 -65.4 69.75 -64.55 70.7 -63.75 70.95 -63.75 71.7 L-63.8 71.85 -63.8 73.35 -64.1 74.05 Q-64.4 74.35 -64.85 74.35 L-95.4 74.35 -96.1 74.05 -96.4 73.35 -96.4 71.7 -96.1 71.0 -95.95 70.9 -95.65 70.75 -95.65 70.7 Q-94.75 69.7 -94.1 68.0 -93.0 65.05 -93.55 61.55 L-93.55 61.35 Q-95.5 53.55 -95.85 51.0 L-96.4 44.65 Q-96.4 42.65 -94.7 42.55 L-92.4 42.4 -96.05 42.4 -96.4 42.05 -96.4 13.3 -96.5 14.7 Q-96.65 16.4 -98.65 16.4 L-104.95 15.8 -110.9 14.6 -115.35 13.55 -115.55 13.5 Q-119.0 12.95 -122.0 14.05 -123.7 14.7 -124.7 15.6 L-124.7 15.65 -124.8 15.8 -124.85 15.9 -125.0 16.05 Q-125.25 16.4 -125.7 16.4 L-127.3 16.4 Q-127.75 16.4 -128.05 16.1 L-128.35 15.35 -128.35 -15.2 -128.05 -15.95 Q-127.75 -16.25 -127.3 -16.25 L-125.85 -16.25 -125.7 -16.3 Q-124.9 -16.3 -124.7 -15.5 -121.0 -12.55 -115.55 -13.45 L-115.3 -13.5 -110.95 -14.55 -104.95 -15.75 -98.65 -16.35 Q-96.65 -16.35 -96.5 -14.65 L-96.4 -13.25 -96.4 -42.0 -96.05 -42.35 -92.4 -42.35 -94.7 -42.5 Q-96.4 -42.6 -96.4 -44.65 L-95.85 -50.95 -94.65 -56.85 -93.55 -61.3 -93.5 -61.55 Q-92.95 -65.0 -94.1 -67.95 -94.75 -69.65 -95.65 -70.65 L-95.65 -70.7 -95.95 -70.85 -96.1 -70.95 -96.4 -71.65 -96.4 -73.3 -96.1 -74.05 -95.4 -74.35 -64.85 -74.35 Q-64.4 -74.35 -64.1 -74.05 -63.8 -73.7 -63.8 -73.3 L-63.8 -71.8 -63.75 -71.65 Q-63.75 -70.9 -64.55 -70.65 -65.4 -69.7 -66.05 -67.95 -67.15 -64.95 -66.6 -61.5 L-66.55 -61.3 Q-64.7 -54.45 -64.3 -50.95 -63.7 -46.65 -63.7 -44.65 -63.7 -42.6 -65.4 -42.5 L-67.7 -42.35 -39.05 -42.35 -41.35 -42.5 Q-43.05 -42.6 -43.05 -44.65 L-42.5 -50.95 -41.3 -56.85 -40.2 -61.3 -40.15 -61.55 Q-39.6 -65.0 -40.75 -67.95 -41.4 -69.65 -42.3 -70.65 L-42.3 -70.7 -42.6 -70.85 -42.75 -70.95 -43.05 -71.65 -43.05 -73.3 -42.75 -74.05 -42.05 -74.35 -11.5 -74.35 -10.75 -74.05 -10.45 -73.3 -10.45 -71.8 -10.4 -71.65 Q-10.4 -70.9 -11.2 -70.65 -12.05 -69.7 -12.7 -67.95 -13.8 -65.0 -13.25 -61.55 L-13.2 -61.3 Q-11.25 -53.55 -10.95 -50.95 -10.35 -46.65 -10.35 -44.65 -10.35 -42.6 -12.05 -42.5 L-14.35 -42.35 14.3 -42.35 12.0 -42.5 Q10.3 -42.6 10.3 -44.65 10.3 -46.45 10.85 -50.95 11.1 -52.85 12.05 -56.9 L13.15 -61.3 13.2 -61.55 Q13.75 -65.0 12.6 -67.95 11.95 -69.65 11.05 -70.65 L11.05 -70.7 10.75 -70.85 10.6 -70.95 Q10.3 -71.35 10.3 -71.65 L10.3 -73.3 Q10.3 -73.7 10.6 -74.05 10.9 -74.35 11.35 -74.35 L41.85 -74.35 42.6 -74.05 42.9 -73.3 42.9 -71.8 42.95 -71.65 Q42.95 -70.9 42.15 -70.65 41.3 -69.7 40.65 -67.95 39.55 -64.95 40.1 -61.5 L40.15 -61.3 Q42.0 -54.45 42.4 -50.95 43.0 -46.65 43.0 -44.65 43.0 -42.6 41.3 -42.5 L39.0 -42.35 67.65 -42.35 65.35 -42.5 Q63.65 -42.6 63.65 -44.65 63.65 -46.45 64.2 -50.95 64.45 -52.8 65.4 -56.85 L66.5 -61.3 66.55 -61.55 Q67.1 -65.0 65.95 -67.95 L64.4 -70.65 64.4 -70.7 64.1 -70.85 63.95 -70.95 Q63.65 -71.35 63.65 -71.65 L63.65 -73.3 Q63.65 -73.7 63.95 -74.05 64.25 -74.35 64.7 -74.35 L95.2 -74.35 95.95 -74.05 96.25 -73.3 96.25 -71.8 96.3 -71.65 Q96.3 -70.9 95.5 -70.65 94.65 -69.7 94.0 -67.95 92.9 -65.0 93.45 -61.55 L93.5 -61.3 Q95.45 -53.55 95.75 -50.95 96.35 -46.65 96.35 -44.65 96.35 -42.6 94.65 -42.5 L92.35 -42.35 96.0 -42.35 96.35 -42.0 96.35 -12.3 96.5 -14.65 Q96.65 -16.35 98.65 -16.35 L104.95 -15.75 Q107.85 -15.4 115.35 -13.5 L115.55 -13.45 Q121.0 -12.55 124.7 -15.5 124.9 -16.3 125.7 -16.3 L125.85 -16.25 127.3 -16.25" fill="#000000" fill-rule="evenodd" stroke="none" class="line" />
    </g>
  </defs>
  <g transform="matrix(1.0, 0.0, 0.0, 1.0, 0.0, 0.0)">
    <use height="148.0" id="Fill" transform="matrix(0.3906, 0.0, 0.0, 0.6757, 0.0, 0.0001)" width="256.0" xlink:href="#sprite0" />
    <use height="148.7" id="Line" transform="matrix(0.3896, 0.0, 0.0, 0.6725, 0.0004, -0.0004)" width="256.7" xlink:href="#sprite1" />
  </g>
</svg>