<?xml version="1.0" encoding="UTF-8" standalone="no"?>
<svg xmlns:xlink="http://www.w3.org/1999/xlink" height="100%" width="100%" xmlns="http://www.w3.org/2000/svg" preserveAspectRatio="none" viewBox="0 0 100 100">
  <defs>
    <g id="sprite0" transform="matrix(1.0, 0.0, 0.0, 1.0, 60.05, 60.15)">
      <use height="96.15" transform="matrix(1.0, 0.0, 0.0, 1.0, -60.05, -60.15)" width="120.15" xlink:href="#shape0" />
    </g>
    <g id="shape0" transform="matrix(1.0, 0.0, 0.0, 1.0, 60.05, 60.15)">
      <path d="M30.9 -58.05 L30.95 -58.2 31.15 -58.5 32.4 -59.75 33.85 -59.7 59.75 -33.8 Q60.45 -33.1 59.75 -32.4 L58.5 -31.15 58.2 -30.95 58.1 -30.85 57.55 -30.8 Q51.7 -30.45 47.1 -24.65 41.85 -15.15 35.25 -7.75 36.0 -4.05 36.0 0.0 36.0 14.85 25.45 25.45 14.9 36.0 0.0 36.0 -14.9 36.0 -25.45 25.45 -36.0 14.85 -36.0 0.0 -36.0 -4.1 -35.2 -7.85 -41.8 -15.25 -47.05 -24.7 -51.65 -30.5 -57.5 -30.85 L-58.05 -30.9 -58.15 -31.0 -58.45 -31.2 -59.7 -32.45 Q-60.4 -33.15 -59.7 -33.85 L-33.75 -59.8 Q-33.05 -60.5 -32.35 -59.8 L-31.1 -58.55 -30.9 -58.25 -30.85 -58.1 -30.8 -57.55 Q-30.4 -51.75 -24.6 -47.15 -15.15 -41.85 -7.65 -35.25 L0.0 -36.0 7.8 -35.2 Q15.2 -41.8 24.65 -47.1 30.45 -51.7 30.85 -57.5 L30.9 -58.05" fill="#ffffff" fill-rule="evenodd" stroke="none" class="fill" />
    </g>
    <g id="sprite1" transform="matrix(1.0, 0.0, 0.0, 1.0, 60.6, 60.7)">
      <use height="97.2" transform="matrix(1.0, 0.0, 0.0, 1.0, -60.6, -60.7)" width="121.2" xlink:href="#shape1" />
    </g>
    <g id="shape1" transform="matrix(1.0, 0.0, 0.0, 1.0, 60.6, 60.7)">
      <path d="M-46.65 -25.0 L-46.55 -24.85 Q-41.65 -16.0 -35.45 -8.9 -33.2 -18.4 -25.8 -25.8 -18.35 -33.25 -8.7 -35.5 -15.85 -41.65 -24.7 -46.65 L-24.9 -46.75 Q-26.2 -47.75 -27.35 -46.6 L-46.55 -27.4 Q-47.65 -26.3 -46.65 -25.0 M-48.1 -26.65 Q-47.95 -27.4 -47.25 -28.1 L-28.05 -47.3 Q-27.35 -48.05 -26.55 -48.2 -30.45 -51.95 -31.15 -56.35 L-56.3 -31.2 Q-51.85 -30.55 -48.1 -26.65 M-31.35 -58.0 L-31.45 -58.2 -32.7 -59.45 Q-33.05 -59.8 -33.4 -59.45 L-59.35 -33.5 Q-59.7 -33.15 -59.35 -32.8 L-58.1 -31.55 -57.9 -31.45 -57.8 -31.35 -57.65 -31.35 -57.4 -31.55 -31.45 -57.5 -31.25 -57.75 -31.25 -57.85 -31.35 -58.0 M7.7 -34.7 L0.0 -35.5 -7.55 -34.75 Q-17.5 -32.65 -25.1 -25.1 -32.65 -17.55 -34.7 -7.75 -35.5 -4.05 -35.5 0.0 -35.5 14.65 -25.1 25.1 -14.7 35.5 0.0 35.5 14.7 35.5 25.1 25.1 35.5 14.65 35.5 0.0 35.5 -4.0 34.75 -7.65 32.65 -17.5 25.1 -25.1 17.5 -32.65 7.75 -34.7 L7.7 -34.7 M26.6 -48.1 L28.1 -47.25 47.3 -28.05 Q48.0 -27.35 48.15 -26.6 51.9 -30.5 56.4 -31.15 L31.25 -56.3 Q30.5 -51.85 26.6 -48.1 M24.95 -46.7 L24.8 -46.6 Q15.9 -41.6 8.9 -35.45 18.35 -33.25 25.8 -25.8 33.25 -18.35 35.55 -8.8 41.7 -15.9 46.65 -24.9 L46.75 -25.0 Q47.65 -26.3 46.6 -27.35 L27.4 -46.55 Q26.3 -47.65 24.95 -46.7 M32.75 -59.4 L32.8 -59.4 31.55 -58.15 31.5 -58.15 31.4 -57.95 31.35 -57.8 31.35 -57.7 31.55 -57.4 57.45 -31.5 57.7 -31.3 57.85 -31.3 58.0 -31.4 58.15 -31.5 59.4 -32.75 Q59.75 -33.1 59.4 -33.45 L33.5 -59.35 32.75 -59.4 M30.8 -58.85 L32.05 -60.1 34.2 -60.05 60.1 -34.15 Q61.15 -33.1 60.1 -32.05 L60.1 -32.0 58.85 -30.75 58.85 -30.8 58.5 -30.5 58.45 -30.5 58.25 -30.35 57.5 -30.3 57.45 -30.3 Q51.95 -29.9 47.6 -24.4 L47.55 -24.4 Q42.35 -15.0 35.8 -7.6 36.5 -3.95 36.5 0.0 36.5 15.05 25.8 25.8 15.1 36.5 0.0 36.5 -15.1 36.5 -25.8 25.8 -36.5 15.05 -36.5 0.0 -36.5 -4.0 -35.75 -7.7 -42.25 -15.05 -47.45 -24.4 -51.85 -29.95 -57.4 -30.35 L-58.2 -30.4 -58.4 -30.55 -58.8 -30.85 -60.05 -32.1 Q-61.1 -33.15 -60.05 -34.2 L-34.1 -60.15 Q-33.05 -61.2 -32.0 -60.15 L-30.75 -58.9 -30.45 -58.5 -30.35 -58.2 -30.3 -57.5 -30.3 -57.45 Q-29.85 -51.95 -24.3 -47.55 L-24.25 -47.55 Q-14.95 -42.3 -7.5 -35.8 L0.0 -36.5 7.7 -35.75 Q15.0 -42.25 24.35 -47.5 29.95 -51.95 30.35 -57.5 L30.4 -57.6 Q30.25 -57.9 30.4 -58.15 L30.55 -58.45 30.8 -58.85" fill="#000000" fill-rule="evenodd" stroke="none" class="line" />
    </g>
  </defs>
  <g transform="matrix(1.0, 0.0, 0.0, 1.0, 0.0, 0.0)">
    <use height="96.15" id="fill" transform="matrix(0.8251, 0.0, 0.0, 1.0288, 0.4534, 0.5672)" width="120.15" xlink:href="#sprite0" />
    <use height="97.2" id="line" transform="matrix(0.8251, 0.0, 0.0, 1.0288, -0.0004, 0.0013)" width="121.2" xlink:href="#sprite1" />
  </g>
</svg>