<?xml version="1.0" encoding="UTF-8" standalone="no"?>
<svg xmlns:xlink="http://www.w3.org/1999/xlink" height="100%" width="100%" xmlns="http://www.w3.org/2000/svg" preserveAspectRatio="none" viewBox="0 0 100 100">
  <defs>
    <g id="sprite0" transform="matrix(1.0, 0.0, 0.0, 1.0, 118.0, 71.0)">
      <use height="142.0" transform="matrix(1.0, 0.0, 0.0, 1.0, -118.0, -71.0)" width="236.05" xlink:href="#shape0" />
    </g>
    <g id="shape0" transform="matrix(1.0, 0.0, 0.0, 1.0, 118.0, 71.0)">
      <path d="M117.5 47.9 Q117.1 50.95 115.2 58.35 114.55 62.25 115.9 65.5 116.6 67.15 117.4 68.0 L117.7 68.15 118.0 68.65 118.0 70.3 Q118.0 71.0 117.3 71.0 L86.75 71.0 Q86.05 71.0 86.05 70.3 L86.05 68.65 Q86.05 68.35 86.4 68.15 L86.7 68.0 Q87.55 67.15 88.2 65.5 89.6 62.25 88.95 58.35 87.05 50.95 86.65 47.9 L86.05 41.65 Q86.05 39.95 87.45 39.85 L98.3 39.15 54.85 39.15 65.7 39.85 Q67.05 39.95 67.05 41.65 L66.5 47.9 Q66.1 50.95 64.2 58.35 63.5 62.25 64.85 65.5 65.55 67.15 66.35 68.0 L66.65 68.15 66.95 68.65 66.95 70.3 Q66.95 71.0 66.3 71.0 L35.75 71.0 Q35.05 71.0 35.05 70.3 L35.05 68.65 Q35.05 68.35 35.4 68.15 L35.7 68.0 Q36.55 67.15 37.2 65.5 38.6 62.25 37.9 58.35 36.0 50.95 35.65 47.9 35.05 43.55 35.05 41.65 35.05 39.95 36.45 39.85 L47.3 39.15 3.8 39.15 14.65 39.85 Q16.05 39.95 16.05 41.65 16.05 43.55 15.45 47.9 15.1 50.95 13.2 58.35 12.5 62.25 13.85 65.5 14.55 67.15 15.35 68.0 L15.65 68.15 15.95 68.65 15.95 70.3 Q15.95 71.0 15.25 71.0 L-15.25 71.0 Q-15.95 71.0 -15.95 70.3 L-15.95 68.65 -15.65 68.15 -15.35 68.0 Q-14.5 67.15 -13.8 65.5 -12.4 62.25 -13.1 58.35 -15.0 50.95 -15.4 47.9 L-15.95 41.65 Q-15.95 39.95 -14.6 39.85 L-3.7 39.15 -47.2 39.15 -36.35 39.85 Q-34.95 39.95 -34.95 41.65 -34.95 43.55 -35.55 47.9 -35.95 50.95 -37.8 58.35 -38.5 62.25 -37.15 65.5 -36.45 67.15 -35.65 68.0 L-35.35 68.15 Q-35.05 68.35 -35.05 68.65 L-35.05 70.3 Q-35.05 71.0 -35.75 71.0 L-66.3 71.0 Q-66.95 71.0 -66.95 70.3 L-66.95 68.65 -66.65 68.15 -66.35 68.0 Q-65.5 67.15 -64.85 65.5 -63.45 62.25 -64.1 58.35 -66.0 50.95 -66.4 47.9 L-66.95 41.65 Q-66.95 39.95 -65.6 39.85 L-54.75 39.15 -98.2 39.15 -87.35 39.85 Q-86.0 39.95 -86.0 41.65 -86.0 43.35 -86.55 47.9 -86.95 50.95 -88.85 58.35 -89.5 62.25 -88.15 65.5 -87.45 67.15 -86.65 68.0 L-86.35 68.15 -86.1 68.65 -86.1 70.3 Q-86.1 71.0 -86.75 71.0 L-117.3 71.0 Q-118.0 71.0 -118.0 70.3 L-118.0 68.65 -117.65 68.15 -117.35 68.0 Q-116.5 67.15 -115.85 65.5 -114.45 62.25 -115.15 58.35 -117.0 50.95 -117.4 47.9 -118.0 43.55 -118.0 41.65 -118.0 39.95 -116.6 39.85 L-105.75 39.15 -117.95 39.15 -117.95 -39.25 -107.0 -39.25 -116.6 -39.9 Q-118.0 -39.9 -118.0 -41.65 -118.0 -43.6 -117.4 -47.95 L-116.1 -54.25 -115.15 -58.35 Q-114.45 -62.25 -115.85 -65.5 L-117.35 -68.0 Q-118.0 -68.2 -118.0 -68.7 L-118.0 -70.35 -117.8 -70.8 -117.3 -71.0 -86.75 -71.0 Q-86.1 -71.0 -86.1 -70.35 L-86.1 -68.7 Q-86.1 -68.2 -86.65 -68.0 L-88.15 -65.5 Q-89.5 -62.25 -88.85 -58.35 L-87.85 -54.25 -86.55 -47.95 Q-86.0 -43.4 -86.0 -41.65 -86.0 -39.9 -87.35 -39.9 L-96.95 -39.25 -56.0 -39.25 -65.6 -39.9 Q-66.95 -39.9 -66.95 -41.65 L-66.4 -47.95 -65.1 -54.25 -64.1 -58.35 Q-63.45 -62.25 -64.85 -65.5 L-66.35 -68.0 Q-66.95 -68.2 -66.95 -68.7 L-66.95 -70.35 Q-66.95 -71.0 -66.3 -71.0 L-35.75 -71.0 Q-35.05 -71.0 -35.05 -70.35 L-35.05 -68.7 Q-35.05 -68.2 -35.65 -68.0 L-37.15 -65.5 Q-38.5 -62.25 -37.8 -58.35 L-36.8 -54.25 Q-35.8 -49.8 -35.55 -47.95 -34.95 -43.6 -34.95 -41.65 -34.95 -39.9 -36.35 -39.9 L-45.95 -39.25 -5.0 -39.25 -14.6 -39.9 Q-15.95 -39.9 -15.95 -41.65 L-15.4 -47.95 -14.1 -54.25 -13.1 -58.35 Q-12.4 -62.25 -13.8 -65.5 L-15.35 -68.0 Q-15.95 -68.2 -15.95 -68.7 L-15.95 -70.35 Q-15.95 -71.0 -15.25 -71.0 L15.25 -71.0 Q15.95 -71.0 15.95 -70.35 L15.95 -68.7 Q15.95 -68.2 15.35 -68.0 L13.85 -65.5 Q12.5 -62.25 13.2 -58.35 L14.2 -54.25 15.45 -47.95 Q16.05 -43.6 16.05 -41.65 16.05 -39.9 14.65 -39.9 L5.05 -39.25 46.05 -39.25 36.45 -39.9 Q35.05 -39.9 35.05 -41.65 35.05 -43.6 35.65 -47.95 35.85 -49.8 36.9 -54.25 L37.9 -58.35 Q38.6 -62.25 37.2 -65.5 L35.7 -68.0 Q35.05 -68.2 35.05 -68.7 L35.05 -70.35 Q35.05 -71.0 35.75 -71.0 L66.3 -71.0 Q66.95 -71.0 66.95 -70.35 L66.95 -68.7 Q66.95 -68.2 66.35 -68.0 L64.85 -65.5 Q63.5 -62.25 64.2 -58.35 L65.2 -54.25 66.5 -47.95 67.05 -41.65 Q67.05 -39.9 65.7 -39.9 L56.1 -39.25 97.05 -39.25 87.45 -39.9 Q86.05 -39.9 86.05 -41.65 L86.65 -47.95 87.95 -54.25 88.95 -58.35 Q89.6 -62.25 88.2 -65.5 L86.7 -68.0 Q86.05 -68.2 86.05 -68.7 L86.05 -70.35 Q86.05 -71.0 86.75 -71.0 L117.3 -71.0 117.8 -70.8 118.0 -70.35 118.0 -68.7 Q118.0 -68.2 117.4 -68.0 L115.9 -65.5 Q114.55 -62.25 115.2 -58.35 L116.2 -54.25 117.5 -47.95 118.05 -41.65 Q118.05 -39.9 116.7 -39.9 L107.1 -39.25 118.05 -39.25 118.05 39.15 105.85 39.15 116.7 39.85 Q118.05 39.95 118.05 41.65 L117.5 47.9" fill="#ffffff" fill-rule="evenodd" stroke="none" class="fill" />
    </g>
    <g id="sprite1" transform="matrix(1.0, 0.0, 0.0, 1.0, 118.35, 71.35)">
      <use height="142.7" transform="matrix(1.0, 0.0, 0.0, 1.0, -118.35, -71.35)" width="236.75" xlink:href="#shape1" />
    </g>
    <g id="shape1" transform="matrix(1.0, 0.0, 0.0, 1.0, 118.35, 71.35)">
      <path d="M-86.45 70.3 L-86.45 68.65 Q-86.45 68.35 -86.75 68.35 L-117.25 68.35 -117.45 68.4 -117.5 68.45 -117.6 68.65 -117.65 68.85 -117.65 70.3 -117.3 70.65 -86.75 70.65 Q-86.45 70.65 -86.45 70.3 M-87.4 67.65 Q-89.55 64.45 -89.4 60.15 -90.05 60.7 -91.15 60.7 L-112.8 60.7 Q-113.9 60.7 -114.6 60.15 -114.4 64.4 -116.6 67.65 L-87.4 67.65 M-86.35 41.65 Q-86.35 40.3 -87.4 40.2 L-102.0 39.35 -116.6 40.2 Q-117.65 40.3 -117.65 41.65 L-117.05 47.85 -115.9 53.7 -114.8 58.1 -114.8 58.25 -114.75 58.35 -114.3 59.45 Q-113.9 60.0 -112.8 60.0 L-91.15 60.0 Q-90.1 60.0 -89.65 59.45 -89.3 59.05 -89.2 58.4 L-89.2 58.25 -89.15 58.2 -89.15 58.1 Q-87.2 50.4 -86.9 47.85 -86.35 43.45 -86.35 41.65 M-35.4 70.3 L-35.4 68.65 Q-35.4 68.35 -35.7 68.35 L-66.25 68.35 -66.45 68.4 -66.5 68.45 -66.6 68.85 -66.6 70.3 -66.3 70.65 -35.75 70.65 Q-35.4 70.65 -35.4 70.3 M-36.4 67.65 Q-38.55 64.45 -38.35 60.15 -39.05 60.7 -40.15 60.7 L-61.8 60.7 Q-62.9 60.7 -63.55 60.15 -63.4 64.4 -65.6 67.65 L-36.4 67.65 M-35.3 41.65 Q-35.3 40.3 -36.35 40.2 L-50.95 39.35 -65.55 40.2 Q-66.6 40.3 -66.6 41.65 L-66.05 47.85 -64.9 53.7 -63.8 58.1 -63.8 58.2 -63.75 58.25 -63.75 58.35 -63.3 59.45 Q-62.85 60.0 -61.8 60.0 L-40.15 60.0 Q-39.05 60.0 -38.65 59.45 -38.3 59.05 -38.2 58.4 L-38.15 58.25 -38.15 58.1 -37.05 53.6 -35.9 47.85 -35.3 41.65 M15.6 70.3 L15.6 68.65 15.3 68.35 -15.2 68.35 -15.4 68.4 -15.45 68.45 -15.55 68.65 -15.6 68.85 -15.6 70.3 -15.25 70.65 15.25 70.65 15.6 70.3 M14.65 67.65 Q12.4 64.6 12.65 60.15 11.95 60.7 10.9 60.7 L-10.8 60.7 Q-11.9 60.7 -12.55 60.15 -12.4 64.6 -14.6 67.65 L14.65 67.65 M15.7 41.65 Q15.7 40.3 14.65 40.2 L0.05 39.35 -14.55 40.2 Q-15.6 40.3 -15.6 41.65 L-15.05 47.85 Q-14.7 50.65 -12.8 58.15 L-12.75 58.2 -12.75 58.4 -12.3 59.45 Q-11.85 60.0 -10.8 60.0 L10.9 60.0 Q11.95 60.0 12.4 59.45 L12.85 58.4 12.85 58.15 12.9 58.1 15.1 47.85 Q15.7 43.65 15.7 41.65 M-15.6 -41.65 Q-15.6 -40.25 -14.55 -40.25 L0.05 -39.4 14.65 -40.25 Q15.7 -40.25 15.7 -41.65 15.7 -43.7 15.1 -47.9 L13.95 -53.8 12.85 -58.2 12.85 -58.4 12.4 -59.5 Q11.95 -60.0 10.9 -60.0 L-10.8 -60.0 Q-11.85 -60.0 -12.3 -59.5 L-12.75 -58.45 -12.75 -58.2 -12.8 -58.2 -12.8 -58.15 Q-14.7 -50.45 -15.05 -47.9 L-15.6 -41.65 M-14.6 -67.65 Q-12.35 -64.75 -12.55 -60.2 -12.0 -60.7 -10.8 -60.7 L10.9 -60.7 Q12.1 -60.7 12.65 -60.2 12.4 -64.7 14.65 -67.65 L-14.6 -67.65 M-117.65 -41.65 Q-117.65 -40.25 -116.6 -40.25 L-102.0 -39.4 -87.4 -40.25 Q-86.35 -40.25 -86.35 -41.65 -86.35 -43.5 -86.9 -47.9 -87.2 -50.5 -89.15 -58.2 L-89.2 -58.25 -89.2 -58.4 -89.65 -59.5 Q-90.1 -60.0 -91.15 -60.0 L-112.8 -60.0 Q-113.95 -60.0 -114.3 -59.5 L-114.75 -58.45 -114.8 -58.3 -114.8 -58.15 -115.9 -53.65 -117.05 -47.9 -117.65 -41.65 M-116.6 -67.65 Q-114.35 -64.55 -114.6 -60.2 L-112.8 -60.7 -91.15 -60.7 Q-89.95 -60.7 -89.4 -60.2 -89.55 -64.6 -87.4 -67.65 L-116.6 -67.65 M-65.6 -67.65 Q-63.4 -64.55 -63.55 -60.2 -63.0 -60.7 -61.8 -60.7 L-40.15 -60.7 Q-39.0 -60.7 -38.35 -60.2 -38.6 -64.6 -36.4 -67.65 L-65.6 -67.65 M-66.6 -41.65 Q-66.6 -40.25 -65.55 -40.25 L-50.95 -39.4 -36.35 -40.25 Q-35.3 -40.25 -35.3 -41.65 L-35.9 -47.9 Q-36.1 -49.65 -37.1 -53.8 L-38.15 -58.2 -38.15 -58.25 -38.2 -58.4 Q-38.35 -59.15 -38.65 -59.5 -39.0 -60.0 -40.15 -60.0 L-61.8 -60.0 Q-62.85 -60.0 -63.3 -59.5 L-63.75 -58.45 -63.75 -58.3 -63.8 -58.2 -63.8 -58.15 -66.05 -47.9 -66.6 -41.65 M-117.3 -70.65 L-117.65 -70.35 -117.65 -68.85 -117.6 -68.7 -117.5 -68.5 -117.45 -68.45 -117.25 -68.35 -86.75 -68.35 -86.45 -68.7 -86.45 -70.35 Q-86.45 -70.65 -86.75 -70.65 L-117.3 -70.65 M-15.25 -70.65 L-15.6 -70.35 -15.6 -68.85 -15.55 -68.7 -15.45 -68.5 -15.4 -68.45 -15.2 -68.35 15.3 -68.35 15.6 -68.7 15.6 -70.35 15.25 -70.65 -15.25 -70.65 M-66.3 -70.65 L-66.6 -70.35 -66.6 -68.85 -66.5 -68.5 -66.45 -68.45 -66.25 -68.35 -35.7 -68.35 -35.4 -68.7 -35.4 -70.35 Q-35.4 -70.65 -35.75 -70.65 L-66.3 -70.65 M-117.6 -38.7 L-117.6 38.6 117.7 38.6 117.7 -38.7 -117.6 -38.7 M66.6 70.3 L66.6 68.65 66.3 68.35 35.8 68.35 35.6 68.4 35.55 68.45 35.45 68.65 35.4 68.85 35.4 70.3 Q35.4 70.65 35.75 70.65 L66.3 70.65 66.6 70.3 M65.65 67.65 Q63.45 64.4 63.65 60.15 63.0 60.7 61.9 60.7 L40.2 60.7 Q39.15 60.7 38.45 60.15 38.7 64.5 36.4 67.65 L65.65 67.65 M66.7 41.65 Q66.7 40.3 65.65 40.2 L51.05 39.35 36.45 40.2 Q35.4 40.3 35.4 41.65 35.4 43.65 36.0 47.85 L37.15 53.7 38.25 58.1 38.25 58.35 38.7 59.45 Q39.15 60.0 40.2 60.0 L61.9 60.0 Q62.95 60.0 63.4 59.45 L63.85 58.4 63.85 58.25 63.9 58.2 63.9 58.1 66.15 47.85 66.7 41.65 M117.65 70.3 L117.65 68.65 117.3 68.35 86.8 68.35 86.6 68.4 86.55 68.45 86.45 68.65 86.4 68.85 86.4 70.3 Q86.4 70.65 86.75 70.65 L117.3 70.65 117.65 70.3 M116.65 67.65 Q114.5 64.45 114.65 60.15 114.0 60.7 112.9 60.7 L91.25 60.7 Q90.15 60.7 89.45 60.15 89.65 64.4 87.45 67.65 L116.65 67.65 M86.4 41.65 L87.0 47.85 88.15 53.7 89.25 58.1 89.25 58.25 89.3 58.35 Q89.4 59.05 89.75 59.45 90.15 60.0 91.25 60.0 L112.9 60.0 Q114.0 60.0 114.4 59.45 L114.85 58.4 114.85 58.25 114.9 58.2 114.9 58.1 116.0 53.6 117.15 47.85 117.7 41.65 Q117.7 40.3 116.65 40.2 L99.8 39.4 87.5 40.2 Q86.4 40.3 86.4 41.65 M36.4 -67.65 Q38.7 -64.65 38.45 -60.2 39.1 -60.7 40.2 -60.7 L61.9 -60.7 Q63.1 -60.7 63.65 -60.2 63.5 -64.6 65.65 -67.65 L36.4 -67.65 M35.4 -41.65 Q35.4 -40.25 36.45 -40.25 L51.05 -39.4 65.65 -40.25 Q66.7 -40.25 66.7 -41.65 L66.15 -47.9 Q65.85 -50.5 63.9 -58.2 L63.85 -58.25 63.85 -58.4 63.4 -59.5 Q62.95 -60.0 61.9 -60.0 L40.2 -60.0 Q39.15 -60.0 38.7 -59.5 L38.3 -58.45 38.25 -58.3 38.25 -58.2 38.2 -58.15 Q36.3 -50.05 36.0 -47.9 35.4 -43.7 35.4 -41.65 M87.45 -67.65 Q89.65 -64.55 89.5 -60.2 90.05 -60.7 91.25 -60.7 L112.9 -60.7 Q114.1 -60.7 114.65 -60.2 114.5 -64.6 116.65 -67.65 L87.45 -67.65 M86.4 -41.65 Q86.4 -40.25 87.5 -40.25 L102.05 -39.4 116.65 -40.25 Q117.7 -40.25 117.7 -41.65 L117.15 -47.9 115.95 -53.8 114.9 -58.2 114.9 -58.25 114.85 -58.4 114.4 -59.5 Q114.05 -60.0 112.9 -60.0 L91.25 -60.0 Q90.1 -60.0 89.75 -59.5 L89.3 -58.45 89.25 -58.3 89.25 -58.15 Q87.2 -49.6 87.0 -47.9 L86.4 -41.65 M86.75 -70.65 L86.4 -70.35 86.4 -68.85 86.45 -68.7 86.55 -68.5 86.6 -68.45 86.8 -68.35 117.3 -68.35 117.65 -68.7 117.65 -70.35 117.3 -70.65 86.75 -70.65 M115.6 58.3 L115.55 58.55 Q115.0 62.0 116.05 65.0 116.7 66.7 117.6 67.7 118.4 67.9 118.4 68.65 L118.35 68.85 118.35 70.3 118.05 71.05 Q117.7 71.35 117.3 71.35 L86.75 71.35 Q86.35 71.35 86.0 71.05 85.7 70.7 85.7 70.3 L85.7 68.65 Q85.7 68.25 86.05 68.0 L86.2 67.85 86.3 67.8 86.45 67.7 86.5 67.7 Q87.4 66.7 88.05 65.0 89.15 62.0 88.6 58.55 L88.55 58.3 Q86.7 51.45 86.3 47.95 L85.7 41.65 Q85.7 39.65 87.4 39.5 L90.55 39.3 62.55 39.3 65.7 39.5 Q67.4 39.65 67.4 41.65 L66.85 47.95 65.65 53.85 64.55 58.3 64.5 58.55 Q63.95 62.0 65.05 65.0 65.65 66.55 66.55 67.7 67.35 67.9 67.35 68.65 L67.3 68.85 67.3 70.3 67.0 71.05 Q66.7 71.35 66.3 71.35 L35.75 71.35 Q35.3 71.35 35.0 71.05 34.7 70.7 34.7 70.3 L34.7 68.65 Q34.7 68.25 35.05 68.0 L35.25 67.8 35.45 67.7 35.5 67.7 37.05 65.0 Q38.15 62.0 37.6 58.55 L37.55 58.3 Q35.7 51.45 35.3 47.95 34.7 43.7 34.7 41.65 34.7 39.65 36.4 39.5 L39.55 39.3 11.55 39.3 14.7 39.5 Q16.4 39.65 16.4 41.65 16.4 43.7 15.8 47.95 15.45 50.85 13.55 58.3 L13.5 58.55 Q12.95 62.0 14.05 65.0 14.65 66.55 15.55 67.7 16.35 67.9 16.35 68.65 L16.3 68.85 16.3 70.3 16.0 71.05 Q15.7 71.35 15.25 71.35 L-15.25 71.35 Q-15.7 71.35 -16.0 71.05 L-16.3 70.3 -16.3 68.65 -16.0 68.0 -15.85 67.85 -15.55 67.7 Q-14.65 66.7 -14.0 65.0 -12.85 62.0 -13.4 58.55 L-13.45 58.3 Q-15.4 50.5 -15.75 47.95 L-16.3 41.65 Q-16.3 39.65 -14.6 39.5 L-11.45 39.3 -39.45 39.3 -36.3 39.5 Q-34.6 39.65 -34.6 41.65 L-35.2 47.95 Q-35.55 50.85 -37.45 58.3 L-37.5 58.55 Q-38.4 64.0 -35.45 67.7 -34.65 67.9 -34.65 68.65 L-34.7 68.85 -34.7 70.3 Q-34.7 70.7 -35.0 71.05 -35.35 71.35 -35.75 71.35 L-66.3 71.35 Q-66.7 71.35 -67.0 71.05 L-67.3 70.3 -67.3 68.65 Q-67.3 68.25 -67.0 68.0 L-66.85 67.85 -66.75 67.8 -66.6 67.7 -66.55 67.7 Q-65.65 66.7 -65.0 65.0 -63.9 62.0 -64.45 58.55 L-64.5 58.3 -66.75 47.95 -67.3 41.65 Q-67.3 39.65 -65.6 39.5 L-62.5 39.3 -90.45 39.3 -87.35 39.5 Q-85.65 39.65 -85.65 41.65 -85.65 43.45 -86.2 47.95 -86.6 50.8 -88.45 58.3 L-88.5 58.55 Q-89.05 62.0 -88.0 65.0 -87.4 66.55 -86.5 67.7 L-86.45 67.7 Q-85.7 67.85 -85.7 68.65 L-85.75 68.85 -85.75 70.3 Q-85.75 70.7 -86.05 71.05 -86.35 71.35 -86.75 71.35 L-117.3 71.35 Q-117.7 71.35 -118.05 71.05 L-118.35 70.3 -118.35 68.65 Q-118.35 68.25 -118.0 68.0 L-117.85 67.85 -117.75 67.8 -117.6 67.7 -117.55 67.7 Q-114.55 63.95 -115.45 58.55 L-115.5 58.3 Q-117.35 51.45 -117.75 47.95 L-118.35 41.65 Q-118.35 39.65 -116.65 39.5 L-113.5 39.3 -118.3 39.3 -118.3 -39.4 -114.75 -39.4 -116.65 -39.55 Q-118.35 -39.65 -118.35 -41.65 L-117.75 -48.0 Q-117.55 -49.8 -116.55 -53.9 L-115.5 -58.35 -115.45 -58.6 Q-114.9 -62.05 -116.0 -65.0 -116.65 -66.7 -117.55 -67.7 L-117.6 -67.75 -117.75 -67.85 -117.85 -67.9 -118.0 -68.0 -118.35 -68.7 -118.35 -70.35 -118.05 -71.05 -117.3 -71.35 -86.75 -71.35 Q-86.35 -71.35 -86.05 -71.05 -85.75 -70.75 -85.75 -70.35 L-85.75 -68.85 -85.7 -68.7 Q-85.7 -67.95 -86.45 -67.7 L-86.5 -67.7 Q-87.35 -66.75 -88.0 -65.0 -89.05 -62.0 -88.5 -58.55 L-88.45 -58.35 Q-86.6 -51.0 -86.2 -48.0 -85.65 -43.5 -85.65 -41.65 -85.65 -39.6 -87.35 -39.55 L-89.25 -39.4 -63.7 -39.4 -65.6 -39.55 Q-67.3 -39.6 -67.3 -41.65 L-66.75 -48.0 -64.5 -58.35 -64.45 -58.6 Q-63.9 -62.05 -65.0 -65.0 -65.65 -66.7 -66.55 -67.7 L-66.6 -67.75 -66.75 -67.85 -66.85 -67.9 -67.0 -68.0 -67.3 -68.7 -67.3 -70.35 -67.0 -71.05 Q-66.7 -71.35 -66.3 -71.35 L-35.75 -71.35 -35.0 -71.05 Q-34.7 -70.75 -34.7 -70.35 L-34.7 -68.85 -34.65 -68.7 Q-34.65 -67.95 -35.45 -67.7 -36.35 -66.7 -36.95 -65.0 -38.05 -62.0 -37.5 -58.55 L-37.45 -58.35 Q-35.5 -50.6 -35.2 -48.0 L-34.6 -41.65 Q-34.6 -39.65 -36.3 -39.55 L-38.2 -39.4 -12.7 -39.4 -14.6 -39.55 Q-16.3 -39.65 -16.3 -41.65 L-15.75 -48.0 -14.55 -53.9 -13.45 -58.35 -13.4 -58.6 Q-12.85 -62.05 -14.0 -65.0 -14.65 -66.7 -15.55 -67.7 L-15.55 -67.75 -15.85 -67.9 -16.0 -68.0 -16.3 -68.7 -16.3 -70.35 -16.0 -71.05 -15.25 -71.35 15.25 -71.35 16.0 -71.05 16.3 -70.35 16.3 -68.85 16.35 -68.7 Q16.35 -67.95 15.55 -67.7 14.7 -66.75 14.05 -65.0 12.95 -62.0 13.5 -58.55 L13.55 -58.35 Q15.5 -50.6 15.8 -48.0 16.4 -43.7 16.4 -41.65 16.4 -39.65 14.7 -39.55 L12.8 -39.4 38.3 -39.4 36.4 -39.55 Q34.7 -39.65 34.7 -41.65 34.7 -43.7 35.3 -48.0 L36.5 -53.9 37.55 -58.35 37.6 -58.6 Q38.15 -62.05 37.05 -65.0 L35.5 -67.7 35.45 -67.75 35.25 -67.85 35.2 -67.9 35.05 -68.0 Q34.7 -68.35 34.7 -68.7 L34.7 -70.35 Q34.7 -70.75 35.0 -71.05 35.3 -71.35 35.75 -71.35 L66.3 -71.35 Q66.7 -71.35 67.0 -71.05 L67.3 -70.35 67.3 -68.85 67.35 -68.7 Q67.35 -67.95 66.55 -67.7 65.7 -66.75 65.05 -65.0 64.0 -62.0 64.55 -58.55 L64.55 -58.35 Q66.5 -50.55 66.85 -48.0 L67.4 -41.65 Q67.4 -39.65 65.7 -39.55 L63.8 -39.4 89.3 -39.4 87.4 -39.55 Q85.7 -39.65 85.7 -41.65 L86.3 -48.0 Q86.5 -49.8 87.5 -53.9 L88.55 -58.35 88.6 -58.6 Q89.15 -62.05 88.05 -65.0 87.4 -66.7 86.5 -67.7 L86.45 -67.75 86.3 -67.85 86.2 -67.9 86.05 -68.0 Q85.7 -68.35 85.7 -68.7 L85.7 -70.35 Q85.7 -70.75 86.0 -71.05 L86.75 -71.35 117.3 -71.35 118.05 -71.05 118.35 -70.35 118.35 -68.85 118.4 -68.7 Q118.4 -67.95 117.6 -67.7 116.75 -66.85 116.05 -65.0 115.0 -62.0 115.55 -58.55 L115.6 -58.35 116.65 -54.0 117.85 -48.0 118.4 -41.65 Q118.4 -39.6 116.7 -39.55 L114.85 -39.4 118.4 -39.4 118.4 39.3 113.6 39.3 116.7 39.5 Q118.4 39.65 118.4 41.65 L117.85 47.95 Q117.55 50.55 115.6 58.3 M35.75 -70.65 Q35.4 -70.65 35.4 -70.35 L35.4 -68.85 35.45 -68.7 35.55 -68.5 35.6 -68.45 35.8 -68.35 66.3 -68.35 66.6 -68.7 66.6 -70.35 66.3 -70.65 35.75 -70.65" fill="#000000" fill-rule="evenodd" stroke="none" class="line" />
    </g>
  </defs>
  <g transform="matrix(1.0, 0.0, 0.0, 1.0, 0.0, 0.0)">
    <use height="142.0" id="Fill" transform="matrix(0.4236, 0.0, 0.0, 0.7042, 0.0099, 0.0001)" width="236.05" xlink:href="#sprite0" />
    <use height="142.7" id="Line" transform="matrix(0.4224, 0.0, 0.0, 0.7008, 0.0097, -0.0003)" width="236.75" xlink:href="#sprite1" />
  </g>
</svg>