<?xml version="1.0" encoding="UTF-8" standalone="no"?>
<svg xmlns:xlink="http://www.w3.org/1999/xlink" height="100%" width="100%" xmlns="http://www.w3.org/2000/svg" preserveAspectRatio="none" viewBox="0 0 100 100">
  <defs>
    <g id="sprite0" transform="matrix(1.0, 0.0, 0.0, 1.0, 80.15, 80.2)">
      <use height="160.3" transform="matrix(1.0, 0.0, 0.0, 1.0, -80.15, -80.2)" width="160.3" xlink:href="#shape0" />
    </g>
    <g id="shape0" transform="matrix(1.0, 0.0, 0.0, 1.0, 80.15, 80.2)">
      <path d="M19.25 -76.9 L18.9 -76.5 Q15.05 -72.1 15.9 -64.8 18.9 -54.2 19.45 -44.0 27.3 -40.5 33.9 -33.9 40.5 -27.3 44.05 -19.45 54.15 -18.9 64.75 -15.9 72.05 -15.05 76.45 -18.9 L76.85 -19.25 77.05 -19.3 77.35 -19.35 79.15 -19.35 Q80.15 -19.35 80.15 -18.35 L80.15 18.3 Q80.15 19.3 79.15 19.3 L77.35 19.3 77.05 19.25 76.85 19.2 76.45 18.85 Q72.05 15.0 64.75 15.85 54.15 18.85 44.05 19.4 40.55 27.3 33.9 33.95 27.3 40.55 19.4 44.05 18.85 54.15 15.85 64.7 15.0 72.0 18.85 76.4 L19.2 76.8 19.25 77.0 19.3 77.3 19.3 79.1 Q19.3 80.1 18.3 80.1 L-18.35 80.1 Q-19.35 80.1 -19.35 79.1 L-19.35 77.3 -19.3 77.0 -19.25 76.8 -18.9 76.4 Q-15.05 72.0 -15.9 64.7 -18.9 54.15 -19.45 44.05 -27.35 40.55 -33.95 33.95 -40.6 27.3 -44.05 19.35 -54.2 18.8 -64.75 15.8 -72.05 14.95 -76.45 18.8 L-76.85 19.15 -77.05 19.2 -77.35 19.25 -79.15 19.25 Q-80.15 19.25 -80.15 18.25 L-80.15 -18.4 Q-80.15 -19.4 -79.15 -19.4 L-77.35 -19.4 -77.05 -19.35 -76.85 -19.3 -76.45 -18.95 Q-72.05 -15.1 -64.75 -15.95 -54.15 -18.95 -44.0 -19.5 -40.5 -27.35 -33.95 -33.9 -27.3 -40.55 -19.4 -44.05 -18.85 -54.2 -15.85 -64.8 -15.0 -72.1 -18.85 -76.5 L-19.2 -76.9 -19.25 -77.1 -19.3 -77.4 -19.3 -79.2 Q-19.3 -80.2 -18.3 -80.2 L18.35 -80.2 Q19.35 -80.2 19.35 -79.2 L19.35 -77.4 19.3 -77.1 19.25 -76.9" fill="#ffffff" fill-rule="evenodd" stroke="none" class="fill" />
    </g>
    <g id="sprite1" transform="matrix(1.0, 0.0, 0.0, 1.0, 80.65, 80.7)">
      <use height="161.3" transform="matrix(1.0, 0.0, 0.0, 1.0, -80.65, -80.7)" width="161.3" xlink:href="#shape1" />
    </g>
    <g id="shape1" transform="matrix(1.0, 0.0, 0.0, 1.0, 80.65, 80.7)">
      <path d="M-77.05 -18.8 L-77.1 -18.85 -77.2 -18.85 -77.35 -18.9 -79.15 -18.9 Q-79.65 -18.9 -79.65 -18.4 L-79.65 18.25 Q-79.65 18.75 -79.15 18.75 L-77.35 18.75 -77.2 18.75 -77.1 18.7 -77.05 18.7 -76.95 18.6 -76.85 18.25 -76.85 -18.4 -76.95 -18.75 -77.05 -18.8 M-67.25 -13.65 Q-67.25 -14.65 -66.85 -15.3 -72.2 -15.2 -75.85 -17.8 L-75.85 17.7 Q-72.2 15.05 -66.85 15.15 -67.25 14.5 -67.25 13.5 L-67.25 -13.65 M-64.5 -15.5 L-64.7 -15.45 Q-66.25 -15.2 -66.25 -13.65 L-66.25 13.5 Q-66.25 15.05 -64.7 15.3 L-64.5 15.35 Q-54.45 18.2 -44.85 18.8 -48.5 10.15 -48.5 0.0 -48.5 -10.25 -44.8 -18.95 -54.4 -18.35 -64.5 -15.5 M18.75 77.05 L18.75 77.0 18.65 76.9 18.3 76.8 -18.35 76.8 -18.7 76.9 -18.75 77.0 -18.8 77.05 -18.8 77.15 -18.85 77.3 -18.85 79.1 Q-18.85 79.6 -18.35 79.6 L18.3 79.6 Q18.8 79.6 18.8 79.1 L18.8 77.3 18.8 77.15 18.75 77.05 M15.2 66.8 Q14.55 67.2 13.55 67.2 L-13.6 67.2 Q-14.6 67.2 -15.25 66.8 -15.15 72.15 -17.75 75.8 L17.75 75.8 Q15.1 72.15 15.2 66.8 M18.85 44.85 Q10.2 48.5 0.0 48.5 -10.2 48.5 -18.9 44.85 -18.3 54.45 -15.45 64.45 L-15.4 64.65 Q-15.15 66.2 -13.6 66.2 L13.55 66.2 Q15.1 66.2 15.35 64.65 L15.4 64.45 Q18.25 54.45 18.85 44.85 M66.25 -13.6 Q66.25 -15.15 64.7 -15.4 L64.65 -15.4 64.5 -15.45 Q54.45 -18.3 44.8 -18.9 48.5 -10.2 48.5 0.0 48.5 10.15 44.85 18.85 54.45 18.25 64.5 15.4 L64.65 15.35 64.7 15.35 Q66.25 15.1 66.25 13.55 L66.25 -13.6 M66.85 -15.25 Q67.25 -14.6 67.25 -13.6 L67.25 13.55 Q67.25 14.55 66.85 15.2 72.2 15.1 75.85 17.75 L75.85 -17.75 Q72.2 -15.15 66.85 -15.25 M77.05 -18.8 L77.0 -18.75 76.9 -18.7 76.85 -18.35 76.85 18.3 76.9 18.65 77.0 18.75 77.05 18.75 77.2 18.8 77.35 18.8 79.15 18.8 Q79.65 18.8 79.65 18.3 L79.65 -18.35 Q79.65 -18.85 79.15 -18.85 L77.35 -18.85 77.2 -18.8 77.05 -18.8 M20.0 -43.2 L19.0 -43.7 Q10.25 -47.5 0.0 -47.5 -10.25 -47.5 -18.9 -43.7 L-19.95 -43.25 Q-27.35 -39.8 -33.6 -33.55 -39.8 -27.35 -43.2 -20.05 L-43.7 -19.0 Q-47.5 -10.3 -47.5 0.0 -47.5 10.2 -43.75 18.9 L-43.3 19.9 Q-39.85 27.3 -33.6 33.6 -27.35 39.8 -20.0 43.25 L-18.95 43.7 Q-10.25 47.5 0.0 47.5 10.25 47.5 18.95 43.75 L19.95 43.3 Q27.3 39.85 33.55 33.6 39.8 27.35 43.3 19.95 L43.75 18.95 Q47.5 10.25 47.5 0.0 47.5 -10.25 43.7 -18.95 L43.25 -20.0 Q39.8 -27.35 33.55 -33.55 27.35 -39.8 20.0 -43.2 M13.6 -67.3 Q14.6 -67.3 15.25 -66.9 15.15 -72.25 17.8 -75.9 L-17.7 -75.9 Q-15.1 -72.25 -15.2 -66.9 -14.55 -67.3 -13.55 -67.3 L13.6 -67.3 M15.4 -64.7 L15.4 -64.75 Q15.15 -66.3 13.6 -66.3 L-13.55 -66.3 Q-15.1 -66.3 -15.35 -64.75 L-15.35 -64.7 -15.4 -64.55 Q-18.25 -54.5 -18.85 -44.8 -10.2 -48.5 0.0 -48.5 10.2 -48.5 18.95 -44.8 18.3 -54.45 15.45 -64.55 L15.4 -64.7 M19.85 -79.2 L19.85 -77.4 19.8 -77.0 19.75 -76.7 19.7 -76.65 19.25 -76.1 Q15.6 -71.85 16.4 -64.85 L16.4 -64.8 Q19.35 -54.35 19.95 -44.35 27.7 -40.8 34.25 -34.25 40.8 -27.7 44.35 -19.95 54.35 -19.35 64.75 -16.4 L64.8 -16.4 Q71.8 -15.6 76.05 -19.2 L76.6 -19.7 76.65 -19.7 76.95 -19.8 77.35 -19.85 79.15 -19.85 Q80.65 -19.85 80.65 -18.35 L80.65 18.3 Q80.65 19.8 79.15 19.8 L77.35 19.8 76.95 19.75 76.65 19.7 76.6 19.65 76.05 19.2 Q71.8 15.55 64.8 16.35 L64.75 16.35 Q54.35 19.3 44.4 19.9 40.85 27.7 34.25 34.3 27.7 40.85 19.9 44.4 19.3 54.35 16.35 64.75 L16.35 64.8 Q15.55 71.75 19.2 76.05 L19.65 76.6 19.7 76.65 19.75 76.95 19.8 77.3 19.8 79.1 Q19.8 80.6 18.3 80.6 L-18.35 80.6 Q-19.85 80.6 -19.85 79.1 L-19.85 77.3 -19.8 76.95 -19.7 76.65 -19.7 76.6 -19.2 76.05 Q-15.6 71.75 -16.4 64.8 L-16.4 64.75 Q-19.35 54.35 -19.95 44.4 -27.75 40.85 -34.3 34.3 -40.9 27.7 -44.4 19.85 -54.4 19.25 -64.8 16.3 L-64.85 16.3 Q-71.8 15.5 -76.1 19.15 L-76.65 19.6 -76.7 19.65 -77.0 19.7 -77.35 19.75 -79.15 19.75 Q-80.65 19.75 -80.65 18.25 L-80.65 -18.4 Q-80.65 -19.9 -79.15 -19.9 L-77.35 -19.9 -77.0 -19.85 -76.7 -19.75 -76.65 -19.75 Q-76.3 -19.6 -76.1 -19.25 -71.8 -15.65 -64.85 -16.45 L-64.8 -16.45 Q-54.35 -19.4 -44.35 -20.0 -40.8 -27.75 -34.3 -34.25 -27.7 -40.85 -19.9 -44.35 -19.3 -54.4 -16.35 -64.8 L-16.35 -64.85 Q-15.55 -71.85 -19.15 -76.1 L-19.65 -76.65 -19.65 -76.7 -19.75 -77.0 -19.8 -77.4 -19.8 -79.2 Q-19.8 -80.7 -18.3 -80.7 L18.35 -80.7 Q19.85 -80.7 19.85 -79.2 M18.85 -79.2 Q18.85 -79.7 18.35 -79.7 L-18.3 -79.7 Q-18.8 -79.7 -18.8 -79.2 L-18.8 -77.4 -18.75 -77.25 -18.75 -77.1 -18.7 -77.05 -18.65 -76.95 -18.3 -76.9 18.35 -76.9 18.7 -76.95 18.8 -77.05 18.8 -77.1 18.85 -77.25 18.85 -77.4 18.85 -79.2" fill="#000000" fill-rule="evenodd" stroke="none" class="line" />
    </g>
  </defs>
  <g transform="matrix(1.0, 0.0, 0.0, 1.0, 0.0, 0.0)">
    <use height="160.3" id="fill" transform="matrix(0.62, 0.0, 0.0, 0.62, 0.3098, 0.3288)" width="160.3" xlink:href="#sprite0" />
    <use height="161.3" id="line" transform="matrix(0.62, 0.0, 0.0, 0.62, -0.0001, 0.0189)" width="161.3" xlink:href="#sprite1" />
  </g>
</svg>