<?xml version="1.0" encoding="UTF-8" standalone="no"?>
<svg xmlns:xlink="http://www.w3.org/1999/xlink" height="100%" width="100%" xmlns="http://www.w3.org/2000/svg" preserveAspectRatio="none" viewBox="0 0 100 100">
  <defs>
    <g id="sprite0" transform="matrix(1.0, 0.0, 0.0, 1.0, 96.0, 68.0)">
      <use height="136.0" transform="matrix(1.0, 0.0, 0.0, 1.0, -96.0, -68.0)" width="192.0" xlink:href="#shape0" />
    </g>
    <g id="shape0" transform="matrix(1.0, 0.0, 0.0, 1.0, 96.0, 68.0)">
      <path d="M-96.0 36.0 L-96.0 -36.0 96.0 -36.0 96.0 36.0 -96.0 36.0" fill="#ffffff" fill-rule="evenodd" stroke="none" class="fill" />
      <path d="M-39.85 -55.25 L-39.8 -55.45 Q-39.15 -59.3 -40.55 -62.55 L-42.05 -65.0 -42.15 -65.0 -42.45 -65.2 -42.7 -65.65 -42.7 -67.3 Q-42.7 -68.0 -42.0 -68.0 L-11.45 -68.0 Q-10.8 -68.0 -10.8 -67.3 L-10.8 -65.65 -10.75 -65.65 Q-10.75 -65.1 -11.35 -65.0 L-11.4 -65.0 -12.85 -62.55 Q-14.15 -59.3 -13.55 -55.45 L-13.55 -55.25 -12.45 -50.85 Q-11.5 -46.75 -11.25 -44.9 -10.7 -40.35 -10.7 -38.65 -10.7 -36.95 -12.05 -36.85 L-26.7 -36.0 -41.3 -36.85 Q-42.7 -36.95 -42.7 -38.65 -42.7 -40.55 -42.1 -44.9 -41.75 -47.55 -39.85 -55.25" fill="#ffffff" fill-rule="evenodd" stroke="none" class="fill" />
      <path d="M-93.2 -55.25 L-93.15 -55.45 Q-92.5 -59.3 -93.9 -62.55 L-95.4 -65.0 -95.5 -65.0 -95.8 -65.2 -96.0 -65.65 -96.0 -67.3 Q-96.0 -68.0 -95.35 -68.0 L-64.8 -68.0 Q-64.1 -68.0 -64.1 -67.3 L-64.1 -65.65 -64.05 -65.65 Q-64.05 -65.1 -64.65 -65.0 L-64.7 -65.0 -66.15 -62.55 Q-67.5 -59.3 -66.9 -55.45 L-66.85 -55.25 Q-64.9 -47.55 -64.6 -44.9 -64.0 -40.55 -64.0 -38.65 -64.0 -36.95 -65.4 -36.85 L-80.0 -36.0 -94.65 -36.85 Q-96.0 -36.95 -96.0 -38.65 L-95.45 -44.9 Q-95.1 -47.55 -93.2 -55.25" fill="#ffffff" fill-rule="evenodd" stroke="none" class="fill" />
      <path d="M13.5 -55.25 L13.5 -55.45 Q14.15 -59.3 12.75 -62.55 L11.25 -65.0 11.15 -65.0 10.85 -65.2 10.65 -65.65 10.65 -67.3 Q10.65 -68.0 11.35 -68.0 L41.85 -68.0 Q42.55 -68.0 42.55 -67.3 L42.55 -65.65 42.6 -65.65 Q42.6 -65.1 42.0 -65.0 L41.95 -65.0 40.5 -62.55 Q39.15 -59.3 39.75 -55.45 L39.8 -55.25 Q41.75 -47.55 42.05 -44.9 42.65 -40.55 42.65 -38.65 42.65 -36.95 41.25 -36.85 L26.65 -36.0 12.0 -36.85 Q10.65 -36.95 10.65 -38.65 10.65 -40.35 11.2 -44.9 11.45 -46.75 12.4 -50.85 L13.5 -55.25" fill="#ffffff" fill-rule="evenodd" stroke="none" class="fill" />
      <path d="M-13.55 55.25 L-13.55 55.5 Q-14.15 59.35 -12.85 62.55 -12.2 64.15 -11.4 65.0 L-11.35 65.05 Q-10.75 65.15 -10.75 65.7 L-10.8 65.7 -10.8 67.35 Q-10.8 68.0 -11.45 68.0 L-42.0 68.0 Q-42.7 68.0 -42.7 67.35 L-42.7 65.7 -42.45 65.25 -42.15 65.05 -42.05 65.0 Q-41.25 64.15 -40.55 62.55 -39.15 59.35 -39.8 55.5 L-39.85 55.25 Q-41.8 47.5 -42.1 44.95 -42.7 40.55 -42.7 38.65 -42.7 36.95 -41.3 36.85 L-26.7 36.05 -12.05 36.85 Q-10.7 36.95 -10.7 38.65 -10.7 40.3 -11.25 44.95 -11.5 46.8 -12.45 50.85 L-13.55 55.25" fill="#ffffff" fill-rule="evenodd" stroke="none" class="fill" />
      <path d="M-66.85 55.25 L-66.9 55.5 Q-67.5 59.35 -66.15 62.55 -65.5 64.15 -64.7 65.0 L-64.65 65.05 Q-64.05 65.15 -64.05 65.7 L-64.1 65.7 -64.1 67.35 -64.3 67.8 -64.8 68.0 -95.35 68.0 Q-96.0 68.0 -96.0 67.35 L-96.0 65.7 -95.8 65.25 -95.5 65.05 -95.4 65.0 Q-94.6 64.15 -93.9 62.55 -92.5 59.35 -93.15 55.5 L-93.2 55.25 Q-95.15 47.5 -95.45 44.95 L-96.0 38.65 Q-96.0 36.95 -94.65 36.85 L-80.0 36.05 -65.4 36.85 Q-64.0 36.95 -64.0 38.65 -64.0 40.55 -64.6 44.95 -64.9 47.5 -66.85 55.25" fill="#ffffff" fill-rule="evenodd" stroke="none" class="fill" />
      <path d="M39.8 55.25 L39.75 55.5 Q39.15 59.35 40.5 62.55 41.15 64.15 41.95 65.0 L42.0 65.05 Q42.6 65.15 42.6 65.7 L42.55 65.7 42.55 67.35 Q42.55 68.0 41.85 68.0 L11.35 68.0 Q10.65 68.0 10.65 67.35 L10.65 65.7 10.85 65.25 11.15 65.05 11.25 65.0 Q12.05 64.15 12.75 62.55 14.15 59.35 13.5 55.5 L13.5 55.25 12.4 50.85 Q11.45 46.8 11.2 44.95 10.65 40.3 10.65 38.65 10.65 36.95 12.0 36.85 L26.65 36.05 41.25 36.85 Q42.65 36.95 42.65 38.65 42.65 40.55 42.05 44.95 41.75 47.5 39.8 55.25" fill="#ffffff" fill-rule="evenodd" stroke="none" class="fill" />
      <path d="M66.8 -55.25 L66.85 -55.45 Q67.5 -59.3 66.1 -62.55 L64.6 -65.0 64.5 -65.0 64.2 -65.2 64.0 -65.65 64.0 -67.3 Q64.0 -68.0 64.65 -68.0 L95.2 -68.0 Q95.9 -68.0 95.9 -67.3 L95.9 -65.65 95.95 -65.65 Q95.95 -65.1 95.35 -65.0 L95.3 -65.0 93.85 -62.55 Q92.5 -59.3 93.1 -55.45 L93.15 -55.25 Q95.1 -47.55 95.4 -44.9 L96.0 -38.65 Q96.0 -36.95 94.6 -36.85 L80.0 -36.0 65.35 -36.85 Q64.0 -36.95 64.0 -38.65 64.0 -40.35 64.55 -44.9 64.9 -47.55 66.8 -55.25" fill="#ffffff" fill-rule="evenodd" stroke="none" class="fill" />
      <path d="M93.15 55.25 L93.1 55.5 Q92.5 59.35 93.85 62.55 94.5 64.15 95.3 65.0 L95.35 65.05 Q95.95 65.15 95.95 65.7 L95.9 65.7 95.9 67.35 95.7 67.8 95.2 68.0 64.65 68.0 Q64.0 68.0 64.0 67.35 L64.0 65.7 64.2 65.25 64.5 65.05 64.6 65.0 Q65.4 64.15 66.1 62.55 67.5 59.35 66.85 55.5 L66.8 55.25 Q64.85 47.5 64.55 44.95 64.0 40.3 64.0 38.65 64.0 36.95 65.35 36.85 L80.0 36.05 94.6 36.85 Q96.0 36.95 96.0 38.65 L95.4 44.95 Q95.1 47.5 93.15 55.25" fill="#ffffff" fill-rule="evenodd" stroke="none" class="fill" />
    </g>
    <g id="sprite1" transform="matrix(1.0, 0.0, 0.0, 1.0, 96.3, 68.35)">
      <use height="136.7" transform="matrix(1.0, 0.0, 0.0, 1.0, -96.3, -68.35)" width="192.65" xlink:href="#shape1" />
    </g>
    <g id="shape1" transform="matrix(1.0, 0.0, 0.0, 1.0, 96.3, 68.35)">
      <path d="M-11.1 67.35 L-11.1 65.7 -11.4 65.35 -41.9 65.35 -42.1 65.45 -42.15 65.5 -42.25 65.7 -42.3 65.85 -42.3 67.35 -41.95 67.65 -11.4 67.65 Q-11.1 67.65 -11.1 67.35 M-12.05 64.65 Q-14.25 61.55 -14.05 57.2 -14.6 57.7 -15.8 57.7 L-37.5 57.7 Q-38.6 57.7 -39.25 57.2 -39.0 61.65 -41.3 64.65 L-12.05 64.65 M-11.0 38.65 Q-11.0 37.3 -12.05 37.2 L-26.65 36.4 -41.25 37.2 Q-42.3 37.3 -42.3 38.65 -42.3 40.65 -41.7 44.9 L-40.55 50.8 -39.45 55.2 -39.45 55.4 -39.0 56.5 Q-38.55 57.0 -37.5 57.0 L-15.8 57.0 Q-14.75 57.0 -14.3 56.5 L-13.85 55.45 -13.85 55.3 -13.8 55.2 -13.8 55.15 Q-11.75 46.6 -11.55 44.9 -11.0 40.4 -11.0 38.65 M-64.4 67.35 L-64.4 65.7 -64.7 65.35 -95.25 65.35 -95.45 65.45 -95.5 65.5 -95.6 65.7 -95.6 67.35 -95.3 67.65 -64.75 67.65 Q-64.4 67.65 -64.4 67.35 M-65.4 64.65 Q-67.55 61.6 -67.4 57.2 -67.95 57.7 -69.15 57.7 L-90.8 57.7 Q-92.0 57.7 -92.55 57.2 -92.4 61.55 -94.6 64.65 L-65.4 64.65 M-64.3 38.65 Q-64.3 37.3 -65.4 37.2 L-79.95 36.4 -94.55 37.2 Q-95.6 37.3 -95.6 38.65 L-95.05 44.9 Q-94.7 47.5 -92.8 55.2 L-92.8 55.25 -92.75 55.4 -92.3 56.5 Q-91.85 57.0 -90.8 57.0 L-69.15 57.0 Q-68.0 57.0 -67.65 56.5 L-67.2 55.45 -67.15 55.3 -67.15 55.1 Q-65.4 48.6 -64.9 44.9 L-64.3 38.65 M-94.6 -64.65 Q-92.4 -61.4 -92.55 -57.15 -91.9 -57.7 -90.8 -57.7 L-69.15 -57.7 Q-68.05 -57.7 -67.35 -57.15 -67.55 -61.45 -65.4 -64.65 L-94.6 -64.65 M-95.6 -38.65 Q-95.6 -37.3 -94.55 -37.2 L-79.95 -36.35 -65.4 -37.2 Q-64.3 -37.3 -64.3 -38.65 L-64.9 -44.85 Q-65.2 -47.45 -67.15 -55.15 L-67.15 -55.25 -67.2 -55.35 Q-67.3 -56.05 -67.65 -56.45 -68.05 -57.0 -69.15 -57.0 L-90.8 -57.0 Q-91.85 -57.0 -92.3 -56.45 L-92.75 -55.4 -92.75 -55.25 -92.8 -55.2 -92.8 -55.15 Q-94.65 -48.2 -95.05 -44.85 L-95.6 -38.65 M-95.3 -67.65 L-95.6 -67.3 -95.6 -65.65 -95.5 -65.45 -95.45 -65.4 -95.25 -65.35 -64.7 -65.35 Q-64.4 -65.35 -64.4 -65.65 L-64.4 -67.3 Q-64.4 -67.65 -64.75 -67.65 L-95.3 -67.65 M-42.3 -38.65 Q-42.3 -37.3 -41.25 -37.2 L-26.65 -36.35 -12.05 -37.2 Q-11.0 -37.3 -11.0 -38.65 -11.0 -40.45 -11.55 -44.85 -11.85 -47.45 -13.8 -55.15 L-13.85 -55.25 -13.85 -55.4 -14.3 -56.45 Q-14.75 -57.0 -15.8 -57.0 L-37.5 -57.0 Q-38.55 -57.0 -39.0 -56.45 L-39.4 -55.4 -39.45 -55.25 -39.45 -55.15 Q-41.3 -48.2 -41.7 -44.85 -42.3 -40.65 -42.3 -38.65 M-41.3 -64.65 Q-39.0 -61.5 -39.25 -57.15 -38.55 -57.7 -37.5 -57.7 L-15.8 -57.7 Q-14.7 -57.7 -14.05 -57.15 -14.2 -61.45 -12.05 -64.65 L-41.3 -64.65 M-41.95 -67.65 L-42.3 -67.3 -42.3 -65.85 -42.25 -65.65 -42.15 -65.45 -42.1 -65.4 -41.9 -65.35 -11.4 -65.35 Q-11.1 -65.35 -11.1 -65.65 L-11.1 -67.3 Q-11.1 -67.65 -11.4 -67.65 L-41.95 -67.65 M95.7 35.65 L95.7 -35.65 -95.65 -35.65 -95.65 35.65 95.7 35.65 M95.6 67.35 L95.6 65.7 95.3 65.35 64.75 65.35 64.55 65.45 64.5 65.5 64.4 65.7 64.35 65.85 64.35 67.35 Q64.35 67.65 64.7 67.65 L95.25 67.65 95.6 67.35 M42.25 67.35 L42.25 65.7 41.95 65.35 11.4 65.35 11.25 65.45 11.2 65.5 11.1 65.7 11.05 65.85 11.05 67.35 11.4 67.65 41.9 67.65 Q42.25 67.65 42.25 67.35 M41.3 64.65 Q39.05 61.7 39.3 57.2 38.65 57.7 37.55 57.7 L15.85 57.7 Q14.65 57.7 14.1 57.2 14.3 61.75 12.05 64.65 L41.3 64.65 M42.35 38.65 Q42.35 37.3 41.3 37.2 L26.7 36.4 12.1 37.2 Q11.05 37.3 11.05 38.65 11.05 40.4 11.6 44.9 11.95 47.5 13.85 55.2 L13.9 55.25 13.9 55.4 Q14.05 56.05 14.35 56.5 14.8 57.0 15.85 57.0 L37.55 57.0 Q38.6 57.0 39.05 56.5 L39.45 55.45 39.5 55.3 39.5 55.2 39.55 55.15 40.6 50.65 41.75 44.9 42.35 38.65 M94.6 64.65 Q92.45 61.6 92.6 57.2 92.05 57.7 90.85 57.7 L69.2 57.7 Q68.05 57.7 67.4 57.2 67.65 61.55 65.4 64.65 L94.6 64.65 M95.7 38.65 Q95.7 37.3 94.6 37.2 L80.05 36.4 65.45 37.2 Q64.35 37.3 64.35 38.65 L64.95 44.9 Q65.3 47.7 67.2 55.2 L67.2 55.25 67.25 55.4 Q67.4 56.15 67.7 56.5 68.05 57.0 69.2 57.0 L90.85 57.0 Q92.0 57.0 92.35 56.5 L92.8 55.45 92.8 55.3 92.85 55.25 92.85 55.1 93.95 50.65 95.1 44.9 95.7 38.65 M11.05 -38.65 Q11.05 -37.3 12.1 -37.2 L26.7 -36.35 41.3 -37.2 Q42.35 -37.3 42.35 -38.65 L41.75 -44.85 Q41.45 -47.45 39.5 -55.15 L39.5 -55.4 39.05 -56.45 Q38.6 -57.0 37.55 -57.0 L15.85 -57.0 Q14.8 -57.0 14.35 -56.45 L13.9 -55.4 13.9 -55.25 13.85 -55.2 13.85 -55.15 12.8 -50.7 11.6 -44.85 Q11.05 -40.45 11.05 -38.65 M12.05 -64.65 Q14.25 -61.6 14.1 -57.15 14.75 -57.7 15.85 -57.7 L37.55 -57.7 Q38.6 -57.7 39.3 -57.15 39.05 -61.6 41.3 -64.65 L12.05 -64.65 M64.35 -38.65 Q64.35 -37.3 65.45 -37.2 L80.05 -36.35 94.6 -37.2 Q95.7 -37.3 95.7 -38.65 L95.1 -44.85 Q94.8 -47.45 92.85 -55.15 L92.85 -55.25 92.8 -55.35 92.35 -56.45 Q91.95 -57.0 90.85 -57.0 L69.2 -57.0 Q68.1 -57.0 67.7 -56.45 L67.25 -55.4 67.25 -55.25 67.2 -55.2 67.2 -55.15 Q65.35 -48.2 64.95 -44.85 L64.35 -38.65 M65.4 -64.65 Q67.6 -61.4 67.45 -57.15 68.1 -57.7 69.2 -57.7 L90.85 -57.7 Q91.95 -57.7 92.6 -57.15 92.45 -61.45 94.6 -64.65 L65.4 -64.65 M11.4 -67.65 Q11.05 -67.65 11.05 -67.3 L11.05 -65.85 11.1 -65.65 11.2 -65.45 11.25 -65.4 11.4 -65.35 41.95 -65.35 42.25 -65.65 42.25 -67.3 41.9 -67.65 11.4 -67.65 M64.7 -67.65 Q64.35 -67.65 64.35 -67.3 L64.35 -65.85 64.4 -65.65 64.5 -65.45 64.55 -65.4 64.75 -65.35 95.25 -65.35 Q95.6 -65.35 95.6 -65.65 L95.6 -67.3 95.25 -67.65 64.7 -67.65 M96.05 -36.35 L96.35 -36.0 96.35 36.0 96.05 36.35 92.4 36.35 94.65 36.5 Q96.35 36.65 96.35 38.65 L95.8 45.0 Q95.45 47.85 93.55 55.35 L93.5 55.6 Q92.95 59.05 94.0 62.0 94.7 63.85 95.55 64.7 96.35 64.9 96.35 65.7 L96.3 65.85 96.3 67.35 96.0 68.05 95.25 68.35 64.7 68.35 Q64.3 68.35 64.0 68.05 63.7 67.75 63.7 67.35 L63.7 65.7 Q63.7 65.25 64.0 65.0 L64.15 64.9 64.25 64.8 64.4 64.75 64.45 64.7 Q65.35 63.7 66.0 62.0 67.1 59.0 66.55 55.55 L66.5 55.35 Q64.65 47.9 64.25 45.0 63.7 40.5 63.7 38.65 63.7 36.65 65.35 36.5 L67.65 36.35 39.05 36.35 41.35 36.5 Q43.05 36.65 43.05 38.65 43.05 40.75 42.45 45.0 42.1 47.85 40.2 55.35 L40.15 55.6 Q39.6 59.05 40.7 62.0 41.35 63.7 42.2 64.7 43.0 64.9 43.0 65.7 L42.95 65.85 42.95 67.35 42.65 68.05 41.9 68.35 11.4 68.35 Q10.95 68.35 10.65 68.05 10.35 67.75 10.35 67.35 L10.35 65.7 Q10.35 65.3 10.65 65.0 L10.8 64.9 10.9 64.8 11.1 64.75 11.1 64.7 12.65 62.0 Q13.8 59.0 13.25 55.55 L13.2 55.35 Q11.25 47.6 10.9 45.0 10.35 40.5 10.35 38.65 10.35 36.65 12.05 36.5 L14.35 36.35 -14.3 36.35 -12.0 36.5 Q-10.3 36.65 -10.3 38.65 -10.3 40.5 -10.85 45.0 -11.1 46.85 -12.05 50.9 L-13.15 55.35 -13.2 55.6 Q-13.75 59.05 -12.65 62.0 -12.0 63.75 -11.15 64.7 -10.35 64.9 -10.35 65.7 L-10.4 65.85 -10.4 67.35 Q-10.4 67.75 -10.7 68.05 -11.0 68.35 -11.4 68.35 L-41.95 68.35 -42.7 68.05 -43.0 67.35 -43.0 65.7 Q-43.0 65.25 -42.65 65.0 L-42.5 64.9 -42.45 64.8 -42.25 64.75 -42.2 64.7 Q-41.3 63.7 -40.65 62.0 -39.55 59.0 -40.1 55.55 L-40.15 55.35 Q-42.0 48.5 -42.4 45.0 -43.0 40.75 -43.0 38.65 -43.0 36.65 -41.3 36.5 L-39.0 36.35 -67.6 36.35 -65.3 36.5 Q-63.6 36.65 -63.6 38.65 L-64.2 45.0 Q-64.55 47.85 -66.45 55.35 L-66.5 55.6 Q-67.05 59.05 -66.0 62.0 -65.3 63.85 -64.45 64.7 -63.65 64.9 -63.65 65.7 L-63.7 65.85 -63.7 67.35 Q-63.7 67.75 -64.0 68.05 -64.35 68.35 -64.75 68.35 L-95.3 68.35 -96.0 68.05 -96.3 67.35 -96.3 65.7 -96.0 65.0 -95.85 64.9 -95.75 64.8 -95.6 64.75 -95.55 64.7 Q-94.65 63.7 -94.0 62.0 -92.9 59.0 -93.45 55.55 L-93.5 55.35 Q-95.3 48.1 -95.75 45.0 L-96.3 38.65 Q-96.3 36.65 -94.6 36.5 L-92.35 36.35 -95.95 36.35 -96.3 36.0 -96.3 -36.0 -95.95 -36.35 -92.3 -36.35 -94.6 -36.5 Q-96.3 -36.65 -96.3 -38.65 L-95.75 -44.95 -94.55 -50.9 -93.5 -55.3 -93.45 -55.55 Q-92.55 -60.95 -95.55 -64.7 L-95.6 -64.7 -95.75 -64.8 -95.85 -64.85 -96.0 -64.95 -96.3 -65.65 -96.3 -67.3 -96.0 -68.05 -95.3 -68.35 -64.75 -68.35 -64.0 -68.05 Q-63.7 -67.7 -63.7 -67.3 L-63.7 -65.85 -63.65 -65.65 Q-63.65 -64.9 -64.45 -64.7 -65.35 -63.7 -66.0 -61.95 -67.05 -58.95 -66.5 -55.5 L-66.45 -55.3 -65.4 -50.95 -64.2 -44.95 -63.6 -38.65 Q-63.6 -36.65 -65.3 -36.5 L-67.65 -36.35 -38.95 -36.35 -41.3 -36.5 Q-43.0 -36.65 -43.0 -38.65 -43.0 -40.65 -42.4 -44.95 -42.1 -47.55 -40.15 -55.3 L-40.1 -55.55 Q-39.2 -60.95 -42.2 -64.7 L-42.25 -64.7 -42.45 -64.8 -42.65 -65.0 Q-43.0 -65.25 -43.0 -65.65 L-43.0 -67.3 -42.7 -68.05 -41.95 -68.35 -11.4 -68.35 Q-11.0 -68.35 -10.7 -68.05 -10.4 -67.7 -10.4 -67.3 L-10.4 -65.85 -10.35 -65.65 Q-10.35 -64.9 -11.15 -64.7 L-12.65 -61.95 Q-13.7 -59.0 -13.15 -55.55 L-13.15 -55.3 Q-11.2 -47.5 -10.85 -44.95 -10.3 -40.45 -10.3 -38.65 -10.3 -36.65 -12.0 -36.5 L-14.3 -36.35 14.35 -36.35 12.05 -36.5 Q10.35 -36.65 10.35 -38.65 10.35 -40.45 10.9 -44.95 11.15 -46.85 12.1 -50.9 L13.2 -55.3 13.25 -55.55 Q14.1 -60.95 11.1 -64.7 L10.8 -64.85 10.65 -64.95 Q10.35 -65.35 10.35 -65.65 L10.35 -67.3 10.65 -68.05 11.4 -68.35 41.9 -68.35 42.65 -68.05 42.95 -67.3 42.95 -65.85 43.0 -65.65 Q43.0 -64.9 42.2 -64.7 41.3 -63.55 40.7 -61.95 39.6 -59.0 40.15 -55.55 L40.2 -55.3 Q42.15 -47.55 42.45 -44.95 43.05 -40.65 43.05 -38.65 43.05 -36.65 41.35 -36.5 L39.0 -36.35 67.7 -36.35 65.35 -36.5 Q63.7 -36.65 63.7 -38.65 63.7 -40.45 64.25 -44.95 64.55 -47.55 66.5 -55.3 L66.55 -55.55 Q67.45 -60.95 64.45 -64.7 L64.4 -64.7 64.25 -64.8 64.15 -64.85 64.0 -65.0 Q63.7 -65.2 63.7 -65.65 L63.7 -67.3 Q63.7 -67.7 64.0 -68.05 64.3 -68.35 64.7 -68.35 L95.25 -68.35 96.0 -68.05 96.3 -67.3 96.3 -65.85 96.35 -65.65 Q96.35 -64.9 95.55 -64.7 94.65 -63.7 94.0 -61.95 92.95 -58.95 93.5 -55.5 L93.55 -55.3 94.6 -50.95 95.8 -44.95 96.35 -38.65 Q96.35 -36.65 94.65 -36.5 L92.35 -36.35 96.05 -36.35" fill="#000000" fill-rule="evenodd" stroke="none" class="line" />
    </g>
  </defs>
  <g transform="matrix(1.0, 0.0, 0.0, 1.0, 0.0, 0.0)">
    <use height="136.0" id="Fill" transform="matrix(0.5208, 0.0, 0.0, 0.7353, 0.0005, 0.0002)" width="192.0" xlink:href="#sprite0" />
    <use height="136.7" id="Line" transform="matrix(0.5191, 0.0, 0.0, 0.7315, 0.0132, 0.0005)" width="192.65" xlink:href="#sprite1" />
  </g>
</svg>