<?xml version="1.0" encoding="UTF-8" standalone="no"?>
<svg xmlns:xlink="http://www.w3.org/1999/xlink" height="100%" width="100%" xmlns="http://www.w3.org/2000/svg" preserveAspectRatio="none" viewBox="0 0 100 100">
  <defs>
    <g id="sprite0" transform="matrix(1.0, 0.0, 0.0, 1.0, 84.9, 38.9)">
      <use height="77.8" transform="matrix(1.0, 0.0, 0.0, 1.0, -84.9, -38.9)" width="169.8" xlink:href="#shape0" />
    </g>
    <g id="shape0" transform="matrix(1.0, 0.0, 0.0, 1.0, 84.9, 38.9)">
      <path d="M84.9 -3.6 L42.4 38.9 Q24.8 21.3 0.0 21.1 -24.8 21.3 -42.4 38.9 L-84.9 -3.6 Q-49.7 -38.8 0.0 -38.9 49.7 -38.8 84.9 -3.6" fill="#ffffff" fill-rule="evenodd" stroke="none" class="fill" />
    </g>
    <g id="sprite1" transform="matrix(1.0, 0.0, 0.0, 1.0, 85.4, 39.4)">
      <use height="78.8" transform="matrix(1.0, 0.0, 0.0, 1.0, -85.4, -39.4)" width="170.8" xlink:href="#shape1" />
    </g>
    <g id="shape1" transform="matrix(1.0, 0.0, 0.0, 1.0, 85.4, 39.4)">
      <path d="M84.2 -3.6 Q49.25 -38.3 0.0 -38.4 -49.25 -38.3 -84.2 -3.6 L-42.4 38.2 Q-24.75 20.8 0.0 20.6 24.75 20.8 42.4 38.2 L84.2 -3.6 M85.25 -3.95 L85.4 -3.6 85.25 -3.25 42.75 39.25 42.4 39.4 42.05 39.25 Q24.6 21.8 0.0 21.6 -24.6 21.8 -42.05 39.25 L-42.4 39.4 -42.75 39.25 -85.25 -3.25 -85.4 -3.6 -85.25 -3.95 Q-49.9 -39.3 0.0 -39.4 49.9 -39.3 85.25 -3.95" fill="#000000" fill-rule="evenodd" stroke="none" class="line" />
    </g>
  </defs>
  <g transform="matrix(1.0, 0.0, 0.0, 1.0, 0.0, 0.0)">
    <use height="77.8" id="fill" transform="matrix(0.5855, 0.0, 0.0, 1.269, 0.2928, 0.6342)" width="169.8" xlink:href="#sprite0" />
    <use height="78.8" id="line" transform="matrix(0.5855, 0.0, 0.0, 1.269, 0.0, -0.0003)" width="170.8" xlink:href="#sprite1" />
  </g>
</svg>