<?xml version="1.0" encoding="UTF-8" standalone="no"?>
<svg xmlns:xlink="http://www.w3.org/1999/xlink" height="100%" width="100%" xmlns="http://www.w3.org/2000/svg" preserveAspectRatio="none" viewBox="0 0 100 100">
  <defs>
    <g id="sprite0" transform="matrix(1.0, 0.0, 0.0, 1.0, 138.35, 20.1)">
      <use height="40.2" transform="matrix(1.0, 0.0, 0.0, 1.0, -138.35, -20.1)" width="276.7" xlink:href="#shape0" />
    </g>
    <g id="shape0" transform="matrix(1.0, 0.0, 0.0, 1.0, 138.35, 20.1)">
      <path d="M4.55 -16.8 L4.5 -17.0 4.45 -17.3 4.45 -19.1 Q4.45 -20.1 5.45 -20.1 L42.1 -20.1 Q43.1 -20.1 43.1 -19.1 L43.1 -17.3 43.05 -17.0 43.0 -16.8 42.65 -16.4 Q38.8 -12.0 39.65 -4.7 L40.0 -3.5 Q42.8 6.95 43.25 17.0 43.35 19.0 41.35 19.0 L23.5 20.1 6.2 19.0 Q4.2 19.0 4.3 17.0 4.75 6.5 7.85 -4.45 L7.9 -4.7 Q8.75 -12.0 4.9 -16.4 L4.55 -16.8 M99.55 -19.1 Q99.55 -20.1 100.55 -20.1 L137.2 -20.1 Q138.2 -20.1 138.2 -19.1 L138.2 -17.3 138.15 -17.0 138.1 -16.8 137.75 -16.4 Q133.9 -12.0 134.75 -4.7 L135.85 -0.65 Q138.0 8.35 138.35 17.0 138.45 19.0 136.45 19.0 L118.6 20.1 101.3 19.0 Q99.3 19.0 99.4 17.0 99.8 7.85 102.2 -1.65 L103.0 -4.7 Q103.85 -12.0 100.0 -16.4 99.75 -16.55 99.65 -16.8 L99.6 -17.0 99.55 -17.3 99.55 -19.1 M52.0 -19.1 Q52.0 -20.1 53.0 -20.1 L89.65 -20.1 Q90.65 -20.1 90.65 -19.1 L90.65 -17.3 90.6 -17.0 90.55 -16.8 90.2 -16.4 Q86.35 -12.0 87.2 -4.7 L87.9 -2.05 Q90.4 7.65 90.8 17.0 90.9 19.0 88.9 19.0 L71.05 20.1 53.75 19.0 Q51.75 19.0 51.85 17.0 52.25 7.2 55.0 -3.05 L55.45 -4.7 Q56.3 -12.0 52.45 -16.4 52.2 -16.55 52.1 -16.8 L52.05 -17.0 52.0 -17.3 52.0 -19.1 M-137.75 -16.4 L-138.1 -16.8 -138.15 -17.0 -138.2 -17.3 -138.2 -19.1 Q-138.2 -20.1 -137.2 -20.1 L-100.55 -20.1 Q-99.55 -20.1 -99.55 -19.1 L-99.55 -17.3 -99.6 -17.0 -99.65 -16.8 Q-99.75 -16.55 -100.0 -16.4 -103.85 -12.0 -103.0 -4.7 -99.85 6.4 -99.4 17.0 -99.3 19.0 -101.3 19.0 L-119.15 20.1 -136.45 19.0 Q-138.45 19.0 -138.35 17.0 -137.9 6.4 -134.75 -4.7 -133.9 -12.0 -137.75 -16.4 M-43.1 -19.1 Q-43.1 -20.1 -42.1 -20.1 L-5.45 -20.1 Q-4.45 -20.1 -4.45 -19.1 L-4.45 -17.3 -4.5 -17.0 -4.55 -16.8 -4.9 -16.4 Q-8.7 -12.05 -7.9 -4.95 L-7.9 -4.7 Q-4.75 6.4 -4.3 17.0 -4.2 19.0 -6.2 19.0 L-24.05 20.1 -41.35 19.0 Q-43.35 19.0 -43.25 17.0 -42.8 6.4 -39.65 -4.7 L-39.55 -5.85 Q-39.1 -12.35 -42.65 -16.4 L-43.0 -16.8 -43.05 -17.0 -43.1 -17.3 -43.1 -19.1 M-90.65 -19.1 Q-90.65 -20.1 -89.65 -20.1 L-53.0 -20.1 Q-52.0 -20.1 -52.0 -19.1 L-52.0 -17.3 -52.05 -17.0 -52.1 -16.8 Q-52.2 -16.55 -52.45 -16.4 -55.85 -12.5 -55.55 -6.35 L-55.45 -4.7 Q-52.3 6.4 -51.85 17.0 -51.75 19.0 -53.75 19.0 L-71.6 20.1 -88.9 19.0 Q-90.9 19.0 -90.8 17.0 -90.35 6.4 -87.2 -4.7 L-87.05 -7.3 Q-87.05 -12.8 -90.2 -16.4 L-90.55 -16.8 -90.6 -17.0 -90.65 -17.3 -90.65 -19.1" fill="#ffffff" fill-rule="evenodd" stroke="none" class="fill" />
    </g>
    <g id="sprite1" transform="matrix(1.0, 0.0, 0.0, 1.0, 138.85, 20.6)">
      <use height="41.2" transform="matrix(1.0, 0.0, 0.0, 1.0, -138.85, -20.6)" width="277.7" xlink:href="#shape1" />
    </g>
    <g id="shape1" transform="matrix(1.0, 0.0, 0.0, 1.0, 138.85, 20.6)">
      <path d="M-37.35 -6.2 Q-38.9 -6.2 -39.15 -4.65 L-39.15 -4.6 -39.2 -4.45 Q-42.3 6.55 -42.75 17.05 -42.8 17.75 -42.45 18.15 -42.1 18.5 -41.35 18.5 L-41.3 18.5 -24.05 19.6 -6.25 18.5 -6.2 18.5 Q-5.45 18.5 -5.05 18.15 -4.75 17.75 -4.8 17.05 -5.25 6.55 -8.35 -4.45 L-8.4 -4.6 -8.4 -4.65 Q-8.65 -6.2 -10.2 -6.2 L-37.35 -6.2 M-39.0 -6.8 L-37.35 -7.2 -10.2 -7.2 -8.55 -6.8 Q-8.65 -12.15 -6.0 -15.8 L-41.5 -15.8 Q-38.9 -12.15 -39.0 -6.8 M-43.6 -19.1 Q-43.6 -20.6 -42.1 -20.6 L-5.45 -20.6 Q-3.95 -20.6 -3.95 -19.1 L-3.95 -17.3 -4.0 -16.9 -4.05 -16.6 -4.1 -16.55 -4.55 -16.0 Q-8.2 -11.75 -7.4 -4.75 -4.25 6.35 -3.8 17.0 -3.75 18.25 -4.35 18.85 -4.95 19.5 -6.15 19.5 L-24.05 20.6 -41.4 19.5 Q-42.6 19.5 -43.15 18.85 -43.8 18.25 -43.75 17.0 -43.3 6.35 -40.15 -4.75 -39.35 -11.75 -42.95 -16.0 L-43.45 -16.55 -43.45 -16.6 -43.55 -16.9 -43.6 -17.3 -43.6 -19.1 M-42.1 -19.6 Q-42.6 -19.6 -42.6 -19.1 L-42.6 -17.3 -42.55 -17.15 -42.55 -17.0 -42.5 -16.95 -42.45 -16.85 -42.1 -16.8 -5.45 -16.8 -5.1 -16.85 -5.0 -16.95 -5.0 -17.0 -4.95 -17.15 -4.95 -17.3 -4.95 -19.1 Q-4.95 -19.6 -5.45 -19.6 L-42.1 -19.6 M-86.55 -6.8 L-84.9 -7.2 -57.75 -7.2 Q-56.75 -7.2 -56.1 -6.8 -56.2 -12.15 -53.55 -15.8 L-89.05 -15.8 Q-86.45 -12.15 -86.55 -6.8 M-84.9 -6.2 Q-86.45 -6.2 -86.7 -4.65 L-86.7 -4.6 -86.75 -4.45 Q-89.85 6.55 -90.3 17.05 -90.35 17.75 -90.0 18.15 L-88.9 18.5 -88.85 18.5 -71.6 19.6 -53.8 18.5 -53.75 18.5 Q-53.0 18.5 -52.6 18.15 -52.3 17.75 -52.35 17.05 -52.8 6.55 -55.9 -4.45 L-55.95 -4.6 -55.95 -4.65 Q-56.2 -6.2 -57.75 -6.2 L-84.9 -6.2 M-90.5 -16.0 L-91.0 -16.55 -91.0 -16.6 -91.1 -16.9 -91.15 -17.3 -91.15 -19.1 Q-91.15 -20.6 -89.65 -20.6 L-53.0 -20.6 Q-51.5 -20.6 -51.5 -19.1 L-51.5 -17.3 -51.55 -16.9 -51.6 -16.6 -51.65 -16.55 Q-51.8 -16.25 -52.1 -16.0 -55.75 -11.75 -54.95 -4.75 L-54.95 -4.7 Q-51.8 6.35 -51.35 17.0 -51.3 18.25 -51.9 18.85 -52.5 19.5 -53.7 19.5 L-71.6 20.6 -88.95 19.5 Q-90.15 19.5 -90.7 18.85 -91.35 18.25 -91.3 17.0 -90.85 6.35 -87.7 -4.75 -86.9 -11.75 -90.5 -16.0 M-89.65 -19.6 Q-90.15 -19.6 -90.15 -19.1 L-90.15 -17.3 -90.1 -17.15 -90.1 -17.0 -90.05 -16.95 -90.0 -16.85 -89.65 -16.8 -53.0 -16.8 -52.65 -16.85 -52.55 -16.95 -52.55 -17.0 -52.5 -17.15 -52.5 -17.3 -52.5 -19.1 Q-52.5 -19.6 -53.0 -19.6 L-89.65 -19.6 M-134.1 -6.8 Q-133.45 -7.2 -132.45 -7.2 L-105.3 -7.2 Q-104.3 -7.2 -103.65 -6.8 -103.75 -12.15 -101.1 -15.8 L-136.6 -15.8 Q-134.0 -12.15 -134.1 -6.8 M-132.45 -6.2 Q-134.0 -6.2 -134.25 -4.65 L-134.25 -4.6 -134.3 -4.45 Q-137.05 5.3 -137.7 14.7 L-137.75 15.35 -137.85 17.1 Q-137.9 17.75 -137.55 18.15 -137.2 18.5 -136.45 18.5 L-136.4 18.5 -134.15 18.75 -119.15 19.6 -101.35 18.5 -101.3 18.5 Q-100.55 18.5 -100.15 18.15 -99.85 17.75 -99.9 17.05 -100.35 6.55 -103.45 -4.45 L-103.5 -4.6 -103.5 -4.65 Q-103.75 -6.2 -105.3 -6.2 L-132.45 -6.2 M-138.7 -19.1 Q-138.7 -20.6 -137.2 -20.6 L-100.55 -20.6 Q-99.05 -20.6 -99.05 -19.1 L-99.05 -17.3 -99.1 -16.9 -99.15 -16.6 -99.2 -16.55 -99.65 -16.0 Q-103.3 -11.75 -102.5 -4.75 L-102.5 -4.7 Q-99.35 6.35 -98.9 17.0 -98.85 18.25 -99.45 18.85 -100.05 19.5 -101.25 19.5 L-119.15 20.6 -134.15 19.8 -136.5 19.5 -137.65 19.3 -137.8 19.2 -138.25 18.85 -138.65 18.3 -138.85 17.0 -138.7 14.7 Q-138.05 5.15 -135.25 -4.75 -134.45 -11.75 -138.05 -16.0 L-138.55 -16.55 -138.55 -16.6 -138.65 -16.9 -138.7 -17.3 -138.7 -19.1 M-137.2 -19.6 Q-137.7 -19.6 -137.7 -19.1 L-137.7 -17.3 -137.65 -17.15 -137.65 -17.0 -137.6 -16.95 -137.55 -16.85 -137.2 -16.8 -100.55 -16.8 -100.2 -16.85 -100.1 -16.95 -100.1 -17.0 -100.05 -17.15 -100.05 -17.3 -100.05 -19.1 Q-100.05 -19.6 -100.55 -19.6 L-137.2 -19.6 M105.3 -6.2 Q103.75 -6.2 103.5 -4.65 L103.5 -4.6 103.45 -4.45 Q100.35 6.55 99.9 17.05 99.85 17.75 100.2 18.15 100.55 18.5 101.3 18.5 L101.35 18.5 118.6 19.6 136.4 18.5 136.45 18.5 Q137.2 18.5 137.6 18.15 137.9 17.75 137.85 17.05 137.4 6.55 134.3 -4.45 L134.25 -4.6 134.25 -4.65 Q134.0 -6.2 132.45 -6.2 L105.3 -6.2 M103.65 -6.8 Q104.3 -7.2 105.3 -7.2 L132.45 -7.2 Q133.45 -7.2 134.1 -6.8 134.0 -12.15 136.65 -15.8 L101.15 -15.8 Q103.75 -12.15 103.65 -6.8 M99.05 -19.1 Q99.05 -20.6 100.55 -20.6 L137.2 -20.6 Q138.7 -20.6 138.7 -19.1 L138.7 -17.3 138.65 -16.9 138.6 -16.6 138.55 -16.55 138.1 -16.0 Q134.45 -11.75 135.25 -4.75 L135.25 -4.7 Q138.4 6.35 138.85 17.0 138.9 18.25 138.3 18.85 137.7 19.5 136.5 19.5 L118.6 20.6 101.25 19.5 Q100.05 19.5 99.5 18.85 98.85 18.25 98.9 17.0 99.35 6.35 102.5 -4.75 103.3 -11.75 99.7 -16.0 L99.2 -16.55 99.2 -16.6 99.1 -16.9 99.05 -17.3 99.05 -19.1 M100.55 -19.6 Q100.05 -19.6 100.05 -19.1 L100.05 -17.3 100.1 -17.15 100.1 -17.0 100.15 -16.95 100.2 -16.85 100.55 -16.8 137.2 -16.8 137.55 -16.85 137.65 -16.95 137.65 -17.0 137.7 -17.15 137.7 -17.3 137.7 -19.1 Q137.7 -19.6 137.2 -19.6 L100.55 -19.6 M55.95 -4.65 L55.95 -4.6 55.9 -4.45 Q52.8 6.55 52.35 17.05 52.3 17.75 52.65 18.15 53.0 18.5 53.75 18.5 L53.8 18.5 71.05 19.6 88.85 18.5 88.9 18.5 Q89.65 18.5 90.05 18.15 90.35 17.75 90.3 17.05 89.85 6.55 86.75 -4.45 L86.7 -4.6 86.7 -4.65 Q86.45 -6.2 84.9 -6.2 L57.75 -6.2 Q56.2 -6.2 55.95 -4.65 M56.1 -6.8 Q56.75 -7.2 57.75 -7.2 L84.9 -7.2 86.55 -6.8 Q86.45 -12.15 89.1 -15.8 L53.6 -15.8 Q56.2 -12.15 56.1 -6.8 M51.5 -19.1 Q51.5 -20.6 53.0 -20.6 L89.65 -20.6 Q91.15 -20.6 91.15 -19.1 L91.15 -17.3 91.1 -16.9 91.05 -16.6 91.0 -16.55 90.55 -16.0 Q86.9 -11.75 87.7 -4.75 L87.7 -4.7 Q90.85 6.35 91.3 17.0 91.35 18.25 90.75 18.85 90.15 19.5 88.95 19.5 L71.05 20.6 53.7 19.5 Q52.5 19.5 51.95 18.85 51.3 18.25 51.35 17.0 51.8 6.35 54.95 -4.75 55.75 -11.75 52.15 -16.0 L51.65 -16.55 51.65 -16.6 51.55 -16.9 51.5 -17.3 51.5 -19.1 M53.0 -19.6 Q52.5 -19.6 52.5 -19.1 L52.5 -17.3 52.55 -17.15 52.55 -17.0 52.6 -16.95 52.65 -16.85 53.0 -16.8 89.65 -16.8 90.0 -16.85 90.1 -16.95 90.1 -17.0 90.15 -17.15 90.15 -17.3 90.15 -19.1 Q90.15 -19.6 89.65 -19.6 L53.0 -19.6 M6.05 -15.8 Q8.65 -12.15 8.55 -6.8 L10.2 -7.2 37.35 -7.2 39.0 -6.8 Q38.9 -12.15 41.55 -15.8 L6.05 -15.8 M8.4 -4.65 L8.4 -4.6 8.35 -4.45 Q5.25 6.55 4.8 17.05 4.75 17.75 5.1 18.15 5.45 18.5 6.2 18.5 L6.25 18.5 23.5 19.6 40.1 18.65 41.3 18.5 41.35 18.5 42.1 18.4 42.5 18.15 Q42.8 17.8 42.75 17.05 L42.6 14.55 Q41.95 5.25 39.2 -4.45 L39.15 -4.6 39.15 -4.65 Q38.9 -6.2 37.35 -6.2 L10.2 -6.2 Q8.65 -6.2 8.4 -4.65 M4.95 -17.3 L5.0 -17.15 5.0 -17.0 5.05 -16.95 5.1 -16.85 5.45 -16.8 42.1 -16.8 42.45 -16.85 42.55 -16.95 42.55 -17.0 42.6 -17.15 42.6 -17.3 42.6 -19.1 Q42.6 -19.6 42.1 -19.6 L5.45 -19.6 Q4.95 -19.6 4.95 -19.1 L4.95 -17.3 M4.0 -16.9 L3.95 -17.3 3.95 -19.1 Q3.95 -20.6 5.45 -20.6 L42.1 -20.6 Q43.6 -20.6 43.6 -19.1 L43.6 -17.3 43.55 -16.9 43.5 -16.6 43.45 -16.55 43.0 -16.0 Q39.35 -11.75 40.15 -4.75 L40.15 -4.7 Q42.8 4.65 43.55 13.7 L43.75 17.0 Q43.8 18.1 43.35 18.7 L43.2 18.85 Q42.6 19.5 41.4 19.5 L40.6 19.6 23.5 20.6 6.15 19.5 Q4.95 19.5 4.4 18.85 3.75 18.25 3.8 17.0 4.25 6.35 7.4 -4.75 8.2 -11.75 4.6 -16.0 L4.1 -16.55 4.1 -16.6 4.0 -16.9" fill="#000000" fill-rule="evenodd" stroke="none" class="line" />
    </g>
  </defs>
  <g transform="matrix(1.0, 0.0, 0.0, 1.0, 0.0, 0.0)">
    <use height="40.2" id="fill" transform="matrix(0.36, 0.0, 0.0, 2.4272, 0.196, 1.2136)" width="276.7" xlink:href="#sprite0" />
    <use height="41.2" id="line" transform="matrix(0.36, 0.0, 0.0, 2.4272, 0.016, 0.0)" width="277.7" xlink:href="#sprite1" />
  </g>
</svg>