<?xml version="1.0" encoding="UTF-8" standalone="no"?>
<svg xmlns:xlink="http://www.w3.org/1999/xlink" height="100%" width="100%" xmlns="http://www.w3.org/2000/svg" preserveAspectRatio="none" viewBox="0 0 100 100">
  <defs>
    <g id="sprite0" transform="matrix(1.0, 0.0, 0.0, 1.0, 19.45, 19.5)">
      <use height="40.2" transform="matrix(1.0, 0.0, 0.0, 1.0, -19.45, -19.5)" width="38.95" xlink:href="#shape0" />
    </g>
    <g id="shape0" transform="matrix(1.0, 0.0, 0.0, 1.0, 19.45, 19.5)">
      <path d="M19.35 -18.5 L19.35 -16.7 19.3 -16.4 19.25 -16.2 18.9 -15.8 Q15.05 -11.4 15.9 -4.1 19.05 7.0 19.5 17.6 19.6 19.6 17.6 19.6 L-0.25 20.7 -17.55 19.6 Q-19.55 19.6 -19.45 17.6 -19.0 7.0 -15.85 -4.1 -15.0 -11.4 -18.85 -15.8 L-19.2 -16.2 -19.25 -16.4 -19.3 -16.7 -19.3 -18.5 Q-19.3 -19.5 -18.3 -19.5 L18.35 -19.5 Q19.35 -19.5 19.35 -18.5" fill="#ffffff" fill-rule="evenodd" stroke="none" class="fill" />
    </g>
    <g id="sprite1" transform="matrix(1.0, 0.0, 0.0, 1.0, 19.95, 20.0)">
      <use height="41.2" transform="matrix(1.0, 0.0, 0.0, 1.0, -19.95, -20.0)" width="39.95" xlink:href="#shape1" />
    </g>
    <g id="shape1" transform="matrix(1.0, 0.0, 0.0, 1.0, 19.95, 20.0)">
      <path d="M15.45 -3.85 L15.4 -4.0 15.4 -4.05 Q15.15 -5.6 13.6 -5.6 L-13.55 -5.6 Q-15.1 -5.6 -15.35 -4.05 L-15.35 -4.0 -15.4 -3.85 Q-18.5 7.1 -18.95 17.65 -19.0 18.35 -18.65 18.75 -18.3 19.1 -17.55 19.1 L-17.5 19.1 -0.25 20.2 17.55 19.1 17.6 19.1 Q18.35 19.1 18.75 18.75 19.05 18.35 19.0 17.65 18.55 7.1 15.45 -3.85 M13.6 -6.6 Q14.6 -6.6 15.25 -6.2 15.1 -11.55 17.8 -15.2 L-17.7 -15.2 Q-15.05 -11.55 -15.2 -6.2 -14.55 -6.6 -13.55 -6.6 L13.6 -6.6 M19.75 -16.0 L19.7 -15.95 19.25 -15.4 Q15.6 -11.15 16.4 -4.15 L16.4 -4.1 Q19.55 6.95 20.0 17.6 20.05 18.85 19.45 19.45 18.85 20.1 17.65 20.1 L-0.25 21.2 -17.6 20.1 Q-18.8 20.1 -19.35 19.45 -20.0 18.85 -19.95 17.6 -19.5 6.95 -16.35 -4.15 -15.55 -11.15 -19.15 -15.4 L-19.65 -15.95 -19.65 -16.0 -19.75 -16.3 -19.8 -16.7 -19.8 -18.5 Q-19.8 -20.0 -18.3 -20.0 L18.35 -20.0 Q19.85 -20.0 19.85 -18.5 L19.85 -16.7 19.8 -16.3 19.75 -16.0 M18.35 -16.2 L18.7 -16.25 18.8 -16.35 18.8 -16.4 18.85 -16.55 18.85 -16.7 18.85 -18.5 Q18.85 -19.0 18.35 -19.0 L-18.3 -19.0 Q-18.8 -19.0 -18.8 -18.5 L-18.8 -16.7 -18.75 -16.55 -18.75 -16.4 -18.7 -16.35 -18.65 -16.25 -18.3 -16.2 18.35 -16.2" fill="#000000" fill-rule="evenodd" stroke="none" class="line" />
    </g>
  </defs>
  <g transform="matrix(1.0, 0.0, 0.0, 1.0, 0.0, 0.0)">
    <use height="40.2" id="fill" transform="matrix(2.5019, 0.0, 0.0, 2.4272, 1.2885, 1.2199)" width="38.95" xlink:href="#sprite0" />
    <use height="41.2" id="line" transform="matrix(2.5019, 0.0, 0.0, 2.4272, 0.0376, 0.0063)" width="39.95" xlink:href="#sprite1" />
  </g>
</svg>