<?xml version="1.0" encoding="UTF-8" standalone="no"?>
<svg xmlns:xlink="http://www.w3.org/1999/xlink" height="100%" width="100%" xmlns="http://www.w3.org/2000/svg" preserveAspectRatio="none" viewBox="0 0 100 100">
  <defs>
    <g id="sprite0" transform="matrix(1.0, 0.0, 0.0, 1.0, 36.1, 17.8)">
      <use height="35.6" transform="matrix(1.0, 0.0, 0.0, 1.0, -36.1, -17.8)" width="72.2" xlink:href="#shape0" />
    </g>
    <g id="shape0" transform="matrix(1.0, 0.0, 0.0, 1.0, 36.1, 17.8)">
      <path d="M0.0 -17.8 Q20.0 -17.8 36.1 -8.3 L21.0 17.8 Q11.7 12.2 0.0 12.2 -11.7 12.2 -21.1 17.8 L-36.1 -8.3 Q-20.0 -17.8 0.0 -17.8" fill="#ffffff" fill-rule="evenodd" stroke="none" class="fill" />
    </g>
    <g id="sprite1" transform="matrix(1.0, 0.0, 0.0, 1.0, 36.6, 18.3)">
      <use height="36.6" transform="matrix(1.0, 0.0, 0.0, 1.0, -36.6, -18.3)" width="73.2" xlink:href="#shape1" />
    </g>
    <g id="shape1" transform="matrix(1.0, 0.0, 0.0, 1.0, 36.6, 18.3)">
      <path d="M35.45 -8.1 Q19.6 -17.3 0.0 -17.3 -19.6 -17.3 -35.4 -8.1 L-20.9 17.15 Q-11.55 11.7 0.0 11.7 11.55 11.7 20.85 17.15 L35.45 -8.1 M36.35 -8.7 L36.6 -8.4 36.55 -8.05 21.45 18.05 21.25 18.25 21.0 18.3 20.75 18.25 Q11.55 12.7 0.0 12.7 -11.55 12.7 -20.85 18.25 L-21.2 18.3 -21.5 18.05 -36.5 -8.05 -36.55 -8.4 -36.35 -8.7 Q-20.15 -18.3 0.0 -18.3 20.15 -18.3 36.35 -8.7" fill="#000000" fill-rule="evenodd" stroke="none" class="line" />
    </g>
  </defs>
  <g transform="matrix(1.0, 0.0, 0.0, 1.0, 0.0, 0.0)">
    <use height="35.6" id="fill" transform="matrix(1.3661, 0.0, 0.0, 2.7322, 0.6831, 1.3661)" width="72.2" xlink:href="#sprite0" />
    <use height="36.6" id="line" transform="matrix(1.3661, 0.0, 0.0, 2.7322, 0.0, 0.0)" width="73.2" xlink:href="#sprite1" />
  </g>
</svg>