<?xml version="1.0" encoding="UTF-8" standalone="no"?>
<svg xmlns:xlink="http://www.w3.org/1999/xlink" height="100%" width="100%" xmlns="http://www.w3.org/2000/svg" preserveAspectRatio="none" viewBox="0 0 100 100">
  <defs>
    <g id="sprite0" transform="matrix(1.0, 0.0, 0.0, 1.0, 113.75, 20.1)">
      <use height="40.2" transform="matrix(1.0, 0.0, 0.0, 1.0, -113.75, -20.1)" width="227.55" xlink:href="#shape0" />
    </g>
    <g id="shape0" transform="matrix(1.0, 0.0, 0.0, 1.0, 113.75, 20.1)">
      <path d="M15.9 -4.7 Q19.05 6.4 19.5 17.0 19.6 19.0 17.6 19.0 L-0.25 20.1 -17.55 19.0 Q-19.55 19.0 -19.45 17.0 -19.0 6.4 -15.85 -4.7 -15.0 -12.0 -18.85 -16.4 L-19.2 -16.8 -19.25 -17.0 -19.3 -17.3 -19.3 -19.1 Q-19.3 -20.1 -18.3 -20.1 L18.35 -20.1 Q19.35 -20.1 19.35 -19.1 L19.35 -17.3 19.3 -17.0 19.25 -16.8 18.9 -16.4 Q15.05 -12.0 15.9 -4.7 M75.0 -19.1 Q75.0 -20.1 76.0 -20.1 L112.65 -20.1 Q113.65 -20.1 113.65 -19.1 L113.65 -17.3 113.6 -17.0 113.55 -16.8 113.2 -16.4 Q109.35 -12.0 110.2 -4.7 113.35 6.4 113.8 17.0 113.9 19.0 111.9 19.0 L94.05 20.1 76.75 19.0 Q74.75 19.0 74.85 17.0 75.3 6.4 78.45 -4.7 79.3 -12.0 75.45 -16.4 75.2 -16.55 75.1 -16.8 L75.05 -17.0 75.0 -17.3 75.0 -19.1 M27.85 -19.1 Q27.85 -20.1 28.85 -20.1 L65.5 -20.1 Q66.5 -20.1 66.5 -19.1 L66.5 -17.3 66.45 -17.0 66.4 -16.8 66.05 -16.4 Q62.2 -12.0 63.05 -4.7 66.2 6.4 66.65 17.0 66.75 19.0 64.75 19.0 L46.9 20.1 29.6 19.0 Q27.6 19.0 27.7 17.0 28.15 6.4 31.3 -4.7 32.15 -12.0 28.3 -16.4 L27.95 -16.8 27.9 -17.0 27.85 -17.3 27.85 -19.1 M-113.15 -16.4 L-113.5 -16.8 -113.55 -17.0 -113.6 -17.3 -113.6 -19.1 Q-113.6 -20.1 -112.6 -20.1 L-75.95 -20.1 Q-74.95 -20.1 -74.95 -19.1 L-74.95 -17.3 -75.0 -17.0 -75.05 -16.8 -75.4 -16.4 Q-79.25 -12.0 -78.4 -4.7 -75.25 6.4 -74.8 17.0 -74.7 19.0 -76.7 19.0 L-94.55 20.1 -111.85 19.0 Q-113.85 19.0 -113.75 17.0 -113.3 6.4 -110.15 -4.7 -109.3 -12.0 -113.15 -16.4 M-66.45 -19.1 Q-66.45 -20.1 -65.45 -20.1 L-28.8 -20.1 Q-27.8 -20.1 -27.8 -19.1 L-27.8 -17.3 -27.85 -17.0 -27.9 -16.8 -28.25 -16.4 Q-32.1 -12.0 -31.25 -4.7 -28.1 6.4 -27.65 17.0 -27.55 19.0 -29.55 19.0 L-47.4 20.1 -64.7 19.0 Q-66.7 19.0 -66.6 17.0 -66.15 6.4 -63.0 -4.7 -62.15 -12.0 -66.0 -16.4 L-66.35 -16.8 -66.4 -17.0 -66.45 -17.3 -66.45 -19.1" fill="#ffffff" fill-rule="evenodd" stroke="none" class="fill" />
    </g>
    <g id="sprite1" transform="matrix(1.0, 0.0, 0.0, 1.0, 114.25, 20.6)">
      <use height="41.2" transform="matrix(1.0, 0.0, 0.0, 1.0, -114.25, -20.6)" width="228.55" xlink:href="#shape1" />
    </g>
    <g id="shape1" transform="matrix(1.0, 0.0, 0.0, 1.0, 114.25, 20.6)">
      <path d="M-64.85 -15.8 Q-62.2 -12.15 -62.35 -6.8 -61.7 -7.2 -60.7 -7.2 L-33.55 -7.2 Q-32.55 -7.2 -31.9 -6.8 -32.0 -12.15 -29.35 -15.8 L-64.85 -15.8 M-62.5 -4.65 L-62.5 -4.6 -62.55 -4.45 Q-65.65 6.5 -66.1 17.05 -66.15 17.75 -65.8 18.15 L-64.7 18.5 -64.65 18.5 -47.4 19.6 -29.6 18.5 -29.55 18.5 Q-28.8 18.5 -28.4 18.15 -28.1 17.75 -28.15 17.05 -28.6 6.55 -31.7 -4.45 L-31.75 -4.6 -31.75 -4.65 Q-32.0 -6.2 -33.55 -6.2 L-60.7 -6.2 Q-62.25 -6.2 -62.5 -4.65 M-65.9 -17.15 L-65.9 -17.0 -65.85 -16.95 -65.8 -16.85 -65.45 -16.8 -28.8 -16.8 -28.45 -16.85 -28.35 -16.95 -28.35 -17.0 -28.3 -17.15 -28.3 -17.3 -28.3 -19.1 Q-28.3 -19.6 -28.8 -19.6 L-65.45 -19.6 Q-65.95 -19.6 -65.95 -19.1 L-65.95 -17.3 -65.9 -17.15 M-66.3 -16.0 L-66.8 -16.55 -66.8 -16.6 -66.9 -16.9 -66.95 -17.3 -66.95 -19.1 Q-66.95 -20.6 -65.45 -20.6 L-28.8 -20.6 Q-27.3 -20.6 -27.3 -19.1 L-27.3 -17.3 -27.35 -16.9 -27.4 -16.6 -27.45 -16.55 -27.9 -16.0 Q-31.55 -11.75 -30.75 -4.75 L-30.75 -4.7 Q-27.6 6.35 -27.15 17.0 -27.1 18.25 -27.7 18.85 -28.3 19.5 -29.5 19.5 L-47.4 20.6 -64.75 19.5 Q-65.95 19.5 -66.5 18.85 -67.15 18.25 -67.1 17.0 -66.65 6.35 -63.5 -4.75 -62.7 -11.75 -66.3 -16.0 M-109.5 -6.8 L-107.85 -7.2 -80.6 -7.2 Q-79.65 -7.2 -79.05 -6.8 L-79.05 -7.2 Q-79.05 -12.3 -76.5 -15.8 L-112.0 -15.8 Q-109.35 -12.15 -109.5 -6.8 M-107.85 -6.2 Q-109.4 -6.2 -109.65 -4.65 L-109.65 -4.6 -109.7 -4.45 Q-111.5 1.9 -112.4 8.15 L-113.25 17.05 Q-113.3 17.75 -112.95 18.15 L-112.3 18.45 -111.85 18.5 -111.8 18.5 -103.0 19.35 -94.55 19.6 -89.15 19.5 -76.75 18.5 -76.7 18.5 Q-75.95 18.5 -75.55 18.15 -75.25 17.75 -75.3 17.05 -75.75 6.55 -78.85 -4.45 L-78.9 -4.6 -78.9 -4.65 Q-79.15 -6.15 -80.6 -6.2 L-107.85 -6.2 M-114.1 -19.1 Q-114.1 -20.6 -112.6 -20.6 L-75.85 -20.6 Q-74.7 -20.55 -74.5 -19.6 L-74.45 -19.1 -74.45 -17.3 -74.5 -16.9 -74.5 -16.8 -74.55 -16.6 -74.6 -16.55 -75.05 -16.0 -75.2 -15.8 Q-78.05 -12.35 -78.05 -7.2 L-78.0 -6.2 -77.9 -4.75 -77.9 -4.7 Q-74.75 6.35 -74.3 17.0 -74.25 18.25 -74.85 18.85 L-75.55 19.35 -76.65 19.5 -89.2 20.5 -94.55 20.6 -111.9 19.5 -112.3 19.5 -113.0 19.3 -113.2 19.25 -113.65 18.85 -114.05 18.3 -114.25 17.0 Q-114.05 12.6 -113.4 8.15 -112.5 1.8 -110.65 -4.75 -109.85 -11.75 -113.45 -16.0 L-113.95 -16.55 -113.95 -16.6 -114.05 -16.9 -114.1 -17.3 -114.1 -19.1 M-112.6 -19.6 Q-113.1 -19.6 -113.1 -19.1 L-113.1 -17.3 -113.05 -17.15 -113.05 -17.0 -113.0 -16.95 -112.95 -16.85 -112.6 -16.8 -75.9 -16.8 -75.6 -16.85 -75.5 -16.95 -75.5 -17.0 -75.45 -17.15 -75.45 -17.3 -75.45 -19.1 Q-75.45 -19.6 -75.9 -19.6 L-112.6 -19.6 M78.95 -4.65 L78.95 -4.6 78.9 -4.45 Q75.8 6.55 75.35 17.05 75.3 17.75 75.65 18.15 L76.75 18.5 76.8 18.5 94.05 19.6 111.85 18.5 111.9 18.5 Q112.65 18.5 113.05 18.15 113.35 17.75 113.3 17.05 112.85 6.55 109.75 -4.45 L109.7 -4.6 109.7 -4.65 Q109.45 -6.2 107.9 -6.2 L80.75 -6.2 Q79.2 -6.2 78.95 -4.65 M79.1 -6.8 Q79.75 -7.2 80.75 -7.2 L107.9 -7.2 Q108.9 -7.2 109.55 -6.8 109.45 -12.15 112.1 -15.8 L76.6 -15.8 Q79.2 -12.15 79.1 -6.8 M74.65 -16.6 L74.55 -16.9 74.5 -17.3 74.5 -19.1 Q74.5 -20.6 76.0 -20.6 L112.65 -20.6 Q114.15 -20.6 114.15 -19.1 L114.15 -17.3 114.1 -16.9 114.05 -16.6 114.0 -16.55 113.55 -16.0 Q109.9 -11.75 110.7 -4.75 L110.7 -4.7 Q113.85 6.35 114.3 17.0 114.35 18.25 113.75 18.85 113.15 19.5 111.95 19.5 L94.05 20.6 76.7 19.5 Q75.5 19.5 74.95 18.85 74.3 18.25 74.35 17.0 74.8 6.35 77.95 -4.75 78.75 -11.75 75.15 -16.0 L74.65 -16.55 74.65 -16.6 M75.5 -17.3 L75.55 -17.15 75.55 -17.0 75.6 -16.95 75.65 -16.85 76.0 -16.8 112.65 -16.8 113.0 -16.85 113.1 -16.95 113.1 -17.0 113.15 -17.15 113.15 -17.3 113.15 -19.1 Q113.15 -19.6 112.65 -19.6 L76.0 -19.6 Q75.5 -19.6 75.5 -19.1 L75.5 -17.3 M31.8 -4.65 L31.8 -4.6 31.75 -4.45 Q28.65 6.55 28.2 17.05 28.15 17.75 28.5 18.15 28.85 18.5 29.6 18.5 L29.65 18.5 46.9 19.6 64.7 18.5 64.75 18.5 Q65.5 18.5 65.9 18.15 66.2 17.75 66.15 17.05 65.7 6.55 62.6 -4.45 L62.55 -4.6 62.55 -4.65 Q62.3 -6.2 60.75 -6.2 L33.6 -6.2 Q32.05 -6.2 31.8 -4.65 M31.95 -6.8 Q32.6 -7.2 33.6 -7.2 L60.75 -7.2 62.4 -6.8 Q62.3 -12.15 64.95 -15.8 L29.45 -15.8 Q32.05 -12.15 31.95 -6.8 M27.35 -19.1 Q27.35 -20.6 28.85 -20.6 L65.5 -20.6 Q67.0 -20.6 67.0 -19.1 L67.0 -17.3 66.95 -16.9 66.9 -16.6 66.85 -16.55 66.4 -16.0 Q62.75 -11.75 63.55 -4.75 66.7 6.35 67.15 17.0 67.2 18.25 66.6 18.85 66.0 19.5 64.8 19.5 L46.9 20.6 29.55 19.5 Q28.35 19.5 27.8 18.85 27.15 18.25 27.2 17.0 27.65 6.35 30.8 -4.75 31.6 -11.75 28.0 -16.0 L27.5 -16.55 27.5 -16.6 27.4 -16.9 27.35 -17.3 27.35 -19.1 M28.85 -19.6 Q28.35 -19.6 28.35 -19.1 L28.35 -17.3 28.4 -17.15 28.4 -17.0 28.45 -16.95 28.5 -16.85 28.85 -16.8 65.5 -16.8 65.85 -16.85 65.95 -16.95 65.95 -17.0 66.0 -17.15 66.0 -17.3 66.0 -19.1 Q66.0 -19.6 65.5 -19.6 L28.85 -19.6 M13.6 -7.2 Q14.6 -7.2 15.25 -6.8 15.15 -12.15 17.8 -15.8 L-17.7 -15.8 Q-15.1 -12.15 -15.2 -6.8 -14.55 -7.2 -13.55 -7.2 L13.6 -7.2 M15.4 -4.65 Q15.15 -6.2 13.6 -6.2 L-13.55 -6.2 Q-15.1 -6.2 -15.35 -4.65 L-15.35 -4.6 -15.4 -4.45 Q-18.5 6.55 -18.95 17.05 -19.0 17.75 -18.65 18.15 -18.3 18.5 -17.55 18.5 L-17.5 18.5 -0.25 19.6 17.55 18.5 17.6 18.5 Q18.35 18.5 18.75 18.15 19.05 17.75 19.0 17.05 18.55 6.55 15.45 -4.45 L15.4 -4.6 15.4 -4.65 M18.85 -19.1 Q18.85 -19.6 18.35 -19.6 L-18.3 -19.6 Q-18.8 -19.6 -18.8 -19.1 L-18.8 -17.3 -18.75 -17.15 -18.75 -17.0 -18.7 -16.95 -18.65 -16.85 -18.3 -16.8 18.35 -16.8 18.7 -16.85 18.8 -16.95 18.8 -17.0 18.85 -17.15 18.85 -17.3 18.85 -19.1 M18.35 -20.6 Q19.85 -20.6 19.85 -19.1 L19.85 -17.3 19.8 -16.9 19.75 -16.6 19.7 -16.55 19.25 -16.0 Q15.6 -11.75 16.4 -4.75 L16.4 -4.7 Q19.55 6.35 20.0 17.0 20.05 18.25 19.45 18.85 18.85 19.5 17.65 19.5 L-0.25 20.6 -17.6 19.5 Q-18.8 19.5 -19.35 18.85 -20.0 18.25 -19.95 17.0 -19.5 6.4 -16.35 -4.7 L-16.35 -4.75 Q-15.55 -11.75 -19.15 -16.0 L-19.65 -16.55 -19.65 -16.6 -19.75 -16.9 -19.8 -17.3 -19.8 -19.1 Q-19.8 -20.6 -18.3 -20.6 L18.35 -20.6" fill="#000000" fill-rule="evenodd" stroke="none" class="line" />
    </g>
  </defs>
  <g transform="matrix(1.0, 0.0, 0.0, 1.0, 0.0, 0.0)">
    <use height="40.2" id="fill" transform="matrix(0.4378, 0.0, 0.0, 2.4272, 0.2049, 1.2136)" width="227.55" xlink:href="#sprite0" />
    <use height="41.2" id="line" transform="matrix(0.4378, 0.0, 0.0, 2.4272, -0.014, 0.0)" width="228.55" xlink:href="#sprite1" />
  </g>
</svg>