<?xml version="1.0" encoding="UTF-8" standalone="no"?>
<svg xmlns:xlink="http://www.w3.org/1999/xlink" height="100%" width="100%" xmlns="http://www.w3.org/2000/svg" preserveAspectRatio="none" viewBox="0 0 100 100">
  <defs>
    <g id="sprite0" transform="matrix(1.0, 0.0, 0.0, 1.0, 50.9, 23.3)">
      <use height="46.7" transform="matrix(1.0, 0.0, 0.0, 1.0, -50.9, -23.3)" width="101.8" xlink:href="#shape0" />
    </g>
    <g id="shape0" transform="matrix(1.0, 0.0, 0.0, 1.0, 50.9, 23.3)">
      <path d="M50.9 -2.0 L25.5 23.4 Q15.0 12.9 0.0 12.9 -15.0 12.9 -25.5 23.4 L-50.9 -2.0 Q-29.8 -23.1 0.0 -23.3 29.8 -23.1 50.9 -2.0" fill="#ffffff" fill-rule="evenodd" stroke="none" class="fill" />
    </g>
    <g id="sprite1" transform="matrix(1.0, 0.0, 0.0, 1.0, 51.4, 23.8)">
      <use height="47.7" transform="matrix(1.0, 0.0, 0.0, 1.0, -51.4, -23.8)" width="102.8" xlink:href="#shape1" />
    </g>
    <g id="shape1" transform="matrix(1.0, 0.0, 0.0, 1.0, 51.4, 23.8)">
      <path d="M50.2 -2.0 Q29.35 -22.6 0.0 -22.8 -29.35 -22.6 -50.2 -2.0 L-25.5 22.7 Q-14.95 12.4 0.0 12.4 14.95 12.4 25.5 22.7 L50.2 -2.0 M51.25 -2.35 L51.4 -2.0 51.25 -1.65 25.85 23.75 25.5 23.9 Q25.3 23.9 25.15 23.75 14.8 13.4 0.0 13.4 -14.8 13.4 -25.15 23.75 -25.3 23.9 -25.5 23.9 L-25.85 23.75 -51.25 -1.65 -51.4 -2.0 -51.25 -2.35 Q-30.0 -23.6 0.0 -23.8 30.0 -23.6 51.25 -2.35" fill="#000000" fill-rule="evenodd" stroke="none" class="line" />
    </g>
  </defs>
  <g transform="matrix(1.0, 0.0, 0.0, 1.0, 0.0, 0.0)">
    <use height="46.7" id="fill" transform="matrix(0.9728, 0.0, 0.0, 2.0964, 0.4864, 1.0531)" width="101.8" xlink:href="#sprite0" />
    <use height="47.7" id="line" transform="matrix(0.9728, 0.0, 0.0, 2.0964, 0.0, 0.0048)" width="102.8" xlink:href="#sprite1" />
  </g>
</svg>