<?xml version="1.0" encoding="UTF-8" standalone="no"?>
<svg xmlns:xlink="http://www.w3.org/1999/xlink" height="100%" width="100%" xmlns="http://www.w3.org/2000/svg" preserveAspectRatio="none" viewBox="0 0 100 100">
  <defs>
    <g id="sprite0" transform="matrix(1.0, 0.0, 0.0, 1.0, 66.65, 20.1)">
      <use height="40.2" transform="matrix(1.0, 0.0, 0.0, 1.0, -66.65, -20.1)" width="133.35" xlink:href="#shape0" />
    </g>
    <g id="shape0" transform="matrix(1.0, 0.0, 0.0, 1.0, 66.65, 20.1)">
      <path d="M15.9 -4.7 Q19.05 6.4 19.5 17.0 19.6 19.0 17.6 19.0 L-0.25 20.1 -17.55 19.0 Q-19.55 19.0 -19.45 17.0 -19.0 6.4 -15.85 -4.7 -15.0 -12.0 -18.85 -16.4 L-19.2 -16.8 -19.25 -17.0 -19.3 -17.3 -19.3 -19.1 Q-19.3 -20.1 -18.3 -20.1 L18.35 -20.1 Q19.35 -20.1 19.35 -19.1 L19.35 -17.3 19.3 -17.0 19.25 -16.8 18.9 -16.4 Q15.05 -12.0 15.9 -4.7 M28.35 -16.4 L28.0 -16.8 27.95 -17.0 27.9 -17.3 27.9 -19.1 Q27.9 -20.1 28.9 -20.1 L65.55 -20.1 Q66.55 -20.1 66.55 -19.1 L66.55 -17.3 66.5 -17.0 66.45 -16.8 66.1 -16.4 Q62.25 -12.0 63.1 -4.7 66.25 6.4 66.7 17.0 66.8 19.0 64.8 19.0 L46.95 20.1 29.65 19.0 Q27.65 19.0 27.75 17.0 28.2 6.4 31.35 -4.7 32.2 -12.0 28.35 -16.4 M-66.05 -16.4 L-66.4 -16.8 -66.45 -17.0 -66.5 -17.3 -66.5 -19.1 Q-66.5 -20.1 -65.5 -20.1 L-28.85 -20.1 Q-27.85 -20.1 -27.85 -19.1 L-27.85 -17.3 -27.9 -17.0 -27.95 -16.8 -28.3 -16.4 Q-32.15 -12.0 -31.3 -4.7 -28.15 6.4 -27.7 17.0 -27.6 19.0 -29.6 19.0 L-47.45 20.1 -64.75 19.0 Q-66.75 19.0 -66.65 17.0 -66.2 6.4 -63.05 -4.7 -62.2 -12.0 -66.05 -16.4" fill="#ffffff" fill-rule="evenodd" stroke="none" class="fill" />
    </g>
    <g id="sprite1" transform="matrix(1.0, 0.0, 0.0, 1.0, 67.15, 20.6)">
      <use height="41.2" transform="matrix(1.0, 0.0, 0.0, 1.0, -67.15, -20.6)" width="134.35" xlink:href="#shape1" />
    </g>
    <g id="shape1" transform="matrix(1.0, 0.0, 0.0, 1.0, 67.15, 20.6)">
      <path d="M-64.9 -15.8 Q-62.3 -12.15 -62.4 -6.8 L-60.75 -7.2 -33.6 -7.2 Q-32.6 -7.2 -31.95 -6.8 -32.05 -12.15 -29.4 -15.8 L-64.9 -15.8 M-62.55 -4.65 L-62.55 -4.6 -62.6 -4.45 Q-64.6 2.6 -65.45 9.45 L-65.7 11.35 -66.15 17.05 -66.15 17.1 -65.85 18.15 Q-65.5 18.5 -64.75 18.5 L-64.7 18.5 -62.8 18.75 -47.45 19.6 -29.65 18.5 -29.6 18.5 Q-28.85 18.5 -28.45 18.15 -28.15 17.75 -28.2 17.05 -28.65 6.55 -31.75 -4.45 L-31.8 -4.6 -31.8 -4.65 Q-32.05 -6.2 -33.6 -6.2 L-60.75 -6.2 Q-62.3 -6.2 -62.55 -4.65 M-66.0 -17.3 L-65.95 -17.15 -65.95 -17.0 -65.9 -16.95 -65.85 -16.85 -65.5 -16.8 -28.85 -16.8 -28.5 -16.85 -28.4 -16.95 -28.4 -17.0 -28.35 -17.15 -28.35 -17.3 -28.35 -19.1 Q-28.35 -19.6 -28.85 -19.6 L-65.5 -19.6 Q-66.0 -19.6 -66.0 -19.1 L-66.0 -17.3 M-66.35 -16.0 L-66.85 -16.55 -66.85 -16.6 -66.95 -16.9 -67.0 -17.3 -67.0 -19.1 Q-67.0 -20.6 -65.5 -20.6 L-28.85 -20.6 Q-27.35 -20.6 -27.35 -19.1 L-27.35 -17.3 -27.4 -16.9 -27.45 -16.6 -27.5 -16.55 -27.95 -16.0 Q-31.6 -11.75 -30.8 -4.75 L-30.8 -4.7 Q-27.65 6.35 -27.2 17.0 -27.15 18.25 -27.75 18.85 -28.35 19.5 -29.55 19.5 L-47.45 20.6 -62.8 19.75 -63.0 19.7 -64.8 19.5 -65.95 19.3 -66.1 19.2 -66.55 18.85 -66.95 18.3 -67.15 17.0 Q-67.0 13.25 -66.5 9.45 -65.6 2.5 -63.55 -4.7 L-63.55 -4.75 Q-62.75 -11.75 -66.35 -16.0 M33.65 -6.2 Q32.1 -6.2 31.85 -4.65 L31.85 -4.6 31.8 -4.45 Q28.7 6.55 28.25 17.05 28.2 17.75 28.55 18.15 28.9 18.5 29.65 18.5 L29.7 18.5 46.95 19.6 64.75 18.5 64.8 18.5 Q65.55 18.5 65.95 18.15 L66.2 17.05 Q65.75 6.55 62.65 -4.45 L62.6 -4.6 62.6 -4.65 Q62.35 -6.2 60.8 -6.2 L33.65 -6.2 M32.0 -6.8 Q32.65 -7.2 33.65 -7.2 L60.8 -7.2 Q61.8 -7.2 62.45 -6.8 62.35 -12.15 65.0 -15.8 L29.5 -15.8 Q32.1 -12.15 32.0 -6.8 M27.4 -19.1 Q27.4 -20.6 28.9 -20.6 L65.55 -20.6 Q67.05 -20.6 67.05 -19.1 L67.05 -17.3 67.0 -16.9 66.95 -16.6 66.9 -16.55 66.45 -16.0 Q62.8 -11.75 63.6 -4.75 66.75 6.35 67.2 17.0 67.25 18.25 66.65 18.85 66.05 19.5 64.85 19.5 L46.95 20.6 29.6 19.5 Q28.4 19.5 27.85 18.85 27.2 18.25 27.25 17.0 27.7 6.35 30.85 -4.75 31.65 -11.75 28.05 -16.0 L27.55 -16.55 27.55 -16.6 27.45 -16.9 27.4 -17.3 27.4 -19.1 M28.9 -19.6 Q28.4 -19.6 28.4 -19.1 L28.4 -17.3 28.45 -17.15 28.45 -17.0 28.5 -16.95 28.55 -16.85 28.9 -16.8 65.55 -16.8 65.9 -16.85 66.0 -16.95 66.0 -17.0 66.05 -17.15 66.05 -17.3 66.05 -19.1 Q66.05 -19.6 65.55 -19.6 L28.9 -19.6 M13.6 -7.2 Q14.6 -7.2 15.25 -6.8 15.15 -12.15 17.8 -15.8 L-17.7 -15.8 Q-15.1 -12.15 -15.2 -6.8 -14.55 -7.2 -13.55 -7.2 L13.6 -7.2 M15.45 -4.45 L15.4 -4.6 15.4 -4.65 Q15.15 -6.2 13.6 -6.2 L-13.55 -6.2 Q-15.1 -6.2 -15.35 -4.65 L-15.35 -4.6 -15.4 -4.45 Q-18.5 6.55 -18.95 17.05 -19.0 17.75 -18.65 18.15 -18.3 18.5 -17.55 18.5 L-17.5 18.5 -0.25 19.6 17.55 18.5 17.6 18.5 Q18.35 18.5 18.75 18.15 19.05 17.75 19.0 17.05 18.55 6.55 15.45 -4.45 M18.85 -19.1 Q18.85 -19.6 18.35 -19.6 L-18.3 -19.6 Q-18.8 -19.6 -18.8 -19.1 L-18.8 -17.3 -18.75 -17.15 -18.75 -17.0 -18.7 -16.95 -18.65 -16.85 -18.3 -16.8 18.35 -16.8 18.7 -16.85 18.8 -16.95 18.8 -17.0 18.85 -17.15 18.85 -17.3 18.85 -19.1 M18.35 -20.6 Q19.85 -20.6 19.85 -19.1 L19.85 -17.3 19.8 -16.9 19.75 -16.6 19.7 -16.55 19.25 -16.0 Q15.6 -11.75 16.4 -4.75 L16.4 -4.7 Q19.55 6.35 20.0 17.0 20.05 18.25 19.45 18.85 18.85 19.5 17.65 19.5 L-0.25 20.6 -17.6 19.5 Q-18.8 19.5 -19.35 18.85 -20.0 18.25 -19.95 17.0 -19.5 6.4 -16.35 -4.7 L-16.35 -4.75 Q-15.55 -11.75 -19.15 -16.0 L-19.65 -16.55 -19.65 -16.6 -19.75 -16.9 -19.8 -17.3 -19.8 -19.1 Q-19.8 -20.6 -18.3 -20.6 L18.35 -20.6" fill="#000000" fill-rule="evenodd" stroke="none" class="line" />
    </g>
  </defs>
  <g transform="matrix(1.0, 0.0, 0.0, 1.0, 0.0, 0.0)">
    <use height="40.2" id="fill" transform="matrix(0.7447, 0.0, 0.0, 2.4272, 0.3664, 1.2136)" width="133.35" xlink:href="#sprite0" />
    <use height="41.2" id="line" transform="matrix(0.7447, 0.0, 0.0, 2.4272, -0.0059, 0.0)" width="134.35" xlink:href="#sprite1" />
  </g>
</svg>