<?xml version="1.0" encoding="UTF-8" standalone="no"?>
<svg xmlns:xlink="http://www.w3.org/1999/xlink" height="100%" width="100%" xmlns="http://www.w3.org/2000/svg" preserveAspectRatio="none" viewBox="0 0 100 100">
  <defs>
    <g id="sprite0" transform="matrix(1.0, 0.0, 0.0, 1.0, 91.85, 91.85)">
      <use height="183.75" transform="matrix(1.0, 0.0, 0.0, 1.0, -91.85, -91.85)" width="183.75" xlink:href="#shape0" />
    </g>
    <g id="shape0" transform="matrix(1.0, 0.0, 0.0, 1.0, 91.85, 91.85)">
      <path d="M60.75 -12.0 L60.05 -23.65 60.05 23.7 60.75 12.1 Q60.85 10.7 62.55 10.7 L68.8 11.3 Q71.85 11.65 79.25 13.55 83.15 14.25 86.4 12.9 L88.9 11.4 89.05 11.1 Q89.25 10.8 89.6 10.8 L91.2 10.8 Q91.9 10.8 91.9 11.5 L91.9 42.0 Q91.9 42.7 91.2 42.7 L89.6 42.7 89.05 42.4 88.9 42.1 Q88.05 41.25 86.4 40.55 83.15 39.15 79.25 39.85 L68.8 42.15 62.55 42.7 Q60.85 42.7 60.75 41.35 L60.05 29.7 60.05 60.15 31.0 60.15 41.3 60.75 Q42.7 60.85 42.7 62.55 42.7 64.5 42.1 68.85 41.75 71.85 39.85 79.25 39.15 83.15 40.5 86.4 41.2 88.05 42.0 88.9 L42.3 89.05 42.6 89.6 42.6 91.25 Q42.6 91.9 41.9 91.9 L11.4 91.9 Q10.7 91.9 10.7 91.25 L10.7 89.6 11.0 89.05 11.3 88.9 Q12.15 88.05 12.85 86.4 14.25 83.15 13.55 79.25 11.65 71.85 11.25 68.85 10.7 64.3 10.7 62.55 10.7 60.85 12.05 60.75 L22.35 60.15 -22.3 60.15 -12.0 60.75 Q-10.65 60.85 -10.65 62.55 -10.65 64.3 -11.2 68.85 -11.6 71.85 -13.5 79.25 -14.2 83.15 -12.85 86.4 -12.15 88.05 -11.35 88.9 L-11.05 89.05 Q-10.75 89.25 -10.75 89.6 L-10.75 91.25 Q-10.75 91.9 -11.4 91.9 L-41.95 91.9 Q-42.65 91.9 -42.65 91.25 L-42.65 89.6 -42.3 89.05 -42.0 88.9 Q-41.15 88.05 -40.5 86.4 -39.1 83.15 -39.8 79.25 -41.7 71.85 -42.05 68.85 -42.65 64.5 -42.65 62.55 -42.65 60.85 -41.25 60.75 L-30.95 60.15 -59.95 60.15 -59.95 29.7 -60.7 41.35 Q-60.8 42.7 -62.5 42.7 L-68.75 42.15 -75.1 40.85 -79.2 39.85 Q-83.1 39.15 -86.35 40.55 L-88.85 42.1 Q-89.05 42.7 -89.55 42.7 L-91.15 42.7 Q-91.85 42.7 -91.85 42.0 L-91.85 11.5 Q-91.85 10.8 -91.15 10.8 L-89.55 10.8 Q-89.0 10.8 -88.85 11.4 L-86.35 12.9 Q-83.1 14.25 -79.2 13.55 L-75.1 12.55 -68.75 11.3 -62.5 10.7 Q-60.8 10.7 -60.7 12.1 L-59.95 23.7 -59.95 -23.65 -60.7 -12.0 Q-60.8 -10.6 -62.5 -10.6 L-68.75 -11.2 -75.1 -12.5 -79.2 -13.5 Q-83.1 -14.15 -86.35 -12.75 L-88.85 -11.25 Q-89.05 -10.6 -89.55 -10.6 L-91.15 -10.6 Q-91.85 -10.6 -91.85 -11.3 L-91.85 -41.85 -91.65 -42.35 -91.15 -42.55 -89.55 -42.55 Q-89.0 -42.55 -88.85 -41.95 L-86.35 -40.45 Q-83.1 -39.1 -79.2 -39.75 L-75.1 -40.75 -68.75 -42.05 -62.5 -42.6 Q-60.8 -42.6 -60.7 -41.25 L-59.95 -29.6 -59.95 -59.85 -27.35 -59.85 -41.25 -60.7 Q-42.65 -60.8 -42.65 -62.5 -42.65 -64.4 -42.05 -68.75 L-40.8 -75.1 -39.8 -79.15 Q-39.1 -83.05 -40.5 -86.35 L-42.0 -88.85 Q-42.65 -89.0 -42.65 -89.5 L-42.65 -91.15 -42.45 -91.65 -41.95 -91.85 -11.4 -91.85 -10.95 -91.65 -10.75 -91.15 -10.75 -89.5 Q-10.75 -89.0 -11.35 -88.85 L-12.85 -86.35 Q-14.2 -83.05 -13.5 -79.15 L-12.5 -75.1 -11.2 -68.75 Q-10.65 -64.2 -10.65 -62.5 -10.65 -60.8 -12.0 -60.7 L-25.95 -59.85 26.0 -59.85 12.05 -60.7 Q10.7 -60.8 10.7 -62.5 10.7 -64.2 11.25 -68.75 L12.55 -75.1 13.55 -79.15 Q14.25 -83.05 12.85 -86.35 L11.3 -88.85 Q10.7 -89.0 10.7 -89.5 L10.7 -91.15 10.9 -91.65 11.4 -91.85 41.9 -91.85 Q42.6 -91.85 42.6 -91.15 L42.6 -89.5 Q42.6 -89.0 42.0 -88.85 L40.5 -86.35 Q39.15 -83.05 39.85 -79.15 L40.85 -75.1 42.1 -68.75 Q42.7 -64.4 42.7 -62.5 42.7 -60.8 41.3 -60.7 L27.4 -59.85 60.05 -59.85 60.05 -29.6 60.75 -41.25 Q60.85 -42.6 62.55 -42.6 L68.8 -42.05 79.25 -39.75 Q83.15 -39.1 86.4 -40.45 88.05 -41.15 88.9 -41.95 L89.05 -42.25 89.6 -42.55 91.2 -42.55 Q91.9 -42.55 91.9 -41.85 L91.9 -11.3 Q91.9 -10.6 91.2 -10.6 L89.6 -10.6 Q89.3 -10.6 89.05 -10.9 L88.9 -11.25 86.4 -12.75 Q83.15 -14.15 79.25 -13.5 71.85 -11.6 68.8 -11.2 L62.55 -10.6 Q60.85 -10.6 60.75 -12.0" fill="#ffffff" fill-rule="evenodd" stroke="none" class="fill" />
    </g>
    <g id="sprite1" transform="matrix(1.0, 0.0, 0.0, 1.0, 92.2, 92.2)">
      <use height="184.45" transform="matrix(1.0, 0.0, 0.0, 1.0, -92.2, -92.2)" width="184.45" xlink:href="#shape1" />
    </g>
    <g id="shape1" transform="matrix(1.0, 0.0, 0.0, 1.0, 92.2, 92.2)">
      <path d="M42.25 91.25 L42.25 89.6 41.95 89.25 11.4 89.25 11.25 89.35 11.15 89.4 11.05 89.75 11.05 91.25 11.4 91.55 41.9 91.55 Q42.25 91.55 42.25 91.25 M41.3 88.55 Q39.05 85.6 39.3 81.1 38.65 81.6 37.55 81.6 L15.85 81.6 Q14.65 81.6 14.1 81.1 14.3 85.65 12.05 88.55 L41.3 88.55 M41.3 61.1 L31.0 60.5 22.35 60.5 12.1 61.1 Q11.05 61.2 11.05 62.55 11.05 64.3 11.6 68.8 11.95 71.55 13.85 79.05 L13.85 79.1 13.9 79.15 13.9 79.3 14.35 80.4 Q14.8 80.9 15.85 80.9 L37.55 80.9 Q38.6 80.9 39.05 80.4 L39.45 79.35 39.5 79.2 39.5 79.1 39.55 79.05 Q41.5 70.95 41.75 68.8 42.35 64.55 42.35 62.55 42.35 61.2 41.3 61.1 M88.55 12.1 Q85.5 14.35 81.1 14.1 81.6 14.75 81.6 15.85 L81.6 37.55 Q81.6 38.75 81.1 39.3 L81.7 39.3 Q85.8 39.3 88.55 41.35 L88.55 12.1 M61.1 12.1 L60.35 23.75 60.35 29.7 61.1 41.3 Q61.2 42.35 62.55 42.35 L68.75 41.8 Q72.1 41.4 79.05 39.55 L79.1 39.55 79.15 39.5 79.25 39.5 80.35 39.05 Q80.9 38.65 80.9 37.55 L80.9 15.85 Q80.9 14.75 80.35 14.35 79.9 14.05 79.3 13.95 L79.2 13.9 79.05 13.9 79.0 13.85 68.75 11.65 62.55 11.05 Q61.2 11.05 61.1 12.1 M91.55 11.5 Q91.55 11.15 91.2 11.15 L89.6 11.15 Q89.25 11.15 89.25 11.45 L89.25 42.0 89.35 42.15 89.35 42.25 89.6 42.3 89.75 42.35 91.2 42.35 91.55 42.0 91.55 11.5 M88.55 -41.2 Q85.35 -39.05 81.1 -39.2 81.6 -38.65 81.6 -37.45 L81.6 -15.8 Q81.6 -14.65 81.1 -14.0 L81.7 -14.05 Q85.6 -14.05 88.55 -12.0 L88.55 -41.2 M61.1 -41.2 L60.35 -29.6 60.35 -23.65 61.1 -12.05 Q61.2 -10.95 62.55 -10.95 L68.75 -11.55 74.6 -12.7 79.05 -13.8 79.15 -13.8 79.3 -13.85 Q80.0 -14.0 80.35 -14.3 80.9 -14.65 80.9 -15.8 L80.9 -37.45 Q80.9 -38.6 80.35 -38.95 L79.3 -39.4 79.2 -39.4 79.1 -39.45 79.0 -39.45 74.5 -40.55 68.75 -41.7 62.55 -42.25 Q61.2 -42.25 61.1 -41.2 M12.05 -88.5 Q14.25 -85.45 14.1 -81.0 14.75 -81.55 15.85 -81.55 L37.55 -81.55 Q38.6 -81.55 39.3 -81.0 39.05 -85.45 41.3 -88.5 L12.05 -88.5 M26.0 -60.25 L41.3 -61.05 Q42.35 -61.15 42.35 -62.5 42.35 -64.5 41.75 -68.7 L40.6 -74.55 39.5 -78.95 39.5 -79.2 39.05 -80.3 Q38.6 -80.85 37.55 -80.85 L15.85 -80.85 Q14.8 -80.85 14.35 -80.3 L13.9 -79.25 13.9 -79.1 13.85 -79.05 13.85 -79.0 12.8 -74.55 11.6 -68.7 Q11.05 -64.3 11.05 -62.5 11.05 -61.15 12.1 -61.05 L26.0 -60.25 M11.4 -91.5 Q11.05 -91.5 11.05 -91.15 L11.05 -89.7 11.15 -89.3 11.25 -89.25 11.4 -89.2 41.95 -89.2 42.25 -89.5 42.25 -91.15 41.9 -91.5 11.4 -91.5 M91.55 -41.85 L91.2 -42.2 89.6 -42.2 Q89.25 -42.2 89.25 -41.85 L89.25 -11.35 89.35 -11.15 89.35 -11.1 89.75 -10.95 91.2 -10.95 Q91.55 -10.95 91.55 -11.3 L91.55 -41.85 M-11.1 91.25 L-11.1 89.6 -11.4 89.25 -41.9 89.25 -42.1 89.35 -42.15 89.4 -42.25 89.6 -42.3 89.75 -42.3 91.25 -41.95 91.55 -11.4 91.55 Q-11.1 91.55 -11.1 91.25 M-12.05 88.55 Q-14.25 85.45 -14.05 81.1 -14.6 81.6 -15.8 81.6 L-37.5 81.6 Q-38.6 81.6 -39.25 81.1 -39.0 85.55 -41.3 88.55 L-12.05 88.55 M-12.05 61.1 L-22.35 60.5 -30.95 60.5 -41.25 61.1 Q-42.3 61.2 -42.3 62.55 -42.3 64.55 -41.7 68.8 L-40.55 74.6 -39.45 79.05 -39.45 79.3 -39.0 80.4 Q-38.55 80.9 -37.5 80.9 L-15.8 80.9 Q-14.75 80.9 -14.3 80.4 L-13.85 79.35 -13.85 79.2 -13.8 79.1 -13.8 79.05 Q-11.75 70.5 -11.55 68.8 -11.0 64.3 -11.0 62.55 -11.0 61.2 -12.05 61.1 M-81.65 39.3 L-81.05 39.3 Q-81.55 38.75 -81.55 37.55 L-81.55 15.85 Q-81.55 14.75 -81.05 14.1 -85.45 14.35 -88.5 12.1 L-88.5 41.35 Q-85.75 39.3 -81.65 39.3 M-61.05 41.3 L-60.3 29.7 -60.3 23.75 -61.05 12.1 Q-61.15 11.05 -62.5 11.05 L-68.7 11.65 -74.55 12.8 -79.0 13.85 -79.0 13.9 -79.25 13.9 -80.3 14.35 Q-80.85 14.75 -80.85 15.85 L-80.85 37.55 Q-80.85 38.65 -80.3 39.05 L-79.25 39.5 -79.15 39.5 -79.05 39.55 -78.95 39.55 -68.7 41.8 -62.5 42.35 Q-61.15 42.35 -61.05 41.3 M-91.5 42.0 L-91.15 42.35 -89.7 42.35 -89.55 42.3 -89.3 42.25 -89.25 42.15 -89.2 42.0 -89.2 11.45 Q-89.2 11.15 -89.55 11.15 L-91.15 11.15 Q-91.5 11.15 -91.5 11.5 L-91.5 42.0 M-91.5 -11.3 Q-91.5 -10.95 -91.15 -10.95 L-89.7 -10.95 -89.3 -11.1 -89.25 -11.15 -89.2 -11.35 -89.2 -41.85 Q-89.2 -42.2 -89.55 -42.2 L-91.15 -42.2 -91.5 -41.85 -91.5 -11.3 M-81.65 -14.05 L-81.05 -14.0 Q-81.55 -14.65 -81.55 -15.8 L-81.55 -37.45 Q-81.55 -38.65 -81.05 -39.2 -85.3 -39.05 -88.5 -41.2 L-88.5 -12.0 Q-85.55 -14.05 -81.65 -14.05 M59.7 23.7 L59.65 -28.95 59.7 -29.6 59.7 -59.5 -59.65 -59.5 -59.65 -29.65 -59.6 -24.3 -59.65 -23.65 -59.65 29.7 -59.65 59.75 59.7 59.75 59.7 29.7 59.65 29.05 59.7 23.7 M-61.05 -12.05 L-60.3 -23.65 -60.3 -29.6 -61.05 -41.2 Q-61.15 -42.25 -62.5 -42.25 L-68.7 -41.7 Q-72.05 -41.3 -79.0 -39.45 L-79.1 -39.45 -79.25 -39.4 Q-79.95 -39.25 -80.3 -38.95 -80.85 -38.6 -80.85 -37.45 L-80.85 -15.8 Q-80.85 -14.65 -80.3 -14.3 -79.9 -13.95 -79.25 -13.85 L-79.15 -13.8 -79.0 -13.8 -68.7 -11.55 -62.5 -10.95 Q-61.15 -10.95 -61.05 -12.05 M-41.3 -88.5 Q-39.0 -85.35 -39.25 -81.0 -38.55 -81.55 -37.5 -81.55 L-15.8 -81.55 Q-14.7 -81.55 -14.05 -81.0 -14.2 -85.3 -12.05 -88.5 L-41.3 -88.5 M-28.95 -60.25 L-12.05 -61.05 Q-11.0 -61.15 -11.0 -62.5 -11.0 -64.3 -11.55 -68.7 -11.75 -70.5 -12.7 -74.55 L-13.8 -78.95 -13.8 -79.0 -13.85 -79.1 -13.85 -79.2 -14.3 -80.3 Q-14.75 -80.85 -15.8 -80.85 L-37.5 -80.85 Q-38.55 -80.85 -39.0 -80.3 L-39.4 -79.25 -39.45 -79.1 -39.45 -79.0 Q-41.3 -72.05 -41.7 -68.7 -42.3 -64.5 -42.3 -62.5 -42.3 -61.15 -41.25 -61.05 L-28.95 -60.25 M-41.95 -91.5 L-42.3 -91.15 -42.3 -89.7 -42.25 -89.5 -42.15 -89.3 -42.1 -89.25 -41.9 -89.2 -11.4 -89.2 Q-11.1 -89.2 -11.1 -89.5 L-11.1 -91.15 Q-11.1 -91.5 -11.4 -91.5 L-41.95 -91.5 M60.4 -11.95 L60.35 -12.45 60.35 12.55 60.4 12.05 Q60.55 10.35 62.55 10.35 L68.85 10.95 Q71.75 11.3 79.2 13.2 L79.5 13.25 Q84.9 14.15 88.6 11.2 88.8 10.4 89.6 10.4 L89.75 10.45 91.2 10.45 Q91.65 10.45 91.95 10.75 L92.25 11.5 92.25 42.0 91.95 42.75 91.2 43.05 89.6 43.05 Q89.2 43.05 88.9 42.75 L88.75 42.6 88.6 42.3 Q87.6 41.4 85.9 40.75 82.9 39.65 79.45 40.2 L79.2 40.2 68.85 42.5 62.55 43.05 Q60.55 43.05 60.4 41.35 L60.35 40.9 60.35 60.5 41.65 60.5 Q43.05 60.75 43.05 62.55 43.05 64.65 42.45 68.9 42.1 71.75 40.2 79.25 L40.15 79.5 Q39.6 82.95 40.7 85.95 41.3 87.6 42.2 88.6 43.0 88.8 43.0 89.6 L42.95 89.75 42.95 91.25 42.65 91.95 41.9 92.25 11.4 92.25 Q10.95 92.25 10.65 91.95 10.35 91.65 10.35 91.25 L10.35 89.6 Q10.35 89.3 10.65 88.9 L10.8 88.8 11.1 88.65 11.1 88.6 12.65 85.9 Q13.75 82.95 13.2 79.45 L13.2 79.25 Q11.25 71.45 10.9 68.9 10.35 64.4 10.35 62.55 10.35 60.75 11.7 60.5 L-11.65 60.5 Q-10.3 60.75 -10.3 62.55 -10.3 64.4 -10.85 68.9 -11.1 70.75 -12.05 74.8 L-13.15 79.25 -13.2 79.5 Q-13.75 82.95 -12.65 85.9 -12.0 87.65 -11.15 88.6 -10.35 88.8 -10.35 89.6 L-10.4 89.75 -10.4 91.25 Q-10.4 91.65 -10.7 91.95 -11.0 92.25 -11.4 92.25 L-41.95 92.25 -42.7 91.95 -43.0 91.25 -43.0 89.6 -42.65 88.9 -42.5 88.8 -42.45 88.75 -42.25 88.65 -42.2 88.6 Q-41.3 87.6 -40.65 85.9 -39.55 82.95 -40.1 79.45 L-40.15 79.25 Q-42.1 71.5 -42.4 68.9 -43.0 64.65 -43.0 62.55 -43.0 60.75 -41.6 60.5 L-60.3 60.5 -60.3 40.9 -60.35 41.35 Q-60.5 43.05 -62.5 43.05 L-68.8 42.5 -74.75 41.3 -79.15 40.2 -79.45 40.15 Q-82.9 39.6 -85.85 40.75 -87.55 41.4 -88.55 42.3 L-88.7 42.6 -88.85 42.75 Q-89.15 43.05 -89.55 43.05 L-91.15 43.05 Q-91.6 43.05 -91.9 42.75 L-92.2 42.0 -92.2 11.5 -91.9 10.75 Q-91.6 10.45 -91.15 10.45 L-89.7 10.45 -89.55 10.4 Q-88.75 10.4 -88.55 11.2 -84.85 14.15 -79.4 13.25 L-79.15 13.2 Q-72.3 11.35 -68.8 10.95 L-62.5 10.35 Q-60.5 10.35 -60.35 12.05 L-60.3 12.55 -60.3 -12.45 -60.35 -11.95 Q-60.5 -10.25 -62.5 -10.25 L-68.8 -10.85 -74.7 -12.05 -79.15 -13.1 -79.45 -13.15 Q-82.9 -13.7 -85.85 -12.6 -87.55 -11.95 -88.55 -11.05 L-88.55 -11.0 -88.65 -10.85 -88.7 -10.75 -88.85 -10.6 Q-89.1 -10.25 -89.55 -10.25 L-91.15 -10.25 Q-91.6 -10.25 -91.9 -10.55 L-92.2 -11.3 -92.2 -41.85 -91.9 -42.6 -91.15 -42.9 -89.7 -42.9 -89.55 -42.95 Q-88.75 -42.95 -88.55 -42.15 -87.55 -41.25 -85.85 -40.6 -82.85 -39.55 -79.4 -40.1 L-79.15 -40.15 Q-72.75 -41.85 -68.8 -42.4 L-62.5 -42.95 Q-60.5 -42.95 -60.35 -41.25 L-60.3 -40.8 -60.3 -60.25 -39.55 -60.25 -41.3 -60.35 Q-43.0 -60.45 -43.0 -62.5 -43.0 -64.5 -42.4 -68.8 -42.2 -70.6 -41.2 -74.7 L-40.15 -79.15 -40.1 -79.4 Q-39.2 -84.8 -42.2 -88.55 L-42.25 -88.55 -42.45 -88.65 -42.5 -88.7 -42.65 -88.8 -43.0 -89.5 -43.0 -91.15 -42.7 -91.9 -41.95 -92.2 -11.4 -92.2 Q-11.0 -92.2 -10.7 -91.9 -10.4 -91.55 -10.4 -91.15 L-10.4 -89.7 -10.35 -89.5 Q-10.35 -88.75 -11.15 -88.55 L-11.15 -88.5 Q-12.0 -87.55 -12.65 -85.8 -13.7 -82.85 -13.15 -79.4 L-13.15 -79.15 Q-11.35 -72.35 -10.85 -68.8 -10.3 -64.3 -10.3 -62.5 -10.3 -60.45 -12.0 -60.35 L-13.75 -60.25 13.8 -60.25 12.05 -60.35 Q10.35 -60.45 10.35 -62.5 10.35 -64.3 10.9 -68.8 11.15 -70.65 12.1 -74.7 L13.2 -79.15 13.25 -79.4 Q14.1 -84.8 11.1 -88.55 L10.8 -88.7 10.65 -88.8 Q10.35 -89.2 10.35 -89.5 L10.35 -91.15 10.65 -91.9 11.4 -92.2 41.9 -92.2 42.65 -91.9 42.95 -91.15 42.95 -89.7 43.0 -89.5 Q43.0 -88.75 42.2 -88.55 L42.2 -88.5 Q41.35 -87.5 40.7 -85.8 39.6 -82.85 40.15 -79.4 L40.2 -79.15 Q42.05 -72.3 42.45 -68.8 43.05 -64.5 43.05 -62.5 43.05 -60.45 41.35 -60.35 L39.6 -60.25 60.35 -60.25 60.35 -40.8 60.4 -41.25 Q60.55 -42.95 62.55 -42.95 L68.85 -42.4 Q71.75 -42.05 79.2 -40.15 L79.5 -40.1 Q82.95 -39.55 85.9 -40.6 87.6 -41.25 88.6 -42.15 88.8 -42.95 89.6 -42.95 L89.75 -42.9 91.2 -42.9 91.95 -42.6 92.25 -41.85 92.25 -11.3 91.95 -10.55 Q91.65 -10.25 91.2 -10.25 L89.6 -10.25 Q89.15 -10.25 88.9 -10.6 L88.75 -10.75 88.7 -10.85 88.6 -11.0 88.6 -11.05 Q87.6 -11.95 85.9 -12.6 82.9 -13.7 79.45 -13.15 L79.2 -13.1 Q71.45 -11.15 68.85 -10.85 L62.55 -10.25 Q60.55 -10.25 60.4 -11.95" fill="#000000" fill-rule="evenodd" stroke="none" class="line" />
    </g>
  </defs>
  <g transform="matrix(1.0, 0.0, 0.0, 1.0, 0.0, 0.0)">
    <use height="183.75" id="Fill" transform="matrix(0.5442, 0.0, 0.0, 0.5442, 0.0134, 0.0134)" width="183.75" xlink:href="#sprite0" />
    <use height="184.45" id="Line" transform="matrix(0.5421, 0.0, 0.0, 0.5421, 0.0143, 0.0143)" width="184.45" xlink:href="#sprite1" />
  </g>
</svg>