<?xml version="1.0" encoding="UTF-8" standalone="no"?>
<svg xmlns:xlink="http://www.w3.org/1999/xlink" height="100%" width="100%" xmlns="http://www.w3.org/2000/svg" preserveAspectRatio="none" viewBox="0 0 100 100">
  <defs>
    <g id="sprite0" transform="matrix(1.0, 0.0, 0.0, 1.0, 67.9, 31.1)">
      <use height="62.3" transform="matrix(1.0, 0.0, 0.0, 1.0, -67.9, -31.1)" width="135.8" xlink:href="#shape0" />
    </g>
    <g id="shape0" transform="matrix(1.0, 0.0, 0.0, 1.0, 67.9, 31.1)">
      <path d="M67.9 -2.8 L33.9 31.2 Q19.8 17.1 0.0 17.1 -19.8 17.1 -33.9 31.2 L-67.9 -2.8 Q-39.8 -30.9 0.0 -31.1 39.8 -30.9 67.9 -2.8" fill="#ffffff" fill-rule="evenodd" stroke="none" class="fill" />
    </g>
    <g id="sprite1" transform="matrix(1.0, 0.0, 0.0, 1.0, 68.4, 31.6)">
      <use height="63.3" transform="matrix(1.0, 0.0, 0.0, 1.0, -68.4, -31.6)" width="136.8" xlink:href="#shape1" />
    </g>
    <g id="shape1" transform="matrix(1.0, 0.0, 0.0, 1.0, 68.4, 31.6)">
      <path d="M67.2 -2.8 Q39.35 -30.4 0.0 -30.6 -39.35 -30.4 -67.2 -2.8 L-33.9 30.5 Q-19.75 16.6 0.0 16.6 19.75 16.6 33.9 30.5 L67.2 -2.8 M68.25 -3.15 L68.4 -2.8 68.25 -2.45 34.25 31.55 33.9 31.7 Q33.7 31.7 33.55 31.55 19.6 17.6 0.0 17.6 -19.6 17.6 -33.55 31.55 -33.7 31.7 -33.9 31.7 L-34.25 31.55 -68.25 -2.45 -68.4 -2.8 -68.25 -3.15 Q-40.0 -31.4 0.0 -31.6 40.0 -31.4 68.25 -3.15" fill="#000000" fill-rule="evenodd" stroke="none" class="line" />
    </g>
  </defs>
  <g transform="matrix(1.0, 0.0, 0.0, 1.0, 0.0, 0.0)">
    <use height="62.3" id="fill" transform="matrix(0.731, 0.0, 0.0, 1.5798, 0.3659, 0.7691)" width="135.8" xlink:href="#sprite0" />
    <use height="63.3" id="line" transform="matrix(0.731, 0.0, 0.0, 1.5798, 0.0005, -0.0208)" width="136.8" xlink:href="#sprite1" />
  </g>
</svg>