<?xml version="1.0" encoding="UTF-8" standalone="no"?>
<svg xmlns:xlink="http://www.w3.org/1999/xlink" height="100%" width="100%" xmlns="http://www.w3.org/2000/svg" preserveAspectRatio="none" viewBox="0 0 100 100">
  <defs>
    <g id="sprite0" transform="matrix(1.0, 0.0, 0.0, 1.0, 43.05, 20.1)">
      <use height="40.2" transform="matrix(1.0, 0.0, 0.0, 1.0, -43.05, -20.1)" width="86.15" xlink:href="#shape0" />
    </g>
    <g id="shape0" transform="matrix(1.0, 0.0, 0.0, 1.0, 43.05, 20.1)">
      <path d="M4.75 -16.4 Q4.5 -16.55 4.4 -16.8 L4.35 -17.0 4.3 -17.3 4.3 -19.1 Q4.3 -20.1 5.3 -20.1 L41.95 -20.1 Q42.95 -20.1 42.95 -19.1 L42.95 -17.3 42.9 -17.0 42.85 -16.8 42.5 -16.4 Q38.65 -12.0 39.5 -4.7 42.65 6.4 43.1 17.0 43.2 19.0 41.2 19.0 L23.35 20.1 6.05 19.0 Q4.05 19.0 4.15 17.0 4.6 6.4 7.75 -4.7 8.6 -12.0 4.75 -16.4 M-42.8 -16.8 L-42.85 -17.0 -42.9 -17.3 -42.9 -19.1 Q-42.9 -20.1 -41.9 -20.1 L-5.25 -20.1 Q-4.25 -20.1 -4.25 -19.1 L-4.25 -17.3 -4.3 -17.0 -4.35 -16.8 -4.7 -16.4 Q-8.55 -12.0 -7.7 -4.7 -4.55 6.4 -4.1 17.0 -4.0 19.0 -6.0 19.0 L-23.85 20.1 -41.15 19.0 Q-43.15 19.0 -43.05 17.0 -42.6 6.4 -39.45 -4.7 -38.6 -12.0 -42.45 -16.4 L-42.8 -16.8" fill="#ffffff" fill-rule="evenodd" stroke="none" class="fill" />
    </g>
    <g id="sprite1" transform="matrix(1.0, 0.0, 0.0, 1.0, 43.55, 20.6)">
      <use height="41.2" transform="matrix(1.0, 0.0, 0.0, 1.0, -43.55, -20.6)" width="87.15" xlink:href="#shape1" />
    </g>
    <g id="shape1" transform="matrix(1.0, 0.0, 0.0, 1.0, 43.55, 20.6)">
      <path d="M8.25 -4.65 L8.25 -4.6 8.2 -4.45 Q5.1 6.55 4.65 17.05 4.6 17.75 4.95 18.15 L6.05 18.5 6.1 18.5 23.35 19.6 41.15 18.5 41.2 18.5 Q41.95 18.5 42.35 18.15 42.65 17.75 42.6 17.05 42.15 6.55 39.05 -4.45 L39.0 -4.6 39.0 -4.65 Q38.75 -6.2 37.2 -6.2 L10.05 -6.2 Q8.5 -6.2 8.25 -4.65 M8.4 -6.8 Q9.05 -7.2 10.05 -7.2 L37.2 -7.2 Q38.2 -7.2 38.85 -6.8 38.75 -12.15 41.4 -15.8 L5.9 -15.8 Q8.5 -12.15 8.4 -6.8 M3.95 -16.6 L3.85 -16.9 3.8 -17.3 3.8 -19.1 Q3.8 -20.6 5.3 -20.6 L41.95 -20.6 Q43.45 -20.6 43.45 -19.1 L43.45 -17.3 43.4 -16.9 43.35 -16.6 43.3 -16.55 42.85 -16.0 Q39.2 -11.75 40.0 -4.75 43.15 6.35 43.6 17.0 43.65 18.25 43.05 18.85 42.45 19.5 41.25 19.5 L23.35 20.6 6.0 19.5 Q4.8 19.5 4.25 18.85 3.6 18.25 3.65 17.0 4.1 6.35 7.25 -4.75 8.05 -11.75 4.45 -16.0 L3.95 -16.55 3.95 -16.6 M4.8 -17.3 L4.85 -17.15 4.85 -17.0 4.9 -16.95 4.95 -16.85 5.3 -16.8 41.95 -16.8 42.3 -16.85 42.4 -16.95 42.4 -17.0 42.45 -17.15 42.45 -17.3 42.45 -19.1 Q42.45 -19.6 41.95 -19.6 L5.3 -19.6 Q4.8 -19.6 4.8 -19.1 L4.8 -17.3" fill="#000000" fill-rule="evenodd" stroke="none" class="line" />
      <path d="M-37.15 -6.2 Q-38.7 -6.2 -38.95 -4.65 L-38.95 -4.6 -39.0 -4.45 Q-42.1 6.55 -42.55 17.05 -42.6 17.75 -42.25 18.15 -41.9 18.5 -41.15 18.5 L-41.1 18.5 -23.85 19.6 -6.05 18.5 -6.0 18.5 Q-5.25 18.5 -4.85 18.15 -4.55 17.75 -4.6 17.05 -5.05 6.55 -8.15 -4.45 L-8.2 -4.6 -8.2 -4.65 Q-8.45 -6.2 -10.0 -6.2 L-37.15 -6.2 M-38.8 -6.8 Q-38.15 -7.2 -37.15 -7.2 L-10.0 -7.2 Q-9.0 -7.2 -8.35 -6.8 -8.45 -12.15 -5.8 -15.8 L-41.3 -15.8 Q-38.7 -12.15 -38.8 -6.8 M-43.4 -19.1 Q-43.4 -20.6 -41.9 -20.6 L-5.25 -20.6 Q-3.75 -20.6 -3.75 -19.1 L-3.75 -17.3 -3.8 -16.9 -3.85 -16.6 -3.9 -16.55 -4.35 -16.0 Q-8.0 -11.75 -7.2 -4.75 -4.05 6.35 -3.6 17.0 -3.55 18.25 -4.15 18.85 -4.75 19.5 -5.95 19.5 L-23.85 20.6 -41.2 19.5 Q-42.4 19.5 -42.95 18.85 -43.6 18.25 -43.55 17.0 -43.1 6.35 -39.95 -4.75 -39.15 -11.75 -42.75 -16.0 L-43.25 -16.55 -43.25 -16.6 -43.35 -16.9 -43.4 -17.3 -43.4 -19.1 M-41.9 -19.6 Q-42.4 -19.6 -42.4 -19.1 L-42.4 -17.3 -42.35 -17.15 -42.35 -17.0 -42.3 -16.95 -42.25 -16.85 -41.9 -16.8 -5.25 -16.8 -4.9 -16.85 -4.8 -16.95 -4.8 -17.0 -4.75 -17.15 -4.75 -17.3 -4.75 -19.1 Q-4.75 -19.6 -5.25 -19.6 L-41.9 -19.6" fill="#000000" fill-rule="evenodd" stroke="none" class="line" />
    </g>
  </defs>
  <g transform="matrix(1.0, 0.0, 0.0, 1.0, 0.0, 0.0)">
    <use height="40.2" id="fill" transform="matrix(1.1465, 0.0, 0.0, 2.428, 0.6438, 1.1979)" width="86.15" xlink:href="#sprite0" />
    <use height="41.2" id="line" transform="matrix(1.1465, 0.0, 0.0, 2.428, 0.0706, -0.016)" width="87.15" xlink:href="#sprite1" />
  </g>
</svg>