<?xml version="1.0" encoding="UTF-8" standalone="no"?>
<svg xmlns:xlink="http://www.w3.org/1999/xlink" height="100%" width="100%" xmlns="http://www.w3.org/2000/svg" preserveAspectRatio="none" viewBox="0 0 100 100">
  <defs>
    <g id="sprite0" transform="matrix(1.0, 0.0, 0.0, 1.0, 231.55, 20.1)">
      <use height="40.2" transform="matrix(1.0, 0.0, 0.0, 1.0, -231.55, -20.1)" width="463.1" xlink:href="#shape0" />
    </g>
    <g id="shape0" transform="matrix(1.0, 0.0, 0.0, 1.0, 231.55, 20.1)">
      <path d="M-98.45 -19.1 L-98.45 -17.3 -98.5 -17.0 -98.55 -16.8 -98.9 -16.4 Q-102.75 -12.0 -101.9 -4.7 -98.75 6.4 -98.3 17.0 -98.2 19.0 -100.2 19.0 L-118.05 20.1 -135.35 19.0 Q-137.35 19.0 -137.25 17.0 -136.8 6.4 -133.65 -4.7 -132.8 -12.0 -136.65 -16.4 L-137.0 -16.8 -137.05 -17.0 -137.1 -17.3 -137.1 -19.1 Q-137.1 -20.1 -136.1 -20.1 L-99.45 -20.1 Q-98.45 -20.1 -98.45 -19.1 M-42.8 -19.1 Q-42.8 -20.1 -41.8 -20.1 L-5.15 -20.1 Q-4.15 -20.1 -4.15 -19.1 L-4.15 -17.3 -4.2 -17.0 -4.25 -16.8 -4.6 -16.4 Q-8.45 -12.0 -7.6 -4.7 -4.45 6.4 -4.0 17.0 -3.9 19.0 -5.9 19.0 L-23.75 20.1 -41.05 19.0 Q-43.05 19.0 -42.95 17.0 -42.5 6.4 -39.35 -4.7 -38.5 -12.0 -42.35 -16.4 L-42.7 -16.8 -42.75 -17.0 -42.8 -17.3 -42.8 -19.1 M-89.5 -16.4 L-89.85 -16.8 -89.9 -17.0 -89.95 -17.3 -89.95 -19.1 Q-89.95 -20.1 -88.95 -20.1 L-52.3 -20.1 Q-51.3 -20.1 -51.3 -19.1 L-51.3 -17.3 -51.35 -17.0 -51.4 -16.8 -51.75 -16.4 Q-55.6 -12.0 -54.75 -4.7 -51.6 6.4 -51.15 17.0 -51.05 19.0 -53.05 19.0 L-70.9 20.1 -88.2 19.0 Q-90.2 19.0 -90.1 17.0 -89.65 6.4 -86.5 -4.7 -85.65 -12.0 -89.5 -16.4 M-230.95 -16.4 L-231.3 -16.8 -231.35 -17.0 -231.4 -17.3 -231.4 -19.1 Q-231.4 -20.1 -230.4 -20.1 L-193.75 -20.1 Q-192.75 -20.1 -192.75 -19.1 L-192.75 -17.3 -192.8 -17.0 -192.85 -16.8 Q-192.95 -16.55 -193.2 -16.4 -197.05 -12.0 -196.2 -4.7 -193.05 6.4 -192.6 17.0 -192.5 19.0 -194.5 19.0 L-212.35 20.1 -229.65 19.0 Q-231.65 19.0 -231.55 17.0 -231.1 6.4 -227.95 -4.7 -227.1 -12.0 -230.95 -16.4 M-184.25 -19.1 Q-184.25 -20.1 -183.25 -20.1 L-146.6 -20.1 Q-145.6 -20.1 -145.6 -19.1 L-145.6 -17.3 -145.65 -17.0 -145.7 -16.8 -146.05 -16.4 Q-149.9 -12.0 -149.05 -4.7 -145.9 6.4 -145.45 17.0 -145.35 19.0 -147.35 19.0 L-165.2 20.1 -182.5 19.0 Q-184.5 19.0 -184.4 17.0 -183.95 6.4 -180.8 -4.7 -179.95 -12.0 -183.8 -16.4 L-184.15 -16.8 -184.2 -17.0 -184.25 -17.3 -184.25 -19.1" fill="#ffffff" fill-rule="evenodd" stroke="none" class="fill" />
      <path d="M137.1 -17.3 L137.05 -17.0 137.0 -16.8 136.65 -16.4 Q132.8 -12.0 133.65 -4.7 136.8 6.4 137.25 17.0 137.35 19.0 135.35 19.0 L117.5 20.1 100.2 19.0 Q98.2 19.0 98.3 17.0 98.75 6.4 101.9 -4.7 102.75 -12.0 98.9 -16.4 L98.55 -16.8 98.5 -17.0 98.45 -17.3 98.45 -19.1 Q98.45 -20.1 99.45 -20.1 L136.1 -20.1 Q137.1 -20.1 137.1 -19.1 L137.1 -17.3 M192.75 -19.1 Q192.75 -20.1 193.75 -20.1 L230.4 -20.1 Q231.4 -20.1 231.4 -19.1 L231.4 -17.3 231.35 -17.0 231.3 -16.8 230.95 -16.4 Q227.1 -12.0 227.95 -4.7 231.1 6.4 231.55 17.0 231.65 19.0 229.65 19.0 L211.8 20.1 194.5 19.0 Q192.5 19.0 192.6 17.0 193.05 6.4 196.2 -4.7 197.05 -12.0 193.2 -16.4 192.95 -16.55 192.85 -16.8 L192.8 -17.0 192.75 -17.3 192.75 -19.1 M146.05 -16.4 L145.7 -16.8 145.65 -17.0 145.6 -17.3 145.6 -19.1 Q145.6 -20.1 146.6 -20.1 L183.25 -20.1 Q184.25 -20.1 184.25 -19.1 L184.25 -17.3 184.2 -17.0 184.15 -16.8 183.8 -16.4 Q179.95 -12.0 180.8 -4.7 183.95 6.4 184.4 17.0 184.5 19.0 182.5 19.0 L164.65 20.1 147.35 19.0 Q145.35 19.0 145.45 17.0 145.9 6.4 149.05 -4.7 149.9 -12.0 146.05 -16.4 M4.6 -16.4 L4.25 -16.8 4.2 -17.0 4.15 -17.3 4.15 -19.1 Q4.15 -20.1 5.15 -20.1 L41.8 -20.1 Q42.8 -20.1 42.8 -19.1 L42.8 -17.3 42.75 -17.0 42.7 -16.8 42.35 -16.4 Q38.5 -12.0 39.35 -4.7 42.5 6.4 42.95 17.0 43.05 19.0 41.05 19.0 L23.2 20.1 5.9 19.0 Q3.9 19.0 4.0 17.0 4.45 6.4 7.6 -4.7 8.45 -12.0 4.6 -16.4 M51.3 -19.1 Q51.3 -20.1 52.3 -20.1 L88.95 -20.1 Q89.95 -20.1 89.95 -19.1 L89.95 -17.3 89.9 -17.0 89.85 -16.8 89.5 -16.4 Q85.65 -12.0 86.5 -4.7 89.65 6.4 90.1 17.0 90.2 19.0 88.2 19.0 L70.35 20.1 53.05 19.0 Q51.05 19.0 51.15 17.0 51.6 6.4 54.75 -4.7 55.6 -12.0 51.75 -16.4 L51.4 -16.8 51.35 -17.0 51.3 -17.3 51.3 -19.1" fill="#ffffff" fill-rule="evenodd" stroke="none" class="fill" />
    </g>
    <g id="sprite1" transform="matrix(1.0, 0.0, 0.0, 1.0, 232.55, 20.6)">
      <use height="41.2" transform="matrix(1.0, 0.0, 0.0, 1.0, -232.55, -20.6)" width="465.1" xlink:href="#shape1" />
    </g>
    <g id="shape1" transform="matrix(1.0, 0.0, 0.0, 1.0, 232.55, 20.6)">
      <path d="M-183.15 -15.8 Q-180.5 -12.15 -180.65 -6.8 L-179.0 -7.2 -151.85 -7.2 -150.2 -6.8 Q-150.3 -12.15 -147.65 -15.8 L-183.15 -15.8 M-180.8 -4.65 L-180.8 -4.6 -180.85 -4.45 Q-183.95 6.5 -184.4 17.05 -184.45 17.75 -184.1 18.15 L-183.0 18.5 -182.95 18.5 -165.7 19.6 -147.9 18.5 -147.85 18.5 Q-147.1 18.5 -146.7 18.15 -146.4 17.75 -146.45 17.05 -146.9 6.55 -150.0 -4.45 L-150.05 -4.6 -150.05 -4.65 Q-150.3 -6.2 -151.85 -6.2 L-179.0 -6.2 Q-180.55 -6.2 -180.8 -4.65 M-185.2 -16.9 L-185.25 -17.3 -185.25 -19.1 Q-185.25 -20.6 -183.75 -20.6 L-147.1 -20.6 Q-145.6 -20.6 -145.6 -19.1 L-145.6 -17.3 -145.65 -16.9 -145.7 -16.6 -145.75 -16.55 -146.2 -16.0 Q-149.85 -11.75 -149.05 -4.75 L-149.05 -4.7 Q-145.9 6.35 -145.45 17.0 -145.4 18.25 -146.0 18.85 -146.6 19.5 -147.8 19.5 L-165.7 20.6 -183.05 19.5 Q-184.25 19.5 -184.8 18.85 -185.45 18.25 -185.4 17.0 -184.95 6.35 -181.8 -4.75 -181.0 -11.75 -184.6 -16.0 L-185.1 -16.55 -185.1 -16.6 -185.2 -16.9 M-184.2 -17.15 L-184.2 -17.0 -184.15 -16.95 -184.1 -16.85 -183.75 -16.8 -147.1 -16.8 -146.75 -16.85 -146.65 -16.95 -146.65 -17.0 -146.6 -17.15 -146.6 -17.3 -146.6 -19.1 Q-146.6 -19.6 -147.1 -19.6 L-183.75 -19.6 Q-184.25 -19.6 -184.25 -19.1 L-184.25 -17.3 -184.2 -17.15 M-226.15 -6.2 Q-227.7 -6.2 -227.95 -4.65 L-227.95 -4.6 -228.0 -4.45 Q-229.8 1.9 -230.7 8.15 L-231.55 17.05 Q-231.6 17.75 -231.25 18.15 L-230.6 18.45 -230.15 18.5 -230.1 18.5 -221.3 19.35 -212.85 19.6 -207.45 19.5 -195.05 18.5 -195.0 18.5 Q-194.25 18.5 -193.85 18.15 -193.55 17.75 -193.6 17.05 -194.05 6.55 -197.15 -4.45 L-197.2 -4.6 -197.2 -4.65 Q-197.45 -6.15 -198.9 -6.2 L-226.15 -6.2 M-227.8 -6.8 L-226.15 -7.2 -198.9 -7.2 Q-197.95 -7.2 -197.35 -6.8 L-197.35 -7.2 Q-197.35 -12.3 -194.8 -15.8 L-230.3 -15.8 Q-227.65 -12.15 -227.8 -6.8 M-230.9 -19.6 Q-231.4 -19.6 -231.4 -19.1 L-231.4 -17.3 -231.35 -17.15 -231.35 -17.0 -231.3 -16.95 -231.25 -16.85 -230.9 -16.8 -194.2 -16.8 -193.9 -16.85 -193.8 -16.95 -193.8 -17.0 -193.75 -17.15 -193.75 -17.3 -193.75 -19.1 Q-193.75 -19.6 -194.2 -19.6 L-230.9 -19.6 M-232.4 -19.1 Q-232.4 -20.6 -230.9 -20.6 L-194.15 -20.6 Q-193.0 -20.55 -192.8 -19.6 L-192.75 -19.1 -192.75 -17.3 -192.8 -16.9 -192.8 -16.8 -192.85 -16.6 -192.9 -16.55 -193.35 -16.0 -193.5 -15.8 Q-196.35 -12.35 -196.35 -7.2 L-196.3 -6.2 -196.2 -4.75 -196.2 -4.7 Q-193.05 6.35 -192.6 17.0 -192.55 18.25 -193.15 18.85 L-193.85 19.35 -194.95 19.5 -207.5 20.5 -212.85 20.6 -230.2 19.5 -230.6 19.5 -231.3 19.3 -231.5 19.25 -231.95 18.85 -232.35 18.3 -232.55 17.0 Q-232.35 12.6 -231.7 8.15 -230.8 1.8 -228.95 -4.75 -228.15 -11.75 -231.75 -16.0 L-232.25 -16.55 -232.25 -16.6 -232.35 -16.9 -232.4 -17.3 -232.4 -19.1 M-39.2 -6.8 Q-38.55 -7.2 -37.55 -7.2 L-10.4 -7.2 Q-9.4 -7.2 -8.75 -6.8 -8.85 -12.15 -6.2 -15.8 L-41.7 -15.8 Q-39.1 -12.15 -39.2 -6.8 M-39.35 -4.65 L-39.35 -4.6 -39.4 -4.45 Q-42.5 6.55 -42.95 17.05 -43.0 17.75 -42.65 18.15 -42.3 18.5 -41.55 18.5 L-41.5 18.5 -24.25 19.6 -6.45 18.5 -6.4 18.5 Q-5.65 18.5 -5.25 18.15 -4.95 17.75 -5.0 17.05 -5.45 6.55 -8.55 -4.45 L-8.6 -4.6 -8.6 -4.65 Q-8.85 -6.2 -10.4 -6.2 L-37.55 -6.2 Q-39.1 -6.2 -39.35 -4.65 M-42.7 -16.95 L-42.65 -16.85 -42.3 -16.8 -5.65 -16.8 -5.3 -16.85 -5.2 -16.95 -5.2 -17.0 -5.15 -17.15 -5.15 -17.3 -5.15 -19.1 Q-5.15 -19.6 -5.65 -19.6 L-42.3 -19.6 Q-42.8 -19.6 -42.8 -19.1 L-42.8 -17.3 -42.75 -17.15 -42.75 -17.0 -42.7 -16.95 M-43.65 -16.6 L-43.75 -16.9 -43.8 -17.3 -43.8 -19.1 Q-43.8 -20.6 -42.3 -20.6 L-5.65 -20.6 Q-4.15 -20.6 -4.15 -19.1 L-4.15 -17.3 -4.2 -16.9 -4.25 -16.6 -4.3 -16.55 -4.75 -16.0 Q-8.4 -11.75 -7.6 -4.75 L-7.6 -4.7 Q-4.45 6.35 -4.0 17.0 -3.95 18.25 -4.55 18.85 -5.15 19.5 -6.35 19.5 L-24.25 20.6 -41.6 19.5 Q-42.8 19.5 -43.35 18.85 -44.0 18.25 -43.95 17.0 -43.5 6.35 -40.35 -4.75 -39.55 -11.75 -43.15 -16.0 L-43.65 -16.55 -43.65 -16.6 M-86.35 -6.8 L-84.7 -7.2 -57.55 -7.2 -55.9 -6.8 Q-56.0 -12.15 -53.35 -15.8 L-88.85 -15.8 Q-86.25 -12.15 -86.35 -6.8 M-86.5 -4.65 L-86.5 -4.6 -86.55 -4.45 Q-89.65 6.55 -90.1 17.05 -90.15 17.75 -89.8 18.15 -89.45 18.5 -88.7 18.5 L-88.65 18.5 -71.4 19.6 -53.6 18.5 -53.55 18.5 Q-52.8 18.5 -52.4 18.15 -52.1 17.75 -52.15 17.05 -52.6 6.55 -55.7 -4.45 L-55.75 -4.6 -55.75 -4.65 Q-56.0 -6.2 -57.55 -6.2 L-84.7 -6.2 Q-86.25 -6.2 -86.5 -4.65 M-89.45 -19.6 Q-89.95 -19.6 -89.95 -19.1 L-89.95 -17.3 -89.9 -17.15 -89.9 -17.0 -89.85 -16.95 -89.8 -16.85 -89.45 -16.8 -52.8 -16.8 -52.45 -16.85 -52.35 -16.95 -52.35 -17.0 -52.3 -17.15 -52.3 -17.3 -52.3 -19.1 Q-52.3 -19.6 -52.8 -19.6 L-89.45 -19.6 M-90.95 -19.1 Q-90.95 -20.6 -89.45 -20.6 L-52.8 -20.6 Q-51.3 -20.6 -51.3 -19.1 L-51.3 -17.3 -51.35 -16.9 -51.4 -16.6 -51.45 -16.55 -51.9 -16.0 Q-55.55 -11.75 -54.75 -4.75 -51.6 6.35 -51.15 17.0 -51.1 18.25 -51.7 18.85 -52.3 19.5 -53.5 19.5 L-71.4 20.6 -88.75 19.5 Q-89.95 19.5 -90.5 18.85 -91.15 18.25 -91.1 17.0 -90.65 6.35 -87.5 -4.75 -86.7 -11.75 -90.3 -16.0 L-90.8 -16.55 -90.8 -16.6 -90.9 -16.9 -90.95 -17.3 -90.95 -19.1 M-102.9 -4.65 Q-103.15 -6.2 -104.7 -6.2 L-131.85 -6.2 Q-133.4 -6.2 -133.65 -4.65 L-133.65 -4.6 -133.7 -4.45 Q-136.8 6.55 -137.25 17.05 -137.3 17.75 -136.95 18.15 -136.6 18.5 -135.85 18.5 L-135.8 18.5 -118.55 19.6 -100.75 18.5 -100.7 18.5 Q-99.95 18.5 -99.55 18.15 -99.25 17.75 -99.3 17.05 -99.75 6.55 -102.85 -4.45 L-102.9 -4.6 -102.9 -4.65 M-104.7 -7.2 Q-103.7 -7.2 -103.05 -6.8 -103.15 -12.15 -100.5 -15.8 L-136.0 -15.8 Q-133.4 -12.15 -133.5 -6.8 -132.85 -7.2 -131.85 -7.2 L-104.7 -7.2 M-99.95 -20.6 Q-98.45 -20.6 -98.45 -19.1 L-98.45 -17.3 -98.5 -16.9 -98.55 -16.6 -98.6 -16.55 -99.05 -16.0 Q-102.7 -11.75 -101.9 -4.75 L-101.9 -4.7 Q-98.75 6.35 -98.3 17.0 -98.25 18.25 -98.85 18.85 -99.45 19.5 -100.65 19.5 L-118.55 20.6 -135.9 19.5 Q-137.1 19.5 -137.65 18.85 -138.3 18.25 -138.25 17.0 -137.8 6.4 -134.65 -4.7 L-134.65 -4.75 Q-133.85 -11.75 -137.45 -16.0 L-137.95 -16.55 -137.95 -16.6 -138.05 -16.9 -138.1 -17.3 -138.1 -19.1 Q-138.1 -20.6 -136.6 -20.6 L-99.95 -20.6 M-99.45 -19.1 Q-99.45 -19.6 -99.95 -19.6 L-136.6 -19.6 Q-137.1 -19.6 -137.1 -19.1 L-137.1 -17.3 -137.05 -17.15 -137.05 -17.0 -137.0 -16.95 -136.95 -16.85 -136.6 -16.8 -99.95 -16.8 -99.6 -16.85 -99.5 -16.95 -99.5 -17.0 -99.45 -17.15 -99.45 -17.3 -99.45 -19.1" fill="#000000" fill-rule="evenodd" stroke="none" class="line" />
      <path d="M53.4 -15.8 Q56.05 -12.15 55.9 -6.8 L57.55 -7.2 84.7 -7.2 86.35 -6.8 Q86.25 -12.15 88.9 -15.8 L53.4 -15.8 M55.75 -4.65 L55.75 -4.6 55.7 -4.45 Q52.6 6.5 52.15 17.05 52.1 17.75 52.45 18.15 52.8 18.5 53.55 18.5 L53.6 18.5 70.85 19.6 88.65 18.5 88.7 18.5 89.85 18.15 Q90.15 17.75 90.1 17.05 89.65 6.55 86.55 -4.45 L86.5 -4.6 86.5 -4.65 Q86.25 -6.2 84.7 -6.2 L57.55 -6.2 Q56.0 -6.2 55.75 -4.65 M52.3 -17.3 L52.35 -17.15 52.35 -17.0 52.4 -16.95 52.45 -16.85 52.8 -16.8 89.45 -16.8 89.8 -16.85 89.9 -16.95 89.9 -17.0 89.95 -17.15 89.95 -17.3 89.95 -19.1 Q89.95 -19.6 89.45 -19.6 L52.8 -19.6 Q52.3 -19.6 52.3 -19.1 L52.3 -17.3 M51.35 -16.9 L51.3 -17.3 51.3 -19.1 Q51.3 -20.6 52.8 -20.6 L89.45 -20.6 Q90.95 -20.6 90.95 -19.1 L90.95 -17.3 90.9 -16.9 90.85 -16.6 90.8 -16.55 90.35 -16.0 Q86.7 -11.75 87.5 -4.75 L87.5 -4.7 Q90.65 6.35 91.1 17.0 91.15 18.25 90.55 18.85 89.95 19.5 88.75 19.5 L70.85 20.6 53.5 19.5 Q52.3 19.5 51.75 18.85 51.1 18.25 51.15 17.0 51.6 6.35 54.75 -4.75 55.55 -11.75 51.95 -16.0 L51.45 -16.55 51.45 -16.6 51.35 -16.9 M8.75 -6.8 Q9.4 -7.2 10.4 -7.2 L37.65 -7.2 Q38.6 -7.2 39.2 -6.8 L39.2 -7.2 Q39.2 -12.3 41.75 -15.8 L6.25 -15.8 Q8.9 -12.15 8.75 -6.8 M10.4 -6.2 Q8.85 -6.2 8.6 -4.65 L8.6 -4.6 8.55 -4.45 Q6.75 1.9 5.85 8.15 5.2 12.6 5.0 17.05 4.95 17.75 5.3 18.15 5.55 18.4 5.95 18.45 L6.4 18.5 6.45 18.5 15.25 19.35 23.7 19.6 29.1 19.5 41.5 18.5 41.55 18.5 Q42.3 18.5 42.7 18.15 43.0 17.75 42.95 17.05 42.5 6.55 39.4 -4.45 L39.35 -4.6 39.35 -4.65 Q39.1 -6.15 37.65 -6.2 L10.4 -6.2 M4.15 -19.1 Q4.15 -20.6 5.65 -20.6 L42.4 -20.6 Q43.55 -20.55 43.75 -19.6 L43.8 -19.1 43.8 -17.3 43.75 -16.9 43.75 -16.8 43.7 -16.6 43.65 -16.55 43.2 -16.0 43.05 -15.8 Q40.2 -12.35 40.2 -7.2 L40.25 -6.2 40.35 -4.75 40.35 -4.7 Q43.5 6.35 43.95 17.0 44.0 18.25 43.4 18.85 L42.7 19.35 41.6 19.5 29.05 20.5 23.7 20.6 6.35 19.5 5.95 19.5 5.25 19.3 5.05 19.25 4.6 18.85 4.2 18.3 4.0 17.0 Q4.2 12.6 4.85 8.15 5.75 1.8 7.6 -4.75 8.4 -11.75 4.8 -16.0 L4.3 -16.55 4.3 -16.6 4.2 -16.9 4.15 -17.3 4.15 -19.1 M5.65 -19.6 Q5.15 -19.6 5.15 -19.1 L5.15 -17.3 5.2 -17.15 5.2 -17.0 5.25 -16.95 5.3 -16.85 5.65 -16.8 42.35 -16.8 42.65 -16.85 42.75 -16.95 42.75 -17.0 42.8 -17.15 42.8 -17.3 42.8 -19.1 Q42.8 -19.6 42.35 -19.6 L5.65 -19.6 M197.2 -4.65 L197.2 -4.6 197.15 -4.45 Q194.05 6.55 193.6 17.05 193.55 17.75 193.9 18.15 194.25 18.5 195.0 18.5 L195.05 18.5 212.3 19.6 230.1 18.5 230.15 18.5 231.3 18.15 Q231.6 17.75 231.55 17.05 231.1 6.55 228.0 -4.45 L227.95 -4.6 227.95 -4.65 Q227.7 -6.2 226.15 -6.2 L199.0 -6.2 Q197.45 -6.2 197.2 -4.65 M197.35 -6.8 Q198.0 -7.2 199.0 -7.2 L226.15 -7.2 227.8 -6.8 Q227.7 -12.15 230.35 -15.8 L194.85 -15.8 Q197.45 -12.15 197.35 -6.8 M192.9 -16.55 L192.9 -16.6 192.8 -16.9 192.75 -17.3 192.75 -19.1 Q192.75 -20.6 194.25 -20.6 L230.9 -20.6 Q232.4 -20.6 232.4 -19.1 L232.4 -17.3 232.35 -16.9 232.3 -16.6 232.25 -16.55 231.8 -16.0 Q228.15 -11.75 228.95 -4.75 L228.95 -4.7 Q232.1 6.35 232.55 17.0 232.6 18.25 232.0 18.85 231.4 19.5 230.2 19.5 L212.3 20.6 194.95 19.5 Q193.75 19.5 193.2 18.85 192.55 18.25 192.6 17.0 193.05 6.35 196.2 -4.75 197.0 -11.75 193.4 -16.0 L192.9 -16.55 M193.85 -16.95 L193.9 -16.85 194.25 -16.8 230.9 -16.8 231.25 -16.85 231.35 -16.95 231.35 -17.0 231.4 -17.15 231.4 -17.3 231.4 -19.1 Q231.4 -19.6 230.9 -19.6 L194.25 -19.6 Q193.75 -19.6 193.75 -19.1 L193.75 -17.3 193.8 -17.15 193.8 -17.0 193.85 -16.95 M150.05 -4.65 L150.05 -4.6 150.0 -4.45 Q146.9 6.55 146.45 17.05 146.4 17.75 146.75 18.15 147.1 18.5 147.85 18.5 L147.9 18.5 165.15 19.6 182.95 18.5 183.0 18.5 Q183.75 18.5 184.15 18.15 184.45 17.75 184.4 17.05 183.95 6.55 180.85 -4.45 L180.8 -4.6 180.8 -4.65 Q180.55 -6.2 179.0 -6.2 L151.85 -6.2 Q150.3 -6.2 150.05 -4.65 M150.2 -6.8 L151.85 -7.2 179.0 -7.2 180.65 -6.8 Q180.55 -12.15 183.2 -15.8 L147.7 -15.8 Q150.3 -12.15 150.2 -6.8 M145.6 -19.1 Q145.6 -20.6 147.1 -20.6 L183.75 -20.6 Q185.25 -20.6 185.25 -19.1 L185.25 -17.3 185.2 -16.9 185.15 -16.6 185.1 -16.55 184.65 -16.0 Q181.0 -11.75 181.8 -4.75 184.95 6.35 185.4 17.0 185.45 18.25 184.85 18.85 184.25 19.5 183.05 19.5 L165.15 20.6 147.8 19.5 Q146.6 19.5 146.05 18.85 145.4 18.25 145.45 17.0 145.9 6.35 149.05 -4.75 149.85 -11.75 146.25 -16.0 L145.75 -16.55 145.75 -16.6 145.65 -16.9 145.6 -17.3 145.6 -19.1 M147.1 -19.6 Q146.6 -19.6 146.6 -19.1 L146.6 -17.3 146.65 -17.15 146.65 -17.0 146.7 -16.95 146.75 -16.85 147.1 -16.8 183.75 -16.8 184.1 -16.85 184.2 -16.95 184.2 -17.0 184.25 -17.15 184.25 -17.3 184.25 -19.1 Q184.25 -19.6 183.75 -19.6 L147.1 -19.6 M131.85 -7.2 Q132.85 -7.2 133.5 -6.8 133.4 -12.15 136.05 -15.8 L100.55 -15.8 Q103.15 -12.15 103.05 -6.8 103.7 -7.2 104.7 -7.2 L131.85 -7.2 M133.65 -4.65 Q133.4 -6.2 131.85 -6.2 L104.7 -6.2 Q103.15 -6.2 102.9 -4.65 L102.9 -4.6 102.85 -4.45 Q99.75 6.55 99.3 17.05 99.25 17.75 99.6 18.15 99.95 18.5 100.7 18.5 L100.75 18.5 118.0 19.6 135.8 18.5 135.85 18.5 Q136.6 18.5 137.0 18.15 137.3 17.75 137.25 17.05 136.8 6.55 133.7 -4.45 L133.65 -4.6 133.65 -4.65 M137.1 -19.1 Q137.1 -19.6 136.6 -19.6 L99.95 -19.6 Q99.45 -19.6 99.45 -19.1 L99.45 -17.3 99.5 -17.15 99.5 -17.0 99.55 -16.95 99.6 -16.85 99.95 -16.8 136.6 -16.8 136.95 -16.85 137.05 -16.95 137.05 -17.0 137.1 -17.15 137.1 -17.3 137.1 -19.1 M136.6 -20.6 Q138.1 -20.6 138.1 -19.1 L138.1 -17.3 138.05 -16.9 138.0 -16.6 137.95 -16.55 137.5 -16.0 Q133.85 -11.75 134.65 -4.75 L134.65 -4.7 Q137.8 6.35 138.25 17.0 138.3 18.25 137.7 18.85 137.1 19.5 135.9 19.5 L118.0 20.6 100.65 19.5 Q99.45 19.5 98.9 18.85 98.25 18.25 98.3 17.0 98.75 6.4 101.9 -4.7 L101.9 -4.75 Q102.7 -11.75 99.1 -16.0 L98.6 -16.55 98.6 -16.6 98.5 -16.9 98.45 -17.3 98.45 -19.1 Q98.45 -20.6 99.95 -20.6 L136.6 -20.6" fill="#000000" fill-rule="evenodd" stroke="none" class="line" />
    </g>
  </defs>
  <g transform="matrix(1.0, 0.0, 0.0, 1.0, 0.0, 0.0)">
    <use height="40.2" id="fill" transform="matrix(0.215, 0.0, 0.0, 2.4272, 0.2141, 1.2136)" width="463.1" xlink:href="#sprite0" />
    <use height="41.2" id="line" transform="matrix(0.215, 0.0, 0.0, 2.4272, -0.0009, 0.0)" width="465.1" xlink:href="#sprite1" />
  </g>
</svg>