<?xml version="1.0" encoding="UTF-8" standalone="no"?>
<svg xmlns:xlink="http://www.w3.org/1999/xlink" height="100%" width="100%" xmlns="http://www.w3.org/2000/svg" preserveAspectRatio="none" viewBox="0 0 100 100">
  <defs>
    <g id="sprite0" transform="matrix(1.0, 0.0, 0.0, 1.0, 72.0, 62.0)">
      <use height="124.0" transform="matrix(1.0, 0.0, 0.0, 1.0, -72.0, -62.0)" width="144.0" xlink:href="#shape0" />
    </g>
    <g id="shape0" transform="matrix(1.0, 0.0, 0.0, 1.0, 72.0, 62.0)">
      <path d="M-72.0 30.05 L-72.0 -30.0 72.0 -30.0 72.0 30.05 -72.0 30.05" fill="#ffffff" fill-rule="evenodd" stroke="none" class="fill" />
      <path d="M-14.0 -49.25 L-13.95 -49.45 Q-13.3 -53.3 -14.7 -56.5 L-16.2 -58.95 -16.3 -59.0 -16.6 -59.2 -16.85 -59.65 -16.85 -61.3 Q-16.85 -62.0 -16.15 -62.0 L14.4 -62.0 14.85 -61.8 15.05 -61.3 15.05 -59.65 15.1 -59.65 Q15.1 -59.1 14.55 -59.0 L14.45 -58.95 13.0 -56.5 Q11.7 -53.3 12.3 -49.45 L12.35 -49.25 Q14.3 -41.55 14.6 -38.9 L15.15 -32.6 Q15.15 -30.95 13.8 -30.85 L-0.85 -30.0 -15.45 -30.85 Q-16.85 -30.95 -16.85 -32.6 -16.85 -34.55 -16.25 -38.9 -15.9 -41.55 -14.0 -49.25" fill="#ffffff" fill-rule="evenodd" stroke="none" class="fill" />
      <path d="M-69.15 -49.25 L-69.1 -49.45 Q-68.45 -53.3 -69.85 -56.5 L-71.35 -58.95 -71.45 -59.0 -71.75 -59.2 -72.0 -59.65 -72.0 -61.3 -71.8 -61.8 -71.3 -62.0 -40.75 -62.0 -40.25 -61.8 -40.05 -61.3 -40.05 -59.65 -40.0 -59.65 Q-40.0 -59.1 -40.6 -59.0 L-40.65 -58.95 -42.1 -56.5 Q-43.45 -53.3 -42.85 -49.45 L-42.8 -49.25 Q-40.85 -41.55 -40.55 -38.9 -40.0 -34.35 -40.0 -32.6 -40.0 -30.95 -41.35 -30.85 L-56.0 -30.0 -70.6 -30.85 Q-72.0 -30.95 -72.0 -32.6 L-71.4 -38.9 Q-71.05 -41.55 -69.15 -49.25" fill="#ffffff" fill-rule="evenodd" stroke="none" class="fill" />
      <path d="M42.85 -49.25 L42.9 -49.45 Q43.55 -53.3 42.15 -56.5 L40.65 -58.95 40.55 -59.0 40.25 -59.2 40.0 -59.65 40.0 -61.3 40.2 -61.8 40.7 -62.0 71.25 -62.0 71.75 -61.8 71.95 -61.3 71.95 -59.65 72.0 -59.65 Q72.0 -59.1 71.4 -59.0 L71.35 -58.95 69.9 -56.5 Q68.55 -53.3 69.15 -49.45 L69.2 -49.25 Q71.15 -41.55 71.45 -38.9 L72.0 -32.6 Q72.0 -30.95 70.65 -30.85 L56.0 -30.0 41.4 -30.85 Q40.0 -30.95 40.0 -32.6 40.0 -34.55 40.6 -38.9 40.95 -41.55 42.85 -49.25" fill="#ffffff" fill-rule="evenodd" stroke="none" class="fill" />
      <path d="M12.35 49.3 L12.3 49.5 Q11.7 53.35 13.0 56.55 13.65 58.15 14.45 59.0 L14.55 59.05 Q15.1 59.15 15.1 59.7 L15.05 59.7 15.05 61.35 Q15.05 62.0 14.4 62.0 L-16.15 62.0 Q-16.85 62.0 -16.85 61.35 L-16.85 59.7 -16.6 59.25 -16.3 59.05 -16.2 59.0 Q-15.4 58.15 -14.7 56.55 -13.3 53.35 -13.95 49.5 L-14.0 49.3 Q-15.9 41.8 -16.25 38.95 -16.85 34.6 -16.85 32.65 -16.85 31.0 -15.45 30.9 L-0.85 30.05 13.8 30.9 Q15.15 31.0 15.15 32.65 L14.6 38.95 Q14.25 41.8 12.35 49.3" fill="#ffffff" fill-rule="evenodd" stroke="none" class="fill" />
      <path d="M-42.8 49.3 L-42.85 49.5 Q-43.45 53.35 -42.1 56.55 -41.45 58.15 -40.65 59.0 L-40.6 59.05 Q-40.0 59.15 -40.0 59.7 L-40.05 59.7 -40.05 61.35 -40.25 61.8 -40.75 62.0 -71.3 62.0 Q-71.55 62.0 -71.8 61.8 L-72.0 61.35 -72.0 59.7 -71.75 59.25 -71.45 59.05 -71.35 59.0 Q-70.55 58.15 -69.85 56.55 -68.45 53.35 -69.1 49.5 L-69.15 49.3 Q-71.05 41.8 -71.4 38.95 L-72.0 32.65 Q-72.0 31.0 -70.6 30.9 L-56.0 30.05 -41.35 30.9 Q-40.0 31.0 -40.0 32.65 -40.0 34.4 -40.55 38.95 -40.9 41.8 -42.8 49.3" fill="#ffffff" fill-rule="evenodd" stroke="none" class="fill" />
      <path d="M69.2 49.3 L69.15 49.5 Q68.55 53.35 69.9 56.55 70.55 58.15 71.35 59.0 L71.4 59.05 Q72.0 59.15 72.0 59.7 L71.95 59.7 71.95 61.35 71.75 61.8 71.25 62.0 40.7 62.0 Q40.45 62.0 40.2 61.8 L40.0 61.35 40.0 59.7 40.25 59.25 40.55 59.05 40.65 59.0 42.15 56.55 Q43.55 53.35 42.9 49.5 L42.85 49.3 Q40.95 41.8 40.6 38.95 40.0 34.6 40.0 32.65 40.0 31.0 41.4 30.9 L56.0 30.05 70.65 30.9 Q72.0 31.0 72.0 32.65 L71.45 38.95 Q71.1 41.8 69.2 49.3" fill="#ffffff" fill-rule="evenodd" stroke="none" class="fill" />
    </g>
    <g id="sprite1" transform="matrix(1.0, 0.0, 0.0, 1.0, 72.35, 62.35)">
      <use height="124.7" transform="matrix(1.0, 0.0, 0.0, 1.0, -72.35, -62.35)" width="144.7" xlink:href="#shape1" />
    </g>
    <g id="shape1" transform="matrix(1.0, 0.0, 0.0, 1.0, 72.35, 62.35)">
      <path d="M14.7 61.35 L14.7 59.7 14.4 59.35 -16.1 59.35 -16.3 59.45 -16.35 59.5 -16.45 59.7 -16.5 59.85 -16.5 61.35 -16.15 61.65 14.4 61.65 14.7 61.35 M14.8 32.65 Q14.8 31.25 13.75 31.25 L-0.85 30.4 -15.45 31.25 Q-16.5 31.25 -16.5 32.65 L-15.9 38.9 Q-15.5 42.2 -13.65 49.15 L-13.65 49.25 -13.6 49.4 -13.2 50.5 Q-12.75 51.0 -11.7 51.0 L10.0 51.0 Q11.05 51.0 11.5 50.5 L11.95 49.45 11.95 49.3 12.0 49.2 12.0 49.15 Q13.75 42.65 14.25 38.9 L14.8 32.65 M13.75 58.65 Q11.6 55.6 11.75 51.2 11.2 51.7 10.0 51.7 L-11.7 51.7 Q-12.8 51.7 -13.45 51.2 -13.2 55.55 -15.45 58.65 L13.75 58.65 M-40.4 61.35 L-40.4 59.7 Q-40.4 59.55 -40.75 59.35 L-71.25 59.35 -71.45 59.45 -71.5 59.5 -71.6 59.7 -71.65 59.85 -71.65 61.35 Q-71.65 61.65 -71.3 61.65 L-40.75 61.65 Q-40.4 61.65 -40.4 61.35 M-41.4 58.65 Q-43.55 55.6 -43.4 51.2 -43.95 51.7 -45.15 51.7 L-66.8 51.7 Q-67.95 51.7 -68.6 51.2 -68.35 55.55 -70.6 58.65 L-41.4 58.65 M-40.35 32.65 Q-40.35 31.25 -41.4 31.25 L-56.0 30.4 -70.55 31.25 Q-71.65 31.25 -71.65 32.65 L-71.05 38.9 -69.9 44.75 -68.8 49.15 -68.8 49.25 -68.75 49.4 -68.3 50.5 Q-67.95 51.0 -66.8 51.0 L-45.15 51.0 Q-44.0 51.0 -43.65 50.5 -43.3 50.05 -43.2 49.45 L-43.2 49.3 -43.15 49.2 -43.15 49.15 Q-41.1 40.6 -40.9 38.9 -40.35 34.5 -40.35 32.65 M-70.6 -58.6 Q-68.4 -55.5 -68.55 -51.15 -67.9 -51.7 -66.8 -51.7 L-45.15 -51.7 Q-44.05 -51.7 -43.4 -51.15 -43.55 -55.55 -41.4 -58.6 L-70.6 -58.6 M-71.65 -32.6 Q-71.65 -31.2 -70.55 -31.2 L-56.0 -30.35 -41.4 -31.2 Q-40.35 -31.2 -40.35 -32.6 -40.35 -34.45 -40.9 -38.85 -41.2 -41.45 -43.15 -49.15 L-43.15 -49.25 -43.2 -49.35 Q-43.3 -50.05 -43.65 -50.45 -44.05 -51.0 -45.15 -51.0 L-66.8 -51.0 Q-67.9 -51.0 -68.3 -50.45 L-68.75 -49.4 -68.75 -49.25 -68.8 -49.15 -68.8 -49.1 -69.9 -44.6 -71.05 -38.85 -71.65 -32.6 M-71.3 -61.65 L-71.65 -61.3 -71.65 -59.8 -71.6 -59.65 -71.5 -59.45 -71.45 -59.4 -71.25 -59.3 -40.75 -59.3 Q-40.4 -59.45 -40.4 -59.65 L-40.4 -61.3 Q-40.4 -61.65 -40.75 -61.65 L-71.3 -61.65 M-16.15 -61.65 L-16.5 -61.3 -16.5 -59.8 -16.45 -59.65 -16.35 -59.45 -16.3 -59.4 -16.1 -59.3 14.4 -59.3 14.7 -59.65 14.7 -61.3 14.4 -61.65 -16.15 -61.65 M-15.45 -58.6 Q-13.2 -55.5 -13.45 -51.15 -12.75 -51.7 -11.7 -51.7 L10.0 -51.7 Q11.1 -51.7 11.75 -51.15 11.6 -55.55 13.75 -58.6 L-15.45 -58.6 M-16.5 -32.6 Q-16.5 -31.2 -15.45 -31.2 L-0.85 -30.35 13.75 -31.2 Q14.8 -31.2 14.8 -32.6 L14.25 -38.85 Q14.05 -40.6 13.05 -44.75 L12.0 -49.15 11.95 -49.25 11.95 -49.35 11.5 -50.45 Q11.05 -51.0 10.0 -51.0 L-11.7 -51.0 Q-12.75 -51.0 -13.15 -50.45 L-13.6 -49.4 -13.65 -49.25 -13.65 -49.15 -13.7 -49.1 -15.9 -38.85 -16.5 -32.6 M71.65 29.7 L71.65 -29.65 -71.65 -29.65 -71.65 29.7 71.65 29.7 M71.6 61.35 L71.6 59.7 71.25 59.35 40.75 59.35 40.55 59.45 40.5 59.5 40.4 59.7 40.35 59.85 40.35 61.35 Q40.35 61.65 40.7 61.65 L71.25 61.65 Q71.6 61.65 71.6 61.35 M70.6 58.65 Q68.45 55.6 68.6 51.2 68.05 51.7 66.85 51.7 L45.2 51.7 Q44.05 51.7 43.4 51.2 43.65 55.55 41.4 58.65 L70.6 58.65 M71.65 32.65 Q71.65 31.25 70.6 31.25 L56.0 30.4 41.45 31.25 Q40.35 31.25 40.35 32.65 L40.95 38.9 42.1 44.75 43.2 49.15 43.2 49.25 43.25 49.4 43.7 50.5 Q44.05 51.0 45.2 51.0 L66.85 51.0 Q67.9 51.0 68.35 50.5 L68.8 49.45 68.8 49.3 68.85 49.2 68.85 49.1 69.95 44.65 71.1 38.9 71.65 32.65 M41.4 -58.6 Q43.65 -55.5 43.4 -51.15 44.1 -51.7 45.2 -51.7 L66.85 -51.7 Q67.95 -51.7 68.6 -51.15 68.45 -55.55 70.6 -58.6 L41.4 -58.6 M40.35 -32.6 Q40.35 -31.2 41.45 -31.2 L56.0 -30.35 70.6 -31.2 Q71.65 -31.2 71.65 -32.6 L71.1 -38.85 69.9 -44.75 68.85 -49.15 68.85 -49.25 68.8 -49.35 68.35 -50.45 Q67.9 -51.0 66.85 -51.0 L45.2 -51.0 Q44.1 -51.0 43.7 -50.45 L43.25 -49.4 43.2 -49.25 43.2 -49.1 42.1 -44.6 40.95 -38.85 40.35 -32.6 M72.0 -30.35 L72.35 -30.0 72.35 30.05 72.0 30.4 68.4 30.4 70.65 30.55 Q72.35 30.65 72.35 32.65 L71.8 39.0 69.55 49.35 69.5 49.6 Q68.95 53.05 70.0 56.05 70.7 57.85 71.55 58.7 72.3 58.95 72.3 59.7 L72.3 61.35 72.0 62.05 71.25 62.35 40.7 62.35 Q40.3 62.35 39.95 62.05 L39.65 61.35 39.65 59.7 Q39.65 59.35 40.0 59.0 L40.15 58.9 40.25 58.85 40.4 58.75 40.45 58.7 Q41.35 57.7 42.0 56.0 43.1 53.05 42.55 49.55 L42.5 49.35 Q40.55 41.6 40.25 39.0 L39.65 32.65 Q39.65 30.65 41.35 30.55 L43.65 30.4 11.55 30.4 13.8 30.55 Q15.5 30.65 15.5 32.65 L14.95 39.0 13.75 44.95 12.65 49.35 12.65 49.6 Q12.1 53.05 13.15 56.05 13.8 57.75 14.65 58.7 L14.7 58.7 Q15.45 58.95 15.45 59.7 L15.4 59.85 15.4 61.35 15.1 62.05 Q14.8 62.35 14.4 62.35 L-16.15 62.35 -16.9 62.05 -17.2 61.35 -17.2 59.7 -16.85 59.0 -16.7 58.9 -16.65 58.85 -16.45 58.75 -16.4 58.7 Q-15.5 57.7 -14.85 56.0 -13.75 53.05 -14.3 49.55 L-14.35 49.35 -15.4 45.0 -16.6 39.0 -17.2 32.65 Q-17.2 30.65 -15.5 30.55 L-13.2 30.4 -43.6 30.4 -41.35 30.55 Q-39.65 30.65 -39.65 32.65 -39.65 34.5 -40.2 39.0 -40.55 41.85 -42.45 49.35 L-42.5 49.6 Q-43.05 53.05 -42.0 56.05 -41.3 57.85 -40.45 58.7 -39.65 58.95 -39.65 59.7 L-39.7 59.85 -39.7 61.35 Q-39.7 61.75 -40.0 62.05 -40.35 62.35 -40.75 62.35 L-71.3 62.35 Q-71.7 62.35 -72.05 62.05 L-72.35 61.35 -72.35 59.7 -72.0 59.0 -71.85 58.9 -71.75 58.85 -71.6 58.75 -71.55 58.7 Q-70.65 57.7 -70.0 56.0 -68.9 53.05 -69.45 49.55 L-69.5 49.35 Q-71.45 41.6 -71.75 39.0 L-72.35 32.65 Q-72.35 30.65 -70.65 30.55 L-68.35 30.4 -72.0 30.4 -72.35 30.05 -72.35 -30.0 -72.0 -30.35 -68.3 -30.35 -70.65 -30.5 Q-72.35 -30.6 -72.35 -32.6 L-71.75 -38.95 Q-71.55 -40.75 -70.55 -44.85 L-69.5 -49.3 -69.45 -49.55 Q-68.9 -53.0 -70.0 -55.95 -70.65 -57.65 -71.55 -58.65 L-71.6 -58.7 -71.75 -58.8 -71.85 -58.85 -72.0 -58.95 -72.35 -59.65 -72.35 -61.3 -72.05 -62.05 -71.3 -62.35 -40.75 -62.35 -40.0 -62.05 Q-39.7 -61.7 -39.7 -61.3 L-39.7 -59.8 -39.65 -59.65 Q-39.65 -58.9 -40.45 -58.65 -41.3 -57.8 -42.0 -55.95 -43.05 -53.0 -42.5 -49.55 L-42.45 -49.3 Q-40.6 -41.95 -40.2 -38.95 -39.65 -34.45 -39.65 -32.6 -39.65 -30.55 -41.35 -30.5 L-43.65 -30.35 -13.15 -30.35 -15.5 -30.5 Q-17.2 -30.6 -17.2 -32.6 L-16.6 -38.95 Q-16.3 -41.55 -14.35 -49.3 L-14.3 -49.55 Q-13.75 -53.0 -14.85 -55.95 -15.5 -57.65 -16.4 -58.65 L-16.45 -58.7 -16.65 -58.8 -16.7 -58.85 -16.85 -58.95 -17.2 -59.65 -17.2 -61.3 -16.9 -62.05 -16.15 -62.35 14.4 -62.35 Q14.8 -62.35 15.1 -62.05 L15.4 -61.3 15.4 -59.8 15.45 -59.65 Q15.45 -58.9 14.7 -58.65 L14.65 -58.65 Q13.8 -57.7 13.15 -55.95 12.1 -52.95 12.65 -49.5 L12.65 -49.3 13.75 -44.95 14.95 -38.95 15.5 -32.6 Q15.5 -30.55 13.8 -30.5 L11.5 -30.35 43.7 -30.35 41.35 -30.5 Q39.65 -30.6 39.65 -32.6 L40.25 -38.95 41.45 -44.85 42.5 -49.3 42.55 -49.55 Q43.1 -53.0 42.0 -55.95 41.35 -57.65 40.45 -58.65 L40.4 -58.7 40.25 -58.8 40.15 -58.85 40.0 -58.95 Q39.65 -59.3 39.65 -59.65 L39.65 -61.3 Q39.65 -61.7 39.95 -62.05 40.3 -62.35 40.7 -62.35 L71.25 -62.35 72.0 -62.05 72.3 -61.3 72.3 -59.65 Q72.3 -58.9 71.55 -58.65 70.7 -57.8 70.0 -55.95 68.95 -52.95 69.5 -49.5 L69.55 -49.3 70.6 -44.95 71.8 -38.95 72.35 -32.6 Q72.35 -30.55 70.65 -30.5 L68.35 -30.35 72.0 -30.35 M40.7 -61.65 Q40.35 -61.65 40.35 -61.3 L40.35 -59.8 40.4 -59.65 40.5 -59.45 40.55 -59.4 40.75 -59.3 71.25 -59.3 71.6 -59.65 71.6 -61.3 71.25 -61.65 40.7 -61.65" fill="#000000" fill-rule="evenodd" stroke="none" class="line" />
    </g>
  </defs>
  <g transform="matrix(1.0, 0.0, 0.0, 1.0, 0.0, 0.0)">
    <use height="124.0" id="Fill" transform="matrix(0.6944, 0.0, 0.0, 0.8065, 0.0001, -0.0004)" width="144.0" xlink:href="#sprite0" />
    <use height="124.7" id="Line" transform="matrix(0.6911, 0.0, 0.0, 0.8019, -0.0001, -0.0001)" width="144.7" xlink:href="#sprite1" />
  </g>
</svg>