<?xml version="1.0" encoding="UTF-8" standalone="no"?>
<svg xmlns:xlink="http://www.w3.org/1999/xlink" height="100%" width="100%" xmlns="http://www.w3.org/2000/svg" preserveAspectRatio="none" viewBox="0 0 100 100">
  <defs>
    <g id="sprite0" transform="matrix(1.0, 0.0, 0.0, 1.0, 128.0, 68.0)">
      <use height="136.0" transform="matrix(1.0, 0.0, 0.0, 1.0, -128.0, -68.0)" width="256.0" xlink:href="#shape0" />
    </g>
    <g id="shape0" transform="matrix(1.0, 0.0, 0.0, 1.0, 128.0, 68.0)">
      <path d="M-96.05 -0.6 L-96.05 -36.0 96.0 -36.0 96.0 36.0 -96.05 36.0 -96.05 0.6 -96.85 14.65 Q-96.95 16.0 -98.65 16.0 L-104.95 15.45 -115.25 13.2 -115.5 13.15 Q-119.35 12.55 -122.55 13.9 L-125.0 15.4 -125.05 15.5 -125.25 15.8 -125.7 16.0 -127.35 16.0 Q-128.0 16.0 -128.0 15.35 L-128.0 -15.2 Q-128.0 -15.9 -127.35 -15.9 L-125.7 -15.9 -125.7 -15.95 Q-125.15 -15.95 -125.05 -15.35 L-125.0 -15.3 -122.55 -13.8 Q-119.35 -12.45 -115.5 -13.1 L-115.25 -13.15 -104.95 -15.4 -98.65 -16.0 Q-96.95 -16.0 -96.85 -14.6 L-96.05 -0.6" fill="#ffffff" fill-rule="evenodd" stroke="none" class="fill" />
      <path d="M-39.85 -55.25 L-39.85 -55.45 Q-39.2 -59.3 -40.6 -62.55 L-42.1 -65.0 -42.2 -65.0 -42.45 -65.2 -42.7 -65.65 -42.7 -67.3 Q-42.7 -68.0 -42.0 -68.0 L-11.45 -68.0 Q-10.8 -68.0 -10.8 -67.3 L-10.8 -65.65 -10.75 -65.65 Q-10.75 -65.1 -11.35 -65.0 L-11.4 -65.0 -12.85 -62.55 Q-14.2 -59.3 -13.55 -55.45 L-13.55 -55.25 -12.45 -50.85 Q-11.5 -46.75 -11.25 -44.9 -10.7 -40.35 -10.7 -38.65 -10.7 -36.95 -12.05 -36.85 L-26.7 -36.0 -41.35 -36.85 Q-42.7 -36.95 -42.7 -38.65 L-42.15 -44.9 Q-41.8 -47.5 -39.85 -55.25" fill="#ffffff" fill-rule="evenodd" stroke="none" class="fill" />
      <path d="M-93.2 -55.25 L-93.2 -55.45 Q-92.55 -59.3 -93.95 -62.55 L-95.45 -65.0 -95.55 -65.0 -95.8 -65.2 -96.05 -65.65 -96.05 -67.3 Q-96.05 -68.0 -95.35 -68.0 L-64.8 -68.0 Q-64.15 -68.0 -64.15 -67.3 L-64.15 -65.65 -64.1 -65.65 Q-64.1 -65.1 -64.7 -65.0 L-64.75 -65.0 -66.2 -62.55 Q-67.55 -59.3 -66.9 -55.45 L-66.9 -55.25 -65.8 -50.85 Q-64.85 -46.75 -64.6 -44.9 -64.05 -40.35 -64.05 -38.65 -64.05 -36.95 -65.4 -36.85 L-80.05 -36.0 -94.7 -36.85 Q-96.05 -36.95 -96.05 -38.65 L-95.5 -44.9 Q-95.15 -47.5 -93.2 -55.25" fill="#ffffff" fill-rule="evenodd" stroke="none" class="fill" />
      <path d="M127.3 -15.9 Q128.0 -15.9 128.0 -15.2 L128.0 15.35 127.8 15.8 Q127.55 16.0 127.3 16.0 L125.65 16.0 125.2 15.8 125.0 15.5 125.0 15.4 Q124.15 14.6 122.55 13.9 119.3 12.55 115.45 13.15 L115.25 13.2 104.9 15.45 98.65 16.0 Q96.95 16.0 96.85 14.65 L96.0 0.0 96.85 -14.6 Q96.95 -16.0 98.65 -16.0 L104.9 -15.4 115.25 -13.15 115.45 -13.1 Q119.3 -12.45 122.55 -13.8 124.15 -14.5 125.0 -15.3 L125.0 -15.35 Q125.1 -15.95 125.65 -15.95 L125.65 -15.9 127.3 -15.9" fill="#ffffff" fill-rule="evenodd" stroke="none" class="fill" />
      <path d="M13.5 -55.25 L13.5 -55.45 Q14.15 -59.3 12.8 -62.55 L11.3 -65.0 11.15 -65.0 10.9 -65.2 Q10.65 -65.35 10.65 -65.65 L10.65 -67.3 Q10.65 -68.0 11.35 -68.0 L41.9 -68.0 Q42.55 -68.0 42.55 -67.3 L42.55 -65.65 42.6 -65.65 Q42.6 -65.1 42.0 -65.0 L41.95 -65.0 40.5 -62.55 Q39.2 -59.3 39.8 -55.45 L39.8 -55.25 40.9 -50.85 42.1 -44.9 42.65 -38.65 Q42.65 -36.95 41.3 -36.85 L26.65 -36.0 12.05 -36.85 Q10.65 -36.95 10.65 -38.65 10.65 -40.35 11.2 -44.9 11.55 -47.5 13.5 -55.25" fill="#ffffff" fill-rule="evenodd" stroke="none" class="fill" />
      <path d="M-13.55 55.25 L-13.55 55.5 Q-14.2 59.35 -12.85 62.55 -12.2 64.15 -11.4 65.0 L-11.35 65.05 Q-10.75 65.15 -10.75 65.7 L-10.8 65.7 -10.8 67.35 Q-10.8 68.0 -11.45 68.0 L-42.0 68.0 Q-42.7 68.0 -42.7 67.35 L-42.7 65.7 -42.45 65.25 -42.2 65.05 -42.1 65.0 Q-41.25 64.15 -40.6 62.55 -39.2 59.35 -39.85 55.5 L-39.85 55.25 Q-41.8 47.45 -42.15 44.95 L-42.7 38.65 Q-42.7 36.95 -41.35 36.85 L-26.7 36.05 -12.05 36.85 Q-10.7 36.95 -10.7 38.65 -10.7 40.3 -11.25 44.95 -11.5 46.8 -12.45 50.85 L-13.55 55.25" fill="#ffffff" fill-rule="evenodd" stroke="none" class="fill" />
      <path d="M-66.9 55.25 L-66.9 55.5 Q-67.55 59.35 -66.2 62.55 -65.55 64.15 -64.75 65.0 L-64.7 65.05 Q-64.1 65.15 -64.1 65.7 L-64.15 65.7 -64.15 67.35 Q-64.15 68.0 -64.8 68.0 L-95.35 68.0 Q-96.05 68.0 -96.05 67.35 L-96.05 65.7 -95.8 65.25 -95.55 65.05 -95.45 65.0 Q-94.6 64.15 -93.95 62.55 -92.55 59.35 -93.2 55.5 L-93.2 55.25 Q-95.15 47.45 -95.5 44.95 L-96.05 38.65 Q-96.05 36.95 -94.7 36.85 L-80.05 36.05 -65.4 36.85 Q-64.05 36.95 -64.05 38.65 -64.05 40.3 -64.6 44.95 -64.95 47.45 -66.9 55.25" fill="#ffffff" fill-rule="evenodd" stroke="none" class="fill" />
      <path d="M39.8 55.25 L39.8 55.5 Q39.2 59.35 40.5 62.55 41.15 64.15 41.95 65.0 L42.0 65.05 Q42.6 65.15 42.6 65.7 L42.55 65.7 42.55 67.35 Q42.55 68.0 41.9 68.0 L11.35 68.0 Q10.65 68.0 10.65 67.35 L10.65 65.7 Q10.65 65.4 10.9 65.25 L11.15 65.05 11.3 65.0 12.8 62.55 Q14.15 59.35 13.5 55.5 L13.5 55.25 Q11.55 47.45 11.2 44.95 10.65 40.3 10.65 38.65 10.65 36.95 12.05 36.85 L26.65 36.05 41.3 36.85 Q42.65 36.95 42.65 38.65 L42.1 44.95 40.9 50.85 39.8 55.25" fill="#ffffff" fill-rule="evenodd" stroke="none" class="fill" />
      <path d="M93.15 -55.25 L94.25 -50.85 95.45 -44.9 96.0 -38.65 Q96.0 -36.95 94.65 -36.85 L80.0 -36.0 65.4 -36.85 Q64.0 -36.95 64.0 -38.65 64.0 -40.35 64.55 -44.9 64.9 -47.5 66.85 -55.25 L66.9 -55.45 Q67.55 -59.3 66.15 -62.55 L64.65 -65.0 64.5 -65.0 64.25 -65.2 Q64.0 -65.35 64.0 -65.65 L64.0 -67.3 Q64.0 -68.0 64.7 -68.0 L95.25 -68.0 Q95.9 -68.0 95.9 -67.3 L95.9 -65.65 95.95 -65.65 Q95.95 -65.1 95.35 -65.0 L95.3 -65.0 93.85 -62.55 Q92.55 -59.3 93.15 -55.45 L93.15 -55.25" fill="#ffffff" fill-rule="evenodd" stroke="none" class="fill" />
      <path d="M93.15 55.25 L93.15 55.5 Q92.55 59.35 93.85 62.55 94.5 64.15 95.3 65.0 L95.35 65.05 Q95.95 65.15 95.95 65.7 L95.9 65.7 95.9 67.35 Q95.9 68.0 95.25 68.0 L64.7 68.0 Q64.0 68.0 64.0 67.35 L64.0 65.7 Q64.0 65.4 64.25 65.25 L64.5 65.05 64.65 65.0 66.15 62.55 Q67.55 59.35 66.9 55.5 L66.85 55.25 Q64.9 47.45 64.55 44.95 64.0 40.3 64.0 38.65 64.0 36.95 65.4 36.85 L80.0 36.05 94.65 36.85 Q96.0 36.95 96.0 38.65 L95.45 44.95 94.25 50.85 93.15 55.25" fill="#ffffff" fill-rule="evenodd" stroke="none" class="fill" />
    </g>
    <g id="sprite1" transform="matrix(1.0, 0.0, 0.0, 1.0, 128.35, 68.35)">
      <use height="136.7" transform="matrix(1.0, 0.0, 0.0, 1.0, -128.35, -68.35)" width="256.7" xlink:href="#shape1" />
    </g>
    <g id="shape1" transform="matrix(1.0, 0.0, 0.0, 1.0, 128.35, 68.35)">
      <path d="M-11.15 67.35 L-11.15 65.7 -11.45 65.35 -41.95 65.35 -42.15 65.45 -42.2 65.5 -42.3 65.7 -42.35 65.85 -42.35 67.35 -42.0 67.65 -11.45 67.65 Q-11.15 67.65 -11.15 67.35 M-12.1 64.65 Q-14.3 61.55 -14.1 57.2 -14.65 57.7 -15.85 57.7 L-37.55 57.7 Q-38.75 57.7 -39.3 57.2 -39.1 61.75 -41.35 64.65 L-12.1 64.65 M-11.05 38.65 Q-11.05 37.3 -12.1 37.2 L-26.7 36.4 -41.3 37.2 Q-42.35 37.3 -42.35 38.65 L-41.8 44.9 -39.55 55.2 -39.5 55.2 -39.5 55.4 -39.05 56.5 Q-38.6 57.0 -37.55 57.0 L-15.85 57.0 Q-14.8 57.0 -14.35 56.5 -14.15 56.25 -13.9 55.45 L-13.9 55.3 -13.85 55.2 -13.85 55.15 -12.75 50.65 Q-11.8 46.6 -11.6 44.9 -11.05 40.4 -11.05 38.65 M-64.5 67.35 L-64.5 65.7 Q-64.5 65.5 -64.8 65.35 L-95.3 65.35 -95.5 65.45 -95.55 65.5 -95.65 65.7 -95.7 65.85 -95.7 67.35 -95.35 67.65 -64.8 67.65 Q-64.5 67.65 -64.5 67.35 M-65.45 64.65 Q-67.7 61.7 -67.45 57.2 -68.0 57.7 -69.2 57.7 L-90.9 57.7 Q-92.1 57.7 -92.65 57.2 -92.45 61.75 -94.7 64.65 L-65.45 64.65 M-64.4 38.65 Q-64.4 37.3 -65.45 37.2 L-80.05 36.4 -94.65 37.2 Q-95.7 37.3 -95.7 38.65 L-95.15 44.9 Q-94.7 47.95 -92.9 55.2 L-92.85 55.25 -92.85 55.4 -92.4 56.5 Q-91.95 57.0 -90.9 57.0 L-69.2 57.0 Q-68.15 57.0 -67.7 56.5 L-67.25 55.45 -67.25 55.2 -67.2 55.2 -67.2 55.15 Q-65.15 46.6 -64.95 44.9 -64.4 40.4 -64.4 38.65 M-95.7 -38.65 Q-95.7 -37.3 -94.65 -37.2 L-80.05 -36.35 -65.45 -37.2 Q-64.4 -37.3 -64.4 -38.65 -64.4 -40.45 -64.95 -44.85 -65.4 -47.9 -67.2 -55.15 L-67.25 -55.25 -67.25 -55.4 -67.7 -56.45 Q-68.15 -57.0 -69.2 -57.0 L-90.9 -57.0 Q-91.95 -57.0 -92.4 -56.45 L-92.85 -55.4 -92.85 -55.2 -92.9 -55.15 -93.95 -50.7 -95.15 -44.85 -95.7 -38.65 M-117.85 12.6 L-117.2 12.6 Q-117.7 12.05 -117.7 10.85 L-117.7 -10.85 Q-117.7 -11.95 -117.2 -12.6 -121.6 -12.35 -124.65 -14.55 L-124.65 14.65 Q-121.9 12.6 -117.85 12.6 M-96.4 0.65 L-97.2 -14.6 Q-97.3 -15.65 -98.65 -15.65 L-104.9 -15.05 -115.15 -12.8 -115.4 -12.8 -116.5 -12.35 Q-117.0 -11.9 -117.0 -10.85 L-117.0 10.85 Q-117.0 11.9 -116.5 12.35 L-115.45 12.8 -115.3 12.8 -115.2 12.85 -115.15 12.85 -104.9 15.1 -98.65 15.65 Q-97.3 15.65 -97.2 14.6 L-96.4 0.65 M-127.65 15.35 L-127.35 15.65 -125.85 15.65 -125.5 15.55 -125.45 15.5 -125.35 15.3 -125.35 -15.25 -125.7 -15.55 -127.35 -15.55 -127.65 -15.2 -127.65 15.35 M-94.7 -64.65 Q-92.5 -61.6 -92.65 -57.15 -92.0 -57.7 -90.9 -57.7 L-69.2 -57.7 Q-68.1 -57.7 -67.45 -57.15 -67.65 -61.4 -65.45 -64.65 L-94.7 -64.65 M-95.35 -67.65 L-95.7 -67.3 -95.7 -65.85 -95.65 -65.65 -95.55 -65.45 -95.5 -65.4 -95.3 -65.35 -64.8 -65.35 Q-64.5 -65.35 -64.5 -65.65 L-64.5 -67.3 Q-64.5 -67.65 -64.8 -67.65 L-95.35 -67.65 M-42.35 -38.65 Q-42.35 -37.3 -41.3 -37.2 L-26.7 -36.35 -12.1 -37.2 Q-11.05 -37.3 -11.05 -38.65 -11.05 -40.45 -11.6 -44.85 -12.05 -47.9 -13.85 -55.15 L-13.9 -55.25 -13.9 -55.4 -14.35 -56.45 Q-14.8 -57.0 -15.85 -57.0 L-37.55 -57.0 Q-38.6 -57.0 -39.05 -56.45 L-39.5 -55.4 -39.5 -55.2 -39.55 -55.15 -40.6 -50.7 -41.8 -44.85 -42.35 -38.65 M-41.35 -64.65 Q-39.15 -61.6 -39.3 -57.15 -38.65 -57.7 -37.55 -57.7 L-15.85 -57.7 Q-14.75 -57.7 -14.1 -57.15 -14.3 -61.4 -12.1 -64.65 L-41.35 -64.65 M-42.0 -67.65 L-42.35 -67.3 -42.35 -65.85 -42.3 -65.65 -42.2 -65.45 -42.15 -65.4 -41.95 -65.35 -11.45 -65.35 Q-11.15 -65.35 -11.15 -65.65 L-11.15 -67.3 Q-11.15 -67.65 -11.45 -67.65 L-42.0 -67.65 M95.65 35.65 L95.65 -35.65 -95.7 -35.65 -95.7 35.65 95.65 35.65 M95.55 67.35 L95.55 65.7 95.25 65.35 64.75 65.35 64.55 65.45 64.5 65.5 64.4 65.7 64.35 65.85 64.35 67.35 Q64.35 67.65 64.7 67.65 L95.25 67.65 95.55 67.35 M94.6 64.65 Q92.4 61.55 92.6 57.2 92.05 57.7 90.85 57.7 L69.15 57.7 Q67.95 57.7 67.4 57.2 67.6 61.75 65.35 64.65 L94.6 64.65 M42.2 67.35 L42.2 65.7 41.9 65.35 11.4 65.35 11.2 65.45 11.15 65.5 11.05 65.7 11.0 65.85 11.0 67.35 Q11.0 67.65 11.35 67.65 L41.9 67.65 42.2 67.35 M41.25 64.65 Q39.05 61.55 39.25 57.2 38.7 57.7 37.5 57.7 L15.8 57.7 Q14.6 57.7 14.05 57.2 14.25 61.75 12.0 64.65 L41.25 64.65 M42.3 38.65 Q42.3 37.3 41.25 37.2 L26.65 36.4 12.05 37.2 Q11.0 37.3 11.0 38.65 11.0 40.4 11.55 44.9 12.0 47.95 13.8 55.2 L13.85 55.2 13.85 55.4 Q14.0 56.05 14.3 56.5 14.75 57.0 15.8 57.0 L37.5 57.0 Q38.55 57.0 39.0 56.5 L39.45 55.45 39.45 55.25 39.5 55.2 39.5 55.1 Q41.25 48.6 41.75 44.9 L42.3 38.65 M95.65 38.65 Q95.65 37.3 94.6 37.2 L80.0 36.4 65.4 37.2 Q64.35 37.3 64.35 38.65 64.35 40.4 64.9 44.9 65.35 47.95 67.15 55.2 L67.2 55.2 67.2 55.4 Q67.35 56.05 67.65 56.5 68.1 57.0 69.15 57.0 L90.85 57.0 Q91.9 57.0 92.35 56.5 L92.8 55.45 92.8 55.3 92.85 55.2 92.85 55.15 95.1 44.9 95.65 38.65 M64.35 -38.65 Q64.35 -37.3 65.4 -37.2 L80.0 -36.35 94.6 -37.2 Q95.65 -37.3 95.65 -38.65 L95.1 -44.85 Q94.8 -47.45 92.85 -55.15 L92.8 -55.25 92.8 -55.4 92.35 -56.45 Q91.9 -57.0 90.85 -57.0 L69.15 -57.0 Q68.1 -57.0 67.65 -56.45 L67.2 -55.4 67.2 -55.15 67.15 -55.15 66.1 -50.7 64.9 -44.85 Q64.35 -40.45 64.35 -38.65 M12.0 -64.65 Q14.3 -61.5 14.05 -57.15 14.7 -57.7 15.8 -57.7 L37.5 -57.7 Q38.6 -57.7 39.25 -57.15 39.1 -61.45 41.25 -64.65 L12.0 -64.65 M11.0 -38.65 Q11.0 -37.3 12.05 -37.2 L26.65 -36.35 41.25 -37.2 Q42.3 -37.3 42.3 -38.65 L41.75 -44.85 Q41.45 -47.45 39.5 -55.15 L39.5 -55.2 39.45 -55.25 39.45 -55.35 39.0 -56.45 Q38.55 -57.0 37.5 -57.0 L15.8 -57.0 Q14.75 -57.0 14.3 -56.45 L13.85 -55.4 13.85 -55.2 13.8 -55.15 12.75 -50.7 11.55 -44.85 Q11.0 -40.45 11.0 -38.65 M11.35 -67.65 Q11.0 -67.65 11.0 -67.3 L11.0 -65.85 11.05 -65.65 11.15 -65.45 11.2 -65.4 11.4 -65.35 41.9 -65.35 42.2 -65.65 42.2 -67.3 41.9 -67.65 11.35 -67.65 M65.35 -64.65 Q67.65 -61.5 67.4 -57.15 68.05 -57.7 69.15 -57.7 L90.85 -57.7 Q91.95 -57.7 92.6 -57.15 92.45 -61.45 94.6 -64.65 L65.35 -64.65 M64.7 -67.65 Q64.35 -67.65 64.35 -67.3 L64.35 -65.85 64.4 -65.65 64.5 -65.45 64.55 -65.4 64.75 -65.35 95.25 -65.35 95.55 -65.65 95.55 -67.3 95.25 -67.65 64.7 -67.65 M117.15 12.6 L117.8 12.6 Q121.8 12.6 124.65 14.65 L124.65 -14.55 Q121.45 -12.35 117.15 -12.6 117.7 -11.9 117.7 -10.85 L117.7 10.85 Q117.7 11.95 117.15 12.6 M127.65 15.35 L127.65 -15.2 127.3 -15.55 125.65 -15.55 125.3 -15.25 125.3 15.3 125.4 15.5 125.45 15.55 125.85 15.65 127.3 15.65 127.65 15.35 M104.85 15.1 L110.7 13.95 115.1 12.85 115.15 12.85 115.25 12.8 115.35 12.8 116.45 12.35 Q117.0 11.9 117.0 10.85 L117.0 -10.85 Q117.0 -11.9 116.45 -12.35 L115.4 -12.75 115.25 -12.8 115.15 -12.8 115.1 -12.85 104.85 -15.05 98.65 -15.65 Q97.2 -15.65 97.2 -14.6 L96.35 0.0 97.2 14.6 Q97.2 15.65 98.65 15.65 L104.85 15.1 M127.3 -16.25 L128.05 -15.95 128.35 -15.2 128.35 15.35 128.05 16.05 Q127.7 16.35 127.3 16.35 L125.65 16.35 Q125.25 16.35 124.95 16.05 L124.85 15.9 124.8 15.8 124.7 15.65 124.7 15.6 Q120.95 12.6 115.55 13.5 L115.3 13.55 104.95 15.8 98.65 16.35 Q96.6 16.35 96.5 14.65 L96.35 12.75 96.35 36.0 96.0 36.35 92.35 36.35 94.65 36.5 Q96.35 36.65 96.35 38.65 L95.8 45.0 94.6 50.9 93.5 55.35 93.45 55.6 Q92.9 59.05 94.0 62.0 94.65 63.75 95.5 64.7 96.3 64.9 96.3 65.7 L96.25 65.85 96.25 67.35 95.95 68.05 Q95.65 68.35 95.25 68.35 L64.7 68.35 Q64.25 68.35 63.95 68.05 63.65 67.75 63.65 67.35 L63.65 65.7 Q63.65 65.3 63.95 65.0 L64.15 64.9 64.2 64.8 64.4 64.75 64.45 64.7 Q65.35 63.7 65.95 62.0 67.1 59.0 66.55 55.55 L66.5 55.35 Q64.6 47.65 64.25 45.0 63.65 40.75 63.65 38.65 63.65 36.65 65.35 36.5 L67.65 36.35 39.0 36.35 41.3 36.5 Q43.0 36.65 43.0 38.65 L42.45 45.0 Q42.1 47.6 40.15 55.35 L40.1 55.6 Q39.55 59.05 40.65 62.0 41.3 63.75 42.15 64.7 42.95 64.9 42.95 65.7 L42.9 65.85 42.9 67.35 42.6 68.05 41.9 68.35 11.35 68.35 Q10.9 68.35 10.6 68.05 10.3 67.75 10.3 67.35 L10.3 65.7 Q10.3 65.3 10.6 65.0 L10.75 64.9 10.85 64.8 11.05 64.75 11.05 64.7 Q11.9 63.85 12.6 62.0 13.75 59.0 13.2 55.55 L13.15 55.35 Q11.25 47.65 10.9 45.0 10.3 40.75 10.3 38.65 10.3 36.65 12.0 36.5 L14.3 36.35 -14.35 36.35 -12.05 36.5 Q-10.35 36.65 -10.35 38.65 -10.35 40.5 -10.9 45.0 -11.15 46.85 -12.1 50.9 L-13.2 55.35 -13.25 55.6 Q-13.8 59.05 -12.7 62.0 -12.05 63.75 -11.2 64.7 -10.4 64.9 -10.4 65.7 L-10.45 65.85 -10.45 67.35 Q-10.45 67.75 -10.75 68.05 -11.05 68.35 -11.45 68.35 L-42.0 68.35 -42.75 68.05 -43.05 67.35 -43.05 65.7 -42.75 65.0 -42.6 64.9 -42.5 64.8 -42.3 64.75 -42.3 64.7 Q-41.4 63.7 -40.75 62.0 -39.6 59.0 -40.15 55.55 L-40.2 55.35 Q-42.0 48.55 -42.5 45.0 L-43.05 38.65 Q-43.05 36.65 -41.35 36.5 L-39.05 36.35 -67.7 36.35 -65.4 36.5 Q-63.7 36.65 -63.7 38.65 -63.7 40.5 -64.25 45.0 -64.5 46.85 -65.45 50.9 L-66.55 55.35 -66.6 55.6 Q-67.15 59.05 -66.05 62.0 -65.4 63.75 -64.55 64.7 -63.75 64.9 -63.75 65.7 L-63.8 65.85 -63.8 67.35 -64.1 68.05 -64.8 68.35 -95.35 68.35 Q-95.8 68.35 -96.1 68.05 L-96.4 67.35 -96.4 65.7 -96.1 65.0 -95.95 64.9 -95.85 64.8 -95.65 64.75 -95.65 64.7 Q-94.75 63.7 -94.1 62.0 -92.95 59.0 -93.5 55.55 L-93.55 55.35 Q-95.5 47.6 -95.85 45.0 L-96.4 38.65 Q-96.4 36.65 -94.7 36.5 L-92.4 36.35 -96.05 36.35 -96.4 36.0 -96.4 12.85 -96.5 14.65 Q-96.65 16.35 -98.65 16.35 L-105.0 15.8 -110.9 14.6 -115.35 13.55 -115.6 13.5 Q-119.05 12.95 -122.0 14.05 -123.7 14.7 -124.7 15.6 L-124.75 15.65 -124.85 15.8 -124.9 15.9 -125.0 16.05 -125.7 16.35 -127.35 16.35 -128.05 16.05 -128.35 15.35 -128.35 -15.2 -128.05 -15.95 -127.35 -16.25 -125.85 -16.25 -125.7 -16.3 Q-124.9 -16.3 -124.7 -15.5 -123.7 -14.6 -122.0 -14.0 -119.0 -12.9 -115.55 -13.45 L-115.35 -13.5 -105.0 -15.75 -98.65 -16.35 Q-96.65 -16.35 -96.5 -14.65 L-96.4 -12.85 -96.4 -36.0 -96.05 -36.35 -92.35 -36.35 -94.7 -36.5 Q-96.4 -36.65 -96.4 -38.65 L-95.85 -44.95 -94.65 -50.9 -93.55 -55.3 -93.5 -55.55 Q-92.65 -60.95 -95.65 -64.7 L-95.95 -64.85 -96.1 -64.95 -96.4 -65.65 -96.4 -67.3 -96.1 -68.05 -95.35 -68.35 -64.8 -68.35 -64.1 -68.05 Q-63.8 -67.7 -63.8 -67.3 L-63.8 -65.85 -63.75 -65.65 Q-63.75 -64.9 -64.55 -64.7 L-66.05 -61.95 Q-67.15 -59.0 -66.6 -55.55 L-66.55 -55.3 Q-64.6 -47.5 -64.25 -44.95 -63.7 -40.45 -63.7 -38.65 -63.7 -36.65 -65.4 -36.5 L-67.75 -36.35 -39.0 -36.35 -41.35 -36.5 Q-43.05 -36.65 -43.05 -38.65 L-42.5 -44.95 Q-42.15 -47.5 -40.2 -55.3 L-40.15 -55.55 Q-39.3 -60.95 -42.3 -64.7 L-42.6 -64.85 -42.75 -64.95 -43.05 -65.65 -43.05 -67.3 -42.75 -68.05 -42.0 -68.35 -11.45 -68.35 Q-11.05 -68.35 -10.75 -68.05 L-10.45 -67.3 -10.45 -65.85 -10.4 -65.65 Q-10.4 -64.9 -11.2 -64.7 L-12.7 -61.95 Q-13.8 -59.0 -13.25 -55.55 L-13.2 -55.3 Q-11.25 -47.5 -10.9 -44.95 -10.35 -40.45 -10.35 -38.65 -10.35 -36.65 -12.05 -36.5 L-14.4 -36.35 14.35 -36.35 12.0 -36.5 Q10.3 -36.65 10.3 -38.65 10.3 -40.65 10.9 -44.95 L12.05 -50.9 13.15 -55.3 13.2 -55.55 Q13.75 -59.0 12.6 -62.0 11.95 -63.7 11.05 -64.7 L10.75 -64.85 10.6 -64.95 Q10.3 -65.35 10.3 -65.65 L10.3 -67.3 Q10.3 -67.7 10.6 -68.05 10.9 -68.35 11.35 -68.35 L41.9 -68.35 42.6 -68.05 42.9 -67.3 42.9 -65.85 42.95 -65.65 Q42.95 -64.9 42.15 -64.7 41.25 -63.55 40.65 -61.95 39.6 -58.95 40.15 -55.5 L40.15 -55.3 41.25 -50.95 42.45 -44.95 43.0 -38.65 Q43.0 -36.65 41.3 -36.5 L39.0 -36.35 67.7 -36.35 65.35 -36.5 Q63.65 -36.65 63.65 -38.65 63.65 -40.65 64.25 -44.95 L65.4 -50.9 66.5 -55.3 66.55 -55.55 Q67.4 -61.0 64.45 -64.7 L64.4 -64.7 64.1 -64.85 63.95 -65.0 Q63.65 -65.3 63.65 -65.65 L63.65 -67.3 Q63.65 -67.7 63.95 -68.05 64.25 -68.35 64.7 -68.35 L95.25 -68.35 Q95.65 -68.35 95.95 -68.05 L96.25 -67.3 96.25 -65.85 96.3 -65.65 Q96.3 -64.9 95.5 -64.7 94.6 -63.55 94.0 -61.95 92.95 -59.0 93.5 -55.55 L93.5 -55.3 Q95.45 -47.5 95.8 -44.95 L96.35 -38.65 Q96.35 -36.65 94.65 -36.5 L92.35 -36.35 96.0 -36.35 96.35 -36.0 96.35 -12.7 96.5 -14.65 Q96.6 -16.35 98.65 -16.35 L104.95 -15.75 115.3 -13.5 115.55 -13.45 Q119.0 -12.9 122.0 -14.0 123.65 -14.6 124.65 -15.5 124.9 -16.3 125.65 -16.3 L125.85 -16.25 127.3 -16.25" fill="#000000" fill-rule="evenodd" stroke="none" class="line" />
    </g>
  </defs>
  <g transform="matrix(1.0, 0.0, 0.0, 1.0, 0.0, 0.0)">
    <use height="136.0" id="Fill" transform="matrix(0.3906, 0.0, 0.0, 0.7353, 0.0, 0.0002)" width="256.0" xlink:href="#sprite0" />
    <use height="136.7" id="Line" transform="matrix(0.3896, 0.0, 0.0, 0.7315, 0.0004, 0.0005)" width="256.7" xlink:href="#sprite1" />
  </g>
</svg>