<?xml version="1.0" encoding="UTF-8" standalone="no"?>
<svg xmlns:xlink="http://www.w3.org/1999/xlink" height="100%" width="100%" xmlns="http://www.w3.org/2000/svg" preserveAspectRatio="none" viewBox="0 0 100 100">
  <defs>
    <g id="sprite0" transform="matrix(1.0, 0.0, 0.0, 1.0, 60.2, 28.7)">
      <use height="57.5" transform="matrix(1.0, 0.0, 0.0, 1.0, -60.2, -28.7)" width="120.4" xlink:href="#shape0" />
    </g>
    <g id="shape0" transform="matrix(1.0, 0.0, 0.0, 1.0, 60.2, 28.7)">
      <path d="M60.2 -13.0 L36.1 28.8 Q20.0 19.3 0.0 19.3 -20.0 19.3 -36.1 28.8 L-60.2 -12.9 Q-33.4 -28.7 0.0 -28.7 33.4 -28.7 60.2 -13.0" fill="#ffffff" fill-rule="evenodd" stroke="none" class="fill" />
    </g>
    <g id="sprite1" transform="matrix(1.0, 0.0, 0.0, 1.0, 60.7, 29.2)">
      <use height="58.5" transform="matrix(1.0, 0.0, 0.0, 1.0, -60.7, -29.2)" width="121.4" xlink:href="#shape1" />
    </g>
    <g id="shape1" transform="matrix(1.0, 0.0, 0.0, 1.0, 60.7, 29.2)">
      <path d="M59.55 -12.8 Q33.0 -28.2 0.0 -28.2 -33.0 -28.2 -59.5 -12.7 L-35.9 28.15 Q-19.85 18.8 0.0 18.8 19.85 18.8 35.95 28.15 L59.55 -12.8 M60.45 -13.4 L60.7 -13.1 60.65 -12.75 36.55 29.05 36.25 29.3 35.85 29.25 Q19.85 19.8 0.0 19.8 -19.85 19.8 -35.85 29.25 L-36.2 29.3 -36.5 29.05 -60.6 -12.65 -60.65 -13.0 -60.45 -13.3 Q-33.55 -29.2 0.0 -29.2 33.55 -29.2 60.45 -13.4" fill="#000000" fill-rule="evenodd" stroke="none" class="line" />
    </g>
  </defs>
  <g transform="matrix(1.0, 0.0, 0.0, 1.0, 0.0, 0.0)">
    <use height="57.5" id="fill" transform="matrix(0.8237, 0.0, 0.0, 1.7094, 0.4114, 0.8403)" width="120.4" xlink:href="#sprite0" />
    <use height="58.5" id="line" transform="matrix(0.8237, 0.0, 0.0, 1.7094, -0.0004, -0.0144)" width="121.4" xlink:href="#sprite1" />
  </g>
</svg>