<?xml version="1.0" encoding="UTF-8" standalone="no"?>
<svg xmlns:xlink="http://www.w3.org/1999/xlink" height="100%" width="100%" xmlns="http://www.w3.org/2000/svg" preserveAspectRatio="none" viewBox="0 0 100 100">
  <defs>
    <g id="sprite0" transform="matrix(1.0, 0.0, 0.0, 1.0, 96.0, 62.0)">
      <use height="124.0" transform="matrix(1.0, 0.0, 0.0, 1.0, -96.0, -62.0)" width="192.0" xlink:href="#shape0" />
    </g>
    <g id="shape0" transform="matrix(1.0, 0.0, 0.0, 1.0, 96.0, 62.0)">
      <path d="M-96.0 30.05 L-96.0 -30.0 96.0 -30.0 96.0 30.05 -96.0 30.05" fill="#ffffff" fill-rule="evenodd" stroke="none" class="fill" />
      <path d="M-39.8 -49.25 L-39.75 -49.45 Q-39.1 -53.3 -40.5 -56.5 L-42.0 -58.95 -42.1 -59.0 -42.4 -59.2 -42.65 -59.65 -42.65 -61.3 Q-42.65 -62.0 -41.95 -62.0 L-11.4 -62.0 -10.95 -61.8 -10.75 -61.3 -10.75 -59.65 -10.7 -59.65 Q-10.7 -59.1 -11.3 -59.0 L-11.35 -58.95 -12.8 -56.5 Q-14.15 -53.3 -13.5 -49.45 L-13.5 -49.25 -12.4 -44.85 Q-11.45 -40.75 -11.2 -38.9 -10.65 -34.35 -10.65 -32.6 -10.65 -30.95 -12.0 -30.85 L-26.65 -30.0 -41.25 -30.85 Q-42.65 -30.95 -42.65 -32.6 -42.65 -34.55 -42.05 -38.9 -41.85 -40.7 -40.85 -44.8 L-39.8 -49.25" fill="#ffffff" fill-rule="evenodd" stroke="none" class="fill" />
      <path d="M-93.15 -49.25 L-93.1 -49.45 Q-92.45 -53.3 -93.85 -56.5 L-95.35 -58.95 -95.45 -59.0 -95.75 -59.2 -96.0 -59.65 -96.0 -61.3 -95.8 -61.8 -95.3 -62.0 -64.75 -62.0 -64.25 -61.8 -64.05 -61.3 -64.05 -59.65 -64.0 -59.65 Q-64.0 -59.1 -64.6 -59.0 L-64.65 -58.95 -66.1 -56.5 Q-67.45 -53.3 -66.85 -49.45 L-66.8 -49.25 Q-64.85 -41.55 -64.55 -38.9 -64.0 -34.35 -64.0 -32.6 -64.0 -30.95 -65.35 -30.85 L-80.0 -30.0 -94.6 -30.85 Q-96.0 -30.95 -96.0 -32.6 L-95.4 -38.9 Q-95.05 -41.55 -93.15 -49.25" fill="#ffffff" fill-rule="evenodd" stroke="none" class="fill" />
      <path d="M13.5 -49.25 L13.55 -49.45 Q14.2 -53.3 12.8 -56.5 L11.3 -58.95 11.2 -59.0 10.9 -59.2 10.7 -59.65 10.7 -61.3 10.9 -61.8 11.35 -62.0 41.9 -62.0 42.4 -61.8 42.6 -61.3 42.6 -59.65 42.65 -59.65 Q42.65 -59.1 42.05 -59.0 L42.0 -58.95 40.55 -56.5 Q39.2 -53.3 39.8 -49.45 L39.85 -49.25 Q41.8 -41.55 42.1 -38.9 42.7 -34.55 42.7 -32.6 42.7 -30.95 41.3 -30.85 L26.7 -30.0 12.05 -30.85 Q10.7 -30.95 10.7 -32.6 10.7 -34.35 11.25 -38.9 11.7 -42.0 13.5 -49.25" fill="#ffffff" fill-rule="evenodd" stroke="none" class="fill" />
      <path d="M-13.5 49.3 L-13.5 49.5 Q-14.15 53.35 -12.8 56.55 -12.15 58.15 -11.35 59.0 L-11.3 59.05 Q-10.7 59.15 -10.7 59.7 L-10.75 59.7 -10.75 61.35 Q-10.75 62.0 -11.4 62.0 L-41.95 62.0 Q-42.65 62.0 -42.65 61.35 L-42.65 59.7 -42.4 59.25 -42.1 59.05 -42.0 59.0 Q-41.2 58.15 -40.5 56.55 -39.1 53.35 -39.75 49.5 L-39.8 49.3 Q-41.7 41.8 -42.05 38.95 -42.65 34.6 -42.65 32.65 -42.65 31.0 -41.25 30.9 L-26.65 30.05 -12.0 30.9 Q-10.65 31.0 -10.65 32.65 -10.65 34.4 -11.2 38.95 -11.45 40.8 -12.4 44.9 L-13.5 49.3" fill="#ffffff" fill-rule="evenodd" stroke="none" class="fill" />
      <path d="M-66.8 49.3 L-66.85 49.5 Q-67.45 53.35 -66.1 56.55 -65.45 58.15 -64.65 59.0 L-64.6 59.05 Q-64.0 59.15 -64.0 59.7 L-64.05 59.7 -64.05 61.35 -64.25 61.8 -64.75 62.0 -95.3 62.0 Q-95.55 62.0 -95.8 61.8 L-96.0 61.35 -96.0 59.7 -95.75 59.25 -95.45 59.05 -95.35 59.0 Q-94.55 58.15 -93.85 56.55 -92.45 53.35 -93.1 49.5 L-93.15 49.3 Q-95.05 41.8 -95.4 38.95 L-96.0 32.65 Q-96.0 31.0 -94.6 30.9 L-80.0 30.05 -65.35 30.9 Q-64.0 31.0 -64.0 32.65 -64.0 34.4 -64.55 38.95 -64.9 41.8 -66.8 49.3" fill="#ffffff" fill-rule="evenodd" stroke="none" class="fill" />
      <path d="M39.85 49.3 L39.8 49.5 Q39.2 53.35 40.55 56.55 41.2 58.15 42.0 59.0 L42.05 59.05 Q42.65 59.15 42.65 59.7 L42.6 59.7 42.6 61.35 Q42.6 62.0 41.9 62.0 L11.35 62.0 Q10.7 62.0 10.7 61.35 L10.7 59.7 10.9 59.25 11.2 59.05 11.3 59.0 12.8 56.55 Q14.2 53.35 13.55 49.5 L13.5 49.3 11.25 38.95 Q10.7 34.4 10.7 32.65 10.7 31.0 12.05 30.9 L26.7 30.05 41.3 30.9 Q42.7 31.0 42.7 32.65 42.7 34.6 42.1 38.95 41.75 41.8 39.85 49.3" fill="#ffffff" fill-rule="evenodd" stroke="none" class="fill" />
      <path d="M66.85 -49.25 L66.9 -49.45 Q67.55 -53.3 66.15 -56.5 L64.65 -58.95 64.55 -59.0 64.25 -59.2 64.0 -59.65 64.0 -61.3 64.2 -61.8 64.7 -62.0 95.25 -62.0 95.75 -61.8 95.95 -61.3 95.95 -59.65 96.0 -59.65 Q96.0 -59.1 95.4 -59.0 L95.35 -58.95 93.9 -56.5 Q92.55 -53.3 93.15 -49.45 L93.2 -49.25 Q95.15 -41.55 95.45 -38.9 L96.0 -32.6 Q96.0 -30.95 94.65 -30.85 L80.0 -30.0 65.4 -30.85 Q64.0 -30.95 64.0 -32.6 64.0 -34.55 64.6 -38.9 64.95 -41.55 66.85 -49.25" fill="#ffffff" fill-rule="evenodd" stroke="none" class="fill" />
      <path d="M93.2 49.3 L93.15 49.5 Q92.55 53.35 93.9 56.55 94.55 58.15 95.35 59.0 L95.4 59.05 Q96.0 59.15 96.0 59.7 L95.95 59.7 95.95 61.35 95.75 61.8 95.25 62.0 64.7 62.0 Q64.45 62.0 64.2 61.8 L64.0 61.35 64.0 59.7 64.25 59.25 64.55 59.05 64.65 59.0 66.15 56.55 Q67.55 53.35 66.9 49.5 L66.85 49.3 Q64.95 41.8 64.6 38.95 64.0 34.6 64.0 32.65 64.0 31.0 65.4 30.9 L80.0 30.05 94.65 30.9 Q96.0 31.0 96.0 32.65 L95.45 38.95 Q95.1 41.8 93.2 49.3" fill="#ffffff" fill-rule="evenodd" stroke="none" class="fill" />
    </g>
    <g id="sprite1" transform="matrix(1.0, 0.0, 0.0, 1.0, 96.35, 62.35)">
      <use height="124.7" transform="matrix(1.0, 0.0, 0.0, 1.0, -96.35, -62.35)" width="192.7" xlink:href="#shape1" />
    </g>
    <g id="shape1" transform="matrix(1.0, 0.0, 0.0, 1.0, 96.35, 62.35)">
      <path d="M-11.1 61.35 L-11.1 59.7 -11.4 59.35 -41.9 59.35 -42.1 59.45 -42.15 59.5 -42.25 59.7 -42.3 59.85 -42.3 61.35 -41.95 61.65 -11.4 61.65 Q-11.1 61.65 -11.1 61.35 M-12.05 58.65 Q-14.25 55.55 -14.05 51.2 -14.6 51.7 -15.8 51.7 L-37.5 51.7 Q-38.7 51.7 -39.25 51.2 -39.0 55.65 -41.3 58.65 L-12.05 58.65 M-11.0 32.65 Q-11.0 31.25 -12.05 31.25 L-26.65 30.4 -41.25 31.25 Q-42.3 31.25 -42.3 32.65 -42.3 34.7 -41.7 38.9 -41.35 41.65 -39.5 49.15 L-39.45 49.2 -39.45 49.4 -39.0 50.5 Q-38.55 51.0 -37.5 51.0 L-15.8 51.0 Q-14.75 51.0 -14.3 50.5 L-13.85 49.45 -13.85 49.3 -13.8 49.2 -13.8 49.15 Q-11.75 40.6 -11.55 38.9 -11.0 34.5 -11.0 32.65 M-64.4 61.35 L-64.4 59.7 Q-64.4 59.55 -64.75 59.35 L-95.25 59.35 -95.45 59.45 -95.5 59.5 -95.6 59.7 -95.65 59.85 -95.65 61.35 Q-95.65 61.65 -95.3 61.65 L-64.75 61.65 Q-64.4 61.65 -64.4 61.35 M-65.4 58.65 Q-67.55 55.6 -67.4 51.2 -67.95 51.7 -69.15 51.7 L-90.8 51.7 Q-91.95 51.7 -92.6 51.2 -92.35 55.55 -94.6 58.65 L-65.4 58.65 M-64.35 32.65 Q-64.35 31.25 -65.4 31.25 L-80.0 30.4 -94.55 31.25 Q-95.65 31.25 -95.65 32.65 L-95.05 38.9 -93.9 44.7 -92.8 49.15 -92.8 49.25 -92.75 49.4 -92.3 50.5 Q-91.95 51.0 -90.8 51.0 L-69.15 51.0 Q-68.0 51.0 -67.65 50.5 L-67.2 49.45 -67.2 49.3 -67.15 49.2 -67.15 49.15 Q-65.2 41.45 -64.9 38.9 -64.35 34.5 -64.35 32.65 M-94.6 -58.6 Q-92.4 -55.5 -92.55 -51.15 -91.9 -51.7 -90.8 -51.7 L-69.15 -51.7 Q-68.05 -51.7 -67.4 -51.15 -67.55 -55.55 -65.4 -58.6 L-94.6 -58.6 M-95.65 -32.6 Q-95.65 -31.2 -94.55 -31.2 L-80.0 -30.35 -65.4 -31.2 Q-64.35 -31.2 -64.35 -32.6 -64.35 -34.45 -64.9 -38.85 -65.2 -41.45 -67.15 -49.15 L-67.15 -49.25 -67.2 -49.35 Q-67.3 -50.05 -67.65 -50.45 -68.05 -51.0 -69.15 -51.0 L-90.8 -51.0 Q-91.9 -51.0 -92.3 -50.45 L-92.75 -49.4 -92.75 -49.25 -92.8 -49.15 -92.8 -49.1 Q-94.55 -42.6 -95.05 -38.85 L-95.65 -32.6 M-95.3 -61.65 L-95.65 -61.3 -95.65 -59.8 -95.6 -59.65 -95.5 -59.45 -95.45 -59.4 -95.25 -59.3 -64.75 -59.3 Q-64.4 -59.45 -64.4 -59.65 L-64.4 -61.3 Q-64.4 -61.65 -64.75 -61.65 L-95.3 -61.65 M-41.95 -61.65 L-42.3 -61.3 -42.3 -59.8 -42.25 -59.65 -42.15 -59.45 -42.1 -59.4 -41.9 -59.3 -11.4 -59.3 -11.1 -59.65 -11.1 -61.3 Q-11.1 -61.65 -11.4 -61.65 L-41.95 -61.65 M-42.3 -32.6 Q-42.3 -31.2 -41.25 -31.2 L-26.65 -30.35 -12.05 -31.2 Q-11.0 -31.2 -11.0 -32.6 -11.0 -34.45 -11.55 -38.85 -12.0 -41.9 -13.8 -49.15 L-13.85 -49.25 -13.85 -49.35 -14.3 -50.45 Q-14.75 -51.0 -15.8 -51.0 L-37.5 -51.0 Q-38.55 -51.0 -39.0 -50.45 L-39.4 -49.4 -39.45 -49.25 -39.45 -49.15 -39.5 -49.1 -41.7 -38.85 Q-42.3 -34.65 -42.3 -32.6 M-41.3 -58.6 Q-39.0 -55.6 -39.25 -51.15 -38.55 -51.7 -37.5 -51.7 L-15.8 -51.7 Q-14.7 -51.7 -14.05 -51.15 -14.2 -55.55 -12.05 -58.6 L-41.3 -58.6 M95.65 29.7 L95.65 -29.65 -95.65 -29.65 -95.65 29.7 95.65 29.7 M95.6 61.35 L95.6 59.7 95.25 59.35 64.75 59.35 64.55 59.45 64.5 59.5 64.4 59.7 64.35 59.85 64.35 61.35 Q64.35 61.65 64.7 61.65 L95.25 61.65 95.6 61.35 M42.25 61.35 L42.25 59.7 41.95 59.35 11.4 59.35 11.25 59.45 11.15 59.5 11.05 59.85 11.05 61.35 Q11.05 61.65 11.35 61.65 L41.9 61.65 Q42.25 61.65 42.25 61.35 M41.25 58.65 Q39.05 55.6 39.3 51.2 38.65 51.7 37.55 51.7 L15.85 51.7 Q14.65 51.7 14.1 51.2 14.3 55.75 12.05 58.65 L41.25 58.65 M42.35 32.65 Q42.35 31.25 41.3 31.25 L26.7 30.4 12.1 31.25 Q11.05 31.25 11.05 32.65 11.05 34.6 11.6 38.9 L12.75 44.75 13.85 49.15 13.85 49.2 13.9 49.25 13.9 49.4 14.35 50.5 Q14.8 51.0 15.85 51.0 L37.55 51.0 Q38.6 51.0 39.05 50.5 L39.45 49.45 39.5 49.3 39.5 49.15 40.6 44.7 41.75 38.9 Q42.35 34.7 42.35 32.65 M94.6 58.65 Q92.45 55.6 92.6 51.2 92.05 51.7 90.85 51.7 L69.2 51.7 Q68.05 51.7 67.4 51.2 67.65 55.55 65.4 58.65 L94.6 58.65 M95.65 32.65 Q95.65 31.25 94.6 31.25 L80.0 30.4 65.45 31.25 Q64.35 31.25 64.35 32.65 L64.95 38.9 66.1 44.75 67.2 49.15 67.2 49.25 67.25 49.4 Q67.35 50.1 67.7 50.5 68.05 51.0 69.2 51.0 L90.85 51.0 Q91.9 51.0 92.35 50.5 L92.8 49.45 92.8 49.3 92.85 49.2 92.85 49.15 Q94.6 42.65 95.1 38.9 L95.65 32.65 M11.05 -32.6 Q11.05 -31.2 12.1 -31.2 L26.7 -30.35 41.3 -31.2 Q42.35 -31.2 42.35 -32.6 42.35 -34.65 41.75 -38.85 41.45 -41.45 39.5 -49.15 L39.5 -49.35 39.05 -50.45 Q38.6 -51.0 37.55 -51.0 L15.85 -51.0 Q14.8 -51.0 14.35 -50.45 L13.9 -49.4 13.9 -49.25 13.85 -49.15 13.85 -49.1 Q11.8 -40.55 11.6 -38.85 11.05 -34.55 11.05 -32.6 M12.05 -58.6 Q14.3 -55.7 14.1 -51.15 14.75 -51.7 15.85 -51.7 L37.55 -51.7 Q38.6 -51.7 39.3 -51.15 39.05 -55.55 41.25 -58.6 L12.05 -58.6 M11.35 -61.65 Q11.05 -61.65 11.05 -61.3 L11.05 -59.8 11.15 -59.45 11.25 -59.4 11.4 -59.3 41.95 -59.3 42.25 -59.65 42.25 -61.3 41.9 -61.65 11.35 -61.65 M65.4 -58.6 Q67.65 -55.5 67.4 -51.15 68.1 -51.7 69.2 -51.7 L90.85 -51.7 Q91.95 -51.7 92.6 -51.15 92.45 -55.55 94.6 -58.6 L65.4 -58.6 M64.35 -32.6 Q64.35 -31.2 65.45 -31.2 L80.0 -30.35 94.6 -31.2 Q95.65 -31.2 95.65 -32.6 L95.1 -38.85 93.9 -44.75 92.85 -49.15 92.85 -49.25 92.8 -49.35 92.35 -50.45 Q91.9 -51.0 90.85 -51.0 L69.2 -51.0 Q68.1 -51.0 67.7 -50.45 L67.25 -49.4 67.2 -49.25 67.2 -49.1 66.1 -44.6 64.95 -38.85 64.35 -32.6 M96.0 -30.35 L96.35 -30.0 96.35 30.05 96.0 30.4 92.4 30.4 94.65 30.55 Q96.35 30.65 96.35 32.65 L95.8 39.0 93.55 49.35 93.5 49.6 Q92.95 53.05 94.0 56.05 94.7 57.85 95.55 58.7 96.3 58.95 96.3 59.7 L96.3 61.35 96.0 62.05 95.25 62.35 64.7 62.35 Q64.3 62.35 63.95 62.05 63.65 61.75 63.65 61.35 L63.65 59.7 Q63.65 59.35 64.0 59.0 L64.15 58.9 64.25 58.85 64.4 58.75 64.45 58.7 Q65.35 57.7 66.0 56.0 67.1 53.05 66.55 49.55 L66.5 49.35 Q64.55 41.6 64.25 39.0 L63.65 32.65 Q63.65 30.65 65.35 30.55 L67.65 30.4 39.05 30.4 41.35 30.55 Q43.05 30.65 43.05 32.65 43.05 34.75 42.45 39.0 42.1 41.85 40.2 49.35 L40.15 49.6 Q39.6 53.05 40.7 56.0 41.35 57.75 42.2 58.7 43.0 58.95 43.0 59.7 L42.95 59.85 42.95 61.35 42.65 62.05 41.9 62.35 11.35 62.35 10.65 62.05 Q10.35 61.75 10.35 61.35 L10.35 59.7 Q10.35 59.4 10.65 59.0 L10.8 58.9 11.1 58.75 11.1 58.7 12.65 56.0 Q13.75 53.05 13.2 49.55 L13.2 49.35 Q11.25 41.55 10.9 39.0 10.35 34.5 10.35 32.65 10.35 30.65 12.05 30.55 L14.35 30.4 -14.3 30.4 -12.0 30.55 Q-10.3 30.65 -10.3 32.65 -10.3 34.5 -10.85 39.0 -11.1 40.85 -12.05 44.9 L-13.15 49.35 -13.2 49.6 Q-13.75 53.05 -12.65 56.0 -12.0 57.75 -11.15 58.7 -10.35 58.95 -10.35 59.7 L-10.4 59.85 -10.4 61.35 Q-10.4 61.75 -10.7 62.05 -11.0 62.35 -11.4 62.35 L-41.95 62.35 -42.7 62.05 -43.0 61.35 -43.0 59.7 -42.65 59.0 -42.5 58.9 -42.45 58.85 -42.25 58.75 -42.2 58.7 Q-41.3 57.7 -40.65 56.0 -39.55 53.05 -40.1 49.55 L-40.15 49.35 -41.2 45.0 -42.4 39.0 Q-43.0 34.75 -43.0 32.65 -43.0 30.65 -41.3 30.55 L-39.0 30.4 -67.6 30.4 -65.35 30.55 Q-63.65 30.65 -63.65 32.65 -63.65 34.5 -64.2 39.0 -64.55 41.85 -66.45 49.35 L-66.5 49.6 Q-67.05 53.05 -66.0 56.05 -65.3 57.85 -64.45 58.7 -63.65 58.95 -63.65 59.7 L-63.7 59.85 -63.7 61.35 Q-63.7 61.75 -64.0 62.05 -64.35 62.35 -64.75 62.35 L-95.3 62.35 Q-95.7 62.35 -96.05 62.05 L-96.35 61.35 -96.35 59.7 -96.0 59.0 -95.85 58.9 -95.75 58.85 -95.6 58.75 -95.55 58.7 Q-94.65 57.7 -94.0 56.0 -92.9 53.05 -93.45 49.55 L-93.5 49.35 Q-95.45 41.6 -95.75 39.0 L-96.35 32.65 Q-96.35 30.65 -94.65 30.55 L-92.35 30.4 -96.0 30.4 -96.35 30.05 -96.35 -30.0 -96.0 -30.35 -92.3 -30.35 -94.65 -30.5 Q-96.35 -30.6 -96.35 -32.6 L-95.75 -38.95 Q-95.55 -40.75 -94.55 -44.85 L-93.5 -49.3 -93.45 -49.55 Q-92.9 -53.0 -94.0 -55.95 -94.65 -57.65 -95.55 -58.65 L-95.6 -58.7 -95.75 -58.8 -95.85 -58.85 -96.0 -58.95 -96.35 -59.65 -96.35 -61.3 -96.05 -62.05 -95.3 -62.35 -64.75 -62.35 -64.0 -62.05 Q-63.7 -61.7 -63.7 -61.3 L-63.7 -59.8 -63.65 -59.65 Q-63.65 -58.9 -64.45 -58.65 -65.3 -57.8 -66.0 -55.95 -67.05 -53.0 -66.5 -49.55 L-66.45 -49.3 Q-64.6 -41.95 -64.2 -38.95 -63.65 -34.45 -63.65 -32.6 -63.65 -30.55 -65.35 -30.5 L-67.65 -30.35 -38.95 -30.35 -41.3 -30.5 Q-43.0 -30.6 -43.0 -32.6 -43.0 -34.65 -42.4 -38.95 -42.1 -41.55 -40.15 -49.3 L-40.1 -49.55 Q-39.55 -53.0 -40.65 -55.95 -41.3 -57.65 -42.2 -58.65 L-42.25 -58.7 -42.45 -58.8 -42.5 -58.85 -42.65 -58.95 -43.0 -59.65 -43.0 -61.3 -42.7 -62.05 -41.95 -62.35 -11.4 -62.35 Q-11.0 -62.35 -10.7 -62.05 -10.4 -61.7 -10.4 -61.3 L-10.4 -59.8 -10.35 -59.65 Q-10.35 -58.9 -11.15 -58.65 -12.0 -57.7 -12.65 -55.95 -13.75 -53.0 -13.2 -49.55 L-13.15 -49.3 Q-11.2 -41.5 -10.85 -38.95 -10.3 -34.45 -10.3 -32.6 -10.3 -30.6 -12.0 -30.5 L-14.3 -30.35 14.35 -30.35 12.05 -30.5 Q10.35 -30.6 10.35 -32.6 10.35 -34.45 10.9 -38.95 11.15 -40.8 12.1 -44.85 L13.2 -49.3 13.25 -49.55 Q13.8 -53.0 12.65 -55.95 L11.1 -58.65 11.1 -58.7 10.8 -58.85 10.65 -58.95 Q10.35 -59.35 10.35 -59.65 L10.35 -61.3 10.65 -62.05 11.35 -62.35 41.9 -62.35 42.65 -62.05 42.95 -61.3 42.95 -59.8 43.0 -59.65 Q43.0 -58.9 42.2 -58.65 41.35 -57.65 40.7 -55.95 39.6 -53.0 40.15 -49.55 L40.2 -49.3 Q42.15 -41.55 42.45 -38.95 43.05 -34.65 43.05 -32.6 43.05 -30.6 41.35 -30.5 L39.0 -30.35 67.7 -30.35 65.35 -30.5 Q63.65 -30.6 63.65 -32.6 L64.25 -38.95 Q64.45 -40.75 65.45 -44.85 L66.5 -49.3 66.55 -49.55 Q67.1 -53.0 66.0 -55.95 65.35 -57.65 64.45 -58.65 L64.4 -58.7 64.25 -58.8 64.15 -58.85 64.0 -58.95 Q63.65 -59.3 63.65 -59.65 L63.65 -61.3 Q63.65 -61.7 63.95 -62.05 64.3 -62.35 64.7 -62.35 L95.25 -62.35 96.0 -62.05 96.3 -61.3 96.3 -59.65 Q96.3 -58.9 95.55 -58.65 94.7 -57.8 94.0 -55.95 92.95 -52.95 93.5 -49.5 L93.55 -49.3 94.6 -44.95 95.8 -38.95 96.35 -32.6 Q96.35 -30.55 94.65 -30.5 L92.35 -30.35 96.0 -30.35 M64.7 -61.65 Q64.35 -61.65 64.35 -61.3 L64.35 -59.8 64.4 -59.65 64.5 -59.45 64.55 -59.4 64.75 -59.3 95.25 -59.3 95.6 -59.65 95.6 -61.3 95.25 -61.65 64.7 -61.65" fill="#000000" fill-rule="evenodd" stroke="none" class="line" />
    </g>
  </defs>
  <g transform="matrix(1.0, 0.0, 0.0, 1.0, 0.0, 0.0)">
    <use height="124.0" id="Fill" transform="matrix(0.5208, 0.0, 0.0, 0.8065, 0.0005, -0.0004)" width="192.0" xlink:href="#sprite0" />
    <use height="124.7" id="Line" transform="matrix(0.5189, 0.0, 0.0, 0.8019, 0.0005, -0.0001)" width="192.7" xlink:href="#sprite1" />
  </g>
</svg>