<?xml version="1.0" encoding="UTF-8" standalone="no"?>
<svg xmlns:xlink="http://www.w3.org/1999/xlink" height="100%" width="100%" xmlns="http://www.w3.org/2000/svg" preserveAspectRatio="none" viewBox="0 0 100 100">
  <defs>
    <g id="sprite0" transform="matrix(1.0, 0.0, 0.0, 1.0, 280.7, 20.1)">
      <use height="40.2" transform="matrix(1.0, 0.0, 0.0, 1.0, -280.7, -20.1)" width="561.4" xlink:href="#shape0" />
    </g>
    <g id="shape0" transform="matrix(1.0, 0.0, 0.0, 1.0, 280.7, 20.1)">
      <path d="M-137.8 -16.8 L-137.85 -17.0 -137.9 -17.3 -137.9 -19.1 Q-137.9 -20.1 -136.9 -20.1 L-100.25 -20.1 Q-99.25 -20.1 -99.25 -19.1 L-99.25 -17.3 -99.3 -17.0 -99.35 -16.8 -99.7 -16.4 Q-103.55 -12.0 -102.7 -4.7 L-102.35 -3.5 Q-99.55 6.95 -99.1 17.0 -99.0 19.0 -101.0 19.0 L-118.85 20.1 -136.15 19.0 Q-138.15 19.0 -138.05 17.0 -137.6 6.5 -134.5 -4.45 L-134.45 -4.7 Q-133.6 -12.0 -137.45 -16.4 L-137.8 -16.8 M-42.8 -19.1 Q-42.8 -20.1 -41.8 -20.1 L-5.15 -20.1 Q-4.15 -20.1 -4.15 -19.1 L-4.15 -17.3 -4.2 -17.0 -4.25 -16.8 -4.6 -16.4 Q-8.45 -12.0 -7.6 -4.7 L-6.5 -0.65 Q-4.35 8.35 -4.0 17.0 -3.9 19.0 -5.9 19.0 L-23.75 20.1 -41.05 19.0 Q-43.05 19.0 -42.95 17.0 -42.55 7.85 -40.15 -1.65 L-39.35 -4.7 Q-38.5 -12.0 -42.35 -16.4 L-42.7 -16.8 -42.75 -17.0 -42.8 -17.3 -42.8 -19.1 M-90.35 -19.1 Q-90.35 -20.1 -89.35 -20.1 L-52.7 -20.1 Q-51.7 -20.1 -51.7 -19.1 L-51.7 -17.3 -51.75 -17.0 -51.8 -16.8 -52.15 -16.4 Q-56.0 -12.0 -55.15 -4.7 L-54.45 -2.05 Q-51.95 7.65 -51.55 17.0 -51.45 19.0 -53.45 19.0 L-71.3 20.1 -88.6 19.0 Q-90.6 19.0 -90.5 17.0 -90.1 7.2 -87.35 -3.05 L-86.9 -4.7 Q-86.05 -12.0 -89.9 -16.4 L-90.25 -16.8 -90.3 -17.0 -90.35 -17.3 -90.35 -19.1 M-280.1 -16.4 L-280.45 -16.8 -280.5 -17.0 -280.55 -17.3 -280.55 -19.1 Q-280.55 -20.1 -279.55 -20.1 L-242.9 -20.1 Q-241.9 -20.1 -241.9 -19.1 L-241.9 -17.3 -241.95 -17.0 -242.0 -16.8 -242.35 -16.4 Q-246.2 -12.0 -245.35 -4.7 -242.2 6.4 -241.75 17.0 -241.65 19.0 -243.65 19.0 L-261.5 20.1 -278.8 19.0 Q-280.8 19.0 -280.7 17.0 -280.25 6.4 -277.1 -4.7 -276.25 -12.0 -280.1 -16.4 M-185.45 -19.1 Q-185.45 -20.1 -184.45 -20.1 L-147.8 -20.1 Q-146.8 -20.1 -146.8 -19.1 L-146.8 -17.3 -146.85 -17.0 -146.9 -16.8 Q-147.0 -16.55 -147.25 -16.4 -151.05 -12.05 -150.25 -4.95 L-150.25 -4.7 Q-147.1 6.4 -146.65 17.0 -146.55 19.0 -148.55 19.0 L-166.4 20.1 -183.7 19.0 Q-185.7 19.0 -185.6 17.0 -185.15 6.4 -182.0 -4.7 L-181.9 -5.85 Q-181.45 -12.35 -185.0 -16.4 L-185.35 -16.8 -185.4 -17.0 -185.45 -17.3 -185.45 -19.1 M-233.0 -19.1 Q-233.0 -20.1 -232.0 -20.1 L-195.35 -20.1 Q-194.35 -20.1 -194.35 -19.1 L-194.35 -17.3 -194.4 -17.0 -194.45 -16.8 Q-194.55 -16.55 -194.8 -16.4 -198.2 -12.5 -197.9 -6.35 L-197.8 -4.7 Q-194.65 6.4 -194.2 17.0 -194.1 19.0 -196.1 19.0 L-213.95 20.1 -231.25 19.0 Q-233.25 19.0 -233.15 17.0 -232.7 6.4 -229.55 -4.7 L-229.4 -7.3 Q-229.4 -12.8 -232.55 -16.4 L-232.9 -16.8 -232.95 -17.0 -233.0 -17.3 -233.0 -19.1" fill="#ffffff" fill-rule="evenodd" stroke="none" class="fill" />
      <path d="M146.9 -16.8 L146.85 -17.0 146.8 -17.3 146.8 -19.1 Q146.8 -20.1 147.8 -20.1 L184.45 -20.1 Q185.45 -20.1 185.45 -19.1 L185.45 -17.3 185.4 -17.0 185.35 -16.8 185.0 -16.4 Q181.15 -12.0 182.0 -4.7 L182.35 -3.5 Q185.15 6.95 185.6 17.0 185.7 19.0 183.7 19.0 L165.85 20.1 148.55 19.0 Q146.55 19.0 146.65 17.0 147.1 6.5 150.2 -4.45 L150.25 -4.7 Q151.1 -12.0 147.25 -16.4 147.0 -16.55 146.9 -16.8 M241.9 -19.1 Q241.9 -20.1 242.9 -20.1 L279.55 -20.1 Q280.55 -20.1 280.55 -19.1 L280.55 -17.3 280.5 -17.0 280.45 -16.8 280.1 -16.4 Q276.25 -12.0 277.1 -4.7 L278.2 -0.65 Q280.35 8.35 280.7 17.0 280.8 19.0 278.8 19.0 L260.95 20.1 243.65 19.0 Q241.65 19.0 241.75 17.0 242.15 7.85 244.55 -1.65 L245.35 -4.7 Q246.2 -12.0 242.35 -16.4 L242.0 -16.8 241.95 -17.0 241.9 -17.3 241.9 -19.1 M194.35 -19.1 Q194.35 -20.1 195.35 -20.1 L232.0 -20.1 Q233.0 -20.1 233.0 -19.1 L233.0 -17.3 232.95 -17.0 232.9 -16.8 232.55 -16.4 Q228.7 -12.0 229.55 -4.7 L230.25 -2.05 Q232.75 7.65 233.15 17.0 233.25 19.0 231.25 19.0 L213.4 20.1 196.1 19.0 Q194.1 19.0 194.2 17.0 194.6 7.2 197.35 -3.05 L197.8 -4.7 Q198.65 -12.0 194.8 -16.4 194.55 -16.55 194.45 -16.8 L194.4 -17.0 194.35 -17.3 194.35 -19.1 M4.6 -16.4 L4.25 -16.8 4.2 -17.0 4.15 -17.3 4.15 -19.1 Q4.15 -20.1 5.15 -20.1 L41.8 -20.1 Q42.8 -20.1 42.8 -19.1 L42.8 -17.3 42.75 -17.0 42.7 -16.8 42.35 -16.4 Q38.5 -12.0 39.35 -4.7 42.5 6.4 42.95 17.0 43.05 19.0 41.05 19.0 L23.2 20.1 5.9 19.0 Q3.9 19.0 4.0 17.0 4.45 6.4 7.6 -4.7 8.45 -12.0 4.6 -16.4 M99.25 -19.1 Q99.25 -20.1 100.25 -20.1 L136.9 -20.1 Q137.9 -20.1 137.9 -19.1 L137.9 -17.3 137.85 -17.0 137.8 -16.8 137.45 -16.4 Q133.65 -12.05 134.45 -4.95 L134.45 -4.7 Q137.6 6.4 138.05 17.0 138.15 19.0 136.15 19.0 L118.3 20.1 101.0 19.0 Q99.0 19.0 99.1 17.0 99.55 6.4 102.7 -4.7 L102.8 -5.85 Q103.25 -12.35 99.7 -16.4 L99.35 -16.8 99.3 -17.0 99.25 -17.3 99.25 -19.1 M51.7 -19.1 Q51.7 -20.1 52.7 -20.1 L89.35 -20.1 Q90.35 -20.1 90.35 -19.1 L90.35 -17.3 90.3 -17.0 90.25 -16.8 89.9 -16.4 Q86.5 -12.5 86.8 -6.35 L86.9 -4.7 Q90.05 6.4 90.5 17.0 90.6 19.0 88.6 19.0 L70.75 20.1 53.45 19.0 Q51.45 19.0 51.55 17.0 52.0 6.4 55.15 -4.7 L55.3 -7.3 Q55.3 -12.8 52.15 -16.4 L51.8 -16.8 51.75 -17.0 51.7 -17.3 51.7 -19.1" fill="#ffffff" fill-rule="evenodd" stroke="none" class="fill" />
    </g>
    <g id="sprite1" transform="matrix(1.0, 0.0, 0.0, 1.0, 281.7, 20.6)">
      <use height="41.2" transform="matrix(1.0, 0.0, 0.0, 1.0, -281.7, -20.6)" width="563.4" xlink:href="#shape1" />
    </g>
    <g id="shape1" transform="matrix(1.0, 0.0, 0.0, 1.0, 281.7, 20.6)">
      <path d="M-180.2 -6.2 Q-181.75 -6.2 -182.0 -4.65 L-182.0 -4.6 -182.05 -4.45 Q-185.15 6.55 -185.6 17.05 -185.65 17.75 -185.3 18.15 -184.95 18.5 -184.2 18.5 L-184.15 18.5 -166.9 19.6 -149.1 18.5 -149.05 18.5 Q-148.3 18.5 -147.9 18.15 -147.6 17.75 -147.65 17.05 -148.1 6.55 -151.2 -4.45 L-151.25 -4.6 -151.25 -4.65 Q-151.5 -6.2 -153.05 -6.2 L-180.2 -6.2 M-181.85 -6.8 L-180.2 -7.2 -153.05 -7.2 Q-152.05 -7.2 -151.4 -6.8 -151.5 -12.15 -148.85 -15.8 L-184.35 -15.8 Q-181.75 -12.15 -181.85 -6.8 M-186.45 -19.1 Q-186.45 -20.6 -184.95 -20.6 L-148.3 -20.6 Q-146.8 -20.6 -146.8 -19.1 L-146.8 -17.3 -146.85 -16.9 -146.9 -16.6 -146.95 -16.55 -147.4 -16.0 Q-151.05 -11.75 -150.25 -4.75 -147.1 6.35 -146.65 17.0 -146.6 18.25 -147.2 18.85 -147.8 19.5 -149.0 19.5 L-166.9 20.6 -184.25 19.5 Q-185.45 19.5 -186.0 18.85 -186.65 18.25 -186.6 17.0 -186.15 6.35 -183.0 -4.75 -182.2 -11.75 -185.8 -16.0 L-186.3 -16.55 -186.3 -16.6 -186.4 -16.9 -186.45 -17.3 -186.45 -19.1 M-184.95 -19.6 Q-185.45 -19.6 -185.45 -19.1 L-185.45 -17.3 -185.4 -17.15 -185.4 -17.0 -185.35 -16.95 -185.3 -16.85 -184.95 -16.8 -148.3 -16.8 -147.95 -16.85 -147.85 -16.95 -147.85 -17.0 -147.8 -17.15 -147.8 -17.3 -147.8 -19.1 Q-147.8 -19.6 -148.3 -19.6 L-184.95 -19.6 M-229.4 -6.8 Q-228.75 -7.2 -227.75 -7.2 L-200.6 -7.2 Q-199.6 -7.2 -198.95 -6.8 -199.05 -12.15 -196.4 -15.8 L-231.9 -15.8 Q-229.3 -12.15 -229.4 -6.8 M-227.75 -6.2 Q-229.3 -6.2 -229.55 -4.65 L-229.55 -4.6 -229.6 -4.45 Q-232.7 6.55 -233.15 17.05 -233.2 17.75 -232.85 18.15 -232.5 18.5 -231.75 18.5 L-231.7 18.5 -214.45 19.6 -196.65 18.5 -196.6 18.5 Q-195.85 18.5 -195.45 18.15 -195.15 17.75 -195.2 17.05 -195.65 6.55 -198.75 -4.45 L-198.8 -4.6 -198.8 -4.65 Q-199.05 -6.2 -200.6 -6.2 L-227.75 -6.2 M-233.35 -16.0 L-233.85 -16.55 -233.85 -16.6 -233.95 -16.9 -234.0 -17.3 -234.0 -19.1 Q-234.0 -20.6 -232.5 -20.6 L-195.85 -20.6 Q-194.35 -20.6 -194.35 -19.1 L-194.35 -17.3 -194.4 -16.9 -194.45 -16.6 -194.5 -16.55 -194.95 -16.0 Q-198.6 -11.75 -197.8 -4.75 L-197.8 -4.7 Q-194.65 6.35 -194.2 17.0 -194.15 18.25 -194.75 18.85 -195.35 19.5 -196.55 19.5 L-214.45 20.6 -231.8 19.5 Q-233.0 19.5 -233.55 18.85 -234.2 18.25 -234.15 17.0 -233.7 6.35 -230.55 -4.75 -229.75 -11.75 -233.35 -16.0 M-232.5 -19.6 Q-233.0 -19.6 -233.0 -19.1 L-233.0 -17.3 -232.95 -17.15 -232.95 -17.0 -232.9 -16.95 -232.85 -16.85 -232.5 -16.8 -195.85 -16.8 -195.5 -16.85 -195.4 -16.95 -195.4 -17.0 -195.35 -17.15 -195.35 -17.3 -195.35 -19.1 Q-195.35 -19.6 -195.85 -19.6 L-232.5 -19.6 M-276.95 -6.8 L-275.3 -7.2 -248.15 -7.2 Q-247.15 -7.2 -246.5 -6.8 -246.6 -12.15 -243.95 -15.8 L-279.45 -15.8 Q-276.85 -12.15 -276.95 -6.8 M-275.3 -6.2 Q-276.85 -6.2 -277.1 -4.65 L-277.1 -4.6 -277.15 -4.45 Q-279.9 5.3 -280.55 14.7 L-280.6 15.35 -280.7 17.1 Q-280.75 17.75 -280.4 18.15 -280.05 18.5 -279.3 18.5 L-279.25 18.5 -277.0 18.75 -262.0 19.6 -244.2 18.5 -244.15 18.5 Q-243.4 18.5 -243.0 18.15 -242.7 17.75 -242.75 17.05 -243.2 6.55 -246.3 -4.45 L-246.35 -4.6 -246.35 -4.65 Q-246.6 -6.2 -248.15 -6.2 L-275.3 -6.2 M-281.55 -19.1 Q-281.55 -20.6 -280.05 -20.6 L-243.4 -20.6 Q-241.9 -20.6 -241.9 -19.1 L-241.9 -17.3 -241.95 -16.9 -242.0 -16.6 -242.05 -16.55 -242.5 -16.0 Q-246.15 -11.75 -245.35 -4.75 L-245.35 -4.7 Q-242.2 6.35 -241.75 17.0 -241.7 18.25 -242.3 18.85 -242.9 19.5 -244.1 19.5 L-262.0 20.6 -277.0 19.8 -279.35 19.5 -280.5 19.3 -280.65 19.2 -281.1 18.85 -281.5 18.3 -281.7 17.0 -281.55 14.7 Q-280.9 5.15 -278.1 -4.75 -277.3 -11.75 -280.9 -16.0 L-281.4 -16.55 -281.4 -16.6 -281.5 -16.9 -281.55 -17.3 -281.55 -19.1 M-280.05 -19.6 Q-280.55 -19.6 -280.55 -19.1 L-280.55 -17.3 -280.5 -17.15 -280.5 -17.0 -280.45 -16.95 -280.4 -16.85 -280.05 -16.8 -243.4 -16.8 -243.05 -16.85 -242.95 -16.95 -242.95 -17.0 -242.9 -17.15 -242.9 -17.3 -242.9 -19.1 Q-242.9 -19.6 -243.4 -19.6 L-280.05 -19.6 M-37.55 -6.2 Q-39.1 -6.2 -39.35 -4.65 L-39.35 -4.6 -39.4 -4.45 Q-42.5 6.55 -42.95 17.05 -43.0 17.75 -42.65 18.15 -42.3 18.5 -41.55 18.5 L-41.5 18.5 -24.25 19.6 -6.45 18.5 -6.4 18.5 Q-5.65 18.5 -5.25 18.15 -4.95 17.75 -5.0 17.05 -5.45 6.55 -8.55 -4.45 L-8.6 -4.6 -8.6 -4.65 Q-8.85 -6.2 -10.4 -6.2 L-37.55 -6.2 M-39.2 -6.8 Q-38.55 -7.2 -37.55 -7.2 L-10.4 -7.2 Q-9.4 -7.2 -8.75 -6.8 -8.85 -12.15 -6.2 -15.8 L-41.7 -15.8 Q-39.1 -12.15 -39.2 -6.8 M-43.8 -19.1 Q-43.8 -20.6 -42.3 -20.6 L-5.65 -20.6 Q-4.15 -20.6 -4.15 -19.1 L-4.15 -17.3 -4.2 -16.9 -4.25 -16.6 -4.3 -16.55 -4.75 -16.0 Q-8.4 -11.75 -7.6 -4.75 L-7.6 -4.7 Q-4.45 6.35 -4.0 17.0 -3.95 18.25 -4.55 18.85 -5.15 19.5 -6.35 19.5 L-24.25 20.6 -41.6 19.5 Q-42.8 19.5 -43.35 18.85 -44.0 18.25 -43.95 17.0 -43.5 6.35 -40.35 -4.75 -39.55 -11.75 -43.15 -16.0 L-43.65 -16.55 -43.65 -16.6 -43.75 -16.9 -43.8 -17.3 -43.8 -19.1 M-42.3 -19.6 Q-42.8 -19.6 -42.8 -19.1 L-42.8 -17.3 -42.75 -17.15 -42.75 -17.0 -42.7 -16.95 -42.65 -16.85 -42.3 -16.8 -5.65 -16.8 -5.3 -16.85 -5.2 -16.95 -5.2 -17.0 -5.15 -17.15 -5.15 -17.3 -5.15 -19.1 Q-5.15 -19.6 -5.65 -19.6 L-42.3 -19.6 M-86.9 -4.65 L-86.9 -4.6 -86.95 -4.45 Q-90.05 6.55 -90.5 17.05 -90.55 17.75 -90.2 18.15 -89.85 18.5 -89.1 18.5 L-89.05 18.5 -71.8 19.6 -54.0 18.5 -53.95 18.5 -52.8 18.15 Q-52.5 17.75 -52.55 17.05 -53.0 6.55 -56.1 -4.45 L-56.15 -4.6 -56.15 -4.65 Q-56.4 -6.2 -57.95 -6.2 L-85.1 -6.2 Q-86.65 -6.2 -86.9 -4.65 M-86.75 -6.8 L-85.1 -7.2 -57.95 -7.2 -56.3 -6.8 Q-56.4 -12.15 -53.75 -15.8 L-89.25 -15.8 Q-86.65 -12.15 -86.75 -6.8 M-91.35 -19.1 Q-91.35 -20.6 -89.85 -20.6 L-53.2 -20.6 Q-51.7 -20.6 -51.7 -19.1 L-51.7 -17.3 -51.75 -16.9 -51.8 -16.6 -51.85 -16.55 -52.3 -16.0 Q-55.95 -11.75 -55.15 -4.75 L-55.15 -4.7 Q-52.0 6.35 -51.55 17.0 -51.5 18.25 -52.1 18.85 -52.7 19.5 -53.9 19.5 L-71.8 20.6 -89.15 19.5 Q-90.35 19.5 -90.9 18.85 -91.55 18.25 -91.5 17.0 -91.05 6.35 -87.9 -4.75 -87.1 -11.75 -90.7 -16.0 L-91.2 -16.55 -91.2 -16.6 -91.3 -16.9 -91.35 -17.3 -91.35 -19.1 M-89.85 -19.6 Q-90.35 -19.6 -90.35 -19.1 L-90.35 -17.3 -90.3 -17.15 -90.3 -17.0 -90.25 -16.95 -90.2 -16.85 -89.85 -16.8 -53.2 -16.8 -52.85 -16.85 -52.75 -16.95 -52.75 -17.0 -52.7 -17.15 -52.7 -17.3 -52.7 -19.1 Q-52.7 -19.6 -53.2 -19.6 L-89.85 -19.6 M-136.8 -15.8 Q-134.2 -12.15 -134.3 -6.8 -133.65 -7.2 -132.65 -7.2 L-105.5 -7.2 Q-104.5 -7.2 -103.85 -6.8 -103.95 -12.15 -101.3 -15.8 L-136.8 -15.8 M-134.45 -4.65 L-134.45 -4.6 -134.5 -4.45 Q-137.6 6.55 -138.05 17.05 -138.1 17.75 -137.75 18.15 -137.4 18.5 -136.65 18.5 L-136.6 18.5 -119.35 19.6 -102.75 18.65 -101.55 18.5 -101.5 18.5 -100.75 18.4 -100.35 18.15 Q-100.05 17.8 -100.1 17.05 L-100.25 14.55 Q-100.9 5.25 -103.65 -4.45 L-103.7 -4.6 -103.7 -4.65 Q-103.95 -6.2 -105.5 -6.2 L-132.65 -6.2 Q-134.2 -6.2 -134.45 -4.65 M-137.9 -17.3 L-137.85 -17.15 -137.85 -17.0 -137.8 -16.95 -137.75 -16.85 -137.4 -16.8 -100.75 -16.8 -100.4 -16.85 -100.3 -16.95 -100.3 -17.0 -100.25 -17.15 -100.25 -17.3 -100.25 -19.1 Q-100.25 -19.6 -100.75 -19.6 L-137.4 -19.6 Q-137.9 -19.6 -137.9 -19.1 L-137.9 -17.3 M-138.85 -16.9 L-138.9 -17.3 -138.9 -19.1 Q-138.9 -20.6 -137.4 -20.6 L-100.75 -20.6 Q-99.25 -20.6 -99.25 -19.1 L-99.25 -17.3 -99.3 -16.9 -99.35 -16.6 -99.4 -16.55 -99.85 -16.0 Q-103.5 -11.75 -102.7 -4.75 L-102.7 -4.7 Q-100.05 4.65 -99.3 13.7 L-99.1 17.0 Q-99.05 18.1 -99.5 18.7 L-99.65 18.85 Q-100.25 19.5 -101.45 19.5 L-102.25 19.6 -119.35 20.6 -136.7 19.5 Q-137.9 19.5 -138.45 18.85 -139.1 18.25 -139.05 17.0 -138.6 6.35 -135.45 -4.75 -134.65 -11.75 -138.25 -16.0 L-138.75 -16.55 -138.75 -16.6 -138.85 -16.9" fill="#000000" fill-rule="evenodd" stroke="none" class="line" />
      <path d="M103.85 -6.8 Q104.5 -7.2 105.5 -7.2 L132.65 -7.2 Q133.65 -7.2 134.3 -6.8 134.2 -12.15 136.85 -15.8 L101.35 -15.8 Q103.95 -12.15 103.85 -6.8 M105.5 -6.2 Q103.95 -6.2 103.7 -4.65 L103.7 -4.6 103.65 -4.45 Q100.55 6.55 100.1 17.05 100.05 17.75 100.4 18.15 100.75 18.5 101.5 18.5 L101.55 18.5 118.8 19.6 136.6 18.5 136.65 18.5 137.8 18.15 Q138.1 17.75 138.05 17.05 137.6 6.55 134.5 -4.45 L134.45 -4.6 134.45 -4.65 Q134.2 -6.2 132.65 -6.2 L105.5 -6.2 M100.75 -19.6 Q100.25 -19.6 100.25 -19.1 L100.25 -17.3 100.3 -17.15 100.3 -17.0 100.35 -16.95 100.4 -16.85 100.75 -16.8 137.4 -16.8 137.75 -16.85 137.85 -16.95 137.85 -17.0 137.9 -17.15 137.9 -17.3 137.9 -19.1 Q137.9 -19.6 137.4 -19.6 L100.75 -19.6 M99.25 -19.1 Q99.25 -20.6 100.75 -20.6 L137.4 -20.6 Q138.9 -20.6 138.9 -19.1 L138.9 -17.3 138.85 -16.9 138.8 -16.6 138.75 -16.55 138.3 -16.0 Q134.65 -11.75 135.45 -4.75 138.6 6.35 139.05 17.0 139.1 18.25 138.5 18.85 137.9 19.5 136.7 19.5 L118.8 20.6 101.45 19.5 Q100.25 19.5 99.7 18.85 99.05 18.25 99.1 17.0 99.55 6.35 102.7 -4.75 103.5 -11.75 99.9 -16.0 L99.4 -16.55 99.4 -16.6 99.3 -16.9 99.25 -17.3 99.25 -19.1 M57.95 -6.2 Q56.4 -6.2 56.15 -4.65 L56.15 -4.6 56.1 -4.45 Q53.0 6.55 52.55 17.05 52.5 17.75 52.85 18.15 L53.95 18.5 54.0 18.5 71.25 19.6 89.05 18.5 89.1 18.5 Q89.85 18.5 90.25 18.15 90.55 17.75 90.5 17.05 90.05 6.55 86.95 -4.45 L86.9 -4.6 86.9 -4.65 Q86.65 -6.2 85.1 -6.2 L57.95 -6.2 M56.3 -6.8 L57.95 -7.2 85.1 -7.2 86.75 -6.8 Q86.65 -12.15 89.3 -15.8 L53.8 -15.8 Q56.4 -12.15 56.3 -6.8 M52.35 -16.0 L51.85 -16.55 51.85 -16.6 51.75 -16.9 51.7 -17.3 51.7 -19.1 Q51.7 -20.6 53.2 -20.6 L89.85 -20.6 Q91.35 -20.6 91.35 -19.1 L91.35 -17.3 91.3 -16.9 91.25 -16.6 91.2 -16.55 90.75 -16.0 Q87.1 -11.75 87.9 -4.75 L87.9 -4.7 Q91.05 6.35 91.5 17.0 91.55 18.25 90.95 18.85 90.35 19.5 89.15 19.5 L71.25 20.6 53.9 19.5 Q52.7 19.5 52.15 18.85 51.5 18.25 51.55 17.0 52.0 6.35 55.15 -4.75 55.95 -11.75 52.35 -16.0 M53.2 -19.6 Q52.7 -19.6 52.7 -19.1 L52.7 -17.3 52.75 -17.15 52.75 -17.0 52.8 -16.95 52.85 -16.85 53.2 -16.8 89.85 -16.8 90.2 -16.85 90.3 -16.95 90.3 -17.0 90.35 -17.15 90.35 -17.3 90.35 -19.1 Q90.35 -19.6 89.85 -19.6 L53.2 -19.6 M10.4 -6.2 Q8.85 -6.2 8.6 -4.65 L8.6 -4.6 8.55 -4.45 Q5.8 5.3 5.15 14.7 L5.1 15.35 5.0 17.1 Q4.95 17.75 5.3 18.15 5.65 18.5 6.4 18.5 L6.45 18.5 8.7 18.75 23.7 19.6 41.5 18.5 41.55 18.5 Q42.3 18.5 42.7 18.15 43.0 17.75 42.95 17.05 42.5 6.55 39.4 -4.45 L39.35 -4.6 39.35 -4.65 Q39.1 -6.2 37.55 -6.2 L10.4 -6.2 M8.75 -6.8 Q9.4 -7.2 10.4 -7.2 L37.55 -7.2 Q38.55 -7.2 39.2 -6.8 39.1 -12.15 41.75 -15.8 L6.25 -15.8 Q8.85 -12.15 8.75 -6.8 M5.65 -19.6 Q5.15 -19.6 5.15 -19.1 L5.15 -17.3 5.2 -17.15 5.2 -17.0 5.25 -16.95 5.3 -16.85 5.65 -16.8 42.3 -16.8 42.65 -16.85 42.75 -16.95 42.75 -17.0 42.8 -17.15 42.8 -17.3 42.8 -19.1 Q42.8 -19.6 42.3 -19.6 L5.65 -19.6 M4.15 -19.1 Q4.15 -20.6 5.65 -20.6 L42.3 -20.6 Q43.8 -20.6 43.8 -19.1 L43.8 -17.3 43.75 -16.9 43.7 -16.6 43.65 -16.55 43.2 -16.0 Q39.55 -11.75 40.35 -4.75 L40.35 -4.7 Q43.5 6.35 43.95 17.0 44.0 18.25 43.4 18.85 42.8 19.5 41.6 19.5 L23.7 20.6 8.7 19.8 6.35 19.5 5.2 19.3 5.05 19.2 4.6 18.85 4.2 18.3 4.0 17.0 4.15 14.7 Q4.8 5.15 7.6 -4.75 8.4 -11.75 4.8 -16.0 L4.3 -16.55 4.3 -16.6 4.2 -16.9 4.15 -17.3 4.15 -19.1 M246.5 -6.8 Q247.15 -7.2 248.15 -7.2 L275.3 -7.2 276.95 -6.8 Q276.85 -12.15 279.5 -15.8 L244.0 -15.8 Q246.6 -12.15 246.5 -6.8 M248.15 -6.2 Q246.6 -6.2 246.35 -4.65 L246.35 -4.6 246.3 -4.45 Q243.2 6.55 242.75 17.05 242.7 17.75 243.05 18.15 243.4 18.5 244.15 18.5 L244.2 18.5 261.45 19.6 279.25 18.5 279.3 18.5 Q280.05 18.5 280.45 18.15 L280.7 17.05 Q280.25 6.55 277.15 -4.45 L277.1 -4.6 277.1 -4.65 Q276.85 -6.2 275.3 -6.2 L248.15 -6.2 M243.4 -19.6 Q242.9 -19.6 242.9 -19.1 L242.9 -17.3 242.95 -17.15 242.95 -17.0 243.0 -16.95 243.05 -16.85 243.4 -16.8 280.05 -16.8 280.4 -16.85 280.5 -16.95 280.5 -17.0 280.55 -17.15 280.55 -17.3 280.55 -19.1 Q280.55 -19.6 280.05 -19.6 L243.4 -19.6 M241.9 -19.1 Q241.9 -20.6 243.4 -20.6 L280.05 -20.6 Q281.55 -20.6 281.55 -19.1 L281.55 -17.3 281.5 -16.9 281.45 -16.6 281.4 -16.55 280.95 -16.0 Q277.3 -11.75 278.1 -4.75 L278.1 -4.7 Q281.25 6.35 281.7 17.0 281.75 18.25 281.15 18.85 280.55 19.5 279.35 19.5 L261.45 20.6 244.1 19.5 Q242.9 19.5 242.35 18.85 241.7 18.25 241.75 17.0 242.2 6.35 245.35 -4.75 246.15 -11.75 242.55 -16.0 L242.05 -16.55 242.05 -16.6 241.95 -16.9 241.9 -17.3 241.9 -19.1 M198.95 -6.8 Q199.6 -7.2 200.6 -7.2 L227.75 -7.2 Q228.75 -7.2 229.4 -6.8 229.3 -12.15 231.95 -15.8 L196.45 -15.8 Q199.05 -12.15 198.95 -6.8 M198.8 -4.65 L198.8 -4.6 198.75 -4.45 Q195.65 6.55 195.2 17.05 195.15 17.75 195.5 18.15 195.85 18.5 196.6 18.5 L196.65 18.5 213.9 19.6 231.7 18.5 231.75 18.5 232.9 18.15 Q233.2 17.75 233.15 17.05 232.7 6.55 229.6 -4.45 L229.55 -4.6 229.55 -4.65 Q229.3 -6.2 227.75 -6.2 L200.6 -6.2 Q199.05 -6.2 198.8 -4.65 M195.85 -19.6 Q195.35 -19.6 195.35 -19.1 L195.35 -17.3 195.4 -17.15 195.4 -17.0 195.45 -16.95 195.5 -16.85 195.85 -16.8 232.5 -16.8 232.85 -16.85 232.95 -16.95 232.95 -17.0 233.0 -17.15 233.0 -17.3 233.0 -19.1 Q233.0 -19.6 232.5 -19.6 L195.85 -19.6 M194.35 -19.1 Q194.35 -20.6 195.85 -20.6 L232.5 -20.6 Q234.0 -20.6 234.0 -19.1 L234.0 -17.3 233.95 -16.9 233.9 -16.6 233.85 -16.55 233.4 -16.0 Q229.75 -11.75 230.55 -4.75 L230.55 -4.7 Q233.7 6.35 234.15 17.0 234.2 18.25 233.6 18.85 233.0 19.5 231.8 19.5 L213.9 20.6 196.55 19.5 Q195.35 19.5 194.8 18.85 194.15 18.25 194.2 17.0 194.65 6.35 197.8 -4.75 198.6 -11.75 195.0 -16.0 L194.5 -16.55 194.5 -16.6 194.4 -16.9 194.35 -17.3 194.35 -19.1 M148.9 -15.8 Q151.5 -12.15 151.4 -6.8 152.05 -7.2 153.05 -7.2 L180.2 -7.2 181.85 -6.8 Q181.75 -12.15 184.4 -15.8 L148.9 -15.8 M151.25 -4.65 L151.25 -4.6 151.2 -4.45 Q148.1 6.55 147.65 17.05 147.6 17.75 147.95 18.15 L149.05 18.5 149.1 18.5 166.35 19.6 182.95 18.65 184.15 18.5 184.2 18.5 184.95 18.4 185.35 18.15 Q185.65 17.8 185.6 17.05 L185.45 14.55 Q184.8 5.25 182.05 -4.45 L182.0 -4.6 182.0 -4.65 Q181.75 -6.2 180.2 -6.2 L153.05 -6.2 Q151.5 -6.2 151.25 -4.65 M146.95 -16.6 L146.85 -16.9 146.8 -17.3 146.8 -19.1 Q146.8 -20.6 148.3 -20.6 L184.95 -20.6 Q186.45 -20.6 186.45 -19.1 L186.45 -17.3 186.4 -16.9 186.35 -16.6 186.3 -16.55 185.85 -16.0 Q182.2 -11.75 183.0 -4.75 L183.0 -4.7 Q185.65 4.65 186.4 13.7 L186.6 17.0 Q186.65 18.1 186.2 18.7 L186.05 18.85 Q185.45 19.5 184.25 19.5 L183.45 19.6 166.35 20.6 149.0 19.5 Q147.8 19.5 147.25 18.85 146.6 18.25 146.65 17.0 147.1 6.35 150.25 -4.75 151.05 -11.75 147.45 -16.0 L146.95 -16.55 146.95 -16.6 M147.8 -17.3 L147.85 -17.15 147.85 -17.0 147.9 -16.95 147.95 -16.85 148.3 -16.8 184.95 -16.8 185.3 -16.85 185.4 -16.95 185.4 -17.0 185.45 -17.15 185.45 -17.3 185.45 -19.1 Q185.45 -19.6 184.95 -19.6 L148.3 -19.6 Q147.8 -19.6 147.8 -19.1 L147.8 -17.3" fill="#000000" fill-rule="evenodd" stroke="none" class="line" />
    </g>
  </defs>
  <g transform="matrix(1.0, 0.0, 0.0, 1.0, 0.0, 0.0)">
    <use height="40.2" id="fill" transform="matrix(0.1775, 0.0, 0.0, 2.4272, 0.1828, 1.2136)" width="561.4" xlink:href="#sprite0" />
    <use height="41.2" id="line" transform="matrix(0.1775, 0.0, 0.0, 2.4272, 0.0053, 0.0)" width="563.4" xlink:href="#sprite1" />
  </g>
</svg>