<?xml version="1.0" encoding="UTF-8" standalone="no"?>
<svg xmlns:xlink="http://www.w3.org/1999/xlink" height="100%" width="100%" xmlns="http://www.w3.org/2000/svg" preserveAspectRatio="none" viewBox="0 0 100 100">
  <defs>
    <g id="sprite0" transform="matrix(1.0, 0.0, 0.0, 1.0, 90.1, 90.1)">
      <use height="180.2" transform="matrix(1.0, 0.0, 0.0, 1.0, -90.1, -90.1)" width="180.2" xlink:href="#shape0" />
    </g>
    <g id="shape0" transform="matrix(1.0, 0.0, 0.0, 1.0, 90.1, 90.1)">
      <path d="M49.35 -76.65 Q50.05 -77.35 50.75 -76.65 L76.7 -50.7 Q77.4 -50.0 76.7 -49.3 L75.45 -48.05 75.15 -47.85 75.0 -47.8 74.45 -47.75 Q68.65 -47.35 64.05 -41.55 59.45 -33.4 53.95 -26.7 55.75 -23.05 57.05 -19.15 65.7 -18.4 74.7 -15.85 82.0 -15.0 86.4 -18.85 L86.8 -19.2 87.0 -19.25 87.3 -19.3 89.1 -19.3 Q90.1 -19.3 90.1 -18.3 L90.1 18.35 Q90.1 19.35 89.1 19.35 L87.3 19.35 87.0 19.3 86.8 19.25 86.4 18.9 Q82.0 15.05 74.7 15.9 65.7 18.45 57.0 19.25 55.7 23.1 53.9 26.75 59.45 33.4 64.0 41.6 68.6 47.4 74.45 47.75 L75.0 47.8 75.1 47.9 75.4 48.1 76.65 49.35 Q77.35 50.05 76.65 50.75 L50.7 76.7 Q50.0 77.4 49.3 76.7 L48.05 75.45 47.85 75.15 47.8 75.0 47.75 74.45 Q47.35 68.65 41.55 64.05 33.4 59.45 26.7 53.9 23.05 55.75 19.2 57.05 18.4 65.7 15.85 74.7 15.0 82.0 18.85 86.4 L19.2 86.8 19.25 87.0 19.3 87.3 19.3 89.1 Q19.3 90.1 18.3 90.1 L-18.35 90.1 Q-19.35 90.1 -19.35 89.1 L-19.35 87.3 -19.3 87.0 -19.25 86.8 -18.9 86.4 Q-15.05 82.0 -15.9 74.7 -18.45 65.7 -19.2 57.05 -23.1 55.75 -26.75 53.9 -33.4 59.45 -41.6 64.0 -47.4 68.6 -47.75 74.45 L-47.8 75.0 -47.9 75.1 -48.1 75.4 -49.35 76.65 Q-50.05 77.35 -50.75 76.65 L-76.7 50.7 Q-77.4 50.0 -76.7 49.3 L-75.45 48.05 -75.15 47.85 -75.0 47.8 -74.45 47.75 Q-68.65 47.35 -64.05 41.55 -59.45 33.4 -53.9 26.7 -55.75 23.05 -57.0 19.2 -65.7 18.4 -74.7 15.85 -82.0 15.0 -86.4 18.85 L-86.8 19.2 -87.0 19.25 -87.3 19.3 -89.1 19.3 Q-90.1 19.3 -90.1 18.3 L-90.1 -18.35 Q-90.1 -19.35 -89.1 -19.35 L-87.3 -19.35 -87.0 -19.3 -86.8 -19.25 -86.4 -18.9 Q-82.0 -15.05 -74.7 -15.9 -65.7 -18.45 -57.0 -19.2 -55.75 -23.1 -53.9 -26.75 -59.45 -33.4 -64.0 -41.6 -68.6 -47.4 -74.45 -47.75 L-75.0 -47.8 -75.1 -47.9 -75.4 -48.1 -76.65 -49.35 Q-77.35 -50.05 -76.65 -50.75 L-50.7 -76.7 Q-50.0 -77.4 -49.3 -76.7 L-48.05 -75.45 -47.85 -75.15 -47.8 -75.0 -47.75 -74.45 Q-47.35 -68.65 -41.55 -64.05 -33.4 -59.45 -26.7 -53.9 -23.05 -55.75 -19.15 -57.05 -18.4 -65.7 -15.85 -74.7 -15.0 -82.0 -18.85 -86.4 L-19.2 -86.8 -19.25 -87.0 -19.3 -87.3 -19.3 -89.1 Q-19.3 -90.1 -18.3 -90.1 L18.35 -90.1 Q19.35 -90.1 19.35 -89.1 L19.35 -87.3 19.3 -87.0 19.25 -86.8 18.9 -86.4 Q15.05 -82.0 15.9 -74.7 18.45 -65.7 19.25 -57.0 23.1 -55.75 26.8 -53.9 33.4 -59.45 41.6 -64.0 47.4 -68.6 47.75 -74.45 L47.8 -75.0 47.9 -75.1 48.1 -75.4 49.35 -76.65" fill="#ffffff" fill-rule="evenodd" stroke="none" class="fill" />
    </g>
    <g id="sprite1" transform="matrix(1.0, 0.0, 0.0, 1.0, 90.6, 90.6)">
      <use height="181.2" transform="matrix(1.0, 0.0, 0.0, 1.0, -90.6, -90.6)" width="181.2" xlink:href="#shape1" />
    </g>
    <g id="shape1" transform="matrix(1.0, 0.0, 0.0, 1.0, 90.6, 90.6)">
      <path d="M-64.2 45.0 L-65.1 43.5 Q-68.8 47.4 -73.2 48.1 L-48.1 73.2 Q-47.45 68.75 -43.55 65.05 -44.3 64.9 -45.0 64.2 L-64.2 45.0 M-63.55 41.75 L-63.7 41.9 Q-64.6 43.2 -63.5 44.3 L-44.3 63.5 Q-43.2 64.6 -41.95 63.65 L-41.8 63.6 Q-34.05 59.25 -27.65 54.0 -35.8 49.75 -42.8 42.75 -49.8 35.75 -54.0 27.6 -59.2 34.0 -63.55 41.75 M-74.85 48.25 L-74.9 48.3 -75.1 48.4 -76.35 49.65 Q-76.7 50.0 -76.35 50.35 L-50.4 76.3 Q-50.05 76.65 -49.7 76.3 L-48.45 75.05 -48.3 74.9 -48.3 74.8 -48.25 74.75 -48.25 74.65 -48.45 74.35 -74.4 48.4 -74.65 48.25 -74.75 48.25 -74.85 48.25 M-74.45 -15.45 L-74.65 -15.4 Q-76.2 -15.15 -76.2 -13.6 L-76.2 13.55 Q-76.2 15.1 -74.65 15.35 L-74.5 15.4 Q-65.95 17.8 -57.7 18.65 -60.5 9.9 -60.5 0.0 -60.5 -9.9 -57.7 -18.65 -65.95 -17.85 -74.45 -15.45 M-77.2 -13.6 Q-77.2 -14.6 -76.8 -15.25 -82.15 -15.15 -85.8 -17.75 L-85.8 17.75 Q-82.15 15.05 -76.8 15.2 -77.2 14.55 -77.2 13.55 L-77.2 -13.6 M-43.5 -65.1 Q-47.4 -68.8 -48.05 -73.25 L-73.15 -48.15 Q-68.8 -47.4 -65.05 -43.55 -64.9 -44.3 -64.2 -45.0 L-45.0 -64.2 Q-44.3 -64.9 -43.5 -65.1 M-41.85 -63.65 L-41.9 -63.7 Q-43.2 -64.6 -44.3 -63.5 L-63.5 -44.3 Q-64.6 -43.2 -63.65 -41.95 L-63.6 -41.9 -63.55 -41.75 Q-59.25 -34.05 -54.0 -27.65 -49.75 -35.8 -42.8 -42.8 -35.8 -49.8 -27.6 -54.0 -34.0 -59.2 -41.75 -63.55 L-41.85 -63.65 M-48.4 -74.4 L-48.2 -74.6 -48.2 -74.8 -48.25 -74.95 -48.4 -75.1 -49.65 -76.35 Q-50.0 -76.7 -50.35 -76.35 L-76.3 -50.4 Q-76.65 -50.05 -76.3 -49.7 L-75.05 -48.45 -74.85 -48.35 -74.75 -48.25 -74.7 -48.3 -74.6 -48.2 -74.35 -48.45 -48.4 -74.4 M-86.9 -18.7 L-87.0 -18.75 -87.05 -18.8 -87.15 -18.8 -87.3 -18.85 -89.1 -18.85 Q-89.6 -18.85 -89.6 -18.35 L-89.6 18.3 Q-89.6 18.8 -89.1 18.8 L-87.3 18.8 -87.15 18.8 -87.05 18.75 -87.0 18.75 -86.9 18.65 -86.8 18.3 -86.8 -18.35 -86.9 -18.7 M18.75 87.05 L18.75 87.0 18.65 86.9 18.3 86.8 -18.35 86.8 -18.7 86.9 -18.75 87.0 -18.8 87.05 -18.8 87.15 -18.85 87.3 -18.85 89.1 Q-18.85 89.6 -18.35 89.6 L18.3 89.6 Q18.8 89.6 18.8 89.1 L18.8 87.3 18.8 87.15 18.75 87.05 M17.75 85.8 Q15.05 82.15 15.2 76.8 14.55 77.2 13.55 77.2 L-13.6 77.2 Q-14.6 77.2 -15.25 76.8 -15.15 82.15 -17.75 85.8 L17.75 85.8 M18.65 57.75 Q9.9 60.5 0.0 60.5 -9.9 60.5 -18.65 57.75 -17.85 65.95 -15.45 74.45 L-15.4 74.65 Q-15.15 76.2 -13.6 76.2 L13.55 76.2 Q15.1 76.2 15.35 74.65 L15.4 74.5 Q17.8 65.95 18.65 57.75 M74.65 48.25 L74.35 48.45 48.4 74.4 48.25 74.65 48.25 74.75 48.25 74.85 48.3 74.9 48.4 75.1 49.65 76.35 Q50.0 76.7 50.35 76.35 L76.3 50.4 Q76.65 50.05 76.3 49.7 L75.05 48.45 74.9 48.3 74.8 48.3 74.75 48.25 74.65 48.25 M65.05 43.55 Q64.9 44.3 64.2 45.0 L45.0 64.2 Q44.3 64.9 43.5 65.1 47.4 68.8 48.1 73.2 L73.2 48.1 Q68.75 47.45 65.05 43.55 M54.0 27.65 Q49.75 35.75 42.75 42.75 35.75 49.75 27.6 54.0 34.0 59.2 41.75 63.55 L41.9 63.7 Q43.2 64.6 44.3 63.5 L63.5 44.3 Q64.6 43.2 63.65 41.95 L63.6 41.8 Q59.25 34.05 54.0 27.65 M87.3 -18.8 L87.15 -18.75 87.0 -18.75 86.95 -18.7 86.85 -18.65 86.8 -18.3 86.8 18.35 86.85 18.7 86.95 18.8 87.0 18.8 87.15 18.85 87.3 18.85 89.1 18.85 Q89.6 18.85 89.6 18.35 L89.6 -18.3 Q89.6 -18.8 89.1 -18.8 L87.3 -18.8 M76.2 -13.55 Q76.2 -15.1 74.65 -15.35 L74.6 -15.35 74.45 -15.4 Q65.95 -17.8 57.75 -18.6 60.5 -9.85 60.5 0.0 60.5 9.9 57.75 18.65 65.95 17.85 74.45 15.45 L74.6 15.4 74.65 15.4 Q76.2 15.15 76.2 13.6 L76.2 -13.55 M76.8 -15.2 Q77.2 -14.55 77.2 -13.55 L77.2 13.6 Q77.2 14.6 76.8 15.25 82.15 15.15 85.8 17.8 L85.8 -17.7 Q82.15 -15.1 76.8 -15.2 M19.8 -56.3 L18.8 -56.65 Q10.0 -59.5 0.0 -59.5 -9.95 -59.5 -18.7 -56.65 L-19.75 -56.3 Q-22.85 -55.25 -25.8 -53.8 L-26.8 -53.35 Q-35.05 -49.15 -42.1 -42.1 -49.15 -35.05 -53.3 -26.85 L-53.8 -25.85 Q-55.25 -22.9 -56.3 -19.8 L-56.65 -18.75 Q-59.5 -9.95 -59.5 0.0 -59.5 9.95 -56.65 18.75 L-56.3 19.75 Q-55.25 22.85 -53.8 25.8 L-53.3 26.8 Q-49.15 35.0 -42.1 42.05 -35.05 49.1 -26.8 53.3 L-25.85 53.8 -19.8 56.3 -18.75 56.65 Q-9.95 59.5 0.0 59.5 9.95 59.5 18.75 56.65 L19.75 56.3 Q22.85 55.25 25.8 53.8 L26.8 53.35 Q35.0 49.1 42.05 42.05 49.1 35.0 53.3 26.8 L53.75 25.85 Q55.2 22.9 56.3 19.8 L56.65 18.75 Q59.5 9.95 59.5 0.0 59.5 -9.95 56.65 -18.7 L56.3 -19.75 Q55.25 -22.85 53.8 -25.8 L53.35 -26.75 Q49.1 -35.05 42.05 -42.1 35.0 -49.15 26.85 -53.3 L25.9 -53.75 19.8 -56.3 M13.6 -77.2 Q14.6 -77.2 15.25 -76.8 15.15 -82.15 17.8 -85.8 L-17.7 -85.8 Q-15.1 -82.15 -15.2 -76.8 -14.55 -77.2 -13.55 -77.2 L13.6 -77.2 M15.45 -74.45 L15.4 -74.6 15.4 -74.65 Q15.15 -76.2 13.6 -76.2 L-13.55 -76.2 Q-15.1 -76.2 -15.35 -74.65 L-15.35 -74.6 -15.4 -74.45 Q-17.8 -65.95 -18.6 -57.7 -9.9 -60.5 0.0 -60.5 9.9 -60.5 18.7 -57.7 17.85 -65.95 15.45 -74.45 M18.85 -89.1 Q18.85 -89.6 18.35 -89.6 L-18.3 -89.6 Q-18.8 -89.6 -18.8 -89.1 L-18.8 -87.3 -18.75 -87.15 -18.75 -87.0 -18.7 -86.95 -18.65 -86.85 -18.3 -86.8 18.35 -86.8 18.7 -86.85 18.8 -86.95 18.8 -87.0 18.85 -87.15 18.85 -87.3 18.85 -89.1 M41.9 -63.6 L41.75 -63.55 Q34.0 -59.2 27.7 -54.0 35.8 -49.75 42.75 -42.8 49.75 -35.8 54.05 -27.6 59.2 -34.0 63.55 -41.75 L63.65 -41.85 63.7 -41.9 Q64.6 -43.2 63.5 -44.3 L44.3 -63.5 Q43.2 -64.6 41.95 -63.65 L41.9 -63.6 M48.15 -73.15 Q47.4 -68.8 43.55 -65.05 44.3 -64.9 45.0 -64.2 L64.2 -45.0 65.1 -43.5 Q68.8 -47.4 73.25 -48.05 L48.15 -73.15 M48.3 -74.7 L48.2 -74.6 48.45 -74.35 74.4 -48.4 74.6 -48.2 74.8 -48.2 74.95 -48.25 75.1 -48.4 76.35 -49.65 Q76.7 -50.0 76.35 -50.35 L50.4 -76.3 Q50.05 -76.65 49.7 -76.3 L48.45 -75.05 48.35 -74.85 48.25 -74.75 48.3 -74.7 M47.25 -74.35 Q47.2 -74.8 47.3 -75.1 L47.35 -75.15 47.5 -75.4 47.75 -75.75 49.0 -77.0 Q50.05 -78.05 51.1 -77.0 L77.05 -51.05 Q78.1 -50.0 77.05 -48.95 L75.8 -47.7 75.45 -47.45 75.2 -47.3 75.15 -47.25 74.4 -47.2 Q68.85 -46.75 64.45 -41.25 L64.4 -41.2 Q59.95 -33.25 54.5 -26.65 56.2 -23.25 57.4 -19.65 65.9 -18.85 74.7 -16.35 L74.75 -16.35 Q81.75 -15.55 86.0 -19.15 L86.55 -19.65 86.6 -19.65 86.9 -19.75 87.3 -19.8 89.1 -19.8 Q90.6 -19.8 90.6 -18.3 L90.6 18.35 Q90.6 19.85 89.1 19.85 L87.3 19.85 86.9 19.8 86.6 19.75 86.55 19.7 86.0 19.25 Q81.75 15.6 74.75 16.4 L74.7 16.4 Q65.9 18.9 57.4 19.7 56.15 23.3 54.5 26.7 59.95 33.25 64.4 41.3 L64.45 41.35 Q68.85 46.85 74.45 47.25 L75.15 47.35 75.2 47.3 75.45 47.55 75.75 47.75 77.0 49.0 Q78.05 50.05 77.0 51.1 L51.05 77.05 Q50.0 78.1 48.95 77.05 L47.7 75.8 47.5 75.5 47.3 75.2 47.25 74.45 Q46.75 68.85 41.3 64.5 L41.25 64.45 Q33.2 59.9 26.65 54.5 23.25 56.2 19.65 57.4 18.85 65.9 16.35 74.75 L16.35 74.8 Q15.55 81.8 19.2 86.05 L19.65 86.6 19.7 86.65 19.75 86.95 19.8 87.3 19.8 89.1 Q19.8 90.6 18.3 90.6 L-18.35 90.6 Q-19.85 90.6 -19.85 89.1 L-19.85 87.3 -19.8 86.95 -19.7 86.65 -19.7 86.6 -19.2 86.05 Q-15.6 81.75 -16.4 74.8 L-16.4 74.75 Q-18.9 65.9 -19.7 57.4 -23.3 56.2 -26.7 54.5 -33.3 59.95 -41.3 64.4 L-41.35 64.45 Q-46.85 68.85 -47.25 74.45 L-47.35 75.15 -47.3 75.2 -47.55 75.45 -47.75 75.75 -49.0 77.0 Q-50.05 78.05 -51.1 77.0 L-77.05 51.05 Q-78.1 50.0 -77.05 48.95 L-75.8 47.7 -75.5 47.5 -75.2 47.3 -74.45 47.25 Q-68.85 46.75 -64.5 41.3 L-64.45 41.25 Q-59.9 33.2 -54.5 26.65 -56.2 23.25 -57.4 19.65 -65.9 18.85 -74.75 16.35 L-74.8 16.35 Q-81.8 15.55 -86.05 19.2 -86.25 19.5 -86.6 19.65 L-86.65 19.7 -86.95 19.75 -87.3 19.8 -89.1 19.8 Q-90.6 19.8 -90.6 18.3 L-90.6 -18.35 Q-90.6 -19.85 -89.1 -19.85 L-87.3 -19.85 -86.95 -19.8 -86.65 -19.7 -86.6 -19.7 Q-86.25 -19.55 -86.05 -19.2 -81.75 -15.6 -74.8 -16.4 L-74.75 -16.4 Q-65.9 -18.9 -57.4 -19.7 -56.2 -23.3 -54.5 -26.7 -59.9 -33.25 -64.35 -41.25 L-64.4 -41.3 Q-68.8 -46.8 -74.35 -47.25 L-75.1 -47.3 -75.15 -47.35 -75.4 -47.5 -75.75 -47.75 -77.0 -49.0 Q-78.05 -50.05 -77.0 -51.1 L-51.05 -77.05 Q-50.0 -78.1 -48.95 -77.05 L-47.7 -75.8 -47.45 -75.45 -47.3 -75.2 -47.25 -75.15 -47.2 -74.4 Q-46.75 -68.85 -41.25 -64.45 L-41.2 -64.4 Q-33.25 -59.95 -26.65 -54.5 -23.25 -56.2 -19.65 -57.4 -18.85 -65.9 -16.35 -74.7 L-16.35 -74.75 Q-15.55 -81.75 -19.15 -86.0 L-19.65 -86.55 -19.65 -86.6 -19.75 -86.9 -19.8 -87.3 -19.8 -89.1 Q-19.8 -90.6 -18.3 -90.6 L18.35 -90.6 Q19.85 -90.6 19.85 -89.1 L19.85 -87.3 19.8 -86.9 19.75 -86.6 19.7 -86.55 19.25 -86.0 Q15.6 -81.75 16.4 -74.75 L16.4 -74.7 Q18.9 -65.9 19.7 -57.4 23.3 -56.2 26.75 -54.45 33.25 -59.9 41.25 -64.35 L41.3 -64.4 Q46.8 -68.8 47.25 -74.35" fill="#000000" fill-rule="evenodd" stroke="none" class="line" />
    </g>
  </defs>
  <g transform="matrix(1.0, 0.0, 0.0, 1.0, 0.0, 0.0)">
    <use height="180.2" id="fill" transform="matrix(0.5519, 0.0, 0.0, 0.5519, 0.2756, 0.2756)" width="180.2" xlink:href="#sprite0" />
    <use height="181.2" id="line" transform="matrix(0.5519, 0.0, 0.0, 0.5519, -0.0003, -0.0003)" width="181.2" xlink:href="#sprite1" />
  </g>
</svg>