<?xml version="1.0" encoding="UTF-8" standalone="no"?>
<svg xmlns:xlink="http://www.w3.org/1999/xlink" height="100%" width="100%" xmlns="http://www.w3.org/2000/svg" preserveAspectRatio="none" viewBox="0 0 100 100">
  <defs>
    <g id="sprite0" transform="matrix(1.0, 0.0, 0.0, 1.0, 51.0, 17.0)">
      <use height="34.05" transform="matrix(1.0, 0.0, 0.0, 1.0, -51.0, -17.0)" width="102.05" xlink:href="#shape0" />
    </g>
    <g id="shape0" transform="matrix(1.0, 0.0, 0.0, 1.0, 51.0, 17.0)">
      <path d="M51.05 -17.0 L51.05 17.05 -51.0 17.05 -51.0 -17.0 51.05 -17.0" fill="#ffffff" fill-rule="evenodd" stroke="none" class="fill" />
    </g>
    <g id="sprite1" transform="matrix(1.0, 0.0, 0.0, 1.0, 52.0, 18.0)">
      <use height="36.05" transform="matrix(1.0, 0.0, 0.0, 1.0, -52.0, -18.0)" width="104.05" xlink:href="#shape1" />
    </g>
    <g id="shape1" transform="matrix(1.0, 0.0, 0.0, 1.0, 52.0, 18.0)">
      <path d="M50.05 16.05 L50.05 -16.0 -50.0 -16.0 -50.0 16.05 50.05 16.05 M51.05 -18.0 L51.75 -17.7 52.05 -17.0 52.05 17.05 51.75 17.75 51.05 18.05 -51.0 18.05 Q-51.4 18.05 -51.7 17.75 L-52.0 17.05 -52.0 -17.0 -51.7 -17.7 Q-51.4 -18.0 -51.0 -18.0 L51.05 -18.0" fill="#000000" fill-rule="evenodd" stroke="none" />
    </g>
  </defs>
  <g transform="matrix(1.0, 0.0, 0.0, 1.0, 0.0, 0.0)">
    <use height="34.05" id="fill" transform="matrix(0.9616, 0.0, 0.0, 2.7725, 0.9603, 2.8169)" width="102.05" xlink:href="#sprite0" />
    <use height="36.05" transform="matrix(0.9616, 0.0, 0.0, 2.7725, -0.0013, 0.0443)" width="104.05" xlink:href="#sprite1" />
  </g>
</svg>