<?xml version="1.0" encoding="UTF-8" standalone="no"?>
<svg xmlns:xlink="http://www.w3.org/1999/xlink" height="100%" width="100%" xmlns="http://www.w3.org/2000/svg" preserveAspectRatio="none" viewBox="0 0 100 100">
  <defs>
    <g id="sprite0" transform="matrix(1.0, 0.0, 0.0, 1.0, 100.7, 50.35)">
      <use height="100.7" transform="matrix(1.0, 0.0, 0.0, 1.0, -100.7, -50.35)" width="201.4" xlink:href="#shape0" />
    </g>
    <g id="shape0" transform="matrix(1.0, 0.0, 0.0, 1.0, 100.7, 50.35)">
      <path d="M33.95 -16.4 Q40.6 -23.05 44.25 -31.65 48.0 -40.6 48.0 -50.35 L100.7 -50.35 Q100.7 -29.85 92.8 -11.15 85.15 6.9 71.2 20.85 57.25 34.8 39.2 42.45 20.5 50.35 0.0 50.35 -20.5 50.35 -39.2 42.45 -57.3 34.8 -71.2 20.85 -85.15 6.9 -92.8 -11.15 -100.7 -29.85 -100.7 -50.35 L-48.0 -50.35 Q-48.0 -40.6 -44.25 -31.65 -40.6 -23.05 -33.95 -16.4 -27.3 -9.75 -18.7 -6.1 -9.75 -2.35 0.0 -2.35 9.75 -2.35 18.7 -6.1 27.3 -9.75 33.95 -16.4" fill="#ffffff" fill-rule="evenodd" stroke="none" class="fill" />
    </g>
    <g id="sprite1" transform="matrix(1.0, 0.0, 0.0, 1.0, 101.7, 51.35)">
      <use height="102.7" transform="matrix(1.0, 0.0, 0.0, 1.0, -101.7, -51.35)" width="203.4" xlink:href="#shape1" />
    </g>
    <g id="shape1" transform="matrix(1.0, 0.0, 0.0, 1.0, 101.7, 51.35)">
      <path d="M19.1 -5.15 Q9.95 -1.35 0.0 -1.35 -9.95 -1.35 -19.05 -5.15 L-19.1 -5.15 Q-27.85 -8.9 -34.65 -15.7 -41.45 -22.5 -45.15 -31.25 -48.8 -39.95 -49.0 -49.35 L-99.7 -49.35 Q-99.5 -29.6 -91.85 -11.55 -84.3 6.35 -70.5 20.15 -56.75 33.95 -38.8 41.55 -20.3 49.35 0.0 49.35 20.3 49.35 38.8 41.55 56.7 33.95 70.5 20.15 84.3 6.35 91.9 -11.55 99.5 -29.6 99.7 -49.35 L49.0 -49.35 Q48.8 -39.95 45.2 -31.25 41.45 -22.5 34.65 -15.7 27.85 -8.9 19.1 -5.15 M47.0 -50.35 L47.3 -51.05 48.0 -51.35 100.7 -51.35 101.4 -51.05 101.7 -50.35 Q101.7 -29.65 93.75 -10.75 86.0 7.45 71.9 21.55 57.8 35.65 39.6 43.4 20.7 51.35 0.0 51.35 -20.7 51.35 -39.6 43.4 -57.85 35.65 -71.9 21.55 -86.0 7.45 -93.7 -10.75 -101.7 -29.65 -101.7 -50.35 L-101.4 -51.05 -100.7 -51.35 -48.0 -51.35 -47.3 -51.05 -47.0 -50.35 Q-47.0 -40.8 -43.3 -32.0 L-43.3 -32.05 Q-39.75 -23.6 -33.25 -17.1 -26.75 -10.6 -18.3 -7.0 -9.55 -3.35 0.0 -3.35 9.55 -3.35 18.35 -7.0 L18.3 -7.0 Q26.75 -10.6 33.25 -17.1 39.75 -23.6 43.35 -32.05 L43.35 -32.0 Q47.0 -40.8 47.0 -50.35" fill="#000000" fill-rule="evenodd" stroke="none" class="line" />
    </g>
  </defs>
  <g transform="matrix(1.0, 0.0, 0.0, 1.0, 0.0, 0.0)">
    <use height="100.7" id="fill" transform="matrix(0.4916, 0.0, 0.0, 0.9737, 0.492, 0.9737)" width="201.4" xlink:href="#sprite0" />
    <use height="102.7" id="line" transform="matrix(0.4916, 0.0, 0.0, 0.9737, 0.0004, 0.0)" width="203.4" xlink:href="#sprite1" />
  </g>
</svg>