<?xml version="1.0" encoding="UTF-8" standalone="no"?>
<svg xmlns:xlink="http://www.w3.org/1999/xlink" height="100%" width="100%" xmlns="http://www.w3.org/2000/svg" preserveAspectRatio="none" viewBox="0 0 100 100">
  <defs>
    <g id="sprite0" transform="matrix(1.0, 0.0, 0.0, 1.0, 47.55, 29.05)">
      <use height="58.05" transform="matrix(1.0, 0.0, 0.0, 1.0, -47.55, -29.05)" width="96.15" xlink:href="#shape0" />
    </g>
    <g id="shape0" transform="matrix(1.0, 0.0, 0.0, 1.0, 47.55, 29.05)">
      <path d="M34.5 -20.55 Q41.15 -16.55 44.8 -11.35 48.6 -5.95 48.6 -0.05 48.6 5.85 44.8 11.25 41.15 16.45 34.5 20.5 20.4 29.0 0.5 29.0 -19.4 29.0 -33.45 20.5 -40.1 16.45 -43.75 11.25 -47.55 5.85 -47.55 -0.05 -47.55 -5.95 -43.75 -11.35 -40.1 -16.55 -33.45 -20.55 -19.35 -29.05 0.5 -29.05 20.4 -29.05 34.5 -20.55" fill="#ffffff" fill-rule="evenodd" stroke="none" class="fill" />
    </g>
    <g id="sprite1" transform="matrix(1.0, 0.0, 0.0, 1.0, 48.55, 30.05)">
      <use height="60.05" transform="matrix(1.0, 0.0, 0.0, 1.0, -48.55, -30.05)" width="98.15" xlink:href="#shape1" />
    </g>
    <g id="shape1" transform="matrix(1.0, 0.0, 0.0, 1.0, 48.55, 30.05)">
      <path d="M0.8 -28.05 L0.55 -28.05 -0.2 -28.05 Q-19.2 -27.9 -32.75 -19.85 -39.25 -15.95 -42.85 -10.95 -46.35 -6.0 -46.55 -0.6 L-46.55 -0.05 -46.55 0.4 Q-46.4 5.85 -42.85 10.85 -39.25 15.9 -32.75 19.8 -19.2 27.85 -0.2 28.0 L0.55 28.0 0.8 28.0 Q20.1 27.95 33.8 19.8 40.3 15.9 43.9 10.85 47.45 5.85 47.6 0.4 L47.6 -0.05 47.6 -0.6 Q47.4 -6.0 43.9 -10.95 40.3 -15.95 33.8 -19.85 20.1 -28.0 0.8 -28.05 M-0.2 -26.55 L0.55 -26.55 0.8 -26.55 Q20.7 -26.5 33.85 -18.1 39.75 -14.35 42.95 -9.55 45.9 -5.1 46.1 -0.6 L46.1 -0.05 46.1 0.4 Q45.95 5.0 42.95 9.5 39.75 14.25 33.85 18.0 20.7 26.45 0.8 26.5 L0.55 26.5 -0.2 26.5 Q-19.8 26.35 -32.8 18.0 -38.7 14.25 -41.9 9.5 -44.9 5.0 -45.05 0.4 L-45.05 -0.05 -45.05 -0.6 Q-44.85 -5.1 -41.9 -9.55 -38.65 -14.35 -32.8 -18.1 -19.8 -26.4 -0.2 -26.55 M0.8 -25.55 L0.55 -25.55 -0.2 -25.55 Q-18.85 -25.4 -31.75 -17.4 -37.6 -13.8 -40.85 -9.2 -43.85 -4.9 -44.05 -0.6 L-44.05 -0.05 -44.05 0.4 Q-43.9 4.8 -40.85 9.15 -37.6 13.75 -31.75 17.35 -18.9 25.35 -0.2 25.5 L0.55 25.5 0.8 25.5 Q19.8 25.45 32.8 17.35 38.65 13.75 41.9 9.15 44.95 4.8 45.1 0.4 L45.1 -0.05 45.1 -0.6 Q44.9 -4.95 41.9 -9.2 38.65 -13.8 32.8 -17.4 19.8 -25.5 0.8 -25.55 M0.55 -30.05 Q20.85 -30.05 35.2 -21.25 42.0 -17.1 45.75 -11.7 49.6 -6.15 49.6 -0.05 49.6 6.05 45.75 11.65 42.0 17.05 35.2 21.2 20.85 30.0 0.55 30.0 -19.8 30.0 -34.15 21.2 -40.95 17.05 -44.7 11.65 -48.55 6.05 -48.55 -0.05 -48.55 -6.15 -44.7 -11.7 -40.95 -17.1 -34.15 -21.25 -19.75 -30.05 0.55 -30.05" fill="#000000" fill-rule="evenodd" stroke="none" />
      <path d="M-0.2 -28.05 L0.55 -28.05 0.8 -28.05 0.8 -26.55 0.55 -26.55 -0.2 -26.55 -0.2 -28.05 M47.6 -0.6 L47.6 -0.05 47.6 0.4 46.1 0.4 46.1 -0.05 46.1 -0.6 47.6 -0.6 M0.8 28.0 L0.55 28.0 -0.2 28.0 -0.2 26.5 0.55 26.5 0.8 26.5 0.8 28.0 M-46.55 0.4 L-46.55 -0.05 -46.55 -0.6 -45.05 -0.6 -45.05 -0.05 -45.05 0.4 -46.55 0.4 M-0.2 -25.55 L0.55 -25.55 0.8 -25.55 0.8 -0.6 45.1 -0.6 45.1 -0.05 45.1 0.4 0.8 0.4 0.8 25.5 0.55 25.5 -0.2 25.5 -0.2 0.4 -44.05 0.4 -44.05 -0.05 -44.05 -0.6 -0.2 -0.6 -0.2 -25.55" fill="#b3b3b3" fill-rule="evenodd" stroke="none" />
    </g>
  </defs>
  <g transform="matrix(1.0, 0.0, 0.0, 1.0, 0.0, 0.0)">
    <use height="58.05" id="fill" transform="matrix(1.0183, 0.0, 0.0, 1.6644, 1.0779, 1.6979)" width="96.15" xlink:href="#sprite0" />
    <use height="60.05" transform="matrix(1.0183, 0.0, 0.0, 1.6644, 0.0595, 0.0335)" width="98.15" xlink:href="#sprite1" />
  </g>
</svg>