<?xml version="1.0" encoding="UTF-8" standalone="no"?>
<svg xmlns:xlink="http://www.w3.org/1999/xlink" height="100%" width="100%" xmlns="http://www.w3.org/2000/svg" preserveAspectRatio="none" viewBox="0 0 100 100">
  <defs>
    <g id="sprite0" transform="matrix(1.0, 0.0, 0.0, 1.0, 75.75, 69.55)">
      <use height="139.15" transform="matrix(1.0, 0.0, 0.0, 1.0, -75.75, -69.55)" width="151.55" xlink:href="#shape0" />
    </g>
    <g id="shape0" transform="matrix(1.0, 0.0, 0.0, 1.0, 75.75, 69.55)">
      <path d="M58.55 -52.65 Q59.45 -49.55 59.0 -47.05 L58.4 -43.8 57.95 -42.25 Q58.5 -39.5 57.4 -37.25 L54.15 -30.2 66.9 23.05 Q67.5 25.5 68.75 27.25 70.05 29.0 71.2 28.95 72.35 28.9 73.65 30.35 74.95 31.8 75.55 33.85 76.2 35.85 75.05 38.2 73.9 40.55 71.7 41.8 L71.1 42.1 Q66.35 44.7 62.5 43.35 60.35 42.65 58.45 40.35 L57.55 39.05 60.25 57.0 Q60.7 59.5 59.25 61.85 57.85 64.15 55.4 64.9 39.85 69.6 0.25 69.6 -39.4 69.6 -55.35 64.85 -57.8 64.15 -59.2 61.8 -60.65 59.5 -60.2 57.0 L-57.5 39.1 -58.4 40.35 Q-60.3 42.65 -62.45 43.35 -66.3 44.7 -71.05 42.1 L-71.65 41.8 Q-73.85 40.55 -75.0 38.2 -76.15 35.85 -75.5 33.85 -74.9 31.8 -73.6 30.35 -72.3 28.9 -71.15 28.95 -70.0 29.0 -68.7 27.25 -67.45 25.5 -66.85 23.05 L-54.0 -30.3 -57.25 -37.25 Q-58.25 -39.4 -58.0 -42.1 L-58.5 -43.85 -59.0 -47.0 Q-59.35 -49.55 -58.55 -52.8 -57.75 -56.1 -56.25 -58.15 -57.85 -69.55 -1.7 -69.55 54.3 -69.55 55.85 -57.6 57.6 -55.75 58.55 -52.65" fill="#ffffff" fill-rule="evenodd" stroke="none" class="fill" />
    </g>
    <g id="sprite1" transform="matrix(1.0, 0.0, 0.0, 1.0, 77.75, 71.55)">
      <use height="143.15" transform="matrix(1.0, 0.0, 0.0, 1.0, -77.75, -71.55)" width="155.55" xlink:href="#shape1" />
    </g>
    <g id="shape1" transform="matrix(1.0, 0.0, 0.0, 1.0, 77.75, 71.55)">
      <path d="M-46.45 -17.1 L-46.85 -17.3 Q-49.8 -18.9 -51.0 -21.45 L-53.7 -27.3 -65.85 23.3 Q-66.5 25.95 -67.85 27.85 L-67.9 27.85 Q-69.6 30.15 -71.2 29.95 -71.95 30.0 -72.85 31.05 -74.0 32.3 -74.55 34.15 -75.05 35.8 -74.1 37.75 -73.1 39.8 -71.2 40.9 L-70.6 41.2 -70.55 41.25 Q-66.25 43.6 -62.75 42.4 -60.85 41.75 -59.15 39.75 L-58.45 38.75 Q-57.4 37.1 -57.0 35.35 L-46.45 -17.1 M44.65 -16.3 L41.25 -16.0 Q20.9 -18.15 -1.9 -18.15 -25.4 -18.15 -41.1 -16.15 L-44.55 -16.35 -55.05 35.75 Q-55.45 37.65 -56.5 39.4 L-59.2 57.15 -59.2 57.2 Q-59.6 59.3 -58.35 61.3 -57.15 63.3 -55.05 63.9 -39.2 68.6 0.25 68.6 39.65 68.6 55.1 63.95 57.2 63.3 58.4 61.35 59.65 59.3 59.3 57.2 L59.25 57.15 56.55 39.4 Q55.5 37.6 55.15 35.75 L44.65 -16.3 M47.0 -17.3 L46.5 -17.05 57.1 35.35 Q57.45 37.1 58.5 38.75 L59.25 39.75 Q60.9 41.75 62.8 42.4 L62.85 42.4 Q66.3 43.6 70.65 41.25 L70.65 41.2 71.25 40.9 Q73.15 39.8 74.15 37.75 75.1 35.8 74.6 34.15 74.05 32.3 72.9 31.05 72.0 30.0 71.25 29.95 69.65 30.15 67.95 27.85 66.55 25.95 65.95 23.3 L53.8 -27.15 51.15 -21.45 Q49.95 -18.9 47.0 -17.3 M54.7 -46.0 L54.35 -46.65 Q53.15 -55.2 -1.75 -55.2 -29.7 -55.2 -43.15 -53.0 -55.45 -51.05 -54.8 -47.65 L-54.8 -47.2 -55.05 -46.75 Q-56.55 -45.1 -56.95 -42.4 L-56.95 -42.25 Q-57.2 -40.4 -56.75 -38.8 L-56.35 -37.65 -49.2 -22.3 Q-48.25 -20.35 -46.05 -19.1 L-45.9 -19.05 -44.15 -18.35 -41.35 -18.15 Q-25.6 -20.15 -1.9 -20.15 21.0 -20.15 41.45 -18.0 L44.25 -18.3 46.05 -19.05 46.1 -19.1 Q48.4 -20.35 49.35 -22.3 L56.5 -37.65 57.0 -39.25 Q57.25 -40.65 56.95 -42.15 L56.9 -42.4 Q56.3 -44.65 54.7 -46.0 M57.6 -52.35 Q56.7 -55.2 55.15 -56.9 L54.85 -57.45 Q53.2 -68.55 -1.7 -68.55 -29.65 -68.55 -43.2 -65.7 -55.7 -63.1 -55.25 -58.3 -55.2 -57.9 -55.45 -57.55 -56.85 -55.65 -57.55 -52.55 -58.3 -49.5 -58.0 -47.1 L-58.0 -47.15 -57.85 -46.15 -56.85 -47.7 Q-57.55 -52.75 -43.5 -55.0 -29.95 -57.2 -1.75 -57.2 54.25 -57.2 56.3 -47.3 L57.75 -45.55 58.05 -47.2 Q58.45 -49.5 57.6 -52.35 M59.5 -52.95 L59.5 -52.9 Q60.45 -49.6 60.0 -46.85 L59.4 -43.6 58.95 -42.15 Q59.45 -39.25 58.3 -36.8 L55.2 -30.1 67.9 22.8 67.9 22.85 Q68.45 25.05 69.55 26.65 L69.6 26.7 Q70.45 27.85 71.15 27.95 72.7 27.8 74.4 29.7 75.85 31.3 76.5 33.6 L76.5 33.55 Q77.3 35.9 75.95 38.65 74.65 41.3 72.2 42.7 L72.15 42.7 71.55 43.0 71.6 43.0 Q66.4 45.8 62.2 44.3 60.55 43.8 59.1 42.45 L61.25 56.85 Q61.75 59.7 60.1 62.4 58.5 65.0 55.7 65.85 40.05 70.6 0.25 70.6 -39.6 70.6 -55.6 65.8 -58.45 65.0 -60.05 62.3 L-60.05 62.35 Q-61.7 59.7 -61.15 56.85 L-61.2 56.85 -59.0 42.45 Q-60.5 43.8 -62.15 44.3 L-62.1 44.3 Q-66.35 45.8 -71.5 43.0 L-72.1 42.7 -72.15 42.7 Q-74.6 41.3 -75.9 38.65 -77.25 35.9 -76.45 33.55 L-76.45 33.6 Q-75.8 31.3 -74.35 29.7 -72.65 27.8 -71.1 27.95 -70.4 27.85 -69.5 26.7 -68.4 25.05 -67.8 22.85 L-67.8 22.8 -55.1 -30.25 -58.15 -36.8 Q-59.25 -39.1 -59.0 -41.95 L-59.5 -43.7 -59.45 -43.7 -59.95 -46.85 -60.0 -46.85 Q-60.4 -49.6 -59.5 -53.0 L-59.5 -53.05 Q-58.75 -56.3 -57.3 -58.4 -57.95 -64.7 -43.6 -67.65 -29.9 -70.55 -1.7 -70.55 54.75 -70.55 56.8 -58.0 58.55 -56.1 59.5 -52.95" fill="#000000" fill-rule="evenodd" stroke="none" />
      <path d="M60.45 -53.2 L60.5 -53.2 Q61.5 -49.6 61.0 -46.7 L60.4 -43.45 60.4 -43.4 60.0 -42.05 Q60.45 -39.0 59.25 -36.4 L56.25 -30.0 68.85 22.6 Q69.35 24.65 70.4 26.1 L70.35 26.05 71.15 26.95 Q73.05 26.7 75.15 29.05 76.7 30.75 77.45 33.25 L77.5 33.3 Q78.35 35.95 76.85 39.1 75.45 42.0 72.7 43.55 L72.6 43.6 72.0 43.9 72.05 43.85 Q66.4 46.95 61.85 45.25 L61.9 45.25 60.4 44.65 62.25 56.7 62.25 56.65 Q62.8 59.85 60.95 62.9 59.15 65.85 56.0 66.8 L56.0 66.85 Q40.25 71.6 0.25 71.6 -39.8 71.6 -55.9 66.8 -59.1 65.9 -60.9 62.9 L-60.9 62.85 Q-62.75 59.85 -62.15 56.65 L-62.15 56.7 -60.35 44.65 -61.8 45.25 Q-66.35 46.95 -72.0 43.85 L-71.95 43.9 -72.55 43.6 -72.65 43.55 Q-75.4 42.0 -76.8 39.1 -78.3 35.95 -77.4 33.3 L-77.4 33.25 Q-76.65 30.75 -75.1 29.05 -73.0 26.7 -71.05 26.95 L-70.3 26.05 -70.3 26.1 Q-69.3 24.65 -68.8 22.6 L-56.1 -30.05 -59.05 -36.4 Q-60.2 -38.8 -60.0 -41.8 L-60.45 -43.5 -60.95 -46.65 -60.95 -46.7 Q-61.4 -49.6 -60.5 -53.25 -59.7 -56.5 -58.3 -58.65 -58.9 -65.5 -43.8 -68.65 -30.05 -71.55 -1.7 -71.55 55.1 -71.55 57.75 -58.5 59.45 -56.45 60.45 -53.2 M58.55 -52.65 Q57.6 -55.75 55.85 -57.6 54.3 -69.55 -1.7 -69.55 -57.85 -69.55 -56.25 -58.15 -57.75 -56.1 -58.55 -52.8 -59.35 -49.55 -59.0 -47.0 L-58.5 -43.85 -58.0 -42.1 Q-58.25 -39.4 -57.25 -37.25 L-54.0 -30.3 -66.85 23.05 Q-67.45 25.5 -68.7 27.25 -70.0 29.0 -71.15 28.95 -72.3 28.9 -73.6 30.35 -74.9 31.8 -75.5 33.85 -76.15 35.85 -75.0 38.2 -73.85 40.55 -71.65 41.8 L-71.05 42.1 Q-66.3 44.7 -62.45 43.35 -60.3 42.65 -58.4 40.35 L-57.5 39.1 -60.2 57.0 Q-60.65 59.5 -59.2 61.8 -57.8 64.15 -55.35 64.85 -39.4 69.6 0.25 69.6 39.85 69.6 55.4 64.9 57.85 64.15 59.25 61.85 60.7 59.5 60.25 57.0 L57.55 39.05 58.45 40.35 Q60.35 42.65 62.5 43.35 66.35 44.7 71.1 42.1 L71.7 41.8 Q73.9 40.55 75.05 38.2 76.2 35.85 75.55 33.85 74.95 31.8 73.65 30.35 72.35 28.9 71.2 28.95 70.05 29.0 68.75 27.25 67.5 25.5 66.9 23.05 L54.15 -30.2 57.4 -37.25 Q58.5 -39.5 57.95 -42.25 L58.4 -43.8 59.0 -47.05 Q59.45 -49.55 58.55 -52.65" fill="#000000" fill-rule="evenodd" stroke="none" />
    </g>
  </defs>
  <g transform="matrix(1.0, 0.0, 0.0, 1.0, 0.0, 0.0)">
    <use height="139.15" id="fill" transform="matrix(0.6432, 0.0, 0.0, 0.6989, 1.2773, 1.3906)" width="151.55" xlink:href="#sprite0" />
    <use height="143.15" transform="matrix(0.6432, 0.0, 0.0, 0.6989, -0.0091, -0.0073)" width="155.55" xlink:href="#sprite1" />
  </g>
</svg>