<?xml version="1.0" encoding="UTF-8" standalone="no"?>
<svg xmlns:xlink="http://www.w3.org/1999/xlink" height="100%" width="100%" xmlns="http://www.w3.org/2000/svg" preserveAspectRatio="none" viewBox="0 0 100 100">
  <defs>
    <g id="sprite0" transform="matrix(1.0, 0.0, 0.0, 1.0, 93.75, 79.75)">
      <use height="159.5" transform="matrix(1.0, 0.0, 0.0, 1.0, -93.75, -79.75)" width="187.5" xlink:href="#shape0" />
    </g>
    <g id="shape0" transform="matrix(1.0, 0.0, 0.0, 1.0, 93.75, 79.75)">
      <path d="M91.95 -4.4 Q93.75 8.7 93.75 29.2 L93.75 29.35 93.75 29.45 93.75 29.6 93.75 29.7 93.25 32.1 Q92.75 33.3 91.9 34.3 L91.9 36.1 91.1 38.7 Q90.3 39.85 88.65 40.85 L88.6 40.9 89.1 50.3 89.3 60.0 Q89.3 70.05 84.6 74.6 79.2 79.75 65.9 79.75 L-65.9 79.75 Q-79.2 79.75 -84.6 74.6 -89.3 70.05 -89.3 60.0 L-89.1 50.8 -88.6 40.95 -89.45 40.4 -91.85 36.3 -91.85 36.1 -91.85 34.35 -92.35 33.65 -92.8 32.95 Q-93.65 31.35 -93.75 29.55 L-93.75 29.4 -93.75 29.2 Q-93.75 8.8 -91.95 -4.4 -89.05 -25.2 -81.1 -40.0 -59.65 -79.75 0.1 -79.75 59.85 -79.75 81.2 -40.0 89.15 -25.25 91.95 -4.4" fill="#ffffff" fill-rule="evenodd" stroke="none" class="fill" />
    </g>
    <g id="sprite1" transform="matrix(1.0, 0.0, 0.0, 1.0, 95.75, 81.75)">
      <use height="163.5" transform="matrix(1.0, 0.0, 0.0, 1.0, -95.75, -81.75)" width="191.5" xlink:href="#shape1" />
    </g>
    <g id="shape1" transform="matrix(1.0, 0.0, 0.0, 1.0, 95.75, 81.75)">
      <path d="M87.6 42.5 Q84.85 43.65 81.2 43.95 76.4 44.35 72.45 43.05 67.85 41.5 66.15 38.25 65.3 36.8 64.25 32.15 L61.95 22.3 Q58.25 7.0 53.2 -3.55 36.6 -38.1 -0.4 -38.1 -37.4 -38.1 -54.05 -3.55 -59.15 7.0 -62.85 22.3 L-65.15 32.15 Q-66.25 36.8 -67.05 38.25 -68.8 41.5 -73.25 43.05 -77.1 44.35 -81.65 43.95 L-81.7 43.95 Q-85.05 43.65 -87.55 42.6 -88.15 51.1 -88.15 60.0 -88.2 69.5 -83.8 73.8 -78.65 78.6 -65.9 78.65 L65.9 78.65 Q78.65 78.6 83.85 73.8 88.2 69.5 88.2 60.0 88.15 51.1 87.6 42.5 M82.95 -40.95 Q91.05 -25.9 93.95 -4.65 95.75 8.55 95.75 29.2 95.75 32.5 93.9 35.05 L93.9 36.0 93.9 36.1 Q94.05 39.5 90.55 42.0 91.3 50.7 91.3 60.0 91.3 71.05 86.0 76.05 80.2 81.75 65.9 81.75 L-65.9 81.75 Q-80.2 81.75 -85.95 76.05 L-86.0 76.05 Q-91.3 71.05 -91.3 60.0 -91.3 51.5 -90.5 42.1 -93.95 39.65 -93.85 36.1 L-93.85 35.05 Q-95.75 32.4 -95.75 29.2 -95.75 8.65 -93.9 -4.65 -90.95 -25.85 -82.85 -40.95 -61.0 -81.75 0.1 -81.75 61.2 -81.75 82.95 -40.95 M59.65 -13.3 Q41.15 -51.65 0.1 -51.65 -40.95 -51.65 -59.55 -13.3 L-59.5 -13.3 Q-65.2 -1.55 -69.3 15.35 L-69.3 15.4 -71.85 26.35 -71.85 26.4 Q-73.1 31.6 -73.95 33.15 -75.95 36.8 -79.55 38.25 L-79.6 38.25 Q-82.85 39.5 -86.4 38.75 L-86.45 38.75 Q-88.9 38.2 -90.75 36.85 -90.35 38.65 -88.2 40.0 L-87.4 40.45 Q-84.95 41.65 -81.5 41.95 -77.4 42.35 -73.9 41.15 -70.3 39.9 -68.8 37.3 -68.15 36.0 -67.1 31.7 L-64.8 21.85 Q-61.05 6.3 -55.85 -4.4 -38.6 -40.1 -0.4 -40.1 37.8 -40.1 55.0 -4.4 60.15 6.3 63.9 21.85 L66.2 31.7 Q67.2 36.0 67.9 37.3 69.35 39.9 73.1 41.15 76.7 42.35 81.05 41.95 84.8 41.65 87.45 40.4 L88.15 40.0 Q90.4 38.65 90.8 36.85 88.95 38.2 86.5 38.75 82.85 39.5 79.6 38.25 75.95 36.8 74.0 33.15 L74.05 33.15 Q73.1 31.6 71.9 26.35 L69.35 15.4 69.35 15.35 Q65.3 -1.55 59.65 -13.3 M80.2 -39.45 Q59.1 -78.65 0.1 -78.6 -58.9 -78.65 -80.1 -39.45 -87.95 -24.85 -90.8 -4.25 -92.6 8.9 -92.6 29.2 -92.6 31.8 -90.85 33.75 L-90.65 33.95 Q-88.85 35.85 -85.95 36.55 -83.05 37.15 -80.4 36.15 -77.55 35.0 -75.95 32.05 L-75.95 32.1 Q-75.2 30.65 -74.05 25.85 L-71.5 14.85 Q-67.3 -2.35 -61.55 -14.3 -42.35 -53.95 0.1 -53.9 42.55 -53.95 61.7 -14.3 67.4 -2.35 71.55 14.85 L74.1 25.85 Q75.2 30.6 76.0 32.05 L76.0 32.1 Q77.55 35.0 80.45 36.15 L80.4 36.15 Q83.05 37.15 86.0 36.55 L86.05 36.55 Q88.85 35.85 90.7 33.95 L90.9 33.75 Q92.65 31.75 92.65 29.2 92.6 8.8 90.85 -4.25 88.05 -24.85 80.2 -39.45" fill="#000000" fill-rule="evenodd" stroke="none" />
    </g>
  </defs>
  <g transform="matrix(1.0, 0.0, 0.0, 1.0, 0.0, 0.0)">
    <use height="159.5" id="fill" transform="matrix(0.5222, 0.0, 0.0, 0.6116, 1.045, 1.2235)" width="187.5" xlink:href="#sprite0" />
    <use height="163.5" transform="matrix(0.5222, 0.0, 0.0, 0.6116, 0.0007, 0.0002)" width="191.5" xlink:href="#sprite1" />
  </g>
</svg>