<?xml version="1.0" encoding="UTF-8" standalone="no"?>
<svg xmlns:xlink="http://www.w3.org/1999/xlink" height="100%" width="100%" xmlns="http://www.w3.org/2000/svg" preserveAspectRatio="none" viewBox="0 0 100 100">
  <defs>
    <g id="sprite0" transform="matrix(1.0, 0.0, 0.0, 1.0, 80.05, 65.55)">
      <use height="131.0" transform="matrix(1.0, 0.0, 0.0, 1.0, -80.05, -65.55)" width="160.1" xlink:href="#shape0" />
    </g>
    <g id="shape0" transform="matrix(1.0, 0.0, 0.0, 1.0, 80.05, 65.55)">
      <path d="M67.75 -64.75 Q68.25 -64.5 68.7 -64.3 L68.9 -64.15 69.15 -63.9 69.2 -63.85 69.3 -63.75 70.35 -63.75 Q71.8 -63.75 73.0 -62.8 74.15 -61.85 74.35 -60.55 L80.05 61.85 Q80.1 63.3 79.1 64.4 78.05 65.45 76.6 65.45 L-76.6 65.45 Q-78.1 65.45 -79.1 64.4 -80.1 63.3 -80.05 61.85 L-74.9 -53.75 -74.35 -60.55 Q-74.2 -61.85 -73.0 -62.8 -71.8 -63.75 -70.35 -63.75 L-69.75 -63.75 -69.7 -63.8 -69.2 -64.5 Q-68.45 -65.25 -67.45 -65.45 L-66.75 -65.55 66.7 -64.9 67.75 -64.75" fill="#ffffff" fill-rule="evenodd" stroke="none" class="fill" />
    </g>
    <g id="sprite1" transform="matrix(1.0, 0.0, 0.0, 1.0, 82.05, 67.5)">
      <use height="135.0" transform="matrix(1.0, 0.0, 0.0, 1.0, -82.05, -67.5)" width="164.1" xlink:href="#shape1" />
    </g>
    <g id="shape1" transform="matrix(1.0, 0.0, 0.0, 1.0, 82.05, 67.5)">
      <path d="M41.6 65.0 Q40.35 63.65 40.35 61.9 L41.25 -23.85 Q26.7 -21.0 1.35 -21.0 -19.0 -21.0 -33.8 -23.2 L-41.25 -24.5 -40.35 61.9 Q-40.35 63.65 -41.6 65.0 L-41.65 65.0 -41.6 65.0 41.6 65.0 41.65 65.0 41.6 65.0 M47.25 -25.25 L42.75 -24.15 41.85 61.9 Q41.85 63.05 42.7 63.95 43.5 64.75 44.65 64.75 L47.4 64.75 Q46.35 63.5 46.35 61.9 L47.25 -25.25 M72.55 -62.15 Q71.65 -62.85 70.65 -62.9 70.95 -62.15 70.9 -61.2 69.85 -40.0 57.25 -29.9 54.25 -27.5 48.75 -25.7 L47.85 61.9 Q47.85 63.05 48.7 63.95 49.5 64.7 50.6 64.75 L76.6 64.75 Q77.75 64.75 78.55 63.95 L78.6 63.95 Q79.35 63.05 79.3 61.95 L73.6 -60.35 Q73.45 -61.4 72.55 -62.15 M68.65 -63.25 Q67.85 -64.1 66.7 -64.1 L-66.7 -64.75 Q-67.85 -64.75 -68.65 -63.9 -69.45 -63.1 -69.4 -61.95 -68.45 -40.05 -55.15 -31.1 -48.9 -26.9 -33.6 -24.7 -18.9 -22.5 1.35 -22.5 45.5 -22.5 56.3 -31.05 68.35 -40.8 69.4 -61.3 69.5 -62.45 68.7 -63.25 L68.65 -63.25 M74.25 -64.3 L74.3 -64.3 Q76.05 -62.85 76.35 -60.8 L76.35 -60.6 82.05 61.85 Q82.15 64.1 80.6 65.8 L80.55 65.9 Q78.9 67.5 76.6 67.5 L-76.6 67.5 Q-78.95 67.5 -80.55 65.85 L-80.55 65.8 Q-82.15 64.1 -82.05 61.85 L-76.9 -53.8 -76.3 -60.7 Q-76.15 -62.8 -74.25 -64.3 -72.7 -65.55 -70.85 -65.65 -69.4 -67.45 -66.7 -67.5 L66.7 -66.85 Q68.7 -66.85 70.1 -65.7 L70.35 -65.7 Q72.5 -65.7 74.25 -64.3 M-42.8 -24.8 L-47.3 -26.0 -46.35 61.9 Q-46.35 63.5 -47.4 64.75 L-44.7 64.75 Q-43.5 64.75 -42.65 63.95 L-42.7 63.95 Q-41.85 63.05 -41.85 61.9 L-42.8 -24.8 M-73.6 -60.4 L-74.15 -53.65 -79.3 61.95 Q-79.35 63.1 -78.55 63.95 -77.75 64.75 -76.6 64.75 L-50.6 64.75 Q-49.5 64.75 -48.65 63.95 L-48.7 63.95 Q-47.85 63.05 -47.85 61.9 L-48.8 -26.5 Q-53.25 -28.0 -56.0 -29.85 -69.95 -39.15 -70.9 -61.9 L-70.8 -62.9 Q-71.75 -62.8 -72.5 -62.15 -73.45 -61.4 -73.6 -60.4" fill="#000000" fill-rule="evenodd" stroke="none" />
    </g>
  </defs>
  <g transform="matrix(1.0, 0.0, 0.0, 1.0, 0.0, 0.0)">
    <use height="131.0" id="fill" transform="matrix(0.6094, 0.0, 0.0, 0.7407, 1.2183, 1.4446)" width="160.1" xlink:href="#sprite0" />
    <use height="135.0" transform="matrix(0.6094, 0.0, 0.0, 0.7407, -0.0005, 0.0002)" width="164.1" xlink:href="#sprite1" />
  </g>
</svg>