<?xml version="1.0" encoding="UTF-8" standalone="no"?>
<svg xmlns:xlink="http://www.w3.org/1999/xlink" height="100%" width="100%" xmlns="http://www.w3.org/2000/svg" preserveAspectRatio="none" viewBox="0 0 100 100">
  <defs>
    <g id="sprite0" transform="matrix(1.0, 0.0, 0.0, 1.0, 145.65, 92.55)">
      <use height="185.1" transform="matrix(1.0, 0.0, 0.0, 1.0, -145.65, -92.55)" width="291.35" xlink:href="#shape0" />
    </g>
    <g id="shape0" transform="matrix(1.0, 0.0, 0.0, 1.0, 145.65, 92.55)">
      <path d="M1.6 -91.5 Q2.95 -92.55 4.55 -92.55 L130.9 -92.55 Q132.4 -92.55 133.55 -91.5 134.7 -90.45 134.8 -88.95 L134.95 -87.0 134.95 -86.95 137.45 -86.95 Q138.3 -86.95 139.0 -85.9 139.7 -84.85 139.8 -83.35 L145.7 40.85 Q145.8 42.35 144.75 43.4 143.75 44.45 142.25 44.45 L118.9 44.25 118.55 44.25 Q117.35 44.1 116.45 43.2 115.75 42.5 115.5 41.6 L115.5 44.3 103.8 44.2 103.8 44.15 93.75 44.15 93.75 50.0 94.15 50.0 Q95.6 50.0 96.7 51.05 97.75 52.1 97.75 53.6 L97.75 54.9 Q97.75 56.4 96.7 57.45 95.6 58.5 94.15 58.5 L93.75 58.5 93.75 63.85 97.5 63.85 Q99.0 63.85 100.05 64.9 101.1 65.95 101.1 67.45 L101.1 88.95 Q101.1 90.4 100.05 91.5 99.0 92.55 97.5 92.55 L17.9 92.55 Q16.4 92.55 15.35 91.5 14.3 90.4 14.3 88.95 L14.3 67.45 Q14.3 65.95 15.35 64.9 16.4 63.85 17.9 63.85 L21.4 63.85 21.4 58.5 21.25 58.5 Q19.75 58.5 18.7 57.45 17.65 56.4 17.65 54.9 L17.65 53.6 Q17.65 52.1 18.7 51.05 19.75 50.0 21.25 50.0 L21.4 50.0 21.4 44.15 20.35 44.15 19.95 44.15 19.45 44.15 5.75 44.15 Q2.1 44.15 1.0 42.75 0.2 41.75 0.2 38.6 L0.2 -64.45 Q0.8 -65.75 2.8 -66.8 L3.3 -67.0 1.9 -67.75 Q0.25 -68.9 0.2 -70.3 L0.2 -88.95 Q0.15 -90.4 1.6 -91.5 M88.25 58.5 L26.9 58.5 26.9 63.85 88.25 63.85 88.25 58.5 M88.25 44.15 L26.9 44.15 26.9 50.0 88.25 50.0 88.25 44.15 M-134.9 -86.95 L-134.75 -88.95 Q-134.65 -90.45 -133.5 -91.5 -132.35 -92.55 -130.85 -92.55 L-4.5 -92.55 Q-2.95 -92.55 -1.55 -91.5 -0.1 -90.4 -0.15 -88.95 L-0.15 -70.3 Q-0.2 -68.9 -1.9 -67.75 -2.55 -67.3 -3.25 -67.0 L-2.75 -66.8 Q-0.75 -65.75 -0.15 -64.45 L-0.15 38.6 Q-0.15 41.75 -0.95 42.75 -2.0 44.15 -5.7 44.15 L-97.6 44.2 -103.75 44.15 -103.75 44.2 -115.5 44.3 -115.5 41.7 -115.6 42.05 -116.4 43.2 Q-117.3 44.1 -118.55 44.25 L-142.25 44.45 Q-143.7 44.45 -144.7 43.4 -145.7 42.35 -145.65 40.85 L-139.8 -83.35 Q-139.65 -84.85 -138.95 -85.9 -138.25 -86.95 -137.45 -86.95 L-134.9 -86.95" fill="#ffffff" fill-rule="evenodd" stroke="none" class="fill" />
    </g>
    <g id="sprite1" transform="matrix(1.0, 0.0, 0.0, 1.0, 147.65, 94.55)">
      <use height="188.35" transform="matrix(1.0, 0.0, 0.0, 1.0, -147.65, -94.55)" width="295.35" xlink:href="#shape1" />
    </g>
    <g id="shape1" transform="matrix(1.0, 0.0, 0.0, 1.0, 147.65, 94.55)">
      <path d="M-110.1 -38.95 Q-111.65 -39.65 -112.65 -40.5 L-112.7 -40.55 -114.75 -42.7 -114.75 43.55 -110.15 43.5 -110.1 -38.95 M-105.9 -37.9 L-108.6 -38.4 -108.65 43.4 -5.7 43.4 Q-2.5 43.4 -1.55 42.3 L-1.5 42.3 Q-0.9 41.4 -0.9 38.6 L-0.9 -38.4 -1.15 -38.2 Q-2.5 -37.35 -4.45 -37.4 L-105.9 -37.9 M-134.45 -66.2 L-134.5 -66.15 -134.5 -66.1 Q-134.65 -65.65 -134.05 -64.9 L-134.1 -64.95 -111.6 -41.6 -110.1 -40.65 -108.9 -40.1 -108.6 -39.95 Q-107.1 -39.45 -105.9 -39.4 L-4.4 -38.9 Q-3.0 -38.85 -1.95 -39.45 -0.95 -40.1 -0.9 -41.25 L-0.9 -41.4 -0.9 -64.25 Q-1.5 -65.3 -3.1 -66.1 L-3.05 -66.1 -3.25 -66.2 -5.0 -65.95 -133.0 -65.95 -134.45 -66.2 M-138.3 -85.45 Q-138.9 -84.6 -139.05 -83.3 L-144.9 40.9 Q-144.95 42.05 -144.15 42.9 -143.4 43.7 -142.25 43.7 L-118.95 43.5 Q-117.75 43.5 -116.9 42.7 L-116.95 42.7 -116.25 41.55 -116.25 -44.25 -135.2 -63.9 -135.2 -63.95 Q-136.55 -65.55 -135.85 -66.75 L-135.75 -67.0 -136.0 -67.25 Q-137.2 -68.6 -137.05 -70.35 L-135.7 -86.2 -137.45 -86.2 Q-137.9 -86.15 -138.3 -85.45 M-133.0 -90.95 Q-133.9 -90.1 -134.0 -88.9 L-135.55 -70.25 -135.55 -70.2 Q-135.65 -69.1 -134.9 -68.25 L-134.45 -67.85 -133.0 -67.45 -5.0 -67.45 Q-3.65 -67.45 -2.3 -68.35 -1.0 -69.25 -0.9 -70.3 L-0.9 -88.95 Q-0.9 -90.05 -2.0 -90.9 -3.2 -91.8 -4.5 -91.8 L-130.85 -91.8 Q-132.05 -91.8 -133.0 -90.95 M26.15 59.75 L22.15 59.75 22.15 62.6 26.15 62.6 26.15 59.75 M22.15 48.75 L26.15 48.75 26.15 44.9 22.15 44.9 22.15 48.75 M87.5 62.6 L87.5 59.75 27.65 59.75 27.65 62.6 87.5 62.6 M93.0 59.75 L89.0 59.75 89.0 62.6 93.0 62.6 93.0 59.75 M99.85 67.45 Q99.85 66.45 99.2 65.8 98.5 65.1 97.5 65.1 L17.9 65.1 Q16.9 65.1 16.25 65.8 15.55 66.45 15.55 67.45 L15.55 88.95 Q15.55 89.9 16.25 90.65 16.9 91.3 17.9 91.3 L97.5 91.3 Q98.5 91.3 99.2 90.65 L99.15 90.65 Q99.85 89.9 99.85 88.95 L99.85 67.45 M96.5 54.9 L96.5 53.6 Q96.5 52.6 95.85 51.95 95.1 51.25 94.15 51.25 L21.25 51.25 Q20.25 51.25 19.6 51.95 18.9 52.6 18.9 53.6 L18.9 54.9 Q18.9 55.9 19.6 56.6 20.25 57.25 21.25 57.25 L94.15 57.25 Q95.1 57.25 95.85 56.55 L95.85 56.6 Q96.5 55.9 96.5 54.9 M89.0 44.9 L89.0 48.75 93.0 48.75 93.0 44.9 89.0 44.9 M87.5 48.75 L87.5 46.3 27.65 46.2 27.65 48.75 87.5 48.75 M112.7 -40.5 Q111.7 -39.65 110.15 -38.95 L110.2 43.5 114.75 43.55 114.8 -42.7 112.75 -40.55 112.7 -40.5 M139.05 -83.3 Q138.95 -84.6 138.4 -85.45 L137.45 -86.2 135.8 -86.2 137.1 -70.35 Q137.2 -68.6 136.1 -67.25 L136.05 -67.25 135.8 -67.0 135.95 -66.75 135.95 -66.7 Q136.55 -65.55 135.25 -63.95 L135.2 -63.9 116.3 -44.25 116.25 41.5 Q116.45 42.15 117.0 42.7 117.8 43.5 118.95 43.5 L142.25 43.7 Q143.4 43.7 144.2 42.9 L144.25 42.9 Q145.05 42.05 144.95 40.9 L139.05 -83.3 M1.2 -38.2 L0.95 -38.4 0.95 38.6 Q0.95 41.4 1.6 42.3 2.6 43.4 5.75 43.4 L108.7 43.4 108.65 -38.4 105.95 -37.9 4.5 -37.4 Q2.55 -37.35 1.2 -38.2 M3.35 -66.2 L3.15 -66.1 Q1.55 -65.3 0.95 -64.25 L0.95 -41.4 0.95 -41.25 Q1.0 -40.1 2.0 -39.45 3.05 -38.85 4.5 -38.9 L105.9 -39.4 108.65 -39.95 109.0 -40.1 110.15 -40.65 111.65 -41.6 134.1 -64.95 134.1 -64.9 Q134.65 -65.65 134.55 -66.15 L134.5 -66.2 133.05 -65.95 5.05 -65.95 3.35 -66.2 M4.55 -91.8 Q3.2 -91.8 2.05 -90.9 0.95 -90.05 0.95 -88.95 L0.95 -70.3 Q1.05 -69.25 2.35 -68.35 L3.3 -67.85 5.05 -67.45 133.05 -67.45 134.55 -67.85 134.95 -68.25 Q135.65 -69.1 135.6 -70.2 L135.6 -70.25 134.05 -88.85 134.05 -88.9 Q133.95 -90.1 133.05 -90.95 132.1 -91.8 130.9 -91.8 L4.55 -91.8 M0.05 -92.8 L0.4 -93.05 0.4 -93.1 Q2.3 -94.55 4.55 -94.55 L130.9 -94.55 Q133.15 -94.55 134.9 -92.95 136.65 -91.4 136.8 -89.15 L136.85 -88.95 137.45 -88.95 Q139.25 -89.1 140.7 -87.0 141.65 -85.55 141.8 -83.45 L147.7 40.75 Q147.85 43.15 146.2 44.85 L146.2 44.8 Q144.6 46.45 142.25 46.45 L118.95 46.25 116.75 45.9 Q116.2 46.3 115.5 46.3 L94.5 46.3 94.5 48.75 Q96.25 48.85 97.6 50.15 L97.6 50.2 Q99.0 51.6 99.0 53.6 L99.0 54.9 Q99.0 56.9 97.6 58.35 96.25 59.65 94.5 59.75 L94.5 62.6 97.5 62.6 Q99.5 62.6 100.95 64.05 102.35 65.45 102.35 67.45 L102.35 88.95 Q102.35 90.9 100.95 92.4 99.5 93.8 97.5 93.8 L17.9 93.8 Q15.9 93.8 14.5 92.4 L14.45 92.4 Q13.05 90.9 13.05 88.95 L13.05 67.45 Q13.05 65.45 14.5 64.05 15.9 62.6 17.9 62.6 L20.65 62.6 20.65 59.75 Q19.0 59.55 17.85 58.35 16.4 56.9 16.4 54.9 L16.4 53.6 Q16.4 51.6 17.85 50.2 19.0 48.95 20.65 48.8 L20.65 46.2 5.75 46.15 Q1.7 46.15 0.05 44.7 -1.6 46.15 -5.7 46.15 L-115.5 46.3 Q-116.2 46.3 -116.7 45.9 L-118.9 46.25 -142.25 46.45 Q-144.55 46.45 -146.15 44.8 -147.7 43.15 -147.65 40.8 L-141.8 -83.45 -141.8 -83.55 Q-141.6 -85.6 -140.6 -87.0 -139.2 -89.15 -137.45 -88.95 L-136.75 -88.95 -136.75 -89.15 Q-136.6 -91.4 -134.85 -92.95 -133.1 -94.55 -130.85 -94.55 L-4.5 -94.55 Q-2.3 -94.55 -0.35 -93.1 L0.05 -92.8" fill="#000000" fill-rule="evenodd" stroke="none" />
    </g>
  </defs>
  <g transform="matrix(1.0, 0.0, 0.0, 1.0, 0.0, 0.0)">
    <use height="185.1" id="fill" transform="matrix(-0.3387, 0.0, 0.0, 0.5312, 99.3882, 1.0385)" width="291.35" xlink:href="#sprite0" />
    <use height="188.35" transform="matrix(-0.3387, 0.0, 0.0, 0.5312, 100.0657, -0.0239)" width="295.35" xlink:href="#sprite1" />
  </g>
</svg>