<?xml version="1.0" encoding="UTF-8" standalone="no"?>
<svg xmlns:xlink="http://www.w3.org/1999/xlink" height="100%" width="100%" xmlns="http://www.w3.org/2000/svg" preserveAspectRatio="none" viewBox="0 0 100 100">
  <defs>
    <g id="sprite0" transform="matrix(1.0, 0.0, 0.0, 1.0, 48.5, 17.8)">
      <use height="35.55" transform="matrix(1.0, 0.0, 0.0, 1.0, -48.5, -17.8)" width="98.0" xlink:href="#shape0" />
    </g>
    <g id="shape0" transform="matrix(1.0, 0.0, 0.0, 1.0, 48.5, 17.8)">
      <path d="M48.75 -17.05 Q49.5 -16.3 49.5 -15.2 L49.5 15.15 Q49.5 16.2 48.75 16.95 47.95 17.75 46.9 17.75 L-45.95 17.75 Q-47.0 17.75 -47.75 16.95 -48.5 16.2 -48.5 15.15 L-48.5 -15.2 Q-48.5 -16.3 -47.75 -17.05 -47.0 -17.8 -45.95 -17.8 L46.9 -17.8 Q47.95 -17.8 48.75 -17.05" fill="#ffffff" fill-rule="evenodd" stroke="none" class="fill" />
    </g>
    <g id="sprite1" transform="matrix(1.0, 0.0, 0.0, 1.0, 49.0, 18.3)">
      <use height="36.55" transform="matrix(1.0, 0.0, 0.0, 1.0, -49.0, -18.3)" width="99.0" xlink:href="#shape1" />
    </g>
    <g id="shape1" transform="matrix(1.0, 0.0, 0.0, 1.0, 49.0, 18.3)">
      <path d="M33.55 -15.2 Q33.55 -16.25 32.5 -16.25 L-31.95 -16.25 Q-33.0 -16.25 -33.0 -15.2 L-33.0 15.15 Q-33.0 16.2 -31.95 16.2 L32.5 16.2 Q33.55 16.2 33.55 15.15 L33.55 -15.2 M34.25 -16.25 L34.55 -15.2 34.55 15.15 34.25 16.2 46.9 16.2 Q47.95 16.2 47.95 15.15 L47.95 -15.2 Q47.95 -16.25 46.9 -16.25 L34.25 -16.25 M50.0 -15.2 L50.0 15.15 Q50.0 16.4 49.1 17.35 48.2 18.25 46.9 18.25 L-45.95 18.25 Q-47.2 18.25 -48.1 17.35 -49.0 16.45 -49.0 15.15 L-49.0 -15.2 Q-49.0 -16.5 -48.1 -17.4 -47.2 -18.3 -45.95 -18.3 L46.9 -18.3 Q48.2 -18.3 49.1 -17.4 50.0 -16.5 50.0 -15.2 M-45.95 -16.25 Q-46.95 -16.25 -46.95 -15.2 L-46.95 15.15 Q-46.95 16.2 -45.95 16.2 L-33.7 16.2 -34.0 15.15 -34.0 -15.2 -33.7 -16.25 -45.95 -16.25" fill="#000000" fill-rule="evenodd" stroke="none" />
    </g>
  </defs>
  <g transform="matrix(1.0, 0.0, 0.0, 1.0, 0.0, 0.0)">
    <use height="35.55" id="fill" transform="matrix(1.0101, 0.0, 0.0, 2.7346, 0.5101, 1.4241)" width="98.0" xlink:href="#sprite0" />
    <use height="36.55" transform="matrix(1.0101, 0.0, 0.0, 2.7346, 0.005, 0.0567)" width="99.0" xlink:href="#sprite1" />
  </g>
</svg>