<?xml version="1.0" encoding="UTF-8" standalone="no"?>
<svg xmlns:xlink="http://www.w3.org/1999/xlink" height="100%" width="100%" xmlns="http://www.w3.org/2000/svg" preserveAspectRatio="none" viewBox="0 0 100 100">
  <defs>
    <g id="sprite0" transform="matrix(1.0, 0.0, 0.0, 1.0, 84.55, 75.0)">
      <use height="150.05" transform="matrix(1.0, 0.0, 0.0, 1.0, -84.55, -75.0)" width="169.15" xlink:href="#shape0" />
    </g>
    <g id="shape0" transform="matrix(1.0, 0.0, 0.0, 1.0, 84.55, 75.0)">
      <path d="M68.55 -25.45 L75.05 49.1 75.8 57.2 Q76.0 62.2 74.95 65.65 72.1 75.05 59.65 75.05 L-59.8 75.05 Q-71.5 75.05 -74.5 66.5 -75.7 63.15 -75.75 58.1 L-75.25 49.1 -68.6 -25.45 Q-70.25 -25.55 -71.3 -26.3 -79.6 -32.0 -82.55 -39.8 -84.55 -45.0 -84.55 -53.1 -84.55 -56.9 -82.9 -59.5 -80.3 -63.65 -73.2 -66.7 -53.6 -75.0 -0.2 -75.0 53.25 -75.0 73.0 -66.7 80.25 -63.65 82.9 -59.5 84.6 -56.85 84.6 -53.1 84.6 -45.0 82.6 -39.8 79.6 -32.0 71.35 -26.3 L70.1 -25.7 68.55 -25.45" fill="#ffffff" fill-rule="evenodd" stroke="none" class="fill" />
    </g>
    <g id="sprite1" transform="matrix(1.0, 0.0, 0.0, 1.0, 86.65, 77.1)">
      <use height="154.3" transform="matrix(1.0, 0.0, 0.0, 1.0, -86.65, -77.1)" width="173.4" xlink:href="#shape1" />
    </g>
    <g id="shape1" transform="matrix(1.0, 0.0, 0.0, 1.0, 86.65, 77.1)">
      <path d="M62.2 -22.3 L65.2 -24.7 62.3 -25.5 47.75 -31.2 Q36.55 -35.65 27.05 -37.85 13.55 -41.1 -0.2 -41.1 -13.95 -41.1 -27.35 -37.85 -36.85 -35.65 -47.85 -31.2 L-62.35 -25.5 -62.3 -25.5 -65.2 -24.7 -62.15 -22.3 Q-60.0 -20.95 -55.65 -22.3 L-43.75 -27.0 Q-22.4 -35.55 -0.2 -35.55 21.95 -35.55 43.6 -27.0 L55.55 -22.3 Q60.0 -20.95 62.2 -22.3 M72.55 -24.55 Q71.8 -24.0 70.85 -23.7 L77.2 48.95 77.15 48.85 77.95 57.15 Q78.15 62.55 77.0 66.3 73.85 77.2 59.65 77.2 L-59.8 77.2 Q-73.2 77.15 -76.5 67.2 L-76.5 67.25 Q-77.8 63.6 -77.85 58.15 L-77.85 58.1 Q-77.9 55.2 -77.35 48.95 L-77.35 48.9 -70.9 -23.7 Q-71.8 -24.05 -72.5 -24.55 -81.4 -30.65 -84.55 -39.05 L-84.5 -39.0 Q-86.65 -44.55 -86.65 -53.1 -86.7 -57.6 -84.7 -60.65 L-84.7 -60.6 Q-81.9 -65.3 -74.05 -68.65 L-74.0 -68.65 Q-54.2 -77.1 -0.2 -77.1 53.85 -77.1 73.85 -68.65 81.85 -65.3 84.7 -60.65 86.75 -57.55 86.75 -53.1 86.7 -44.55 84.6 -39.0 81.4 -30.65 72.55 -24.55 M54.95 -20.4 L55.0 -20.4 42.85 -25.15 Q21.55 -33.55 -0.2 -33.55 -22.0 -33.55 -43.0 -25.15 L-55.0 -20.4 -55.05 -20.4 Q-60.6 -18.65 -63.3 -20.65 -65.85 -22.4 -67.6 -24.3 L-74.2 49.2 -74.7 58.1 Q-74.65 62.95 -73.5 66.15 -70.65 74.0 -59.8 74.0 L59.65 74.0 Q71.25 74.0 73.95 65.35 74.95 62.05 74.75 57.25 L74.0 49.25 74.0 49.2 67.6 -24.25 Q65.8 -22.4 63.35 -20.65 60.6 -18.65 54.95 -20.4 M70.8 -27.15 L70.75 -27.15 Q78.7 -32.65 81.65 -40.15 83.55 -45.25 83.55 -53.1 83.55 -56.5 82.05 -58.9 79.5 -62.85 72.6 -65.7 52.95 -73.95 -0.2 -73.95 -53.3 -73.95 -72.8 -65.7 L-72.75 -65.7 Q-79.5 -62.85 -82.0 -58.95 L-82.0 -58.9 Q-83.5 -56.55 -83.5 -53.1 -83.5 -45.25 -81.55 -40.15 -78.7 -32.65 -70.7 -27.15 -69.35 -26.35 -66.95 -26.6 -65.25 -26.75 -62.95 -27.5 L-48.65 -33.15 Q-37.45 -37.65 -27.85 -39.9 -14.25 -43.2 -0.2 -43.2 13.85 -43.2 27.55 -39.9 37.15 -37.65 48.5 -33.15 L62.95 -27.5 66.95 -26.6 Q69.4 -26.35 70.8 -27.15" fill="#000000" fill-rule="evenodd" stroke="none" />
    </g>
  </defs>
  <g transform="matrix(1.0, 0.0, 0.0, 1.0, 0.0, 0.0)">
    <use height="150.05" id="fill" transform="matrix(0.5767, 0.0, 0.0, 0.6481, 1.1895, 1.3435)" width="169.15" xlink:href="#sprite0" />
    <use height="154.3" transform="matrix(0.5767, 0.0, 0.0, 0.6481, -0.0216, -0.0175)" width="173.4" xlink:href="#sprite1" />
  </g>
</svg>