<?xml version="1.0" encoding="UTF-8" standalone="no"?>
<svg xmlns:xlink="http://www.w3.org/1999/xlink" height="100%" width="100%" xmlns="http://www.w3.org/2000/svg" preserveAspectRatio="none" viewBox="0 0 100 100">
  <defs>
    <g id="sprite0" transform="matrix(1.0, 0.0, 0.0, 1.0, 67.4, 128.75)">
      <use height="242.75" transform="matrix(1.0, 0.0, 0.0, 1.0, -67.4, -128.75)" width="134.85" xlink:href="#shape0" />
    </g>
    <g id="shape0" transform="matrix(1.0, 0.0, 0.0, 1.0, 67.4, 128.75)">
      <path d="M55.75 -126.1 Q58.35 -123.45 58.35 -119.75 L53.35 -92.75 53.35 -92.5 52.7 -89.15 Q51.75 -86.95 49.6 -85.35 L48.4 -76.65 49.95 -77.05 53.1 -77.45 Q55.75 -77.8 57.85 -76.3 59.95 -74.8 60.25 -72.35 L67.4 -20.2 Q67.75 -17.75 66.1 -15.8 64.5 -13.85 61.85 -13.5 L58.7 -13.1 55.45 -13.45 55.15 -13.6 54.3 -14.05 56.6 7.85 Q56.85 10.3 55.25 12.55 53.6 14.8 51.05 15.5 L6.6 16.75 Q0.2 17.4 -6.2 16.75 L-51.0 15.45 Q-53.55 14.75 -55.2 12.55 -56.8 10.3 -56.6 7.85 L-54.3 -13.75 -55.25 -13.4 -56.2 -13.15 -57.9 -13.15 -61.55 -13.5 Q-64.2 -13.75 -65.9 -15.65 -67.6 -17.55 -67.4 -20.0 L-62.05 -74.5 Q-61.8 -76.95 -59.75 -78.5 -57.75 -80.1 -55.1 -79.85 L-51.4 -79.5 -49.3 -78.95 -49.85 -84.95 Q-53.4 -87.05 -54.1 -90.75 L-54.3 -92.5 -54.3 -92.6 -54.3 -92.75 -58.3 -119.75 Q-58.3 -123.45 -55.65 -126.1 -53.05 -128.75 -49.3 -128.75 L49.35 -128.75 Q53.1 -128.75 55.75 -126.1 M48.35 58.0 L53.35 105.0 Q53.35 108.7 50.75 111.35 48.1 114.0 44.35 114.0 L-43.3 114.0 Q-47.05 114.0 -49.65 111.35 -52.3 108.7 -52.3 105.0 L-48.3 58.0 Q-48.3 54.25 -45.65 51.6 -43.05 49.0 -39.3 49.0 L39.35 49.0 Q43.1 49.0 45.75 51.6 48.35 54.25 48.35 58.0" fill="#ffffff" fill-rule="evenodd" stroke="none" class="fill" />
    </g>
    <g id="sprite1" transform="matrix(1.0, 0.0, 0.0, 1.0, 70.45, 131.3)">
      <use height="261.6" transform="matrix(1.0, 0.0, 0.0, 1.0, -70.45, -131.3)" width="140.95" xlink:href="#shape1" />
    </g>
    <g id="shape1" transform="matrix(1.0, 0.0, 0.0, 1.0, 70.45, 131.3)">
      <path d="M-50.3 105.65 Q-50.25 108.4 -48.2 110.4 -46.2 112.45 -43.3 112.45 L44.35 112.45 Q47.25 112.45 49.35 110.4 51.3 108.4 51.35 105.65 L48.8 81.4 -48.25 81.4 -50.3 105.65 M-27.35 116.45 Q-22.55 120.35 -16.75 122.8 -8.55 126.3 0.5 126.3 9.55 126.3 17.8 122.8 23.6 120.35 28.4 116.45 L-27.35 116.45 M-44.2 53.5 Q-46.3 55.55 -46.3 58.45 L-46.3 58.65 -48.05 79.4 48.55 79.4 46.35 58.65 46.35 58.45 Q46.35 55.55 44.35 53.5 L44.35 53.45 Q42.25 51.45 39.35 51.45 L-39.3 51.45 Q-42.2 51.45 -44.2 53.5 M-39.3 47.45 L-33.4 47.45 Q-26.8 40.95 -18.3 37.4 -9.35 33.6 0.5 33.6 10.35 33.6 19.35 37.4 27.85 40.95 34.45 47.45 L39.35 47.45 Q43.9 47.45 47.15 50.65 L47.2 50.65 Q50.3 53.8 50.35 58.25 L55.35 105.25 55.35 105.45 Q55.35 109.95 52.2 113.2 L52.2 113.25 Q48.95 116.45 44.35 116.45 L34.4 116.45 Q27.8 122.95 19.35 126.5 10.35 130.3 0.5 130.3 -9.35 130.3 -18.3 126.5 -26.75 122.95 -33.3 116.45 L-43.3 116.45 Q-47.9 116.45 -51.05 113.2 L-51.05 113.25 Q-54.3 110.0 -54.3 105.45 L-54.3 105.3 -50.3 58.3 Q-50.25 53.8 -47.05 50.65 -43.9 47.45 -39.3 47.45 M-16.75 41.1 Q-22.55 43.55 -27.35 47.45 L28.4 47.45 Q23.6 43.55 17.8 41.1 9.55 37.6 0.5 37.6 -8.55 37.6 -16.75 41.1 M-59.1 -77.25 L-59.15 -77.25 Q-60.85 -75.95 -61.05 -73.95 L-66.4 -19.45 Q-66.55 -17.45 -65.15 -15.85 -63.7 -14.25 -61.45 -14.05 L-57.8 -13.7 Q-55.55 -13.5 -53.8 -14.8 L-53.05 -15.5 Q-52.05 -16.6 -51.9 -18.15 L-46.6 -72.65 Q-46.4 -74.65 -47.8 -76.2 L-48.05 -76.5 Q-49.45 -77.85 -51.5 -78.05 L-55.2 -78.4 Q-57.45 -78.6 -59.1 -77.25 M45.2 -56.3 Q44.2 -55.65 41.1 -55.2 L34.9 -54.75 -35.9 -54.75 Q-42.65 -54.75 -44.8 -55.5 -45.45 -55.65 -46.1 -56.65 L-49.9 -17.95 Q-50.2 -15.1 -52.55 -13.2 L-52.6 -13.2 -53.35 -12.65 -55.6 8.4 Q-55.75 10.5 -54.4 12.4 L-54.35 12.45 Q-52.95 14.3 -50.8 14.9 L-6.15 16.2 -6.1 16.2 Q0.2 16.85 6.5 16.2 L6.6 16.2 50.85 14.95 Q53.0 14.35 54.45 12.45 55.8 10.5 55.6 8.4 L53.35 -13.05 Q50.9 -14.8 50.5 -17.65 L45.2 -56.3 M50.1 -75.6 Q48.35 -75.35 47.15 -74.3 L46.45 -73.65 Q45.05 -72.05 45.35 -70.05 L45.35 -70.0 52.5 -17.95 52.5 -17.9 Q52.6 -17.1 53.0 -16.4 53.5 -15.4 54.55 -14.65 56.3 -13.4 58.6 -13.65 L61.75 -14.05 Q63.95 -14.35 65.35 -15.95 L65.35 -16.0 Q66.7 -17.6 66.4 -19.6 L59.25 -71.75 Q59.0 -73.8 57.3 -75.0 55.5 -76.3 53.25 -76.0 L50.1 -75.6 M44.9 -74.95 Q46.0 -76.25 47.5 -76.9 L48.35 -83.05 Q46.5 -82.3 44.35 -82.3 L-45.3 -82.3 Q-47.15 -82.3 -48.75 -82.85 L-48.35 -79.2 -46.3 -77.55 Q-44.3 -75.35 -44.6 -72.45 L-45.7 -60.7 -45.65 -60.55 -45.45 -59.95 Q-44.65 -57.75 -44.15 -57.4 L-35.9 -56.75 34.9 -56.75 40.8 -57.2 Q43.55 -57.6 44.0 -57.9 L44.0 -57.95 44.75 -59.65 43.35 -69.75 Q42.95 -72.65 44.9 -74.95 M52.35 -92.3 L52.4 -92.45 55.5 -109.25 -55.75 -109.25 -53.3 -92.45 -53.3 -92.3 Q-53.3 -89.0 -50.95 -86.65 L-50.9 -86.65 Q-50.0 -85.75 -48.95 -85.15 -47.3 -84.3 -45.3 -84.3 L44.35 -84.3 Q46.75 -84.3 48.65 -85.5 49.4 -86.0 50.05 -86.65 52.35 -88.95 52.35 -92.3 M55.85 -111.25 L57.35 -119.35 Q57.35 -122.6 55.05 -124.95 52.7 -127.3 49.35 -127.3 L-49.3 -127.3 Q-52.6 -127.3 -54.9 -124.95 L-54.95 -124.95 Q-57.25 -122.65 -57.3 -119.45 L-56.05 -111.25 55.85 -111.25 M49.35 -131.3 Q54.35 -131.3 57.9 -127.75 61.35 -124.2 61.35 -119.3 L61.3 -118.75 56.35 -92.0 Q56.25 -86.7 52.35 -83.3 L51.9 -79.85 52.7 -79.95 52.75 -79.95 Q56.55 -80.45 59.6 -78.3 62.8 -76.0 63.25 -72.3 L63.25 -72.25 70.4 -20.15 Q70.9 -16.4 68.4 -13.4 L68.45 -13.45 Q66.1 -10.6 62.25 -10.05 L59.1 -9.65 59.0 -9.65 57.75 -9.6 59.6 8.0 Q60.0 11.5 57.7 14.75 L57.7 14.8 Q55.4 17.9 51.85 18.85 L51.15 18.95 6.7 20.2 Q0.2 20.85 -6.25 20.2 L-51.05 18.9 -51.8 18.8 Q-55.3 17.85 -57.6 14.8 L-57.65 14.75 Q-59.9 11.55 -59.6 8.05 L-59.55 8.0 -57.7 -9.65 -58.2 -9.7 -58.15 -9.7 -61.8 -10.05 Q-65.65 -10.45 -68.1 -13.2 -70.7 -16.1 -70.4 -19.8 L-70.35 -19.85 -65.0 -74.35 Q-64.65 -78.05 -61.6 -80.4 -58.7 -82.75 -54.8 -82.35 L-54.75 -82.35 -51.7 -82.1 -52.65 -82.75 Q-57.2 -86.1 -57.3 -92.0 L-61.25 -118.85 -61.3 -119.3 Q-61.3 -124.2 -57.8 -127.75 L-57.75 -127.75 Q-54.3 -131.3 -49.3 -131.3 L49.35 -131.3" fill="#000000" fill-rule="evenodd" stroke="none" />
    </g>
  </defs>
  <g transform="matrix(1.0, 0.0, 0.0, 1.0, 0.0, 0.0)">
    <use height="242.75" id="fill" transform="matrix(0.7098, 0.0, 0.0, 0.3823, 2.1579, 1.0336)" width="134.85" xlink:href="#sprite0" />
    <use height="261.6" transform="matrix(0.7098, 0.0, 0.0, 0.3823, -0.0071, 0.0088)" width="140.95" xlink:href="#sprite1" />
  </g>
</svg>