<?xml version="1.0" encoding="UTF-8" standalone="no"?>
<svg xmlns:xlink="http://www.w3.org/1999/xlink" height="100%" width="100%" xmlns="http://www.w3.org/2000/svg" preserveAspectRatio="none" viewBox="0 0 100 100">
  <defs>
    <g id="sprite0" transform="matrix(1.0, 0.0, 0.0, 1.0, 48.3, 48.8)">
      <use height="97.55" transform="matrix(1.0, 0.0, 0.0, 1.0, -48.3, -48.8)" width="97.65" xlink:href="#shape0" />
    </g>
    <g id="shape0" transform="matrix(1.0, 0.0, 0.0, 1.0, 48.3, 48.8)">
      <path d="M36.95 -48.05 L37.35 -47.55 37.75 -48.05 Q38.35 -48.8 39.2 -48.8 40.15 -48.8 40.65 -48.05 L41.05 -47.55 41.45 -48.05 Q42.05 -48.8 42.9 -48.8 44.3 -48.8 44.65 -47.4 L45.65 -47.55 45.8 -47.65 46.6 -47.85 Q47.35 -47.85 47.9 -47.35 48.4 -46.8 48.4 -46.05 L47.95 -44.9 47.45 -44.35 48.15 -44.1 Q49.35 -43.65 49.35 -42.4 49.35 -41.45 48.65 -41.0 L48.1 -40.6 48.65 -40.2 Q49.35 -39.65 49.35 -38.75 49.35 -37.85 48.65 -37.3 L48.1 -36.9 48.65 -36.5 Q49.35 -35.95 49.35 -35.05 49.35 -34.15 48.65 -33.6 L48.1 -33.25 48.65 -32.8 Q49.35 -32.25 49.35 -31.35 49.35 -30.4 48.65 -29.95 L48.1 -29.55 48.65 -29.15 Q49.35 -28.6 49.35 -27.7 49.35 -26.7 48.65 -26.25 L48.1 -25.85 48.65 -25.45 Q49.35 -24.9 49.35 -24.0 49.35 -23.1 48.65 -22.55 L48.1 -22.15 48.65 -21.75 Q49.35 -21.2 49.35 -20.3 49.35 -19.4 48.65 -18.85 L48.1 -18.5 48.65 -18.1 Q49.35 -17.55 49.35 -16.6 49.35 -15.65 48.65 -15.2 L48.1 -14.8 48.65 -14.4 Q49.35 -13.85 49.35 -12.95 49.35 -12.05 48.65 -11.5 L48.1 -11.1 48.65 -10.7 Q49.35 -10.15 49.35 -9.25 49.35 -8.35 48.65 -7.8 L48.1 -7.4 48.65 -7.0 Q49.35 -6.45 49.35 -5.55 49.35 -4.6 48.65 -4.15 L48.1 -3.75 48.65 -3.35 Q49.35 -2.8 49.35 -1.85 49.35 -0.9 48.65 -0.45 L48.1 -0.05 48.65 0.35 Q49.35 0.9 49.35 1.8 49.35 2.7 48.65 3.25 L48.1 3.65 48.65 4.05 Q49.35 4.6 49.35 5.5 49.35 6.4 48.65 6.95 L48.1 7.3 48.65 7.7 Q49.35 8.3 49.35 9.2 49.35 10.15 48.65 10.6 L48.1 11.0 48.65 11.4 Q49.35 11.95 49.35 12.85 49.35 13.85 48.65 14.3 L48.1 14.7 48.65 15.1 Q49.35 15.65 49.35 16.55 49.35 17.45 48.65 18.0 L48.1 18.4 48.65 18.8 Q49.35 19.35 49.35 20.25 49.35 21.15 48.65 21.7 L48.1 22.05 48.65 22.45 Q49.35 23.0 49.35 23.95 49.35 24.9 48.65 25.35 L48.1 25.75 48.65 26.15 Q49.35 26.7 49.35 27.6 49.35 28.5 48.65 29.05 L48.1 29.45 48.65 29.85 Q49.35 30.4 49.35 31.3 49.35 32.2 48.65 32.75 L48.1 33.15 48.65 33.55 Q49.35 34.1 49.35 35.0 49.35 35.95 48.65 36.4 L48.1 36.8 48.65 37.2 Q49.35 37.75 49.35 38.7 49.35 39.65 48.65 40.1 L48.1 40.5 48.65 40.9 Q49.35 41.45 49.35 42.35 49.35 43.75 48.0 44.1 L47.1 44.35 47.8 44.95 Q48.4 45.55 48.4 46.3 48.4 47.0 47.9 47.55 47.35 48.05 46.6 48.05 45.85 48.05 45.35 47.55 L44.85 47.05 44.55 47.7 Q44.05 48.75 42.9 48.75 42.0 48.75 41.5 48.0 L41.1 47.5 40.7 48.0 Q40.1 48.75 39.2 48.75 38.3 48.75 37.8 48.0 L37.4 47.5 37.0 48.0 Q36.4 48.75 35.55 48.75 34.7 48.75 34.1 48.0 L33.7 47.5 33.3 48.0 Q32.7 48.75 31.85 48.75 31.0 48.75 30.4 48.0 L30.05 47.5 29.65 48.0 Q29.05 48.75 28.15 48.75 27.25 48.75 26.75 48.0 L26.35 47.5 25.95 48.0 Q25.35 48.75 24.5 48.75 23.65 48.75 23.05 48.0 L22.65 47.5 22.25 48.0 Q21.65 48.75 20.8 48.75 19.95 48.75 19.35 48.0 L18.95 47.5 18.55 48.0 Q17.95 48.75 17.1 48.75 16.2 48.75 15.7 48.0 L15.3 47.5 14.9 48.0 Q14.3 48.75 13.4 48.75 12.5 48.75 12.0 48.0 L11.6 47.5 11.2 48.0 Q10.6 48.75 9.75 48.75 8.9 48.75 8.3 48.0 L7.9 47.5 7.5 48.0 Q6.9 48.75 6.05 48.75 5.2 48.75 4.6 48.0 L4.25 47.5 3.85 48.0 Q3.2 48.75 2.35 48.75 1.45 48.75 0.95 48.0 L0.55 47.5 0.15 48.0 Q-0.45 48.75 -1.3 48.75 -2.25 48.75 -2.75 48.0 L-3.15 47.5 -3.55 48.0 Q-4.15 48.75 -5.0 48.75 -5.85 48.75 -6.45 48.0 L-6.85 47.5 -7.25 48.0 Q-7.85 48.75 -8.7 48.75 -9.55 48.75 -10.15 48.0 L-10.5 47.5 -10.9 48.0 Q-11.5 48.75 -12.4 48.75 -13.3 48.75 -13.8 48.0 L-14.2 47.5 -14.6 48.0 Q-15.2 48.75 -16.05 48.75 -16.9 48.75 -17.5 48.0 L-17.9 47.5 -18.3 48.0 Q-18.9 48.75 -19.75 48.75 -20.6 48.75 -21.2 48.0 L-21.6 47.5 -22.0 48.0 Q-22.6 48.75 -23.45 48.75 -24.35 48.75 -24.85 48.0 L-25.25 47.5 -25.65 48.0 Q-26.25 48.75 -27.15 48.75 -28.05 48.75 -28.55 48.0 L-28.95 47.5 -29.35 48.0 Q-29.95 48.75 -30.8 48.75 -31.65 48.75 -32.25 48.0 L-32.65 47.5 -33.05 48.0 Q-33.65 48.75 -34.5 48.75 -35.35 48.75 -35.95 48.0 L-36.3 47.5 -36.7 48.0 Q-37.35 48.75 -38.2 48.75 -39.1 48.75 -39.6 48.0 L-40.0 47.5 -40.4 48.0 Q-41.0 48.75 -41.85 48.75 -42.95 48.75 -43.5 47.7 L-43.8 47.05 -44.3 47.55 Q-44.8 48.05 -45.55 48.05 -46.3 48.05 -46.8 47.55 -47.35 47.0 -47.35 46.3 -47.35 45.45 -46.75 44.95 L-46.05 44.3 -46.95 44.1 Q-48.3 43.75 -48.3 42.35 -48.3 41.4 -47.6 40.95 L-47.05 40.55 -47.6 40.15 Q-48.3 39.55 -48.3 38.7 -48.3 37.7 -47.6 37.25 L-47.05 36.85 -47.6 36.45 Q-48.3 35.85 -48.3 35.0 -48.3 34.1 -47.6 33.55 L-47.05 33.15 -47.6 32.75 Q-48.3 32.15 -48.3 31.3 -48.3 30.4 -47.6 29.85 L-47.05 29.5 -47.6 29.1 Q-48.3 28.5 -48.3 27.6 -48.3 26.65 -47.6 26.2 L-47.05 25.8 -47.6 25.4 Q-48.3 24.8 -48.3 23.95 -48.3 23.05 -47.6 22.5 L-47.05 22.1 -47.6 21.7 Q-48.3 21.1 -48.3 20.25 -48.3 19.35 -47.6 18.8 L-47.05 18.4 -47.6 18.0 Q-48.3 17.4 -48.3 16.55 -48.3 15.6 -47.6 15.15 L-47.05 14.75 -47.6 14.35 Q-48.3 13.75 -48.3 12.85 -48.3 11.9 -47.6 11.45 L-47.05 11.05 -47.6 10.65 Q-48.3 10.05 -48.3 9.2 -48.3 8.3 -47.6 7.75 L-47.05 7.35 -47.6 6.95 Q-48.3 6.35 -48.3 5.5 -48.3 4.6 -47.6 4.05 L-47.05 3.7 -47.6 3.3 Q-48.3 2.7 -48.3 1.8 -48.3 0.85 -47.6 0.4 L-47.05 0.0 -47.6 -0.4 Q-48.3 -1.0 -48.3 -1.85 -48.3 -2.85 -47.6 -3.3 L-47.05 -3.7 -47.6 -4.1 Q-48.3 -4.7 -48.3 -5.55 -48.3 -6.45 -47.6 -7.0 L-47.05 -7.4 -47.6 -7.8 Q-48.3 -8.4 -48.3 -9.25 -48.3 -10.15 -47.6 -10.7 L-47.05 -11.05 -47.6 -11.45 Q-48.3 -12.05 -48.3 -12.95 -48.3 -13.9 -47.6 -14.35 L-47.05 -14.75 -47.6 -15.15 Q-48.3 -15.75 -48.3 -16.6 -48.3 -17.5 -47.6 -18.05 L-47.05 -18.45 -47.6 -18.85 Q-48.3 -19.45 -48.3 -20.3 -48.3 -21.2 -47.6 -21.75 L-47.05 -22.15 -47.6 -22.55 Q-48.3 -23.15 -48.3 -24.0 -48.3 -24.95 -47.6 -25.4 L-47.05 -25.8 -47.6 -26.2 Q-48.3 -26.8 -48.3 -27.7 -48.3 -28.65 -47.6 -29.1 L-47.05 -29.5 -47.6 -29.9 Q-48.3 -30.5 -48.3 -31.35 -48.3 -32.25 -47.6 -32.8 L-47.05 -33.2 -47.6 -33.6 Q-48.3 -34.2 -48.3 -35.05 -48.3 -35.9 -47.6 -36.5 L-47.05 -36.9 -47.6 -37.3 Q-48.3 -37.85 -48.3 -38.75 -48.3 -39.7 -47.6 -40.15 L-47.05 -40.55 -47.6 -40.95 Q-48.3 -41.55 -48.3 -42.4 -48.3 -43.8 -46.95 -44.15 L-47.05 -45.15 -47.2 -45.35 -47.35 -46.05 Q-47.35 -46.8 -46.8 -47.35 -46.3 -47.85 -45.55 -47.85 -44.6 -47.85 -44.15 -47.15 L-43.3 -47.7 -43.1 -48.35 Q-42.65 -48.8 -41.85 -48.8 -40.95 -48.8 -40.45 -48.05 L-40.05 -47.55 -39.65 -48.05 Q-39.05 -48.8 -38.2 -48.8 -37.35 -48.8 -36.75 -48.05 L-36.35 -47.55 -35.95 -48.05 Q-35.35 -48.8 -34.5 -48.8 -33.65 -48.8 -33.05 -48.05 L-32.7 -47.55 -32.3 -48.05 Q-31.7 -48.8 -30.8 -48.8 -29.9 -48.8 -29.4 -48.05 L-29.0 -47.55 -28.6 -48.05 Q-28.0 -48.8 -27.15 -48.8 -26.2 -48.8 -25.7 -48.05 L-25.3 -47.55 -24.9 -48.05 Q-24.3 -48.8 -23.45 -48.8 -22.6 -48.8 -22.0 -48.05 L-21.6 -47.55 -21.2 -48.05 Q-20.6 -48.8 -19.75 -48.8 -18.9 -48.8 -18.3 -48.05 L-17.95 -47.55 -17.55 -48.05 Q-16.95 -48.8 -16.05 -48.8 -15.15 -48.8 -14.65 -48.05 L-14.25 -47.55 -13.85 -48.05 Q-13.25 -48.8 -12.4 -48.8 -11.55 -48.8 -10.95 -48.05 L-10.55 -47.55 -10.15 -48.05 Q-9.55 -48.8 -8.7 -48.8 -7.85 -48.8 -7.25 -48.05 L-6.9 -47.55 -6.45 -48.05 Q-5.85 -48.8 -5.0 -48.8 -4.1 -48.8 -3.6 -48.05 L-3.2 -47.55 -2.8 -48.05 Q-2.2 -48.8 -1.3 -48.8 -0.4 -48.8 0.1 -48.05 L0.5 -47.55 0.9 -48.05 Q1.5 -48.8 2.35 -48.8 3.2 -48.8 3.8 -48.05 L4.2 -47.55 4.6 -48.05 Q5.2 -48.8 6.05 -48.8 6.9 -48.8 7.5 -48.05 L7.85 -47.55 8.25 -48.05 Q8.85 -48.8 9.75 -48.8 10.65 -48.8 11.15 -48.05 L11.55 -47.55 11.95 -48.05 Q12.55 -48.8 13.4 -48.8 14.25 -48.8 14.85 -48.05 L15.25 -47.55 15.65 -48.05 Q16.25 -48.8 17.1 -48.8 17.95 -48.8 18.55 -48.05 L18.95 -47.55 19.35 -48.05 Q19.95 -48.8 20.8 -48.8 21.7 -48.8 22.2 -48.05 L22.6 -47.55 23.0 -48.05 Q23.6 -48.8 24.5 -48.8 25.4 -48.8 25.9 -48.05 L26.3 -47.55 26.7 -48.05 Q27.3 -48.8 28.15 -48.8 29.0 -48.8 29.6 -48.05 L30.0 -47.55 30.4 -48.05 Q31.0 -48.8 31.85 -48.8 32.7 -48.8 33.3 -48.05 L33.65 -47.55 34.05 -48.05 Q34.7 -48.8 35.55 -48.8 36.45 -48.8 36.95 -48.05" fill="#ffffff" fill-rule="evenodd" stroke="none" class="fill" />
    </g>
    <g id="sprite1" transform="matrix(1.0, 0.0, 0.0, 1.0, 48.8, 49.3)">
      <use height="98.55" transform="matrix(1.0, 0.0, 0.0, 1.0, -48.8, -49.3)" width="98.65" xlink:href="#shape1" />
    </g>
    <g id="shape1" transform="matrix(1.0, 0.0, 0.0, 1.0, 48.8, 49.3)">
      <path d="M37.35 -48.35 Q38.15 -49.3 39.2 -49.3 40.35 -49.3 41.05 -48.35 41.85 -49.3 42.9 -49.3 44.7 -49.3 45.15 -47.55 45.05 -48.35 46.6 -48.35 47.55 -48.35 48.2 -47.7 48.9 -47.0 48.9 -46.05 48.9 -45.2 48.35 -44.55 49.85 -44.05 49.85 -42.4 49.85 -41.25 48.95 -40.6 49.85 -39.85 49.85 -38.75 49.85 -37.55 48.95 -36.9 49.85 -36.15 49.85 -35.05 49.85 -33.95 48.95 -33.2 49.85 -32.55 49.85 -31.35 49.85 -30.2 48.95 -29.55 49.85 -28.8 49.85 -27.7 49.85 -26.5 48.95 -25.85 49.85 -25.1 49.85 -24.0 49.85 -22.9 48.95 -22.15 49.85 -21.4 49.85 -20.3 49.85 -19.2 48.95 -18.45 49.85 -17.8 49.85 -16.6 49.85 -15.45 48.95 -14.8 49.85 -14.05 49.85 -12.95 49.85 -11.75 48.95 -11.1 49.85 -10.35 49.85 -9.25 49.85 -8.15 48.95 -7.4 49.85 -6.75 49.85 -5.55 49.85 -4.4 48.95 -3.75 49.85 -3.0 49.85 -1.85 49.85 -0.7 48.95 -0.05 49.85 0.7 49.85 1.8 49.85 3.0 48.95 3.65 49.85 4.4 49.85 5.5 49.85 6.6 48.95 7.35 49.85 8.0 49.85 9.2 49.85 10.35 48.95 11.0 49.85 11.75 49.85 12.85 49.85 14.05 48.95 14.7 49.85 15.45 49.85 16.55 49.85 17.65 48.95 18.4 49.85 19.15 49.85 20.25 49.85 21.35 48.95 22.1 49.85 22.75 49.85 23.95 49.85 25.1 48.95 25.75 49.85 26.5 49.85 27.6 49.85 28.8 48.95 29.45 49.85 30.2 49.85 31.3 49.85 32.4 48.95 33.15 49.85 33.8 49.85 35.0 49.85 36.15 48.95 36.8 49.85 37.55 49.85 38.7 49.85 39.85 48.95 40.5 49.85 41.25 49.85 42.35 49.85 44.15 48.15 44.6 48.9 45.25 48.9 46.3 48.9 47.25 48.2 47.9 47.55 48.55 46.6 48.55 45.65 48.55 45.0 47.9 44.35 49.25 42.9 49.25 41.8 49.25 41.1 48.3 40.3 49.25 39.2 49.25 38.1 49.25 37.4 48.3 36.6 49.25 35.55 49.25 34.4 49.25 33.7 48.3 32.9 49.25 31.85 49.25 30.8 49.25 30.0 48.3 29.3 49.25 28.15 49.25 27.05 49.25 26.35 48.3 25.55 49.25 24.5 49.25 23.35 49.25 22.65 48.3 21.85 49.25 20.8 49.25 19.75 49.25 18.95 48.3 18.15 49.25 17.1 49.25 16.0 49.25 15.3 48.3 14.5 49.25 13.4 49.25 12.3 49.25 11.6 48.3 10.8 49.25 9.75 49.25 8.6 49.25 7.9 48.3 7.1 49.25 6.05 49.25 5.0 49.25 4.2 48.3 3.5 49.25 2.35 49.25 1.25 49.25 0.55 48.3 -0.25 49.25 -1.3 49.25 -2.45 49.25 -3.15 48.3 -3.95 49.25 -5.0 49.25 -6.05 49.25 -6.85 48.3 -7.65 49.25 -8.7 49.25 -9.75 49.25 -10.55 48.3 -11.25 49.25 -12.4 49.25 -13.5 49.25 -14.2 48.3 -15.0 49.25 -16.05 49.25 -17.2 49.25 -17.9 48.3 -18.7 49.25 -19.75 49.25 -20.8 49.25 -21.6 48.3 -22.3 49.25 -23.45 49.25 -24.55 49.25 -25.25 48.3 -26.05 49.25 -27.15 49.25 -28.25 49.25 -28.95 48.3 -29.75 49.25 -30.8 49.25 -31.95 49.25 -32.65 48.3 -33.45 49.25 -34.5 49.25 -35.55 49.25 -36.35 48.3 -37.05 49.25 -38.2 49.25 -39.3 49.25 -40.0 48.3 -40.8 49.25 -41.85 49.25 -43.35 49.25 -43.95 47.9 -44.6 48.55 -45.55 48.55 -46.5 48.55 -47.15 47.9 -47.85 47.25 -47.85 46.3 -47.85 45.3 -47.1 44.55 -48.8 44.1 -48.8 42.35 -48.8 41.2 -47.9 40.55 -48.8 39.8 -48.8 38.7 -48.8 37.5 -47.9 36.85 -48.8 36.1 -48.8 35.0 -48.8 33.9 -47.9 33.15 -48.8 32.4 -48.8 31.3 -48.8 30.2 -47.9 29.45 -48.8 28.8 -48.8 27.6 -48.8 26.45 -47.9 25.8 -48.8 25.05 -48.8 23.95 -48.8 22.75 -47.9 22.1 -48.8 21.35 -48.8 20.25 -48.8 19.15 -47.9 18.4 -48.8 17.75 -48.8 16.55 -48.8 15.4 -47.9 14.75 -48.8 14.0 -48.8 12.85 -48.8 11.7 -47.9 11.05 -48.8 10.3 -48.8 9.2 -48.8 8.0 -47.9 7.35 -48.8 6.6 -48.8 5.5 -48.8 4.4 -47.9 3.65 -48.8 3.0 -48.8 1.8 -48.8 0.65 -47.9 0.0 -48.8 -0.75 -48.8 -1.85 -48.8 -3.05 -47.9 -3.7 -48.8 -4.45 -48.8 -5.55 -48.8 -6.65 -47.9 -7.4 -48.8 -8.15 -48.8 -9.25 -48.8 -10.35 -47.9 -11.1 -48.8 -11.75 -48.8 -12.95 -48.8 -14.1 -47.9 -14.75 -48.8 -15.5 -48.8 -16.6 -48.8 -17.8 -47.9 -18.45 -48.8 -19.2 -48.8 -20.3 -48.8 -21.4 -47.9 -22.15 -48.8 -22.8 -48.8 -24.0 -48.8 -25.15 -47.9 -25.8 -48.8 -26.55 -48.8 -27.7 -48.8 -28.85 -47.9 -29.5 -48.8 -30.25 -48.8 -31.35 -48.8 -32.55 -47.9 -33.2 -48.8 -33.95 -48.8 -35.05 -48.8 -36.15 -47.9 -36.9 -48.8 -37.55 -48.8 -38.75 -48.8 -39.9 -47.9 -40.55 -48.8 -41.3 -48.8 -42.4 -48.8 -44.25 -47.1 -44.65 -47.85 -44.75 -47.85 -46.05 -47.85 -47.0 -47.15 -47.7 -46.5 -48.35 -45.55 -48.35 -44.45 -48.35 -43.75 -47.5 -44.05 -48.1 -43.45 -48.7 -42.8 -49.3 -41.85 -49.3 -40.75 -49.3 -40.05 -48.35 -39.25 -49.3 -38.2 -49.3 -37.05 -49.3 -36.35 -48.35 -35.55 -49.3 -34.5 -49.3 -33.45 -49.3 -32.65 -48.35 -31.95 -49.3 -30.8 -49.3 -29.7 -49.3 -29.0 -48.35 -28.2 -49.3 -27.15 -49.3 -26.0 -49.3 -25.3 -48.35 -24.5 -49.3 -23.45 -49.3 -22.4 -49.3 -21.6 -48.35 -20.8 -49.3 -19.75 -49.3 -18.7 -49.3 -17.9 -48.35 -17.2 -49.3 -16.05 -49.3 -14.95 -49.3 -14.25 -48.35 -13.45 -49.3 -12.4 -49.3 -11.25 -49.3 -10.55 -48.35 -9.75 -49.3 -8.7 -49.3 -7.65 -49.3 -6.85 -48.35 -6.15 -49.3 -5.0 -49.3 -3.9 -49.3 -3.2 -48.35 -2.4 -49.3 -1.3 -49.3 -0.2 -49.3 0.5 -48.35 1.3 -49.3 2.35 -49.3 3.5 -49.3 4.2 -48.35 5.0 -49.3 6.05 -49.3 7.1 -49.3 7.9 -48.35 8.6 -49.3 9.75 -49.3 10.85 -49.3 11.55 -48.35 12.35 -49.3 13.4 -49.3 14.55 -49.3 15.25 -48.35 16.05 -49.3 17.1 -49.3 18.15 -49.3 18.95 -48.35 19.75 -49.3 20.8 -49.3 21.9 -49.3 22.6 -48.35 23.4 -49.3 24.5 -49.3 25.6 -49.3 26.3 -48.35 27.1 -49.3 28.15 -49.3 29.3 -49.3 30.0 -48.35 30.8 -49.3 31.85 -49.3 32.9 -49.3 33.7 -48.35 34.4 -49.3 35.55 -49.3 36.65 -49.3 37.35 -48.35 M40.0 -47.05 Q39.9 -47.8 39.2 -47.8 38.45 -47.8 38.45 -47.05 L40.0 -47.05 M35.55 -47.8 Q34.85 -47.8 34.75 -47.05 L36.3 -47.05 Q36.3 -47.8 35.55 -47.8 M31.05 -47.05 L32.65 -47.05 Q32.55 -47.8 31.85 -47.8 31.15 -47.8 31.05 -47.05 M28.95 -47.05 Q28.85 -47.8 28.15 -47.8 27.4 -47.8 27.4 -47.05 L28.95 -47.05 M20.8 -47.8 Q20.1 -47.8 20.0 -47.05 L21.6 -47.05 Q21.5 -47.8 20.8 -47.8 M25.25 -47.05 Q25.25 -47.8 24.5 -47.8 23.8 -47.8 23.7 -47.05 L25.25 -47.05 M17.9 -47.05 Q17.8 -47.8 17.1 -47.8 16.4 -47.8 16.3 -47.05 L17.9 -47.05 M14.2 -47.05 Q14.1 -47.8 13.4 -47.8 12.65 -47.8 12.65 -47.05 L14.2 -47.05 M8.95 -47.05 L10.5 -47.05 Q10.5 -47.8 9.75 -47.8 9.05 -47.8 8.95 -47.05 M5.25 -47.05 L6.85 -47.05 Q6.75 -47.8 6.05 -47.8 5.35 -47.8 5.25 -47.05 M1.6 -47.05 L3.15 -47.05 Q3.05 -47.8 2.35 -47.8 1.6 -47.8 1.6 -47.05 M19.45 -18.95 Q19.75 -17.35 21.15 -16.5 22.5 -15.6 24.1 -15.95 25.7 -16.25 26.6 -17.65 27.45 -19.0 27.15 -20.6 26.8 -22.2 25.45 -23.1 24.05 -24.0 22.45 -23.65 20.85 -23.3 19.95 -21.95 19.1 -20.55 19.45 -18.95 M19.55 -22.2 Q20.6 -23.75 22.4 -24.15 22.35 -28.55 18.65 -32.8 23.0 -28.7 23.8 -24.2 24.9 -24.05 25.7 -23.5 27.2 -22.6 27.6 -20.85 31.5 -21.6 34.85 -24.75 31.55 -20.95 27.7 -19.65 27.7 -18.45 27.0 -17.35 26.2 -16.1 24.65 -15.55 25.85 -13.15 28.75 -11.05 30.2 -10.0 31.3 -9.4 25.7 -11.5 23.15 -15.35 22.0 -15.35 20.85 -16.05 18.95 -17.35 18.85 -19.55 14.85 -19.6 10.9 -17.15 15.0 -20.3 18.95 -20.8 19.1 -21.5 19.55 -22.2 M46.05 -46.65 L47.2 -45.6 Q47.65 -46.1 47.1 -46.65 46.6 -47.1 46.05 -46.65 M42.9 -47.8 Q42.2 -47.8 42.1 -47.05 L43.7 -47.05 Q43.6 -47.8 42.9 -47.8 M45.5 -44.95 Q44.9 -45.55 44.1 -45.55 L-43.05 -45.55 Q-43.85 -45.55 -44.4 -44.95 -45.0 -44.4 -45.0 -43.6 L-45.0 43.55 Q-45.0 44.35 -44.4 44.95 -43.85 45.5 -43.05 45.5 L44.1 45.5 Q44.95 45.5 45.5 44.95 46.05 44.35 46.05 43.55 L46.05 -43.6 Q46.05 -44.4 45.5 -44.95 M47.55 -39.5 L47.55 -37.95 Q48.35 -37.95 48.35 -38.75 48.35 -39.5 47.55 -39.5 M48.35 -42.4 Q48.35 -43.2 47.55 -43.2 L47.55 -41.65 Q48.35 -41.65 48.35 -42.4 M48.35 -35.05 Q48.35 -35.85 47.55 -35.85 L47.55 -34.25 Q48.35 -34.25 48.35 -35.05 M47.55 -32.15 L47.55 -30.55 Q48.35 -30.55 48.35 -31.35 48.35 -32.15 47.55 -32.15 M47.55 -28.45 L47.55 -26.9 Q48.35 -26.9 48.35 -27.7 48.35 -28.45 47.55 -28.45 M48.35 -24.0 Q48.35 -24.8 47.55 -24.8 L47.55 -23.2 Q48.35 -23.2 48.35 -24.0 M47.55 -21.1 L47.55 -19.5 Q48.35 -19.5 48.35 -20.3 48.35 -21.1 47.55 -21.1 M47.55 -15.85 Q48.35 -15.85 48.35 -16.6 48.35 -17.4 47.55 -17.4 L47.55 -15.85 M47.55 -13.7 L47.55 -12.15 Q48.35 -12.15 48.35 -12.95 48.35 -13.7 47.55 -13.7 M47.55 -10.05 L47.55 -8.45 Q48.35 -8.45 48.35 -9.25 48.35 -10.05 47.55 -10.05 M48.35 -1.85 Q48.35 -2.65 47.55 -2.65 L47.55 -1.1 Q48.35 -1.1 48.35 -1.85 M48.35 -5.55 Q48.35 -6.35 47.55 -6.35 L47.55 -4.75 Q48.35 -4.75 48.35 -5.55 M47.55 1.0 L47.55 2.6 Q48.35 2.6 48.35 1.8 48.35 1.0 47.55 1.0 M47.55 4.7 L47.55 6.3 Q48.35 6.3 48.35 5.5 48.35 4.7 47.55 4.7 M47.55 10.0 Q48.35 10.0 48.35 9.2 48.35 8.4 47.55 8.4 L47.55 10.0 M48.35 16.55 Q48.35 15.75 47.55 15.75 L47.55 17.35 Q48.35 17.35 48.35 16.55 M48.35 12.85 Q48.35 12.1 47.55 12.1 L47.55 13.65 Q48.35 13.65 48.35 12.85 M47.55 23.15 L47.55 24.7 Q48.35 24.7 48.35 23.95 48.35 23.15 47.55 23.15 M47.55 19.45 L47.55 21.05 Q48.35 21.05 48.35 20.25 48.35 19.45 47.55 19.45 M47.55 28.4 Q48.35 28.4 48.35 27.6 48.35 26.85 47.55 26.85 L47.55 28.4 M48.35 31.3 Q48.35 30.5 47.55 30.5 L47.55 32.1 Q48.35 32.1 48.35 31.3 M48.35 35.0 Q48.35 34.2 47.55 34.2 L47.55 35.8 Q48.35 35.8 48.35 35.0 M47.55 39.45 Q48.35 39.45 48.35 38.7 48.35 37.9 47.55 37.9 L47.55 39.45 M47.55 43.15 Q48.35 43.15 48.35 42.35 48.35 41.55 47.55 41.55 L47.55 43.15 M43.7 47.0 L42.1 47.0 Q42.2 47.75 42.9 47.75 43.6 47.75 43.7 47.0 M47.4 46.3 Q47.4 45.8 46.9 45.55 L45.85 46.55 Q46.0 47.05 46.6 47.05 47.4 47.05 47.4 46.3 M4.6 22.85 Q4.15 24.35 2.9 25.3 5.9 28.4 11.15 29.1 5.1 28.8 1.55 25.95 L-0.85 26.0 Q-3.0 25.4 -3.85 23.3 -7.7 24.5 -10.7 28.05 -7.75 23.8 -4.15 22.1 -4.25 21.3 -4.0 20.55 -3.55 18.75 -1.9 17.85 -3.3 13.65 -8.15 10.75 -2.75 13.3 -0.55 17.35 L1.45 17.4 Q3.2 17.85 4.05 19.35 7.55 17.45 9.8 13.4 7.8 17.95 4.55 20.5 4.9 21.75 4.6 22.85 M1.3 17.9 Q-0.25 17.45 -1.7 18.25 -3.1 19.05 -3.5 20.65 -3.95 22.2 -3.15 23.65 -2.3 25.1 -0.75 25.5 0.85 25.9 2.25 25.1 3.7 24.25 4.1 22.7 4.5 21.1 3.7 19.7 2.9 18.3 1.3 17.9 M1.6 47.0 Q1.6 47.75 2.35 47.75 3.05 47.75 3.15 47.0 L1.6 47.0 M9.75 47.75 Q10.5 47.75 10.5 47.0 L8.95 47.0 Q9.05 47.75 9.75 47.75 M6.85 47.0 L5.25 47.0 Q5.35 47.75 6.05 47.75 6.75 47.75 6.85 47.0 M12.65 47.0 Q12.65 47.75 13.4 47.75 14.1 47.75 14.2 47.0 L12.65 47.0 M16.3 47.0 Q16.4 47.75 17.1 47.75 17.8 47.75 17.9 47.0 L16.3 47.0 M21.6 47.0 L20.0 47.0 Q20.1 47.75 20.8 47.75 21.5 47.75 21.6 47.0 M25.25 47.0 L23.7 47.0 Q23.8 47.75 24.5 47.75 25.25 47.75 25.25 47.0 M27.4 47.0 Q27.4 47.75 28.15 47.75 28.85 47.75 28.95 47.0 L27.4 47.0 M31.85 47.75 Q32.55 47.75 32.65 47.0 L31.05 47.0 Q31.15 47.75 31.85 47.75 M40.0 47.0 L38.45 47.0 Q38.45 47.75 39.2 47.75 39.9 47.75 40.0 47.0 M36.3 47.0 L34.75 47.0 Q34.85 47.75 35.55 47.75 36.3 47.75 36.3 47.0 M-42.65 -47.05 L-41.1 -47.05 Q-41.1 -47.8 -41.85 -47.8 -42.55 -47.8 -42.65 -47.05 M-45.55 -46.85 Q-46.35 -46.85 -46.35 -46.05 -46.35 -45.65 -46.0 -45.4 L-44.9 -46.5 Q-45.15 -46.85 -45.55 -46.85 M-46.5 -37.95 L-46.5 -39.5 Q-47.3 -39.5 -47.3 -38.75 -47.3 -37.95 -46.5 -37.95 M-46.5 -41.65 L-46.5 -43.2 Q-47.3 -43.2 -47.3 -42.4 -47.3 -41.65 -46.5 -41.65 M-47.3 -31.35 Q-47.3 -30.55 -46.5 -30.55 L-46.5 -32.15 Q-47.3 -32.15 -47.3 -31.35 M-47.3 -35.05 Q-47.3 -34.25 -46.5 -34.25 L-46.5 -35.85 Q-47.3 -35.85 -47.3 -35.05 M-47.3 -27.7 Q-47.3 -26.9 -46.5 -26.9 L-46.5 -28.45 Q-47.3 -28.45 -47.3 -27.7 M-46.5 -21.1 Q-47.3 -21.1 -47.3 -20.3 -47.3 -19.5 -46.5 -19.5 L-46.5 -21.1 M-46.5 -23.2 L-46.5 -24.8 Q-47.3 -24.8 -47.3 -24.0 -47.3 -23.2 -46.5 -23.2 M-47.3 -12.95 Q-47.3 -12.15 -46.5 -12.15 L-46.5 -13.7 Q-47.3 -13.7 -47.3 -12.95 M-47.3 -16.6 Q-47.3 -15.85 -46.5 -15.85 L-46.5 -17.4 Q-47.3 -17.4 -47.3 -16.6 M-47.3 -9.25 Q-47.3 -8.45 -46.5 -8.45 L-46.5 -10.05 Q-47.3 -10.05 -47.3 -9.25 M-47.3 -1.85 Q-47.3 -1.1 -46.5 -1.1 L-46.5 -2.65 Q-47.3 -2.65 -47.3 -1.85 M-46.5 -4.75 L-46.5 -6.35 Q-47.3 -6.35 -47.3 -5.55 -47.3 -4.75 -46.5 -4.75 M-0.55 -47.05 Q-0.65 -47.8 -1.3 -47.8 -2.0 -47.8 -2.1 -47.05 L-0.55 -47.05 M-5.0 -47.8 Q-5.7 -47.8 -5.8 -47.05 L-4.2 -47.05 Q-4.3 -47.8 -5.0 -47.8 M-8.7 -47.8 Q-9.4 -47.8 -9.5 -47.05 L-7.9 -47.05 Q-8.0 -47.8 -8.7 -47.8 M-11.6 -47.05 Q-11.7 -47.8 -12.4 -47.8 -13.15 -47.8 -13.15 -47.05 L-11.6 -47.05 M-19.75 -47.8 Q-20.45 -47.8 -20.55 -47.05 L-18.95 -47.05 Q-19.05 -47.8 -19.75 -47.8 M-16.05 -47.8 Q-16.75 -47.8 -16.85 -47.05 L-15.3 -47.05 Q-15.3 -47.8 -16.05 -47.8 M-22.65 -47.05 Q-22.75 -47.8 -23.45 -47.8 -24.15 -47.8 -24.25 -47.05 L-22.65 -47.05 M-26.35 -47.05 Q-26.45 -47.8 -27.15 -47.8 -27.9 -47.8 -27.9 -47.05 L-26.35 -47.05 M-31.6 -47.05 L-30.05 -47.05 Q-30.05 -47.8 -30.8 -47.8 -31.5 -47.8 -31.6 -47.05 M-35.3 -47.05 L-33.7 -47.05 Q-33.8 -47.8 -34.5 -47.8 -35.2 -47.8 -35.3 -47.05 M-38.95 -47.05 L-37.4 -47.05 Q-37.5 -47.8 -38.2 -47.8 -38.95 -47.8 -38.95 -47.05 M-33.75 -28.1 Q-27.85 -27.05 -24.75 -23.7 L-22.8 -24.15 Q-21.05 -24.15 -19.75 -22.95 -16.9 -25.7 -15.8 -30.2 -16.55 -25.15 -19.0 -22.0 -18.35 -20.95 -18.35 -19.7 -18.35 -18.2 -19.35 -16.95 -15.65 -14.7 -10.4 -15.4 -16.5 -14.05 -20.5 -15.95 -21.45 -15.3 -22.8 -15.3 -25.1 -15.3 -26.4 -17.1 -28.5 -15.75 -30.35 -13.05 L-31.75 -10.75 Q-30.05 -15.55 -27.0 -18.2 L-27.25 -19.7 Q-27.25 -21.5 -25.95 -22.9 -27.45 -25.2 -30.8 -26.9 -32.45 -27.75 -33.75 -28.1 M-26.75 -19.7 Q-26.75 -18.1 -25.6 -16.95 -24.45 -15.8 -22.8 -15.8 -21.2 -15.8 -20.0 -16.95 -18.85 -18.1 -18.85 -19.7 -18.85 -21.35 -20.0 -22.5 -21.2 -23.65 -22.8 -23.65 -24.45 -23.65 -25.6 -22.5 -26.75 -21.35 -26.75 -19.7 M-38.95 47.0 Q-38.95 47.75 -38.2 47.75 -37.5 47.75 -37.4 47.0 L-38.95 47.0 M-30.8 47.75 Q-30.05 47.75 -30.05 47.0 L-31.6 47.0 Q-31.5 47.75 -30.8 47.75 M-33.7 47.0 L-35.3 47.0 Q-35.2 47.75 -34.5 47.75 -33.8 47.75 -33.7 47.0 M-27.9 47.0 Q-27.9 47.75 -27.15 47.75 -26.45 47.75 -26.35 47.0 L-27.9 47.0 M-24.25 47.0 Q-24.15 47.75 -23.45 47.75 -22.75 47.75 -22.65 47.0 L-24.25 47.0 M-18.95 47.0 L-20.55 47.0 Q-20.45 47.75 -19.75 47.75 -19.05 47.75 -18.95 47.0 M-15.3 47.0 L-16.85 47.0 Q-16.75 47.75 -16.05 47.75 -15.3 47.75 -15.3 47.0 M-13.15 47.0 Q-13.15 47.75 -12.4 47.75 -11.7 47.75 -11.6 47.0 L-13.15 47.0 M-7.9 47.0 L-9.5 47.0 Q-9.4 47.75 -8.7 47.75 -8.0 47.75 -7.9 47.0 M-2.1 47.0 Q-2.0 47.75 -1.3 47.75 -0.65 47.75 -0.55 47.0 L-2.1 47.0 M-4.2 47.0 L-5.8 47.0 Q-5.7 47.75 -5.0 47.75 -4.3 47.75 -4.2 47.0 M-47.3 5.5 Q-47.3 6.3 -46.5 6.3 L-46.5 4.7 Q-47.3 4.7 -47.3 5.5 M-47.3 1.8 Q-47.3 2.6 -46.5 2.6 L-46.5 1.0 Q-47.3 1.0 -47.3 1.8 M-47.3 9.2 Q-47.3 10.0 -46.5 10.0 L-46.5 8.4 Q-47.3 8.4 -47.3 9.2 M-46.5 17.35 L-46.5 15.75 Q-47.3 15.75 -47.3 16.55 -47.3 17.35 -46.5 17.35 M-46.5 13.65 L-46.5 12.1 Q-47.3 12.1 -47.3 12.85 -47.3 13.65 -46.5 13.65 M-47.3 23.95 Q-47.3 24.7 -46.5 24.7 L-46.5 23.15 Q-47.3 23.15 -47.3 23.95 M-47.3 20.25 Q-47.3 21.05 -46.5 21.05 L-46.5 19.45 Q-47.3 19.45 -47.3 20.25 M-47.3 27.6 Q-47.3 28.4 -46.5 28.4 L-46.5 26.85 Q-47.3 26.85 -47.3 27.6 M-46.5 32.1 L-46.5 30.5 Q-47.3 30.5 -47.3 31.3 -47.3 32.1 -46.5 32.1 M-47.3 35.0 Q-47.3 35.8 -46.5 35.8 L-46.5 34.2 Q-47.3 34.2 -47.3 35.0 M-46.5 43.15 L-46.5 41.55 Q-47.3 41.55 -47.3 42.35 -47.3 43.15 -46.5 43.15 M-47.3 38.7 Q-47.3 39.45 -46.5 39.45 L-46.5 37.9 Q-47.3 37.9 -47.3 38.7 M-46.35 46.3 Q-46.35 47.05 -45.55 47.05 -44.95 47.05 -44.8 46.5 L-45.85 45.55 Q-46.35 45.7 -46.35 46.3 M-41.85 47.75 Q-41.1 47.75 -41.1 47.0 L-42.65 47.0 Q-42.55 47.75 -41.85 47.75" fill="#000000" fill-rule="evenodd" stroke="none" />
    </g>
  </defs>
  <g transform="matrix(1.0, 0.0, 0.0, 1.0, 0.0, 0.0)">
    <use height="97.55" id="fill" transform="matrix(1.0132, 0.0, 0.0, 1.0142, 0.5632, 0.5568)" width="97.65" xlink:href="#sprite0" />
    <use height="98.55" transform="matrix(1.0132, 0.0, 0.0, 1.0142, 0.0566, 0.0496)" width="98.65" xlink:href="#sprite1" />
  </g>
</svg>