<?xml version="1.0" encoding="UTF-8" standalone="no"?>
<svg xmlns:xlink="http://www.w3.org/1999/xlink" height="100%" width="100%" xmlns="http://www.w3.org/2000/svg" preserveAspectRatio="none" viewBox="0 0 100 100">
  <defs>
    <g id="sprite0" transform="matrix(1.0, 0.0, 0.0, 1.0, 79.1, 66.8)">
      <use height="133.65" transform="matrix(1.0, 0.0, 0.0, 1.0, -79.1, -66.8)" width="158.2" xlink:href="#shape0" />
    </g>
    <g id="shape0" transform="matrix(1.0, 0.0, 0.0, 1.0, 79.1, 66.8)">
      <path d="M-74.35 -52.55 L-79.1 60.6 Q-79.1 62.95 -77.4 64.75 -75.7 66.6 -73.05 66.6 L-49.3 66.6 -49.3 66.85 36.1 66.5 36.1 66.6 73.05 66.55 Q75.6 66.55 77.4 64.75 79.2 62.9 79.1 60.3 L74.55 -57.9 Q74.45 -60.05 73.0 -61.7 71.6 -63.35 69.45 -63.8 L68.7 -64.75 Q66.95 -66.6 64.35 -66.6 L-65.25 -66.8 Q-67.85 -66.8 -69.6 -64.95 L-70.65 -63.4 Q-73.35 -61.65 -73.75 -59.0 -74.15 -56.6 -74.35 -52.55" fill="#ffffff" fill-rule="evenodd" stroke="none" class="fill" />
    </g>
    <g id="sprite1" transform="matrix(1.0, 0.0, 0.0, 1.0, 80.75, 68.2)">
      <use height="136.45" transform="matrix(1.0, 0.0, 0.0, 1.0, -80.75, -68.2)" width="161.5" xlink:href="#shape1" />
    </g>
    <g id="shape1" transform="matrix(1.0, 0.0, 0.0, 1.0, 80.75, 68.2)">
      <path d="M70.95 -65.15 L70.15 -66.15 Q68.4 -68.0 65.75 -68.0 L-66.65 -68.2 Q-69.25 -68.2 -71.1 -66.3 L-72.15 -64.75 Q-74.9 -62.95 -75.3 -60.25 -75.7 -57.75 -75.9 -53.65 L-80.75 61.9 Q-80.75 64.3 -79.05 66.1 -77.3 68.0 -74.6 68.0 L-50.35 68.0 -50.35 68.25 36.85 67.9 36.85 68.0 50.9 67.95 51.35 68.0 74.6 68.0 Q77.25 68.0 79.05 66.1 80.85 64.25 80.75 61.6 L76.1 -59.15 Q76.05 -61.3 74.55 -63.0 73.1 -64.7 70.95 -65.15 M69.1 -62.2 L69.15 -61.5 69.1 -60.75 Q68.6 -55.0 66.8 -48.9 64.1 -40.1 59.5 -34.65 L57.35 -32.4 54.6 -30.25 54.55 -30.2 52.35 -29.05 48.0 -27.35 47.85 -27.3 47.1 -27.1 47.0 -27.05 39.9 -25.4 39.7 -25.35 39.55 -25.35 38.45 -25.15 38.35 -25.15 37.95 -25.05 37.7 -25.05 37.35 -24.95 37.05 -24.9 36.95 -24.95 26.95 -28.6 26.7 -28.7 24.55 -28.75 24.4 -28.7 23.75 -28.05 23.3 -27.3 23.25 -27.2 22.85 -26.55 21.3 -23.3 19.95 -23.2 Q10.45 -22.7 1.1 -22.7 -20.3 -22.7 -35.5 -25.1 L-45.25 -27.15 -45.6 -27.25 -45.85 -27.3 -48.05 -27.95 -50.5 -28.8 -55.45 -31.3 -58.8 -34.1 -59.3 -34.65 Q-64.5 -40.15 -67.3 -49.4 -68.95 -55.05 -69.55 -60.95 L-69.65 -62.15 -69.65 -62.3 -69.55 -63.0 -69.15 -63.85 -68.9 -64.15 -68.2 -64.65 -66.95 -64.95 -58.8 -64.9 66.45 -64.3 Q67.5 -64.3 68.15 -63.7 L68.4 -63.5 68.8 -62.95 69.1 -62.2 M70.65 -61.4 L70.6 -62.05 71.45 -61.6 Q72.65 -60.75 72.65 -59.3 L77.3 61.4 Q77.4 62.55 76.55 63.4 75.75 64.2 74.6 64.2 L51.1 64.2 50.1 63.9 Q49.25 63.5 48.9 62.75 48.5 62.1 48.5 61.35 L48.2 16.4 49.6 13.5 49.6 13.45 52.7 6.25 Q57.5 -5.4 58.9 -11.35 L58.95 -11.55 59.15 -13.15 59.1 -13.6 58.95 -13.8 Q58.75 -14.3 57.45 -15.2 L57.2 -15.35 56.95 -15.55 49.35 -19.55 49.25 -19.6 48.05 -20.15 47.95 -20.2 47.9 -25.8 48.0 -25.85 48.25 -25.9 52.35 -27.4 Q55.15 -28.6 57.0 -30.1 L57.1 -30.2 57.2 -30.25 59.5 -32.4 59.55 -32.45 61.4 -34.6 61.45 -34.65 Q64.5 -38.5 66.7 -43.95 68.1 -47.4 69.0 -51.25 70.15 -55.9 70.6 -60.45 L70.65 -61.4 M24.9 -27.2 L25.2 -27.25 25.3 -27.3 25.45 -27.4 26.15 -27.3 26.85 -27.1 35.2 -24.05 Q35.35 -23.95 35.45 -23.95 L35.55 -23.9 36.8 -23.4 36.95 -23.3 37.4 -23.1 37.7 -23.0 39.65 -22.2 39.9 -22.05 47.95 -18.5 48.1 -18.45 49.25 -17.85 49.4 -17.8 56.25 -14.3 57.45 -13.45 57.4 -13.4 57.5 -13.15 57.7 -12.85 57.45 -11.45 Q56.3 -6.9 52.65 2.2 L49.55 9.8 49.55 9.85 47.45 14.6 47.4 14.65 45.8 17.9 45.0 19.1 44.65 19.15 44.45 19.3 43.1 18.95 40.95 18.15 40.9 18.15 36.5 16.25 Q24.05 10.8 16.2 6.05 L13.9 4.45 13.95 4.4 13.9 4.3 13.9 4.1 13.75 3.9 13.6 3.8 Q13.6 2.55 15.5 -3.6 L24.1 -25.95 24.9 -27.2 M14.0 -3.6 Q12.15 2.35 12.15 4.1 L12.25 4.55 12.45 4.85 Q12.7 5.4 14.25 6.55 L14.4 6.65 15.7 7.5 Q17.8 8.85 20.7 10.3 27.4 13.85 36.55 17.9 L37.75 18.45 37.8 20.3 Q38.65 49.1 38.55 64.15 L-36.95 64.45 -37.4 -23.9 Q-21.75 -21.2 1.1 -21.2 10.5 -21.2 19.35 -21.7 L20.65 -21.75 Q18.2 -15.95 15.45 -8.0 L14.0 -3.6 M40.05 -23.95 L46.4 -25.35 46.45 -20.9 39.9 -23.75 39.6 -23.85 39.9 -23.9 40.05 -23.95 M45.25 20.7 L45.35 20.65 45.5 20.65 Q46.0 20.35 46.7 19.1 L47.0 61.35 47.25 62.75 47.9 63.95 40.55 64.0 40.6 59.9 Q40.6 46.65 39.8 21.05 L39.75 19.3 40.95 19.75 41.0 19.8 42.85 20.45 43.25 20.55 45.25 20.7 M-69.6 -52.0 Q-68.55 -47.65 -67.05 -44.1 -64.7 -38.55 -61.35 -34.65 L-60.9 -34.1 -58.7 -31.9 -55.8 -29.75 Q-53.45 -28.3 -49.9 -27.0 L-49.85 -27.0 -47.25 -26.15 -47.1 -26.1 -46.15 61.7 Q-46.15 62.75 -46.9 63.6 L-47.0 63.7 -47.65 64.2 -48.4 64.5 -49.0 64.55 -74.9 64.55 Q-76.1 64.55 -76.85 63.7 -77.7 62.85 -77.6 61.7 L-71.9 -60.6 Q-71.85 -61.35 -71.15 -62.1 L-70.75 -57.9 -69.6 -52.0 M-38.9 -24.2 L-38.45 64.45 -45.7 64.45 Q-45.15 63.9 -44.9 63.0 L-44.65 61.7 -45.6 -25.7 -38.9 -24.2" fill="#000000" fill-rule="evenodd" stroke="none" class="lines" />
    </g>
  </defs>
  <g transform="matrix(1.0, 0.0, 0.0, 1.0, 0.0, 0.0)">
    <use height="133.65" id="fill" transform="matrix(0.6192, 0.0, 0.0, 0.7332, 1.0211, 1.0202)" width="158.2" xlink:href="#sprite0" />
    <use height="136.45" id="lines" transform="matrix(0.6192, 0.0, 0.0, 0.7332, -0.0005, -0.0063)" width="161.5" xlink:href="#sprite1" />
  </g>
</svg>