<?xml version="1.0" encoding="UTF-8" standalone="no"?>
<svg xmlns:xlink="http://www.w3.org/1999/xlink" height="100%" width="100%" xmlns="http://www.w3.org/2000/svg" preserveAspectRatio="none" viewBox="0 0 100 100">
  <defs>
    <g id="sprite0" transform="matrix(1.0, 0.0, 0.0, 1.0, 120.1, 92.2)">
      <use height="184.4" transform="matrix(1.0, 0.0, 0.0, 1.0, -120.1, -92.2)" width="240.2" xlink:href="#shape0" />
    </g>
    <g id="shape0" transform="matrix(1.0, 0.0, 0.0, 1.0, 120.1, 92.2)">
      <path d="M111.0 -82.25 Q113.1 -82.25 114.65 -80.75 116.2 -79.3 116.25 -77.2 L120.1 34.75 Q120.1 36.95 118.7 38.4 117.3 39.9 115.1 39.9 L89.75 39.9 88.0 39.6 Q86.5 40.85 84.45 40.85 L2.75 40.85 Q0.95 40.85 -0.5 39.8 L-1.15 39.8 Q-2.7 40.85 -4.45 40.85 L-86.15 40.85 Q-87.9 40.85 -89.3 39.85 L-89.75 39.9 -115.15 39.9 Q-117.25 39.9 -118.7 38.4 -120.15 36.85 -120.1 34.75 L-116.3 -77.2 Q-116.2 -79.3 -114.7 -80.75 -113.15 -82.25 -111.05 -82.25 L-91.75 -82.25 -91.75 -88.25 Q-91.75 -89.85 -90.55 -91.05 -89.4 -92.2 -87.75 -92.2 L-2.8 -92.2 Q-1.7 -92.2 -0.85 -91.65 0.1 -92.2 1.15 -92.2 L86.1 -92.2 Q87.75 -92.2 88.9 -91.05 90.05 -89.85 90.05 -88.25 L90.05 -82.25 111.0 -82.25" fill="#ffffff" fill-rule="evenodd" stroke="none" class="fill" />
      <path d="M82.7 62.4 Q84.15 63.8 84.15 65.8 L84.15 87.35 Q84.15 89.35 82.7 90.75 81.3 92.2 79.3 92.2 L-0.3 92.2 Q-2.3 92.2 -3.75 90.75 -5.15 89.35 -5.15 87.35 L-5.15 65.8 Q-5.15 63.8 -3.75 62.4 -2.3 60.95 -0.3 60.95 L2.45 60.95 2.45 58.1 Q-1.8 57.55 -1.8 53.3 L-1.8 52.0 Q-1.8 47.75 2.45 47.2 L2.45 41.55 2.85 41.0 76.25 41.0 76.25 47.2 Q78.15 47.3 79.5 48.7 80.8 50.1 80.8 52.0 L80.8 53.3 Q80.8 55.2 79.5 56.6 78.15 58.0 76.25 58.1 L79.3 60.95 Q81.3 60.95 82.7 62.4" fill="#ffffff" fill-rule="evenodd" stroke="none" class="fill" />
    </g>
    <g id="sprite1" transform="matrix(1.0, 0.0, 0.0, 1.0, 120.1, 92.25)">
      <use height="184.5" transform="matrix(1.0, 0.0, 0.0, 1.0, -120.1, -92.25)" width="240.2" xlink:href="#shape1" />
    </g>
    <g id="shape1" transform="matrix(1.0, 0.0, 0.0, 1.0, 120.1, 92.25)">
      <path d="M-111.05 -79.3 Q-113.2 -79.3 -113.3 -77.15 L-117.1 34.8 Q-117.2 35.7 -116.55 36.25 -116.0 36.85 -115.15 36.85 L-91.5 36.85 -91.75 35.2 -91.75 -79.3 -111.05 -79.3 M87.05 -33.2 L86.15 -33.05 -87.75 -33.05 -88.75 -33.2 -88.75 36.75 Q-88.75 37.75 -87.75 37.75 L86.1 37.75 Q86.85 37.75 87.0 37.05 L87.05 36.75 87.05 -33.2 M87.05 -59.0 L86.15 -58.8 -87.75 -58.8 -88.75 -59.0 -88.75 -36.0 Q-88.75 -35.05 -87.75 -35.05 L86.15 -35.05 Q87.05 -35.05 87.05 -36.0 L87.05 -59.0 M87.05 -88.35 Q87.05 -89.35 86.1 -89.35 L-87.75 -89.35 Q-88.75 -89.35 -88.75 -88.35 L-88.75 -61.8 Q-88.75 -60.8 -87.75 -60.8 L86.15 -60.8 Q87.05 -60.9 87.05 -61.8 L87.05 -88.35 M114.65 -80.8 Q116.2 -79.35 116.25 -77.25 L120.1 34.7 Q120.1 36.9 118.7 38.35 117.3 39.85 115.1 39.85 L89.75 39.85 88.0 39.55 Q86.5 40.8 84.45 40.8 L-86.15 40.8 Q-87.9 40.8 -89.3 39.8 L-89.75 39.85 -115.15 39.85 Q-117.25 39.85 -118.7 38.35 -120.15 36.8 -120.1 34.7 L-116.3 -77.25 Q-116.2 -79.35 -114.7 -80.8 -113.15 -82.3 -111.05 -82.3 L-91.75 -82.3 -91.75 -88.3 Q-91.75 -89.9 -90.55 -91.1 -89.4 -92.25 -87.75 -92.25 L86.1 -92.25 Q87.75 -92.25 88.9 -91.1 90.05 -89.9 90.05 -88.3 L90.05 -82.3 111.0 -82.3 Q113.1 -82.3 114.65 -80.8 M113.25 -77.15 Q113.15 -79.3 111.0 -79.3 L90.05 -79.3 90.05 35.2 89.8 36.85 115.1 36.85 Q115.95 36.85 116.55 36.25 117.1 35.7 117.1 34.8 L113.25 -77.15" fill="#000000" fill-rule="evenodd" stroke="none" class="lines" />
      <path d="M81.75 87.4 L81.75 65.9 Q81.75 63.55 79.4 63.55 L-0.2 63.55 Q-2.55 63.55 -2.55 65.9 L-2.55 87.4 Q-2.55 89.75 -0.2 89.75 L79.4 89.75 Q81.75 89.75 81.75 87.4 M82.85 90.8 Q81.4 92.25 79.4 92.25 L-0.2 92.25 Q-2.2 92.25 -3.65 90.8 -5.05 89.4 -5.05 87.4 L-5.05 65.9 Q-5.05 63.9 -3.65 62.45 -2.2 61.05 -0.2 61.05 L2.6 61.05 2.6 58.15 Q-1.7 57.65 -1.7 53.35 L-1.7 52.05 Q-1.7 50.2 -0.45 48.85 0.75 47.5 2.6 47.25 L2.65 40.8 4.2 40.75 4.55 39.8 7.6 39.8 7.9 40.6 74.55 37.8 76.3 40.8 76.4 41.6 76.4 47.25 Q78.3 47.35 79.6 48.75 80.9 50.15 80.9 52.05 L80.9 53.35 Q80.9 55.25 79.6 56.65 78.3 58.05 76.4 58.2 L76.4 61.05 79.4 61.05 Q81.45 61.05 82.85 62.45 84.25 63.9 84.25 65.9 L84.25 87.4 Q84.25 89.4 82.85 90.8 M74.9 61.05 L74.9 58.2 70.9 58.2 70.9 61.05 74.9 61.05 M9.55 58.2 L9.55 61.05 69.4 61.05 69.4 58.2 9.55 58.2 M4.1 58.2 L4.1 61.05 8.05 61.05 8.05 58.2 4.1 58.2 M3.15 49.7 L2.6 49.8 Q0.8 50.25 0.8 52.05 L0.8 53.35 Q0.8 55.2 2.6 55.65 L3.15 55.7 76.4 55.7 Q78.4 55.35 78.4 53.35 L78.4 52.05 Q78.4 50.0 76.4 49.75 L76.05 49.7 3.15 49.7 M7.9 40.6 L4.2 40.75 4.15 40.8 4.1 47.2 8.05 47.2 8.0 40.8 7.9 40.6 M71.0 40.8 L70.9 41.6 70.9 47.2 74.9 47.2 74.9 41.6 74.8 40.8 74.4 39.8 71.35 39.8 71.0 40.8 M69.4 47.2 L69.45 40.8 9.5 40.8 9.55 47.2 69.4 47.2" fill="#000000" fill-rule="evenodd" stroke="none" class="lines" />
    </g>
  </defs>
  <g transform="matrix(1.0, 0.0, 0.0, 1.0, 0.0, 0.0)">
    <use height="184.4" id="fill" transform="matrix(0.4163, 0.0, 0.0, 0.542, -0.0001, -0.0231)" width="240.2" xlink:href="#sprite0" />
    <use height="184.5" id="lines" transform="matrix(0.4163, 0.0, 0.0, 0.542, -0.0001, -0.0002)" width="240.2" xlink:href="#sprite1" />
  </g>
</svg>