<?xml version="1.0" encoding="UTF-8" standalone="no"?>
<svg xmlns:xlink="http://www.w3.org/1999/xlink" height="100%" width="100%" xmlns="http://www.w3.org/2000/svg" preserveAspectRatio="none" viewBox="0 0 100 100">
  <defs>
    <g id="sprite0" transform="matrix(1.0, 0.0, 0.0, 1.0, 86.4, 62.7)">
      <use height="125.35" transform="matrix(1.0, 0.0, 0.0, 1.0, -86.4, -62.7)" width="172.85" xlink:href="#shape0" />
    </g>
    <g id="shape0" transform="matrix(1.0, 0.0, 0.0, 1.0, 86.4, 62.7)">
      <path d="M66.3 -58.85 L65.85 -54.65 67.55 -54.35 68.5 -53.9 69.45 -53.05 70.0 -52.05 70.05 -51.95 70.05 -51.9 86.4 34.35 Q86.65 35.8 85.75 36.95 84.85 38.1 83.4 38.25 L66.35 40.1 68.0 56.65 Q68.0 59.15 66.25 60.9 64.5 62.65 62.0 62.65 L-62.0 62.65 Q-64.45 62.65 -66.25 60.9 -68.0 59.1 -68.0 56.65 L-66.45 40.05 -83.35 38.25 Q-84.8 38.1 -85.7 36.95 -86.55 35.8 -86.35 34.35 L-70.0 -51.9 Q-69.7 -53.15 -68.45 -53.9 -67.25 -54.65 -65.75 -54.65 L-66.15 -58.55 -66.25 -59.9 Q-66.3 -61.05 -65.35 -61.9 -64.4 -62.7 -63.0 -62.7 L63.05 -62.2 Q64.45 -62.2 65.45 -61.35 66.4 -60.5 66.3 -59.35 L66.3 -58.85" fill="#ffffff" fill-rule="evenodd" stroke="none" class="fill" />
    </g>
    <g id="sprite1" transform="matrix(1.0, 0.0, 0.0, 1.0, 88.35, 64.65)">
      <use height="129.35" transform="matrix(1.0, 0.0, 0.0, 1.0, -88.35, -64.65)" width="176.8" xlink:href="#shape1" />
    </g>
    <g id="shape1" transform="matrix(1.0, 0.0, 0.0, 1.0, 88.35, 64.65)">
      <path d="M-45.4 -25.45 Q-45.15 -28.2 -45.95 -30.75 L-50.0 -31.2 Q-49.1 -28.35 -49.4 -25.3 L-52.6 37.9 Q-52.7 39.0 -53.25 39.85 L-51.45 40.05 Q-50.35 40.15 -49.5 39.5 -48.7 38.8 -48.6 37.75 L-45.4 -25.45 M-69.0 -51.6 L-69.0 -51.65 -85.35 34.6 -85.35 34.55 Q-85.5 35.55 -84.9 36.4 -84.25 37.2 -83.25 37.3 L-57.45 40.05 Q-56.45 40.15 -55.65 39.6 L-55.5 39.5 Q-54.7 38.8 -54.6 37.75 L-51.4 -25.45 Q-51.05 -28.8 -52.35 -31.85 L-52.4 -32.0 -52.95 -32.25 Q-64.1 -38.4 -66.6 -53.5 L-67.9 -53.0 Q-68.8 -52.5 -69.0 -51.6 M46.0 -30.7 Q45.2 -28.15 45.45 -25.45 L48.65 37.7 48.65 37.75 Q48.75 38.8 49.6 39.5 50.4 40.15 51.5 40.05 L53.3 39.85 Q52.75 39.0 52.65 37.9 L49.45 -25.3 Q49.2 -28.2 49.95 -30.85 L46.15 -30.7 46.0 -30.7 M34.4 -32.05 L19.35 -34.35 1.3 -35.55 -16.3 -34.35 -31.7 -32.15 -43.85 -30.75 Q-43.15 -28.1 -43.4 -25.3 L-46.6 37.9 Q-46.8 39.8 -48.25 41.05 -49.75 42.25 -51.65 42.05 L-55.25 41.7 -57.65 42.05 -65.55 41.2 -67.0 56.8 Q-66.95 58.75 -65.55 60.25 L-65.5 60.25 Q-64.05 61.7 -62.0 61.7 L62.0 61.7 Q64.1 61.7 65.55 60.25 66.95 58.8 67.0 56.8 L65.45 41.25 57.7 42.05 55.35 41.7 51.7 42.05 Q49.8 42.25 48.35 41.05 46.85 39.8 46.65 37.9 L43.45 -25.3 Q43.2 -28.15 43.95 -30.8 L34.4 -32.05 M69.1 -51.6 Q68.85 -52.5 68.0 -53.0 L66.7 -53.5 Q64.35 -39.05 54.2 -32.3 53.35 -31.75 52.25 -31.35 51.15 -28.55 51.45 -25.45 L54.65 37.7 54.65 37.75 Q54.75 38.8 55.6 39.5 L55.75 39.6 Q56.5 40.15 57.5 40.05 L83.3 37.3 Q84.35 37.2 85.0 36.4 85.6 35.6 85.45 34.6 L69.1 -51.65 69.1 -51.6 M65.3 -59.35 Q65.35 -60.05 64.8 -60.55 64.05 -61.15 63.05 -61.15 L-63.0 -61.65 Q-64.0 -61.65 -64.65 -61.1 L-64.7 -61.05 Q-65.25 -60.55 -65.25 -59.9 -65.1 -56.55 -64.55 -53.55 -62.2 -39.9 -52.25 -34.15 L-52.0 -34.0 Q-51.25 -33.6 -50.3 -33.35 L-46.4 -32.75 -44.35 -32.75 -44.15 -32.75 -32.0 -34.15 -16.55 -36.35 1.3 -37.55 19.6 -36.35 34.7 -34.0 34.7 -34.05 44.45 -32.8 46.2 -32.7 46.45 -32.7 50.4 -32.95 52.35 -33.55 53.1 -33.95 Q62.4 -40.25 64.7 -53.55 L65.3 -59.35 M63.05 -64.15 Q65.2 -64.15 66.75 -62.8 L66.8 -62.8 Q68.5 -61.25 68.3 -59.1 L68.0 -56.25 69.45 -55.55 69.5 -55.55 Q71.55 -54.35 72.0 -52.3 L72.05 -52.2 88.4 34.05 Q88.75 36.4 87.35 38.25 85.9 40.05 83.6 40.3 L68.55 41.9 70.0 56.5 70.0 56.7 Q70.0 60.05 67.7 62.4 65.35 64.7 62.0 64.7 L-62.0 64.7 Q-65.25 64.7 -67.65 62.4 L-67.65 62.35 Q-70.0 59.95 -70.0 56.7 L-70.0 56.5 -68.6 41.9 -83.55 40.3 Q-85.85 40.05 -87.25 38.25 L-87.3 38.2 Q-88.65 36.4 -88.3 34.15 L-88.3 34.05 -71.95 -52.2 -71.95 -52.3 Q-71.5 -54.35 -69.45 -55.55 -68.75 -56.0 -67.9 -56.25 L-68.25 -59.75 Q-68.35 -61.85 -66.65 -63.35 -65.2 -64.65 -63.0 -64.65 L63.05 -64.15" fill="#000000" fill-rule="evenodd" stroke="none" />
    </g>
  </defs>
  <g transform="matrix(1.0, 0.0, 0.0, 1.0, 0.0, 0.0)">
    <use height="125.35" id="fill" transform="matrix(0.5656, 0.0, 0.0, 0.7735, 1.1311, 1.5526)" width="172.85" xlink:href="#sprite0" />
    <use height="129.35" transform="matrix(0.5656, 0.0, 0.0, 0.7735, -0.0219, -0.0057)" width="176.8" xlink:href="#sprite1" />
  </g>
</svg>