<?xml version="1.0" encoding="UTF-8" standalone="no"?>
<svg xmlns:xlink="http://www.w3.org/1999/xlink" height="100%" width="100%" xmlns="http://www.w3.org/2000/svg" preserveAspectRatio="none" viewBox="0 0 100 100">
  <defs>
    <g id="sprite0" transform="matrix(1.0, 0.0, 0.0, 1.0, 119.5, 68.6)">
      <use height="137.25" transform="matrix(1.0, 0.0, 0.0, 1.0, -119.5, -68.6)" width="239.05" xlink:href="#shape0" />
    </g>
    <g id="shape0" transform="matrix(1.0, 0.0, 0.0, 1.0, 119.5, 68.6)">
      <path d="M-113.7 -59.8 L-119.5 62.95 Q-119.65 65.25 -118.0 67.0 -116.35 68.65 -114.0 68.65 L-84.75 68.45 -83.6 68.35 72.25 66.7 72.25 67.0 89.1 66.8 89.1 66.7 114.05 66.55 Q116.5 66.45 118.0 64.8 119.65 63.15 119.55 60.75 L113.95 -61.65 Q113.8 -65.0 110.65 -66.55 L110.45 -66.85 Q108.95 -68.6 106.5 -68.6 L-107.75 -68.6 Q-110.1 -68.6 -111.7 -66.9 -113.3 -65.25 -113.2 -62.85 L-113.1 -61.85 -113.7 -59.8" fill="#ffffff" fill-rule="evenodd" stroke="none" class="fill" />
    </g>
    <g id="sprite1" transform="matrix(1.0, 0.0, 0.0, 1.0, 121.05, 69.5)">
      <use height="139.05" transform="matrix(1.0, 0.0, 0.0, 1.0, -121.05, -69.5)" width="242.15" xlink:href="#shape1" />
    </g>
    <g id="shape1" transform="matrix(1.0, 0.0, 0.0, 1.0, 121.05, 69.5)">
      <path d="M2.1 -17.45 L43.6 -19.0 56.3 -20.35 49.55 -14.35 46.5 -10.95 46.35 -10.55 46.35 -10.4 46.4 -10.35 46.35 -10.15 46.65 -8.8 47.7 -6.7 51.85 0.0 59.95 11.2 64.55 17.25 Q68.0 21.4 68.95 21.8 L69.45 21.85 69.6 21.9 Q70.3 22.0 72.25 21.05 L73.7 20.3 74.6 64.95 1.85 65.8 1.4 -17.3 2.1 -17.45 M67.7 -29.4 L58.5 -22.15 47.95 -20.9 43.65 -20.5 11.15 -19.1 -2.9 -18.9 Q-34.75 -18.6 -51.6 -20.6 L-52.4 -20.7 -54.3 -22.5 -54.4 -22.55 -67.15 -33.4 Q-70.45 -35.9 -71.25 -35.9 L-71.4 -35.85 Q-72.05 -35.95 -73.45 -34.7 L-76.85 -31.2 -80.05 -27.5 -81.8 -28.2 Q-100.15 -35.8 -107.95 -51.85 -109.85 -55.75 -110.95 -59.9 L-111.6 -63.05 -111.65 -63.35 -111.7 -63.85 Q-111.8 -64.95 -111.05 -65.75 L-111.0 -65.8 Q-110.35 -66.6 -109.1 -66.6 L107.9 -66.65 108.2 -66.6 Q109.2 -66.5 109.7 -65.85 L110.1 -65.1 110.15 -63.95 110.1 -63.65 Q109.0 -58.6 104.35 -51.45 97.4 -40.75 84.95 -31.2 L84.85 -31.15 84.25 -30.65 83.9 -30.4 83.25 -29.95 83.2 -29.9 83.05 -29.8 82.9 -29.7 82.55 -30.15 82.4 -30.35 82.25 -30.5 80.9 -32.15 Q78.05 -35.4 77.3 -35.25 L77.2 -35.3 Q76.1 -35.35 70.5 -31.45 L67.7 -29.4 M79.4 -31.65 L80.5 -30.4 80.7 -30.15 80.85 -29.95 81.05 -29.7 81.55 -29.1 81.65 -28.95 82.15 -28.4 82.2 -28.3 82.3 -28.15 87.05 -21.9 87.25 -21.65 87.8 -20.95 88.05 -20.6 91.05 -16.45 Q100.5 -3.15 100.95 -0.9 L100.8 -0.6 100.8 -0.45 100.85 -0.3 97.25 2.95 85.75 11.05 85.7 11.1 83.6 12.5 83.5 12.6 81.5 13.9 74.45 18.15 74.3 18.25 74.25 18.3 73.75 18.6 69.9 20.4 69.5 20.2 69.3 20.25 Q67.25 18.85 58.45 6.7 L48.25 -8.8 47.85 -9.8 48.0 -10.1 48.05 -10.2 47.95 -10.5 48.25 -10.95 50.3 -13.15 73.9 -32.05 Q76.05 -33.5 76.95 -33.75 77.1 -33.6 77.25 -33.6 L77.4 -33.65 79.4 -31.65 M111.9 -67.7 Q110.4 -69.5 107.9 -69.5 L-109.1 -69.5 Q-111.55 -69.5 -113.15 -67.75 -114.75 -66.05 -114.6 -63.65 L-114.55 -62.65 -115.15 -60.55 -121.05 63.75 Q-121.15 66.15 -119.5 67.85 -117.9 69.55 -115.45 69.55 L-85.85 69.35 -84.65 69.2 73.2 67.6 73.2 67.85 90.3 67.65 90.3 67.55 115.55 67.4 Q117.95 67.4 119.6 65.65 121.25 63.9 121.1 61.55 L115.45 -62.45 Q115.3 -65.9 112.1 -67.4 L111.9 -67.7 M112.6 -62.3 L118.25 61.7 Q118.25 62.85 117.5 63.7 116.7 64.5 115.55 64.5 L86.9 64.7 Q85.85 64.7 84.95 63.95 L84.55 63.5 Q84.0 62.7 84.0 61.85 L83.5 14.45 83.6 14.35 85.7 13.0 85.75 12.95 87.9 11.55 87.9 11.5 97.65 4.45 Q102.4 0.8 102.45 -0.2 L102.5 -0.3 102.45 -0.4 102.45 -0.55 Q102.45 -3.4 89.85 -20.55 L89.8 -20.6 88.5 -22.35 88.3 -22.55 87.05 -24.25 87.05 -24.3 83.95 -28.35 83.8 -28.55 84.0 -28.65 85.15 -29.45 85.5 -29.75 85.75 -29.9 87.3 -31.15 Q94.6 -36.85 100.0 -43.1 104.95 -48.85 107.95 -54.35 110.3 -58.65 111.2 -62.0 L111.65 -63.7 111.7 -64.25 Q112.55 -63.45 112.6 -62.3 M82.85 63.5 Q83.15 64.2 83.75 64.9 L76.05 65.0 76.05 62.8 Q76.05 48.05 75.2 23.85 L75.05 19.55 75.25 19.45 82.0 15.4 82.5 61.9 Q82.5 62.6 82.85 63.5 M-111.8 -57.45 L-111.25 -55.85 -111.25 -55.8 Q-109.05 -49.6 -105.1 -44.2 -96.9 -32.85 -82.4 -26.8 L-81.1 -26.3 -84.75 -22.0 -84.9 -21.8 -92.55 -12.4 Q-98.65 -4.45 -98.65 -2.65 L-98.6 -2.55 -98.65 -2.45 -98.65 -2.4 Q-98.6 -1.0 -89.7 6.3 L-83.0 11.55 -82.3 63.6 -82.45 64.4 -82.8 65.2 -83.15 65.65 -83.85 66.15 -85.15 66.5 -114.75 66.65 Q-115.95 66.65 -116.7 65.85 -117.5 65.0 -117.45 63.9 L-112.25 -51.0 -111.8 -57.45 M-84.7 -19.8 L-79.9 -25.55 -79.75 -25.75 -73.05 -33.1 -71.6 -34.25 -71.45 -34.2 -71.25 -34.25 -71.1 -34.35 -70.65 -34.15 -68.95 -33.0 -54.85 -21.0 -54.7 -20.9 -53.9 -20.1 -53.6 -19.85 -46.85 -13.25 -46.75 -13.2 -44.7 -10.95 -43.6 -9.35 -43.7 -9.05 -43.7 -9.0 -43.55 -8.7 -43.55 -8.65 Q-43.8 -7.6 -47.3 -2.85 L-50.7 1.6 Q-56.45 9.05 -61.8 15.05 L-64.45 17.9 -66.8 20.05 Q-66.9 19.95 -66.95 19.95 -67.15 19.95 -67.35 20.1 -67.95 20.0 -69.5 19.1 L-75.35 15.2 -75.45 15.15 -76.1 14.7 -76.15 14.65 -82.7 9.85 -83.0 9.6 -83.05 9.6 -85.05 8.0 -85.15 7.95 -90.1 4.0 Q-96.2 -0.95 -97.05 -2.4 L-96.95 -2.6 -96.95 -2.7 -97.1 -3.0 Q-96.7 -4.35 -92.3 -10.2 L-85.0 -19.45 -84.7 -19.8 M-50.55 -18.95 L-2.05 -17.4 -0.6 -17.4 -0.25 65.85 -75.4 66.4 -75.35 17.1 -68.8 21.1 -67.2 21.65 -67.0 21.6 Q-66.35 21.8 -64.6 20.15 L-61.85 17.3 -61.8 17.25 -46.85 -0.85 Q-42.5 -6.7 -42.05 -8.55 L-42.0 -9.0 -42.05 -9.15 -42.0 -9.25 -42.0 -9.3 Q-42.0 -9.7 -42.8 -10.75 L-44.75 -13.1 -44.8 -13.1 -50.55 -18.95 M-76.9 66.45 L-81.9 66.45 -81.1 65.2 Q-80.8 64.45 -80.8 63.65 L-81.35 23.35 -81.5 12.7 -76.85 16.05 -76.9 66.45" fill="#000000" fill-rule="evenodd" stroke="none" class="lines" />
    </g>
  </defs>
  <g transform="matrix(1.0, 0.0, 0.0, 1.0, 0.0, 0.0)">
    <use height="137.25" id="fill" transform="matrix(0.4132, 0.0, 0.0, 0.7195, 1.0253, 0.6904)" width="239.05" xlink:href="#sprite0" />
    <use height="139.05" id="lines" transform="matrix(0.4132, 0.0, 0.0, 0.7195, -0.0151, 0.0428)" width="242.15" xlink:href="#sprite1" />
  </g>
</svg>