<?xml version="1.0" encoding="UTF-8" standalone="no"?>
<svg xmlns:xlink="http://www.w3.org/1999/xlink" height="100%" width="100%" xmlns="http://www.w3.org/2000/svg" preserveAspectRatio="none" viewBox="0 0 100 100">
  <defs>
    <g id="sprite0" transform="matrix(1.0, 0.0, 0.0, 1.0, 61.2, 41.4)">
      <use height="82.8" transform="matrix(1.0, 0.0, 0.0, 1.0, -61.2, -41.4)" width="122.4" xlink:href="#shape0" />
    </g>
    <g id="shape0" transform="matrix(1.0, 0.0, 0.0, 1.0, 61.2, 41.4)">
      <path d="M60.15 -40.35 Q61.15 -39.3 61.2 -37.8 L61.2 37.8 Q61.15 39.3 60.15 40.35 59.1 41.35 57.6 41.4 L-57.6 41.4 Q-59.1 41.35 -60.15 40.35 -61.15 39.3 -61.2 37.8 L-61.2 -37.8 Q-61.15 -39.3 -60.15 -40.35 -59.1 -41.35 -57.6 -41.4 L57.6 -41.4 Q59.1 -41.35 60.15 -40.35" fill="#ffffff" fill-rule="evenodd" stroke="none" class="fill" />
    </g>
    <g id="sprite1" transform="matrix(1.0, 0.0, 0.0, 1.0, 62.7, 42.9)">
      <use height="85.8" transform="matrix(1.0, 0.0, 0.0, 1.0, -62.7, -42.9)" width="125.4" xlink:href="#shape1" />
    </g>
    <g id="shape1" transform="matrix(1.0, 0.0, 0.0, 1.0, 62.7, 42.9)">
      <path d="M-62.7 -42.9 L62.7 -42.9 62.7 42.9 -62.7 42.9 -62.7 -42.9 M-43.8 -39.9 L-54.95 -39.9 -59.7 -39.9 -59.7 -35.75 -59.7 -26.65 -59.7 -14.15 -59.7 0.0 -59.7 14.15 -59.7 26.65 -59.7 35.75 -59.7 39.9 -54.95 39.9 -43.8 39.9 -28.1 39.9 -9.65 39.9 9.65 39.9 28.1 39.9 43.8 39.9 54.95 39.9 59.7 39.9 59.7 35.75 59.7 26.65 59.7 14.15 59.7 0.0 59.7 -14.15 59.7 -26.65 59.7 -35.75 59.7 -39.9 54.95 -39.9 43.8 -39.9 28.1 -39.9 9.65 -39.9 -9.65 -39.9 -28.1 -39.9 -43.8 -39.9" fill="#000000" fill-rule="evenodd" stroke="none" class="lines" />
      <path d="M-30.45 -19.8 Q-30.45 -21.55 -31.65 -22.75 -32.85 -23.9 -34.6 -23.95 -36.35 -23.9 -37.55 -22.75 -38.7 -21.55 -38.75 -19.8 -38.7 -18.0 -37.55 -16.85 -36.35 -15.7 -34.6 -15.65 -32.8 -15.65 -31.65 -16.85 -30.5 -18.05 -30.45 -19.8 M-30.25 -24.15 Q-28.5 -22.4 -28.45 -19.8 -28.5 -17.2 -30.25 -15.45 -32.0 -13.7 -34.6 -13.65 -37.2 -13.7 -38.95 -15.45 -40.7 -17.2 -40.75 -19.8 -40.7 -22.4 -38.95 -24.15 -37.2 -25.9 -34.6 -25.95 -32.0 -25.9 -30.25 -24.15" fill="#000000" fill-rule="evenodd" stroke="none" class="lines" />
      <path d="M-34.6 23.8 Q-37.2 23.75 -38.95 22.0 -40.7 20.25 -40.75 17.65 -40.7 15.05 -38.95 13.3 -37.2 11.55 -34.6 11.5 -32.0 11.55 -30.25 13.3 -28.5 15.05 -28.45 17.65 -28.5 20.25 -30.25 22.0 -32.0 23.75 -34.6 23.8 M-30.45 17.65 Q-30.45 15.9 -31.65 14.7 -32.85 13.55 -34.6 13.5 -36.35 13.55 -37.55 14.7 -38.7 15.9 -38.75 17.65 -38.7 19.45 -37.55 20.6 -36.35 21.75 -34.6 21.8 -32.8 21.8 -31.65 20.6 -30.5 19.4 -30.45 17.65" fill="#000000" fill-rule="evenodd" stroke="none" class="lines" />
      <path d="M34.9 23.8 Q32.3 23.75 30.55 22.0 28.8 20.25 28.75 17.65 28.8 15.05 30.55 13.3 32.3 11.55 34.9 11.5 37.5 11.55 39.25 13.3 41.0 15.05 41.05 17.65 41.0 20.25 39.25 22.0 37.5 23.75 34.9 23.8 M39.05 17.65 Q39.05 15.9 37.85 14.7 36.65 13.55 34.9 13.5 33.15 13.55 31.95 14.7 30.8 15.9 30.75 17.65 30.8 19.45 31.95 20.6 33.15 21.75 34.9 21.8 36.7 21.8 37.85 20.6 39.0 19.4 39.05 17.65" fill="#000000" fill-rule="evenodd" stroke="none" class="lines" />
      <path d="M35.4 -13.65 Q32.8 -13.7 31.05 -15.45 29.3 -17.2 29.25 -19.8 29.3 -22.4 31.05 -24.15 32.8 -25.9 35.4 -25.95 38.0 -25.9 39.75 -24.15 41.5 -22.4 41.55 -19.8 41.5 -17.2 39.75 -15.45 38.0 -13.7 35.4 -13.65 M39.55 -19.8 Q39.55 -21.55 38.35 -22.75 37.15 -23.9 35.4 -23.95 33.65 -23.9 32.45 -22.75 31.3 -21.55 31.25 -19.8 31.3 -18.0 32.45 -16.85 33.65 -15.7 35.4 -15.65 37.2 -15.65 38.35 -16.85 39.5 -18.05 39.55 -19.8" fill="#000000" fill-rule="evenodd" stroke="none" class="lines" />
    </g>
  </defs>
  <g transform="matrix(1.0, 0.0, 0.0, 1.0, 0.0, 0.0)">
    <use height="82.8" id="fill" transform="matrix(0.7975, 0.0, 0.0, 1.1655, 1.1958, 1.7484)" width="122.4" xlink:href="#sprite0" />
    <use height="85.8" id="lines" transform="matrix(0.7975, 0.0, 0.0, 1.1655, -0.0004, 0.0002)" width="125.4" xlink:href="#sprite1" />
  </g>
</svg>