<?xml version="1.0" encoding="UTF-8" standalone="no"?>
<svg xmlns:xlink="http://www.w3.org/1999/xlink" height="100%" width="100%" xmlns="http://www.w3.org/2000/svg" preserveAspectRatio="none" viewBox="0 0 100 100">
  <defs>
    <g id="sprite0" transform="matrix(1.0, 0.0, 0.0, 1.0, 161.75, 94.05)">
      <use height="188.15" transform="matrix(1.0, 0.0, 0.0, 1.0, -161.75, -94.05)" width="323.5" xlink:href="#shape0" />
    </g>
    <g id="shape0" transform="matrix(1.0, 0.0, 0.0, 1.0, 161.75, 94.05)">
      <path d="M-155.85 -83.45 L-161.75 41.1 Q-161.75 43.05 -160.4 44.5 -158.95 46.0 -156.8 46.0 L-133.45 45.85 -131.55 45.45 -131.55 45.9 -118.3 45.8 -118.35 45.85 -115.15 45.75 -45.2 45.15 46.7 45.3 46.7 45.15 48.85 45.15 48.85 50.5 48.2 50.55 Q46.65 50.75 45.6 51.9 44.55 53.05 44.55 54.65 L44.55 55.95 Q44.55 57.5 45.6 58.7 46.65 59.85 48.2 60.05 L48.85 60.1 48.85 64.35 45.35 64.35 Q43.65 64.35 42.4 65.55 41.2 66.75 41.2 68.45 L41.2 90.0 Q41.2 91.7 42.4 92.9 43.65 94.1 45.35 94.1 L124.95 94.1 Q126.65 94.1 127.85 92.9 129.05 91.7 129.05 90.0 L129.05 68.45 Q129.05 66.75 127.85 65.55 126.65 64.35 124.95 64.35 L121.2 64.35 121.2 60.1 121.85 60.05 Q123.45 59.95 124.6 58.75 125.7 57.55 125.7 55.95 L125.7 54.65 Q125.7 53.05 124.6 51.85 123.45 50.65 121.85 50.55 L121.2 50.5 121.2 45.3 128.95 45.35 128.85 45.4 137.85 45.15 139.4 45.15 139.4 45.0 156.8 44.9 Q158.95 44.8 160.4 43.35 161.75 41.9 161.75 39.9 L156.1 -84.35 Q156.05 -86.25 154.65 -87.65 153.3 -89.05 151.3 -89.25 L150.8 -89.3 150.7 -89.8 Q150.25 -91.65 148.8 -92.85 147.3 -94.05 145.5 -94.05 L61.6 -94.05 Q60.1 -94.05 58.85 -93.2 L58.45 -92.9 58.05 -93.15 Q56.7 -94.05 55.25 -94.05 L-50.75 -94.05 Q-52.05 -94.05 -53.4 -93.25 L-53.8 -93.05 -54.15 -93.25 Q-55.45 -94.05 -56.8 -94.05 L-146.15 -94.05 Q-148.2 -94.05 -149.8 -92.6 -151.4 -91.1 -151.55 -89.05 L-151.6 -88.45 -152.2 -88.35 Q-153.65 -88.25 -154.65 -86.85 -155.65 -85.5 -155.85 -83.45 M115.65 64.35 L54.4 64.35 54.4 60.1 115.65 60.1 115.65 64.35 M115.65 50.5 L54.4 50.5 54.4 45.15 115.65 45.3 115.65 50.5" fill="#ffffff" fill-rule="evenodd" stroke="none" class="fill" />
    </g>
    <g id="sprite1" transform="matrix(1.0, 0.0, 0.0, 1.0, 162.5, 94.8)">
      <use height="189.6" transform="matrix(1.0, 0.0, 0.0, 1.0, -162.5, -94.8)" width="325.0" xlink:href="#shape1" />
    </g>
    <g id="shape1" transform="matrix(1.0, 0.0, 0.0, 1.0, 162.5, 94.8)">
      <path d="M55.25 -94.8 L-50.75 -94.8 Q-52.25 -94.8 -53.8 -93.9 -55.2 -94.8 -56.8 -94.8 L-146.15 -94.8 Q-148.5 -94.8 -150.3 -93.15 -152.1 -91.5 -152.3 -89.15 -153.95 -88.95 -155.15 -87.4 -156.4 -85.85 -156.6 -83.55 L-162.45 40.75 -162.5 41.05 Q-162.5 43.35 -160.9 44.95 -159.2 46.7 -156.75 46.7 L-133.45 46.5 -132.3 46.3 -132.3 46.55 -45.2 45.85 47.45 46.0 47.45 45.85 48.1 45.85 48.1 49.8 Q46.3 50.0 45.1 51.4 43.85 52.75 43.85 54.6 L43.85 55.9 Q43.85 57.75 45.1 59.1 46.3 60.45 48.1 60.7 L48.1 63.6 45.35 63.6 Q43.35 63.6 41.9 65.0 40.5 66.4 40.5 68.45 L40.5 89.95 Q40.5 91.95 41.9 93.35 43.35 94.8 45.35 94.8 L124.95 94.8 Q126.95 94.8 128.35 93.35 129.8 91.95 129.8 89.95 L129.8 68.45 Q129.8 66.45 128.35 65.0 126.95 63.6 124.95 63.6 L121.9 63.6 121.9 60.75 Q123.8 60.6 125.15 59.2 126.45 57.8 126.45 55.9 L126.45 54.6 Q126.45 52.7 125.15 51.3 123.8 49.9 121.9 49.8 L121.9 46.0 140.15 45.8 140.15 45.7 156.8 45.55 Q159.2 45.55 160.95 43.8 162.5 42.1 162.5 39.85 L156.8 -84.4 Q156.75 -86.6 155.15 -88.2 153.6 -89.8 151.4 -90.0 150.85 -92.05 149.25 -93.4 147.55 -94.8 145.5 -94.8 L61.6 -94.8 Q59.85 -94.8 58.45 -93.8 56.85 -94.8 55.25 -94.8 M58.3 -88.9 L59.4 -69.7 58.95 -68.6 58.7 -68.3 58.6 -68.2 57.95 -67.75 57.25 -67.5 56.75 -67.45 -51.6 -67.45 -52.9 -67.8 -53.5 -68.25 -53.6 -68.3 -54.0 -68.85 -54.05 -68.95 -54.35 -70.3 -53.7 -88.9 -53.5 -89.95 -52.95 -90.75 Q-52.05 -91.8 -50.75 -91.8 L55.25 -91.8 Q56.7 -91.8 57.7 -90.55 L58.2 -89.45 58.3 -88.9 M59.4 -90.6 L59.65 -90.95 Q60.4 -91.8 61.6 -91.8 L145.5 -91.8 Q146.65 -91.8 147.6 -90.95 148.55 -90.05 148.65 -88.9 L148.65 -88.6 150.2 -70.25 Q150.3 -69.15 149.55 -68.25 L148.75 -67.7 147.65 -67.45 63.1 -67.45 62.0 -67.65 61.15 -68.2 60.65 -68.7 Q60.95 -69.5 60.9 -70.35 L59.8 -89.0 59.4 -90.6 M57.2 -65.95 L47.2 -43.9 45.8 -40.95 45.7 -40.8 45.5 -40.55 45.2 -40.2 44.75 -39.8 44.0 -39.3 42.65 -38.7 41.9 -38.6 41.65 -38.55 -41.5 -38.55 Q-42.95 -38.55 -44.3 -39.75 L-44.8 -40.25 -44.85 -40.3 -45.05 -40.6 -45.3 -41.0 -45.6 -41.7 -53.4 -65.75 -53.5 -66.4 -53.0 -66.2 -51.6 -65.95 56.75 -65.95 57.2 -66.0 57.2 -65.95 M63.1 -65.95 L147.65 -65.95 148.45 -66.05 148.5 -65.9 148.0 -64.9 131.75 -47.6 126.45 -41.95 126.3 -41.75 125.7 -41.15 125.35 -40.8 124.05 -39.85 122.55 -39.2 119.7 -38.6 48.3 -38.8 Q47.35 -38.8 47.0 -39.3 L46.95 -39.65 47.05 -40.1 47.1 -40.25 58.35 -64.25 Q59.15 -65.7 61.0 -66.5 61.95 -65.95 63.1 -65.95 M44.0 -37.6 L44.4 43.0 -43.95 42.85 -44.3 -37.9 Q-42.85 -37.05 -41.5 -37.05 L41.65 -37.05 41.9 -37.1 42.65 -37.2 44.0 -37.6 M45.7 -38.6 Q46.4 -37.3 48.3 -37.3 L119.7 -37.1 Q121.1 -37.1 122.55 -37.6 122.7 -23.7 123.4 -1.25 124.3 26.2 124.25 41.45 L124.25 43.0 45.9 42.85 45.5 -38.5 45.7 -38.65 45.7 -38.6 M150.8 -87.1 Q152.0 -87.15 152.9 -86.3 153.75 -85.45 153.8 -84.25 L159.5 39.7 Q159.5 40.95 158.75 41.7 158.0 42.55 156.8 42.55 L135.85 42.75 Q134.25 42.75 133.4 41.4 132.9 40.65 132.9 39.9 L130.55 -44.1 149.15 -63.9 149.2 -63.95 Q150.3 -65.45 149.85 -66.6 L150.65 -67.25 Q151.85 -68.6 151.7 -70.35 L150.3 -87.1 150.8 -87.1 M125.75 -39.15 L126.45 -39.75 127.2 -40.55 129.1 -42.55 131.4 39.95 131.7 41.4 Q132.15 42.4 132.7 42.9 L125.75 43.0 125.75 40.3 Q125.75 24.0 124.9 -1.3 124.15 -26.1 124.05 -38.2 L125.75 -39.15 M120.4 46.0 L120.4 49.75 116.45 49.75 116.45 46.0 120.4 46.0 M120.4 63.6 L116.45 63.6 116.45 60.75 120.4 60.75 120.4 63.6 M114.95 63.6 L55.1 63.6 55.1 60.75 114.95 60.75 114.95 63.6 M121.9 52.3 Q122.75 52.4 123.35 53.05 123.95 53.75 123.95 54.6 L123.95 55.9 Q123.95 57.9 121.9 58.25 L48.1 58.2 Q46.35 57.75 46.35 55.9 L46.35 54.6 Q46.35 52.8 48.1 52.35 L48.7 52.25 121.6 52.25 121.9 52.3 M127.3 68.45 L127.3 89.95 Q127.3 90.9 126.6 91.6 125.95 92.3 124.95 92.3 L45.35 92.3 Q44.4 92.3 43.7 91.6 43.0 90.9 43.0 89.95 L43.0 68.45 Q43.0 67.45 43.7 66.8 44.4 66.1 45.35 66.1 L124.95 66.1 Q125.95 66.1 126.6 66.8 127.3 67.45 127.3 68.45 M114.95 49.75 L55.1 49.75 55.1 45.85 114.95 46.0 114.95 49.75 M53.6 45.85 L53.6 49.75 49.6 49.75 49.6 45.85 53.6 45.85 M49.6 60.75 L53.6 60.75 53.6 63.6 49.6 63.6 49.6 60.75 M-146.15 -91.8 L-56.8 -91.8 Q-55.6 -91.8 -54.85 -90.95 L-54.75 -90.8 -55.2 -88.95 -55.25 -88.75 -55.85 -70.35 -55.65 -69.0 -56.2 -68.3 -57.05 -67.75 -58.3 -67.45 -148.3 -67.45 -149.4 -67.7 -150.2 -68.25 Q-150.95 -69.05 -150.85 -70.25 L-149.3 -88.9 Q-149.2 -90.1 -148.25 -90.95 -147.35 -91.8 -146.15 -91.8 M-152.95 -85.4 Q-152.45 -86.2 -152.0 -86.2 L-151.05 -85.85 -152.35 -70.35 Q-152.5 -68.6 -151.3 -67.25 L-150.5 -66.6 Q-151.0 -65.4 -149.75 -64.0 L-149.75 -63.95 -130.45 -43.9 -130.85 -43.05 -131.1 -41.6 -130.65 40.65 -130.7 41.2 -130.8 41.5 Q-131.4 43.5 -133.5 43.5 L-156.8 43.7 Q-157.95 43.7 -158.75 42.9 -159.5 42.05 -159.5 40.9 L-153.6 -83.3 Q-153.5 -84.5 -152.95 -85.4 M-149.1 -65.95 L-149.1 -66.05 -148.3 -65.95 -58.3 -65.95 Q-57.15 -65.95 -56.0 -66.6 L-54.95 -65.95 -54.8 -65.3 -47.05 -41.25 -46.4 -39.85 -46.35 -39.85 -46.4 -39.75 -46.5 -39.45 Q-47.0 -38.85 -48.0 -38.85 L-120.45 -39.4 -123.2 -39.95 -123.95 -40.25 -126.2 -41.65 -129.35 -44.95 -129.4 -45.0 -148.65 -64.95 -149.1 -65.95 M-124.7 -38.95 L-124.7 43.5 -129.3 43.55 -129.3 41.7 -129.25 41.4 -129.15 40.65 -129.35 -42.75 -127.25 -40.6 -124.7 -38.95 M-120.45 -37.9 L-48.0 -37.35 Q-47.2 -37.35 -46.35 -37.7 L-45.8 -38.05 -45.45 42.85 -123.2 43.4 -123.2 -38.4 -120.45 -37.9" fill="#000000" fill-rule="evenodd" stroke="none" class="lines" />
    </g>
  </defs>
  <g transform="matrix(1.0, 0.0, 0.0, 1.0, 0.0, 0.0)">
    <use height="188.15" id="fill" transform="matrix(0.3077, 0.0, 0.0, 0.5274, 0.2306, 0.5461)" width="323.5" xlink:href="#sprite0" />
    <use height="189.6" id="lines" transform="matrix(0.3077, 0.0, 0.0, 0.5274, -0.0002, 0.0006)" width="325.0" xlink:href="#sprite1" />
  </g>
</svg>