<?xml version="1.0" encoding="UTF-8" standalone="no"?>
<svg xmlns:xlink="http://www.w3.org/1999/xlink" height="100%" width="100%" xmlns="http://www.w3.org/2000/svg" preserveAspectRatio="none" viewBox="0 0 100 100">
  <defs>
    <g id="sprite0" transform="matrix(1.0, 0.0, 0.0, 1.0, 159.95, 68.35)">
      <use height="136.7" transform="matrix(1.0, 0.0, 0.0, 1.0, -159.95, -68.35)" width="319.9" xlink:href="#shape0" />
    </g>
    <g id="shape0" transform="matrix(1.0, 0.0, 0.0, 1.0, 159.95, 68.35)">
      <path d="M-154.15 -59.55 L-159.95 62.65 Q-160.1 64.95 -158.45 66.7 -156.8 68.35 -154.5 68.35 L-125.35 68.15 -124.25 68.05 112.85 66.4 112.85 66.7 129.65 66.5 129.65 66.4 154.5 66.25 Q156.9 66.25 158.45 64.55 160.1 62.8 159.95 60.5 L154.4 -61.4 Q154.25 -64.75 151.1 -66.3 L150.9 -66.6 Q149.45 -68.35 147.0 -68.35 L-148.25 -68.35 Q-150.6 -68.35 -152.2 -66.65 -153.8 -64.95 -153.65 -62.6 L-153.6 -61.6 -154.15 -59.55" fill="#ffffff" fill-rule="evenodd" stroke="none" class="fill" />
    </g>
    <g id="sprite1" transform="matrix(1.0, 0.0, 0.0, 1.0, 162.7, 69.55)">
      <use height="139.1" transform="matrix(1.0, 0.0, 0.0, 1.0, -162.7, -69.55)" width="325.4" xlink:href="#shape1" />
    </g>
    <g id="shape1" transform="matrix(1.0, 0.0, 0.0, 1.0, 162.7, 69.55)">
      <path d="M42.25 -19.45 L6.15 -18.95 -45.7 -19.1 Q-74.6 -19.7 -92.3 -21.6 L-94.85 -21.85 -94.85 -21.9 -96.45 -26.15 Q-97.2 -27.8 -97.85 -28.0 L-97.95 -28.1 -100.05 -28.35 Q-104.6 -28.25 -116.5 -25.8 L-118.35 -26.35 -118.5 -26.4 -123.5 -28.2 Q-141.9 -35.8 -149.65 -51.9 -151.7 -56.15 -152.6 -59.9 L-153.25 -63.05 -153.3 -63.35 -153.35 -63.85 Q-153.5 -64.9 -152.75 -65.8 L-152.7 -65.8 Q-151.95 -66.65 -150.8 -66.65 L149.5 -66.65 Q150.65 -66.65 151.2 -65.95 L151.2 -65.9 151.5 -65.15 151.45 -64.15 151.35 -63.8 Q150.3 -60.85 148.35 -57.35 140.85 -43.95 125.65 -32.1 L125.6 -32.05 124.6 -31.3 124.35 -31.05 123.85 -31.05 122.5 -30.75 122.4 -30.7 Q120.0 -29.95 115.75 -28.05 L114.25 -27.4 108.95 -24.8 105.9 -24.2 Q89.95 -21.1 57.0 -19.85 L42.25 -19.45 M47.1 -18.05 Q84.05 -19.05 102.0 -22.0 L104.15 -22.35 92.3 -15.35 90.65 -14.0 90.2 -13.4 90.0 -12.95 Q89.85 -12.65 90.0 -11.8 L90.45 -9.7 96.45 7.95 Q101.1 20.1 103.35 24.05 L103.55 24.4 Q104.4 25.75 104.95 25.85 L105.05 25.9 107.2 25.65 107.25 25.65 113.9 23.0 115.3 22.35 116.2 64.95 44.15 65.75 43.75 -17.45 47.1 -18.05 M42.25 -17.95 L42.65 65.95 -40.45 65.8 -40.8 -17.45 -39.8 -17.5 Q-20.2 -17.25 1.7 -17.4 L42.25 -17.95 M153.5 -67.7 Q151.95 -69.55 149.5 -69.55 L-150.8 -69.5 Q-153.2 -69.5 -154.8 -67.8 -156.45 -66.0 -156.3 -63.65 L-156.25 -62.65 -156.8 -60.6 -162.7 63.75 Q-162.85 66.1 -161.2 67.85 -159.6 69.55 -157.15 69.55 L-127.5 69.35 -126.35 69.2 114.8 67.55 114.8 67.85 131.9 67.65 131.9 67.55 157.15 67.4 Q159.6 67.3 161.2 65.65 162.85 63.9 162.7 61.55 L157.05 -62.45 Q156.9 -65.95 153.7 -67.45 L153.5 -67.7 M154.2 -62.3 L159.85 61.65 Q159.85 62.9 159.1 63.65 158.35 64.5 157.15 64.5 L128.5 64.7 127.65 64.55 126.55 63.95 126.1 63.45 Q125.6 62.7 125.6 61.85 L125.15 17.55 125.25 17.5 127.35 16.4 127.4 16.4 137.95 10.35 138.2 10.15 140.2 8.6 140.7 7.95 140.75 7.75 Q141.5 6.8 137.5 -3.75 L133.8 -13.15 126.35 -29.25 126.2 -29.45 125.7 -30.2 126.45 -30.8 126.7 -31.0 Q137.85 -39.8 144.95 -49.3 148.9 -54.6 151.55 -60.2 L152.65 -62.9 152.9 -63.75 153.05 -64.5 Q154.15 -63.7 154.2 -62.3 M93.85 -14.65 L100.35 -18.5 Q104.35 -20.75 109.8 -23.5 L115.75 -26.4 122.55 -29.3 123.15 -29.45 123.5 -29.55 123.85 -29.6 123.9 -29.55 124.15 -29.35 124.5 -29.35 124.65 -29.15 125.25 -28.2 128.55 -21.5 128.6 -21.45 131.5 -14.85 Q139.15 3.35 139.45 6.8 L139.3 6.95 139.25 7.45 138.05 8.5 136.1 9.75 136.05 9.8 127.4 14.7 127.35 14.7 125.25 15.8 125.1 15.9 116.9 20.0 116.65 20.1 116.15 20.35 115.95 20.45 115.4 20.7 115.25 20.75 113.85 21.4 107.1 24.2 105.8 24.5 105.5 24.25 105.2 24.2 104.5 23.1 Q102.8 19.95 99.3 11.2 93.75 -3.05 91.9 -9.9 L91.45 -11.95 91.45 -12.45 91.55 -12.75 91.9 -13.15 93.85 -14.65 M123.65 18.3 L124.1 61.85 Q124.1 62.55 124.45 63.45 L124.45 63.5 Q124.75 64.2 125.35 64.9 L117.7 64.95 117.65 65.0 117.65 63.5 Q117.65 46.6 116.75 23.85 L116.7 21.7 116.9 21.6 123.15 18.55 123.3 18.5 Q123.5 18.35 123.65 18.3 M-152.95 -55.8 Q-150.65 -49.5 -146.8 -44.25 -138.55 -32.8 -124.05 -26.8 L-119.55 -25.2 -134.05 -21.45 Q-136.35 -20.6 -136.65 -20.1 L-136.7 -19.95 Q-137.45 -19.35 -136.15 -12.95 -134.4 -4.1 -131.2 7.35 L-130.95 8.3 Q-128.5 16.85 -127.15 19.8 L-126.65 20.8 -125.8 21.7 -125.75 21.75 -125.7 21.75 -125.05 21.9 -124.55 21.9 -124.0 63.6 -124.1 64.35 -124.5 65.2 -124.8 65.6 -125.5 66.15 -126.8 66.45 -128.6 66.5 -156.45 66.65 Q-157.6 66.65 -158.4 65.85 -159.15 65.0 -159.15 63.85 L-153.95 -50.65 -153.9 -51.0 -153.5 -57.5 -152.95 -55.9 -152.95 -55.8 M-130.7 -20.95 L-113.15 -24.95 Q-104.35 -26.65 -100.3 -26.9 L-98.95 -26.85 -98.7 -26.5 -98.25 -26.45 -97.65 -25.2 -96.25 -21.3 -96.15 -20.95 -91.3 -3.55 Q-88.4 7.95 -88.85 9.45 L-88.95 9.65 -89.75 10.2 -89.8 10.2 -90.85 10.75 Q-93.65 12.0 -100.6 14.25 -109.05 17.0 -117.05 19.05 L-117.15 19.05 -117.8 19.25 -117.85 19.25 -123.35 20.4 -123.8 20.45 -124.7 20.5 -124.95 20.25 -125.05 20.2 -125.35 20.15 -125.95 18.9 -127.7 13.85 Q-130.85 4.1 -133.75 -8.5 -135.7 -16.95 -135.55 -18.8 L-135.4 -18.95 -135.25 -19.35 -134.45 -19.75 -134.25 -19.8 -131.0 -20.85 -130.7 -20.95 M-93.15 -20.2 Q-74.4 -18.1 -43.9 -17.6 L-43.15 -17.6 -42.85 -17.55 -42.3 -17.55 -41.95 65.8 -117.05 66.35 -117.05 20.6 -111.25 19.1 Q-97.75 15.35 -91.1 12.45 L-88.75 11.3 -88.2 10.95 -87.75 10.5 -87.65 10.35 Q-86.9 9.7 -88.15 3.65 -89.25 -1.9 -91.2 -9.25 L-92.9 -15.5 -93.0 -15.75 -94.35 -20.3 -93.15 -20.2 M-122.8 65.2 Q-122.5 64.45 -122.5 63.6 L-123.05 21.8 -118.55 20.95 -118.55 66.4 -123.55 66.45 -122.8 65.2" fill="#000000" fill-rule="evenodd" stroke="none" class="lines" />
    </g>
  </defs>
  <g transform="matrix(1.0, 0.0, 0.0, 1.0, 0.0, 0.0)">
    <use height="136.7" id="fill" transform="matrix(0.3073, 0.0, 0.0, 0.7189, 0.8454, 0.863)" width="319.9" xlink:href="#sprite0" />
    <use height="139.1" id="lines" transform="matrix(0.3073, 0.0, 0.0, 0.7189, 0.0003, 0.0003)" width="325.4" xlink:href="#sprite1" />
  </g>
</svg>