<?xml version="1.0" encoding="UTF-8" standalone="no"?>
<svg xmlns:xlink="http://www.w3.org/1999/xlink" height="100%" width="100%" xmlns="http://www.w3.org/2000/svg" preserveAspectRatio="none" viewBox="0 0 100 100">
  <defs>
    <g id="sprite0" transform="matrix(1.0, 0.0, 0.0, 1.0, 110.9, 68.3)">
      <use height="136.6" transform="matrix(1.0, 0.0, 0.0, 1.0, -110.9, -68.3)" width="221.8" xlink:href="#shape0" />
    </g>
    <g id="shape0" transform="matrix(1.0, 0.0, 0.0, 1.0, 110.9, 68.3)">
      <path d="M110.45 -58.2 L110.7 -56.9 110.8 -56.55 110.9 8.75 Q110.9 22.2 106.75 33.0 102.65 43.85 94.9 51.55 87.2 59.25 76.4 63.4 65.6 67.5 52.15 67.55 L50.6 67.6 47.0 67.7 42.65 67.8 39.0 67.9 37.5 67.95 -97.6 67.95 -98.25 68.1 -98.9 68.2 -100.1 68.3 -100.65 68.25 -101.15 68.2 Q-103.95 67.85 -106.15 66.3 -108.35 64.75 -109.6 62.35 -110.85 60.0 -110.85 57.2 L-110.9 53.25 -110.9 42.7 -110.9 27.45 -110.9 9.35 -110.9 -9.7 -110.9 -27.75 -110.9 -43.05 -110.9 -53.55 -110.9 -57.5 Q-110.9 -59.7 -110.1 -61.65 -109.3 -63.6 -107.75 -65.15 -106.2 -66.65 -104.25 -67.5 -102.3 -68.3 -100.1 -68.3 L96.8 -68.3 Q99.75 -68.25 102.55 -66.9 105.35 -65.55 107.45 -63.3 109.55 -61.0 110.45 -58.2" fill="#ffffff" fill-rule="evenodd" stroke="none" class="fill" />
    </g>
    <g id="sprite1" transform="matrix(1.0, 0.0, 0.0, 1.0, 111.6, 69.0)">
      <use height="138.05" transform="matrix(1.0, 0.0, 0.0, 1.0, -111.6, -69.0)" width="223.25" xlink:href="#shape1" />
    </g>
    <g id="shape1" transform="matrix(1.0, 0.0, 0.0, 1.0, 111.6, 69.0)">
      <path d="M-83.2 -41.85 L-90.1 -33.45 -95.85 -25.9 Q-98.25 -22.6 -98.75 -21.35 L-98.8 -21.15 -98.75 -21.1 -98.65 -20.9 -98.65 -20.8 -98.75 -20.6 Q-98.1 -19.6 -95.3 -17.1 L-88.45 -11.5 -80.35 -5.35 -79.85 -5.0 -78.8 -4.25 -77.8 -3.5 -77.3 -3.15 -72.05 0.4 Q-69.85 1.75 -69.05 1.95 L-68.65 1.75 -68.5 1.85 Q-67.5 1.25 -64.95 -1.5 L-59.2 -8.1 -52.9 -15.9 -47.65 -22.85 Q-45.55 -25.85 -45.2 -26.85 L-45.4 -27.2 -45.4 -27.25 -45.25 -27.55 Q-45.65 -28.45 -47.8 -30.75 L-53.15 -36.05 -54.2 -37.05 -54.75 -37.55 -55.25 -38.05 -56.35 -39.05 -63.3 -45.25 -69.3 -50.2 Q-71.85 -52.2 -72.8 -52.5 L-73.15 -52.4 -73.3 -52.45 -77.05 -48.9 -83.2 -41.85 M102.85 -67.55 Q105.8 -66.15 108.0 -63.7 110.2 -61.3 111.15 -58.35 L111.4 -57.15 111.5 -56.55 111.5 -5.35 111.55 -3.85 111.55 -0.35 111.6 3.8 111.65 7.3 111.65 8.8 Q111.6 22.4 107.45 33.35 103.25 44.3 95.45 52.1 87.65 59.9 76.7 64.1 65.8 68.25 52.2 68.3 L50.65 68.35 47.05 68.45 42.7 68.55 39.05 68.65 37.5 68.7 -97.45 68.7 -98.75 68.95 -100.1 69.05 -101.25 68.95 Q-104.15 68.55 -106.5 66.9 -108.8 65.25 -110.15 62.75 -111.55 60.2 -111.55 57.2 L-111.6 -57.5 Q-111.6 -59.8 -110.75 -61.9 -109.85 -63.95 -108.2 -65.6 -106.6 -67.25 -104.5 -68.15 -102.4 -69.0 -100.1 -69.0 L96.85 -69.0 Q99.95 -68.95 102.85 -67.55 M64.1 -37.2 L42.1 -36.7 17.4 -36.4 -7.85 -36.2 -31.4 -36.1 -51.1 -36.05 -45.85 -30.6 Q-43.8 -28.3 -43.7 -27.5 L-43.7 -27.45 -43.7 -27.35 -43.7 -27.15 Q-43.75 -25.95 -45.75 -23.0 -47.7 -20.05 -50.6 -16.35 L-56.45 -9.15 -61.4 -3.35 -63.55 -0.9 -66.5 2.15 Q-67.55 3.1 -68.0 3.3 L-68.7 3.4 -68.9 3.45 Q-69.7 3.45 -71.9 2.15 L-77.25 -1.25 -77.75 -1.6 -77.8 11.75 Q-77.9 18.7 -78.3 25.55 -78.7 32.45 -79.4 38.6 -80.15 44.8 -81.35 49.7 -82.55 54.55 -84.25 57.55 -86.0 60.45 -87.8 62.45 -89.6 64.45 -91.3 65.7 L-91.15 65.7 -77.4 65.7 -59.0 65.7 -37.9 65.7 -16.1 65.7 4.3 65.7 21.4 65.7 33.1 65.7 37.45 65.7 39.0 65.65 42.6 65.55 46.95 65.45 50.6 65.35 52.15 65.3 Q65.05 65.25 75.45 61.3 85.85 57.35 93.3 49.9 100.7 42.5 104.65 32.1 108.6 21.7 108.65 8.8 L108.65 7.35 108.6 3.85 108.55 -0.35 108.5 -3.85 108.5 -5.35 108.5 -8.5 108.5 -16.6 108.5 -27.4 108.5 -38.75 108.5 -48.45 108.5 -48.75 Q106.8 -46.25 103.0 -43.7 99.25 -41.15 92.65 -39.0 L91.4 -38.7 81.25 -37.85 64.1 -37.2 M8.3 -38.3 L31.55 -38.55 53.25 -38.9 71.7 -39.4 85.2 -40.05 92.05 -40.9 Q97.8 -42.8 101.25 -44.95 104.7 -47.1 106.35 -49.25 108.0 -51.35 108.5 -53.1 L108.95 -55.7 108.9 -56.55 108.75 -57.15 108.45 -58.05 Q107.55 -60.1 105.9 -61.8 104.25 -63.55 102.1 -64.6 100.0 -65.7 97.75 -65.95 L96.85 -66.0 -100.1 -66.0 -100.95 -65.95 Q-104.15 -65.65 -106.45 -63.35 -107.75 -62.05 -108.4 -60.45 -109.1 -58.8 -109.1 -57.0 L-109.05 57.7 Q-109.0 61.1 -106.95 63.6 -104.95 66.05 -101.75 66.85 L-100.25 67.05 -100.05 67.05 -98.55 66.9 Q-97.2 66.7 -95.1 65.7 -93.05 64.75 -90.7 62.55 -88.35 60.4 -86.0 56.55 -84.3 53.65 -83.15 48.75 -82.0 43.8 -81.3 37.55 -80.6 31.3 -80.25 24.35 L-79.8 10.35 -79.8 -3.05 -80.3 -3.4 -87.45 -8.75 -94.0 -14.05 -98.75 -18.4 -100.25 -20.25 -100.35 -20.6 -100.35 -20.65 -100.3 -20.75 -100.3 -20.85 -100.25 -21.35 -98.75 -24.3 -94.7 -29.9 -89.5 -36.5 -84.2 -42.8 -80.15 -47.55 -78.45 -49.5 -75.35 -52.65 -73.8 -53.9 -73.1 -54.05 -72.95 -54.1 Q-72.05 -54.05 -69.1 -51.8 L-62.15 -46.15 -54.25 -39.05 -53.15 -38.05 -35.75 -38.05 -14.7 -38.15 8.3 -38.3" fill="#000000" fill-rule="evenodd" stroke="none" class="lines" />
      <path d="M63.1 -13.0 L64.9 -14.15 67.0 -14.4 69.15 -14.15 Q70.15 -13.8 70.9 -13.0 72.3 -11.6 72.35 -9.55 L72.3 -9.1 72.35 -8.65 Q72.3 -6.65 70.9 -5.2 69.3 -3.65 67.0 -3.8 64.75 -3.65 63.1 -5.2 61.7 -6.65 61.7 -8.65 L61.7 -9.1 61.7 -9.55 Q61.75 -11.6 63.1 -13.0 M67.1 -12.9 L66.95 -12.9 Q65.3 -13.05 64.15 -11.95 63.1 -10.8 63.2 -9.2 L63.2 -9.05 Q63.1 -7.4 64.15 -6.25 65.3 -5.15 66.95 -5.3 L67.1 -5.3 Q68.75 -5.15 69.85 -6.25 70.95 -7.4 70.8 -9.05 L70.8 -9.2 Q70.95 -10.8 69.85 -11.95 68.7 -13.05 67.1 -12.9" fill="#000000" fill-rule="evenodd" stroke="none" class="lines" />
      <path d="M13.95 -13.0 Q14.75 -13.8 15.75 -14.15 L17.85 -14.4 20.0 -14.15 21.75 -13.0 Q23.15 -11.6 23.2 -9.55 L23.15 -9.1 23.2 -8.65 Q23.15 -6.65 21.75 -5.2 20.15 -3.65 17.85 -3.8 15.6 -3.65 13.95 -5.2 12.55 -6.65 12.55 -8.65 L12.55 -9.1 12.55 -9.55 Q12.6 -11.6 13.95 -13.0 M17.95 -12.9 L17.8 -12.9 Q16.15 -13.05 15.0 -11.95 13.95 -10.8 14.05 -9.2 L14.05 -9.05 Q13.95 -7.4 15.0 -6.25 16.15 -5.15 17.8 -5.3 L17.95 -5.3 Q19.6 -5.15 20.7 -6.25 21.8 -7.4 21.65 -9.05 L21.65 -9.2 Q21.8 -10.8 20.7 -11.95 19.55 -13.05 17.95 -12.9" fill="#000000" fill-rule="evenodd" stroke="none" class="lines" />
      <path d="M17.95 25.6 L17.8 25.6 Q16.15 25.45 15.0 26.55 13.95 27.7 14.05 29.3 L14.05 29.45 Q13.95 31.1 15.0 32.25 16.15 33.35 17.8 33.2 L17.95 33.2 Q19.6 33.35 20.7 32.25 21.8 31.1 21.65 29.45 L21.65 29.3 Q21.8 27.7 20.7 26.55 19.55 25.45 17.95 25.6 M17.85 24.1 L20.0 24.35 21.75 25.5 Q23.15 26.9 23.2 28.95 L23.15 29.4 23.2 29.85 Q23.15 31.85 21.75 33.3 20.15 34.85 17.85 34.7 15.6 34.85 13.95 33.3 12.55 31.85 12.55 29.85 L12.55 29.4 12.55 28.95 Q12.6 26.9 13.95 25.5 14.75 24.7 15.75 24.35 L17.85 24.1" fill="#000000" fill-rule="evenodd" stroke="none" class="lines" />
      <path d="M-31.65 -12.9 L-31.8 -12.9 Q-33.45 -13.05 -34.6 -11.95 -35.65 -10.8 -35.55 -9.2 L-35.55 -9.05 Q-35.65 -7.4 -34.6 -6.25 -33.45 -5.15 -31.8 -5.3 L-31.65 -5.3 Q-30.0 -5.15 -28.9 -6.25 -27.8 -7.4 -27.95 -9.05 L-27.95 -9.2 Q-27.8 -10.8 -28.9 -11.95 -30.05 -13.05 -31.65 -12.9 M-29.6 -14.15 L-27.85 -13.0 Q-26.45 -11.6 -26.4 -9.55 L-26.45 -9.1 -26.4 -8.65 Q-26.45 -6.65 -27.85 -5.2 -29.45 -3.65 -31.75 -3.8 -34.0 -3.65 -35.65 -5.2 -37.05 -6.65 -37.05 -8.65 L-37.05 -9.1 -37.05 -9.55 Q-37.05 -11.6 -35.65 -13.0 L-33.85 -14.15 -31.75 -14.4 -29.6 -14.15" fill="#000000" fill-rule="evenodd" stroke="none" class="lines" />
      <path d="M-27.95 29.45 L-27.95 29.3 Q-27.8 27.7 -28.9 26.55 -30.05 25.45 -31.65 25.6 L-31.8 25.6 Q-33.45 25.45 -34.6 26.55 -35.65 27.7 -35.55 29.3 L-35.55 29.45 Q-35.65 31.1 -34.6 32.25 -33.45 33.35 -31.8 33.2 L-31.65 33.2 Q-30.0 33.35 -28.9 32.25 -27.8 31.1 -27.95 29.45 M-31.75 24.1 L-29.6 24.35 Q-28.6 24.7 -27.85 25.5 -26.45 26.9 -26.4 28.95 L-26.45 29.4 -26.4 29.85 Q-26.45 31.85 -27.85 33.3 -29.45 34.85 -31.75 34.7 -34.0 34.85 -35.65 33.3 -37.05 31.85 -37.05 29.85 L-37.05 29.4 -37.05 28.95 Q-37.05 26.9 -35.65 25.5 L-33.85 24.35 -31.75 24.1" fill="#000000" fill-rule="evenodd" stroke="none" class="lines" />
    </g>
  </defs>
  <g transform="matrix(1.0, 0.0, 0.0, 1.0, 0.0, 0.0)">
    <use height="136.6" id="fill" transform="matrix(0.4482, 0.0, 0.0, 0.7247, 0.2001, 0.2008)" width="221.8" xlink:href="#sprite0" />
    <use height="138.05" id="lines" transform="matrix(0.4482, 0.0, 0.0, 0.7247, -0.0136, -0.0065)" width="223.25" xlink:href="#sprite1" />
  </g>
</svg>