<?xml version="1.0" encoding="UTF-8" standalone="no"?>
<svg xmlns:xlink="http://www.w3.org/1999/xlink" height="100%" width="100%" xmlns="http://www.w3.org/2000/svg" preserveAspectRatio="none" viewBox="0 0 100 100">
  <defs>
    <g id="sprite0" transform="matrix(1.0, 0.0, 0.0, 1.0, 166.55, 70.0)">
      <use height="140.0" transform="matrix(1.0, 0.0, 0.0, 1.0, -166.55, -70.0)" width="333.1" xlink:href="#shape0" />
    </g>
    <g id="shape0" transform="matrix(1.0, 0.0, 0.0, 1.0, 166.55, 70.0)">
      <path d="M-166.15 -58.9 L-166.55 0.35 -166.15 59.8 Q-166.0 65.5 -165.55 66.4 L-164.5 67.65 Q-161.1 70.0 -147.65 70.0 -134.25 70.0 -130.85 67.65 L-129.85 66.5 Q-129.55 65.95 -129.4 64.7 L-129.3 63.9 -128.55 64.05 -88.85 65.6 Q-52.25 66.15 -0.6 66.15 51.05 66.15 87.65 65.6 L128.5 63.8 129.35 63.5 129.45 64.4 Q129.55 65.6 129.8 66.15 130.15 67.1 130.9 67.65 134.3 70.0 147.7 70.0 161.1 70.0 164.5 67.65 L165.55 66.4 Q166.05 65.3 166.15 59.75 L166.55 0.4 166.15 -59.6 Q166.05 -64.8 165.7 -65.95 L165.15 -67.0 Q163.1 -69.4 152.95 -69.85 144.9 -70.25 138.0 -69.45 L137.95 -69.45 Q99.9 -69.9 -18.9 -69.85 -139.85 -69.8 -147.05 -69.25 -162.8 -69.3 -165.25 -66.2 L-165.7 -65.2 Q-166.0 -64.15 -166.15 -58.9" fill="#ffffff" fill-rule="evenodd" stroke="none" class="fill" />
    </g>
    <g id="sprite1" transform="matrix(1.0, 0.0, 0.0, 1.0, 167.05, 70.7)">
      <use height="141.4" transform="matrix(1.0, 0.0, 0.0, 1.0, -167.05, -70.7)" width="334.15" xlink:href="#shape1" />
    </g>
    <g id="shape1" transform="matrix(1.0, 0.0, 0.0, 1.0, 167.05, 70.7)">
      <path d="M153.05 -65.85 Q152.2 -67.25 150.95 -68.05 L160.35 -67.15 Q163.35 -66.55 163.55 -65.95 L163.65 -65.6 Q164.35 -62.85 164.35 -0.6 164.35 61.65 163.65 64.4 L163.55 64.75 Q163.3 65.45 159.6 66.1 L147.9 66.9 136.4 66.15 136.4 -29.55 142.35 -29.55 Q142.8 -29.45 143.1 -29.75 L150.65 -37.55 Q151.1 -38.0 150.75 -38.5 152.0 -39.15 153.05 -40.85 155.75 -45.15 155.8 -53.15 155.85 -61.1 153.2 -65.55 L153.05 -65.85 M151.8 -65.05 Q154.3 -61.05 154.3 -53.35 154.3 -45.65 151.8 -41.65 150.35 -39.25 148.25 -39.4 L147.9 -39.3 129.95 -39.0 Q83.2 -38.6 -18.2 -38.7 -121.3 -38.8 -126.8 -39.35 L-127.1 -39.4 -132.2 -39.0 Q-139.1 -38.65 -146.05 -38.75 -147.0 -38.7 -148.3 -39.55 -149.6 -40.4 -150.35 -41.65 -152.85 -45.6 -152.85 -53.25 -152.9 -60.9 -150.4 -64.95 L-150.35 -65.05 Q-148.85 -67.45 -146.85 -67.25 L-146.75 -67.25 -146.5 -67.35 -133.65 -67.55 Q-97.75 -67.85 -2.5 -67.85 92.75 -67.85 132.1 -67.55 L147.95 -67.35 Q148.1 -67.25 148.2 -67.25 L148.25 -67.25 Q150.05 -67.4 151.35 -65.65 L151.8 -65.05 M138.15 -70.2 Q99.4 -70.65 -19.05 -70.6 -139.7 -70.55 -146.9 -70.0 -163.0 -70.0 -165.6 -66.65 L-166.2 -65.45 Q-166.5 -64.35 -166.65 -58.95 L-167.05 0.35 -166.65 59.8 Q-166.5 65.65 -165.95 66.7 -165.5 67.65 -164.7 68.2 -161.05 70.7 -147.45 70.7 -133.9 70.7 -130.25 68.2 -129.45 67.6 -129.0 66.8 -128.7 66.25 -128.45 64.75 L-88.65 66.25 Q-53.7 66.85 -0.4 66.85 52.9 66.85 87.85 66.25 109.85 65.9 118.05 65.55 126.65 65.2 128.9 64.45 L129.35 66.4 Q129.8 67.6 130.7 68.2 132.45 69.4 137.45 70.1 L147.9 70.7 Q161.5 70.7 165.1 68.2 166.0 67.65 166.4 66.65 166.95 65.65 167.1 59.75 L167.1 -59.65 Q166.95 -65.05 166.6 -66.2 L165.9 -67.55 Q163.6 -70.2 152.7 -70.6 144.7 -70.95 138.15 -70.2 M142.2 -31.0 L136.0 -31.0 135.85 -30.85 134.9 -30.25 134.75 -30.2 131.65 -28.15 131.35 -28.0 130.4 -27.35 130.15 -27.05 -130.55 -27.05 -135.65 -31.1 -136.6 -31.65 -136.6 -31.7 -141.4 -31.7 -146.15 -37.25 Q-141.2 -37.05 -132.55 -37.55 L-131.15 -37.6 -131.05 -37.6 -127.1 -37.9 -118.75 -37.65 -22.95 -37.25 Q79.15 -37.15 128.45 -37.5 L148.2 -37.9 148.95 -37.95 142.2 -31.0 M134.9 -28.95 L134.9 65.85 Q132.4 65.25 132.25 64.75 L132.2 64.4 Q132.0 63.75 131.85 55.65 L131.7 45.85 Q131.4 15.45 131.55 -26.35 L134.9 -28.95 M127.3 61.0 L125.8 61.2 Q108.9 62.9 -0.4 62.9 -109.7 62.9 -126.6 61.2 L-127.6 61.1 -129.05 60.65 -129.5 60.35 -129.95 59.45 -130.0 59.35 Q-129.7 47.1 -129.7 20.4 L-129.7 17.65 Q-129.7 -21.25 -130.3 -25.45 L-129.5 -25.55 130.15 -25.55 130.35 54.95 130.25 56.05 129.65 58.75 128.7 60.35 128.55 60.45 128.25 60.65 127.85 60.8 127.3 61.0 M-163.1 -65.2 Q-162.9 -65.9 -159.65 -66.5 L-150.45 -67.3 -151.65 -65.85 -152.15 -64.9 Q-154.35 -60.45 -154.35 -53.35 -154.35 -45.2 -151.65 -40.85 -150.8 -39.45 -149.6 -38.7 L-149.45 -38.5 -149.2 -38.3 -148.95 -37.9 -148.25 -37.4 -148.2 -37.4 -142.35 -30.5 Q-142.0 -30.05 -141.55 -30.25 L-137.1 -30.25 -137.1 66.3 -147.45 66.9 -158.8 66.15 Q-162.85 65.5 -163.1 64.75 L-163.2 64.45 Q-163.85 61.7 -163.85 -0.25 -163.85 -62.15 -163.2 -64.9 L-163.1 -65.25 -163.1 -65.2 M-131.75 -26.2 L-131.8 -25.5 -131.75 -25.25 Q-131.1 -22.9 -131.1 20.85 L-131.65 64.15 -131.85 64.75 Q-132.0 65.2 -133.6 65.65 L-135.6 66.1 -135.6 -29.25 -131.75 -26.2" fill="#000000" fill-rule="evenodd" stroke="none" class="lines" />
    </g>
  </defs>
  <g transform="matrix(1.0, 0.0, 0.0, 1.0, 0.0, 0.0)">
    <use height="140.0" id="fill" transform="matrix(0.2994, 0.0, 0.0, 0.7072, 0.1311, 0.695)" width="333.1" xlink:href="#sprite0" />
    <use height="141.4" id="lines" transform="matrix(0.2994, 0.0, 0.0, 0.7072, -0.0686, -0.0001)" width="334.15" xlink:href="#sprite1" />
  </g>
</svg>