<?xml version="1.0" encoding="UTF-8" standalone="no"?>
<svg xmlns:xlink="http://www.w3.org/1999/xlink" height="100%" width="100%" xmlns="http://www.w3.org/2000/svg" preserveAspectRatio="none" viewBox="0 0 100 100">
  <defs>
    <g id="sprite0" transform="matrix(1.0, 0.0, 0.0, 1.0, 116.45, 62.65)">
      <use height="125.3" transform="matrix(1.0, 0.0, 0.0, 1.0, -116.45, -62.65)" width="232.9" xlink:href="#shape0" />
    </g>
    <g id="shape0" transform="matrix(1.0, 0.0, 0.0, 1.0, 116.45, 62.65)">
      <path d="M96.3 -59.35 L96.3 -58.85 95.85 -54.6 97.2 -54.4 98.5 -53.9 99.45 -53.05 100.0 -52.0 100.05 -51.9 100.05 -51.85 101.3 -45.15 116.4 34.35 Q116.65 35.85 115.75 37.0 114.85 38.15 113.35 38.3 L96.35 40.1 98.0 56.65 Q98.0 59.15 96.25 60.9 94.5 62.65 92.0 62.65 L-92.0 62.65 Q-94.5 62.65 -96.25 60.9 -98.0 59.15 -98.0 56.65 L-96.45 40.1 -113.35 38.3 Q-114.8 38.15 -115.7 37.0 -116.6 35.85 -116.4 34.35 L-101.3 -45.15 -100.0 -51.85 Q-99.7 -53.1 -98.45 -53.9 -97.25 -54.6 -95.75 -54.6 L-96.15 -58.5 -96.25 -59.85 Q-96.3 -61.0 -95.35 -61.85 -94.4 -62.65 -93.0 -62.65 L93.05 -62.15 Q94.45 -62.15 95.4 -61.35 96.35 -60.5 96.3 -59.35" fill="#ffffff" fill-rule="evenodd" stroke="none" class="fill" />
    </g>
    <g id="sprite1" transform="matrix(1.0, 0.0, 0.0, 1.0, 118.4, 64.65)">
      <use height="129.3" transform="matrix(1.0, 0.0, 0.0, 1.0, -118.4, -64.65)" width="236.85" xlink:href="#shape1" />
    </g>
    <g id="shape1" transform="matrix(1.0, 0.0, 0.0, 1.0, 118.4, 64.65)">
      <path d="M-75.4 -25.45 Q-75.1 -28.25 -76.0 -30.95 L-80.05 -31.35 Q-79.1 -28.35 -79.4 -25.3 L-82.65 37.9 Q-82.7 38.95 -83.2 39.85 L-81.45 40.0 Q-80.35 40.1 -79.5 39.45 -78.75 38.8 -78.65 37.75 L-75.4 -25.45 M-96.6 -53.5 L-97.9 -53.05 -97.95 -53.0 Q-98.8 -52.45 -99.0 -51.6 L-100.3 -45.0 -100.3 -44.95 -115.4 34.55 -115.4 34.5 Q-115.55 35.55 -114.9 36.4 -114.25 37.2 -113.25 37.3 L-87.45 40.0 Q-86.5 40.1 -85.7 39.6 L-85.5 39.45 Q-84.75 38.8 -84.65 37.75 L-81.4 -25.45 Q-81.05 -28.7 -82.35 -31.85 L-82.4 -32.0 -83.0 -32.25 Q-94.15 -38.45 -96.6 -53.5 M97.95 -53.05 L96.7 -53.5 Q94.35 -39.05 84.2 -32.3 83.55 -31.85 82.25 -31.55 81.15 -28.6 81.45 -25.45 L84.65 37.7 84.65 37.75 Q84.75 38.8 85.6 39.45 L85.75 39.55 Q86.5 40.1 87.5 40.0 L113.25 37.3 Q114.35 37.2 115.0 36.4 115.6 35.55 115.45 34.55 L100.35 -44.95 100.3 -45.0 99.1 -51.6 Q98.85 -52.45 98.0 -53.0 L97.95 -53.05 M93.05 -64.15 Q95.25 -64.15 96.7 -62.85 L96.75 -62.85 Q98.4 -61.35 98.3 -59.25 L98.0 -56.25 Q98.75 -55.9 99.45 -55.6 L99.5 -55.6 Q101.55 -54.35 102.0 -52.3 L103.3 -45.4 103.3 -45.5 118.4 34.0 118.4 34.05 Q118.75 36.4 117.35 38.25 115.9 40.05 113.55 40.3 L98.55 41.9 100.0 56.45 100.0 56.65 Q100.0 60.0 97.7 62.35 95.35 64.65 92.0 64.65 L-92.0 64.65 Q-95.35 64.65 -97.65 62.35 -100.0 60.0 -100.0 56.65 L-100.0 56.45 -98.6 41.9 -113.55 40.3 Q-115.85 40.05 -117.25 38.25 -118.7 36.4 -118.35 34.1 L-118.35 34.0 -103.25 -45.5 -103.25 -45.45 -101.95 -52.3 Q-101.5 -54.3 -99.5 -55.55 L-99.45 -55.6 -97.9 -56.25 -98.25 -59.75 Q-98.35 -61.85 -96.65 -63.35 -95.2 -64.65 -93.0 -64.65 L93.05 -64.15 M76.0 -30.85 Q75.15 -28.25 75.45 -25.45 L78.65 37.7 78.65 37.75 Q78.75 38.8 79.6 39.45 80.4 40.1 81.5 40.0 L83.3 39.85 Q82.75 39.0 82.65 37.9 L79.45 -25.3 Q79.15 -28.35 80.05 -31.15 L76.0 -30.85 M1.3 -37.55 L24.2 -36.35 49.65 -34.1 74.4 -32.75 76.4 -32.8 80.35 -33.15 82.3 -33.6 83.1 -33.95 Q92.4 -40.25 94.7 -53.55 L95.3 -59.4 Q95.3 -60.05 94.75 -60.55 L94.75 -60.6 Q94.05 -61.15 93.05 -61.15 L-93.0 -61.65 Q-94.0 -61.65 -94.65 -61.1 L-94.7 -61.05 Q-95.25 -60.55 -95.25 -59.9 -95.1 -56.55 -94.55 -53.55 -92.2 -39.95 -82.25 -34.15 L-82.0 -34.0 -80.3 -33.45 -76.35 -32.95 -74.35 -32.85 -46.9 -34.15 -21.15 -36.35 1.3 -37.55 M24.0 -34.35 L1.3 -35.55 -21.0 -34.35 -46.75 -32.15 -73.9 -30.85 Q-73.1 -28.1 -73.4 -25.3 L-76.65 37.9 Q-76.8 39.85 -78.25 41.0 -79.75 42.2 -81.65 42.0 L-85.25 41.65 -87.65 42.0 -95.55 41.2 -97.0 56.75 Q-96.95 58.75 -95.55 60.2 -94.1 61.65 -92.0 61.65 L92.0 61.65 Q94.1 61.65 95.55 60.2 96.95 58.75 97.0 56.75 L95.45 41.2 87.7 42.0 85.35 41.65 81.7 42.0 Q79.8 42.2 78.35 41.0 76.85 39.85 76.65 37.9 L73.45 -25.3 Q73.2 -28.15 73.95 -30.8 L49.45 -32.1 24.05 -34.35 24.0 -34.35" fill="#000000" fill-rule="evenodd" stroke="none" />
    </g>
  </defs>
  <g transform="matrix(1.0, 0.0, 0.0, 1.0, 0.0, 0.0)">
    <use height="125.3" id="fill" transform="matrix(0.4224, 0.0, 0.0, 0.7734, 0.8087, 1.547)" width="232.9" xlink:href="#sprite0" />
    <use height="129.3" transform="matrix(0.4224, 0.0, 0.0, 0.7734, -0.015, 0.0002)" width="236.85" xlink:href="#sprite1" />
  </g>
</svg>