<?xml version="1.0" encoding="UTF-8" standalone="no"?>
<svg xmlns:xlink="http://www.w3.org/1999/xlink" height="100%" width="100%" xmlns="http://www.w3.org/2000/svg" preserveAspectRatio="none" viewBox="0 0 100 100">
  <defs>
    <g id="sprite0" transform="matrix(1.0, 0.0, 0.0, 1.0, 120.1, 66.5)">
      <use height="133.05" transform="matrix(1.0, 0.0, 0.0, 1.0, -120.1, -66.5)" width="240.2" xlink:href="#shape0" />
    </g>
    <g id="shape0" transform="matrix(1.0, 0.0, 0.0, 1.0, 120.1, 66.5)">
      <path d="M86.1 -66.5 Q87.75 -66.5 88.9 -65.35 90.05 -64.15 90.05 -62.55 L90.05 -56.55 111.0 -56.55 Q113.1 -56.55 114.65 -55.05 116.2 -53.6 116.25 -51.5 L120.1 60.45 Q120.1 62.65 118.7 64.1 117.2 65.6 115.1 65.6 L89.75 65.6 88.0 65.3 Q86.5 66.55 84.45 66.55 L-86.15 66.55 Q-87.9 66.55 -89.3 65.55 L-89.75 65.6 -115.15 65.6 Q-117.2 65.6 -118.7 64.1 -120.15 62.55 -120.1 60.45 L-116.3 -51.5 Q-116.2 -53.6 -114.7 -55.05 -113.15 -56.55 -111.05 -56.55 L-91.75 -56.55 -91.75 -62.55 Q-91.75 -64.15 -90.55 -65.35 -89.4 -66.5 -87.75 -66.5 L-2.8 -66.5 Q-1.7 -66.5 -0.85 -65.95 0.1 -66.5 1.15 -66.5 L86.1 -66.5" fill="#ffffff" fill-rule="evenodd" stroke="none" class="fill" />
    </g>
    <g id="sprite1" transform="matrix(1.0, 0.0, 0.0, 1.0, 120.1, 66.5)">
      <use height="133.05" transform="matrix(1.0, 0.0, 0.0, 1.0, -120.1, -66.5)" width="240.2" xlink:href="#shape1" />
    </g>
    <g id="shape1" transform="matrix(1.0, 0.0, 0.0, 1.0, 120.1, 66.5)">
      <path d="M-111.05 -53.55 Q-113.2 -53.55 -113.3 -51.4 L-117.1 60.55 Q-117.2 61.45 -116.55 62.0 -116.0 62.6 -115.15 62.6 L-91.5 62.6 -91.75 60.95 -91.75 -53.55 -111.05 -53.55 M87.05 -33.25 L86.15 -33.05 -87.75 -33.05 -88.75 -33.25 -88.75 -10.25 Q-88.75 -9.3 -87.75 -9.3 L86.15 -9.3 Q87.05 -9.3 87.05 -10.25 L87.05 -33.25 M87.05 -7.45 L86.15 -7.3 -87.75 -7.3 -88.75 -7.45 -88.75 62.5 Q-88.75 63.5 -87.75 63.5 L86.1 63.5 Q86.85 63.5 87.0 62.8 L87.05 62.5 87.05 -7.45 M113.25 -51.4 Q113.15 -53.55 111.0 -53.55 L90.05 -53.55 90.05 60.95 89.8 62.6 115.1 62.6 Q115.95 62.6 116.55 62.0 117.1 61.45 117.1 60.55 L113.25 -51.4 M87.05 -62.6 Q87.05 -63.6 86.1 -63.6 L-87.75 -63.6 Q-88.75 -63.6 -88.75 -62.6 L-88.75 -36.05 Q-88.75 -35.05 -87.75 -35.05 L86.15 -35.05 Q87.05 -35.15 87.05 -36.05 L87.05 -62.6 M86.1 -66.5 Q87.75 -66.5 88.9 -65.35 90.05 -64.15 90.05 -62.55 L90.05 -56.55 111.0 -56.55 Q113.1 -56.55 114.65 -55.05 116.2 -53.6 116.25 -51.5 L120.1 60.45 Q120.1 62.65 118.7 64.1 117.2 65.6 115.1 65.6 L89.75 65.6 88.0 65.3 Q86.5 66.55 84.45 66.55 L-86.15 66.55 Q-87.9 66.55 -89.3 65.55 L-89.75 65.6 -115.15 65.6 Q-117.2 65.6 -118.7 64.1 -120.15 62.55 -120.1 60.45 L-116.3 -51.5 Q-116.2 -53.6 -114.7 -55.05 -113.15 -56.55 -111.05 -56.55 L-91.75 -56.55 -91.75 -62.55 Q-91.75 -64.15 -90.55 -65.35 -89.4 -66.5 -87.75 -66.5 L86.1 -66.5" fill="#000000" fill-rule="evenodd" stroke="none" class="lines" />
    </g>
  </defs>
  <g transform="matrix(1.0, 0.0, 0.0, 1.0, 0.0, 0.0)">
    <use height="133.05" id="fill" transform="matrix(0.4163, 0.0, 0.0, 0.752, -0.0001, -0.0059)" width="240.2" xlink:href="#sprite0" />
    <use height="133.05" id="lines" transform="matrix(0.4163, 0.0, 0.0, 0.752, -0.0001, -0.0059)" width="240.2" xlink:href="#sprite1" />
  </g>
</svg>