<?xml version="1.0" encoding="UTF-8" standalone="no"?>
<svg xmlns:xlink="http://www.w3.org/1999/xlink" height="100%" width="100%" xmlns="http://www.w3.org/2000/svg" preserveAspectRatio="none" viewBox="0 0 100 100">
  <defs>
    <g id="sprite0" transform="matrix(1.0, 0.0, 0.0, 1.0, 76.8, 90.85)">
      <use height="181.75" transform="matrix(1.0, 0.0, 0.0, 1.0, -76.8, -90.85)" width="153.6" xlink:href="#shape0" />
    </g>
    <g id="shape0" transform="matrix(1.0, 0.0, 0.0, 1.0, 76.8, 90.85)">
      <path d="M60.35 -90.85 L-60.45 -90.85 Q-62.45 -90.85 -64.05 -89.4 -65.6 -88.0 -65.8 -85.95 L-66.2 -81.05 -66.7 -80.95 Q-68.6 -80.5 -69.95 -79.2 -71.35 -77.9 -71.55 -76.4 -71.95 -74.05 -72.15 -70.05 L-76.8 37.45 Q-76.9 39.55 -75.45 41.05 -74.0 42.55 -71.9 42.55 L-47.45 42.55 -47.45 42.8 -36.55 42.75 -36.55 47.3 -37.15 47.35 Q-38.7 47.55 -39.75 48.7 -40.8 49.85 -40.8 51.45 L-40.8 52.75 Q-40.8 54.3 -39.75 55.45 -38.7 56.6 -37.15 56.8 L-36.55 56.9 -36.55 61.1 -40.05 61.1 Q-41.75 61.1 -42.95 62.35 -44.15 63.55 -44.15 65.25 L-44.15 86.75 Q-44.15 88.45 -42.95 89.7 -41.75 90.9 -40.05 90.9 L39.55 90.9 Q41.3 90.9 42.5 89.7 43.7 88.45 43.7 86.75 L43.7 65.25 Q43.7 63.55 42.5 62.35 41.25 61.1 39.55 61.1 L35.85 61.1 35.85 56.9 36.5 56.85 Q38.1 56.75 39.25 55.55 40.35 54.35 40.35 52.75 L40.35 51.45 Q40.35 49.85 39.25 48.65 38.1 47.45 36.5 47.35 L35.85 47.3 35.85 42.55 49.2 42.5 49.7 42.55 71.85 42.55 Q74.0 42.55 75.4 41.05 76.9 39.5 76.8 37.4 L72.3 -75.3 Q72.25 -77.4 70.7 -78.9 69.15 -80.35 67.1 -80.35 L66.2 -80.35 65.7 -85.95 Q65.55 -87.95 63.95 -89.4 62.4 -90.85 60.35 -90.85 M-32.15 41.9 L29.15 42.05 29.15 47.25 -32.15 47.25 -32.15 41.9 M-32.15 56.8 L29.15 56.8 29.15 61.05 -32.15 61.05 -32.15 56.8" fill="#ffffff" fill-rule="evenodd" stroke="none" class="fill" />
    </g>
    <g id="sprite1" transform="matrix(1.0, 0.0, 0.0, 1.0, 77.5, 91.6)">
      <use height="183.2" transform="matrix(1.0, 0.0, 0.0, 1.0, -77.5, -91.6)" width="155.0" xlink:href="#shape1" />
    </g>
    <g id="shape1" transform="matrix(1.0, 0.0, 0.0, 1.0, 77.5, 91.6)">
      <path d="M-65.9 -79.05 L-67.0 -65.75 Q-67.1 -64.35 -66.4 -63.2 L-66.4 -63.15 -66.65 -62.65 -66.55 -62.25 Q-65.4 -60.2 -62.6 -56.95 L-58.7 -52.6 Q-53.85 -47.4 -48.2 -42.05 L-48.1 -41.9 -46.85 -40.75 -46.8 -40.65 -45.45 -39.4 -44.6 37.75 Q-44.6 38.85 -45.25 39.55 L-45.4 39.75 -46.0 40.2 -46.75 40.5 -47.4 40.6 -72.15 40.6 Q-73.35 40.6 -74.1 39.75 -74.95 39.0 -74.85 37.8 L-69.4 -76.6 Q-69.15 -78.3 -67.15 -78.9 L-66.15 -79.05 -65.9 -79.05 M-63.8 -80.1 L-63.35 -85.75 Q-63.25 -86.85 -62.4 -87.65 -61.55 -88.45 -60.45 -88.45 L61.15 -88.45 Q62.25 -88.45 63.1 -87.65 63.95 -86.85 64.05 -85.75 L65.7 -65.6 65.7 -65.3 Q65.7 -64.55 65.2 -63.95 L65.1 -63.85 Q64.75 -63.45 64.0 -63.15 L63.4 -63.1 -62.7 -63.1 -63.65 -63.3 -64.4 -63.85 -64.45 -63.85 Q-65.1 -64.55 -65.0 -65.6 L-63.8 -79.8 -63.8 -80.1 M-66.9 -81.65 Q-68.95 -81.15 -70.5 -79.7 -72.05 -78.25 -72.3 -76.55 L-72.85 -70.1 -77.5 37.35 Q-77.65 39.8 -75.95 41.5 -74.35 43.25 -71.9 43.25 L-48.2 43.25 -48.2 43.45 -37.25 43.45 -37.25 46.6 Q-39.05 46.85 -40.3 48.15 -41.55 49.55 -41.55 51.4 L-41.55 52.7 Q-41.55 54.55 -40.3 55.9 -39.05 57.25 -37.25 57.5 L-37.25 60.35 -40.05 60.35 Q-42.05 60.35 -43.45 61.8 -44.9 63.2 -44.9 65.2 L-44.9 86.75 Q-44.9 88.75 -43.45 90.15 -42.05 91.6 -40.05 91.6 L39.55 91.6 Q41.55 91.6 43.0 90.15 44.4 88.75 44.4 86.75 L44.4 65.2 Q44.4 63.2 43.0 61.8 41.55 60.35 39.55 60.35 L36.55 60.35 36.55 57.5 Q38.45 57.4 39.75 56.0 41.05 54.6 41.05 52.7 L41.05 51.4 Q41.05 49.5 39.75 48.1 38.45 46.7 36.55 46.55 L36.55 43.25 71.85 43.2 Q74.25 43.2 75.95 41.5 77.6 39.7 77.5 37.35 L73.05 -75.4 Q72.95 -77.75 71.2 -79.45 69.45 -81.1 67.1 -81.1 L66.85 -81.1 66.45 -86.05 Q66.25 -88.35 64.45 -89.95 62.65 -91.6 60.35 -91.6 L-60.45 -91.6 Q-62.75 -91.6 -64.5 -89.95 -66.3 -88.35 -66.5 -86.05 L-66.9 -81.65 M-62.7 -61.1 L63.4 -61.1 63.9 -61.15 63.95 -61.15 47.7 -44.2 47.45 -44.0 46.3 -42.8 46.25 -42.8 46.15 -42.7 44.8 -41.3 44.5 -41.05 36.45 -33.1 -36.55 -33.2 -36.75 -33.4 -44.65 -40.75 -44.7 -40.75 -45.3 -41.3 -45.45 -41.5 -46.8 -42.75 -46.9 -42.85 -56.65 -52.6 -64.15 -61.35 -62.7 -61.1 M-37.5 -32.05 L-37.1 40.5 -44.1 40.5 Q-43.5 39.85 -43.3 39.1 L-43.1 37.75 -43.9 -37.95 -37.5 -32.05 M70.1 -75.25 L74.55 37.45 Q74.65 38.6 73.8 39.45 73.05 40.3 71.85 40.3 L49.7 40.3 49.3 40.25 48.3 39.9 47.1 38.65 46.8 37.45 46.3 -40.7 47.5 -41.9 47.6 -42.0 47.7 -42.1 62.65 -57.45 67.15 -62.7 67.2 -63.4 67.3 -63.6 Q67.75 -64.7 67.7 -65.75 L66.65 -78.15 67.1 -78.15 Q68.3 -78.15 69.2 -77.3 70.05 -76.45 70.1 -75.25 M44.8 -39.2 L45.3 37.45 45.55 38.85 46.2 40.0 39.2 40.05 39.2 36.2 Q39.2 25.45 38.8 10.65 L37.55 -32.05 44.8 -39.2 M35.55 -31.6 L36.8 9.9 Q37.25 27.6 37.2 40.2 L-35.6 40.5 -36.0 -31.7 35.55 -31.6 M29.55 46.55 L-30.25 46.55 -30.25 43.4 29.55 43.15 29.55 46.55 M31.05 43.15 L35.05 43.15 35.05 46.55 31.05 46.55 31.05 43.15 M38.55 52.7 Q38.55 54.75 36.55 55.0 L36.2 55.05 -36.7 55.05 -37.25 54.95 Q-39.05 54.5 -39.05 52.7 L-39.05 51.4 Q-39.05 49.55 -37.25 49.1 L-36.7 49.05 36.55 49.05 Q38.55 49.4 38.55 51.4 L38.55 52.7 M31.05 57.55 L35.05 57.55 35.05 60.35 31.05 60.35 31.05 57.55 M29.55 60.35 L-30.25 60.35 -30.25 57.55 29.55 57.55 29.55 60.35 M41.2 88.4 Q40.55 89.1 39.55 89.1 L-40.05 89.1 Q-41.0 89.1 -41.7 88.4 -42.4 87.7 -42.4 86.75 L-42.4 65.2 Q-42.4 64.2 -41.7 63.55 -41.0 62.85 -40.05 62.85 L39.55 62.85 Q40.55 62.85 41.2 63.55 41.9 64.2 41.9 65.2 L41.9 86.75 Q41.9 87.7 41.2 88.4 M-35.75 46.55 L-35.75 43.4 -31.75 43.4 -31.75 46.55 -35.75 46.55 M-35.75 57.55 L-31.75 57.55 -31.75 60.35 -35.75 60.35 -35.75 57.55" fill="#000000" fill-rule="evenodd" stroke="none" class="lines" />
    </g>
  </defs>
  <g transform="matrix(1.0, 0.0, 0.0, 1.0, 0.0, 0.0)">
    <use height="181.75" id="fill" transform="matrix(0.6452, 0.0, 0.0, 0.5459, 0.452, 0.5593)" width="153.6" xlink:href="#sprite0" />
    <use height="183.2" id="lines" transform="matrix(0.6452, 0.0, 0.0, 0.5459, 0.0003, -0.0001)" width="155.0" xlink:href="#sprite1" />
  </g>
</svg>