<?xml version="1.0" encoding="UTF-8" standalone="no"?>
<svg xmlns:xlink="http://www.w3.org/1999/xlink" height="100%" width="100%" xmlns="http://www.w3.org/2000/svg" preserveAspectRatio="none" viewBox="0 0 100 100">
  <defs>
    <g id="sprite0" transform="matrix(1.0, 0.0, 0.0, 1.0, 93.95, 58.2)">
      <use height="116.45" transform="matrix(1.0, 0.0, 0.0, 1.0, -93.95, -58.2)" width="187.85" xlink:href="#shape0" />
    </g>
    <g id="shape0" transform="matrix(1.0, 0.0, 0.0, 1.0, 93.95, 58.2)">
      <path d="M10.4 -28.35 L79.75 -28.35 Q86.5 -28.35 89.25 -25.65 91.55 -23.3 91.55 -18.0 91.55 -11.9 91.1 -6.05 L90.55 -6.1 89.2 -6.0 88.05 -6.15 Q85.65 -6.35 83.65 -5.6 81.3 -4.8 80.4 -3.0 L80.4 -3.05 Q80.1 -2.5 78.25 5.75 76.25 14.15 73.55 19.95 64.75 38.95 45.25 38.95 25.8 38.95 17.05 19.95 14.35 14.15 12.45 5.75 L10.25 -3.05 10.25 -3.0 Q9.3 -4.8 6.9 -5.6 L6.95 -5.6 4.65 -6.1 Q4.25 -17.6 1.95 -26.45 4.8 -28.35 10.4 -28.35 M3.8 -4.4 Q5.45 -2.7 7.6 5.7 10.4 16.95 12.6 22.2 21.8 44.45 45.0 44.45 68.05 44.45 77.65 22.05 80.3 15.8 82.45 6.0 84.2 -1.85 84.85 -2.6 86.8 -4.55 89.15 -4.95 L90.55 -5.1 Q93.9 -5.05 93.9 -1.1 93.9 27.65 84.4 41.55 72.8 58.25 45.0 58.25 19.35 58.25 7.5 43.85 1.65 36.75 -1.1 25.9 -3.35 17.25 -3.65 6.25 L-3.7 5.25 -3.7 4.8 Q-3.7 4.6 -3.85 4.45 -5.5 2.75 -7.6 -5.6 -10.45 -16.9 -12.55 -22.15 L-12.6 -22.15 Q-16.8 -32.2 -23.5 -37.6 -32.0 -44.4 -45.05 -44.4 -68.1 -44.4 -77.7 -22.0 -80.35 -15.75 -82.5 -5.95 -84.25 1.9 -84.9 2.65 -86.85 4.6 -89.2 5.05 L-90.6 5.15 Q-93.95 5.1 -93.95 1.15 -93.95 -27.6 -84.4 -41.45 -72.85 -58.2 -45.05 -58.2 -19.4 -58.2 -7.5 -43.75 -1.7 -36.7 1.1 -25.8 3.3 -17.2 3.65 -6.2 L3.65 -5.2 3.65 -4.75 3.8 -4.4 M4.65 -5.1 L6.6 -4.65 Q8.6 -4.0 9.35 -2.55 L11.5 5.95 11.5 6.0 Q13.45 14.45 16.15 20.35 25.2 39.95 45.25 39.95 65.35 39.95 74.45 20.35 77.15 14.45 79.2 6.0 L79.2 5.95 Q81.0 -2.0 81.3 -2.55 82.1 -4.0 84.0 -4.65 L86.75 -5.15 Q85.35 -4.5 84.15 -3.3 83.3 -2.55 81.45 5.8 79.3 15.5 76.75 21.65 67.45 43.45 45.0 43.45 22.5 43.45 13.5 21.8 11.3 16.55 8.55 5.45 6.4 -3.05 4.65 -4.95 L4.65 -5.1 M-45.3 -38.9 Q-25.85 -38.9 -17.1 -19.9 -14.4 -14.1 -12.45 -5.7 L-12.45 -5.65 -10.3 3.1 Q-9.35 4.85 -6.95 5.7 L-4.65 6.2 Q-4.35 17.65 -1.95 26.55 -4.85 28.4 -10.45 28.4 L-79.8 28.4 Q-86.55 28.4 -89.25 25.7 -91.6 23.35 -91.6 18.05 -91.6 11.95 -91.1 6.15 L-90.6 6.15 -89.25 6.05 -88.1 6.2 -83.65 5.7 Q-81.35 4.85 -80.45 3.1 L-78.25 -5.7 -78.25 -5.65 Q-76.3 -14.1 -73.6 -19.9 -64.8 -38.9 -45.3 -38.9 M-74.5 -20.3 Q-77.2 -14.4 -79.2 -5.9 -81.05 2.05 -81.35 2.6 L-81.35 2.65 Q-82.15 4.05 -84.0 4.75 L-86.75 5.25 Q-85.4 4.55 -84.2 3.35 -83.35 2.6 -81.5 -5.75 -79.35 -15.45 -76.8 -21.6 -67.5 -43.4 -45.05 -43.4 -32.4 -43.4 -24.15 -36.8 -17.6 -31.5 -13.5 -21.75 -11.35 -16.5 -8.55 -5.35 -6.45 3.1 -4.7 5.0 L-4.7 5.15 -6.6 4.75 -6.65 4.75 Q-8.65 4.05 -9.4 2.65 L-9.4 2.6 -11.5 -5.9 Q-13.5 -14.4 -16.2 -20.3 -25.25 -39.9 -45.3 -39.9 -65.4 -39.9 -74.5 -20.3" fill="#ffffff" fill-rule="evenodd" stroke="none" class="fill" />
    </g>
    <g id="sprite1" transform="matrix(1.0, 0.0, 0.0, 1.0, 96.4, 60.7)">
      <use height="121.45" transform="matrix(1.0, 0.0, 0.0, 1.0, -96.4, -60.7)" width="192.85" xlink:href="#shape1" />
    </g>
    <g id="shape1" transform="matrix(1.0, 0.0, 0.0, 1.0, 96.4, 60.7)">
      <path d="M-45.25 -38.9 Q-64.75 -38.9 -73.55 -19.9 -76.25 -14.1 -78.2 -5.65 L-78.2 -5.7 Q-80.1 2.55 -80.4 3.1 -81.3 4.85 -83.6 5.7 -85.65 6.4 -88.05 6.2 L-89.2 6.05 -90.55 6.15 -91.05 6.15 Q-91.55 11.95 -91.55 18.05 -91.55 23.35 -89.2 25.7 -86.5 28.4 -79.75 28.4 L-10.4 28.4 Q-4.8 28.4 -1.9 26.55 -4.3 17.65 -4.6 6.2 L-6.9 5.7 Q-9.3 4.85 -10.25 3.1 L-12.4 -5.65 -12.4 -5.7 Q-14.35 -14.1 -17.05 -19.9 -25.8 -38.9 -45.25 -38.9 M-74.45 -20.3 Q-65.35 -39.9 -45.25 -39.9 -25.2 -39.9 -16.15 -20.3 -13.45 -14.4 -11.45 -5.9 L-9.35 2.6 -9.35 2.65 Q-8.6 4.05 -6.6 4.75 L-6.55 4.75 -4.65 5.15 -4.65 5.0 Q-6.4 3.1 -8.5 -5.35 -11.3 -16.5 -13.45 -21.75 -17.55 -31.5 -24.1 -36.8 -32.35 -43.4 -45.0 -43.4 -67.45 -43.4 -76.75 -21.6 -79.3 -15.45 -81.45 -5.75 -83.3 2.6 -84.15 3.35 -85.35 4.55 -86.7 5.25 L-83.95 4.75 Q-82.1 4.05 -81.3 2.65 L-81.3 2.6 Q-81.0 2.05 -79.15 -5.9 -77.15 -14.4 -74.45 -20.3 M3.7 -5.2 L3.7 -6.2 Q3.35 -17.2 1.15 -25.8 -1.65 -36.7 -7.45 -43.75 -19.35 -58.2 -45.0 -58.2 -72.8 -58.2 -84.35 -41.45 -93.9 -27.6 -93.9 1.15 -93.9 5.1 -90.55 5.15 L-89.15 5.05 Q-86.8 4.6 -84.85 2.65 -84.2 1.9 -82.45 -5.95 -80.3 -15.75 -77.65 -22.0 -68.05 -44.4 -45.0 -44.4 -31.95 -44.4 -23.45 -37.6 -16.75 -32.2 -12.55 -22.15 L-12.5 -22.15 Q-10.4 -16.9 -7.55 -5.6 -5.45 2.75 -3.8 4.45 L-3.65 4.8 -3.65 5.25 -3.6 6.25 Q-3.3 17.25 -1.05 25.9 1.7 36.75 7.55 43.85 19.4 58.25 45.05 58.25 72.85 58.25 84.45 41.55 93.95 27.65 93.95 -1.1 93.95 -5.05 90.6 -5.1 L89.2 -4.95 Q86.85 -4.55 84.9 -2.6 84.25 -1.85 82.5 6.0 80.35 15.8 77.7 22.05 68.1 44.45 45.05 44.45 21.85 44.45 12.65 22.2 10.45 16.95 7.65 5.7 5.5 -2.7 3.85 -4.4 3.7 -4.55 3.7 -4.75 L3.7 -5.2 M4.7 -5.1 L4.7 -4.95 Q6.45 -3.05 8.6 5.45 11.35 16.55 13.55 21.8 22.55 43.45 45.05 43.45 67.5 43.45 76.8 21.65 79.35 15.5 81.5 5.8 83.35 -2.55 84.2 -3.3 L86.8 -5.15 84.05 -4.65 Q82.15 -4.0 81.35 -2.55 81.05 -2.0 79.25 5.95 L79.25 6.0 Q77.2 14.45 74.5 20.35 65.4 39.95 45.3 39.95 25.25 39.95 16.2 20.35 13.5 14.45 11.55 6.0 L11.55 5.95 9.4 -2.55 Q8.65 -4.0 6.65 -4.65 L4.7 -5.1 M2.75 -29.7 Q5.75 -30.85 10.45 -30.85 L79.8 -30.85 Q87.85 -30.85 91.1 -27.4 94.1 -24.55 94.1 -18.0 94.1 -12.3 93.55 -6.55 96.5 -4.75 96.45 -1.1 96.45 10.25 95.5 17.6 93.95 29.45 89.6 37.85 77.85 60.75 45.05 60.75 6.95 60.75 -2.7 29.75 -5.7 30.9 -10.4 30.9 L-79.75 30.9 Q-87.75 30.9 -90.95 27.5 L-90.95 27.45 Q-94.05 24.6 -94.05 18.05 -94.05 12.35 -93.5 6.6 -96.45 4.8 -96.4 1.15 -96.4 -10.2 -95.4 -17.55 -93.9 -29.4 -89.5 -37.8 -77.8 -60.7 -45.0 -60.7 -6.9 -60.7 2.75 -29.7 M10.45 -28.35 Q4.85 -28.35 2.0 -26.45 4.3 -17.6 4.7 -6.1 L7.0 -5.6 6.95 -5.6 Q9.35 -4.8 10.3 -3.0 L10.3 -3.05 12.5 5.75 Q14.4 14.15 17.1 19.95 25.85 38.95 45.3 38.95 64.8 38.95 73.6 19.95 76.3 14.15 78.3 5.75 80.15 -2.5 80.45 -3.05 L80.45 -3.0 Q81.35 -4.8 83.7 -5.6 85.7 -6.35 88.1 -6.15 L89.25 -6.0 90.6 -6.1 91.15 -6.05 Q91.6 -11.9 91.6 -18.0 91.6 -23.3 89.3 -25.65 86.55 -28.35 79.8 -28.35 L10.45 -28.35" fill="#000000" fill-rule="evenodd" stroke="none" />
    </g>
  </defs>
  <g transform="matrix(1.0, 0.0, 0.0, 1.0, 0.0, 0.0)">
    <use height="116.45" id="fill" transform="matrix(0.5188, 0.0, 0.0, 0.8238, 1.3089, 2.0053)" width="187.85" xlink:href="#sprite0" />
    <use height="121.45" transform="matrix(0.5188, 0.0, 0.0, 0.8238, -0.0122, -0.0041)" width="192.85" xlink:href="#sprite1" />
  </g>
</svg>