<?xml version="1.0" encoding="UTF-8" standalone="no"?>
<svg xmlns:xlink="http://www.w3.org/1999/xlink" height="100%" width="100%" xmlns="http://www.w3.org/2000/svg" preserveAspectRatio="none" viewBox="0 0 100 100">
  <defs>
    <g id="sprite0" transform="matrix(1.0, 0.0, 0.0, 1.0, 118.05, 66.4)">
      <use height="132.85" transform="matrix(1.0, 0.0, 0.0, 1.0, -118.05, -66.4)" width="236.1" xlink:href="#shape0" />
    </g>
    <g id="shape0" transform="matrix(1.0, 0.0, 0.0, 1.0, 118.05, 66.4)">
      <path d="M111.7 -63.3 L111.7 -63.25 Q112.3 -62.4 112.35 -61.35 L118.05 62.65 Q118.1 64.15 117.1 65.3 116.05 66.45 114.6 66.45 L0.15 66.45 -0.15 66.4 -0.15 66.45 -114.6 66.45 Q-116.05 66.45 -117.1 65.3 -118.1 64.15 -118.05 62.65 L-112.35 -61.35 Q-112.3 -62.4 -111.7 -63.25 L-111.7 -63.3 Q-111.65 -64.45 -110.85 -65.35 L-110.7 -65.5 Q-109.75 -66.4 -108.35 -66.35 L108.65 -66.4 108.75 -66.4 110.15 -66.05 110.2 -66.05 110.6 -65.75 111.05 -65.35 111.2 -65.15 Q111.75 -64.35 111.7 -63.3" fill="#ffffff" fill-rule="evenodd" stroke="none" class="fill" />
    </g>
    <g id="sprite1" transform="matrix(1.0, 0.0, 0.0, 1.0, 119.55, 67.9)">
      <use height="135.85" transform="matrix(1.0, 0.0, 0.0, 1.0, -119.55, -67.9)" width="239.1" xlink:href="#shape1" />
    </g>
    <g id="shape1" transform="matrix(1.0, 0.0, 0.0, 1.0, 119.55, 67.9)">
      <path d="M-73.1 -22.75 Q-77.45 -24.1 -81.55 -25.75 L-81.55 62.85 Q-81.55 64.0 -82.05 64.95 L-75.05 64.95 Q-75.05 49.55 -74.2 22.9 -73.3 -2.8 -73.1 -22.75 M-50.95 -18.1 Q-62.0 -19.4 -71.75 -22.35 L-72.3 5.1 -72.8 22.95 -73.05 30.0 -73.6 62.0 -73.6 64.95 -0.9 64.95 -1.05 -16.4 -1.3 -16.4 Q-33.8 -16.05 -50.95 -18.1 M-83.05 -26.4 Q-106.05 -36.4 -111.15 -55.0 L-116.55 62.75 Q-116.55 63.6 -116.0 64.3 L-115.95 64.35 Q-115.4 64.95 -114.6 64.95 L-83.95 64.95 -83.85 64.85 -83.85 64.9 Q-83.05 64.05 -83.05 62.85 L-83.05 -26.4 M81.55 -25.8 Q78.0 -24.05 73.15 -22.6 73.35 -2.75 74.2 22.9 75.1 49.55 75.05 64.95 L82.1 64.95 Q81.55 64.0 81.55 62.85 L81.55 -25.8 M85.85 -28.45 Q84.6 -27.5 83.05 -26.6 L83.05 62.85 Q83.05 64.05 83.95 64.85 L83.95 64.9 84.0 64.95 114.6 64.95 Q115.4 64.95 116.0 64.35 L116.0 64.3 Q116.55 63.6 116.55 62.75 L111.05 -57.55 Q105.9 -43.55 85.85 -28.45 M112.0 -66.5 Q113.15 -65.3 113.2 -63.75 113.85 -62.65 113.85 -61.4 L119.55 62.6 Q119.6 64.7 118.25 66.3 L118.2 66.3 Q116.7 67.95 114.6 67.95 L-114.6 67.95 Q-116.7 67.95 -118.2 66.3 -119.6 64.7 -119.55 62.6 L-113.85 -61.35 -113.85 -61.4 Q-113.85 -62.7 -113.15 -63.8 -112.9 -65.5 -111.7 -66.6 -110.25 -67.9 -108.35 -67.85 L108.65 -67.9 Q110.7 -67.9 111.95 -66.55 L112.0 -66.5 M71.8 -22.25 Q64.55 -20.25 54.65 -19.05 36.45 -16.8 0.45 -16.4 L0.9 64.95 73.6 64.95 73.65 60.7 73.0 28.0 72.8 22.95 72.35 5.9 71.8 -22.25 M71.8 -23.8 L73.15 -24.2 Q78.05 -25.65 81.55 -27.5 L83.05 -28.35 84.95 -29.65 Q107.4 -46.55 110.7 -62.0 L110.9 -62.95 Q111.1 -64.1 110.5 -64.85 109.8 -65.65 108.65 -65.65 L-108.35 -65.6 Q-109.5 -65.65 -110.25 -64.85 L-110.3 -64.8 Q-111.0 -63.95 -110.95 -62.85 L-110.8 -61.55 Q-108.45 -39.3 -83.05 -28.05 L-81.55 -27.4 -81.05 -27.2 Q-77.2 -25.6 -73.1 -24.3 L-71.75 -23.9 Q-61.9 -20.95 -50.75 -19.6 -34.15 -17.6 -3.0 -17.85 L-1.3 -17.9 3.35 -17.95 Q37.05 -18.4 54.45 -20.55 64.5 -21.8 71.8 -23.8" fill="#000000" fill-rule="evenodd" stroke="none" />
    </g>
  </defs>
  <g transform="matrix(1.0, 0.0, 0.0, 1.0, 0.0, 0.0)">
    <use height="132.85" id="fill" transform="matrix(0.4182, 0.0, 0.0, 0.7365, 0.6282, 1.0977)" width="236.1" xlink:href="#sprite0" />
    <use height="135.85" transform="matrix(0.4182, 0.0, 0.0, 0.7365, 0.0008, -0.007)" width="239.1" xlink:href="#sprite1" />
  </g>
</svg>