<?xml version="1.0" encoding="UTF-8" standalone="no"?>
<svg xmlns:xlink="http://www.w3.org/1999/xlink" height="100%" width="100%" xmlns="http://www.w3.org/2000/svg" preserveAspectRatio="none" viewBox="0 0 100 100">
  <defs>
    <g id="sprite0" transform="matrix(1.0, 0.0, 0.0, 1.0, 72.7, 69.75)">
      <use height="139.5" transform="matrix(1.0, 0.0, 0.0, 1.0, -72.7, -69.75)" width="145.45" xlink:href="#shape0" />
    </g>
    <g id="shape0" transform="matrix(1.0, 0.0, 0.0, 1.0, 72.7, 69.75)">
      <path d="M64.9 -69.75 Q67.2 -69.75 69.05 -68.1 70.85 -66.45 71.05 -64.1 L72.75 -43.45 72.4 -41.75 72.55 -41.2 Q72.55 -40.5 72.1 -39.9 L54.8 -16.5 Q57.95 10.75 57.95 28.8 57.95 44.3 56.3 64.8 L56.35 65.05 Q56.35 66.1 55.6 66.75 52.75 69.6 -0.1 69.75 -52.65 69.9 -55.7 67.2 -58.65 65.45 -58.85 27.4 L-58.85 22.6 Q-58.85 -7.75 -57.45 -19.05 -64.55 -25.65 -72.3 -39.6 L-72.6 -40.7 -72.35 -41.65 -72.7 -43.45 -72.7 -43.95 -71.05 -64.1 Q-70.8 -66.45 -69.0 -68.1 -67.2 -69.75 -64.9 -69.75 L64.9 -69.75" fill="#ffffff" fill-rule="evenodd" stroke="none" class="fill" />
    </g>
    <g id="sprite1" transform="matrix(1.0, 0.0, 0.0, 1.0, 72.7, 69.75)">
      <use height="139.5" transform="matrix(1.0, 0.0, 0.0, 1.0, -72.7, -69.75)" width="145.45" xlink:href="#shape1" />
    </g>
    <g id="shape1" transform="matrix(1.0, 0.0, 0.0, 1.0, 72.7, 69.75)">
      <path d="M53.2 64.9 Q55.0 43.6 55.0 27.55 55.0 7.65 51.5 -18.15 L-53.7 -18.3 Q-54.1 -18.3 -54.25 -18.55 L-54.55 -18.9 Q-55.9 -9.35 -55.9 21.25 -55.9 61.35 -53.95 64.8 L-53.55 65.0 -53.5 65.15 Q-49.2 66.7 -0.4 66.6 L53.2 64.9 M67.6 -38.8 L67.15 -38.75 -67.15 -38.75 -68.45 -39.0 Q-64.15 -32.3 -55.25 -22.0 L-53.35 -19.8 53.0 -19.65 67.6 -38.8 M67.8 -63.45 Q67.6 -66.1 64.9 -66.1 L-64.9 -66.1 Q-67.5 -66.1 -67.8 -63.45 L-69.45 -43.3 Q-69.55 -42.45 -69.15 -41.85 L-68.6 -41.25 Q-68.0 -40.8 -67.3 -40.8 L-67.15 -40.75 67.15 -40.75 67.2 -40.8 Q68.05 -40.8 68.55 -41.25 L68.9 -41.5 69.2 -42.0 Q69.5 -42.55 69.45 -43.3 L67.8 -63.45 M64.9 -69.75 Q67.2 -69.75 69.05 -68.1 70.85 -66.45 71.05 -64.1 L72.75 -43.45 72.4 -41.75 72.55 -41.2 Q72.55 -40.5 72.1 -39.9 L54.8 -16.5 Q57.95 10.75 57.95 28.8 57.95 44.3 56.3 64.8 L56.35 65.05 Q56.35 66.1 55.6 66.75 52.75 69.6 -0.1 69.75 -52.65 69.9 -55.7 67.2 -58.65 65.45 -58.85 27.4 L-58.85 22.6 Q-58.85 -7.75 -57.45 -19.05 -64.55 -25.65 -72.3 -39.6 L-72.6 -40.7 -72.35 -41.65 -72.7 -43.45 -72.7 -43.95 -71.05 -64.1 Q-70.8 -66.45 -69.0 -68.1 -67.2 -69.75 -64.9 -69.75 L64.9 -69.75" fill="#000000" fill-rule="evenodd" stroke="none" class="lines" />
    </g>
  </defs>
  <g transform="matrix(1.0, 0.0, 0.0, 1.0, 0.0, 0.0)">
    <use height="139.5" id="fill" transform="matrix(0.6879, 0.0, 0.0, 0.7168, -0.0079, 0.0002)" width="145.45" xlink:href="#sprite0" />
    <use height="139.5" id="lines" transform="matrix(0.6879, 0.0, 0.0, 0.7168, -0.0079, 0.0002)" width="145.45" xlink:href="#sprite1" />
  </g>
</svg>