<?xml version="1.0" encoding="UTF-8" standalone="no"?>
<svg xmlns:xlink="http://www.w3.org/1999/xlink" height="100%" width="100%" xmlns="http://www.w3.org/2000/svg" preserveAspectRatio="none" viewBox="0 0 100 100">
  <defs>
    <g id="sprite0" transform="matrix(1.0, 0.0, 0.0, 1.0, 159.9, 111.95)">
      <use height="223.95" transform="matrix(1.0, 0.0, 0.0, 1.0, -159.9, -111.95)" width="319.85" xlink:href="#shape0" />
    </g>
    <g id="shape0" transform="matrix(1.0, 0.0, 0.0, 1.0, 159.9, 111.95)">
      <path d="M154.05 -104.95 L159.95 19.3 Q160.0 20.8 159.0 21.85 157.95 22.9 156.5 22.85 L150.85 22.85 155.25 106.0 Q155.25 108.45 153.5 110.25 151.75 112.0 149.25 112.0 L47.75 112.0 Q45.25 112.0 43.5 110.25 41.75 108.5 41.75 106.0 L41.75 22.85 -124.8 22.85 -124.8 22.2 -125.25 22.5 -125.45 22.6 -125.5 22.6 -126.8 22.85 -156.45 22.85 Q-157.9 22.9 -158.9 21.85 -159.95 20.8 -159.9 19.3 L-154.0 -104.95 -153.6 -106.25 -153.3 -106.8 -153.1 -107.1 -153.2 -108.3 Q-153.3 -109.8 -152.35 -110.85 -151.35 -111.9 -149.85 -111.9 L150.45 -111.95 Q151.95 -111.95 152.75 -110.9 153.5 -109.9 153.1 -108.45 L153.1 -108.35 152.8 -107.45 153.6 -106.45 154.0 -105.25 154.05 -104.95" fill="#ffffff" fill-rule="evenodd" stroke="none" class="fill" />
    </g>
    <g id="sprite1" transform="matrix(1.0, 0.0, 0.0, 1.0, 161.9, 113.95)">
      <use height="227.95" transform="matrix(1.0, 0.0, 0.0, 1.0, -161.9, -113.95)" width="323.85" xlink:href="#shape1" />
    </g>
    <g id="shape1" transform="matrix(1.0, 0.0, 0.0, 1.0, 161.9, 113.95)">
      <path d="M-160.3 23.25 Q-162.0 21.55 -161.9 19.25 L-156.0 -105.05 -155.95 -105.2 Q-155.8 -106.55 -155.15 -107.65 L-155.2 -108.1 -155.2 -108.15 Q-155.35 -110.55 -153.8 -112.2 -152.2 -113.9 -149.85 -113.9 L150.45 -113.95 Q153.0 -113.95 154.35 -112.1 155.7 -110.4 155.05 -107.9 155.9 -106.65 156.05 -105.15 L156.05 -105.05 161.95 19.25 Q162.0 21.6 160.45 23.25 L160.45 23.3 Q158.75 24.9 156.5 24.85 L152.95 24.85 157.25 105.9 157.25 106.0 Q157.25 109.25 154.95 111.65 L154.95 111.7 Q152.6 114.0 149.25 114.0 L47.75 114.0 Q44.4 114.0 42.1 111.7 39.75 109.35 39.75 106.0 L39.75 24.85 -124.8 24.85 -125.55 24.7 -126.8 24.85 -156.35 24.85 -156.45 24.85 Q-158.7 24.9 -160.3 23.3 L-160.3 23.25 -160.3 23.3 -160.35 23.25 -160.3 23.25 M152.15 -108.7 Q152.4 -109.65 151.95 -110.3 151.4 -110.95 150.45 -110.95 L-149.85 -110.9 Q-150.9 -110.9 -151.6 -110.15 -152.25 -109.4 -152.2 -108.35 L-152.0 -106.75 Q-149.4 -84.85 -124.25 -73.7 L-122.45 -72.95 -122.25 -72.85 -118.85 -71.6 -116.8 -71.0 Q-103.5 -67.1 -79.75 -65.4 L-42.5 -63.9 -40.5 -63.85 Q-21.5 -63.55 2.65 -63.7 L40.6 -64.2 42.6 -64.25 87.0 -66.35 87.05 -66.35 Q106.6 -68.05 116.9 -71.6 L118.9 -72.35 Q120.8 -73.1 122.3 -73.9 L124.3 -75.15 124.6 -75.4 Q146.5 -91.9 151.65 -107.1 L152.15 -108.7 M153.05 -104.85 L153.05 -104.95 Q147.3 -90.0 125.8 -73.8 L124.3 -72.75 124.3 19.05 Q124.3 20.05 124.95 20.85 L125.1 21.05 Q125.85 21.85 126.85 21.85 L156.55 21.85 Q157.55 21.9 158.3 21.15 159.0 20.4 158.95 19.35 L153.05 -104.85 M-124.25 -71.55 Q-148.4 -81.9 -153.15 -101.55 L-158.9 19.35 Q-158.95 20.4 -158.2 21.15 L-158.15 21.15 Q-157.5 21.9 -156.45 21.85 L-126.8 21.85 Q-125.8 21.85 -125.05 21.05 -124.25 20.15 -124.25 19.05 L-124.25 -71.55 M-42.5 -61.9 L-79.9 -63.4 Q-103.4 -65.05 -116.8 -68.9 L-116.8 21.85 -42.2 21.85 -42.5 -61.9 M-118.85 -69.5 L-122.25 -70.7 -122.25 19.05 Q-122.25 20.6 -123.1 21.85 L-118.8 21.85 -118.85 -69.5 M122.3 -71.65 L118.9 -70.2 118.85 17.85 119.1 18.7 120.05 18.85 120.1 18.85 122.3 18.85 122.3 -71.65 M116.9 -69.5 Q106.4 -66.05 87.2 -64.35 L42.6 -62.25 42.25 22.0 42.45 22.15 42.75 22.85 42.75 106.0 Q42.75 108.1 44.2 109.55 45.65 111.0 47.75 111.0 L149.25 111.0 Q151.35 111.0 152.8 109.55 154.2 108.05 154.25 106.05 L149.9 23.85 126.85 23.85 Q124.95 23.85 123.6 22.4 122.95 21.65 122.65 20.85 L120.1 20.85 Q118.55 20.95 117.75 20.2 116.85 19.45 116.85 17.85 L116.9 -69.5 M40.6 -62.2 Q23.75 -61.8 2.65 -61.7 -21.5 -61.55 -40.5 -61.85 L-40.2 21.85 40.25 21.85 40.6 -62.2" fill="#000000" fill-rule="evenodd" stroke="none" />
    </g>
  </defs>
  <g transform="matrix(1.0, 0.0, 0.0, 1.0, 0.0, 0.0)">
    <use height="223.95" id="fill" transform="matrix(0.3089, 0.0, 0.0, 0.4389, 0.5997, 0.863)" width="319.85" xlink:href="#sprite0" />
    <use height="227.95" transform="matrix(0.3089, 0.0, 0.0, 0.4389, -0.0181, -0.0148)" width="323.85" xlink:href="#sprite1" />
  </g>
</svg>