<?xml version="1.0" encoding="UTF-8" standalone="no"?>
<svg xmlns:xlink="http://www.w3.org/1999/xlink" height="100%" width="100%" xmlns="http://www.w3.org/2000/svg" preserveAspectRatio="none" viewBox="0 0 100 100">
  <defs>
    <g id="sprite0" transform="matrix(1.0, 0.0, 0.0, 1.0, 47.7, 16.75)">
      <use height="33.4" transform="matrix(1.0, 0.0, 0.0, 1.0, -47.7, -16.75)" width="96.45" xlink:href="#shape0" />
    </g>
    <g id="shape0" transform="matrix(1.0, 0.0, 0.0, 1.0, 47.7, 16.75)">
      <path d="M48.75 -16.75 L48.75 16.65 -47.7 16.65 -47.7 -16.75 48.75 -16.75" fill="#ffffff" fill-rule="evenodd" stroke="none" class="fill" />
    </g>
    <g id="sprite1" transform="matrix(1.0, 0.0, 0.0, 1.0, 49.0, 18.0)">
      <use height="35.95" transform="matrix(1.0, 0.0, 0.0, 1.0, -49.0, -18.0)" width="99.05" xlink:href="#shape1" />
    </g>
    <g id="shape1" transform="matrix(1.0, 0.0, 0.0, 1.0, 49.0, 18.0)">
      <path d="M47.0 -14.7 L46.75 -14.95 -45.75 -14.95 -46.0 -14.7 -46.0 14.8 -45.75 15.05 46.75 15.05 47.0 14.8 47.0 -14.7 M47.75 -14.7 L47.75 14.8 Q47.75 15.8 46.75 15.8 L-45.75 15.8 Q-46.75 15.8 -46.75 14.8 L-46.75 -14.7 Q-46.75 -15.7 -45.75 -15.7 L46.75 -15.7 Q47.75 -15.7 47.75 -14.7 M50.05 17.95 L-49.0 17.95 -49.0 -18.0 50.05 -18.0 50.05 17.95 M48.25 16.2 L48.25 -16.2 -47.2 -16.2 -47.2 16.2 48.25 16.2" fill="#000000" fill-rule="evenodd" stroke="none" />
    </g>
  </defs>
  <g transform="matrix(1.0, 0.0, 0.0, 1.0, 0.0, 0.0)">
    <use height="33.4" id="fill" transform="matrix(1.0091, 0.0, 0.0, 2.7802, 1.3669, 3.5309)" width="96.45" xlink:href="#sprite0" />
    <use height="35.95" transform="matrix(1.0091, 0.0, 0.0, 2.7802, 0.0551, 0.0556)" width="99.05" xlink:href="#sprite1" />
  </g>
</svg>