<?xml version="1.0" encoding="UTF-8" standalone="no"?>
<svg xmlns:xlink="http://www.w3.org/1999/xlink" height="100%" width="100%" xmlns="http://www.w3.org/2000/svg" preserveAspectRatio="none" viewBox="0 0 100 100">
  <defs>
    <g id="sprite0" transform="matrix(1.0, 0.0, 0.0, 1.0, 149.3, 83.7)">
      <use height="167.45" transform="matrix(1.0, 0.0, 0.0, 1.0, -149.3, -83.7)" width="298.6" xlink:href="#shape0" />
    </g>
    <g id="shape0" transform="matrix(1.0, 0.0, 0.0, 1.0, 149.3, 83.7)">
      <path d="M-122.7 -8.45 L-123.7 -7.0 -123.7 72.95 -122.7 74.4 Q-121.45 75.7 -119.5 75.75 L-5.35 75.75 Q-3.45 75.7 -2.15 74.4 -0.85 73.1 -0.8 71.2 L-0.8 -5.25 Q-0.85 -7.2 -2.15 -8.45 -3.45 -9.75 -5.35 -9.8 L-119.5 -9.8 Q-121.45 -9.75 -122.7 -8.45 M-121.75 -10.3 Q-122.75 -10.5 -123.7 -11.0 L-123.7 -8.85 -123.4 -9.2 Q-122.65 -9.95 -121.75 -10.3 M-146.2 -26.9 Q-147.0 -26.05 -147.05 -24.8 L-147.05 74.8 Q-147.0 76.05 -146.2 76.9 -145.35 77.7 -144.1 77.75 L-127.7 77.75 -126.5 77.5 -125.6 76.9 Q-124.75 76.05 -124.7 74.8 L-124.7 -11.65 -124.95 -11.85 Q-126.85 -13.35 -127.7 -15.6 L-133.55 -27.75 -144.1 -27.75 Q-145.35 -27.7 -146.2 -26.9 M-137.7 -48.8 Q-139.45 -48.8 -140.3 -47.65 -141.15 -46.35 -140.55 -44.5 L-126.75 -16.0 Q-126.0 -14.0 -124.4 -12.65 -122.8 -11.3 -121.05 -11.25 L-4.75 -11.25 Q-3.05 -11.3 -1.95 -12.6 -1.25 -13.45 -0.95 -14.5 -0.8 -15.1 -0.8 -15.8 L-0.8 -44.25 Q-0.85 -46.2 -2.15 -47.45 -3.4 -48.75 -5.35 -48.8 L-137.7 -48.8 M-137.7 -81.45 Q-139.65 -81.4 -140.9 -80.1 -142.2 -78.85 -142.25 -76.9 L-142.25 -55.1 Q-142.2 -53.15 -140.9 -51.9 -139.65 -50.6 -137.7 -50.55 L-5.35 -50.55 Q-3.4 -50.6 -2.1 -51.9 -0.85 -53.15 -0.8 -55.1 L-0.8 -76.9 Q-0.85 -78.85 -2.1 -80.1 -3.4 -81.4 -5.35 -81.45 L-137.7 -81.45 M127.75 78.75 L127.65 78.75 126.5 78.6 124.85 77.6 Q123.75 76.45 123.7 74.8 L123.7 74.75 123.35 75.1 Q121.8 76.7 119.45 76.75 L5.3 76.75 Q2.95 76.65 1.35 75.1 0.35 74.1 -0.05 72.75 -0.45 74.1 -1.45 75.1 -3.0 76.7 -5.35 76.75 L-119.5 76.75 Q-121.85 76.65 -123.45 75.1 L-123.7 74.85 Q-123.75 76.45 -124.9 77.6 -125.6 78.3 -126.5 78.55 L-127.7 78.75 -127.8 78.75 -127.8 80.55 Q-127.7 81.4 -126.85 81.5 L126.8 81.5 Q127.65 81.4 127.75 80.55 L127.75 78.75 M123.7 -8.75 L123.7 -11.0 Q122.75 -10.5 121.7 -10.3 122.6 -9.9 123.35 -9.15 L123.7 -8.75 M146.15 -26.9 Q145.3 -27.7 144.05 -27.75 L133.5 -27.75 127.65 -15.65 Q126.8 -13.35 124.9 -11.85 L124.7 -11.65 124.7 74.8 Q124.75 76.05 125.55 76.9 L126.5 77.55 127.65 77.75 144.05 77.75 Q145.35 77.7 146.15 76.9 147.0 76.05 147.05 74.8 L147.05 -24.8 Q147.0 -26.05 146.15 -26.9 M2.1 -8.45 Q0.8 -7.2 0.75 -5.25 L0.75 71.2 Q0.8 73.1 2.1 74.4 3.35 75.7 5.3 75.75 L119.45 75.75 Q121.35 75.7 122.65 74.4 L123.7 72.8 123.7 -6.85 122.65 -8.45 Q121.35 -9.75 119.45 -9.8 L5.3 -9.8 Q3.35 -9.75 2.1 -8.45 M0.0 -6.75 Q0.35 -8.15 1.4 -9.2 L3.4 -10.45 Q2.15 -10.85 1.2 -11.9 0.3 -12.9 0.0 -14.15 -0.35 -12.9 -1.25 -11.9 -2.2 -10.85 -3.4 -10.45 -2.3 -10.05 -1.45 -9.15 -0.45 -8.15 0.0 -6.75 M2.1 -47.45 Q0.8 -46.2 0.75 -44.25 L0.75 -15.75 Q0.8 -13.9 1.9 -12.6 3.0 -11.3 4.7 -11.25 L121.0 -11.25 Q122.4 -11.3 123.7 -12.15 L124.35 -12.65 124.7 -12.95 Q126.05 -14.25 126.7 -16.05 L140.5 -44.4 Q141.1 -46.35 140.25 -47.65 139.4 -48.8 137.65 -48.8 L5.3 -48.8 Q3.35 -48.75 2.1 -47.45 M0.5 -50.3 L0.0 -50.85 -0.55 -50.3 -1.25 -49.65 Q-0.55 -49.15 0.0 -48.45 0.55 -49.15 1.25 -49.65 L0.5 -50.3 M0.5 -81.7 Q2.4 -83.65 5.3 -83.7 L137.65 -83.7 Q140.55 -83.65 142.45 -81.7 144.4 -79.8 144.45 -76.9 L144.45 -55.1 Q144.4 -52.2 142.45 -50.3 L141.6 -49.55 142.1 -48.95 Q143.0 -47.65 143.0 -45.9 143.0 -44.8 142.6 -43.7 L142.6 -43.6 141.8 -41.95 139.95 -38.15 137.75 -33.65 136.0 -30.0 139.45 -30.0 142.7 -30.0 144.1 -30.0 Q146.3 -29.95 147.75 -28.5 149.25 -27.0 149.3 -24.8 L149.3 74.8 Q149.25 77.0 147.75 78.45 146.3 79.95 144.1 80.0 L142.25 80.0 138.1 80.0 133.35 80.0 130.0 80.0 130.0 80.35 130.0 80.55 Q130.0 81.9 129.05 82.8 128.15 83.7 126.8 83.75 L-126.85 83.75 Q-128.2 83.7 -129.1 82.8 -130.0 81.9 -130.0 80.55 L-130.0 80.35 -130.0 80.0 -133.4 80.0 -138.1 80.0 -142.3 80.0 -144.1 80.0 Q-146.3 79.95 -147.75 78.45 -149.25 77.0 -149.3 74.8 L-149.3 -24.8 Q-149.25 -27.0 -147.75 -28.5 -146.3 -29.95 -144.1 -30.0 L-142.7 -30.0 -139.5 -30.0 -136.0 -30.0 -137.8 -33.65 -139.95 -38.15 -141.8 -41.95 -142.6 -43.6 -142.65 -43.7 -143.0 -45.9 Q-143.0 -47.6 -142.1 -48.95 L-141.6 -49.5 -142.5 -50.3 Q-144.45 -52.2 -144.5 -55.1 L-144.5 -76.9 Q-144.45 -79.8 -142.5 -81.7 -140.6 -83.65 -137.7 -83.7 L-5.35 -83.7 Q-2.45 -83.65 -0.55 -81.7 L0.0 -81.1 0.5 -81.7 M2.1 -80.1 Q0.8 -78.85 0.75 -76.9 L0.75 -55.1 Q0.8 -53.15 2.1 -51.9 3.35 -50.6 5.3 -50.55 L137.65 -50.55 Q139.6 -50.6 140.9 -51.9 142.15 -53.15 142.2 -55.1 L142.2 -76.9 Q142.15 -78.85 140.9 -80.1 139.6 -81.4 137.65 -81.45 L5.3 -81.45 Q3.35 -81.4 2.1 -80.1" fill="#000000" fill-rule="evenodd" stroke="none" class="line" />
    </g>
    <g id="sprite1" transform="matrix(1.0, 0.0, 0.0, 1.0, 147.05, 81.45)">
      <use height="162.95" transform="matrix(1.0, 0.0, 0.0, 1.0, -147.05, -81.45)" width="294.1" xlink:href="#shape1" />
    </g>
    <g id="shape1" transform="matrix(1.0, 0.0, 0.0, 1.0, 147.05, 81.45)">
      <path d="M5.3 -81.45 L137.65 -81.45 Q139.6 -81.4 140.9 -80.1 142.15 -78.85 142.2 -76.9 L142.2 -55.1 Q142.15 -53.15 140.9 -51.9 139.6 -50.6 137.65 -50.55 L5.3 -50.55 Q3.35 -50.6 2.1 -51.9 0.8 -53.15 0.75 -55.1 L0.75 -76.9 Q0.8 -78.85 2.1 -80.1 3.35 -81.4 5.3 -81.45 M2.1 -47.45 Q3.35 -48.75 5.3 -48.8 L137.65 -48.8 Q139.4 -48.8 140.25 -47.65 141.1 -46.35 140.5 -44.4 L126.7 -16.05 Q126.05 -14.25 124.7 -12.95 L124.35 -12.65 123.7 -12.15 Q122.4 -11.3 121.0 -11.25 L4.7 -11.25 Q3.0 -11.3 1.9 -12.6 0.8 -13.9 0.75 -15.75 L0.75 -44.25 Q0.8 -46.2 2.1 -47.45 M1.2 -11.9 Q2.15 -10.85 3.4 -10.45 L1.4 -9.2 Q0.35 -8.15 0.0 -6.75 -0.45 -8.15 -1.45 -9.15 -2.3 -10.05 -3.4 -10.45 -2.2 -10.85 -1.25 -11.9 -0.35 -12.9 0.0 -14.15 0.3 -12.9 1.2 -11.9 M2.1 -8.45 Q3.35 -9.75 5.3 -9.8 L119.45 -9.8 Q121.35 -9.75 122.65 -8.45 L123.7 -6.85 123.7 72.8 122.65 74.4 Q121.35 75.7 119.45 75.75 L5.3 75.75 Q3.35 75.7 2.1 74.4 0.8 73.1 0.75 71.2 L0.75 -5.25 Q0.8 -7.2 2.1 -8.45 M147.05 -24.8 L147.05 74.8 Q147.0 76.05 146.15 76.9 145.35 77.7 144.05 77.75 L127.65 77.75 126.5 77.55 125.55 76.9 Q124.75 76.05 124.7 74.8 L124.7 -11.65 124.9 -11.85 Q126.8 -13.35 127.65 -15.65 L133.5 -27.75 144.05 -27.75 Q145.3 -27.7 146.15 -26.9 147.0 -26.05 147.05 -24.8 M121.7 -10.3 Q122.75 -10.5 123.7 -11.0 L123.7 -8.75 123.35 -9.15 Q122.6 -9.9 121.7 -10.3 M127.75 78.75 L127.75 80.55 Q127.65 81.4 126.8 81.5 L-126.85 81.5 Q-127.7 81.4 -127.8 80.55 L-127.8 78.75 -127.7 78.75 -126.5 78.55 Q-125.6 78.3 -124.9 77.6 -123.75 76.45 -123.7 74.85 L-123.45 75.1 Q-121.85 76.65 -119.5 76.75 L-5.35 76.75 Q-3.0 76.7 -1.45 75.1 -0.45 74.1 -0.05 72.75 0.35 74.1 1.35 75.1 2.95 76.65 5.3 76.75 L119.45 76.75 Q121.8 76.7 123.35 75.1 L123.7 74.75 123.7 74.8 Q123.75 76.45 124.85 77.6 L126.5 78.6 127.65 78.75 127.75 78.75 M-137.7 -81.45 L-5.35 -81.45 Q-3.4 -81.4 -2.1 -80.1 -0.85 -78.85 -0.8 -76.9 L-0.8 -55.1 Q-0.85 -53.15 -2.1 -51.9 -3.4 -50.6 -5.35 -50.55 L-137.7 -50.55 Q-139.65 -50.6 -140.9 -51.9 -142.2 -53.15 -142.25 -55.1 L-142.25 -76.9 Q-142.2 -78.85 -140.9 -80.1 -139.65 -81.4 -137.7 -81.45 M-140.3 -47.65 Q-139.45 -48.8 -137.7 -48.8 L-5.35 -48.8 Q-3.4 -48.75 -2.15 -47.45 -0.85 -46.2 -0.8 -44.25 L-0.8 -15.8 Q-0.8 -15.1 -0.95 -14.5 -1.25 -13.45 -1.95 -12.6 -3.05 -11.3 -4.75 -11.25 L-121.05 -11.25 Q-122.8 -11.3 -124.4 -12.65 -126.0 -14.0 -126.75 -16.0 L-140.55 -44.5 Q-141.15 -46.35 -140.3 -47.65 M-144.1 -27.75 L-133.55 -27.75 -127.7 -15.6 Q-126.85 -13.35 -124.95 -11.85 L-124.7 -11.65 -124.7 74.8 Q-124.75 76.05 -125.6 76.9 L-126.5 77.5 -127.7 77.75 -144.1 77.75 Q-145.35 77.7 -146.2 76.9 -147.0 76.05 -147.05 74.8 L-147.05 -24.8 Q-147.0 -26.05 -146.2 -26.9 -145.35 -27.7 -144.1 -27.75 M-122.7 -8.45 Q-121.45 -9.75 -119.5 -9.8 L-5.35 -9.8 Q-3.45 -9.75 -2.15 -8.45 -0.85 -7.2 -0.8 -5.25 L-0.8 71.2 Q-0.85 73.1 -2.15 74.4 -3.45 75.7 -5.35 75.75 L-119.5 75.75 Q-121.45 75.7 -122.7 74.4 L-123.7 72.95 -123.7 -7.0 -122.7 -8.45 M-123.4 -9.2 L-123.7 -8.85 -123.7 -11.0 Q-122.75 -10.5 -121.75 -10.3 -122.65 -9.95 -123.4 -9.2" fill="#ffffff" fill-rule="evenodd" stroke="none" class="fill" />
    </g>
  </defs>
  <g transform="matrix(1.0, 0.0, 0.0, 1.0, 0.0, 0.0)">
    <use height="167.45" id="line" transform="matrix(0.3349, 0.0, 0.0, 0.5974, -0.0006, 0.0004)" width="298.6" xlink:href="#sprite0" />
    <use height="162.95" id="fill" transform="matrix(0.3349, 0.0, 0.0, 0.5974, 0.753, 1.3445)" width="294.1" xlink:href="#sprite1" />
  </g>
</svg>