<?xml version="1.0" encoding="UTF-8" standalone="no"?>
<svg xmlns:xlink="http://www.w3.org/1999/xlink" height="100%" width="100%" xmlns="http://www.w3.org/2000/svg" preserveAspectRatio="none" viewBox="0 0 100 100">
  <defs>
    <g id="sprite0" transform="matrix(1.0, 0.0, 0.0, 1.0, 174.6, 82.0)">
      <use height="163.0" transform="matrix(1.0, 0.0, 0.0, 1.0, -174.6, -82.0)" width="349.25" xlink:href="#shape0" />
    </g>
    <g id="shape0" transform="matrix(1.0, 0.0, 0.0, 1.0, 174.6, 82.0)">
      <path d="M168.4 -82.0 Q170.9 -82.0 172.65 -80.25 174.4 -78.5 174.4 -76.0 174.4 -73.5 172.65 -71.75 170.9 -70.0 168.4 -70.0 L167.9 -70.0 Q174.65 -67.5 174.65 -58.05 L174.65 51.95 Q174.65 64.0 166.15 72.45 158.5 80.1 148.0 80.9 L148.4 81.0 139.3 80.25 Q128.95 78.3 122.7 72.25 119.8 81.0 106.9 81.0 L18.9 81.0 Q14.4 81.0 9.9 78.75 0.9 74.2 0.9 63.0 L0.4 63.05 Q0.4 74.2 -8.6 78.75 -13.1 81.0 -17.6 81.0 L-105.6 81.0 Q-118.7 81.0 -121.45 72.0 L-121.75 70.95 -122.6 71.0 Q-126.35 77.9 -139.35 80.1 L-147.9 80.95 -151.6 80.95 Q-163.05 80.95 -169.1 72.45 -174.6 64.8 -174.6 51.95 L-174.6 -58.05 Q-174.6 -67.6 -167.8 -70.0 -170.2 -70.1 -171.9 -71.85 -173.6 -73.6 -173.6 -76.0 -173.6 -78.45 -171.85 -80.25 -170.05 -82.0 -167.6 -82.0 L168.4 -82.0" fill="#ffffff" fill-rule="evenodd" stroke="none" class="fill" />
    </g>
    <g id="sprite1" transform="matrix(1.0, 0.0, 0.0, 1.0, 175.6, 83.0)">
      <use height="165.5" transform="matrix(1.0, 0.0, 0.0, 1.0, -175.6, -83.0)" width="351.25" xlink:href="#shape1" />
    </g>
    <g id="shape1" transform="matrix(1.0, 0.0, 0.0, 1.0, 175.6, 83.0)">
      <path d="M-122.3 72.55 Q-123.6 74.75 -125.8 76.5 L-120.3 76.5 Q-121.6 74.8 -122.3 72.55 M-121.55 -29.05 Q-121.85 -29.55 -122.3 -29.6 L-124.1 52.95 Q-124.1 64.45 -131.85 68.9 -137.9 72.45 -151.6 72.45 -164.55 72.45 -169.4 68.85 L-170.6 67.8 Q-169.65 70.0 -168.3 71.9 L-168.25 71.9 Q-162.5 79.95 -151.6 79.95 L-147.9 79.95 -139.5 79.15 Q-127.1 77.0 -123.45 70.55 -123.3 70.2 -122.9 70.1 -123.25 68.0 -123.05 65.7 L-123.05 65.65 -122.6 62.85 -122.2 62.2 -121.75 62.0 -118.85 -23.6 Q-119.95 -23.7 -120.55 -24.5 -121.15 -25.3 -121.15 -27.0 -121.2 -28.4 -121.55 -29.05 M-164.0 -69.5 L-163.85 -69.75 -166.9 -69.5 -164.0 -69.5 M-164.6 -68.15 L-164.45 -68.5 -167.6 -68.5 -168.55 -68.55 Q-173.6 -65.95 -173.6 -58.05 L-173.6 51.95 Q-173.6 58.8 -172.0 64.15 -170.75 66.6 -168.8 68.05 -164.15 71.45 -151.6 71.45 -138.3 71.45 -132.35 68.05 -125.1 63.85 -125.1 52.95 L-123.3 -29.6 -137.55 -28.6 Q-153.2 -26.6 -160.45 -34.05 -166.0 -39.7 -165.95 -48.95 L-165.95 -56.15 Q-166.0 -64.7 -164.6 -68.15 M5.0 76.5 Q1.85 73.45 0.65 69.05 -0.55 73.45 -3.65 76.5 L5.0 76.5 M127.4 77.5 Q125.0 76.05 123.0 74.25 122.15 76.1 120.8 77.5 L127.4 77.5 M173.35 -80.95 Q175.4 -78.9 175.4 -76.0 175.4 -73.85 174.3 -72.15 L173.0 -70.4 171.4 -69.2 Q175.65 -65.8 175.65 -58.05 L175.65 51.95 Q175.65 64.4 166.85 73.15 159.25 80.75 149.0 81.85 L148.9 81.9 148.9 82.0 148.8 82.35 148.45 82.5 139.05 81.75 Q133.55 80.7 129.25 78.5 L120.4 78.5 120.05 78.35 120.0 78.25 119.6 78.55 Q115.4 82.25 106.9 82.25 L18.9 82.25 Q14.35 82.25 9.8 80.0 L6.1 77.5 -4.6 77.5 -4.75 77.5 -8.45 80.0 -8.5 80.0 Q-13.05 82.25 -17.6 82.25 L-105.6 82.25 Q-114.2 82.25 -118.4 78.45 L-119.45 77.5 -119.6 77.5 -126.6 77.5 -126.95 77.35 Q-131.5 80.3 -139.25 81.6 L-147.85 82.45 -151.6 82.45 -151.95 82.3 -152.1 81.95 Q-163.7 81.75 -169.9 73.05 -175.6 65.15 -175.6 51.95 L-175.6 -58.05 Q-175.6 -66.15 -171.0 -69.45 L-172.2 -70.4 Q-173.05 -71.25 -173.5 -72.25 -174.6 -73.95 -174.6 -76.0 -174.6 -78.85 -172.55 -80.95 -170.45 -83.0 -167.6 -83.0 L168.4 -83.0 Q171.3 -83.0 173.35 -80.95 M151.85 -31.65 L151.7 -31.75 123.4 -32.6 126.15 52.95 Q126.15 62.95 134.7 68.1 140.45 71.55 145.65 71.45 159.35 71.45 165.95 68.0 169.35 66.2 171.35 63.35 173.65 58.1 173.65 51.95 L173.65 -58.05 Q173.65 -62.05 172.35 -64.7 170.75 -67.3 167.8 -68.5 L162.6 -68.5 162.8 -68.3 Q167.15 -63.3 167.2 -56.15 L167.2 -48.95 Q167.15 -41.75 162.85 -36.75 158.55 -31.75 152.4 -31.7 L152.2 -31.6 151.85 -31.65 M156.15 -42.45 Q155.0 -36.85 152.85 -32.45 158.35 -32.7 162.3 -37.25 166.45 -42.05 166.45 -48.95 L166.45 -56.15 Q166.45 -63.0 162.25 -67.8 158.0 -72.6 152.05 -72.6 L-156.8 -72.6 Q-162.1 -72.65 -163.9 -67.9 -165.2 -64.5 -165.2 -56.15 L-165.2 -48.95 Q-165.2 -41.45 -161.5 -36.45 -162.35 -40.05 -162.4 -43.8 -162.55 -53.4 -156.2 -54.95 L-105.8 -56.95 Q-59.1 -58.0 -3.35 -58.35 143.55 -59.35 152.65 -54.95 158.1 -52.3 156.15 -42.45 M117.4 -26.35 Q119.25 -26.45 119.25 -29.5 119.25 -33.45 121.4 -33.35 140.25 -33.4 151.7 -32.5 154.0 -36.9 155.15 -42.65 156.9 -51.6 152.2 -54.05 143.15 -58.35 -3.35 -57.35 -59.1 -57.0 -105.8 -55.95 L-155.95 -54.0 Q-161.55 -52.5 -161.4 -43.8 -161.35 -39.35 -160.1 -35.15 L-160.1 -34.8 -159.9 -34.6 Q-152.8 -27.4 -137.65 -29.35 L-122.6 -30.35 Q-121.5 -30.4 -120.9 -29.45 -120.4 -28.65 -120.4 -27.0 -120.45 -25.65 -119.95 -24.95 -119.5 -24.35 -118.6 -24.35 -37.0 -26.1 117.4 -26.35 M161.5 -69.65 L161.65 -69.5 163.35 -69.5 161.5 -69.65 M152.05 -73.35 Q156.6 -73.4 160.2 -70.7 L166.3 -70.0 166.9 -69.85 166.95 -70.15 167.25 -70.75 Q167.55 -71.0 167.9 -71.0 L168.4 -71.0 Q170.5 -71.0 171.95 -72.45 173.4 -73.9 173.4 -76.0 173.4 -77.15 173.0 -78.1 L172.3 -78.9 Q170.7 -80.5 168.4 -80.5 L-167.6 -80.5 Q-169.85 -80.5 -171.5 -78.9 L-172.1 -78.15 Q-172.6 -77.15 -172.6 -76.0 -172.6 -74.0 -171.15 -72.55 -169.75 -71.1 -167.75 -71.0 L-167.1 -70.75 -166.9 -70.5 -163.1 -70.75 Q-160.95 -73.35 -156.8 -73.35 L152.05 -73.35 M0.15 -25.0 L0.2 -25.15 Q-71.2 -24.65 -118.35 -23.6 L-121.25 62.05 Q-121.0 62.15 -120.8 62.4 -120.55 62.75 -120.6 63.15 L-121.05 65.95 Q-121.35 69.1 -120.5 71.7 -117.85 80.0 -105.6 80.0 L-17.6 80.0 Q-13.35 80.0 -9.05 77.85 -0.55 73.55 -0.6 63.0 L-0.3 62.3 Q-0.1 62.1 0.15 62.05 L0.15 -25.0 M0.6 -25.15 L0.65 -25.0 1.15 62.05 1.6 62.3 1.9 63.0 Q1.85 73.55 10.35 77.85 14.65 80.0 18.9 80.0 L106.9 80.0 Q118.95 80.0 121.75 71.95 L122.15 71.4 122.8 71.25 122.95 71.3 Q123.3 69.2 123.1 66.85 L122.65 64.05 119.15 -25.0 119.25 -25.15 119.4 -25.25 119.6 -25.15 119.65 -25.0 123.15 64.0 123.6 66.8 Q123.85 69.3 123.4 71.55 129.45 77.4 139.5 79.3 L145.3 80.05 145.6 79.95 145.65 79.95 147.35 79.85 147.45 79.85 147.4 79.9 147.85 79.8 148.25 79.9 Q158.2 79.0 165.45 71.75 167.75 69.5 169.4 66.95 L166.4 68.9 Q159.65 72.45 145.65 72.45 140.25 72.55 134.2 68.95 125.15 63.55 125.15 53.0 L122.4 -32.6 121.4 -32.6 Q120.0 -32.55 120.0 -29.5 120.0 -25.55 117.4 -25.6 L0.6 -25.15" fill="#000000" fill-rule="evenodd" stroke="none" class="line" />
    </g>
  </defs>
  <g transform="matrix(1.0, 0.0, 0.0, 1.0, 0.0, 0.0)">
    <use height="163.0" id="fill" transform="matrix(0.2848, 0.0, 0.0, 0.6044, 0.2677, 0.5929)" width="349.25" xlink:href="#sprite0" />
    <use height="165.5" id="line" transform="matrix(0.2848, 0.0, 0.0, 0.6044, -0.0172, -0.0115)" width="351.25" xlink:href="#sprite1" />
  </g>
</svg>