<?xml version="1.0" encoding="UTF-8" standalone="no"?>
<svg xmlns:xlink="http://www.w3.org/1999/xlink" height="100%" width="100%" xmlns="http://www.w3.org/2000/svg" preserveAspectRatio="none" viewBox="0 0 100 100">
  <defs>
    <g id="sprite0" transform="matrix(1.0, 0.0, 0.0, 1.0, 89.25, 32.0)">
      <use height="64.0" transform="matrix(1.0, 0.0, 0.0, 1.0, -89.25, -32.0)" width="178.5" xlink:href="#shape0" />
    </g>
    <g id="shape0" transform="matrix(1.0, 0.0, 0.0, 1.0, 89.25, 32.0)">
      <path d="M-89.25 -32.0 L89.25 -32.0 89.25 32.0 -89.25 32.0 -89.25 -32.0" fill="#ffffff" fill-rule="evenodd" stroke="none" class="fill" />
    </g>
    <g id="sprite1" transform="matrix(1.0, 0.0, 0.0, 1.0, 90.7, 33.8)">
      <use height="67.6" transform="matrix(1.0, 0.0, 0.0, 1.0, -90.7, -33.8)" width="181.4" xlink:href="#shape1" />
    </g>
    <g id="shape1" transform="matrix(1.0, 0.0, 0.0, 1.0, 90.7, 33.8)">
      <path d="M-87.7 -30.8 L-87.7 30.8 87.7 30.8 87.7 -30.8 -87.7 -30.8 M89.2 -33.8 Q90.7 -33.8 90.7 -32.3 L90.7 32.3 Q90.7 33.8 89.2 33.8 L-89.2 33.8 Q-90.7 33.8 -90.7 32.3 L-90.7 -32.3 Q-90.7 -33.8 -89.2 -33.8 L89.2 -33.8" fill="#000000" fill-rule="evenodd" stroke="none" class="lines" />
      <path d="M-34.05 -20.8 L-75.45 -20.8 -75.45 19.25 -34.05 19.25 -34.05 -20.8 M-76.95 -21.55 Q-76.95 -22.3 -76.2 -22.3 L-33.3 -22.3 Q-32.55 -22.3 -32.55 -21.55 L-32.55 20.0 Q-32.55 20.75 -33.3 20.75 L-76.2 20.75 Q-76.95 20.75 -76.95 20.0 L-76.95 -21.55" fill="#000000" fill-rule="evenodd" stroke="none" class="lines" />
      <path d="M-19.85 -20.8 L-19.85 19.25 21.55 19.25 21.55 -20.8 -19.85 -20.8 M22.3 -22.3 Q23.05 -22.3 23.05 -21.55 L23.05 20.0 Q23.05 20.75 22.3 20.75 L-20.6 20.75 Q-21.35 20.75 -21.35 20.0 L-21.35 -21.55 Q-21.35 -22.3 -20.6 -22.3 L22.3 -22.3" fill="#000000" fill-rule="evenodd" stroke="none" class="lines" />
      <path d="M75.75 -20.8 L34.3 -20.8 34.3 19.25 75.75 19.25 75.75 -20.8 M32.8 -21.55 Q32.8 -22.3 33.55 -22.3 L76.5 -22.3 Q77.25 -22.3 77.25 -21.55 L77.25 20.0 Q77.25 20.75 76.5 20.75 L33.55 20.75 Q32.8 20.75 32.8 20.0 L32.8 -21.55" fill="#000000" fill-rule="evenodd" stroke="none" class="lines" />
    </g>
  </defs>
  <g transform="matrix(1.0, 0.0, 0.0, 1.0, 0.0, 0.0)">
    <use height="64.0" id="fill" transform="matrix(0.5513, 0.0, 0.0, 1.4793, 0.7992, 2.7626)" width="178.5" xlink:href="#sprite0" />
    <use height="67.6" id="lines" transform="matrix(0.5513, 0.0, 0.0, 1.4793, -0.0001, -0.0001)" width="181.4" xlink:href="#sprite1" />
  </g>
</svg>