<?xml version="1.0" encoding="UTF-8" standalone="no"?>
<svg xmlns:xlink="http://www.w3.org/1999/xlink" height="100%" width="100%" xmlns="http://www.w3.org/2000/svg" preserveAspectRatio="none" viewBox="0 0 100 100">
  <defs>
    <g id="sprite0" transform="matrix(1.0, 0.0, 0.0, 1.0, 159.9, 111.6)">
      <use height="223.2" transform="matrix(1.0, 0.0, 0.0, 1.0, -159.9, -111.6)" width="319.85" xlink:href="#shape0" />
    </g>
    <g id="shape0" transform="matrix(1.0, 0.0, 0.0, 1.0, 159.9, 111.6)">
      <path d="M153.1 -108.15 L153.05 -107.85 152.8 -107.1 153.6 -106.1 154.0 -104.9 154.05 -104.6 159.95 19.65 Q160.0 21.1 159.0 22.15 157.95 23.2 156.5 23.2 L126.85 23.2 126.8 23.2 126.3 23.15 Q125.5 23.0 124.85 22.55 L124.85 23.2 120.1 23.2 Q117.85 23.3 117.85 21.2 L117.7 23.2 45.5 23.2 46.85 105.6 Q46.85 108.1 45.1 109.85 43.35 111.6 40.85 111.6 L-40.65 111.6 Q-43.15 111.6 -44.9 109.85 -46.65 108.1 -46.65 105.6 L-45.35 23.2 -124.8 23.2 -124.8 22.55 Q-125.45 23.05 -126.25 23.15 L-126.8 23.2 -156.45 23.2 Q-157.9 23.2 -158.9 22.15 -159.95 21.1 -159.9 19.65 L-154.0 -104.6 -153.6 -105.9 -153.3 -106.45 -153.05 -106.75 -153.2 -108.0 Q-153.3 -109.45 -152.35 -110.5 -151.35 -111.55 -149.85 -111.55 L150.45 -111.6 Q151.95 -111.6 152.75 -110.6 153.5 -109.6 153.1 -108.15" fill="#ffffff" fill-rule="evenodd" stroke="none" class="fill" />
    </g>
    <g id="sprite1" transform="matrix(1.0, 0.0, 0.0, 1.0, 161.9, 113.6)">
      <use height="227.2" transform="matrix(1.0, 0.0, 0.0, 1.0, -161.9, -113.6)" width="323.85" xlink:href="#shape1" />
    </g>
    <g id="shape1" transform="matrix(1.0, 0.0, 0.0, 1.0, 161.9, 113.6)">
      <path d="M-160.3 23.55 Q-162.0 21.85 -161.9 19.6 L-156.0 -104.7 -155.95 -104.85 Q-155.8 -106.2 -155.1 -107.3 L-155.2 -107.8 -155.2 -107.85 Q-155.35 -110.15 -153.8 -111.85 -152.2 -113.55 -149.85 -113.55 L150.45 -113.6 Q153.0 -113.6 154.3 -111.85 L154.35 -111.8 Q155.7 -110.1 155.05 -107.6 L155.05 -107.55 Q155.9 -106.3 156.05 -104.8 L156.05 -104.7 161.95 19.6 Q162.05 21.85 160.45 23.55 L160.45 23.6 Q158.8 25.2 156.5 25.2 L126.85 25.2 125.65 25.05 124.85 25.2 120.2 25.2 120.1 25.2 118.5 25.05 117.7 25.2 47.5 25.2 48.85 105.6 Q48.85 108.95 46.55 111.3 44.2 113.6 40.85 113.6 L-40.65 113.6 Q-44.0 113.6 -46.3 111.3 -48.65 108.95 -48.65 105.6 L-47.35 25.2 -124.8 25.2 -125.55 25.05 -126.8 25.2 -156.45 25.2 Q-158.7 25.2 -160.3 23.6 L-160.3 23.55 -160.3 23.6 -160.35 23.55 -160.3 23.55 M155.05 -107.65 L155.05 -107.6 155.05 -107.65 M-124.25 -71.2 Q-148.4 -81.55 -153.15 -101.2 L-158.9 19.7 Q-158.95 20.7 -158.2 21.45 L-158.15 21.45 Q-157.45 22.2 -156.45 22.2 L-126.8 22.2 Q-125.8 22.2 -125.05 21.4 -124.25 20.5 -124.25 19.4 L-124.25 -71.2 M-45.0 -61.6 L-79.9 -63.05 Q-103.25 -64.7 -116.6 -68.5 L-116.65 22.2 -46.3 22.2 -45.0 -61.6 M-118.85 -69.15 L-122.25 -70.35 -122.25 19.4 Q-122.25 20.95 -123.1 22.2 L-118.8 22.2 -118.85 -69.15 M122.3 -71.3 L118.9 -69.85 118.85 21.2 Q118.85 21.75 119.1 22.0 L120.05 22.2 123.2 22.2 Q122.3 20.95 122.3 19.4 L122.3 -71.3 M116.65 -69.05 Q106.15 -65.65 87.2 -64.0 L45.05 -61.95 46.45 22.2 116.7 22.2 116.65 -69.05 M43.05 -61.9 Q25.3 -61.5 2.65 -61.35 -23.1 -61.2 -43.0 -61.55 L-45.65 105.65 Q-45.65 107.7 -44.2 109.15 -42.75 110.6 -40.65 110.6 L40.85 110.6 Q42.95 110.6 44.4 109.15 45.85 107.7 45.85 105.65 L43.05 -61.9 M153.05 -104.5 L153.05 -104.65 Q147.3 -89.6 125.8 -73.45 L124.3 -72.4 124.3 19.4 Q124.3 20.5 125.1 21.4 125.85 22.2 126.85 22.2 L156.5 22.2 Q157.55 22.2 158.3 21.45 159.0 20.7 158.95 19.7 L153.05 -104.5 M152.15 -108.4 Q152.4 -109.35 151.95 -110.0 151.4 -110.6 150.45 -110.6 L-149.85 -110.55 Q-150.9 -110.55 -151.6 -109.8 -152.25 -109.05 -152.2 -108.05 L-152.0 -106.4 Q-149.4 -84.45 -124.25 -73.35 L-122.45 -72.6 -122.25 -72.5 -118.85 -71.25 -116.6 -70.55 Q-103.35 -66.7 -79.75 -65.05 L-44.95 -63.6 -42.95 -63.55 Q-23.1 -63.2 2.65 -63.35 25.3 -63.5 43.0 -63.9 L45.05 -63.95 87.0 -66.0 87.05 -66.0 Q106.35 -67.7 116.65 -71.15 117.85 -71.6 118.9 -72.0 120.8 -72.75 122.3 -73.55 L124.3 -74.8 124.6 -75.05 Q146.5 -91.55 151.65 -106.75 L152.15 -108.4" fill="#000000" fill-rule="evenodd" stroke="none" />
    </g>
  </defs>
  <g transform="matrix(1.0, 0.0, 0.0, 1.0, 0.0, 0.0)">
    <use height="223.2" id="fill" transform="matrix(0.3089, 0.0, 0.0, 0.4401, 0.5997, 0.8804)" width="319.85" xlink:href="#sprite0" />
    <use height="227.2" transform="matrix(0.3089, 0.0, 0.0, 0.4401, -0.0181, 0.0001)" width="323.85" xlink:href="#sprite1" />
  </g>
</svg>