<?xml version="1.0" encoding="UTF-8" standalone="no"?>
<svg xmlns:xlink="http://www.w3.org/1999/xlink" height="100%" width="100%" xmlns="http://www.w3.org/2000/svg" preserveAspectRatio="none" viewBox="0 0 100 100">
  <defs>
    <g id="sprite0" transform="matrix(1.0, 0.0, 0.0, 1.0, 45.05, 45.65)">
      <use height="91.25" transform="matrix(1.0, 0.0, 0.0, 1.0, -45.05, -45.65)" width="91.2" xlink:href="#shape0" />
    </g>
    <g id="shape0" transform="matrix(1.0, 0.0, 0.0, 1.0, 45.05, 45.65)">
      <path d="M45.05 -44.55 Q46.1 -43.45 46.15 -41.9 L46.15 41.9 Q46.1 43.4 45.05 44.5 43.95 45.6 42.4 45.6 L-41.35 45.6 Q-42.9 45.6 -43.95 44.5 -45.05 43.4 -45.05 41.9 L-45.05 -41.9 Q-45.05 -43.45 -43.95 -44.55 -42.9 -45.65 -41.35 -45.65 L42.4 -45.65 Q43.95 -45.65 45.05 -44.55" fill="#ffffff" fill-rule="evenodd" stroke="none" class="fill" />
    </g>
    <g id="sprite1" transform="matrix(1.0, 0.0, 0.0, 1.0, 46.55, 47.1)">
      <use height="94.15" transform="matrix(1.0, 0.0, 0.0, 1.0, -46.55, -47.1)" width="94.1" xlink:href="#shape1" />
    </g>
    <g id="shape1" transform="matrix(1.0, 0.0, 0.0, 1.0, 46.55, 47.1)">
      <path d="M44.7 -44.2 Q43.7 -45.15 42.35 -45.15 L-41.4 -45.15 Q-42.7 -45.15 -43.7 -44.2 -44.65 -43.3 -44.65 -41.9 L-44.65 41.9 Q-44.65 43.2 -43.7 44.2 -42.7 45.1 -41.4 45.15 L42.35 45.15 Q43.7 45.1 44.7 44.2 45.65 43.25 45.65 41.9 L45.65 -41.9 Q45.65 -43.3 44.7 -44.2 M46.05 -45.6 Q47.55 -44.1 47.55 -41.9 L47.55 41.9 Q47.55 44.0 46.05 45.5 44.5 47.05 42.35 47.05 L-41.4 47.05 Q-43.55 47.05 -45.05 45.5 -46.6 44.0 -46.55 41.9 L-46.55 -41.9 Q-46.6 -44.1 -45.05 -45.6 -43.55 -47.1 -41.4 -47.1 L42.35 -47.1 Q44.5 -47.1 46.05 -45.6 M43.55 -43.1 L42.35 -43.55 -41.4 -43.55 -42.55 -43.1 Q-43.05 -42.6 -43.05 -41.9 L-43.05 41.9 Q-43.05 42.55 -42.55 43.0 -42.05 43.45 -41.4 43.5 L42.35 43.5 Q43.0 43.45 43.55 43.0 44.0 42.55 44.0 41.9 L44.0 -41.9 43.55 -43.1 M44.05 -43.55 Q44.7 -42.85 44.7 -41.9 L44.7 41.9 Q44.7 42.8 44.05 43.55 43.35 44.2 42.35 44.2 L-41.4 44.2 Q-42.4 44.2 -43.05 43.55 -43.75 42.8 -43.75 41.9 L-43.75 -41.9 Q-43.75 -42.85 -43.05 -43.55 -42.4 -44.25 -41.4 -44.2 L42.35 -44.2 Q43.35 -44.25 44.05 -43.55" fill="#000000" fill-rule="evenodd" stroke="none" />
    </g>
  </defs>
  <g transform="matrix(1.0, 0.0, 0.0, 1.0, 0.0, 0.0)">
    <use height="91.25" id="fill" transform="matrix(1.0627, 0.0, 0.0, 1.0616, 1.5254, 1.588)" width="91.2" xlink:href="#sprite0" />
    <use height="94.15" transform="matrix(1.0627, 0.0, 0.0, 1.0616, -0.0186, 0.0487)" width="94.1" xlink:href="#sprite1" />
  </g>
</svg>