<?xml version="1.0" encoding="UTF-8" standalone="no"?>
<svg xmlns:xlink="http://www.w3.org/1999/xlink" height="100%" width="100%" xmlns="http://www.w3.org/2000/svg" preserveAspectRatio="none" viewBox="0 0 100 100">
  <defs>
    <g id="sprite0" transform="matrix(1.0, 0.0, 0.0, 1.0, 47.35, 16.0)">
      <use height="31.9" transform="matrix(1.0, 0.0, 0.0, 1.0, -47.35, -16.0)" width="95.7" xlink:href="#shape0" />
    </g>
    <g id="shape0" transform="matrix(1.0, 0.0, 0.0, 1.0, 47.35, 16.0)">
      <path d="M42.2 -15.5 Q42.35 -16.0 42.9 -16.0 L47.55 -16.0 Q48.35 -16.0 48.35 -15.2 L48.35 15.1 Q48.35 15.9 47.55 15.9 L42.9 15.9 Q42.35 15.9 42.2 15.45 L42.05 15.15 -41.05 15.15 -41.2 15.45 Q-41.45 15.9 -41.9 15.9 L-46.55 15.9 Q-47.35 15.9 -47.35 15.1 L-47.35 -15.2 Q-47.35 -16.0 -46.55 -16.0 L-41.9 -16.0 Q-41.35 -16.0 -41.2 -15.5 L-41.05 -15.25 42.05 -15.25 42.2 -15.5" fill="#ffffff" fill-rule="evenodd" stroke="none" class="fill" />
    </g>
    <g id="sprite1" transform="matrix(1.0, 0.0, 0.0, 1.0, 48.65, 17.3)">
      <use height="34.5" transform="matrix(1.0, 0.0, 0.0, 1.0, -48.65, -17.3)" width="98.3" xlink:href="#shape1" />
    </g>
    <g id="shape1" transform="matrix(1.0, 0.0, 0.0, 1.0, 48.65, 17.3)">
      <path d="M41.2 -14.75 L-40.15 -14.75 Q-40.65 -14.75 -40.65 -14.25 L-40.65 14.2 Q-40.65 14.7 -40.15 14.7 L41.2 14.7 41.65 14.35 41.65 -14.4 41.2 -14.75 M42.6 -15.2 L42.6 -14.85 47.85 -14.85 47.85 -15.2 47.55 -15.5 42.9 -15.5 42.6 -15.2 M42.9 -17.25 L47.55 -17.25 Q48.4 -17.25 49.05 -16.65 49.65 -16.05 49.65 -15.2 L49.65 15.1 Q49.65 15.95 49.05 16.6 48.4 17.2 47.55 17.2 L42.9 17.2 Q41.95 17.2 41.3 16.45 L-40.35 16.45 Q-40.95 17.2 -41.9 17.2 L-46.55 17.2 Q-47.4 17.2 -48.05 16.6 -48.65 15.95 -48.65 15.1 L-48.65 -15.2 Q-48.65 -16.05 -48.05 -16.7 -47.4 -17.3 -46.55 -17.3 L-41.9 -17.3 Q-40.95 -17.3 -40.3 -16.5 L41.3 -16.5 Q41.95 -17.25 42.9 -17.25 M42.6 -14.35 L42.6 14.25 47.85 14.25 47.85 -14.35 42.6 -14.35 M47.85 15.1 L47.85 14.75 42.6 14.75 42.6 15.1 Q42.6 15.45 42.9 15.45 L47.55 15.45 47.85 15.1 M-46.85 -15.2 L-46.85 -14.85 -41.6 -14.85 -41.6 -15.2 -41.9 -15.5 -46.55 -15.5 -46.85 -15.2 M-46.85 -14.35 L-46.85 14.25 -41.6 14.25 -41.6 -14.35 -46.85 -14.35 M-41.6 15.1 L-41.6 14.75 -46.85 14.75 -46.85 15.1 -46.55 15.4 -41.9 15.4 -41.6 15.1" fill="#000000" fill-rule="evenodd" stroke="none" />
    </g>
  </defs>
  <g transform="matrix(1.0, 0.0, 0.0, 1.0, 0.0, 0.0)">
    <use height="31.9" id="fill" transform="matrix(1.0173, 0.0, 0.0, 2.8985, 1.3314, 3.7233)" width="95.7" xlink:href="#sprite0" />
    <use height="34.5" transform="matrix(1.0173, 0.0, 0.0, 2.8985, 0.0089, -0.0448)" width="98.3" xlink:href="#sprite1" />
  </g>
</svg>