<?xml version="1.0" encoding="UTF-8" standalone="no"?>
<svg xmlns:xlink="http://www.w3.org/1999/xlink" height="100%" width="100%" xmlns="http://www.w3.org/2000/svg" preserveAspectRatio="none" viewBox="0 0 100 100">
  <defs>
    <g id="sprite0" transform="matrix(1.0, 0.0, 0.0, 1.0, 82.4, 66.2)">
      <use height="132.3" transform="matrix(1.0, 0.0, 0.0, 1.0, -82.4, -66.2)" width="164.8" xlink:href="#shape0" />
    </g>
    <g id="shape0" transform="matrix(1.0, 0.0, 0.0, 1.0, 82.4, 66.2)">
      <path d="M55.7 -66.15 Q57.0 -66.35 58.15 -65.7 L61.5 -65.7 61.7 -66.15 62.45 -66.15 Q63.5 -66.15 64.45 -65.55 L64.75 -65.35 Q65.1 -65.15 65.4 -64.9 66.15 -64.25 66.3 -63.35 L67.3 -63.3 68.65 -62.2 81.5 -19.55 Q81.7 -18.85 81.25 -18.3 80.75 -17.75 79.9 -17.65 L73.75 -16.2 82.35 37.8 Q82.6 39.3 81.7 40.45 80.8 41.6 79.3 41.75 L66.55 43.1 68.0 60.1 Q68.0 62.6 66.25 64.35 64.5 66.1 62.0 66.1 L-62.0 66.1 Q-64.5 66.1 -66.25 64.35 -68.0 62.6 -68.0 60.1 L-66.5 43.1 -79.3 41.75 Q-80.75 41.6 -81.65 40.45 -82.55 39.3 -82.35 37.8 L-73.7 -16.2 -79.9 -17.65 Q-80.7 -17.75 -81.2 -18.3 -81.65 -18.9 -81.45 -19.55 L-68.65 -62.2 Q-68.25 -63.15 -67.2 -63.3 L-67.0 -63.35 -66.25 -63.35 -66.25 -63.4 Q-66.3 -64.45 -65.5 -65.25 L-65.35 -65.4 Q-64.4 -66.2 -63.0 -66.2 L55.55 -65.7 55.7 -66.15" fill="#ffffff" fill-rule="evenodd" stroke="none" class="fill" />
    </g>
    <g id="sprite1" transform="matrix(1.0, 0.0, 0.0, 1.0, 84.35, 68.15)">
      <use height="136.3" transform="matrix(1.0, 0.0, 0.0, 1.0, -84.35, -68.15)" width="168.75" xlink:href="#shape1" />
    </g>
    <g id="shape1" transform="matrix(1.0, 0.0, 0.0, 1.0, 84.35, 68.15)">
      <path d="M-42.3 -33.35 L-42.7 -34.25 -47.0 -35.35 -46.45 -34.15 -46.45 -34.1 Q-45.0 -30.5 -45.35 -26.8 L-48.6 41.4 Q-48.65 42.45 -49.15 43.35 L-47.4 43.5 Q-46.3 43.6 -45.45 42.95 -44.7 42.3 -44.6 41.25 L-41.35 -26.95 Q-41.0 -30.2 -42.3 -33.35 M-52.95 -37.75 L-53.0 -37.75 Q-56.4 -39.7 -59.0 -42.25 L-62.7 -15.55 -62.7 -15.45 Q-62.95 -14.4 -64.05 -13.75 -65.05 -13.2 -66.2 -13.35 L-66.3 -13.35 -72.9 -14.9 -81.35 38.0 Q-81.5 39.05 -80.85 39.9 -80.2 40.7 -79.2 40.8 L-53.4 43.5 Q-52.4 43.6 -51.65 43.05 L-51.45 42.95 Q-50.7 42.3 -50.6 41.25 L-47.35 -26.95 Q-47.0 -30.2 -48.3 -33.35 L-49.6 -36.2 Q-51.55 -36.95 -52.95 -37.75 M-67.15 -62.2 L-67.7 -61.75 -80.5 -19.2 -80.45 -18.9 -79.75 -18.6 -79.65 -18.55 -65.95 -15.35 -65.05 -15.5 -64.7 -15.85 -60.75 -44.25 Q-66.35 -51.15 -67.15 -62.2 M46.5 -34.15 L46.7 -34.65 42.5 -33.65 42.35 -33.35 Q41.05 -30.3 41.4 -26.95 L44.6 41.2 44.6 41.25 Q44.7 42.3 45.55 42.95 46.35 43.6 47.45 43.5 L49.25 43.35 Q48.7 42.5 48.6 41.4 L45.4 -26.8 Q45.05 -30.6 46.5 -34.1 L46.5 -34.15 M59.1 -41.9 Q56.9 -39.65 54.2 -37.8 52.3 -36.55 49.3 -35.45 L48.35 -33.35 Q47.05 -30.3 47.4 -26.95 L50.6 41.2 50.6 41.25 Q50.7 42.3 51.55 42.95 L51.7 43.1 Q52.5 43.6 53.45 43.5 L79.2 40.8 Q80.3 40.7 80.95 39.9 81.55 39.05 81.4 38.05 L81.35 38.0 72.9 -14.9 66.35 -13.35 66.25 -13.35 Q65.1 -13.2 64.1 -13.75 63.0 -14.4 62.8 -15.45 L62.75 -15.55 59.1 -41.9 M39.4 -26.8 Q39.1 -30.15 40.15 -33.2 26.25 -30.8 1.3 -30.8 L-31.95 -32.5 -40.35 -33.75 Q-39.0 -30.35 -39.35 -26.8 L-42.6 41.4 Q-42.75 43.35 -44.2 44.5 -45.7 45.7 -47.6 45.5 L-51.2 45.15 -53.6 45.5 -65.6 44.25 -67.0 60.25 Q-67.0 62.25 -65.55 63.7 -64.1 65.15 -62.0 65.15 L62.0 65.15 Q64.1 65.15 65.55 63.7 67.0 62.25 67.0 60.25 L65.6 44.25 53.65 45.5 51.3 45.15 47.65 45.5 Q45.75 45.7 44.3 44.5 42.8 43.35 42.6 41.4 L39.4 -26.8 M67.75 -61.75 L67.25 -62.2 Q66.45 -51.15 60.85 -43.9 L64.75 -15.85 65.1 -15.5 66.0 -15.35 79.7 -18.55 79.8 -18.6 80.5 -18.9 80.5 -18.85 80.55 -19.2 67.75 -61.75 M64.75 -64.05 L64.75 -64.1 64.25 -64.4 63.05 -64.65 -63.0 -65.15 Q-64.0 -65.15 -64.65 -64.6 L-64.7 -64.55 Q-65.25 -64.05 -65.25 -63.4 L-65.15 -62.15 Q-64.45 -53.2 -60.35 -47.15 L-58.65 -44.9 Q-55.9 -41.7 -52.0 -39.5 L-50.75 -38.9 -48.1 -37.8 -43.75 -36.55 -41.3 -36.0 -31.7 -34.5 Q-17.85 -32.8 1.3 -32.8 27.3 -32.8 41.05 -35.4 L43.45 -35.9 47.8 -37.05 50.4 -38.05 Q51.95 -38.7 53.1 -39.45 56.35 -41.65 58.7 -44.5 L60.45 -46.8 Q64.55 -53.15 65.25 -62.2 L65.3 -62.9 Q65.3 -63.55 64.75 -64.05 M60.45 -67.65 L60.55 -67.7 61.45 -68.05 Q63.5 -68.4 65.55 -67.1 L65.6 -67.05 Q67.0 -66.4 67.7 -65.25 69.8 -64.95 70.5 -62.9 L70.6 -62.7 83.45 -20.05 Q83.9 -18.35 82.8 -16.95 L82.75 -16.9 Q81.85 -15.9 80.4 -15.65 L76.05 -14.6 84.35 37.55 Q84.7 39.9 83.3 41.75 81.85 43.55 79.55 43.8 L79.5 43.8 68.7 44.95 70.0 60.0 70.0 60.15 Q70.0 63.5 67.7 65.85 65.35 68.15 62.0 68.15 L-62.0 68.15 Q-65.35 68.15 -67.65 65.85 -70.0 63.5 -70.0 60.15 L-70.0 60.0 -68.65 44.95 -79.5 43.8 Q-81.8 43.55 -83.2 41.75 -84.65 39.9 -84.3 37.6 L-84.3 37.55 -75.95 -14.6 -80.35 -15.65 Q-81.75 -15.9 -82.65 -16.9 L-82.8 -17.05 Q-83.9 -18.5 -83.35 -20.1 L-83.35 -20.05 -70.55 -62.7 -70.5 -62.9 Q-69.85 -64.85 -67.85 -65.25 -67.5 -66.1 -66.65 -66.85 -65.2 -68.15 -63.0 -68.15 L60.45 -67.65" fill="#000000" fill-rule="evenodd" stroke="none" />
    </g>
  </defs>
  <g transform="matrix(1.0, 0.0, 0.0, 1.0, 0.0, 0.0)">
    <use height="132.3" id="fill" transform="matrix(0.5929, 0.0, 0.0, 0.7337, 1.1454, 1.4308)" width="164.8" xlink:href="#sprite0" />
    <use height="136.3" transform="matrix(0.5929, 0.0, 0.0, 0.7337, -0.0107, 0.0002)" width="168.75" xlink:href="#sprite1" />
  </g>
</svg>